<svg id="Layer_1" enable-background="new 0 0 512 512" viewBox="0 0 512 512" xmlns="http://www.w3.org/2000/svg"><g><g><g><g><path d="m108.7 125.4h-15.6c-3.7 0-6.7-3.1-6.7-6.7v-22.5c0-3.7 3.1-6.7 6.7-6.7h15.6c3.7 0 6.7 3.1 6.7 6.7v22.3c.1 3.8-3 6.9-6.7 6.9zm-12.5-9.8h9.4v-16.3h-9.4z"/></g><g><path d="m156.4 125.4h-15.6c-3.7 0-6.7-3.1-6.7-6.7v-22.5c0-3.7 3.1-6.7 6.7-6.7h15.6c3.7 0 6.7 3.1 6.7 6.7v22.3c0 3.8-3 6.9-6.7 6.9zm-12.5-9.8h9.4v-16.3h-9.4z"/></g><g><path d="m204.1 125.4h-15.6c-3.7 0-6.7-3.1-6.7-6.7v-22.5c0-3.7 3.1-6.7 6.7-6.7h15.6c3.7 0 6.7 3.1 6.7 6.7v22.3c0 3.8-3 6.9-6.7 6.9zm-12.5-9.8h9.4v-16.3h-9.4z"/></g></g><g><path d="m420.6 112.3h-179.4c-2.7 0-4.9-2.2-4.9-4.9s2.2-4.9 4.9-4.9h179.4c2.7 0 4.9 2.2 4.9 4.9s-2.2 4.9-4.9 4.9z"/></g></g><g><path d="m453.2 444.1h-394.5c-9.7 0-17.7-8-17.7-17.7v-340.8c0-9.7 8-17.7 17.7-17.7h394.6c9.7 0 17.7 8 17.7 17.7v340.9c-.1 9.6-8 17.6-17.8 17.6zm-394.5-366.4c-4.4 0-7.9 3.6-7.9 7.9v340.9c0 4.4 3.6 7.9 7.9 7.9h394.6c4.4 0 7.9-3.6 7.9-7.9v-340.9c0-4.4-3.6-7.9-7.9-7.9z"/></g><g><path d="m466 147h-420.1c-2.7 0-4.9-2.2-4.9-4.9s2.2-4.9 4.9-4.9h420.2c2.7 0 4.9 2.2 4.9 4.9s-2.3 4.9-5 4.9z"/></g><g><g><g><path d="m419.9 228.6h-153.8c-3.8 0-7-3.1-7-7v-29.2c0-3.8 3.1-7 7-7h154c3.8 0 7 3.1 7 7v29.2c0 .3 0 .5-.1.8-.5 3.6-3.5 6.2-7.1 6.2zm-151.1-9.7h148.6v-23.7h-148.6z"/></g><g><path d="m415.3 270.4h-150.2c-2.7 0-4.9-2.2-4.9-4.9s2.2-4.9 4.9-4.9h150.2c2.7 0 4.9 2.2 4.9 4.9-.1 2.7-2.3 4.9-4.9 4.9z"/></g></g><g><g><path d="m422.2 312.2h-332.6c-2.7 0-4.9-2.2-4.9-4.9s2.2-4.9 4.9-4.9h332.5c2.7 0 4.9 2.2 4.9 4.9.1 2.7-2.1 4.9-4.8 4.9z"/></g><g><path d="m415.3 354.2h-325.7c-2.7 0-4.9-2.2-4.9-4.9s2.2-4.9 4.9-4.9h325.5c2.7 0 4.9 2.2 4.9 4.9.1 2.7-2.1 4.9-4.7 4.9z"/></g><g><path d="m422.2 395.9h-332.6c-2.7 0-4.9-2.2-4.9-4.9s2.2-4.9 4.9-4.9h332.5c2.7 0 4.9 2.2 4.9 4.9.1 2.7-2.1 4.9-4.8 4.9z"/></g></g><g><g><g><g><g><path d="m212.3 270.4h-103.2c-6.6 0-12.8-2.5-17.3-7.3-4.5-4.6-7-10.8-6.9-17.2 0-11.8 8.5-21.7 19.7-23.9.6-5.9 3.1-11.4 7.2-15.7 5-5.2 12.1-8.3 19.3-8.3 2.3 0 4.5.3 6.6.9 4.5-8.3 13.2-13.6 23-13.6 9.7 0 18.5 5.3 23 13.6 2.2-.5 4.5-.9 6.7-.9 7.3 0 14.3 3 19.2 8.1 4.1 4.3 6.6 9.7 7.3 15.7 11.2 2.2 19.7 12.1 19.7 24 .1 13.7-10.8 24.6-24.3 24.6zm-81.2-62.5c-4.6 0-9.1 1.9-12.2 5.2-2.3 2.4-5 6.6-4.6 13 .1 1.3-.4 2.6-1.3 3.6-1 1-2.2 1.5-3.5 1.5-8 0-14.7 6.6-14.7 14.7-.1 3.9 1.4 7.6 4.1 10.3 2.7 2.8 6.5 4.4 10.4 4.4h103.1c8 0 14.7-6.6 14.7-14.7s-6.6-14.7-14.7-14.7c-1.3 0-2.6-.5-3.5-1.5-1-1-1.4-2.3-1.3-3.6.3-6.6-2.4-10.8-4.7-13.2-3.1-3.3-7.6-5.2-12.2-5.2-2.5 0-5.1.5-7.2 1.7-1.3.6-2.8.7-4.1.1-1.3-.5-2.4-1.7-2.7-3.1-2.2-6.9-8.5-11.5-15.7-11.5-7.3 0-13.6 4.6-15.7 11.5-.4 1.4-1.4 2.4-2.7 3.1-1.3.6-2.8.5-4.1-.1-2.4-.9-4.9-1.5-7.4-1.5z"/></g></g></g></g></g></g></g></svg>