<svg enable-background="new 0 0 512 512" height="512" viewBox="0 0 512 512" width="512" xmlns="http://www.w3.org/2000/svg"><g id="_x31_3_creativity"><g><path d="m29.895 69.726c.012 77.558 0-32.276.005 301.463 0 37.874 30.782 68.685 68.622 68.685h93.375c1.375 2.707 3.269 5.072 5.573 7.008-5.47 4.52-8.069 10.705-8.069 17.084 0 12.342 10.045 22.384 22.387 22.384h11.351l17.85 17.852c8.899 8.899 23.382 8.899 32.281 0l17.85-17.852h11.356c12.225 0 22.382-9.838 22.382-22.384 0-6.87-3.177-12.949-8.063-17.057 1.581-1.306 3.288-2.483 5.58-7.036h91.106c37.84 0 68.622-30.811 68.622-68.685 0-46.615 0-265.196 0-301.463 0-37.827-30.803-68.602-68.664-68.602h-314.885c-37.861.001-68.659 30.775-68.659 68.603zm240.062 68.306c57.295 6.268 103.126 52.546 108.869 109.958 4.375 43.78-14.311 84.867-47.257 110.328-16.2 12.612-27.447 30.502-32.063 49.122h-87.063c-8.706-34.497-31.719-47.561-43.239-58.902-23.452-23.108-36.659-54.408-36.662-87.82.006-72.115 62.251-130.904 137.415-122.686zm-4.195 358.661c-4.75 4.755-12.492 4.76-17.263 0l-10.34-10.343h37.944zm48.476-32.727c0 6.665-5.353 11.764-11.761 11.764-30.207 0-60.451 0-90.688 0-6.487 0-11.766-5.276-11.766-11.764 0-6.622 5.322-11.761 11.766-11.761h90.688c6.487 0 11.761 5.276 11.761 11.761zm-102.449-22.381c-6.689 0-11.766-5.599-11.766-11.765.001-6.637 5.336-11.76 11.766-11.76h90.688c6.487 0 11.761 5.276 11.761 11.76 0 6.287-5.02 11.765-11.761 11.765zm259.695-70.396c0 32.017-26.022 58.064-58.002 58.064h-88.629c-.223-8.778-5.925-17.255-14.666-20.443 4.539-17.178 14.78-31.908 27.91-42.078 36.566-28.321 55.938-73.219 51.323-119.811-6.145-61.059-54.982-112.522-118.312-119.455-82.371-8.989-149.188 55.887-149.188 133.242v.01.01c0 36.395 14.425 70.465 40.022 95.558 12.737 12.498 31.964 22.091 40.035 53.411-7.17 3.498-12.353 10.964-12.571 19.555h-90.883c-31.98 0-58.002-26.048-58.002-58.064v-262.417h430.963zm-372.93-359.445h314.886c32.006 0 58.044 26.011 58.044 57.981v28.4h-430.968v-28.4c0-31.969 26.037-57.981 58.038-57.981z"/><path d="m102.511 78.751c12.518 0 22.703-10.213 22.703-22.765 0-12.518-10.185-22.7-22.703-22.7-12.513 0-22.698 10.182-22.698 22.7 0 12.552 10.185 22.765 22.698 22.765zm0-34.845c6.664 0 12.083 5.419 12.083 12.08 0 6.697-5.419 12.145-12.083 12.145-6.658 0-12.078-5.448-12.078-12.145 0-6.661 5.419-12.08 12.078-12.08z"/><path d="m165.968 78.751c12.513 0 22.698-10.213 22.698-22.765 0-12.518-10.185-22.7-22.698-22.7s-22.698 10.182-22.698 22.7c.001 12.552 10.185 22.765 22.698 22.765zm0-34.845c6.658 0 12.077 5.419 12.077 12.08 0 6.697-5.419 12.145-12.077 12.145-6.659 0-12.078-5.448-12.078-12.145.001-6.661 5.42-12.08 12.078-12.08z"/><path d="m229.426 78.751c12.513 0 22.698-10.213 22.698-22.765 0-12.518-10.185-22.7-22.698-22.7s-22.698 10.182-22.698 22.7c0 12.552 10.185 22.765 22.698 22.765zm0-34.845c6.658 0 12.077 5.419 12.077 12.08 0 6.697-5.419 12.145-12.077 12.145s-12.078-5.448-12.078-12.145c0-6.661 5.419-12.08 12.078-12.08z"/><path d="m235.089 284.512c2.031 2.522 5.83 2.645 8.027.277l53.957-58.173c1.991-2.152 1.867-5.51-.285-7.506-2.152-1.994-5.507-1.869-7.504.283l-49.783 53.675-16.542-20.517c-1.836-2.277-5.175-2.645-7.467-.799-2.282 1.841-2.64 5.183-.799 7.467z"/></g></g></svg>