<svg enable-background="new 0 0 128 128" viewBox="0 0 128 128" xmlns="http://www.w3.org/2000/svg"><g id="Layer_1" display="none"><g id="XMLID_925_" display="inline" fill="none" stroke="#000" stroke-miterlimit="10" stroke-width=".1"><path id="XMLID_988_" d="m0 0h128v128h-128z"/><path id="XMLID_987_" d="m0 124h128"/><path id="XMLID_986_" d="m0 120h128"/><path id="XMLID_985_" d="m0 116h128"/><path id="XMLID_984_" d="m0 112h128"/><path id="XMLID_983_" d="m0 108h128"/><path id="XMLID_982_" d="m0 104h128"/><path id="XMLID_981_" d="m0 100h128"/><path id="XMLID_980_" d="m0 96h128"/><path id="XMLID_979_" d="m0 92h128"/><path id="XMLID_978_" d="m0 88h128"/><path id="XMLID_977_" d="m0 84h128"/><path id="XMLID_976_" d="m0 80h128"/><path id="XMLID_975_" d="m0 76h128"/><path id="XMLID_974_" d="m0 72h128"/><path id="XMLID_973_" d="m0 68h128"/><path id="XMLID_972_" d="m0 64h128"/><path id="XMLID_971_" d="m0 60h128"/><path id="XMLID_970_" d="m0 56h128"/><path id="XMLID_969_" d="m0 52h128"/><path id="XMLID_968_" d="m0 48h128"/><path id="XMLID_967_" d="m0 44h128"/><path id="XMLID_966_" d="m0 40h128"/><path id="XMLID_965_" d="m0 36h128"/><path id="XMLID_964_" d="m0 32h128"/><path id="XMLID_963_" d="m0 28h128"/><path id="XMLID_962_" d="m0 24h128"/><path id="XMLID_961_" d="m0 20h128"/><path id="XMLID_960_" d="m0 16h128"/><path id="XMLID_959_" d="m0 12h128"/><path id="XMLID_958_" d="m0 8h128"/><path id="XMLID_957_" d="m0 4h128"/><path id="XMLID_956_" d="m124 0v128"/><path id="XMLID_955_" d="m120 0v128"/><path id="XMLID_954_" d="m116 0v128"/><path id="XMLID_953_" d="m112 0v128"/><path id="XMLID_952_" d="m108 0v128"/><path id="XMLID_951_" d="m104 0v128"/><path id="XMLID_950_" d="m100 0v128"/><path id="XMLID_949_" d="m96 0v128"/><path id="XMLID_948_" d="m92 0v128"/><path id="XMLID_947_" d="m88 0v128"/><path id="XMLID_946_" d="m84 0v128"/><path id="XMLID_945_" d="m80 0v128"/><path id="XMLID_944_" d="m76 0v128"/><path id="XMLID_943_" d="m72 0v128"/><path id="XMLID_942_" d="m68 0v128"/><path id="XMLID_941_" d="m64 0v128"/><path id="XMLID_940_" d="m60 0v128"/><path id="XMLID_939_" d="m56 0v128"/><path id="XMLID_938_" d="m52 0v128"/><path id="XMLID_937_" d="m48 0v128"/><path id="XMLID_936_" d="m44 0v128"/><path id="XMLID_935_" d="m40 0v128"/><path id="XMLID_934_" d="m36 0v128"/><path id="XMLID_933_" d="m32 0v128"/><path id="XMLID_932_" d="m28 0v128"/><path id="XMLID_931_" d="m24 0v128"/><path id="XMLID_930_" d="m20 0v128"/><path id="XMLID_929_" d="m16 0v128"/><path id="XMLID_928_" d="m12 0v128"/><path id="XMLID_927_" d="m8 0v128"/><path id="XMLID_926_" d="m4 0v128"/></g></g><g id="Layer_2" display="none"/><g id="Layer_3"><g id="art_board_12" fill="none" stroke="#000" stroke-miterlimit="10" stroke-width="3"><g id="XMLID_3845_"><g id="XMLID_3848_"><path id="XMLID_3915_" d="m40.6 53h4c.7 0 1.3.5 1.5 1.2l7.7 28.8c.1.4.5.7 1 .7h25.2c.5 0 .9-.3 1-.8l4.4-18.6c.2-.6-.3-1.2-1-1.2h-30.5"/><path id="XMLID_3850_" d="m55.3 70h24"/><path id="XMLID_3849_" d="m57.3 77.2h20"/></g><circle id="XMLID_3847_" cx="59.8" cy="90" r="2.7"/><circle id="XMLID_3846_" cx="75.3" cy="90" r="2.7"/></g><g stroke-linecap="round"><g id="XMLID_3971_"><path id="XMLID_3973_" d="m15.8 30.3h96.4v67.4h-96.4z"/><path id="XMLID_3972_" d="m16.1 46.5h95.8"/></g><path id="XMLID_3962_" d="m81.6 37.3h1v1h-1z"/><path id="XMLID_3961_" d="m91.8 37.3h1v1h-1z"/><path id="XMLID_3960_" d="m102 37.3h1v1h-1z"/></g></g></g></svg>