<svg id="line_icon" height="512" viewBox="0 0 64 64" width="512" xmlns="http://www.w3.org/2000/svg" data-name="line icon"><path d="m22.4 17.075c-5.046 0-9-2.1-9-4.787s3.949-4.788 9-4.788 9 2.1 9 4.788-3.96 4.787-9 4.787zm0-8.575c-4.336 0-8 1.734-8 3.788s3.663 3.787 8 3.787 8-1.734 8-3.787-3.67-3.788-8-3.788z"/><path d="m22.4 21.976c-5.046 0-9-2.1-9-4.788a.5.5 0 0 1 1 0c0 2.053 3.663 3.788 8 3.788s8-1.735 8-3.788a.5.5 0 1 1 1 0c-.006 2.685-3.96 4.788-9 4.788z"/><path d="m22.4 27.183c-5.046 0-9-2.1-9-4.788a.5.5 0 1 1 1 0c0 2.053 3.663 3.788 8 3.788s8-1.735 8-3.788a.5.5 0 0 1 1 0c-.006 2.684-3.96 4.788-9 4.788z"/><path d="m30.894 28.1a.5.5 0 0 1 -.5-.5v-15.312a.5.5 0 0 1 1 0v15.312a.5.5 0 0 1 -.5.5z"/><path d="m13.9 28.1a.5.5 0 0 1 -.5-.5v-15.312a.5.5 0 0 1 1 0v15.312a.5.5 0 0 1 -.5.5z"/><path d="m22.4 32.389c-5.046 0-9-2.1-9-4.787a.5.5 0 0 1 1 0c0 2.052 3.663 3.787 8 3.787s8-1.735 8-3.787a.5.5 0 1 1 1 0c-.006 2.684-3.96 4.787-9 4.787z"/><path d="m48.1 56.5h-11.7a2.5 2.5 0 0 1 -2.5-2.5v-24.994a2.5 2.5 0 0 1 2.5-2.5h11.7a2.5 2.5 0 0 1 2.5 2.5v24.994a2.5 2.5 0 0 1 -2.5 2.5zm-11.7-28.994a1.5 1.5 0 0 0 -1.5 1.5v24.994a1.5 1.5 0 0 0 1.5 1.5h11.7a1.5 1.5 0 0 0 1.5-1.5v-24.994a1.5 1.5 0 0 0 -1.5-1.5z"/><path d="m50.1 31.772h-15.7a.5.5 0 0 1 0-1h15.7a.5.5 0 0 1 0 1z"/><path d="m50.1 52.016h-15.7a.5.5 0 0 1 0-1h15.7a.5.5 0 0 1 0 1z"/><path d="m43.429 29.525h-2.357a.5.5 0 0 1 0-1h2.357a.5.5 0 0 1 0 1z"/><path d="m42.251 55.074a1.3 1.3 0 1 1 1.3-1.3 1.3 1.3 0 0 1 -1.3 1.3zm0-1.6a.3.3 0 1 0 .3.3.3.3 0 0 0 -.3-.304z"/><path d="m42.251 27.5a.5.5 0 0 1 -.5-.5v-7.021h-10.857a.5.5 0 0 1 0-1h11.357a.5.5 0 0 1 .5.5v7.521a.5.5 0 0 1 -.5.5z"/></svg>