<svg clip-rule="evenodd" fill-rule="evenodd" height="512" image-rendering="optimizeQuality" shape-rendering="geometricPrecision" text-rendering="geometricPrecision" viewBox="0 0 173.397 173.397" width="512" xmlns="http://www.w3.org/2000/svg"><g id="Layer_x0020_1"><g id="_266070840"><path id="_266070936" d="m59.2356 88.2454c.433 0 .8598.158 1.1939.4581 4.1305 3.7247 8.8883 6.4752 14.1446 8.1798.7363.2383 1.2313.922 1.2313 1.6954v3.8081c0 2.3451 1.9089 4.2512 4.2539 4.2512l13.2758-.0001c2.3452 0 4.2534-1.9057 4.2534-4.2508l.0004-3.8054c0-.7734.4946-1.4571 1.2309-1.6952 5.2568-1.7081 10.0176-4.4582 14.1477-8.1799.5724-.5169 1.4138-.6064 2.0821-.2197l3.3072 1.9087c.9781.5631 2.1223.7118 3.2237.4178 1.1019-.2939 2.0203-.9961 2.5833-1.9738l6.6392-11.4964c1.173-2.0327.4733-4.6375-1.5561-5.81l-3.3005-1.9059c-.6683-.3867-1.0122-1.1569-.8514-1.9118.5667-2.6762.8539-5.4264.8539-8.1737.0003-2.7505-.2877-5.4976-.8539-8.1736-.1607-.755.1856-1.5284.8539-1.912l3.2984-1.9058c.9773-.5632 1.6794-1.4818 1.9734-2.5833.2944-1.1016.1454-2.246-.4177-3.2267l-6.6386-11.4967c-1.173-2.0294-3.7781-2.7284-5.8076-1.5559l-3.3098 1.9119c-.6683.3836-1.5102.2971-2.0825-.2196-4.1302-3.7251-8.8884-6.4751-14.1447-8.1798-.7359-.2384-1.2313-.922-1.2313-1.6954l.0004-3.8085c0-2.3452-1.9092-4.2508-4.2543-4.2508h-13.2747c-2.3451 0-4.2545 1.9058-4.2545 4.2508v3.8083c0 .7733-.4951 1.4573-1.2313 1.6956-5.2528 1.7045-10.0145 4.455-14.1446 8.1798-.5723.5166-1.4138.6033-2.0852.2197l-3.3068-1.9122c-2.0299-1.1726-4.6349-.4731-5.8074 1.5564l-6.6388 11.4992c-1.1723 2.0298-.4737 4.6347 1.5558 5.8073l3.298 1.9054c.6683.3839 1.0147 1.1574.8538 1.9123-.5655 2.6729-.8539 5.4232-.8539 8.1736.0001 2.7501.2878 5.5007.8539 8.1737.1611.7545-.1857 1.5283-.8539 1.9119l-3.2979 1.9054c-2.0291 1.1726-2.7287 3.7779-1.5563 5.8105l6.6398 11.4961c.5632.9778 1.4814 1.6801 2.5828 1.974 1.1016.294 2.2461.1454 3.2237-.4176l3.3109-1.9089c.275-.1612.5841-.2413.8876-.2415zm34.0995 21.9565h-13.2752c-4.3095 0-7.8185-3.5052-7.8185-7.8148v-2.5341c-4.8413-1.7322-9.2782-4.2999-13.2164-7.6442l-2.2055 1.2743c-1.8009 1.0396-3.9078 1.3151-5.9281.7736-2.0227-.5414-3.7094-1.8345-4.7488-3.6351l-6.6392-11.4964c-2.153-3.7342-.8694-8.5233 2.8617-10.6796l2.1968-1.2686c-.4517-2.509-.6809-5.0736-.6809-7.6352.0001-2.5618.229-5.1263.6806-7.6353l-2.1965-1.2687c-3.7304-2.1564-5.0149-6.9453-2.8618-10.6764l6.6394-11.4997c2.1538-3.7311 6.9454-5.0146 10.6763-2.8614l2.2064 1.2743c3.9385-3.3472 8.3743-5.9119 13.216-7.6443v-2.5339c0-4.3095 3.5084-7.8148 7.8179-7.8148h13.2758c4.3095 0 7.8174 3.5053 7.8174 7.8148l.0004 2.5337c4.8413 1.7326 9.2777 4.2974 13.2161 7.6448l2.2058-1.2749c3.7311-2.1529 8.5202-.8691 10.6766 2.862l6.6395 11.4964c1.0392 1.8036 1.3145 3.9105.7731 5.9307-.5413 2.02-1.8345 3.7063-3.6351 4.7489l-2.1965 1.2681c.4517 2.5123.6805 5.0741.6805 7.6357.0003 2.5614-.2289 5.1232-.6807 7.6354l2.1971 1.2681c3.7311 2.1565 5.0144 6.9457 2.8613 10.6768l-6.639 11.4993c-1.0393 1.8005-2.7258 3.094-4.7492 3.6353-2.0196.5413-4.127.2662-5.9276-.7734l-2.2024-1.2716c-3.9384 3.3444-8.3782 5.9091-13.2199 7.6447l.0004 2.5304c0 4.3099-3.5087 7.8151-7.8178 7.8151z"/><path id="_266070768" d="m86.6958 33.1057c-14.5748 0-26.4334 11.8583-26.4334 26.4361.0007 14.5777 11.8584 26.4361 26.433 26.4361 14.5779-.0001 26.4361-11.8584 26.4361-26.4361.0005-14.5778-11.8583-26.4361-26.4357-26.4361zm0 56.4361c-16.5392 0-29.9974-13.4577-29.9974-30 .0007-16.5425 13.4578-30.0001 29.997-30.0001 16.5423 0 30.0001 13.4578 30.0001 30.0001.0005 16.5421-13.4578 30.0001-29.9997 30z"/><path id="_266071224" d="m59.2384 130.457h-23.8775c-.9835 0-1.7821-.7949-1.7821-1.7817.0001-.9839.7983-1.782 1.782-1.782l22.0956-.0003v-36.8651c0-.9836.7951-1.7818 1.782-1.7818.9842-.0002 1.782.7982 1.782 1.782v38.6469c0 .987-.7982 1.7823-1.782 1.782z"/><path id="_266071488" d="m138.033 130.46h-23.8747c-.9835 0-1.7822-.798-1.7822-1.7818l.0002-38.6473c0-.9839.7981-1.7818 1.7818-1.7818.9845-.0002 1.782.7981 1.782 1.782l.0002 36.8649h22.0927c.9835 0 1.7816.7984 1.7816 1.7822.0004.9837-.7981 1.782-1.7816 1.7818z"/><path id="_266071320" d="m86.6958 142.507c-.9836 0-1.7824-.7982-1.7824-1.782l.0004-32.305c0-.9839.7978-1.7819 1.7816-1.7819.9875-.0001 1.782.7982 1.782 1.782l.0004 32.3049c0 .9835-.7955 1.782-1.782 1.782z"/><path id="_266071272" d="m24.3564 119.452c-5.0856 0-9.2225 4.1394-9.2225 9.2225 0 5.086 4.1363 9.2255 9.2224 9.2255 5.0865-.0002 9.2225-4.1395 9.2225-9.2255.0001-5.0832-4.1363-9.2225-9.2224-9.2225zm0 22.0118c-7.0507 0-12.7865-5.7387-12.7865-12.7893.0006-7.0507 5.7358-12.7866 12.7864-12.7866 7.0508-.0003 12.7865 5.7359 12.7865 12.7866.0001 7.0504-5.7359 12.7895-12.7864 12.7893z"/><path id="_266071416" d="m149.038 119.455c-5.0829 0-9.2229 4.1367-9.2229 9.2228.0004 5.0862 4.1395 9.2225 9.2226 9.2225 5.0867-.0002 9.2255-4.1363 9.2255-9.2225.0001-5.0862-4.1395-9.2224-9.2252-9.2228zm0 22.0091c-7.0507 0-12.7869-5.7356-12.7869-12.7863.0004-7.051 5.7358-12.7864 12.7866-12.7864 7.0511-.0004 12.7895 5.7358 12.7895 12.7864.0001 7.0505-5.7389 12.7865-12.7892 12.7863z"/><path id="_266071032" d="m86.6958 142.507c-5.0829 0-9.2229 4.1363-9.2229 9.2225.0003 5.086 4.1395 9.2224 9.2225 9.2224 5.0868-.0001 9.2256-4.1364 9.2256-9.2224.0001-5.0864-4.1394-9.2225-9.2252-9.2225zm0 22.0088c-7.0508 0-12.7869-5.7357-12.7869-12.7863.0003-7.0507 5.7358-12.7865 12.7865-12.7865 7.0511 0 12.7896 5.7358 12.7896 12.7865.0001 7.0504-5.7389 12.7864-12.7892 12.7863z"/></g></g></svg>