<?xml version="1.0" encoding="UTF-8"?>
<svg xmlns="http://www.w3.org/2000/svg" id="Layer_1" data-name="Layer 1" viewBox="0 0 110 110" width="512" height="512"><path d="M66.14,31.86a10,10,0,0,0-2.77-7.18,10.11,10.11,0,0,0-14.25-.3,10,10,0,0,0-1.66,2.06,8.18,8.18,0,0,0-.52,1,10.11,10.11,0,0,0,1.82,11.23,7.7,7.7,0,0,0,1,.87l.17.13a10,10,0,0,0,5.17,2c.32,0,.65,0,1,0a10.12,10.12,0,0,0,10.11-9.87ZM55.25,39.69A7.9,7.9,0,0,1,51.05,38L51,38a7.06,7.06,0,0,1-.76-.69,8,8,0,0,1-2.07-4,7.79,7.79,0,0,1,0-3.26,8,8,0,0,1,.58-1.75,7.15,7.15,0,0,1,.42-.77,7.81,7.81,0,0,1,1.34-1.66,8.08,8.08,0,0,1,11.41.24,7.93,7.93,0,0,1,2.22,5.75,8.12,8.12,0,0,1-8.89,7.88Zm-29.32,24a6.56,6.56,0,0,0-6.56,6.56v3.07H7.5a1,1,0,0,0-1,1v28.56a1,1,0,0,0,1,1H35.24a1,1,0,0,0,1-1V74.31a1,1,0,0,0-1-1H21.37V70.24a4.56,4.56,0,0,1,4.56-4.56H54.5v7.63H41.63a1,1,0,0,0-1,1v28.56a1,1,0,0,0,1,1H69.37a1,1,0,0,0,1-1V74.31a1,1,0,0,0-1-1H56.5V65.68H85.07a4.56,4.56,0,0,1,4.56,4.56v3.07H74.76a1,1,0,0,0-1,1v28.56a1,1,0,0,0,1,1H102.5a1,1,0,0,0,1-1V74.31a1,1,0,0,0-1-1H91.63V70.24a6.57,6.57,0,0,0-6.56-6.56H56.5V57.13L60,57.2h0a1,1,0,0,0,1-.8l.82-4a20.72,20.72,0,0,0,3.95-1.54l2.69,2a.41.41,0,0,0,.11.07l.5.36a1,1,0,0,0,1.28-.08l6.57-6.28A1,1,0,0,0,77,45.6l-2.27-3.42a20.59,20.59,0,0,0,1.71-3.86l4.07-.63a1,1,0,0,0,.84-1l.23-9.08a1,1,0,0,0-.8-1l-4-.81a21.19,21.19,0,0,0-1.53-3.94l2.43-3.3a1,1,0,0,0-.08-1.28l-6.25-6.56a1,1,0,0,0-1.29-.14L66.68,12.9a21.76,21.76,0,0,0-3.86-1.7l-.62-4a1,1,0,0,0-1-.85l-9.08-.17a1,1,0,0,0-1,.8l-.82,4a20.89,20.89,0,0,0-3.94,1.53l-3.3-2.42a1,1,0,0,0-1.28.09l-6.57,6.28a1,1,0,0,0-.14,1.27l2.25,3.41c-.25.44-.5.93-.75,1.46a19,19,0,0,0-1,2.42l-4.06.63a1,1,0,0,0-.85,1l-.23,9.08a1,1,0,0,0,.81,1l4,.79a21.57,21.57,0,0,0,1.51,3.94l-2.44,3.3A1,1,0,0,0,34.48,46l6.27,6.56A1,1,0,0,0,42,52.7l3.43-2.3a20.37,20.37,0,0,0,3.86,1.71l.6,4a1,1,0,0,0,1,.85l3.61.07v6.6ZM13.17,101.87V99.46a4.89,4.89,0,0,1,4.88-4.88h6.64a4.89,4.89,0,0,1,4.88,4.88v2.41Zm21.07,0H31.57V99.46a6.89,6.89,0,0,0-6.88-6.88H18.05a6.89,6.89,0,0,0-6.88,6.88v2.41H8.5V75.31H34.24Zm13.06,0V99.46a4.89,4.89,0,0,1,4.88-4.88h6.64a4.89,4.89,0,0,1,4.89,4.88v2.41Zm21.07,0H65.71V99.46a6.89,6.89,0,0,0-6.89-6.88H52.18a6.89,6.89,0,0,0-6.88,6.88v2.41H42.63V75.31H68.37Zm13.06,0V99.46a4.89,4.89,0,0,1,4.89-4.88H93a4.89,4.89,0,0,1,4.88,4.88v2.41Zm20.07,0H99.84V99.46A6.89,6.89,0,0,0,93,92.58H86.32a6.89,6.89,0,0,0-6.89,6.88v2.41H75.76V75.31H101.5ZM51.2,51.19a1,1,0,0,0-.71-.81,19.14,19.14,0,0,1-4.55-2,1,1,0,0,0-1.07,0l-3.26,2.18L36.5,45.23l2.32-3.14A1,1,0,0,0,38.89,41a19.88,19.88,0,0,1-1.78-4.65,1,1,0,0,0-.78-.75l-3.81-.75.19-7.4,3.86-.6a1,1,0,0,0,.8-.71,19.12,19.12,0,0,1,1-2.74,16.63,16.63,0,0,1,1-1.81,1,1,0,0,0,0-1.08L37.23,17.3l5.36-5.12,3.12,2.29a1,1,0,0,0,1.08.07,18.87,18.87,0,0,1,4.4-1.74,1.2,1.2,0,0,1,.26-.07,1,1,0,0,0,.72-.77L53,8.14l7.4.14.58,3.84a1,1,0,0,0,.71.81,19.25,19.25,0,0,1,4.55,2,1,1,0,0,0,1.08,0l3.24-2.17,5.1,5.34L73.3,21.2a1,1,0,0,0-.07,1.08A19.79,19.79,0,0,1,75,26.93a1,1,0,0,0,.77.74l3.8.76-.19,7.41-3.85.6a1,1,0,0,0-.81.71,18.83,18.83,0,0,1-2,4.53,1,1,0,0,0,0,1.08L74.91,46l-5.37,5.14-3.12-2.3a1,1,0,0,0-1.07-.07,19.16,19.16,0,0,1-4.65,1.81,1,1,0,0,0-.75.77l-.77,3.83L51.78,55ZM15.43,85.66a5.94,5.94,0,1,0,5.94-5.94A6,6,0,0,0,15.43,85.66Zm9.88,0a3.94,3.94,0,1,1-3.94-3.94A3.95,3.95,0,0,1,25.31,85.66ZM55.5,79.72a5.94,5.94,0,1,0,5.94,5.94A5.95,5.95,0,0,0,55.5,79.72Zm0,9.88a3.94,3.94,0,1,1,3.94-3.94A3.94,3.94,0,0,1,55.5,89.6Zm34.14-9.88a5.94,5.94,0,1,0,5.93,5.94A5.95,5.95,0,0,0,89.64,79.72Zm0,9.88a3.94,3.94,0,1,1,3.93-3.94A3.95,3.95,0,0,1,89.64,89.6Z"/></svg>
