<svg enable-background="new 0 0 100 100" height="512" viewBox="0 0 100 100" width="512" xmlns="http://www.w3.org/2000/svg"><g id="Layer_2"><g><path d="m20.5276 60.1096c-.1458.4767-.2474.9725-.2474 1.4963v4.4971c0 2.8457 2.3154 5.1611 5.1611 5.1611h49.1172c2.8457 0 5.1611-2.3154 5.1611-5.1611v-4.497c0-.5238-.1016-1.0196-.2474-1.4963 8.422-1.0602 14.8275-8.194 14.8275-16.8489 0-9.3848-7.6309-17.0195-17.0098-17.0195-1.4512 0-2.9062.1919-4.3369.5713-3.2969-8.9053-11.7344-14.8213-21.293-14.8213-9.9658 0-18.6943 6.4858-21.6465 15.9224-2.291-1.0972-4.792-1.6724-7.3037-1.6724-9.3789 0-17.0098 7.6348-17.0098 17.0195.0002 8.6548 6.4057 15.7886 14.8276 16.8488zm57.1921 5.9934c0 1.7432-1.418 3.1611-3.1611 3.1611h-49.1172c-1.7432 0-3.1611-1.418-3.1611-3.1611v-4.497c0-1.7432 1.418-3.1611 3.1611-3.1611h49.1172c1.7432 0 3.1611 1.418 3.1611 3.1611zm-55.0097-37.8618c2.5811 0 5.1514.6909 7.4326 1.9976.2715.1553.6006.1738.8877.0532.2871-.1221.502-.3721.5791-.6748 2.334-9.2002 10.5801-15.626 20.0508-15.626 9.0137 0 16.9346 5.7695 19.709 14.3574.0811.2524.2598.4624.4961.583.2383.1216.5127.1426.7646.0605 1.5322-.4985 3.0996-.751 4.6602-.751 8.2764 0 15.0098 6.7378 15.0098 15.0195 0 7.9122-6.0676 14.377-13.8938 14.9395-.9463-1.0678-2.312-1.7554-3.8474-1.7554h-49.1173c-1.5355 0-2.9011.6876-3.8474 1.7554-7.8262-.5623-13.8938-7.0271-13.8938-14.9394 0-8.2817 6.7334-15.0195 15.0098-15.0195z"/><path d="m25.4414 54.5195h49.1172c2.8457 0 5.1611-2.3154 5.1611-5.1616v-4.4966c0-2.8462-2.3154-5.1616-5.1611-5.1616h-49.1172c-2.8457 0-5.1611 2.3154-5.1611 5.1616v4.4966c0 2.8462 2.3154 5.1616 5.1611 5.1616zm-3.1611-9.6582c0-1.7432 1.418-3.1616 3.1611-3.1616h49.1172c1.7432 0 3.1611 1.4185 3.1611 3.1616v4.4966c0 1.7432-1.418 3.1616-3.1611 3.1616h-49.1172c-1.7432 0-3.1611-1.4185-3.1611-3.1616z"/><path d="m29.6279 48.1099h6.7578c.5527 0 1-.4478 1-1s-.4473-1-1-1h-6.7578c-.5527 0-1 .4478-1 1s.4473 1 1 1z"/><path d="m70.3857 62.8545h-6.7578c-.5527 0-1 .4478-1 1s.4473 1 1 1h6.7578c.5527 0 1-.4478 1-1s-.4472-1-1-1z"/><path d="m74.5586 88.0088c2.8457 0 5.1611-2.3154 5.1611-5.1611v-4.4966c0-2.8462-2.3154-5.1616-5.1611-5.1616h-49.1172c-2.8457 0-5.1611 2.3154-5.1611 5.1616v4.4966c0 2.8457 2.3154 5.1611 5.1611 5.1611zm-52.2783-5.1611v-4.4966c0-1.7432 1.418-3.1616 3.1611-3.1616h49.1172c1.7432 0 3.1611 1.4185 3.1611 3.1616v4.4966c0 1.7432-1.418 3.1611-3.1611 3.1611h-49.1172c-1.7432 0-3.1611-1.418-3.1611-3.1611z"/><path d="m29.6279 81.5991h6.7578c.5527 0 1-.4478 1-1s-.4473-1-1-1h-6.7578c-.5527 0-1 .4478-1 1s.4473 1 1 1z"/></g></g></svg>