<svg clip-rule="evenodd" fill-rule="evenodd" height="512" image-rendering="optimizeQuality" shape-rendering="geometricPrecision" text-rendering="geometricPrecision" viewBox="0 0 512 512" width="512" xmlns="http://www.w3.org/2000/svg"><g id="Layer_x0020_1"><g id="_193037392"><g id="_193037032"><path id="_187117232" d="m506.99 444.769h-501.979c-2.76261 0-4.99962-2.23701-4.99962-4.99962v-367.539c0-2.76143 2.23701-4.99962 4.99962-4.99962h501.979c2.76261 0 4.99962 2.2382 4.99962 4.99962v367.54c0 2.76143-2.23701 4.99844-4.99962 4.99844zm-496.98-9.99924h491.98v-357.539h-491.98z"/></g><g id="_193037152"><path id="_187117088" d="m506.99 137.2h-501.979c-2.76261 0-4.99962-2.2382-4.99962-4.99962 0-2.76261 2.23701-4.99962 4.99962-4.99962l501.979-.00118111c2.76261 0 4.99962 2.2382 4.99962 5.0008 0 2.76143-2.23701 4.99962-4.99962 4.99962z"/></g><g id="_193037056"><path id="_187116944" d="m506.99 384.801h-501.979c-2.76261 0-4.99962-2.2382-4.99962-5.0008 0-2.76143 2.23701-4.99962 4.99962-4.99962h501.979c2.76261 0 4.99962 2.2382 4.99962 4.99962 0 2.76261-2.23701 5.0008-4.99962 5.0008z"/></g><g id="_193037344"><path id="_187116800" d="m60.8813 122.628c-10.4587 0-18.9674-8.50869-18.9674-18.9686 0-10.4587 8.50869-18.9686 18.9674-18.9686 10.4599 0 18.9686 8.50869 18.9686 18.9686 0 10.4599-8.50869 18.9686-18.9686 18.9686zm0-27.9367c-4.94411 0-8.96814 4.02167-8.96814 8.96814 0 4.94529 4.02285 8.96814 8.96814 8.96814 4.94647 0 8.96932-4.02403 8.96932-8.96814 0-4.94529-4.02403-8.96814-8.96932-8.96814z"/></g><g id="_193036960"><path id="_187116656" d="m111.234 122.628c-10.4587 0-18.9686-8.50869-18.9686-18.9686 0-10.4587 8.50869-18.9686 18.9686-18.9686 10.4587 0 18.9662 8.50869 18.9662 18.9686.00118111 10.4599-8.50751 18.9686-18.9662 18.9686zm0-27.9367c-4.94529 0-8.96932 4.02167-8.96932 8.96814 0 4.94529 4.02285 8.96814 8.96932 8.96814 4.94411 0 8.96696-4.02403 8.96696-8.96814 0-4.94529-4.02285-8.96814-8.96696-8.96814z"/></g><g id="_193037296"><path id="_187116512" d="m161.585 122.628c-10.4587 0-18.9686-8.50869-18.9686-18.9686 0-10.4587 8.50869-18.9686 18.9686-18.9686 10.4599 0 18.9686 8.50869 18.9686 18.9686 0 10.4599-8.50869 18.9686-18.9686 18.9686zm0-27.9367c-4.94529 0-8.96814 4.02167-8.96814 8.96814 0 4.94529 4.02285 8.96814 8.96814 8.96814s8.96814-4.02403 8.96814-8.96814c0-4.94529-4.02285-8.96814-8.96814-8.96814z"/></g><g id="_193037536"><path id="_187116368" d="m416.555 108.659h-144.84c-2.76261 0-4.99962-2.23701-4.99962-4.99962 0-2.76143 2.23701-4.99962 4.99962-4.99962h144.84c2.76143 0 4.99962 2.2382 4.99962 4.99962 0 2.76261-2.23938 4.99962-4.99962 4.99962z"/></g><g id="_193037176"><path id="_187116224" d="m286.81 384.802c-2.76261 0-4.99962-2.2382-4.99962-4.99962v-130.154c0-1.62993.794884-3.15828 2.12953-4.09371 13.0311-9.13585 20.8111-24.0662 20.8111-39.9391 0-13.8863-5.74844-26.7485-15.7288-35.8844v39.9072c0 2.76261-2.2382 4.99962-5.0008 4.99962h-56.0399c-2.76261 0-5.0008-2.2382-5.0008-4.99962v-39.9084c-9.98153 9.13585-15.7312 21.9993-15.7312 35.8855 0 15.8729 7.78113 30.8032 20.8123 39.9391 1.33583.936617 2.13072 2.46379 2.13072 4.09371v130.154c0 2.76143-2.2382 4.99962-4.99962 4.99962-2.76261 0-4.99962-2.2382-4.99962-4.99962v-127.626c-14.4154-11.1012-22.9418-28.3123-22.9418-46.5616 0-20.6162 10.5118-39.3592 28.1198-50.1368 1.54252-.944885 3.47718-.98268 5.05513-.0980318 1.57914.884648 2.55591 2.55237 2.55591 4.36182v44.895h46.0407v-44.895c0-1.80945.977956-3.47718 2.55591-4.36182 1.57678-.883467 3.51143-.848034 5.05513.0980318 17.6067 10.7776 28.1186 29.5206 28.1186 50.1368 0 18.2493-8.52759 35.4615-22.9394 46.5627v127.626c-.00354332 2.76024-2.24292 4.99844-5.00316 4.99844z"/></g></g></g></svg>