<svg id="Layer_1" height="512" viewBox="0 0 512 512" width="512" xmlns="http://www.w3.org/2000/svg" data-name="Layer 1"><path d="m396.728 317.624a15.886 15.886 0 0 0 -22.442 0l-8.493 8.493-20.686-20.687a191.457 191.457 0 0 0 -18.4-249.376c-74.62-74.618-196.033-74.618-270.652 0a191.38 191.38 0 0 0 135.325 326.706 189.95 189.95 0 0 0 114.05-37.652l20.686 20.686-8.491 8.492a15.9 15.9 0 0 0 0 22.442l98.95 98.949a55.935 55.935 0 0 0 79.1-79.1zm79.13 96.1-62.133 62.133-62.625-62.628 62.129-62.129zm-463.858-222.344a179.44 179.44 0 0 1 306.221-126.841 179.362 179.362 0 0 1 4.225 249.3 134.587 134.587 0 0 0 -99.3-99.851 66.049 66.049 0 1 0 -63.54 0 134.587 134.587 0 0 0 -99.3 99.851 178.108 178.108 0 0 1 -48.306-122.459zm141.2 2.951a54 54 0 1 1 76.366 0 53.648 53.648 0 0 1 -76.366 0zm-82.679 129.6a122.65 122.65 0 0 1 207.6-65.852 121.584 121.584 0 0 1 34.125 65.852 179.371 179.371 0 0 1 -241.724 0zm244.359 13.656q6.1-5.169 11.829-10.877t10.877-11.829l19.722 19.719-22.708 22.709zm10.111 47.924a3.84 3.84 0 0 1 1.121-2.736l56.662-56.662a3.9 3.9 0 0 1 5.472 0l16.5 16.5-62.133 62.134-16.5-16.5a3.839 3.839 0 0 1 -1.125-2.74zm162.2 101.685a44.081 44.081 0 0 1 -62.133 0l-2.848-2.848 62.133-62.134 2.848 2.849a43.985 43.985 0 0 1 .001 62.129z"/></svg>