<svg id="Capa_1" enable-background="new 0 0 512 512" height="512" viewBox="0 0 512 512" width="512" xmlns="http://www.w3.org/2000/svg"><g><path d="m505.932 464.988-50.558-50.558c15-26.575 18.361-58.491 8.355-88.508-1.302-3.905-5.521-6.016-9.427-4.714-3.905 1.302-6.014 5.522-4.713 9.427 9.182 27.544 5.34 56.935-9.735 80.69-.132.189-.252.383-.364.581-3.639 5.644-7.912 10.966-12.806 15.86-18.489 18.489-42.768 27.733-67.055 27.731-24.281-.002-48.571-9.246-67.055-27.731-2.766-2.766-5.3-5.676-7.652-8.683 30.639-10.595 58.811-28.045 82.05-50.954 23.228-22.898 41.08-50.808 52.124-81.28 2.619 2.112 5.157 4.374 7.589 6.805 3.133 3.133 6.063 6.499 8.709 10.003 2.48 3.284 7.154 3.938 10.438 1.457 3.285-2.48 3.937-7.153 1.457-10.438-3.06-4.052-6.446-7.941-10.063-11.56-4.057-4.057-8.356-7.727-12.85-11.015 5.003-18.391 7.543-37.444 7.543-56.682 0-57.541-22.407-111.638-63.094-152.324-.051-.051-.107-.094-.159-.144-40.674-40.595-94.704-62.951-152.168-62.951-55.332 0-107.922 20.943-148.083 58.969-2.989 2.83-3.118 7.547-.288 10.536 2.833 2.989 7.547 3.116 10.535.288 37.382-35.395 86.333-54.888 137.837-54.888 51.062 0 99.204 18.976 136.403 53.571l-139.49 139.49h-197.286c1.509-41.887 15.731-81.413 41.373-114.731 2.51-3.261 1.901-7.94-1.36-10.451-3.262-2.51-7.939-1.9-10.451 1.36-29.183 37.917-44.608 83.311-44.608 131.274 0 34.569 7.943 67.591 23.61 98.148 35.422 70.587 112.152 118.055 191.809 117.27 18.141 0 36.148-2.264 53.563-6.721 3.528 4.979 7.514 9.731 11.972 14.188 21.393 21.393 49.494 32.089 77.595 32.089 18.539 0 37.077-4.659 53.689-13.97l50.589 50.59c3.326 3.325 7.694 4.987 12.063 4.987s8.737-1.663 12.063-4.988l17.899-17.899c6.65-6.65 6.65-17.473 0-24.124zm-489.814-242.117h169.455l-114.866 58.773-36.03 18.435c-11.365-24.313-17.594-50.221-18.559-77.208zm200.38 193.061c-73.117 0-139.506-39.117-175.022-102.59l167.57-85.739v158.654c0 4.116 3.336 7.452 7.452 7.452s7.452-3.337 7.452-7.452v-167.752l139.508-139.506c34.593 37.198 53.555 85.35 53.555 136.419 0 16.391-1.976 32.634-5.877 48.388-41.477-22.016-94.209-15.583-129.102 19.309-34.483 34.483-41.166 86.392-20.066 127.639-14.835 3.436-30.099 5.178-45.47 5.178zm76.075-122.278c30.72-30.721 77.438-35.89 113.575-15.56-20.555 60.19-69.35 108.273-129.812 127.921-19.538-35.963-14.14-81.984 16.237-112.361zm202.819 184.92-17.899 17.899c-.839.84-2.208.838-3.046 0l-48.405-48.406c3.891-2.962 7.631-6.212 11.182-9.764 3.54-3.54 6.793-7.278 9.77-11.174l48.397 48.397c.841.841.841 2.208.001 3.048z"/></g></svg>