<svg id="Layer_1" viewBox="0 0 512 512" xmlns="http://www.w3.org/2000/svg" data-name="Layer 1"><path d="m320.922 333.122 117.9-68.068v-154.535l-42.561 24.572v67.575a5.986 5.986 0 0 1 -8.431 5.487l-13.468-4.484-15.79 23.49a5.989 5.989 0 0 1 -10.95-3.328h-.022v-60.647l-42.561 24.572v145.366zm48.212 41.6 78.591-45.039c11.075-6.347 22.921-3.621 31.3 2.523 7.965 5.84 16.685 18.9 6.154 25.512l-199.624 125.282c-9.471 5.943-19.416 7.679-30.532 6.775-23.129-1.88-42.326-5.5-61.971-9.2-29.77-5.613-60.552-11.415-106.985-11.878v-118.731c17.515-1.142 32.916-7.094 48.718-13.2 32.763-12.663 67.383-26.044 126.231 7.561a5.96 5.96 0 0 0 2.954.78v.017h67.3a25.951 25.951 0 0 1 18.381 7.652c16.528 16.528 4.461 44.415-18.381 44.415h-88.141a6 6 0 1 0 0 12h88.139a38.149 38.149 0 0 0 37.866-34.467zm-342.1-57.647h42a17.067 17.067 0 0 1 17.032 17.032v3.827c15.543-1.171 29.791-6.677 44.405-12.326 26.007-10.051 53.1-20.511 91-10.837l-70.71-40.824a6 6 0 0 1 -3.507-5.459v-168.332h.025a5.968 5.968 0 0 1 3.042-5.2l145.658-84.1a5.971 5.971 0 0 1 6.032-.045l145.3 83.889a6 6 0 0 1 3.508 5.459l-.026 168.332a5.972 5.972 0 0 1 -3 5.18l-105.705 61.029a38.28 38.28 0 0 1 25.97 26.823l73.713-42.244c15.849-9.083 32.588-5.339 44.332 3.273 7.431 5.449 13.6 13.45 15.38 22.279s-.9 17.346-9.929 23.014l-199.624 125.275c-11.724 7.358-24.191 9.714-37.845 8.6-23.6-1.919-43.191-5.612-63.236-9.391-29.159-5.5-59.309-11.18-104.782-11.643v4.026a17.067 17.067 0 0 1 -17.032 17.032h-42a17.067 17.067 0 0 1 -17.035-17.028v-150.609a17.067 17.067 0 0 1 17.032-17.032zm42 12h-42a5.062 5.062 0 0 0 -5.034 5.032v150.609a5.062 5.062 0 0 0 5.032 5.031h42a5.062 5.062 0 0 0 5.032-5.031v-150.609a5.062 5.062 0 0 0 -5.032-5.032zm224 4.047v-145.366l-133.775-77.237v154.535l117.9 68.068zm91.219-191.1v52.353l-10.453-3.483a5.977 5.977 0 0 0 -6.84 2.347l-7.361 10.95v-47.93l24.658-14.236zm-42.618 10.809-42.6 24.6-133.828-77.275 42.6-24.595 133.831 77.268zm-85.2-105.345 42.6-24.6 133.835 77.27-42.6 24.6-133.832-77.272zm121.865 84.178-24.69 14.253-133.831-77.268 24.687-14.249z" fill-rule="evenodd"/></svg>