<?xml version="1.0" encoding="UTF-8"?>
<svg id="Layer_1" xmlns="http://www.w3.org/2000/svg" version="1.1" viewBox="0 0 1000 1000">
  <!-- Generator: Adobe Illustrator 29.6.1, SVG Export Plug-In . SVG Version: 2.1.1 Build 9)  -->
  <defs>
    <style>
      .st0 {
        fill: #1f1f1f;
      }
    </style>
  </defs>
  <path class="st0" d="M174.4,690.6V217.1v486-12.5ZM206.3,716.1c-16.2,0-29.9-5.5-40.8-16.5-11-11-16.5-24.6-16.5-40.7V248.9c0-16.1,5.5-29.7,16.5-40.7,11-11,24.6-16.5,40.8-16.5h186.4l77.3,77.3h305.8c16.1,0,29.6,5.5,40.6,16.5,11,11,16.5,24.6,16.5,40.8v178.9h-25.4v-178.9c0-9.3-3-16.9-9-22.9s-13.6-9-22.9-9h-315.5l-77.3-77.3h-176.4c-9.3,0-16.9,3-22.9,9s-9,13.6-9,22.9v409.7c0,9.3,3,16.9,9,22.9,6,6,13.6,9,22.9,9h231.3v25.4h-231.3ZM639.5,808.3l-104.7-105.2,104.7-104.7,17.4,17.9-86.7,86.7,86.7,86.7-17.4,18.4ZM771.1,808.3l-16.9-18.4,86.7-86.7-86.7-86.7,16.9-17.9,105.2,104.7-105.2,105.2Z"/>
</svg>