<?xml version="1.0" encoding="UTF-8"?>
<svg id="Layer_1" xmlns="http://www.w3.org/2000/svg" version="1.1" viewBox="0 0 1000 1000">
  <!-- Generator: Adobe Illustrator 29.6.1, SVG Export Plug-In . SVG Version: 2.1.1 Build 9)  -->
  <defs>
    <style>
      .st0 {
        fill: #1f1f1f;
      }
    </style>
  </defs>
  <path class="st0" d="M446.3,595.9h254.5v-124.2h-254.5v124.2ZM418.7,623.6v-179.6h309.8v179.6h-309.8ZM176.4,798.3c-17.5,0-32.3-6-44.2-17.9-12-12-17.9-26.7-17.9-44.2v-447.5c0-17.5,6-32.3,17.9-44.2,12-12,26.7-17.9,44.2-17.9h620.1c17.5,0,32.3,6,44.2,17.9,12,12,17.9,26.7,17.9,44.2v447.5c0,17.5-6,32.3-17.9,44.2-12,12-26.7,17.9-44.2,17.9,0,0-620.1,0-620.1,0ZM176.7,770.6h619.6c8.7,0,16.6-3.6,23.9-10.9,7.2-7.2,10.9-15.2,10.9-23.9v-396.1H142v396.1c0,8.7,3.6,16.6,10.9,23.9,7.2,7.2,15.2,10.9,23.9,10.9Z"/>
</svg>