<?xml version="1.0" encoding="UTF-8"?>
<svg id="Layer_1" xmlns="http://www.w3.org/2000/svg" version="1.1" viewBox="0 0 1000 1000">
  <!-- Generator: Adobe Illustrator 29.6.1, SVG Export Plug-In . SVG Version: 2.1.1 Build 9)  -->
  <defs>
    <style>
      .st0 {
        fill: #1f1f1f;
      }
    </style>
  </defs>
  <path class="st0" d="M94.3,798V240.7l197,32.6v492.4l-197,32.3ZM394.6,763.5v-489.4h210.8v489.4h-210.8ZM905.7,798l-197-32.6v-492.4l197-32.3v557.2ZM121.3,765.1l143-22.8v-446.9l-143-22.9v492.6ZM421.6,736.5h156.8v-435.4h-156.8v435.4ZM878.7,766.2v-493.7l-143,22.9v446.9l143,23.8ZM121.3,765.1l143-22.8-143,22.8ZM421.6,736.5h156.8-156.8ZM878.7,766.2l-143-23.8,143,23.8Z"/>
</svg>