<?xml version="1.0" encoding="UTF-8"?>
<svg id="Layer_1" xmlns="http://www.w3.org/2000/svg" version="1.1" viewBox="0 0 1000 1000">
  <!-- Generator: Adobe Illustrator 29.6.1, SVG Export Plug-In . SVG Version: 2.1.1 Build 9)  -->
  <defs>
    <style>
      .st0 {
        fill: none;
        stroke: #000;
        stroke-linecap: round;
        stroke-linejoin: round;
        stroke-width: 23px;
      }
    </style>
  </defs>
  <path class="st0" d="M758.3,807.6v61.5c0,6.8-5.5,12.3-12.3,12.3H229.1c-6.8,0-12.3-5.5-12.3-12.3v-61.5"/>
  <path class="st0" d="M216.8,536.9V180.1c0-6.8,5.5-12.3,12.3-12.3h395.9c6.5,0,12.8,2.6,17.4,7.2l108.6,108.6c4.6,4.6,7.2,10.9,7.2,17.4v457.4"/>
  <path class="st0" d="M216.8,512.3h-61.5c-20.4,0-36.9,16.5-36.9,36.9h0c0,20.4,16.5,36.9,36.9,36.9h455.3c13.6,0,24.6,11,24.6,24.6v172.3c0,13.6-11,24.6-24.6,24.6H155.3c-20.4,0-36.9-16.5-36.9-36.9v-221.5"/>
  <path class="st0" d="M266.1,167.8v-36.9c0-6.8,5.5-12.3,12.3-12.3h516.8c6.8,0,12.3,5.5,12.3,12.3v689.1c0,6.8-5.5,12.3-12.3,12.3h-36.9"/>
  <path class="st0" d="M622.9,167.8v110.7c0,13.6,11,24.6,24.6,24.6h110.7"/>
  <path class="st0" d="M319.4,656.1c-7.9-5.3-17.3-8.4-27.5-8.4-27.2,0-49.2,22-49.2,49.2s22,49.2,49.2,49.2,20.1-3.6,27-9.8c1.4-1.3,2.8-2.6,4-4.1"/>
  <path class="st0" d="M421.9,657.8s-17.7-14.8-38.5-8.6c-19.1,5.8-21.8,27.8-8,36.8,0,0,13.6,6.1,28.6,11.6,36.3,13.4,20.6,48.4-8.5,48.4s-26.9-6.4-34.3-14.6"/>
  <path class="st0" d="M525.9,657.8s-17.7-14.8-38.5-8.6c-19.1,5.8-21.8,27.8-8,36.8,0,0,13.6,6.1,28.6,11.6,36.3,13.4,20.6,48.4-8.5,48.4s-26.9-6.4-34.3-14.6"/>
  <line class="st0" x1="204.4" y1="746.1" x2="204.5" y2="746.1"/>
  <path class="st0" d="M426,500h0c-13.6,0-24.6-11-24.6-24.6v-36.9l-24.6-24.6,24.6-24.6v-36.9c0-13.6,11-24.6,24.6-24.6h0"/>
  <path class="st0" d="M549.1,327.7h0c13.6,0,24.6,11,24.6,24.6v36.9l24.6,24.6-24.6,24.6v36.9c0,13.6-11,24.6-24.6,24.6h0"/>
</svg>