<?xml version="1.0" encoding="UTF-8"?>
<svg id="Layer_1" xmlns="http://www.w3.org/2000/svg" version="1.1" viewBox="0 0 1000 1000">
  <!-- Generator: Adobe Illustrator 29.6.1, SVG Export Plug-In . SVG Version: 2.1.1 Build 9)  -->
  <path d="M865.5,610.7l-27.3-10.5c-4-14.6-9.9-28.6-17.3-41.8l11.9-26.8c2.2-4.9,1.1-10.6-2.7-14.4l-17.6-17.6v-113.9h15.6c8.4,0,16-4.7,19.6-12.3,3.7-7.6,2.7-16.4-2.5-23l-68.6-87.2c-4.2-5.3-10.4-8.3-17.1-8.3-6.7,0-13,3-17.1,8.3l-68.7,87.2c-5.2,6.6-6.2,15.4-2.5,23s11.2,12.3,19.6,12.3h15.6v79.4l-8.5-22.1c-1.9-5-6.7-8.3-12.1-8.3h-54.8c-3.6,0-7,1.5-9.4,4.1v-182h22.4c7.3,0,13.9-4.2,16.8-10.8,3-6.6,1.8-14-3-19.4l-75.8-85.9c-3.5-4-8.6-6.2-13.9-6.2s-5.3.6-7.6,1.6-4.5,2.6-6.3,4.6l-75.8,85.9c-4.8,5.4-5.9,12.8-3,19.4,3,6.6,9.6,10.8,16.8,10.8h22.4v232.3s-27.4,27.4-27.4,27.4v-189.1c0-7.1-5.8-12.9-12.9-12.9h-80.7c-7.1,0-12.9,5.8-12.9,12.9v245.6h-27.5v-177.3c0-7.1-5.8-12.9-12.9-12.9h-80.7c-7.2,0-12.9,5.8-12.9,12.9v177.3h-28.1v-109.1c0-7.1-5.8-12.9-12.9-12.9h-80.7c-7.1,0-12.9,5.8-12.9,12.9v109.1h-27.3c-7.2,0-12.9,5.8-12.9,12.9s5.8,12.9,12.9,12.9h394c-.1.4-.3.9-.4,1.3l-27.3,10.5c-5,1.9-8.3,6.7-8.3,12.1v54.8c0,5.3,3.3,10.2,8.3,12.1l27.3,10.5c4,14.6,9.8,28.6,17.3,41.8l-11.9,26.8c-2.2,4.9-1.1,10.6,2.7,14.4l38.8,38.8c3.8,3.8,9.5,4.8,14.4,2.7l26.8-11.9c13.2,7.5,27.2,13.3,41.8,17.3l10.5,27.3c1.9,5,6.7,8.3,12.1,8.3h54.8c5.3,0,10.2-3.3,12.1-8.3l10.5-27.3c14.6-4,28.6-9.9,41.8-17.3l26.8,11.9c4.9,2.2,10.6,1.1,14.4-2.7l38.8-38.8c3.8-3.8,4.8-9.5,2.7-14.4l-11.9-26.8c7.5-13.2,13.3-27.2,17.3-41.8l27.3-10.5c5-1.9,8.3-6.7,8.3-12.1v-54.8c0-5.4-3.3-10.2-8.3-12.1ZM192.9,573h-54.8v-96.1h54.8v96.1ZM327.5,573h-54.8v-164.4h54.8v164.4ZM461.5,573h-54.8v-232.7h54.8v232.7ZM699.1,359.8l60.3-76.6,60.3,76.6h-20.2c-7.1,0-12.9,5.8-12.9,12.9v102.7c-3.1-1.1-6.6-1.1-9.7.3l-26.8,11.9c-5.8-3.3-11.8-6.2-17.9-8.9v-106c0-7.1-5.8-12.9-12.9-12.9h-20.2ZM509.2,230.9l59-66.9,59,66.9h-18.5c-7.1,0-12.9,5.8-12.9,12.9v230.5c-10.1,3.6-19.8,8-29.1,13.3l-26-11.5v-232.3c0-7.1-5.8-12.9-13-12.9h-18.5ZM848,668.7l-25.3,9.7c-4,1.5-7,4.9-7.9,9.1-3.9,16.5-10.5,32.3-19.4,46.8-2.2,3.6-2.5,8.1-.8,12l11,24.8-26.2,26.2-24.8-11c-3.9-1.7-8.4-1.4-12,.8-14.5,8.9-30.3,15.5-46.8,19.4-4.1,1-7.5,4-9.1,7.9l-9.7,25.3h-37l-9.7-25.3c-1.5-4-4.9-7-9.1-7.9-16.5-3.9-32.3-10.5-46.8-19.4-3.6-2.2-8.1-2.5-12-.8l-24.8,11-26.2-26.2,11-24.8c1.7-3.9,1.4-8.4-.8-12-8.9-14.5-15.5-30.3-19.4-46.8-1-4.1-4-7.5-7.9-9.1l-25.3-9.7v-37l25.3-9.7c4-1.5,7-4.9,7.9-9.1,3.9-16.5,10.5-32.3,19.4-46.8,2.2-3.6,2.5-8.1.8-12l-11-24.8,26.2-26.2,24.8,11c3.9,1.7,8.4,1.4,12-.8,14.5-9,30.3-15.5,46.8-19.4,4.1-1,7.5-4,9.1-7.9l9.7-25.3h37l9.7,25.3c1.5,4,4.9,7,9.1,7.9,16.5,3.9,32.3,10.5,46.8,19.4,3.6,2.2,8.1,2.5,12,.8l24.8-11,26.2,26.2-11,24.8c-1.7,3.9-1.4,8.4.8,12,8.9,14.5,15.5,30.3,19.4,46.8,1,4.1,3.9,7.5,7.9,9.1l25.3,9.7v37.1Z"/>
  <path d="M495.9,558.4c-2.7,4.8-5.2,9.7-7.4,14.6h-1.1v-33.8l8.5,19.1Z"/>
  <path d="M658.4,532.6c-64.8,0-117.5,52.7-117.5,117.5s52.7,117.5,117.5,117.5,117.5-52.7,117.5-117.5-52.7-117.5-117.5-117.5ZM658.4,741.8c-50.5,0-91.7-41.1-91.7-91.6s41.1-91.7,91.7-91.7,91.6,41.1,91.6,91.7-41.1,91.6-91.6,91.6Z"/>
</svg>