<?xml version="1.0" encoding="UTF-8"?>
<svg id="Layer_1" xmlns="http://www.w3.org/2000/svg" version="1.1" viewBox="0 0 1000 1000">
  <!-- Generator: Adobe Illustrator 29.6.1, SVG Export Plug-In . SVG Version: 2.1.1 Build 9)  -->
  <defs>
    <style>
      .st0 {
        fill: #020202;
      }
    </style>
  </defs>
  <path d="M820.6,181.3c-29.2-4.2-64.8,1.8-94.7-.6-12.5,5-10.6,19.9,3,21.8,28,3.9,80.9-7.1,103.8,6.2,7.7,4.5,20,21,20,29.8v33h-79.9c-2.4,0-11,5.1-11,8.1v339.6h-203.9v-121c0-4.3-6.4-16-5.7-18.8.3-1.3,10.6-13,12.7-16.7,26.3-45.7-5.9-92.3-32.2-130-11-15.8-28.9-45.8-50.2-22.9-9.2,9.9-23.9,32.8-31.3,44.9-22.5,36.5-41,70.8-15.3,111.5,1.8,2.9,10.1,11.8,10.4,13.2.7,2.8-5.7,14.5-5.7,18.8v121H145.7v-173.1c24,20,36.7,49.8,39.6,80.6-25.4,7.9-31,41.7-10.1,57.9,32.8,25.4,77.3-21,40.2-53.4-2.7-2.4-8.2-3.3-9.3-6.9-1-3.4.2-7.6-.4-11.3-4.5-27-15.8-52.6-34.3-72.8-7.7-8.4-16.6-13.9-24.2-22h93.1c1.4,0,4.6,8.3,6,10.2,18.8,25.4,59.7,10.9,60.2-20,.5-32.4-41.5-46.8-60.8-20-2.2,3-2.8,7.8-3.2,7.8h-96.8v-157.7c0-14.6,21.1-34.9,36.1-35.8h500.1c12.7-.4,17.5-14.1,6.6-21.4l-506.8-.8c-30.6,4-52.9,27-58,57.2v476.8c6,15.1,15,25.2,31.9,27.5,15.9,2.2,78.2,2.7,93.2,0,11.8-2.1,14-15.2,4.1-21l-93.1-.8c-5.2-.4-14.1-5.1-14.1-10.9v-68.2h707v68.2c0,.9-2.6,5.8-3.6,6.7-8.8,8.6-47.8,2.3-61.6,4.4-13.3,2.1-12.3,19.9,1.5,21.8,12.6,1.8,52.9,1.2,64.1-3.2,11.4-4.5,18-14.1,21.3-25.7l.4-469.1c-.7-30.3-24-58.7-54.3-63.1ZM192.3,547.7c20.8-4.8,19.2,27.8-1.1,21-8.8-2.9-8.3-18.9,1.1-21ZM281.5,400.5c9.8,11.4-6.4,25-16.5,15.8-11.4-10.5,6-28,16.5-15.8ZM467.8,370c3.2-5.4,28.1-43.5,30.7-44.1,2.1-.5,3.2,1.9,4.3,3,8.3,8.8,21.9,30.9,28.4,42,2.2,3.7,16.9,29.4,15,31.2-25.7,4.8-51.2,4.1-74.9-8-17-8.7-12-9.8-3.5-24.1ZM535.9,619.2h-73.3v-119.5c0-11.5,13.9-2.5,20.2-1.1,12.3,2.6,21.9,2.3,34.1-.3,5.9-1.2,19-10.1,19,1.4v119.5ZM477.3,473.2c-24-9.8-41.1-42.7-27.2-66.7,30.7,21.4,67.6,24.5,103.4,16.1-.5,40.4-38.5,65.9-76.2,50.6ZM852.8,619.2h-68.9v-7.3h22.7c3.5,0,7.8-7,7.6-10.8-.8-13.9-20.7-11.2-30.4-11.2v-16.2h22.8c3.5,0,7.8-7,7.6-10.8-.8-13.9-20.7-11.2-30.4-11.2v-16.1h24.2c1.6,0,5.6-6.6,6-8.7,2.5-15.3-20.8-13.9-30.2-13.3v-16.1h38.9c2.4,0,7.1-8.4,6.4-12.1-.7-3.7-7.3-9.9-10.8-9.9h-34.5v-16.1h24.2c1.6,0,5.6-6.6,6-8.7,2.5-15.3-20.8-13.9-30.2-13.3v-16.1h24.2c1.6,0,5.6-6.6,6-8.7,2.5-15.1-20.8-13.8-30.2-13.3v-16.1h24.2c1.6,0,5.6-6.6,6-8.7,2.5-15.1-20.9-13.8-30.2-13.3v-14.7h33c15.8,0,15.8-23.5,0-23.5h-33v-29.3h68.9v325.7Z"/>
  <path d="M745,720.4h-450.4c-10.5-.8-16.4,11.3-9.1,18.7.3.4,5.8,3.3,6.2,3.3h107.8c-6,20.6-15.9,41-30.1,57.2-6.4,7.3-23.4,19.5-26.4,26.4-6.5,14.5,2.3,32.1,19,32.4,88.9-5.1,184.9,6.5,273,0,15.8-1.2,25.4-11.9,22-28-2.1-10.1-20.4-22-28-30.7-14.1-16.2-24-36.7-30-57.2h146c10.4,0,15.5-20.2,0-22ZM635.7,836.3h-272.8c20.3-17.4,36.9-36.6,48.2-61.1,2.4-5.3,10.1-30.1,11.2-31.4,1.2-1.4,2.6-1.6,4.3-1.5l148,.3c1.7.6,10.3,27,12.4,31.6,11.3,24.9,28.1,44.5,48.7,62.1Z"/>
  <path d="M496,653.3c36.7-4,39.9,49,9.8,53.8-40.4,6.4-45.3-49.9-9.8-53.8Z"/>
  <path class="st0" d="M450.4,241.2c9.7,9.7-2.9,28.5-15,18.7-11.7-9.4,3.5-30.2,15-18.7Z"/>
  <path class="st0" d="M548.1,259.4c-9.7-9.7,2.9-28.5,15-18.7,11.7,9.4-3.5,30.2-15,18.7Z"/>
  <path class="st0" d="M497.4,238c15-2.7,17.5,23.7,2.5,24.7s-16-22.3-2.5-24.7Z"/>
</svg>