<?xml version="1.0" encoding="UTF-8"?>
<svg id="Layer_1" xmlns="http://www.w3.org/2000/svg" version="1.1" viewBox="0 0 1000 1000">
  <!-- Generator: Adobe Illustrator 29.6.1, SVG Export Plug-In . SVG Version: 2.1.1 Build 9)  -->
  <defs>
    <style>
      .st0 {
        fill: #fefefe;
      }
    </style>
  </defs>
  <path d="M741.2,347.6c-1.4.8-5,5-5,6.1v289.2h-403.4c-5.6,0-7.9,11.2-5,16.1.6.9,5.7,4.8,6.4,4.8h402v155.4c0,4.9-8.7,14.5-14.2,15.1-158.6,1.8-317.7,1.1-476.4.3-5.9-.4-15.2-10-15.2-15.4v-155.4h69c9,0,10.8-20.9,1.4-20.9h-70.4V233.1h379c-2,18.6,2.8,35.4,19.3,45.5,3,1.8,13.3,6.1,16.2,6.1h91.3v35.5c0,.6,3.8,5.8,4.8,6.4,5.3,3.2,13.6.6,15.5-5.6,1.7-5.5,1.4-38.2.7-45.4-.9-9.3-14.7-20.3-21.6-27.1-36.1-35.4-74.3-68.8-110.4-104.2l-383-.4c-17.4,1.8-31.7,19.9-32.7,37v635.5c.8,20.6,16.6,37.2,37,39.6h472.4c20.5-1.7,36.6-17.8,38.3-38.2v-460c.4-8.8-8-14.8-15.9-10.2ZM230.3,179.5c0-5.4,10.6-16,16-16h363v46.7c0,.1-1.9,2.1-2.1,2.1H230.3v-32.8Z"/>
  <path d="M521.2,701.8c8.4-1,16.3.4,24.3,2.8,7.1,2.1,23.5,7.7,15.7,17.7s-17.2-2.6-25.4-3.8c-7-1-18.3-1.5-24,3.2-4.9,4-6.4,12-.6,15.8s27.4,4.7,37.7,9.6c26,12.5,16.4,44.8-10.4,48.7-9.1,1.3-19.7.7-28.5-1.4s-26.2-7.4-19.1-18.3c5.4-8.2,16.3,1.1,23.2,2.9s28.2,3.8,32.5-5.8c6.4-14.3-29.6-15-38.7-18.6-30.8-12.3-17.7-49.2,13.2-52.8Z"/>
  <path d="M404.8,763c9.2-8.7,13.7,6.5,17,10.8,8.9,12,30.6,7.2,32.7-6.4s-3.6-52.7,2.8-61.3c4.8-6.4,13-3.2,14,4.1,1.5,10.9,1.3,47.5-.2,58.5-4.2,31.1-50.8,38.2-65.6,10.1s-5.6-11.3-.8-15.9Z"/>
  <path class="st0" d="M719.4,263.8h-73.2c-4.5,0-16-10.3-16-14.6v-70.4l89.2,85Z"/>
</svg>