<?xml version="1.0" encoding="UTF-8"?>
<svg id="Layer_1" xmlns="http://www.w3.org/2000/svg" version="1.1" viewBox="0 0 1000 1000">
  <!-- Generator: Adobe Illustrator 29.6.1, SVG Export Plug-In . SVG Version: 2.1.1 Build 9)  -->
  <defs>
    <style>
      .st0 {
        fill: #1f1f1f;
      }
    </style>
  </defs>
  <path class="st0" d="M157.4,853.7v-180.4h180.4v180.4h-180.4ZM396.3,853.7v-180.4h180.4v180.4h-180.4ZM635.7,853.7v-180.4h179.9v180.4h-179.9ZM157.4,614.8v-180.4h180.4v180.4h-180.4ZM396.3,614.8v-180.4h180.4v180.4h-180.4ZM635.7,614.8v-180.4h179.9v180.4h-179.9ZM157.4,375.5v-179.9h180.4v179.9h-180.4ZM396.3,375.5v-179.9h180.4v179.9h-180.4ZM635.7,375.5v-179.9h179.9v179.9h-179.9ZM420.8,697.8h131.4-131.4ZM313.3,589.9v-131,131ZM660.1,589.9v-131,131ZM420.8,351h131.4-131.4ZM181.9,829.3h131.4v-131.4h-131.4v131.4ZM420.8,829.3h131.4v-131.4h-131.4v131.4ZM660.1,829.3h131.4v-131.4h-131.4v131.4ZM181.9,589.9h131.4v-131h-131.4v131ZM420.8,589.9h131.4v-131h-131.4v131ZM660.1,589.9h131.4v-131h-131.4v131ZM420.8,351h131.4v-131h-131.4v131ZM660.1,351h131.4v-131h-131.4v131Z"/>
</svg>