<?xml version="1.0" encoding="UTF-8"?>
<svg id="Layer_1" xmlns="http://www.w3.org/2000/svg" version="1.1" viewBox="0 0 1000 1000">
  <!-- Generator: Adobe Illustrator 29.6.1, SVG Export Plug-In . SVG Version: 2.1.1 Build 9)  -->
  <defs>
    <style>
      .st0 {
        fill: #010101;
      }
    </style>
  </defs>
  <path d="M832.8,127.8H188.7c-16,5.2-27.9,16.5-30.4,33.8l.3,641c3.5,16.3,15.8,28.2,32.2,31.3h158.5c14-1.5,13.6-19.2,0-20.6h-155.8c-4.8,0-14.6-9.2-14.6-13.1V232.6h502.7c.4,0,6.2-3.4,6.8-4.2,4.2-4.9,1.1-16.5-4.1-16.5H179.1v-50.3c0-3.2,8.4-11.9,12.4-12.5h640c4,.5,12.4,9.2,12.4,12.5v50.3h-119.3c-.4,0-5.2,4.8-5.5,5.5-2.8,6.1,2.6,15.2,8.2,15.2h116.5v209.6h-93.8c-.9-3.6-3.6-7.1-5.8-10.1-11.7-16.2-25.3-38.9-37.8-53.2-3.1-3.5-4.5-5.1-9.5-5.7-6.9-.8-33.7-1.1-40,0-7.2,1.4-10.5,12.9-4.2,17.9,7.6,6.1,29.6.5,39.3,3.4,14.6,19,26.9,40.1,41.6,59,1.7,2.2,6.3,9.2,8.7,9.2h101.4v29h-98.6c-4.7,0-16.6,9.7-19.2,13.9-8.7,13.6-5,33.5,8.4,42.5,1.5,1,11.3,5.7,12.2,5.7h97.2v27.6h-98.6c-1.4,0-6.5,3.2-7.6,4.8l-46.5,65.5h-129.1c-8.3-15.1-20.4-30-28.3-45.1-.8-1.5-2.2-2.4-1.7-4.5h95.9c3.5,0,17.7-24.6,20.6-29.1,4.8-7.5,29.7-46.1,29.4-51.4-.2-3.2-4.2-8.7-5.9-11.8-9-16-27.7-48.8-38.6-62.1-1.6-2-5.9-5.6-8.2-5.6h-93.1l28.9-47.6c3.8-2.3,39.4.2,47.6-.6,13.5-1.3,17.8-10.6,7.5-20h-64.8c-18.1,22.5-30.8,49-47.2,72.8-2.9,7.2-.9,15.9,7.9,16.2h105.9s36.8,60,36.8,60l-36.7,58.4-103.2.2c-10.8,1.2-14.3,6.8-10.2,17.1,4,10,34.8,59.5,42,68.3,2.9,3.5,5.9,6,10.9,5.7,44-3.2,93.4,4,136.7,0,3.9-.4,8.3-.7,10.9-4.2l47-66.1h91.7v197.9c0,4.2-10.5,13.9-15.8,13.1h-430.4c-12.9.7-14,18.6-1.3,20.6h434.4c17.3-2.3,28.5-14.3,33.8-30.3V159.5c-.4-18.3-13.5-31.3-31.7-31.7ZM843.9,533.3h-94.5c-2.7,0-7.3-6.1-7.6-9.1-.3-3.4,3.7-11.6,6.2-11.6h95.9v20.7Z"/>
  <path d="M489.5,498c-1.8-19.8-28-8.7-41.2-11.9-.7-4-7.7-15.1-6.9-18.1,1.8-6.8,25.1-18.7,23.1-30.3-1.3-7.1-32.2-31.6-37.6-39.7-13.4-9.5-28.7,22.8-37,21.9-2.1-.2-12.7-4.6-13.3-6.2-4.7-13.7,10-38.4-13.2-40.6-8.9-.8-38.5-1.2-46.3.6-16.1,3.8-3.5,35.1-9.5,40.1-1.1.9-16.8,6.4-18.3,6-4.6-1.3-17.9-20.2-23.1-22.5-5.3-2.4-9.6-.4-13.8,2.7-3.6,2.7-31.5,30.7-32.9,33.3-7.4,14.3,14,22.9,20.6,32.9,2.3,3.5-5.5,15.6-7.9,19.8-12.8,2.7-38.4-7.2-40.5,11.9-.9,8.6-1.3,44.8.3,52.1,3.1,14.1,30.1,5.4,40.8,8.1.3,3.6,8.3,16.7,8.1,18.4-.5,5.7-27.1,18.5-22.8,32.8,1.9,6.1,32.4,30.6,37.8,38,11.2,9.3,29.1-23.2,35.1-22.7,4.7.4,12.1,6.4,17.7,6.5,1.8,9.1-4,34.8,5.7,39.1,8.9,4,43.8-1.3,55.5.4,12.6-3.4,3.3-37,6.7-40.9.5-.6,14.3-5.4,15-5,9.1,4.1,19.5,29.2,33.9,22.9,3.7-1.6,30.9-28.7,34.4-33.2,4.4-5.7,6.4-9.3,2-15.9-3.2-4.8-19.6-17.5-20.5-21-.9-3.3,6.5-15.1,6.9-19.5,9.6-2.5,38.1,5.3,40.8-6.7,1.9-8.4,1.3-43.7.4-53.5ZM342.5,569.1c-57.6,2.5-64.2-83.7-10.6-92.1,66.6-10.5,74,89.3,10.6,92.1Z"/>
  <path class="st0" d="M221.4,166.7c24.6-5.6,22.9,31.1,1.4,27-13.6-2.6-14.5-24-1.4-27Z"/>
  <path class="st0" d="M335.9,166.7c21.1-4.9,24.3,24.4,6.2,27-18.3,2.6-20.9-23.6-6.2-27Z"/>
  <path class="st0" d="M278,166.7c23.4-6,24.5,30.1,2.8,27-14.8-2.2-15.3-23.7-2.8-27Z"/>
</svg>