<?xml version="1.0" encoding="UTF-8"?>
<svg id="Layer_1" xmlns="http://www.w3.org/2000/svg" version="1.1" viewBox="0 0 1000 1000">
  <!-- Generator: Adobe Illustrator 29.6.1, SVG Export Plug-In . SVG Version: 2.1.1 Build 9)  -->
  <defs>
    <style>
      .st0 {
        fill: #1f1f1f;
      }
    </style>
  </defs>
  <path class="st0" d="M168.6,140.7c0-20.3,6.9-37.4,20.8-51.2,13.9-13.9,30.9-20.8,51.3-20.8h518.6c20.3,0,37.4,6.9,51.3,20.8,13.9,13.9,20.8,30.9,20.8,51.2v718.6c0,20.3-6.9,37.4-20.8,51.2-13.9,13.9-30.9,20.8-51.3,20.8H240.7c-20.3,0-37.4-6.9-51.3-20.8-13.9-13.9-20.8-30.9-20.8-51.2,0,0,0-718.6,0-718.6ZM200.7,141v343.3h598.6V141c0-10.1-4.2-19.3-12.6-27.7-8.4-8.4-17.6-12.6-27.7-12.6H240.9c-10.1,0-19.3,4.2-27.7,12.6-8.4,8.4-12.6,17.6-12.6,27.7ZM200.7,516.3v342.7c0,10.1,4.2,19.3,12.6,27.7,8.4,8.4,17.6,12.6,27.7,12.6h518.1c10.1,0,19.3-4.2,27.7-12.6,8.4-8.4,12.6-17.6,12.6-27.7v-342.7H200.7ZM371.1,571.1v273.5h33.3v-273.5h-33.3ZM495.6,571.1v273.5h33.3v-273.5h-33.3ZM620.7,571.1v273.5h33.3v-273.5h-33.3ZM200.7,100.7h598.6H200.7Z"/>
</svg>