<svg id="Layer_1" enable-background="new 0 0 500 500" viewBox="0 0 500 500" xmlns="http://www.w3.org/2000/svg"><path clip-rule="evenodd" d="m258.233 403.632 16.189-6.608 16.189-6.607c2.556-1.035 5.469.198 6.504 2.754.249.615.367 1.25.366 1.875h.005v9.889h129.979v-97.012c-4.036-.943-7.643-3.004-10.477-5.837-3.961-3.961-6.411-9.434-6.411-15.477s2.45-11.516 6.411-15.477 9.433-6.411 15.477-6.411c6.043 0 11.516 2.451 15.477 6.411 3.961 3.961 6.411 9.434 6.411 15.477 0 6.044-2.451 11.516-6.411 15.477-2.834 2.833-6.441 4.894-10.477 5.837v102.012c0 2.761-2.239 5-5 5h-134.979v6.539c0 2.761-2.239 5-5 5-.759 0-1.478-.169-2.122-.472l-15.942-6.506-16.189-6.607c-2.556-1.035-3.789-3.948-2.754-6.504.529-1.304 1.546-2.263 2.754-2.753zm174.202-105.135h.03.03c3.271-.008 6.232-1.337 8.377-3.481 2.151-2.151 3.482-5.124 3.482-8.407s-1.331-6.256-3.482-8.407-5.124-3.482-8.407-3.482-6.256 1.331-8.407 3.482-3.482 5.124-3.482 8.407 1.331 6.256 3.482 8.407c2.144 2.144 5.105 3.473 8.377 3.481zm-47.013-281.369c29.23 0 55.796 2.892 75.12 7.569 21.144 5.117 34.276 13.03 34.454 22.543.003.065.004.13.004.196v78.154.001 78.154c0 9.6-13.168 17.587-34.458 22.739-19.324 4.676-45.89 7.568-75.12 7.568-29.229 0-55.796-2.893-75.119-7.568-21.29-5.152-34.458-13.139-34.458-22.739v-78.154-.001-78.155c0-.066.002-.131.004-.196.178-9.513 13.309-17.426 34.454-22.543 19.323-4.676 45.89-7.568 75.119-7.568zm99.578 43.818c-5.917 3.637-14.254 6.758-24.458 9.228-19.324 4.676-45.89 7.568-75.12 7.568-29.229 0-55.796-2.893-75.119-7.568-10.204-2.469-18.541-5.59-24.458-9.228v64.643.001c0 4.376 10.242 9.044 26.802 13.051 18.526 4.483 44.249 7.256 72.776 7.256s54.25-2.773 72.776-7.256c16.559-4.007 26.802-8.675 26.802-13.051v-.001-64.643zm-26.802-26.562c-18.526-4.483-44.249-7.256-72.776-7.256s-54.25 2.773-72.776 7.256c-16.559 4.007-26.802 8.675-26.802 13.051s10.242 9.044 26.802 13.051c18.526 4.483 44.249 7.256 72.776 7.256s54.25-2.773 72.776-7.256c16.56-4.007 26.802-8.675 26.802-13.051s-10.242-9.044-26.802-13.051zm-387.272 110.832c4.036.943 7.643 3.004 10.477 5.837 3.961 3.961 6.411 9.434 6.411 15.477 0 6.044-2.451 11.516-6.411 15.477-3.961 3.961-9.433 6.411-15.477 6.411-6.043 0-11.516-2.45-15.477-6.411s-6.411-9.433-6.411-15.477c0-6.043 2.45-11.516 6.411-15.477 2.834-2.834 6.441-4.894 10.477-5.837v-102.013c0-2.761 2.239-5 5-5h134.979v-6.539c0-2.761 2.239-5 5-5 .759 0 1.478.169 2.122.472l15.942 6.506 16.189 6.607c2.556 1.035 3.789 3.948 2.754 6.504-.528 1.304-1.546 2.263-2.754 2.753l-16.189 6.607-16.189 6.607c-2.556 1.035-5.469-.198-6.504-2.754-.249-.615-.367-1.25-.366-1.875h-.005v-9.889h-129.979zm3.406 12.907c-2.151-2.151-5.123-3.481-8.407-3.481-3.283 0-6.256 1.331-8.407 3.481-2.151 2.151-3.481 5.124-3.481 8.407s1.331 6.256 3.481 8.407c2.151 2.151 5.124 3.482 8.407 3.482s6.256-1.331 8.407-3.482 3.482-5.123 3.482-8.407-1.331-6.256-3.482-8.407zm237.083-61.244c-3.076 0-5.861 1.247-7.877 3.263s-3.264 4.802-3.264 7.877c0 3.076 1.248 5.861 3.264 7.877s4.802 3.263 7.877 3.263c3.076 0 5.861-1.247 7.877-3.263s3.264-4.802 3.264-7.877c0-3.076-1.248-5.861-3.264-7.877s-4.802-3.263-7.877-3.263zm-258.037 333.04c-2.761 0-5-2.239-5-5s2.239-5 5-5h104.077c2.761 0 5 2.239 5 5s-2.239 5-5 5zm0-77.87c-2.761 0-5-2.239-5-5s2.239-5 5-5h104.077c2.761 0 5 2.239 5 5s-2.239 5-5 5zm.975-122.71c.915-1.177 2.344-1.935 3.951-1.935l.035.001v-.001h142.494c2.761 0 5 2.239 5 5v211.276h22.465v-235.468h-180.832v28.011zm8.95 8.065v43.303c0 2.761-2.239 5-5 5h-43.303v187.166h180.832v-24.193-211.276zm-58.302 43.216-.001.029v.057.013 197.153c0 2.761 2.239 5 5 5h190.833c2.761 0 5-2.239 5-5v-24.192h27.465c2.761 0 5-2.239 5-5v-245.468c0-2.761-2.239-5-5-5h-190.833c-2.761 0-5 2.239-5 5v43.006l-30.64 30.625c-1.093.9-1.798 2.256-1.824 3.777zm17.067-4.914 23.657-23.646c.19-.163.367-.34.531-.53l7.048-7.044v31.22zm31.31 37.408c-2.761 0-5-2.239-5-5s2.239-5 5-5h104.077c2.761 0 5 2.239 5 5s-2.239 5-5 5zm0 77.87c-2.761 0-5-2.239-5-5s2.239-5 5-5h104.077c2.761 0 5 2.239 5 5s-2.239 5-5 5zm258.037-216.79c-3.076 0-5.861 1.248-7.877 3.264s-3.264 4.802-3.264 7.877c0 3.076 1.248 5.861 3.264 7.877s4.802 3.264 7.877 3.264c3.076 0 5.861-1.247 7.877-3.264 2.016-2.016 3.264-4.802 3.264-7.877 0-3.076-1.248-5.861-3.264-7.877-2.016-2.017-4.802-3.264-7.877-3.264zm-25.57-35.094v64.643c0 4.376 10.242 9.044 26.802 13.051 18.526 4.483 44.249 7.256 72.776 7.256s54.25-2.773 72.776-7.256c16.559-4.006 26.801-8.674 26.801-13.05v-64.644c-5.917 3.637-14.254 6.758-24.458 9.228-19.324 4.676-45.89 7.568-75.12 7.568-29.229 0-55.796-2.893-75.119-7.568-10.204-2.469-18.541-5.591-24.458-9.228z" fill-rule="evenodd"/></svg>