<svg id="Layer_1" enable-background="new 0 0 512 512" viewBox="0 0 512 512" xmlns="http://www.w3.org/2000/svg"><path d="m255.188 323.276c0 3.866-3.134 7-7 7h-33.973c-3.866 0-7-3.134-7-7s3.134-7 7-7h33.973c3.867 0 7 3.133 7 7zm-168.029-176.309v-13.344c0-8.208 6.678-14.885 14.885-14.885h25.095v-15.962c0-3.866 3.134-7 7-7s7 3.134 7 7v15.962h25.096c8.207 0 14.885 6.678 14.885 14.885v13.344c0 3.866-3.134 7-7 7h-1.285l-5.235 81.405c-.237 3.684-3.294 6.551-6.985 6.551h-52.949c-3.691 0-6.748-2.867-6.985-6.551l-5.236-81.405h-1.285c-3.867 0-7.001-3.134-7.001-7zm71.647 7h-49.334l4.757 73.956h39.82zm-57.647-14h65.96v-6.344c0-.472-.413-.885-.885-.885h-64.19c-.472 0-.885.414-.885.885zm-58.852 114.443v-171.121c0-9.374 7.626-17 17-17h149.665c9.374 0 17 7.626 17 17v171.121c0 9.374-7.626 17-17 17h-149.665c-9.374 0-17-7.626-17-17zm14 0c0 1.654 1.346 3 3 3h149.665c1.654 0 3-1.346 3-3v-171.121c0-1.654-1.346-3-3-3h-149.665c-1.654 0-3 1.346-3 3zm248.991-140.534v-32.285c0-8.438 6.865-15.302 15.303-15.302h70.33c8.438 0 15.302 6.864 15.302 15.302v32.285c0 8.438-6.864 15.302-15.302 15.302h-70.33c-8.438 0-15.303-6.864-15.303-15.302zm14 0c0 .706.597 1.302 1.303 1.302h70.33c.706 0 1.302-.596 1.302-1.302v-32.285c0-.706-.596-1.302-1.302-1.302h-70.33c-.706 0-1.303.596-1.303 1.302zm173.07 231.014c-10.038 16.242-25.944 27.34-44.789 31.25-10.474 2.174-18.942 3.13-26.25 3.131-16.624 0-27.257-4.947-41.935-11.774-4.33-2.014-9.021-4.193-14.375-6.491h-71.992c.563 23.128 6.57 46.823 13.199 61.225h25.574c14.23 0 25.808 11.578 25.808 25.809s-11.577 25.808-25.808 25.808h-201.196c-14.23 0-25.808-11.578-25.808-25.809s11.577-25.808 25.808-25.808h25.504c6.33-14.157 11.971-37.77 12.321-61.225h-121.524c-20.896 0-37.897-17.001-37.897-37.897v-247.057c0-20.897 17.001-37.897 37.897-37.897h376.795c16.375 0 29.696 13.324 29.696 29.701v162.138c2.004-1.311 4.211-2.326 6.588-2.961 5.874-1.571 12.025-.751 17.317 2.307 5.293 3.06 9.072 7.981 10.642 13.859l12.674 45.842c5.017 18.931 2.003 39.261-8.249 55.849zm-469.36-268.838v209.494h330.667l-19.147-71.432h-13.927c-8.438 0-15.303-6.864-15.303-15.302v-32.285c0-8.438 6.865-15.302 15.303-15.302h70.33c8.438 0 15.302 6.864 15.302 15.302v32.285c0 8.438-6.864 15.302-15.302 15.302h-9.151l8.919 33.429c2.386-1.917 5.136-3.323 8.128-4.123 5.733-1.532 11.73-.788 16.936 2.093 3.071-5.106 7.901-8.751 13.646-10.287 3.312-.885 6.706-.987 9.988-.381v-166.99c0-8.658-7.041-15.701-15.696-15.701h-376.796c-13.176 0-23.897 10.72-23.897 23.898zm323.328 93.849c5.874-1.569 12.026-.75 17.318 2.309 5.293 3.06 9.072 7.981 10.643 13.858l3.748 14.045h12.886c.706 0 1.302-.596 1.302-1.302v-32.285c0-.706-.596-1.302-1.302-1.302h-70.33c-.706 0-1.303.596-1.303 1.302v32.285c0 .706.597 1.302 1.303 1.302h10.174l-.603-2.248c-1.572-5.881-.752-12.032 2.309-17.324 3.06-5.291 7.98-9.07 13.855-10.64zm-299.431 177.104h294.769c-4.575-6.525-6.1-15.023-3.433-23.131 3.796-11.542 12.434-15.24 21.39-16.11l-2.203-8.219h-334.42v23.562c0 13.177 10.721 23.898 23.897 23.898zm284.896 89.225h-201.197c-6.511 0-11.808 5.297-11.808 11.808 0 6.512 5.297 11.809 11.808 11.809h201.197c6.511 0 11.808-5.297 11.808-11.808-.001-6.512-5.297-11.809-11.808-11.809zm-52.774-75.225h-96.6c-.311 20.94-4.547 43.946-11.159 61.225h119.722c-6.938-17.511-11.479-40.531-11.963-61.225zm208.077-68.307-12.67-45.829c-.62-2.322-2.084-4.222-4.138-5.409-2.055-1.188-4.434-1.509-6.696-.903-2.266.605-4.165 2.069-5.351 4.124-1.18 2.043-1.5 4.407-.904 6.66.005.017.01.034.014.051.992 3.732-1.226 7.563-4.957 8.561-3.735 1-7.564-1.217-8.567-4.946-.002-.006-.004-.012-.005-.019 0-.001-.001-.001-.001-.002-.002-.007-.003-.013-.005-.02-.603-2.243-2.058-4.129-4.098-5.311-2.057-1.189-4.438-1.513-6.702-.906-2.263.604-4.163 2.069-5.35 4.123-1.182 2.046-1.503 4.413-.906 6.67.004.014.008.027.012.041.993 3.733-1.226 7.566-4.957 8.563-3.729.996-7.567-1.217-8.568-4.949-.001-.004-.002-.009-.004-.013 0-.002-.001-.005-.002-.007 0-.003-.001-.005-.002-.008-.604-2.25-2.062-4.139-4.108-5.322-2.056-1.188-4.434-1.509-6.697-.903-2.145.573-3.992 2.049-5.203 4.157-1.257 2.188-1.633 4.753-1.037 7.056l.041.152c.994 3.728-1.215 7.557-4.938 8.562-3.729 1.008-7.561-1.192-8.577-4.913-.021-.078-.043-.157-.063-.235l-21.892-82.046c-.604-2.261-2.067-4.161-4.122-5.349-2.056-1.188-4.435-1.509-6.697-.904-2.263.604-4.163 2.069-5.352 4.124-1.188 2.054-1.51 4.432-.904 6.695l31.792 118.617c.583 2.173.086 4.492-1.336 6.235-1.42 1.743-3.58 2.707-5.838 2.564-1.288-.076-2.475-.112-3.562-.112-11.012 0-12.223 3.686-13.214 6.701-2.021 6.145 1.161 12.783 7.243 15.114 10.894 4.174 19.193 8.034 26.517 11.44 20.376 9.479 29.678 13.804 59.436 7.63 15.041-3.121 27.728-11.966 35.724-24.903 8.239-13.331 10.661-29.671 6.644-44.831zm-240.125-187.964h37.312c3.866 0 7-3.134 7-7s-3.134-7-7-7h-37.312c-3.866 0-7 3.134-7 7s3.134 7 7 7zm0-24.445h37.312c3.866 0 7-3.134 7-7s-3.134-7-7-7h-37.312c-3.866 0-7 3.134-7 7s3.134 7 7 7zm0 48.888h37.312c3.866 0 7-3.134 7-7s-3.134-7-7-7h-37.312c-3.866 0-7 3.134-7 7s3.134 7 7 7zm0 84.936h37.312c3.866 0 7-3.134 7-7s-3.134-7-7-7h-37.312c-3.866 0-7 3.134-7 7s3.134 7 7 7zm0-48.888h37.312c3.866 0 7-3.134 7-7s-3.134-7-7-7h-37.312c-3.866 0-7 3.134-7 7s3.134 7 7 7zm0 24.444h37.312c3.866 0 7-3.134 7-7s-3.134-7-7-7h-37.312c-3.866 0-7 3.134-7 7s3.134 7 7 7z"/></svg>