<svg id="Layer_1" viewBox="0 0 512 512" xmlns="http://www.w3.org/2000/svg" data-name="Layer 1"><path d="m431.22 327.232c-12.105-7.15-27.471-6.39-41.14 2.028l-82.631 45.016a6.077 6.077 0 0 0 -.819.537 20.354 20.354 0 0 1 -6.508 3.24 22.331 22.331 0 0 0 5.65-13.532c.437-10.291-6.824-20.154-21.581-29.315-31.349-19.465-92.714-32.308-116.985-18.988-.054.029-.107.06-.161.092-.394.232-38.263 22.568-75.255 44.874a22.3 22.3 0 0 0 -29.936-7.349l-22.166 12.8a22.324 22.324 0 0 0 -8.163 30.46l54.139 93.77a22.141 22.141 0 0 0 13.544 10.37 22.533 22.533 0 0 0 5.837.775 22.1 22.1 0 0 0 11.079-2.983l22.166-12.8a22.346 22.346 0 0 0 8.163-30.46l-1.487-2.577 26.221-15.741.167-.1.113-.073c.536.179 1.2.39 2 .61l79.472 21.832a61.625 61.625 0 0 0 20.206 3.6 51.766 51.766 0 0 0 27.964-8.242l122.6-73.93c18.758-8.728 22.148-21.207 22.494-27.89.532-10.277-5.209-20.249-14.983-26.024zm-294.15 142.344a10.218 10.218 0 0 1 -4.779 6.258l-22.167 12.8a10.344 10.344 0 0 1 -14.067-3.77l-54.139-93.77a10.31 10.31 0 0 1 3.77-14.068l22.166-12.8a10.346 10.346 0 0 1 14.068 3.774l54.139 93.769a10.226 10.226 0 0 1 1.009 7.807zm297.15-116.941c-.359 6.927-5.981 13.23-15.829 17.75a6.066 6.066 0 0 0 -.6.315l-122.926 74.129-.1.061c-11.5 7.238-23.951 8.359-38.066 3.427-.129-.045-.259-.086-.389-.121l-79.664-21.886c-.877-.241-1.494-.456-2.037-.647-4.226-1.479-6.305-.627-9.68 1.547l-25.964 15.59-41.133-71.246c36.141-21.794 73.176-43.65 75.223-44.858 18.269-9.909 75.008.2 104.807 18.7 10.347 6.425 16.151 13.208 15.921 18.612-.209 4.949-5.641 10.427-15.3 15.476-12.922-1.075-30.878-4.825-55.861-13.054a6 6 0 0 0 -3.754 11.4c48.471 15.967 79.47 18.183 94.724 6.763l82.371-44.875c.1-.054.2-.111.293-.17 9.839-6.106 20.627-6.846 28.858-1.985 5.917 3.497 9.406 9.271 9.106 15.072zm-355.48 44.178a6 6 0 1 1 -10.392 6l-7.893-13.67a6 6 0 1 1 10.393-6zm179.4-123.429a131.022 131.022 0 0 0 80.585-27.61c.018-.013.037-.021.054-.035s.046-.041.07-.06a131.534 131.534 0 0 0 50.983-103.987c0-72.615-59.077-131.692-131.692-131.692s-131.693 59.077-131.693 131.692 59.077 131.692 131.693 131.692zm-79.623-42.408 79.082-80.19 69 89.03a119.44 119.44 0 0 1 -148.081-8.84zm157.559 1.482-65.691-84.764h107.3a119.5 119.5 0 0 1 -41.609 84.764zm41.606-96.766h-113.542v-113.542a119.859 119.859 0 0 1 113.542 113.542zm-125.542-113.542v117.081l-82.169 83.32a119.626 119.626 0 0 1 82.169-200.401zm141.637-1.916a6 6 0 0 1 6-6h53.014a6 6 0 0 1 0 12h-53.014a6 6 0 0 1 -6-6zm-.617 49.866a6 6 0 0 1 6-6h75.823a6 6 0 1 1 0 12h-75.823a6 6 0 0 1 -6-6zm90.289 44.667a6 6 0 0 1 -6 6h-76.439a6 6 0 0 1 0-12h76.439a6 6 0 0 1 6 5.997z"/></svg>