<svg enable-background="new 0 0 64 64" viewBox="0 0 64 64" xmlns="http://www.w3.org/2000/svg"><g id="Gray" display="none"><path d="m-324.076-102.113h824.576v414.113h-824.576z" display="inline" fill="rgb(0,0,0)"/></g><g id="Outline" display="none"><g display="inline"><path d="m30.179 12.154c.133 0 .25.117.25.25v11.022c0 .133-.117.25-.25.25h-13.196c-.133 0-.25-.117-.25-.25v-11.023c0-.133.117-.25.25-.25h13.196m0-1.399h-13.196c-.907 0-1.65.742-1.65 1.65v11.022c0 .907.742 1.65 1.65 1.65h13.196c.907 0 1.65-.742 1.65-1.65v-11.023c0-.907-.743-1.649-1.65-1.649z"/></g><g display="inline"><path d="m21.534 14.895 5.229 3.019-5.229 3.019z"/></g><g display="inline"><path d="m47.364 11.261v1.337h-10.082v-1.337zm1.4-1.4h-12.882v4.137h12.881v-4.137z"/></g><g display="inline"><path d="m47.364 23.245v1.337h-10.082v-1.337zm1.4-1.4h-12.882v4.137h12.881v-4.137z"/></g><g display="inline"><path d="m47.364 17.253v1.337h-10.082v-1.337zm1.4-1.4h-12.882v4.137h12.881v-4.137z"/></g><g display="inline"><path d="m19.512 34.919c-2.361 0-4.275 1.914-4.275 4.275s1.914 4.275 4.275 4.275 4.275-1.914 4.275-4.275h-4.275z"/></g><g display="inline"><path d="m20.393 34.037v4.275h4.275c0-2.361-1.914-4.275-4.275-4.275z"/></g><g display="inline"><path d="m19.512 46.036c-2.361 0-4.275 1.914-4.275 4.275s1.914 4.275 4.275 4.275 4.275-1.914 4.275-4.275h-4.275z"/></g><g display="inline"><path d="m20.393 45.155v4.275h4.275c0-2.361-1.914-4.275-4.275-4.275z"/></g><g fill="none" stroke="rgb(0,0,0)" stroke-miterlimit="10" stroke-width="1.4"><path d="m27.876 37.42h20.888" display="inline"/><path d="m27.876 40.928h20.888" display="inline"/><path d="m27.876 48.13h20.888" display="inline"/><path d="m27.876 51.638h20.888" display="inline"/></g><g display="inline"><path d="m51.231 1.4c1.858 0 3.369 1.511 3.369 3.369v54.462c0 1.858-1.511 3.369-3.369 3.369h-38.462c-1.858 0-3.369-1.511-3.369-3.369v-54.462c0-1.858 1.511-3.369 3.369-3.369zm0-1.4h-38.462c-2.634 0-4.769 2.135-4.769 4.769v54.462c0 2.634 2.135 4.769 4.769 4.769h38.462c2.634 0 4.769-2.135 4.769-4.769v-54.462c0-2.634-2.135-4.769-4.769-4.769z"/></g></g><g id="Outline_copy_2" display="none"><g display="inline"><g><g><path d="m31.322 11.854v12.121h-14.551v-12.121zm.144-2h-14.839c-1.021 0-1.856.835-1.856 1.856v12.409c0 1.021.835 1.856 1.856 1.856h14.839c1.021 0 1.856-.835 1.856-1.856v-12.409c0-1.021-.835-1.856-1.856-1.856z"/></g><g><path d="m20.975 13.627 7.418 4.287-7.418 4.287z"/></g></g><g><g><path d="m36.348 9.854h12.881v4.137h-12.881z"/></g><g><path d="m36.348 21.837h12.881v4.137h-12.881z"/></g><g><path d="m36.348 15.846h12.881v4.137h-12.881z"/></g></g></g><g display="inline"><g><path d="m19.512 34.919c-2.361 0-4.275 1.914-4.275 4.275s1.914 4.275 4.275 4.275 4.275-1.914 4.275-4.275h-4.275z"/></g><g><path d="m20.393 34.037v4.275h4.275c0-2.361-1.914-4.275-4.275-4.275z"/></g><g><path d="m19.512 48.036c-2.361 0-4.275 1.914-4.275 4.275s1.914 4.275 4.275 4.275 4.275-1.914 4.275-4.275h-4.275z"/></g><g><path d="m20.393 47.155v4.275h4.275c0-2.361-1.914-4.275-4.275-4.275z"/></g><g fill="none" stroke="rgb(0,0,0)" stroke-miterlimit="10" stroke-width="2"><path d="m27.876 37.42h20.888"/><path d="m27.876 40.928h20.888"/><path d="m27.876 50.13h20.888"/><path d="m27.876 53.638h20.888"/></g><g><path d="m51.231 2c1.527 0 2.769 1.242 2.769 2.769v54.462c0 1.527-1.242 2.769-2.769 2.769h-38.462c-1.527 0-2.769-1.242-2.769-2.769v-54.462c0-1.527 1.242-2.769 2.769-2.769zm0-2h-38.462c-2.634 0-4.769 2.135-4.769 4.769v54.462c0 2.634 2.135 4.769 4.769 4.769h38.462c2.634 0 4.769-2.135 4.769-4.769v-54.462c0-2.634-2.135-4.769-4.769-4.769z"/></g></g></g><g id="Outline_copy_3" display="none"><path d="m31.322 11.854h-14.551v12.121h14.551zm-10.347 10.347v-8.574l7.418 4.287z" display="inline"/><path d="m8 64h48v-64h-48zm8.38-8.557c-2.686-3.526-.231-7.407 3.131-7.407v4.275h4.275c.001 3.362-3.879 5.818-7.406 3.132zm7.407-16.249c0 3.362-3.88 5.817-7.407 3.132-2.686-3.526-.23-7.407 3.132-7.407v4.275zm-3.394 12.236v-4.275c2.361 0 4.275 1.914 4.275 4.275zm0-13.118v-4.275c2.361 0 4.275 1.914 4.275 4.275zm28.371 16.326h-20.888v-2h20.888zm0-3.508h-20.888v-2h20.888zm0-9.201h-20.888v-2h20.888zm0-3.508h-20.888v-2h20.888zm-12.416-28.567h12.881v4.137h-12.881zm0 5.992h12.881v4.137h-12.881zm0 5.991h12.881v4.137h-12.881zm-21.577-11.983h18.551v16.121h-18.551z" display="inline"/></g><g id="Outline_copy"><g><path d="m16.627 25.975h14.839c1.021 0 1.856-.835 1.856-1.856v-12.409c0-1.021-.835-1.856-1.856-1.856h-14.839c-1.021 0-1.856.835-1.856 1.856v12.409c0 1.02.835 1.856 1.856 1.856zm-.856-14.265c0-.472.384-.856.856-.856h14.839c.472 0 .856.384.856.856v12.409c0 .472-.384.856-.856.856h-14.839c-.472 0-.856-.384-.856-.856z"/><path d="m20.975 13.627v8.574l7.418-4.287zm1 1.733 4.419 2.554-4.419 2.554z"/><path d="m49.229 9.854h-12.881v4.137h12.881zm-1 3.137h-10.881v-2.137h10.881z"/><path d="m49.229 21.837h-12.881v4.137h12.881zm-1 3.137h-10.881v-2.137h10.881z"/><path d="m49.229 15.846h-12.881v4.137h12.881zm-1 3.137h-10.881v-2.137h10.881z"/><path d="m56 0h-48v64h48zm-1 63h-46v-62h46z"/><path d="m15.236 39.194c0 2.361 1.914 4.275 4.275 4.275s4.275-1.914 4.275-4.275h-4.275v-4.275c-2.361 0-4.275 1.914-4.275 4.275zm7.395 1c-.424 1.318-1.662 2.275-3.119 2.275-1.806 0-3.275-1.469-3.275-3.275 0-1.457.957-2.695 2.275-3.119v3.119 1h1z"/><path d="m20.393 34.037v4.275h4.275c0-2.361-1.914-4.275-4.275-4.275zm1 3.275v-2.119c1.003.322 1.797 1.116 2.119 2.119z"/><path d="m19.512 48.036c-2.361 0-4.275 1.914-4.275 4.275s1.914 4.275 4.275 4.275 4.275-1.914 4.275-4.275h-4.275zm3.119 5.275c-.424 1.318-1.662 2.275-3.119 2.275-1.806 0-3.275-1.469-3.275-3.275 0-1.457.957-2.695 2.275-3.119v3.119 1h1z"/><path d="m20.393 47.155v4.275h4.275c0-2.361-1.914-4.275-4.275-4.275zm1 3.275v-2.119c1.003.322 1.797 1.116 2.119 2.119z"/><path d="m27.876 36.921h20.888v1h-20.888z"/><path d="m27.876 40.429h20.888v1h-20.888z"/><path d="m27.876 49.63h20.888v1h-20.888z"/><path d="m27.876 53.138h20.888v1h-20.888z"/></g></g></svg>