<svg clip-rule="evenodd" fill-rule="evenodd" height="512" image-rendering="optimizeQuality" shape-rendering="geometricPrecision" text-rendering="geometricPrecision" viewBox="0 0 43.3492 43.3492" width="512" xmlns="http://www.w3.org/2000/svg"><g id="Layer_x0020_1"><g id="_211312680"><path id="_211314000" d="m19.0928 36.939h-12.5393c-2.9219 0-5.299-2.3769-5.299-5.2991v-26.3408c0-2.9222 2.3771-5.2991 5.299-5.2991h19.7057c2.9219 0 5.2991 2.3769 5.2991 5.2991v10.2541c0 .2623-.2119.4733-.4733.4733-.2613-.0001-.4732-.211-.4732-.4732l.0001-10.2542c0-2.4006-1.9526-4.3527-4.3528-4.3527h-19.7056c-2.4 0-4.3526 1.9521-4.3526 4.3527v26.3408c0 2.3996 1.9526 4.3527 4.3526 4.3527h12.5393c.2613 0 .4732.212.4732.4732s-.2119.4732-.4732.4732z"/><path id="_211314096" d="m5.7531 3.7463c-.4015 0-.728.3273-.728.7286v4.9048c0 .4022.3265.7285.728.7285h21.3067c.4014 0 .7279-.3263.7279-.7285l.0001-4.9048c0-.4013-.3267-.7286-.728-.7286zm21.3067 7.3083h-21.3067c-.9233 0-1.6746-.7512-1.6746-1.6749l.0001-4.9048c0-.9238.7512-1.674 1.6745-1.674h21.3067c.9233 0 1.6744.7502 1.6744 1.674v4.9048c0 .9237-.7511 1.675-1.6744 1.6749z"/><path id="_211313232" d="m6.4801 15.4005c-.9033 0-1.6382.7354-1.6382 1.6385 0 .903.7349 1.6385 1.6381 1.6385s1.6381-.7354 1.6381-1.6385-.7349-1.6385-1.638-1.6385zm0 4.2225c-1.4251 0-2.5846-1.1594-2.5846-2.584 0-1.4256 1.1595-2.585 2.5845-2.585 1.4252 0 2.5846 1.1594 2.5846 2.585 0 1.4246-1.1595 2.584-2.5845 2.584z"/><path id="_211313088" d="m13.9199 15.4005c-.9031 0-1.6381.7354-1.6381 1.6385 0 .903.7349 1.6385 1.6381 1.6385.9033 0 1.6382-.7354 1.6382-1.6385s-.7349-1.6385-1.6382-1.6385zm0 4.2225c-1.4251 0-2.5846-1.1594-2.5846-2.584.0001-1.4256 1.1595-2.585 2.5846-2.585s2.5846 1.1594 2.5846 2.585c0 1.4246-1.1595 2.584-2.5846 2.584z"/><path id="_211313640" d="m6.4801 22.0364c-.9033 0-1.6382.7345-1.6382 1.6386 0 .903.7349 1.6375 1.6381 1.6375s1.6381-.7345 1.6381-1.6375c0-.9041-.7349-1.6386-1.638-1.6386zm0 4.2225c-1.4251 0-2.5846-1.1593-2.5846-2.5839 0-1.4256 1.1595-2.585 2.5845-2.585 1.4252 0 2.5846 1.1594 2.5846 2.585 0 1.4245-1.1595 2.584-2.5845 2.5839z"/><path id="_211313064" d="m13.9199 22.0364c-.9031 0-1.6381.7345-1.6381 1.6386 0 .903.7349 1.6375 1.6381 1.6375.9033 0 1.6382-.7345 1.6382-1.6375 0-.9041-.7349-1.6386-1.6382-1.6386zm0 4.2225c-1.4251 0-2.5846-1.1593-2.5846-2.5839.0001-1.4256 1.1595-2.585 2.5846-2.585s2.5846 1.1594 2.5846 2.585c0 1.4245-1.1595 2.584-2.5846 2.5839z"/><path id="_211313592" d="m6.4801 28.4712c-.9033 0-1.6382.7346-1.6382 1.6376 0 .9031.7349 1.6386 1.6381 1.6386s1.6381-.7355 1.6381-1.6386c0-.903-.7349-1.6375-1.638-1.6376zm0 4.2226c-1.4251 0-2.5846-1.1594-2.5846-2.585 0-1.4246 1.1595-2.584 2.5845-2.584 1.4252 0 2.5846 1.1595 2.5846 2.584 0 1.4256-1.1595 2.585-2.5845 2.585z"/><path id="_211313712" d="m13.9199 28.4712c-.9031 0-1.6381.7346-1.6381 1.6376 0 .9031.7349 1.6386 1.6381 1.6386.9033 0 1.6382-.7355 1.6382-1.6386 0-.903-.7349-1.6375-1.6382-1.6376zm0 4.2226c-1.4251 0-2.5846-1.1594-2.5846-2.585.0001-1.4246 1.1595-2.584 2.5846-2.584s2.5846 1.1595 2.5846 2.584c0 1.4256-1.1595 2.585-2.5846 2.585z"/><path id="_211313664" d="m37.7173 37.0396h-14.7203c-.2614 0-.4733-.212-.4733-.4732.0001-.2613.2119-.4732.4733-.4732l14.7203-.0001c.2614 0 .4732.212.4732.4733 0 .2612-.2119.4732-.4732.4732z"/><path id="_211313472" d="m19.566 42.4028h21.5823v-26.3764h-21.5823zm22.0555.9464h-22.5287c-.2614 0-.4733-.2119-.4733-.4732l.0001-27.3228c0-.2612.2118-.4732.4732-.4732h22.5287c.2613 0 .4732.212.4732.4733l.0001 27.3227c0 .2612-.212.4733-.4733.4732z"/><path id="_211313688" d="m29.8839 19.8586c-2.3272.2376-4.149 2.2094-4.149 4.5982.0001 2.5485 2.0736 4.6228 4.6223 4.6228 2.389-.0001 4.3604-1.8219 4.5981-4.1496h-4.5981c-.2614 0-.4733-.212-.4733-.4732zm.4733 10.1674c-3.0706 0-5.5688-2.4982-5.5688-5.5692 0-3.0701 2.4981-5.5683 5.5688-5.5683.2614 0 .4732.212.4732.4732v4.6218h4.6223c.2613 0 .4731.212.4731.4733.0001 3.071-2.4981 5.5692-5.5686 5.5692z"/><path id="_211313496" d="m33.3682 39.3672h-6.022c-.2613 0-.4733-.2119-.4733-.4732 0-.2612.2119-.4732.4733-.4732h6.022c.2614 0 .4732.212.4732.4732 0 .2613-.2119.4733-.4732.4732z"/><path id="_211312728" d="m37.5958 34.7119h-14.4772c-.2612 0-.4731-.2109-.4731-.4732 0-.2613.2119-.4732.4731-.4732l14.4772-.0001c.2613 0 .4731.212.4731.4733.0001.2622-.2118.4732-.4731.4732z"/></g></g></svg>