<svg id="Layer_1" enable-background="new 0 0 1000 1000" viewBox="0 0 1000 1000" xmlns="http://www.w3.org/2000/svg"><g><g><g><path d="m678.5 899.4h-572.1c-3.4 0-6.2-2.8-6.2-6.2v-715.8c0-3.4 2.8-6.2 6.2-6.2h572.1c3.4 0 6.2 2.8 6.2 6.2v316.9c0 3.4-2.8 6.2-6.2 6.2s-6.2-2.8-6.2-6.2v-310.8h-559.8v703.5h566c3.4 0 6.2 2.8 6.2 6.2s-2.8 6.2-6.2 6.2z"/></g></g><g><g><path d="m749.1 500.4c-3.4 0-6.2-2.8-6.2-6.2v-381.3h-559.8v64.4c0 3.4-2.8 6.2-6.2 6.2s-6.2-2.8-6.2-6.2v-70.6c0-3.4 2.8-6.2 6.2-6.2h572.1c3.4 0 6.2 2.8 6.2 6.2v387.4c.1 3.5-2.7 6.3-6.1 6.3z"/></g></g><g><g><path d="m893.6 899.4h-304.4c-3.4 0-6.2-2.8-6.2-6.2v-399c0-3.4 2.8-6.2 6.2-6.2h304.4c3.4 0 6.2 2.8 6.2 6.2v399c0 3.4-2.8 6.2-6.2 6.2zm-298.2-12.3h292.1v-386.7h-292.1z"/></g></g><g><g><path d="m852.6 611.6h-222.4c-3.4 0-6.2-2.8-6.2-6.2v-74.4c0-3.4 2.8-6.2 6.2-6.2h222.5c3.4 0 6.2 2.8 6.2 6.2v74.4c-.1 3.5-2.9 6.2-6.3 6.2zm-216.3-12.3h210.2v-62.1h-210.2z"/></g></g><g><g><g><path d="m398.8 241.3h-243.7c-3.4 0-6.2-2.8-6.2-6.2s2.8-6.2 6.2-6.2h243.7c3.4 0 6.2 2.8 6.2 6.2s-2.8 6.2-6.2 6.2z"/></g></g><g><g><path d="m629.8 306.7h-474.7c-3.4 0-6.2-2.8-6.2-6.2s2.8-6.2 6.2-6.2h474.7c3.4 0 6.2 2.8 6.2 6.2s-2.8 6.2-6.2 6.2z"/></g></g></g><g><g><g><path d="m274.3 595.3c-69.1 0-125.3-56.2-125.3-125.3s56.2-125.3 125.3-125.3 125.3 56.2 125.3 125.3-56.2 125.3-125.3 125.3zm0-238.4c-62.3 0-113 50.7-113 113s50.7 113 113 113 113-50.7 113-113-50.7-113-113-113z"/></g></g><g><g><path d="m174.8 541.7c-1.2 0-2.3-.3-3.4-1-2.8-1.9-3.6-5.7-1.7-8.5 23.3-35.3 62.4-56.3 104.6-56.3s81.3 21.1 104.6 56.3c1.9 2.8 1.1 6.6-1.7 8.5s-6.7 1.1-8.5-1.7c-21.1-31.8-56.3-50.8-94.4-50.8s-73.4 19-94.4 50.8c-1.1 1.7-3.1 2.7-5.1 2.7z"/></g></g><g><g><path d="m274.3 464.4c-24.3 0-44-19.7-44-44s19.7-44 44-44 44 19.7 44 44c0 24.2-19.7 44-44 44zm0-75.8c-17.5 0-31.7 14.2-31.7 31.7s14.2 31.7 31.7 31.7 31.7-14.2 31.7-31.7c0-17.4-14.2-31.7-31.7-31.7z"/></g></g></g><g><g><path d="m373.9 861.3h-42.9c-3.4 0-6.2-2.8-6.2-6.2v-171.8c0-3.4 2.8-6.2 6.2-6.2h42.8c3.4 0 6.2 2.8 6.2 6.2v171.9c0 3.4-2.7 6.1-6.1 6.1zm-36.7-12.3h30.5v-159.6h-30.5z"/></g></g><g><g><path d="m461.9 861.3h-42.8c-3.4 0-6.2-2.8-6.2-6.2v-128.8c0-3.4 2.8-6.2 6.2-6.2h42.8c3.4 0 6.2 2.8 6.2 6.2v128.9c-.1 3.4-2.9 6.1-6.2 6.1zm-36.7-12.3h30.5v-116.6h-30.5z"/></g></g><g><g><path d="m197.9 861.3h-42.8c-3.4 0-6.2-2.8-6.2-6.2v-116.6c0-3.4 2.8-6.2 6.2-6.2h42.8c3.4 0 6.2 2.8 6.2 6.2v116.6c0 3.5-2.8 6.2-6.2 6.2zm-36.6-12.3h30.5v-104.3h-30.5z"/></g></g><g><g><path d="m285.9 861.3h-42.8c-3.4 0-6.2-2.8-6.2-6.2v-202.5c0-3.4 2.8-6.2 6.2-6.2h42.8c3.4 0 6.2 2.8 6.2 6.2v202.6c-.1 3.4-2.8 6.1-6.2 6.1zm-36.7-12.3h30.5v-190.3h-30.5z"/></g></g><g><g><g><path d="m671.5 689h-41.3c-3.4 0-6.2-2.8-6.2-6.2v-41.2c0-3.4 2.8-6.2 6.2-6.2h41.3c3.4 0 6.2 2.8 6.2 6.2v41.2c-.1 3.5-2.8 6.2-6.2 6.2zm-35.2-12.3h29v-28.9h-29z"/></g></g><g><g><path d="m852.7 689h-41.3c-3.4 0-6.2-2.8-6.2-6.2v-41.2c0-3.4 2.8-6.2 6.2-6.2h41.3c3.4 0 6.2 2.8 6.2 6.2v41.2c-.1 3.5-2.8 6.2-6.2 6.2zm-35.2-12.3h29v-28.9h-29z"/></g></g><g><g><path d="m762.1 689h-41.3c-3.4 0-6.2-2.8-6.2-6.2v-41.2c0-3.4 2.8-6.2 6.2-6.2h41.3c3.4 0 6.2 2.8 6.2 6.2v41.2c-.1 3.5-2.8 6.2-6.2 6.2zm-35.2-12.3h29v-28.9h-29z"/></g></g></g><g><g><g><path d="m762.1 775.8h-41.3c-3.4 0-6.2-2.8-6.2-6.2v-41.3c0-3.4 2.8-6.2 6.2-6.2h41.3c3.4 0 6.2 2.8 6.2 6.2v41.3c-.1 3.4-2.8 6.2-6.2 6.2zm-35.2-12.3h29v-29h-29z"/></g></g><g><g><path d="m671.5 775.8h-41.3c-3.4 0-6.2-2.8-6.2-6.2v-41.3c0-3.4 2.8-6.2 6.2-6.2h41.3c3.4 0 6.2 2.8 6.2 6.2v41.3c-.1 3.4-2.8 6.2-6.2 6.2zm-35.2-12.3h29v-29h-29z"/></g></g><g><g><path d="m852.7 775.8h-41.3c-3.4 0-6.2-2.8-6.2-6.2v-41.3c0-3.4 2.8-6.2 6.2-6.2h41.3c3.4 0 6.2 2.8 6.2 6.2v41.3c-.1 3.4-2.8 6.2-6.2 6.2zm-35.2-12.3h29v-29h-29z"/></g></g></g><g><g><g><path d="m762.1 862.5h-41.3c-3.4 0-6.2-2.8-6.2-6.2v-41.2c0-3.4 2.8-6.2 6.2-6.2h41.3c3.4 0 6.2 2.8 6.2 6.2v41.2c-.1 3.5-2.8 6.2-6.2 6.2zm-35.2-12.3h29v-28.9h-29z"/></g></g><g><g><path d="m671.5 862.5h-41.3c-3.4 0-6.2-2.8-6.2-6.2v-41.2c0-3.4 2.8-6.2 6.2-6.2h41.3c3.4 0 6.2 2.8 6.2 6.2v41.2c-.1 3.5-2.8 6.2-6.2 6.2zm-35.2-12.3h29v-28.9h-29z"/></g></g><g><g><path d="m852.7 862.5h-41.3c-3.4 0-6.2-2.8-6.2-6.2v-41.2c0-3.4 2.8-6.2 6.2-6.2h41.3c3.4 0 6.2 2.8 6.2 6.2v41.2c-.1 3.5-2.8 6.2-6.2 6.2zm-35.2-12.3h29v-28.9h-29z"/></g></g></g></g></svg>