<svg id="Layer_1" enable-background="new 0 0 64 64" height="512" viewBox="0 0 64 64" width="512" xmlns="http://www.w3.org/2000/svg"><path d="m51.1 10.7-10.5-10.6c-.1 0-.2-.1-.3-.1h-27.9c-.3 0-.5.2-.5.5v3.9h-2.4c-1.1 0-2 .9-2 2v1.3c-.1 0-.1 0-.2 0h-1.8c-1.1 0-2 .9-2 2v52.3c0 1.1.9 2 2 2h37.6c.3 0 .5-.2.5-.5v-2.8h3.3c.3 0 .5-.2.5-.5v-4h3.4c.3 0 .5-.2.5-.5v-3.8c5.1-.3 9.2-4.5 9.2-9.6 0-5.2-4.1-9.4-9.2-9.6v-21.5s0 0 0 0v-.2c0-.1-.1-.2-.2-.3zm-10.4-9 9 9.1h-9zm1.9 61.3h-37.1c-.6 0-1-.4-1-1v-52.5c0-.6.4-1 1-1h1.8.2v50.2c0 1.1.9 2 2 2h33.1zm3.8-3.3h-36.9c-.6 0-1-.4-1-1v-52.4c0-.6.4-1 1-1h2.4v50.4c0 .3.2.5.5.5h34zm3.9-4.5h-37.4v-54.2h26.9v10.2c0 .3.2.5.5.5h10v21c-5.1.3-9.2 4.5-9.2 9.6 0 5.2 4.1 9.4 9.2 9.6zm9.2-12.9c0 4.8-3.9 8.7-8.7 8.7s-8.7-3.9-8.7-8.7 3.9-8.7 8.7-8.7 8.7 3.9 8.7 8.7z"/><path d="m46.1 41.8c-.2-.2-.5-.2-.7 0s-.2.5 0 .7l3.1 3.2c.1.1.2.2.4.2s.3-.1.4-.2l6.4-6.7c.2-.2.2-.5 0-.7s-.5-.2-.7 0l-6.1 6.4z"/><path d="m15.5 26.3h11.2c.3 0 .5-.2.5-.5v-15.3c0-.3-.2-.5-.5-.5h-11.2c-.3 0-.5.2-.5.5v15.3c0 .3.2.5.5.5zm.4-15.3h10.2v14.3h-10.2z"/><path d="m29.9 18.6h14.6c.3 0 .5-.2.5-.5s-.2-.5-.5-.5h-14.6c-.3 0-.5.2-.5.5s.2.5.5.5z"/><path d="m29.9 22.3h14.6c.3 0 .5-.2.5-.5s-.2-.5-.5-.5h-14.6c-.3 0-.5.2-.5.5s.2.5.5.5z"/><path d="m29.9 26h14.6c.3 0 .5-.2.5-.5s-.2-.5-.5-.5h-14.6c-.3 0-.5.2-.5.5s.2.5.5.5z"/><path d="m38.6 30.9h-15.4c-.3 0-.5.2-.5.5s.2.5.5.5h15.4c.3 0 .5-.2.5-.5-.1-.3-.3-.5-.5-.5z"/><path d="m38.6 34.8h-15.4c-.3 0-.5.2-.5.5s.2.5.5.5h15.4c.3 0 .5-.2.5-.5s-.3-.5-.5-.5z"/><path d="m38.6 38.7h-15.4c-.3 0-.5.2-.5.5s.2.5.5.5h15.4c.3 0 .5-.2.5-.5s-.3-.5-.5-.5z"/><path d="m38.6 42.6h-15.4c-.3 0-.5.2-.5.5s.2.5.5.5h15.4c.3 0 .5-.2.5-.5s-.3-.5-.5-.5z"/><path d="m38.6 46.5h-15.4c-.3 0-.5.2-.5.5s.2.5.5.5h15.4c.3 0 .5-.2.5-.5-.1-.3-.3-.5-.5-.5z"/><path d="m19.7 31.2h-4.3c-.3 0-.5.2-.5.5v4.7c0 .3.2.5.5.5h4.3c.3 0 .5-.2.5-.5v-4.7c0-.3-.2-.5-.5-.5zm-.5 4.7h-3.3v-3.7h3.3z"/><path d="m19.7 41.6h-4.3c-.3 0-.5.2-.5.5v4.7c0 .3.2.5.5.5h4.3c.3 0 .5-.2.5-.5v-4.7c0-.3-.2-.5-.5-.5zm-.5 4.6h-3.3v-3.7h3.3z"/></svg>