<svg enable-background="new 0 0 512 512" viewBox="0 0 512 512" xmlns="http://www.w3.org/2000/svg"><g id="_x34_1_Analytic"><g><path d="m484.195 374.86h-13.913v-201.178c0-29.642-24.116-53.753-53.758-53.753h-203.365c-2.671-53.673-46.928-95.033-99.978-95.033-55.212 0-100.13 44.918-100.13 100.128 0 27.238 10.963 51.941 28.67 70.011v179.825h-13.914c-11.69 0-21.203 9.508-21.203 21.198v32.736c0 32.153 26.158 58.309 58.309 58.309h382.174c32.151 0 58.309-26.155 58.309-58.309v-32.736c0-11.69-9.511-21.198-21.201-21.198zm-343.477-335.875c27.378 8.731 49.902 30.357 58.847 59.573l-79.571 19.738zm-27.537-4.308c6.112 0 12.167.629 18.076 1.829l-22.806 87.282c-.437 1.671.038 3.448 1.251 4.675.929.941 2.187 1.452 3.479 1.452.392 0 .788-.048 1.177-.143l87.575-21.723c1.052 5.539 1.598 11.227 1.598 16.976 0 49.823-40.532 90.353-90.35 90.353s-90.35-40.53-90.35-90.353c0-49.818 40.532-90.348 90.35-90.348zm-61.68 169.065c17.021 13.368 38.409 21.416 61.68 21.416 53.631 0 97.421-42.415 99.893-95.448h203.449c24.25 0 43.978 19.728 43.978 43.973v201.177h-65.935c-11.69 0-21.203 9.508-21.203 21.198 0 6.299-5.124 11.423-11.421 11.423-33.157 0-184.568 0-211.882 0-6.299 0-11.423-5.124-11.423-11.423 0-11.69-9.51-21.198-21.201-21.198h-65.935zm126.083 213.52h156.835v8.625c0 9.279-7.545 16.824-16.819 16.824h-123.197c-9.274 0-16.819-7.545-16.819-16.824zm318.032 11.532c0 26.757-21.769 48.529-48.529 48.529h-382.174c-26.76 0-48.529-21.772-48.529-48.529v-32.736c0-6.294 5.124-11.418 11.423-11.418h89.629c6.297 0 11.421 5.124 11.421 11.418 0 11.69 9.513 21.203 21.203 21.203h17.743v8.625c0 14.67 11.932 26.604 26.6 26.604h123.196c14.668 0 26.6-11.934 26.6-26.604v-8.625h17.743c11.69 0 21.201-9.513 21.201-21.203 0-6.294 5.124-11.418 11.423-11.418h89.629c6.297 0 11.421 5.124 11.421 11.418z"/><path d="m181.395 323.385h-35.281c-2.701 0-4.89 2.187-4.89 4.89v38.758c0 2.703 2.19 4.89 4.89 4.89h35.281c2.701 0 4.89-2.187 4.89-4.89v-38.758c0-2.703-2.19-4.89-4.89-4.89zm-4.89 38.758h-25.501v-28.978h25.501z"/><path d="m246.177 256.881h-35.284c-2.701 0-4.89 2.187-4.89 4.89v105.262c0 2.703 2.19 4.89 4.89 4.89h35.284c2.701 0 4.89-2.187 4.89-4.89v-105.262c0-2.703-2.19-4.89-4.89-4.89zm-4.89 105.262h-25.504v-95.481h25.504z"/><path d="m310.956 295.429h-35.281c-2.701 0-4.89 2.187-4.89 4.89v66.714c0 2.703 2.19 4.89 4.89 4.89h35.281c2.701 0 4.89-2.187 4.89-4.89v-66.714c.001-2.703-2.189-4.89-4.89-4.89zm-4.89 66.714h-25.501v-56.934h25.501z"/><path d="m375.736 256.881h-35.281c-2.701 0-4.89 2.187-4.89 4.89v105.262c0 2.703 2.19 4.89 4.89 4.89h35.281c2.701 0 4.89-2.187 4.89-4.89v-105.262c0-2.703-2.189-4.89-4.89-4.89zm-4.89 105.262h-25.501v-95.481h25.501z"/><path d="m171.266 268.199c13.337 0 23.816-12.836 19.535-26.6l24.997-15.044c8.483 9.513 23.047 9.213 31.134-.697l24.487 15.005c-.187 1.112-.344 2.236-.344 3.401 0 11.332 9.219 20.549 20.549 20.549 11.332 0 20.551-9.217 20.551-20.549 0-4.313-1.348-8.309-3.627-11.619l35.281-49.527c13.745 6.361 29.126-3.784 29.126-18.614 0-11.332-9.219-20.554-20.551-20.554-11.33 0-20.549 9.221-20.549 20.554 0 4.714 1.659 9.009 4.338 12.48l-35.037 49.185c-9.352-4.946-19.859-2.044-25.773 5.653l-24.167-14.808c.265-1.316.411-2.675.411-4.068 0-11.332-9.219-20.554-20.551-20.554-11.33 0-20.549 9.221-20.549 20.554 0 1.72.275 3.364.675 4.962l-25.371 15.269c-3.725-3.749-8.877-6.077-14.566-6.077-11.332 0-20.551 9.217-20.551 20.549 0 11.333 9.22 20.55 20.552 20.55zm181.139-114.469c5.938 0 10.771 4.833 10.771 10.774 0 5.936-4.833 10.769-10.771 10.769s-10.769-4.833-10.769-10.769c.001-5.941 4.831-10.774 10.769-10.774zm-60.78 79.765c5.938 0 10.771 4.833 10.771 10.769s-4.833 10.769-10.771 10.769-10.769-4.833-10.769-10.769c.001-5.936 4.831-10.769 10.769-10.769zm-60.548-31.322c5.938 0 10.771 4.833 10.771 10.774 0 5.936-4.833 10.769-10.771 10.769s-10.769-4.833-10.769-10.769c0-5.941 4.83-10.774 10.769-10.774zm-59.811 34.708c5.938 0 10.769 4.833 10.769 10.769s-4.83 10.769-10.769 10.769-10.771-4.833-10.771-10.769 4.833-10.769 10.771-10.769z"/><path d="m368.766 196.667c0 2.703 2.19 4.89 4.89 4.89h57.509c2.701 0 4.89-2.187 4.89-4.89s-2.19-4.89-4.89-4.89h-57.509c-2.7 0-4.89 2.187-4.89 4.89z"/><path d="m408.279 217.889h-34.622c-2.701 0-4.89 2.187-4.89 4.89s2.19 4.89 4.89 4.89h34.622c2.701 0 4.89-2.187 4.89-4.89s-2.19-4.89-4.89-4.89z"/><path d="m84.428 299.264h57.507c2.701 0 4.89-2.187 4.89-4.89s-2.19-4.89-4.89-4.89h-57.507c-2.701 0-4.89 2.187-4.89 4.89s2.19 4.89 4.89 4.89z"/><path d="m123.941 320.486c0-2.703-2.19-4.89-4.89-4.89h-34.623c-2.701 0-4.89 2.187-4.89 4.89s2.19 4.89 4.89 4.89h34.622c2.701 0 4.891-2.187 4.891-4.89z"/></g></g><g id="Layer_1"/></svg>