<svg id="Layer_1" enable-background="new 0 0 512 512" viewBox="0 0 512 512" xmlns="http://www.w3.org/2000/svg"><path d="m505 336.271v-79.847c0-31.659-25.769-57.415-57.443-57.415h-6.594c8.71-10.011 14.119-23.898 14.119-39.232 0-30.444-21.285-55.212-47.448-55.212-26.147 0-47.42 24.768-47.42 55.212 0 15.334 5.406 29.222 14.111 39.232h-6.587c-15.803 0-30.135 6.413-40.531 16.77v-45.075c0-4.405-3.571-7.976-7.976-7.976h-59.846c-11.593-15.918-29.299-25.298-48.179-25.298h-4.294c14.045-13.241 23.056-33.522 23.056-56.229 0-39.801-27.656-72.182-61.65-72.182s-61.65 32.38-61.65 72.182c0 22.708 9.011 42.988 23.056 56.229h-4.266c-33.683 0-61.085 29.328-61.085 65.376v70.318h-49.397c-4.405 0-7.976 3.571-7.976 7.976v36.592c0 4.405 3.571 7.976 7.976 7.976h11.054v177.355c0 4.405 3.571 7.976 7.976 7.976h252.784c4.405 0 7.976-3.571 7.976-7.976s-3.571-7.976-7.976-7.976h-244.808v-169.378h268.312v10.602c0 21.621 17.344 39.269 38.851 39.757v119.019h-36.775c-4.405 0-7.976 3.571-7.976 7.976s3.571 7.976 7.976 7.976h184.653c4.405 0 7.976-3.571 7.976-7.976v-122.565c0-4.405-3.571-7.976-7.976-7.976s-7.976 3.571-7.976 7.976v114.59h-22.897v-119.02c21.506-.488 38.85-18.136 38.85-39.757zm-128.834-176.494c0-21.648 14.116-39.259 31.467-39.259 17.367 0 31.496 17.612 31.496 39.259 0 21.633-14.129 39.232-31.496 39.232-17.351 0-31.467-17.599-31.467-39.232zm-131.065 79.353h11.238v33.994h-11.238zm27.19 27.387h38.004v6.607h-38.004zm38.964-20.483c-.274 1.493-.507 3-.663 4.531h-38.301v-19.411c0-4.405-3.571-7.976-7.976-7.976h-27.19c-4.405 0-7.976 3.571-7.976 7.976v19.411h-38.964v-71.885h121.07zm-188.635-164.833c0-31.005 20.5-56.229 45.698-56.229s45.698 25.224 45.698 56.229-20.5 56.229-45.698 56.229-45.698-25.225-45.698-56.229zm-42.295 121.605c0-27.252 20.247-49.424 45.133-49.424h85.748c9.527 0 18.677 3.359 26.263 9.346h-55.26c-4.405 0-7.976 3.571-7.976 7.976v87.837c0 4.405 3.571 7.976 7.976 7.976h46.94v6.607h-148.824zm-57.373 106.91v-20.64h214.173 27.19 45.98v20.64zm392.658 185.332v-145.365c0-4.405-3.571-7.976-7.976-7.976s-7.976 3.571-7.976 7.976v145.365h-34.559v-126.985-107.404c0-4.405-3.571-7.976-7.976-7.976s-7.976 3.571-7.976 7.976v99.405c-12.708-.485-22.898-10.969-22.898-23.792v-79.847c0-22.862 18.613-41.463 41.491-41.463h79.819c22.878 0 41.491 18.6 41.491 41.463v79.847c0 12.824-10.19 23.308-22.898 23.792v-99.405c0-4.405-3.571-7.976-7.976-7.976s-7.976 3.571-7.976 7.976v107.404 126.985zm-152.565-399.97h35.081v17.745c0 3.191 1.902 6.076 4.835 7.332 1.012.433 2.08.644 3.139.644 2.011 0 3.991-.76 5.504-2.202l24.681-23.519h54.887c12.26 0 22.235-9.974 22.235-22.235v-49.636c.001-12.246-9.974-22.207-22.234-22.207h-128.128c-12.245 0-22.206 9.961-22.206 22.207v49.636c-.001 12.261 9.961 22.235 22.206 22.235zm-6.254-71.871c0-3.39 2.864-6.254 6.254-6.254h128.128c3.464 0 6.282 2.806 6.282 6.254v49.636c0 3.464-2.818 6.283-6.282 6.283h-58.079c-2.049 0-4.019.789-5.503 2.202l-13.513 12.877v-7.103c0-4.405-3.571-7.976-7.976-7.976h-43.057c-3.448 0-6.254-2.819-6.254-6.283z"/></svg>