<svg id="Layer_1" viewBox="0 0 512 512" xmlns="http://www.w3.org/2000/svg" data-name="Layer 1"><path d="m486.322 227.156h-121.673l-.002 34.51c-.114 11.847-9.953 21.618-21.894 21.618h-34.307v203.034c0 2.026 1.619 3.682 3.675 3.682h174.201c2.059 0 3.677-1.655 3.677-3.682v-255.494c0-2.051-1.654-3.668-3.677-3.668zm-354.49 152.293c2.343-2.342 6.142-2.342 8.484 0s2.343 6.142 0 8.484l-31.065 31.066c-2.343 2.343-6.142 2.343-8.484 0l-15.533-15.533c-2.343-2.343-2.343-6.142 0-8.484s6.142-2.343 8.484 0l11.291 11.291 26.823-26.823zm-32.701-49.007c-9.242 1.82-17.93 5.456-25.643 10.682-2.412 1.634-5.591 1.268-7.576-.721l-.017.017-11.347-11.347-11.922 11.922 11.347 11.347c2.198 2.198 2.334 5.677.408 8.034-2.498 3.747-4.647 7.762-6.402 11.997-1.779 4.292-3.146 8.825-4.052 13.545-.549 2.871-3.063 4.868-5.883 4.865v.01h-16.044v16.858h16.044c3.048 0 5.565 2.273 5.949 5.216 1.392 8.504 5.885 18.563 10.682 25.643 1.635 2.412 1.269 5.591-.721 7.576l.017.017-11.347 11.347 11.922 11.922 11.347-11.347c2.198-2.198 5.677-2.334 8.033-.408 3.748 2.498 7.764 4.648 12 6.403 4.292 1.778 8.823 3.145 13.543 4.051 2.871.549 4.868 3.063 4.865 5.883h.01v16.044h16.858v-16.044c0-3.048 2.272-5.565 5.216-5.949 8.505-1.392 18.563-5.884 25.642-10.683 2.412-1.635 5.591-1.268 7.576.721l.017-.017 11.347 11.347 11.922-11.922-11.347-11.347c-2.198-2.198-2.333-5.677-.408-8.033 2.498-3.748 4.648-7.764 6.403-12.001 1.778-4.292 3.145-8.823 4.051-13.542.549-2.871 3.063-4.868 5.883-4.865v-.01h16.044v-16.858h-16.044c-3.048 0-5.565-2.273-5.949-5.216-1.391-8.505-5.885-18.563-10.683-25.643-1.634-2.412-1.269-5.591.721-7.576l-.017-.017 11.347-11.347-11.922-11.922-11.347 11.347c-2.198 2.198-5.677 2.333-8.033.408-3.748-2.498-7.764-4.648-12.001-6.403-4.292-1.778-8.823-3.145-13.542-4.051-2.871-.549-4.868-3.063-4.865-5.883h-.01v-16.044h-16.858v16.044c0 3.048-2.273 5.565-5.216 5.949zm-17.752-7.077c3.548-1.47 7.211-2.697 10.967-3.662v-12.285c0-6.002 4.934-10.97 10.972-10.97h3.481v-53.158s-14.42 14.42-14.42 14.42c-2.343 2.342-6.142 2.342-8.484 0s-2.343-6.142 0-8.484l24.638-24.638c2.343-2.343 6.142-2.343 8.484 0l24.639 24.638c2.342 2.343 2.342 6.141 0 8.484-2.343 2.342-6.142 2.342-8.484 0l-14.42-14.42v53.158c4.311 0 7.692-.303 11.213 3.216 2 1.999 3.24 4.745 3.24 7.754v12.285c7.509 1.928 14.698 4.917 21.345 8.857l8.697-8.697.012.012c4.337-4.325 11.26-4.253 15.502-.011l13.375 13.375c4.249 4.249 4.25 11.265.001 15.514l-8.697 8.696c3.942 6.649 6.927 13.833 8.856 21.345h12.284c6.001 0 10.97 4.933 10.97 10.972v3.457h80.896v-115.94c0-1.821.812-3.453 2.093-4.553l55.56-55.487c1.228-1.334 2.704-2.088 4.549-2.088h127.673c8.618 0 15.678 7.085 15.678 15.668v255.494c0 8.623-7.088 15.682-15.678 15.682h-174.201c-8.587 0-15.675-7.061-15.675-15.682v-81.093h-80.896c0 4.301.297 7.674-3.217 11.189-1.999 2-4.744 3.24-7.754 3.24h-12.284c-1.928 7.509-4.917 14.698-8.857 21.345l8.697 8.697-.012.012c4.325 4.337 4.253 11.26.011 15.502l-13.375 13.375c-4.249 4.249-11.264 4.251-15.514.001l-8.696-8.697c-6.649 3.942-13.833 6.927-21.345 8.856v12.285c0 6.001-4.933 10.97-10.972 10.97h-18.915c-6.037 0-10.972-4.968-10.972-10.97v-12.285c-7.509-1.928-14.698-4.917-21.345-8.857l-8.697 8.697-.012-.012c-4.337 4.325-11.26 4.253-15.502.011l-13.375-13.375c-4.249-4.249-4.251-11.265-.001-15.514l8.697-8.697c-3.941-6.647-6.928-13.835-8.856-21.345h-12.284c-6.002 0-10.97-4.933-10.97-10.972v-18.915c0-6.037 4.968-10.972 10.97-10.972h12.284c1.928-7.51 4.916-14.697 8.857-21.345l-8.697-8.697.012-.012c-4.325-4.337-4.253-11.26-.011-15.502l13.375-13.375c4.249-4.249 11.265-4.251 15.514-.001l8.697 8.697c3.322-1.969 6.789-3.708 10.378-5.195zm168.62-293.145c6.6 0 12.001 5.404 12.001 12v54.66h105.225c20.911 0 38 17.089 38 38v48.774l14.396-14.396c2.342-2.342 6.141-2.342 8.484 0 2.343 2.343 2.343 6.142 0 8.484-3.062 3.062-24.278 24.584-25.704 25.487-2.375 1.505-5.481 1.113-7.471-.902l-24.586-24.586c-2.343-2.343-2.343-6.141 0-8.484 2.343-2.342 6.142-2.342 8.484 0l14.396 14.396v-48.774c0-14.288-11.712-26-26-26h-105.225v90.932c0 6.565-5.401 12-12.001 12h-227.998c-6.611 0-12-5.388-12-12v-177.811c0-6.584 5.417-12 12-12h71.286c1.796 0 3.407.789 4.506 2.039l18.574 18.181zm.001 12.001-136.057-.018c-1.515 0-3.03-.571-4.195-1.717l-18.885-18.486h-68.863v38.536h228zm-.001 157.591v-127.276s-227.999 0-227.999 0c0 18.668-.003 127.279.004 127.272l-.003.004zm92.755 105.926c-3.314 0-6-2.686-6-6s2.686-6 6-6h112.94c3.314 0 6 2.686 6 6s-2.686 6-6 6zm0 117.679c-3.314 0-6-2.686-6-6s2.686-6 6-6h112.94c3.314 0 6 2.686 6 6s-2.686 6-6 6zm0-39.226c-3.314 0-6-2.686-6-6s2.686-6 6-6h112.94c3.314 0 6 2.686 6 6s-2.686 6-6 6zm0-39.226c-3.314 0-6-2.686-6-6s2.686-6 6-6h112.94c3.314 0 6 2.686 6 6s-2.686 6-6 6zm9.895-109.361v25.781c-.019 5.442-4.396 9.899-9.895 9.899h-25.833l35.728-35.681z" fill-rule="evenodd"/></svg>