<svg id="Layer_1" enable-background="new 0 0 491.5 491.5" height="512" viewBox="0 0 491.5 491.5" width="512" xmlns="http://www.w3.org/2000/svg"><g id="Layer_x0020_1"><g id="_262998024" clip-rule="evenodd" fill-rule="evenodd"><path id="_262998840" d="m38.3 430.1h415v-368.7h-415zm419.7 9.4h-424.5c-2.6 0-4.7-2.1-4.7-4.7v-378.1c0-2.6 2.1-4.7 4.7-4.7h424.5c2.6 0 4.7 2.1 4.7 4.7v378.1c0 2.6-2.1 4.7-4.7 4.7z"/><path id="_262998624" d="m458 132.8h-424.5c-2.6 0-4.7-2.1-4.7-4.7s2.1-4.7 4.7-4.7h424.4c2.6 0 4.7 2.1 4.7 4.7.1 2.6-2 4.7-4.6 4.7z"/><path id="_262998816" d="m80.7 80.5c-6.6 0-11.9 5.3-11.9 11.9s5.3 11.9 11.9 11.9 11.9-5.3 11.9-11.9-5.3-11.9-11.9-11.9zm0 33.3c-11.8 0-21.4-9.6-21.4-21.4s9.6-21.4 21.4-21.4 21.4 9.6 21.4 21.4-9.6 21.4-21.4 21.4z"/><path id="_262999128" d="m144.9 80.5c-6.6 0-11.9 5.3-11.9 11.9s5.3 11.9 11.9 11.9 11.9-5.3 11.9-11.9-5.3-11.9-11.9-11.9zm0 33.3c-11.8 0-21.4-9.6-21.4-21.4s9.6-21.4 21.4-21.4 21.4 9.6 21.4 21.4-9.6 21.4-21.4 21.4z"/><path id="_262999008" d="m209.1 80.5c-6.6 0-11.9 5.3-11.9 11.9s5.3 11.9 11.9 11.9 11.9-5.3 11.9-11.9-5.3-11.9-11.9-11.9zm0 33.3c-11.8 0-21.4-9.6-21.4-21.4s9.6-21.4 21.4-21.4 21.4 9.6 21.4 21.4-9.6 21.4-21.4 21.4z"/><path id="_262998552" d="m293 315.6c-.1 0-.1.1 0 0l-.1 86.9 123.5.1.1-86.9zm123.4 96.4h-123.4c-5.3 0-9.5-4.3-9.5-9.5v-86.8c0-5.3 4.3-9.5 9.5-9.5h123.4c5.3 0 9.5 4.3 9.5 9.5v86.8c0 5.2-4.3 9.5-9.5 9.5z"/><path id="_262998912" d="m296.6 412c-.8 0-1.6-.2-2.3-.6-2.3-1.3-3.1-4.2-1.8-6.4l33.6-60c.8-1.5 2.4-2.4 4.1-2.4s3.3.9 4.1 2.4l18.3 32.6c1.3 2.3.5 5.2-1.8 6.4-2.3 1.3-5.2.5-6.4-1.8l-14.2-25.2-29.5 52.6c-.8 1.5-2.5 2.4-4.1 2.4z"/><path id="_262998936" d="m333.2 412c-.8 0-1.6-.2-2.3-.6-2.3-1.3-3.1-4.2-1.8-6.4l42.2-75.4c.8-1.5 2.4-2.4 4.1-2.4s3.3.9 4.1 2.4l42.2 75.4c1.3 2.3.5 5.2-1.8 6.4-2.3 1.3-5.2.5-6.4-1.8l-38.1-68-38.1 68c-.9 1.5-2.5 2.4-4.1 2.4z"/><path id="_262998720" d="m76.1 315.6s0 .1 0 0l-.1 86.9 123.5.1.1-86.9s-123.5-.1-123.5-.1zm123.4 96.4h-123.4c-5.3 0-9.5-4.3-9.5-9.5v-86.8c0-5.3 4.3-9.5 9.5-9.5h123.4c5.3 0 9.5 4.3 9.5 9.5v86.8c.1 5.2-4.2 9.5-9.5 9.5z"/><path id="_262999176" d="m116 336.6v45l39-22.5zm-4.8 57.9c-.8 0-1.6-.2-2.4-.6-1.5-.8-2.4-2.4-2.4-4.1v-61.4c0-1.7.9-3.3 2.4-4.1s3.3-.8 4.7 0l53.2 30.7c1.5.8 2.4 2.4 2.4 4.1s-.9 3.3-2.4 4.1l-53.2 30.7c-.6.4-1.4.6-2.3.6z"/><path id="_262998312" d="m334.3 253.1c.7 0 1.5.2 2.2.5 1.9 1 4 1.8 6 2.5 2 .6 3.3 2.4 3.3 4.5v12.8c0 1.4 1.2 2.5 2.5 2.5h12.7c1.4 0 2.5-1.2 2.5-2.5v-12.8c0-2.1 1.3-3.9 3.3-4.5 2.1-.7 4.1-1.5 6-2.5 1.8-.9 4.1-.6 5.5.9l9.1 9.1c1 1 2.6 1 3.6 0l9-9c.6-.6.7-1.4.7-1.8s-.1-1.2-.7-1.8l-9.1-9.1c-1.5-1.5-1.8-3.7-.9-5.5 1-1.9 1.8-4 2.5-6 .6-2 2.5-3.3 4.5-3.3h12.8c1.4 0 2.5-1.2 2.5-2.5v-12.7c0-1.4-1.2-2.5-2.5-2.5h-12.8c-2.1 0-3.9-1.3-4.5-3.3-.7-2.1-1.5-4.1-2.5-6-.9-1.8-.6-4.1.9-5.5l9.1-9.1c1-1 1-2.6 0-3.6l-9-9c-.6-.6-1.4-.7-1.8-.7s-1.2.1-1.8.7l-9.1 9.1c-1.5 1.5-3.7 1.8-5.5.9-1.9-1-4-1.8-6-2.5-2-.6-3.3-2.4-3.3-4.5v-12.8c0-1.4-1.2-2.5-2.5-2.5h-12.7c-1.4 0-2.5 1.2-2.5 2.5v12.8c0 2.1-1.3 3.9-3.3 4.5-2.1.7-4.1 1.5-6 2.5-1.8.9-4.1.6-5.5-.9l-9.1-9.1c-1-1-2.6-1-3.6 0l-9 9c-1 1-1 2.6 0 3.6l9.1 9.1c1.5 1.5 1.8 3.7.9 5.5-1 1.9-1.8 4-2.5 6-.6 2-2.4 3.3-4.5 3.3h-12.8c-1.4 0-2.5 1.2-2.5 2.5v12.7c0 1.4 1.2 2.5 2.5 2.5h12.8c2.1 0 3.9 1.3 4.5 3.3.7 2.1 1.5 4.1 2.5 6 .9 1.8.6 4.1-.9 5.5l-9.1 9.1c-1 1-1 2.6 0 3.6l9 9c1 1 2.6 1 3.6 0l9.1-9.1c.8-.9 2.1-1.4 3.3-1.4zm26.7 32.4h-12.7c-6.6 0-12-5.4-12-12v-9.5c-.3-.1-.7-.3-1-.4l-6.7 6.7c-4.7 4.7-12.3 4.7-17 0l-9-9c-4.7-4.7-4.7-12.3 0-17l6.7-6.7c-.1-.3-.3-.7-.4-1h-9.5c-6.6 0-12-5.4-12-12v-12.7c0-6.6 5.4-12 12-12h9.5c.1-.3.3-.7.4-1l-6.7-6.7c-4.7-4.7-4.7-12.3 0-17l9-9c2.3-2.3 5.3-3.5 8.5-3.5s6.2 1.3 8.5 3.5l6.7 6.7c.3-.1.7-.3 1-.4v-9.5c0-6.6 5.4-12 12-12h12.7c6.6 0 12 5.4 12 12v9.5c.3.1.7.3 1 .4l6.7-6.7c2.3-2.3 5.3-3.5 8.5-3.5s6.2 1.3 8.5 3.5l9 9c4.7 4.7 4.7 12.3 0 17l-6.7 6.7c.2.3.3.7.4 1h9.5c6.6 0 12 5.4 12 12v12.7c0 6.6-5.4 12-12 12h-9.5c-.1.3-.3.7-.4 1l6.7 6.7c2.3 2.3 3.5 5.3 3.5 8.5s-1.2 6.2-3.5 8.5l-9 9c-4.7 4.7-12.3 4.7-17 0l-6.7-6.7c-.3.1-.7.3-1 .4v9.5c.1 6.6-5.3 12-12 12z"/><path id="_262998168" d="m354.7 197.9c-11.2 0-20.3 9.1-20.3 20.3s9.1 20.3 20.3 20.3 20.3-9.1 20.3-20.3-9.1-20.3-20.3-20.3zm0 50.1c-16.4 0-29.8-13.4-29.8-29.8s13.4-29.8 29.8-29.8 29.8 13.4 29.8 29.8-13.4 29.8-29.8 29.8z"/><path id="_262998456" d="m205.3 176h-135c-2.6 0-4.7-2.1-4.7-4.7s2.1-4.7 4.7-4.7h135c2.6 0 4.7 2.1 4.7 4.7s-2 4.7-4.7 4.7z"/><path id="_262998096" d="m193.1 207.3h-122.8c-2.6 0-4.7-2.1-4.7-4.7s2.1-4.7 4.7-4.7h122.8c2.6 0 4.7 2.1 4.7 4.7s-2.1 4.7-4.7 4.7z"/><path id="_262998432" d="m171.7 238.6h-101.4c-2.6 0-4.7-2.1-4.7-4.7s2.1-4.7 4.7-4.7h101.4c2.6 0 4.7 2.1 4.7 4.7.1 2.6-2.1 4.7-4.7 4.7z"/><path id="_262997832" d="m205.3 269.9h-135c-2.6 0-4.7-2.1-4.7-4.7s2.1-4.7 4.7-4.7h135c2.6 0 4.7 2.1 4.7 4.7.1 2.5-2 4.7-4.7 4.7z"/></g></g></svg>