<?xml version="1.0" encoding="UTF-8"?>
<svg id="Layer_1" xmlns="http://www.w3.org/2000/svg" version="1.1" viewBox="0 0 1000 1000">
  <!-- Generator: Adobe Illustrator 29.8.2, SVG Export Plug-In . SVG Version: 2.1.1 Build 3)  -->
  <defs>
    <style>
      .st0 {
        display: none;
      }
    </style>
  </defs>
  <path id="_x30_1" class="st0" d="M117.01,878.52v-144.19h61.8v-469.65h-61.8V120.48h144.19v61.8h469.65v-61.8h144.19v144.19h-61.8v469.65h61.8v144.19h-144.19v-61.8h-469.65v61.8H117.01ZM261.2,794.06h469.65v-59.74h59.74v-469.65h-59.74v-59.74h-469.65v59.74h-59.74v469.65h59.74v59.74ZM341.54,668.41l149.34-380.04h9.27l153.46,380.04h-29.87l-48.72-116.38h-156.96l-48.72,116.38h-27.81ZM425.99,527.31h140.07l-69.01-174.06h-5.15l-65.92,174.06ZM139.67,242.02h98.87v-98.87h-98.87v98.87ZM753.51,242.02h98.87v-98.87h-98.87v98.87ZM753.51,855.86h98.87v-98.87h-98.87v98.87ZM139.67,855.86h98.87v-98.87h-98.87v98.87Z"/>
  <path id="_x30_2" class="st0" d="M120.98,542.71v-27.16h150.62v27.16H120.98ZM259.26,827.9l-18.52-18.52,104.94-104.94,17.28,18.52-103.7,104.94ZM345.68,352.59l-104.94-104.94,18.52-18.52,103.7,104.94-17.28,18.52ZM837.04,871.11l-213.58-213.58-40.74,125.93-90.12-301.24,303.71,92.59-127.16,45.68,209.88,209.88-41.98,40.74ZM522.22,278.51V127.89h27.16v150.62h-27.16ZM727.16,352.59l-18.52-18.52,104.94-104.94,18.52,19.75-104.94,103.7Z"/>
  <path id="_x30_3" class="st0" d="M311.34,684.47l-94.85-384.83L496.02,45l278.25,254.64-93.81,384.83h-369.12ZM333.12,656.39h325.64l85.52-346.54-233.58-213.8v227.84c9.79,3.2,18.29,9.14,25.53,17.82,7.23,8.69,10.85,19.14,10.85,31.35,0,13.81-5.11,25.77-15.33,35.88-10.22,10.1-22.09,15.15-35.61,15.15-14.54,0-26.92-5.06-37.13-15.19-10.21-10.13-15.32-22.11-15.32-35.96,0-12.16,3.62-22.63,10.85-31.41,7.23-8.78,16.59-14.66,28.08-17.64V96.05l-233.58,213.8,84.08,346.54ZM153.95,933.36l23.61-59.99c5.34-12.64,12.9-22.93,22.67-30.86,9.77-7.93,21.84-11.9,36.22-11.9h519.44c14.38,0,26.46,3.94,36.25,11.81,9.79,7.87,17.66,18.19,23.61,30.95l22.34,59.99H153.95Z"/>
  <path id="_x30_4" class="st0" d="M500.19,933.36c-20.55,0-37.44-6.27-50.67-18.8s-18.68-28.08-16.36-46.65h-47.34c-6.72,0-13.51-3.43-20.36-10.28-6.85-6.85-10.28-13.62-10.28-20.32v-158.78c-61.27-32.03-107.68-75.09-139.24-129.19-31.56-54.1-47.34-111.49-47.34-172.16,0-93.37,31.91-172.08,95.74-236.13s142.27-96.08,235.32-96.08,171.6,32.03,235.65,96.08c64.05,64.05,96.08,142.66,96.08,235.82,0,60-15.7,117.3-47.09,171.89-31.39,54.6-77.88,97.85-139.49,129.76v158.78c0,6.69-3.43,13.46-10.28,20.32-6.85,6.85-13.64,10.28-20.36,10.28h-47.34c2.32,18.57-3.07,34.11-16.17,46.65-13.1,12.53-29.92,18.8-50.48,18.8ZM385.82,837.29h228.36v-58.48h-228.36v58.48ZM385.82,739.82h228.36v-57.09h-228.36v57.09ZM372.96,652.09h110.34v-193.55l-115.57-115.57,23.67-23.67,108.61,110,108.61-110,23.67,23.67-115.57,115.57v193.55h110.34c51.71-24.31,93.58-61,125.64-110.07,32.05-49.07,48.08-104.31,48.08-165.73,0-83.24-29.22-154.16-87.65-212.76-58.43-58.6-129.38-87.9-212.86-87.9s-154.51,29.25-213.11,87.74c-58.6,58.49-87.9,129.52-87.9,213.1,0,61.22,16.03,116.38,48.08,165.49,32.05,49.11,73.93,85.82,125.64,110.14Z"/>
  <path id="_x30_5" class="st0" d="M321.31,486.63h357.39v-28.08h-357.39v28.08ZM321.31,623.84h357.39v-28.08h-357.39v28.08ZM321.31,762.33h204.22v-28.08h-204.22v28.08ZM226.6,933.36c-18.75,0-34.89-6.76-48.4-20.27-13.51-13.51-20.27-29.64-20.27-48.38V113.64c0-18.74,6.76-34.86,20.27-48.38,13.51-13.51,29.73-20.27,48.66-20.27h416.1l199.12,198.48v620.96c0,18.92-6.76,35.14-20.27,48.66-13.51,13.51-29.65,20.27-48.4,20.27H226.6ZM628.92,256.88V73.08H226.85c-10.21,0-19.57,4.25-28.08,12.76-8.51,8.51-12.76,17.87-12.76,28.08v750.52c0,10.21,4.25,19.57,12.76,28.08,8.51,8.51,17.87,12.76,28.08,12.76h546.29c10.21,0,19.57-4.25,28.08-12.76,8.51-8.51,12.76-17.87,12.76-28.08V256.88h-185.08ZM186.01,73.08v183.8V73.08v832.21V73.08Z"/>
  <path id="_x30_6" class="st0" d="M263.54,696.27c-14.83,0-27.33-5.13-37.5-15.4-10.17-10.26-15.25-22.71-15.25-37.34V241.06c0-14.48,5.08-26.9,15.25-37.24,10.17-10.34,22.67-15.51,37.5-15.51h558.75c14.14,0,26.47,5.17,36.98,15.51,10.51,10.34,15.77,22.75,15.77,37.24v402.46c0,14.63-5.26,27.08-15.77,37.34-10.52,10.27-22.85,15.4-36.98,15.4H263.54ZM542.43,480.88L232.28,234.22v409.3c0,9.12,2.93,16.61,8.79,22.47,5.86,5.86,13.35,8.79,22.47,8.79h558.75c8.79,0,16.2-2.93,22.22-8.79,6.02-5.86,9.04-13.35,9.04-22.47V234.22l-311.12,246.65ZM542.43,454.01l300.38-238.35c-2.93-1.95-5.29-3.42-7.08-4.4s-4.64-1.47-8.55-1.47H259.63c-3.26,0-6.51.81-9.77,2.44s-5.86,3.42-7.81,5.37l300.38,236.4ZM169.76,790.05c-14.83,0-27.34-5.13-37.5-15.4-10.17-10.26-15.25-22.71-15.25-37.34v-353.62h21.49v353.62c0,9.12,2.93,16.61,8.79,22.47,5.86,5.86,13.35,8.79,22.47,8.79h574.38v21.49H169.76ZM853.55,234.71c0-1.75-1.14-5.31-3.42-10.71-2.28-5.39-4.4-8.17-6.35-8.34-2.28-1.95-4.64-3.42-7.08-4.4s-5.62-1.47-9.52-1.47H259.63c-3.26,0-6.84.81-10.75,2.44s-6.84,3.42-8.79,5.37c-2.28.17-4.15,2.77-5.62,7.81s-2.2,8.13-2.2,9.28v-24.91h621.27v24.91Z"/>
  <g id="_x30_7" class="st0">
    <g>
      <path d="M486.85,906.64c-23.09,0-41.81-18.72-41.81-41.81s18.72-41.81,41.81-41.81,41.81,18.72,41.81,41.81-18.72,41.81-41.81,41.81ZM486.85,841.2c-13.09,0-23.63,10.54-23.63,23.63s10.54,23.63,23.63,23.63,23.63-10.54,23.63-23.63-10.54-23.63-23.63-23.63Z"/>
      <circle cx="745.7" cy="115.35" r="16.36"/>
      <path d="M762.79,933.36H229.26c-44.17,0-79.98-35.81-79.98-79.98V124.98c0-44.17,35.81-79.98,79.98-79.98h533.53c44.17,0,79.98,35.81,79.98,79.98v728.22c0,44.17-35.99,80.17-79.98,80.17h0ZM229.26,63.18c-34.17,0-61.81,27.81-61.81,61.81v728.22c0,34.17,27.81,61.81,61.81,61.81h533.53c33.99,0,61.81-27.81,61.81-61.81V124.98c0-34.17-27.81-61.81-61.81-61.81H229.26Z"/>
      <path d="M158.37,790.3h675.32v18.18H158.37v-18.18Z"/>
      <path d="M235.99,89.9h65.44v18.18h-65.44v-18.18Z"/>
      <path d="M235.99,124.44h65.44v18.18h-65.44v-18.18Z"/>
      <path d="M158.37,168.61h675.32v18.18H158.37v-18.18Z"/>
    </g>
    <g>
      <path d="M358.14,624.88c-4.36,0-8.54-1.64-11.63-4.91-4.54-4.54-6-11.09-4-17.09l27.81-81.44,194.32-194.32c14.91-14.91,39.08-14.91,53.99,0l20.54,20.54c14.91,14.91,14.91,39.08,0,53.99l-194.32,194.51-81.44,27.81c-1.64.73-3.45.91-5.27.91ZM386.14,531.45l-25.45,74.35,74.35-25.45,191.23-191.23c7.82-7.82,7.82-20.54,0-28.36l-20.54-20.54c-7.82-7.82-20.54-7.82-28.36,0l-6.36-6.36,6.36,6.36-191.23,191.23Z"/>
      <path d="M371.71,533.04l12.85-12.85,61.69,61.69-12.85,12.85-61.69-61.69Z"/>
    </g>
  </g>
  <g class="st0">
    <g>
      <path d="M857.86,609.25c-.21-.21-.43-.38-.66-.55-3.64-2.74-8.11-4.43-13.01-4.43h-174.46v-307.97c0-.11.06-.2.06-.31,0-1.21-.37-2.38-1.04-3.37l-91.65-135.11s-.11-.06-.15-.12c-.61-.87-1.43-1.5-2.36-1.93-.18-.09-.39-.09-.59-.15-.64-.22-1.26-.49-1.94-.49H234.21c-14.6,0-26.47,11.87-26.47,26.47v162.23h-69.49c-11.71.01-21.24,9.54-21.24,21.26v224.36c0,11.71,9.52,21.25,21.24,21.25h69.49v162.1c0,14.6,11.87,26.47,26.47,26.47h220.83v54.36c0,11.99,9.76,21.75,21.75,21.75h367.4c11.99,0,21.75-9.76,21.75-21.75v-227.29c.01-6.8-3.19-12.8-8.08-16.79ZM835.57,616.31l-175.02,91.71-175.02-91.71h350.04ZM574.55,175.23l76.83,113.26-86.54-11.09c-4.25-.54-8.08-2.9-10.47-6.47-2.4-3.56-3.14-7.98-2.03-12.13l22.2-83.58ZM129.04,589.14v-224.35c0-5.09,4.13-9.21,9.21-9.21h154.71c5.07,0,9.21,4.13,9.21,9.21v224.36c0,5.09-4.13,9.21-9.21,9.21h-154.71c-5.07,0-9.21-4.13-9.21-9.22ZM234.21,786.93c-7.97,0-14.44-6.47-14.44-14.44v-162.1h78.81c8.62,0,15.61-6.99,15.61-15.61v-235.63c0-8.62-6.99-15.61-15.61-15.61h-78.81v-162.23c0-7.97,6.47-14.44,14.44-14.44h330.11l-23.61,88.85c-1.99,7.49-.65,15.49,3.68,21.93s11.24,10.7,18.93,11.69l94.39,12.09v302.85h-180.91c-4.96,0-9.5,1.74-13.17,4.55-.09.06-.16.13-.24.21-5.04,3.99-8.34,10.09-8.34,16.99v160.9h-220.83ZM853.91,853.32c0,5.37-4.36,9.72-9.72,9.72h-367.4c-5.37,0-9.72-4.36-9.72-9.72v-227.15c0-1.91.68-3.58,1.63-5.1l189.06,99.06c.88.45,1.83.68,2.79.68s1.92-.23,2.79-.68l189.03-99.05c.89,1.47,1.55,3.09,1.55,4.94v227.3Z"/>
      <path d="M263.22,425.13c0-19.24-15.66-34.89-34.91-34.89s-34.89,15.66-34.89,34.89,15.66,34.91,34.89,34.91c19.26-.01,34.91-15.66,34.91-34.91ZM205.45,425.13c0-12.61,10.26-22.86,22.86-22.86s22.88,10.26,22.88,22.86-10.26,22.88-22.88,22.88c-12.61-.01-22.86-10.27-22.86-22.88Z"/>
      <path d="M165.44,419.11c-3.33,0-6.02,2.69-6.02,6.02v137.63c0,3.33,2.69,6.02,6.02,6.02s6.02-2.69,6.02-6.02v-137.63c0-3.33-2.69-6.02-6.02-6.02Z"/>
      <path d="M556.37,376.81c0-3.33-2.69-6.02-6.02-6.02h-197.53c-3.33,0-6.02,2.69-6.02,6.02s2.69,6.02,6.02,6.02h197.53c3.33,0,6.02-2.69,6.02-6.02Z"/>
      <path d="M557.01,497.98c0-3.33-2.69-6.02-6.02-6.02h-131.69c-3.33,0-6.02,2.69-6.02,6.02s2.69,6.02,6.02,6.02h131.69c3.33,0,6.02-2.69,6.02-6.02Z"/>
      <path d="M821.1,803.32h-99.4c-3.33,0-6.02,2.69-6.02,6.02s2.69,6.02,6.02,6.02h99.4c3.33,0,6.02-2.69,6.02-6.02s-2.69-6.02-6.02-6.02Z"/>
      <path d="M869.02,200.66h-10.48v-47.52c0-15.55-12.67-28.22-28.22-28.22h-15.92c-15.55,0-28.22,12.67-28.22,28.22v47.52h-10.4c-3.33,0-6.02,2.69-6.02,6.02v289.05c0,1.16.33,2.29.95,3.25l46.62,72.43c1.1,1.72,3.02,2.76,5.06,2.76s3.95-1.04,5.06-2.76l46.62-72.43c.62-.97.95-2.1.95-3.25V206.68c0-3.33-2.69-6.02-6.02-6.02ZM798.22,153.14c0-8.93,7.26-16.19,16.19-16.19h15.92c8.93,0,16.19,7.26,16.19,16.19v47.5h-48.29v-47.5ZM863.01,493.96l-40.6,63.08-40.59-63.08V212.69h81.19v281.27Z"/>
    </g>
  </g>
  <g class="st0">
    <path d="M644.28,461.1h122.59c3.69,0,6.68-2.99,6.68-6.68v-145c0-3.69-2.99-6.68-6.68-6.68h-122.59c-3.69,0-6.68,2.99-6.68,6.68v145c0,3.69,2.99,6.68,6.68,6.68h0ZM650.96,316.12h109.23v131.6h-109.23v-131.6Z"/>
    <path d="M181.22,329.32h122.61c3.7-.18,6.54-3.33,6.36-7.02-.17-3.44-2.92-6.19-6.36-6.36h-122.61c-3.7.18-6.54,3.33-6.36,7.02.17,3.44,2.92,6.19,6.36,6.36Z"/>
    <path d="M181.22,381.19h122.61c3.7-.18,6.54-3.33,6.36-7.02-.17-3.44-2.92-6.19-6.36-6.36h-122.61c-3.7.18-6.54,3.33-6.36,7.02.17,3.44,2.92,6.19,6.36,6.36Z"/>
    <path d="M341.55,478.08h258.41c3.7-.18,6.54-3.33,6.36-7.02-.17-3.44-2.92-6.19-6.36-6.36h-258.41c-3.7.18-6.54,3.33-6.36,7.02.17,3.44,2.92,6.19,6.36,6.36h0Z"/>
    <path d="M341.55,548.11h258.41c3.69,0,6.68-2.99,6.68-6.68s-2.99-6.68-6.68-6.68h-258.41c-3.69,0-6.68,2.99-6.68,6.68s2.99,6.68,6.68,6.68h0Z"/>
    <path d="M341.55,618.15h210.93c3.7-.18,6.54-3.33,6.36-7.02-.17-3.44-2.92-6.19-6.36-6.36h-210.93c-3.7.18-6.54,3.33-6.36,7.02.17,3.44,2.92,6.19,6.36,6.36Z"/>
    <path d="M867.45,332.13h-42.96v-61.38c0-3.69-3.01-6.68-6.7-6.68H123.69c-3.69,0-6.68,2.99-6.68,6.68h0v436.66c0,3.69,2.99,6.68,6.68,6.68h36.26v45.04c0,3.69,2.98,6.69,6.67,6.7h700.79c3.69,0,6.68-2.99,6.68-6.68v-420.33c0-3.67-2.96-6.66-6.63-6.68h0ZM130.38,277.45h680.74v423.26H130.38v-423.26ZM860.77,752.45H173.33v-38.36h644.47c3.69,0,6.69-2.99,6.7-6.68v-361.9h36.27v406.93Z"/>
  </g>
  <g id="Flyer" class="st0">
    <path d="M824,185.37c-17.97,0-40.63,10.64-40.67,28.82l-1.99,563.94c-.06,15.55,15.63,26.47,29.82,20.59,11.61-4.84,24.66-2.82,36.72,5.65.53.37,1.08.93,1.46,1.46,19.64,27.97.83,57.42-25.34,57.42h-399.62c-2.51,0-4.56-2.04-4.56-4.56V240.1c0-2.52,2.05-4.56,4.56-4.56h332.96c4.81,0,8.72-3.9,8.72-8.72s-3.9-8.72-8.72-8.72h-297.41l113.12-53.97v29.95c0,4.81,3.9,8.72,8.72,8.72s8.72-3.9,8.72-8.72c-.1-25.23.21-46.66-.27-49.7,1.57-13.86-8.85-25.08-22.25-25.08l-428.53,2.61c-12.28,0-22.45,9.95-22.43,22.45l.85,602.49c.02,12.36,10.08,22.41,22.43,22.41h233.83c4.81,0,8.72-3.9,8.72-8.72s-3.9-8.72-8.72-8.72h-233.83c-2.75,0-4.99-2.24-4.99-4.99l-.85-602.49c0-2.68,2.13-4.99,5.05-4.99l428.53-2.61c5.34,0,6.62,6.99,2.99,9.07-1.22.58-157.25,75.07-156.08,74.5-7.39,3.55-12.55,11.05-12.55,19.78v618.59c0,12.13,9.87,22,22,22h399.62c26.5,0,50.98-20.39,50.98-52.93-.03-84.6.31-586.52-.38-589.53.14-.62.38-1.21.38-1.88,0-28.11-22.87-50.98-50.98-50.98ZM804.47,782.62c-2.78,1.11-5.71-1.44-5.7-4.43,2.8-599.65.4-564.83,3.76-567.63,6.01-5.01,13.64-7.76,21.47-7.76,18.5,0,33.54,15.05,33.54,33.54,0,.67.24,1.25.38,1.88-.65,2.85-.27,288.71-.38,551.66-16.8-11.63-36.11-14.31-53.07-7.26Z"/>
    <path d="M755.46,328.16c0-17.63-14.34-31.97-31.97-31.97h-197.08c-17.62,0-31.97,14.34-31.97,31.97v186.36c0,17.63,14.34,31.97,31.97,31.97h197.08c17.63,0,31.97-14.34,31.97-31.97v-186.36ZM738.03,514.52c0,8.01-6.52,14.53-14.53,14.53h-197.08c-8.01,0-14.53-6.52-14.53-14.53v-186.36c0-8.01,6.52-14.53,14.53-14.53h197.08c8.01,0,14.53,6.52,14.53,14.53v186.36Z"/>
    <path d="M626.74,340.67c-41.19,0-74.7,33.51-74.7,74.69s33.51,74.69,74.7,74.69,74.7-33.51,74.7-74.69-33.51-74.69-74.7-74.69ZM626.74,472.62c-31.57,0-57.26-25.69-57.26-57.26s25.69-57.26,57.26-57.26,57.26,25.69,57.26,57.26-25.69,57.26-57.26,57.26Z"/>
    <path d="M740.69,616.3h-235.88c-4.81,0-8.72,3.9-8.72,8.72s3.9,8.72,8.72,8.72h235.88c4.81,0,8.72-3.9,8.72-8.72s-3.9-8.72-8.72-8.72Z"/>
    <path d="M749.41,687.34c0-4.81-3.9-8.72-8.72-8.72h-42.32c-4.81,0-8.72,3.9-8.72,8.72s3.9,8.72,8.72,8.72h42.32c4.81,0,8.72-3.9,8.72-8.72Z"/>
    <path d="M673.12,687.34c0-4.81-3.9-8.72-8.72-8.72h-159.59c-4.81,0-8.72,3.9-8.72,8.72s3.9,8.72,8.72,8.72h159.59c4.81,0,8.72-3.9,8.72-8.72Z"/>
    <path d="M539.87,758.36h165.76c4.81,0,8.72-3.9,8.72-8.72s-3.9-8.72-8.72-8.72h-165.76c-4.81,0-8.72,3.9-8.72,8.72s3.9,8.72,8.72,8.72Z"/>
    <path d="M388.44,284.44c-4.27-2.19-9.53-.49-11.73,3.8l-43.96,86.24-30.83-49.82c-3.18-5.14-10.53-5.59-14.3-.76l-43.16,55.55v-149.03c0-7.32,5.96-13.28,13.29-13.28h104.38c4.81,0,8.72-3.9,8.72-8.72s-3.9-8.72-8.72-8.72h-104.38c-16.94,0-30.72,13.78-30.72,30.72v197.64c0,16.94,13.78,30.72,30.72,30.72h121.73c4.81,0,8.72-3.9,8.72-8.72s-3.9-8.72-8.72-8.72h-5.98c-.78-3.3.78.72-30.01-49.52l48.76-95.67c2.19-4.29.48-9.55-3.81-11.73ZM257.75,441.36c-7.33,0-13.29-5.96-13.29-13.28v-20.55c2.04-2.04,32.62-41.72,49.23-63.01l59.94,96.84h-95.89Z"/>
    <path d="M346.09,517.61h-107.69c-4.81,0-8.72,3.9-8.72,8.72s3.9,8.72,8.72,8.72h107.69c4.81,0,8.72-3.9,8.72-8.72s-3.9-8.72-8.72-8.72Z"/>
    <path d="M346.09,576.66h-59.05c-4.81,0-8.72,3.9-8.72,8.72s3.9,8.72,8.72,8.72h59.05c4.81,0,8.72-3.9,8.72-8.72s-3.9-8.72-8.72-8.72Z"/>
    <path d="M238.41,594.09h17.2c4.81,0,8.72-3.9,8.72-8.72s-3.9-8.72-8.72-8.72h-17.2c-4.81,0-8.72,3.9-8.72,8.72s3.9,8.72,8.72,8.72Z"/>
    <path d="M346.09,635.71h-26.84c-4.81,0-8.72,3.9-8.72,8.72s3.9,8.72,8.72,8.72h26.84c4.81,0,8.72-3.9,8.72-8.72s-3.9-8.72-8.72-8.72Z"/>
    <path d="M238.41,653.15h44.04c4.81,0,8.72-3.9,8.72-8.72s-3.9-8.72-8.72-8.72h-44.04c-4.81,0-8.72,3.9-8.72,8.72s3.9,8.72,8.72,8.72Z"/>
  </g>
  <g class="st0">
    <path d="M507.23,305.31c-34.99-29.85-81.59-42.81-127.59-35.47-70.21,11.25-122.45,66.42-130.15,137.37-5.14,47.95,11.38,94.8,45.38,128.69,24.71,24.59,38.29,56.02,38.29,88.56v2.08c-11.25,2.94-19.57,13.09-19.57,25.2s9.05,23.24,21.04,25.57c-2.69,4.04-4.28,8.93-4.28,14.19,0,14.43,11.74,26.06,26.06,26.06h97.98c14.31,0,26.06-11.74,26.06-26.06,0-5.26-1.59-10.03-4.28-14.19,11.99-2.32,21.04-12.84,21.04-25.57s-8.32-22.26-19.57-25.2v-1.96c0-32.66,13.58-63.98,38.29-88.44,29.97-29.73,46.48-69.11,46.48-111.19,0-45.99-20.06-89.54-55.17-119.39v-.24ZM454.38,704.94h-97.98c-7.46,0-13.58-6.12-13.58-13.58s6.12-13.58,13.58-13.58h97.98c7.46,0,13.58,6.12,13.58,13.58s-6.12,13.58-13.58,13.58ZM484.84,651.61c0,7.46-6.12,13.58-13.58,13.58h-131.62c-7.46,0-13.58-6.12-13.58-13.58s6.12-13.58,13.58-13.58h131.62c7.46,0,13.58,6.12,13.58,13.58ZM374.5,459.56h-20.18c-11.13,0-20.18-9.05-20.18-20.18s9.05-20.18,20.18-20.18,20.18,9.05,20.18,20.18v20.18ZM386.98,472.04h36.82v153.52h-36.82v-153.52ZM507.23,527.21c-27.03,26.79-41.96,61.28-41.96,97.25v1.1h-28.99v-153.52h20.18c17.98,0,32.66-14.68,32.66-32.66s-14.68-32.66-32.66-32.66-32.66,14.68-32.66,32.66v20.18h-36.82v-20.18c0-17.98-14.68-32.66-32.66-32.66s-32.66,14.68-32.66,32.66,14.68,32.66,32.66,32.66h20.18v153.52h-28.99v-1.1c0-35.84-14.92-70.46-41.96-97.37-31.32-31.07-46.61-74.25-41.84-118.53,7.09-65.32,55.17-116.09,119.76-126.48,42.45-6.85,85.38,5.14,117.55,32.66,32.29,27.52,50.76,67.65,50.76,109.97,0,38.78-15.17,75.11-42.81,102.39l.24.12ZM436.28,459.68v-20.18c0-11.13,9.05-20.18,20.18-20.18s20.18,9.05,20.18,20.18-9.05,20.18-20.18,20.18h-20.18Z"/>
    <path d="M693.41,264.57c-.24-1.1-.73-2.08-1.47-2.81l-140.8-140.67c-.73-.73-1.83-1.22-2.81-1.47-.24,0-.49,0-.73-.12-.24,0-.49-.12-.86-.12H123.25c-3.43,0-6.24,2.81-6.24,6.24v716.34c0,3.43,2.81,6.24,6.24,6.24h564.29c3.43,0,6.24-2.81,6.24-6.24V266.04s-.12-.49-.12-.86c0-.24,0-.49-.12-.73l-.12.12ZM552.98,140.41l59.82,59.69,59.82,59.69h-119.51v-119.39h-.12ZM129.49,835.47V131.61h411.13v134.56c0,3.43,2.81,6.24,6.24,6.24h134.56v563.18H129.49v-.12Z"/>
    <path d="M873.35,473.38s-.12-.73-.24-1.1c-3.91-94.19-11.38-168.93-11.5-170.4-.37-3.18-2.94-5.63-6.24-5.63h-42.32c-3.18,0-5.87,2.45-6.24,5.63,0,.73-2.32,23.24-5.02,58.72h-36.09c-10.15,0-18.59,7.95-19.33,17.98-4.04,58.35-6.48,114.25-7.22,166.12,0,3.43,2.69,6.24,6.12,6.36,3.43,0,6.12-2.69,6.24-6.12.73-51.62,3.18-107.28,7.22-165.51.24-3.55,3.3-6.48,6.85-6.48h35.23c-1.96,28.01-4.16,62.39-5.63,99.82v.86c-3.55,84.89-4.16,185.32,6.12,261.78v.24c.61,3.3,15.54,82.81,27.03,108.5.98,2.2,3.18,3.67,5.63,3.67s4.65-1.47,5.63-3.67c11.62-25.81,26.42-105.2,27.03-108.5v-.24c10.15-76.33,9.66-176.52,6.12-261.41,0-.24.12-.49.12-.73l.49.12ZM849.74,308.73c1.71,18.59,7.34,81.59,10.64,158.41h-52.36c3.3-76.82,8.93-139.82,10.64-158.41h31.07ZM855.36,728.43h-42.32c-9.17-73.4-8.81-167.71-5.5-248.81h53.46c3.18,81.22,3.67,175.54-5.5,248.81h-.12ZM834.2,823.23c-7.71-25.69-15.9-65.93-19.08-82.32h38.17c-3.18,16.39-11.38,56.64-19.08,82.32Z"/>
  </g>
  <path d="M769.33,650.17c-1.73-47.54-24.5-89.28-65.84-120.72-31.63-24.06-73.13-41.6-120.98-51.33,37.55-26.99,62.06-71.03,62.06-120.7,0-81.91-66.64-148.55-148.55-148.55s-148.55,66.64-148.55,148.55c0,49.67,24.51,93.72,62.06,120.7-47.85,9.73-89.35,27.28-120.98,51.33-41.33,31.43-64.1,73.18-65.83,120.72,0,.1,0,.21,0,.31v124.05c0,4.73,3.84,8.57,8.57,8.57h120.01c25.34,54.27,80.44,91.97,144.19,91.97s118.84-37.7,144.19-91.97h121.11c4.73,0,8.57-3.84,8.57-8.57v-124.05c0-.1,0-.21,0-.31h0ZM364.62,357.42c0-72.46,58.95-131.4,131.4-131.4s131.4,58.95,131.4,131.4-58.95,131.4-131.4,131.4-131.4-58.95-131.4-131.4h0ZM495.47,857.93c-78.24,0-141.89-63.65-141.89-141.89s63.65-141.89,141.89-141.89,141.89,63.65,141.89,141.89-63.65,141.89-141.89,141.89h0ZM752.19,765.96h-105.71c5.2-15.71,8.03-32.48,8.03-49.91,0-87.69-71.34-159.04-159.04-159.04s-159.04,71.34-159.04,159.04c0,17.43,2.83,34.21,8.03,49.91h-104.61v-115.32c3.62-96.25,101.19-145.19,192.27-159.13,19.36,9.26,41.03,14.46,63.89,14.46s44.53-5.19,63.89-14.46c91.08,13.94,188.66,62.88,192.28,159.13v115.32ZM564.4,679.16v32.29c0,35.1-26.38,64.14-60.35,68.37v31h19.77c4.73,0,8.57,3.84,8.57,8.57s-3.84,8.57-8.57,8.57h-56.69c-4.73,0-8.57-3.84-8.57-8.57s3.84-8.57,8.57-8.57h19.77v-31c-33.97-4.24-60.35-33.27-60.35-68.37v-32.29c0-4.73,3.84-8.57,8.57-8.57s8.57,3.84,8.57,8.57v32.29c0,28.55,23.23,51.78,51.78,51.78s51.78-23.23,51.78-51.78v-32.29c0-4.73,3.84-8.57,8.57-8.57s8.57,3.84,8.57,8.57ZM495.47,745.02c18.51,0,33.57-15.06,33.57-33.57v-73.76c0-18.51-15.06-33.57-33.57-33.57s-33.57,15.06-33.57,33.57v73.76c0,18.51,15.06,33.57,33.57,33.57h0ZM479.05,637.69c0-9.05,7.37-16.42,16.42-16.42s16.42,7.37,16.42,16.42v73.76c0,9.05-7.37,16.42-16.42,16.42s-16.42-7.37-16.42-16.42v-73.76ZM292.97,406.6h29.14c10.2,0,18.49-8.3,18.49-18.49v-61.38c0-10.2-8.3-18.49-18.49-18.49h-4.92c21.86-79.56,95.42-136.26,178.84-136.26s156.98,56.7,178.84,136.26h-4.92c-10.2,0-18.49,8.3-18.49,18.49v61.38c0,10.2,8.3,18.49,18.49,18.49h29.14c10.2,0,18.49-8.3,18.49-18.49v-61.38c0-10.2-8.3-18.49-18.49-18.49h-6.49c-10.5-42-34.56-80.01-68.29-107.64-36.05-29.52-81.6-45.77-128.27-45.77s-92.23,16.26-128.27,45.77c-33.73,27.63-57.79,65.64-68.29,107.64h-6.49c-10.2,0-18.49,8.3-18.49,18.49v61.38c0,10.2,8.3,18.49,18.49,18.49h0ZM700.42,326.73v61.38c0,.72-.63,1.34-1.34,1.34h-29.14c-.72,0-1.34-.63-1.34-1.34v-61.38c0-.72.63-1.34,1.34-1.34h29.14c.72,0,1.34.63,1.34,1.34ZM291.62,326.73c0-.72.63-1.34,1.34-1.34h29.14c.72,0,1.34.63,1.34,1.34v61.38c0,.72-.63,1.34-1.34,1.34h-29.14c-.72,0-1.34-.63-1.34-1.34v-61.38Z"/>
</svg>