<?xml version="1.0" encoding="UTF-8"?>
<svg id="Layer_1" xmlns="http://www.w3.org/2000/svg" version="1.1" viewBox="0 0 1000 1000">
  <!-- Generator: Adobe Illustrator 29.8.2, SVG Export Plug-In . SVG Version: 2.1.1 Build 3)  -->
  <defs>
    <style>
      .st0 {
        display: none;
      }
    </style>
  </defs>
  <path id="_x30_1" class="st0" d="M117.01,878.52v-144.19h61.8v-469.65h-61.8V120.48h144.19v61.8h469.65v-61.8h144.19v144.19h-61.8v469.65h61.8v144.19h-144.19v-61.8h-469.65v61.8H117.01ZM261.2,794.06h469.65v-59.74h59.74v-469.65h-59.74v-59.74h-469.65v59.74h-59.74v469.65h59.74v59.74ZM341.54,668.41l149.34-380.04h9.27l153.46,380.04h-29.87l-48.72-116.38h-156.96l-48.72,116.38h-27.81ZM425.99,527.31h140.07l-69.01-174.06h-5.15l-65.92,174.06ZM139.67,242.02h98.87v-98.87h-98.87v98.87ZM753.51,242.02h98.87v-98.87h-98.87v98.87ZM753.51,855.86h98.87v-98.87h-98.87v98.87ZM139.67,855.86h98.87v-98.87h-98.87v98.87Z"/>
  <path id="_x30_2" class="st0" d="M120.98,542.71v-27.16h150.62v27.16H120.98ZM259.26,827.9l-18.52-18.52,104.94-104.94,17.28,18.52-103.7,104.94ZM345.68,352.59l-104.94-104.94,18.52-18.52,103.7,104.94-17.28,18.52ZM837.04,871.11l-213.58-213.58-40.74,125.93-90.12-301.24,303.71,92.59-127.16,45.68,209.88,209.88-41.98,40.74ZM522.22,278.51V127.89h27.16v150.62h-27.16ZM727.16,352.59l-18.52-18.52,104.94-104.94,18.52,19.75-104.94,103.7Z"/>
  <path id="_x30_3" class="st0" d="M311.34,684.47l-94.85-384.83L496.02,45l278.25,254.64-93.81,384.83h-369.12ZM333.12,656.39h325.64l85.52-346.54-233.58-213.8v227.84c9.79,3.2,18.29,9.14,25.53,17.82,7.23,8.69,10.85,19.14,10.85,31.35,0,13.81-5.11,25.77-15.33,35.88-10.22,10.1-22.09,15.15-35.61,15.15-14.54,0-26.92-5.06-37.13-15.19-10.21-10.13-15.32-22.11-15.32-35.96,0-12.16,3.62-22.63,10.85-31.41,7.23-8.78,16.59-14.66,28.08-17.64V96.05l-233.58,213.8,84.08,346.54ZM153.95,933.36l23.61-59.99c5.34-12.64,12.9-22.93,22.67-30.86,9.77-7.93,21.84-11.9,36.22-11.9h519.44c14.38,0,26.46,3.94,36.25,11.81,9.79,7.87,17.66,18.19,23.61,30.95l22.34,59.99H153.95Z"/>
  <path d="M500.19,933.36c-20.55,0-37.44-6.27-50.67-18.8s-18.68-28.08-16.36-46.65h-47.34c-6.72,0-13.51-3.43-20.36-10.28-6.85-6.85-10.28-13.62-10.28-20.32v-158.78c-61.27-32.03-107.68-75.09-139.24-129.19-31.56-54.1-47.34-111.49-47.34-172.16,0-93.37,31.91-172.08,95.74-236.13s142.27-96.08,235.32-96.08,171.6,32.03,235.65,96.08c64.05,64.05,96.08,142.66,96.08,235.82,0,60-15.7,117.3-47.09,171.89-31.39,54.6-77.88,97.85-139.49,129.76v158.78c0,6.69-3.43,13.46-10.28,20.32-6.85,6.85-13.64,10.28-20.36,10.28h-47.34c2.32,18.57-3.07,34.11-16.17,46.65-13.1,12.53-29.92,18.8-50.48,18.8ZM385.82,837.29h228.36v-58.48h-228.36v58.48ZM385.82,739.82h228.36v-57.09h-228.36v57.09ZM372.96,652.09h110.34v-193.55l-115.57-115.57,23.67-23.67,108.61,110,108.61-110,23.67,23.67-115.57,115.57v193.55h110.34c51.71-24.31,93.58-61,125.64-110.07,32.05-49.07,48.08-104.31,48.08-165.73,0-83.24-29.22-154.16-87.65-212.76-58.43-58.6-129.38-87.9-212.86-87.9s-154.51,29.25-213.11,87.74c-58.6,58.49-87.9,129.52-87.9,213.1,0,61.22,16.03,116.38,48.08,165.49,32.05,49.11,73.93,85.82,125.64,110.14Z"/>
</svg>