<?xml version="1.0" encoding="UTF-8"?>
<svg id="Layer_1" xmlns="http://www.w3.org/2000/svg" version="1.1" viewBox="0 0 1000 1000">
  <!-- Generator: Adobe Illustrator 29.8.2, SVG Export Plug-In . SVG Version: 2.1.1 Build 3)  -->
  <defs>
    <style>
      .st0 {
        display: none;
      }
    </style>
  </defs>
  <path id="_x30_1" class="st0" d="M117.01,878.52v-144.19h61.8v-469.65h-61.8V120.48h144.19v61.8h469.65v-61.8h144.19v144.19h-61.8v469.65h61.8v144.19h-144.19v-61.8h-469.65v61.8H117.01ZM261.2,794.06h469.65v-59.74h59.74v-469.65h-59.74v-59.74h-469.65v59.74h-59.74v469.65h59.74v59.74ZM341.54,668.41l149.34-380.04h9.27l153.46,380.04h-29.87l-48.72-116.38h-156.96l-48.72,116.38h-27.81ZM425.99,527.31h140.07l-69.01-174.06h-5.15l-65.92,174.06ZM139.67,242.02h98.87v-98.87h-98.87v98.87ZM753.51,242.02h98.87v-98.87h-98.87v98.87ZM753.51,855.86h98.87v-98.87h-98.87v98.87ZM139.67,855.86h98.87v-98.87h-98.87v98.87Z"/>
  <path id="_x30_2" class="st0" d="M120.98,542.71v-27.16h150.62v27.16H120.98ZM259.26,827.9l-18.52-18.52,104.94-104.94,17.28,18.52-103.7,104.94ZM345.68,352.59l-104.94-104.94,18.52-18.52,103.7,104.94-17.28,18.52ZM837.04,871.11l-213.58-213.58-40.74,125.93-90.12-301.24,303.71,92.59-127.16,45.68,209.88,209.88-41.98,40.74ZM522.22,278.51V127.89h27.16v150.62h-27.16ZM727.16,352.59l-18.52-18.52,104.94-104.94,18.52,19.75-104.94,103.7Z"/>
  <path id="_x30_3" class="st0" d="M311.34,684.47l-94.85-384.83L496.02,45l278.25,254.64-93.81,384.83h-369.12ZM333.12,656.39h325.64l85.52-346.54-233.58-213.8v227.84c9.79,3.2,18.29,9.14,25.53,17.82,7.23,8.69,10.85,19.14,10.85,31.35,0,13.81-5.11,25.77-15.33,35.88-10.22,10.1-22.09,15.15-35.61,15.15-14.54,0-26.92-5.06-37.13-15.19-10.21-10.13-15.32-22.11-15.32-35.96,0-12.16,3.62-22.63,10.85-31.41,7.23-8.78,16.59-14.66,28.08-17.64V96.05l-233.58,213.8,84.08,346.54ZM153.95,933.36l23.61-59.99c5.34-12.64,12.9-22.93,22.67-30.86,9.77-7.93,21.84-11.9,36.22-11.9h519.44c14.38,0,26.46,3.94,36.25,11.81,9.79,7.87,17.66,18.19,23.61,30.95l22.34,59.99H153.95Z"/>
  <path id="_x30_4" class="st0" d="M500.19,933.36c-20.55,0-37.44-6.27-50.67-18.8s-18.68-28.08-16.36-46.65h-47.34c-6.72,0-13.51-3.43-20.36-10.28-6.85-6.85-10.28-13.62-10.28-20.32v-158.78c-61.27-32.03-107.68-75.09-139.24-129.19-31.56-54.1-47.34-111.49-47.34-172.16,0-93.37,31.91-172.08,95.74-236.13s142.27-96.08,235.32-96.08,171.6,32.03,235.65,96.08c64.05,64.05,96.08,142.66,96.08,235.82,0,60-15.7,117.3-47.09,171.89-31.39,54.6-77.88,97.85-139.49,129.76v158.78c0,6.69-3.43,13.46-10.28,20.32-6.85,6.85-13.64,10.28-20.36,10.28h-47.34c2.32,18.57-3.07,34.11-16.17,46.65-13.1,12.53-29.92,18.8-50.48,18.8ZM385.82,837.29h228.36v-58.48h-228.36v58.48ZM385.82,739.82h228.36v-57.09h-228.36v57.09ZM372.96,652.09h110.34v-193.55l-115.57-115.57,23.67-23.67,108.61,110,108.61-110,23.67,23.67-115.57,115.57v193.55h110.34c51.71-24.31,93.58-61,125.64-110.07,32.05-49.07,48.08-104.31,48.08-165.73,0-83.24-29.22-154.16-87.65-212.76-58.43-58.6-129.38-87.9-212.86-87.9s-154.51,29.25-213.11,87.74c-58.6,58.49-87.9,129.52-87.9,213.1,0,61.22,16.03,116.38,48.08,165.49,32.05,49.11,73.93,85.82,125.64,110.14Z"/>
  <path id="_x30_5" class="st0" d="M321.31,486.63h357.39v-28.08h-357.39v28.08ZM321.31,623.84h357.39v-28.08h-357.39v28.08ZM321.31,762.33h204.22v-28.08h-204.22v28.08ZM226.6,933.36c-18.75,0-34.89-6.76-48.4-20.27-13.51-13.51-20.27-29.64-20.27-48.38V113.64c0-18.74,6.76-34.86,20.27-48.38,13.51-13.51,29.73-20.27,48.66-20.27h416.1l199.12,198.48v620.96c0,18.92-6.76,35.14-20.27,48.66-13.51,13.51-29.65,20.27-48.4,20.27H226.6ZM628.92,256.88V73.08H226.85c-10.21,0-19.57,4.25-28.08,12.76-8.51,8.51-12.76,17.87-12.76,28.08v750.52c0,10.21,4.25,19.57,12.76,28.08,8.51,8.51,17.87,12.76,28.08,12.76h546.29c10.21,0,19.57-4.25,28.08-12.76,8.51-8.51,12.76-17.87,12.76-28.08V256.88h-185.08ZM186.01,73.08v183.8V73.08v832.21V73.08Z"/>
  <path id="_x30_6" class="st0" d="M263.54,696.27c-14.83,0-27.33-5.13-37.5-15.4-10.17-10.26-15.25-22.71-15.25-37.34V241.06c0-14.48,5.08-26.9,15.25-37.24,10.17-10.34,22.67-15.51,37.5-15.51h558.75c14.14,0,26.47,5.17,36.98,15.51,10.51,10.34,15.77,22.75,15.77,37.24v402.46c0,14.63-5.26,27.08-15.77,37.34-10.52,10.27-22.85,15.4-36.98,15.4H263.54ZM542.43,480.88L232.28,234.22v409.3c0,9.12,2.93,16.61,8.79,22.47,5.86,5.86,13.35,8.79,22.47,8.79h558.75c8.79,0,16.2-2.93,22.22-8.79,6.02-5.86,9.04-13.35,9.04-22.47V234.22l-311.12,246.65ZM542.43,454.01l300.38-238.35c-2.93-1.95-5.29-3.42-7.08-4.4s-4.64-1.47-8.55-1.47H259.63c-3.26,0-6.51.81-9.77,2.44s-5.86,3.42-7.81,5.37l300.38,236.4ZM169.76,790.05c-14.83,0-27.34-5.13-37.5-15.4-10.17-10.26-15.25-22.71-15.25-37.34v-353.62h21.49v353.62c0,9.12,2.93,16.61,8.79,22.47,5.86,5.86,13.35,8.79,22.47,8.79h574.38v21.49H169.76ZM853.55,234.71c0-1.75-1.14-5.31-3.42-10.71-2.28-5.39-4.4-8.17-6.35-8.34-2.28-1.95-4.64-3.42-7.08-4.4s-5.62-1.47-9.52-1.47H259.63c-3.26,0-6.84.81-10.75,2.44s-6.84,3.42-8.79,5.37c-2.28.17-4.15,2.77-5.62,7.81s-2.2,8.13-2.2,9.28v-24.91h621.27v24.91Z"/>
  <g id="_x30_7" class="st0">
    <g>
      <path d="M486.85,906.64c-23.09,0-41.81-18.72-41.81-41.81s18.72-41.81,41.81-41.81,41.81,18.72,41.81,41.81-18.72,41.81-41.81,41.81ZM486.85,841.2c-13.09,0-23.63,10.54-23.63,23.63s10.54,23.63,23.63,23.63,23.63-10.54,23.63-23.63-10.54-23.63-23.63-23.63Z"/>
      <circle cx="745.7" cy="115.35" r="16.36"/>
      <path d="M762.79,933.36H229.26c-44.17,0-79.98-35.81-79.98-79.98V124.98c0-44.17,35.81-79.98,79.98-79.98h533.53c44.17,0,79.98,35.81,79.98,79.98v728.22c0,44.17-35.99,80.17-79.98,80.17h0ZM229.26,63.18c-34.17,0-61.81,27.81-61.81,61.81v728.22c0,34.17,27.81,61.81,61.81,61.81h533.53c33.99,0,61.81-27.81,61.81-61.81V124.98c0-34.17-27.81-61.81-61.81-61.81H229.26Z"/>
      <path d="M158.37,790.3h675.32v18.18H158.37v-18.18Z"/>
      <path d="M235.99,89.9h65.44v18.18h-65.44v-18.18Z"/>
      <path d="M235.99,124.44h65.44v18.18h-65.44v-18.18Z"/>
      <path d="M158.37,168.61h675.32v18.18H158.37v-18.18Z"/>
    </g>
    <g>
      <path d="M358.14,624.88c-4.36,0-8.54-1.64-11.63-4.91-4.54-4.54-6-11.09-4-17.09l27.81-81.44,194.32-194.32c14.91-14.91,39.08-14.91,53.99,0l20.54,20.54c14.91,14.91,14.91,39.08,0,53.99l-194.32,194.51-81.44,27.81c-1.64.73-3.45.91-5.27.91ZM386.14,531.45l-25.45,74.35,74.35-25.45,191.23-191.23c7.82-7.82,7.82-20.54,0-28.36l-20.54-20.54c-7.82-7.82-20.54-7.82-28.36,0l-6.36-6.36,6.36,6.36-191.23,191.23Z"/>
      <path d="M371.71,533.04l12.85-12.85,61.69,61.69-12.85,12.85-61.69-61.69Z"/>
    </g>
  </g>
  <g class="st0">
    <g>
      <path d="M857.86,609.25c-.21-.21-.43-.38-.66-.55-3.64-2.74-8.11-4.43-13.01-4.43h-174.46v-307.97c0-.11.06-.2.06-.31,0-1.21-.37-2.38-1.04-3.37l-91.65-135.11s-.11-.06-.15-.12c-.61-.87-1.43-1.5-2.36-1.93-.18-.09-.39-.09-.59-.15-.64-.22-1.26-.49-1.94-.49H234.21c-14.6,0-26.47,11.87-26.47,26.47v162.23h-69.49c-11.71.01-21.24,9.54-21.24,21.26v224.36c0,11.71,9.52,21.25,21.24,21.25h69.49v162.1c0,14.6,11.87,26.47,26.47,26.47h220.83v54.36c0,11.99,9.76,21.75,21.75,21.75h367.4c11.99,0,21.75-9.76,21.75-21.75v-227.29c.01-6.8-3.19-12.8-8.08-16.79ZM835.57,616.31l-175.02,91.71-175.02-91.71h350.04ZM574.55,175.23l76.83,113.26-86.54-11.09c-4.25-.54-8.08-2.9-10.47-6.47-2.4-3.56-3.14-7.98-2.03-12.13l22.2-83.58ZM129.04,589.14v-224.35c0-5.09,4.13-9.21,9.21-9.21h154.71c5.07,0,9.21,4.13,9.21,9.21v224.36c0,5.09-4.13,9.21-9.21,9.21h-154.71c-5.07,0-9.21-4.13-9.21-9.22ZM234.21,786.93c-7.97,0-14.44-6.47-14.44-14.44v-162.1h78.81c8.62,0,15.61-6.99,15.61-15.61v-235.63c0-8.62-6.99-15.61-15.61-15.61h-78.81v-162.23c0-7.97,6.47-14.44,14.44-14.44h330.11l-23.61,88.85c-1.99,7.49-.65,15.49,3.68,21.93s11.24,10.7,18.93,11.69l94.39,12.09v302.85h-180.91c-4.96,0-9.5,1.74-13.17,4.55-.09.06-.16.13-.24.21-5.04,3.99-8.34,10.09-8.34,16.99v160.9h-220.83ZM853.91,853.32c0,5.37-4.36,9.72-9.72,9.72h-367.4c-5.37,0-9.72-4.36-9.72-9.72v-227.15c0-1.91.68-3.58,1.63-5.1l189.06,99.06c.88.45,1.83.68,2.79.68s1.92-.23,2.79-.68l189.03-99.05c.89,1.47,1.55,3.09,1.55,4.94v227.3Z"/>
      <path d="M263.22,425.13c0-19.24-15.66-34.89-34.91-34.89s-34.89,15.66-34.89,34.89,15.66,34.91,34.89,34.91c19.26-.01,34.91-15.66,34.91-34.91ZM205.45,425.13c0-12.61,10.26-22.86,22.86-22.86s22.88,10.26,22.88,22.86-10.26,22.88-22.88,22.88c-12.61-.01-22.86-10.27-22.86-22.88Z"/>
      <path d="M165.44,419.11c-3.33,0-6.02,2.69-6.02,6.02v137.63c0,3.33,2.69,6.02,6.02,6.02s6.02-2.69,6.02-6.02v-137.63c0-3.33-2.69-6.02-6.02-6.02Z"/>
      <path d="M556.37,376.81c0-3.33-2.69-6.02-6.02-6.02h-197.53c-3.33,0-6.02,2.69-6.02,6.02s2.69,6.02,6.02,6.02h197.53c3.33,0,6.02-2.69,6.02-6.02Z"/>
      <path d="M557.01,497.98c0-3.33-2.69-6.02-6.02-6.02h-131.69c-3.33,0-6.02,2.69-6.02,6.02s2.69,6.02,6.02,6.02h131.69c3.33,0,6.02-2.69,6.02-6.02Z"/>
      <path d="M821.1,803.32h-99.4c-3.33,0-6.02,2.69-6.02,6.02s2.69,6.02,6.02,6.02h99.4c3.33,0,6.02-2.69,6.02-6.02s-2.69-6.02-6.02-6.02Z"/>
      <path d="M869.02,200.66h-10.48v-47.52c0-15.55-12.67-28.22-28.22-28.22h-15.92c-15.55,0-28.22,12.67-28.22,28.22v47.52h-10.4c-3.33,0-6.02,2.69-6.02,6.02v289.05c0,1.16.33,2.29.95,3.25l46.62,72.43c1.1,1.72,3.02,2.76,5.06,2.76s3.95-1.04,5.06-2.76l46.62-72.43c.62-.97.95-2.1.95-3.25V206.68c0-3.33-2.69-6.02-6.02-6.02ZM798.22,153.14c0-8.93,7.26-16.19,16.19-16.19h15.92c8.93,0,16.19,7.26,16.19,16.19v47.5h-48.29v-47.5ZM863.01,493.96l-40.6,63.08-40.59-63.08V212.69h81.19v281.27Z"/>
    </g>
  </g>
  <g>
    <path d="M644.28,461.1h122.59c3.69,0,6.68-2.99,6.68-6.68v-145c0-3.69-2.99-6.68-6.68-6.68h-122.59c-3.69,0-6.68,2.99-6.68,6.68v145c0,3.69,2.99,6.68,6.68,6.68h0ZM650.96,316.12h109.23v131.6h-109.23v-131.6Z"/>
    <path d="M181.22,329.32h122.61c3.7-.18,6.54-3.33,6.36-7.02-.17-3.44-2.92-6.19-6.36-6.36h-122.61c-3.7.18-6.54,3.33-6.36,7.02.17,3.44,2.92,6.19,6.36,6.36Z"/>
    <path d="M181.22,381.19h122.61c3.7-.18,6.54-3.33,6.36-7.02-.17-3.44-2.92-6.19-6.36-6.36h-122.61c-3.7.18-6.54,3.33-6.36,7.02.17,3.44,2.92,6.19,6.36,6.36Z"/>
    <path d="M341.55,478.08h258.41c3.7-.18,6.54-3.33,6.36-7.02-.17-3.44-2.92-6.19-6.36-6.36h-258.41c-3.7.18-6.54,3.33-6.36,7.02.17,3.44,2.92,6.19,6.36,6.36h0Z"/>
    <path d="M341.55,548.11h258.41c3.69,0,6.68-2.99,6.68-6.68s-2.99-6.68-6.68-6.68h-258.41c-3.69,0-6.68,2.99-6.68,6.68s2.99,6.68,6.68,6.68h0Z"/>
    <path d="M341.55,618.15h210.93c3.7-.18,6.54-3.33,6.36-7.02-.17-3.44-2.92-6.19-6.36-6.36h-210.93c-3.7.18-6.54,3.33-6.36,7.02.17,3.44,2.92,6.19,6.36,6.36Z"/>
    <path d="M867.45,332.13h-42.96v-61.38c0-3.69-3.01-6.68-6.7-6.68H123.69c-3.69,0-6.68,2.99-6.68,6.68h0v436.66c0,3.69,2.99,6.68,6.68,6.68h36.26v45.04c0,3.69,2.98,6.69,6.67,6.7h700.79c3.69,0,6.68-2.99,6.68-6.68v-420.33c0-3.67-2.96-6.66-6.63-6.68h0ZM130.38,277.45h680.74v423.26H130.38v-423.26ZM860.77,752.45H173.33v-38.36h644.47c3.69,0,6.69-2.99,6.7-6.68v-361.9h36.27v406.93Z"/>
  </g>
</svg>