<svg id="Layer_1" enable-background="new 0 0 66 66" height="512" viewBox="0 0 66 66" width="512" xmlns="http://www.w3.org/2000/svg"><g><path d="m64.78 44.42c0-2.35-.9-4.57-2.5-6.28v-7.38c0-7.81-3.04-15.16-8.57-20.7-5.54-5.54-12.89-8.58-20.72-8.58-16.14-.02-29.28 13.12-29.28 29.27v7.38c-1.59 1.7-2.5 3.93-2.5 6.29 0 4.82 3.71 8.78 8.42 9.17.48 1.71 2.03 2.97 3.89 2.97 2.24 0 4.06-1.82 4.06-4.06v-16.16c0-2.24-1.82-4.06-4.06-4.06-1.58 0-2.93.91-3.61 2.23v-3.77c0-12.72 10.35-23.08 23.07-23.08 6.15 0 11.95 2.4 16.32 6.76 4.36 4.38 6.76 10.17 6.76 16.32v3.76c-.67-1.31-2.03-2.22-3.6-2.22-2.24 0-4.06 1.82-4.06 4.06v16.16c0 2.24 1.82 4.06 4.06 4.06 1.86 0 3.41-1.26 3.89-2.97.12-.01.24-.02.36-.04v1.13c0 2.9-2.36 5.25-5.25 5.25h-11.74v-.27c0-1.33-1.08-2.4-2.41-2.4h-7.12c-1.33 0-2.4 1.08-2.4 2.4v2.46c0 1.33 1.08 2.41 2.4 2.41h7.12c1.33 0 2.41-1.08 2.41-2.41v-.26h11.74c3.96 0 7.18-3.22 7.18-7.18v-1.59c3.57-1.26 6.14-4.67 6.14-8.67zm-27.47 18.19h-7.12c-.26 0-.48-.22-.48-.48v-2.46c0-.26.21-.48.48-.48h7.12c.27 0 .48.21.48.48v1.22.01s0 .01 0 .01v1.22c0 .26-.21.48-.48.48zm-34.17-18.19c0-2.22 1-4.3 2.74-5.7.35-.27.66-.48 1-.66.03-.01.05-.03.08-.04.29-.16.59-.29.9-.41.06-.02.12-.05.18-.07.35-.12.71-.22 1.08-.28h.01c.11-.02.22-.04.33-.06h.02v14.44c-3.57-.47-6.34-3.53-6.34-7.22zm10.39-10.21c1.18 0 2.13.96 2.13 2.13v16.16c0 1.18-.96 2.13-2.13 2.13-1.12 0-2.02-.86-2.11-1.96v-.01l-.02-16.4c.05-1.14.98-2.05 2.13-2.05zm37.14-21.14c-4.74-4.72-11.02-7.32-17.68-7.32-13.78 0-24.99 11.22-24.99 25v4.78c-.05.01-.09.03-.14.05-.24.07-.47.15-.7.23-.11.04-.22.08-.33.13-.25.11-.49.23-.73.36-.05.03-.11.05-.16.08-.1.06-.21.12-.3.17v-5.79c0-15.09 12.27-27.36 27.35-27.36 7.31 0 14.19 2.85 19.36 8.02 5.17 5.18 8.01 12.05 8.01 19.34v5.79c-.1-.06-.2-.12-.3-.17-.07-.04-.14-.07-.22-.1-.23-.12-.46-.23-.69-.33-.1-.04-.21-.08-.31-.12-.22-.09-.45-.16-.68-.23-.06-.02-.11-.04-.17-.06v-4.78c0-6.67-2.6-12.95-7.32-17.69zm1.8 41.56c-1.18 0-2.13-.96-2.13-2.13v-16.16c0-1.18.96-2.13 2.13-2.13 1.16 0 2.11.94 2.13 2.09l-.01 16.34c-.08 1.11-1 1.99-2.12 1.99zm4.06-2.99v-14.44h.02c.14.02.27.05.4.07.34.06.68.15 1.01.27.05.02.1.04.16.06.31.12.62.25.91.42.03.02.06.03.1.05.32.17.63.38.97.64 1.75 1.4 2.76 3.48 2.76 5.71 0 3.68-2.75 6.74-6.33 7.22z"/><path d="m31.52 44.44c.37.44.91.69 1.48.69.57 0 1.11-.25 1.48-.69l2.9-3.45h6.09c1.6 0 2.9-1.3 2.9-2.9v-13.78c0-1.6-1.3-2.9-2.9-2.9h-20.94c-1.6 0-2.9 1.3-2.9 2.9v13.79c0 1.6 1.3 2.9 2.9 2.9h6.09zm-9.96-6.34v-13.79c0-.54.44-.97.97-.97h20.94c.54 0 .97.44.97.97v13.79c0 .54-.44.97-.97.97h-6.54c-.28 0-.55.13-.74.34l-3.19 3.79-3.19-3.79c-.18-.22-.45-.34-.74-.34h-6.54c-.54 0-.97-.44-.97-.97z"/><path d="m25.28 28.16h15.44c.53 0 .96-.43.96-.96s-.43-.96-.96-.96h-15.44c-.53 0-.96.43-.96.96s.43.96.96.96z"/><path d="m25.28 32.31h15.44c.53 0 .96-.43.96-.96s-.43-.96-.96-.96h-15.44c-.53 0-.96.43-.96.96s.43.96.96.96z"/><path d="m33.39 35.51c0-.53-.43-.96-.96-.96h-7.15c-.53 0-.96.43-.96.96s.43.96.96.96h7.15c.53 0 .96-.43.96-.96z"/></g></svg>