<?xml version="1.0" encoding="UTF-8"?>
<svg id="Layer_1" xmlns="http://www.w3.org/2000/svg" version="1.1" viewBox="0 0 1000 1000">
  <!-- Generator: Adobe Illustrator 29.6.1, SVG Export Plug-In . SVG Version: 2.1.1 Build 9)  -->
  <defs>
    <style>
      .st0 {
        fill: #1f1f1f;
      }
    </style>
  </defs>
  <path class="st0" d="M623.3,369.1c0,34.2-12,63.3-36,87.3-24,24-53.1,36-87.3,36s-63.4-12-87.4-36c-24-24-36-53.1-36-87.4h-26.4c0,41.8,14.5,77.2,43.5,106.2,29,29,64.4,43.5,106.2,43.5s77.2-14.5,106.3-43.5c29-29,43.5-64.4,43.5-106.3h-26.4ZM623.3,369.1c0,34.2-12,63.3-36,87.3-24,24-53.1,36-87.3,36s-63.4-12-87.4-36c-24-24-36-53.1-36-87.4h-26.4c0,41.8,14.5,77.2,43.5,106.2,29,29,64.4,43.5,106.2,43.5s77.2-14.5,106.3-43.5c29-29,43.5-64.4,43.5-106.3h-26.4ZM796.7,319.2c-11.6-11.6-25.6-17.4-42.2-17.4h-104.7c0-41.8-14.5-77.2-43.5-106.2-29-29-64.4-43.5-106.2-43.5s-77.2,14.5-106.2,43.5c-29,29-43.5,64.4-43.5,106.2h-104.7c-16.6,0-30.6,5.8-42.2,17.4-11.6,11.6-17.4,25.7-17.4,42.2v427c0,16.6,5.8,30.6,17.4,42.2,11.6,11.6,25.6,17.4,42.2,17.4h473.4v-26.4H245.5c-8.3,0-15.9-3.5-22.8-10.4-6.9-6.9-10.4-14.5-10.4-22.8v-427c0-8.3,3.5-15.9,10.4-22.8s14.5-10.4,22.8-10.4h508.9c8.3,0,15.9,3.5,22.8,10.4s10.4,14.5,10.4,22.8v296.5h26.4v-296.5c0-16.6-5.8-30.6-17.4-42.2ZM376.7,301.8c0-34.3,12-63.4,36-87.4,24-24,53.1-36,87.4-36s63.4,12,87.3,36c24,24,36,53.1,36,87.3h-246.7ZM500.1,492.5c-34.2,0-63.4-12-87.4-36-24-24-36-53.1-36-87.4h-26.4c0,41.8,14.5,77.2,43.5,106.2,29,29,64.4,43.5,106.2,43.5s77.2-14.5,106.3-43.5c29-29,43.5-64.4,43.5-106.3h-26.4c0,34.2-12,63.3-36,87.3-24,24-53.1,36-87.3,36Z"/>
  <polygon class="st0" points="789.9 893.6 789.9 791.7 688.1 791.7 688.1 770 789.9 770 789.9 668.2 811.6 668.2 811.6 770 913.4 770 913.4 791.7 811.6 791.7 811.6 893.6 789.9 893.6"/>
</svg>