<svg id="Layer_1" enable-background="new 0 0 64 64" viewBox="0 0 64 64" xmlns="http://www.w3.org/2000/svg"><g><path d="m18.97 23.96.33 2.99c.04.37.3.69.65.81.1.03.21.05.31.05.26 0 .51-.1.7-.3l2.15-2.24c.56.08 1.15.12 1.74.12 2.28 0 4.51-.6 6.32-1.69 1.02.17 2.08.26 3.17.26.96 0 1.9-.07 2.8-.2l3.42 3.56c.19.19.44.3.7.3.1 0 .21-.02.31-.05.36-.12.61-.44.65-.81l.52-4.76c4.31-2.22 6.87-5.93 6.87-10.01 0-6.61-6.85-11.99-15.28-11.99-7.63 0-13.95 4.41-15.08 10.15-3 1.51-4.86 4.13-4.86 6.97 0 2.78 1.7 5.3 4.58 6.84zm15.36-22.02c7.35 0 13.34 4.51 13.34 10.04 0 3.46-2.34 6.64-6.25 8.5-.3.14-.51.44-.55.77l-.35 3.23-2.33-2.43c-.18-.19-.44-.3-.7-.3-.06 0-.11.01-.17.02-.95.17-1.95.26-2.98.26-7.36 0-13.34-4.51-13.34-10.04-.01-5.54 5.98-10.05 13.33-10.05zm-15.25 10.54c.25 4.66 3.9 8.64 9.06 10.45-1.04.33-2.16.52-3.3.52-.66 0-1.3-.06-1.91-.17-.32-.06-.65.05-.87.28l-1.06 1.11-.16-1.44c-.04-.33-.24-.63-.55-.77-2.48-1.18-3.96-3.17-3.96-5.34 0-1.77 1.03-3.45 2.75-4.64z"/><path d="m56.82 52.2c-1.29-.4-2.83-1.06-4.46-1.92-.78-.41-1.49-.82-2.1-1.18 2.12-2.51 3.44-6.4 3.44-10.03 0-5.51-3.16-8.8-8.45-8.8s-8.45 3.29-8.45 8.8c0 3.64 1.33 7.52 3.45 10.03-.66.39-1.38.8-2.1 1.17-1.67.88-3.16 1.52-4.45 1.92-.6.18-1.17.45-1.71.8-.5-.32-1.05-.61-1.68-.8-1.27-.39-2.77-1.04-4.46-1.92-.68-.36-1.38-.76-2.09-1.18 2.11-2.51 3.44-6.39 3.44-10.03 0-5.51-3.16-8.8-8.45-8.8s-8.45 3.29-8.45 8.8c0 3.64 1.33 7.52 3.45 10.03-.6.36-1.31.76-2.1 1.17-1.7.89-3.2 1.54-4.46 1.92-5.96 1.86-6.21 10.44-6.21 10.81 0 .26.09.51.28.7.18.2.43.31.69.31h33.61.02 26.48c.26 0 .51-.11.69-.29.18-.19.28-.44.28-.7-.02-.37-.26-8.95-6.21-10.81zm-11.57-.4c1.29 0 2.49-.49 3.56-1.3.46.27.91.54 1.37.8-1.79 1.37-4.1 2.74-5.1 3.31-.94-.58-3.08-1.94-4.77-3.3.49-.27.96-.55 1.39-.81 1.07.82 2.26 1.3 3.55 1.3zm0-19.59c2.97 0 6.51 1.19 6.51 6.86 0 5.44-3.22 10.79-6.51 10.79-3.28 0-6.51-5.34-6.51-10.79 0-5.67 3.54-6.86 6.51-6.86zm-26.5 19.59c1.29 0 2.49-.49 3.56-1.3.46.28.92.54 1.37.8-1.79 1.36-4.1 2.74-5.1 3.31-.94-.58-3.08-1.94-4.77-3.29.52-.29.99-.57 1.39-.81 1.07.81 2.27 1.29 3.55 1.29zm0-19.59c2.97 0 6.51 1.19 6.51 6.86 0 5.44-3.22 10.79-6.51 10.79-3.28 0-6.51-5.34-6.51-10.79 0-5.67 3.54-6.86 6.51-6.86zm-15.75 29.85c.24-2.1 1.17-6.88 4.77-8 1.23-.38 2.61-.96 4.19-1.76 2.37 2.03 5.95 4.17 6.11 4.27.15.09.32.14.5.14.16 0 .32-.04.47-.12.18-.1 4.06-2.25 6.52-4.29 1.56.79 2.97 1.39 4.2 1.76 3.6 1.12 4.53 5.91 4.76 8zm33.46 0c-.17-1.7-.77-5.27-2.91-7.7.23-.12.47-.22.72-.3 1.24-.38 2.65-.98 4.18-1.75 2.37 2.03 5.95 4.17 6.11 4.27.15.09.32.14.5.14.16 0 .32-.04.47-.12.18-.1 4.06-2.25 6.52-4.29 1.53.77 2.95 1.37 4.2 1.76 3.6 1.12 4.53 5.91 4.76 8h-24.55z"/><path d="m42.34 13.37h-11.08c-.54 0-.97.43-.97.97s.43.97.97.97h11.08c.54 0 .97-.43.97-.97s-.43-.97-.97-.97z"/><path d="m26.33 10.6h16.01c.54 0 .97-.43.97-.97s-.43-.97-.97-.97h-16.01c-.54 0-.97.43-.97.97 0 .53.43.97.97.97z"/></g></svg>