<svg id="Layer_1" enable-background="new 0 0 512 512" viewBox="0 0 512 512" xmlns="http://www.w3.org/2000/svg"><path d="m239.453 45.375c0 8.05-6.562 14.599-14.627 14.599-8.05 0-14.598-6.55-14.598-14.599 0-8.065 6.549-14.626 14.598-14.626 8.065 0 14.627 6.561 14.627 14.626zm-148.408 151.937v-48.254c0-4.398 3.565-7.963 7.963-7.963h48.227c4.398 0 7.963 3.565 7.963 7.963v48.254c0 4.398-3.565 7.963-7.963 7.963h-48.227c-4.398 0-7.963-3.566-7.963-7.963zm15.926-7.963h32.301v-32.329h-32.301zm76.518 15.926h75.164c4.398 0 7.963-3.565 7.963-7.963s-3.565-7.963-7.963-7.963h-75.164c-4.398 0-7.963 3.565-7.963 7.963 0 4.397 3.565 7.963 7.963 7.963zm0-48.255h150.328c4.398 0 7.963-3.565 7.963-7.963s-3.565-7.963-7.963-7.963h-150.328c-4.398 0-7.963 3.565-7.963 7.963s3.565 7.963 7.963 7.963zm-92.444 85.328c0-4.398 3.565-7.963 7.963-7.963h48.227c4.398 0 7.963 3.565 7.963 7.963v48.255c0 4.398-3.565 7.963-7.963 7.963h-48.227c-4.398 0-7.963-3.565-7.963-7.963zm15.926 40.292h32.301v-32.329h-32.301zm76.518 15.926h75.164c4.398 0 7.963-3.565 7.963-7.963s-3.565-7.963-7.963-7.963h-75.164c-4.398 0-7.963 3.565-7.963 7.963s3.565 7.963 7.963 7.963zm0-48.255h150.328c4.398 0 7.963-3.565 7.963-7.963s-3.565-7.963-7.963-7.963h-150.328c-4.398 0-7.963 3.565-7.963 7.963s3.565 7.963 7.963 7.963zm287.952-34.717-76.409 94.263v116.023c0 20.551-16.721 37.272-37.272 37.272h-127.117c-4.398 0-7.963-3.565-7.963-7.963s3.565-7.963 7.963-7.963h127.117c11.77 0 21.346-9.576 21.346-21.346v-96.376l-53.645 66.18c-.875 1.08-2.017 1.911-3.313 2.412l-48.171 18.635c-.931.36-1.905.537-2.872.537-1.798 0-3.573-.609-5.014-1.776-2.217-1.797-3.303-4.641-2.848-7.458l8.245-50.993c.222-1.372.8-2.662 1.675-3.742l105.942-130.721v-119.771c0-11.77-9.576-21.346-21.346-21.346h-44.386v8.555c0 10.805-8.803 19.596-19.624 19.596h-137.846c-10.805 0-19.596-8.791-19.596-19.596v-8.555h-44.415c-11.755 0-21.317 9.576-21.317 21.346v208.804c0 4.398-3.565 7.963-7.963 7.963s-7.963-3.565-7.963-7.963v-208.804c0-20.551 16.707-37.272 37.243-37.272h44.415v-8.527c0-10.805 8.791-19.596 19.596-19.596h24.276c3.771-21.237 22.356-37.412 44.647-37.412 22.305 0 40.902 16.175 44.676 37.412h24.248c10.821 0 19.624 8.791 19.624 19.596v8.527h44.386c20.551 0 37.272 16.721 37.272 37.272v100.12l24.083-29.716c5.66-6.969 13.709-11.321 22.666-12.262 8.971-.939 17.746 1.655 24.71 7.312 6.956 5.632 11.308 13.675 12.245 22.64.936 8.959-1.655 17.729-7.295 24.693zm-173.992-158.586c0-1.989-1.694-3.67-3.698-3.67h-31.511c-4.398 0-7.963-3.565-7.963-7.963 0-16.238-13.211-29.449-29.45-29.449-16.223 0-29.421 13.211-29.421 29.449 0 4.398-3.565 7.963-7.963 7.963h-31.539c-2.024 0-3.67 1.646-3.67 3.67v33.008c0 2.024 1.646 3.67 3.67 3.67h137.846c2.005 0 3.698-1.681 3.698-3.67v-33.008zm140.511 174.601-27.576-22.334-17.081 21.077c-.052.066-.104.132-.159.196l-106.273 131.13-5.69 35.192 33.244-12.861zm24.937-39.053c-.494-4.73-2.78-8.965-6.437-11.927-3.665-2.978-8.285-4.337-13.016-3.842-4.735.497-8.983 2.791-11.963 6.458l-11.069 13.658 27.577 22.335 11.08-13.668c2.962-3.66 4.323-8.282 3.828-13.014zm-252.499 171.686v93.206c0 2.844-1.518 5.474-3.981 6.896l-80.697 46.589c-1.232.711-2.607 1.067-3.981 1.067s-2.749-.356-3.981-1.067l-80.698-46.589c-2.463-1.422-3.981-4.052-3.981-6.896v-93.206c0-2.844 1.518-5.474 3.981-6.896l80.698-46.59c2.463-1.422 5.498-1.422 7.963 0l80.697 46.59c2.462 1.423 3.98 4.052 3.98 6.896zm-153.435.001 64.775 37.421 64.788-37.412-64.789-37.405zm-7.961 88.608 64.772 37.394v-74.79l-64.772-37.419zm145.47 0v-74.797l-64.772 37.402v74.789z"/></svg>