<svg id="Layer_1" enable-background="new 0 0 492 492" viewBox="0 0 492 492" xmlns="http://www.w3.org/2000/svg"><g><g><path d="m144.08 468.5c-3.18 0-5.76-2.58-5.76-5.76v-61.67c0-3.18 2.58-5.76 5.76-5.76s5.76 2.58 5.76 5.76v61.67c0 3.18-2.58 5.76-5.76 5.76z"/></g><g><path d="m348.44 468.5c-3.18 0-5.76-2.58-5.76-5.76v-61.67c0-3.18 2.58-5.76 5.76-5.76s5.76 2.58 5.76 5.76v61.67c0 3.18-2.58 5.76-5.76 5.76z"/></g><g><path d="m246.26 269.13c-13.1 0-26.11-4.42-37.62-12.78-.05-.03-.09-.07-.14-.11-26.79-19.57-43.43-58.02-43.43-100.38 0-3.18 2.58-5.76 5.76-5.76s5.76 2.58 5.76 5.76c0 38.81 14.87 73.74 38.81 91.16.04.03.07.05.11.08 9.64 6.97 19.99 10.5 30.75 10.5 10.77 0 21.11-3.53 30.74-10.5.04-.03.08-.06.12-.09 23.47-17.07 38.34-51.3 38.8-89.32.04-3.16 2.61-5.69 5.76-5.69h.07c3.18.04 5.73 2.65 5.69 5.83-.51 41.51-17.14 79.19-43.4 98.39-.05.04-.1.08-.15.12-11.51 8.37-24.52 12.79-37.63 12.79z"/></g><g><path d="m413.92 468.5h-335.32c-3.18 0-5.76-2.58-5.76-5.76v-60.79c0-22.7 7.13-44.35 20.6-62.62 13.48-18.27 32.07-31.46 53.76-38.15l51.52-15.35 7.65-35.37c.67-3.11 3.74-5.08 6.85-4.41s5.08 3.74 4.41 6.85l-8.37 38.7c-.44 2.05-1.97 3.7-3.99 4.3l-54.73 16.3c-39.57 12.21-66.19 48.28-66.19 89.74v55.03h323.79v-55.03c0-41.46-26.62-77.54-66.24-89.76l-54.68-16.29c-2.01-.6-3.54-2.25-3.99-4.3l-8.38-38.7c-.67-3.11 1.3-6.18 4.41-6.85 3.12-.67 6.18 1.3 6.85 4.41l7.65 35.37 51.47 15.33c21.75 6.71 40.33 19.9 53.81 38.17 13.48 18.26 20.6 39.92 20.6 62.62v60.79c.04 3.19-2.54 5.77-5.72 5.77z"/></g><g><path d="m321.68 163.56c-.62 0-1.25-.1-1.87-.31-3.01-1.03-4.61-4.31-3.57-7.32 12.19-35.45 2.08-60.65-30.05-74.9-17.11-7.59-36.07-10.08-54.84-7.21-23.32 3.6-51.5 14.5-53.3 45.98-.06 1.13-.46 2.21-1.13 3.11-.36.63-6.5 11.96-.58 31.28.93 3.04-.78 6.26-3.82 7.2-3.04.93-6.26-.78-7.2-3.82-6.15-20.05-1.76-34.35 1.32-39.92 2.38-29.72 24.67-49.3 62.95-55.21 20.96-3.21 42.14-.42 61.26 8.06 21.6 9.58 35.02 23.85 39.86 42.41 3.58 13.7 2.37 29.43-3.59 46.77-.81 2.38-3.05 3.88-5.44 3.88zm-144.81-40.61c-.03.03-.05.07-.08.1.03-.03.05-.06.08-.1z"/></g><g><path d="m274.74 355.36c-1.53 0-2.99-.61-4.07-1.69l-28.48-28.48c-1.19-1.19-1.8-2.85-1.67-4.54.14-1.68 1-3.22 2.37-4.21l42.62-30.75c2.58-1.86 6.18-1.28 8.04 1.3s1.28 6.18-1.3 8.04l-37.13 26.79 19.62 19.62 44.81-44.81c2.25-2.25 5.9-2.25 8.15 0s2.25 5.9 0 8.15l-48.88 48.88c-1.09 1.1-2.56 1.7-4.08 1.7z"/></g><g><path d="m217.78 355.36c-1.53 0-2.99-.61-4.07-1.69l-48.88-48.88c-2.25-2.25-2.25-5.9 0-8.15s5.9-2.25 8.15 0l44.81 44.81 19.62-19.62-37.14-26.79c-2.58-1.86-3.16-5.46-1.3-8.04s5.46-3.16 8.04-1.3l42.62 30.75c1.37.99 2.24 2.53 2.37 4.21s-.47 3.34-1.67 4.54l-28.48 28.48c-1.07 1.08-2.54 1.68-4.07 1.68z"/></g><g><path d="m246.26 407.7c-3.18 0-5.76-2.58-5.76-5.76v-80.81c0-3.18 2.58-5.76 5.76-5.76s5.76 2.58 5.76 5.76v80.81c0 3.18-2.58 5.76-5.76 5.76z"/></g><g><path d="m311.97 170.03c-30.29 0-50.72-11.89-62.9-22.45-11.23-9.74-17.43-19.91-19.83-24.38-21.4-6.26-45.71 24.57-53.49 37.39-1.65 2.72-5.19 3.59-7.91 1.94s-3.59-5.19-1.95-7.91c1.38-2.28 34.2-55.72 69.6-41.43 1.38.56 2.5 1.63 3.1 3 .05.1 5.52 11.99 18.4 23.02 17.11 14.65 38.64 21.01 64.01 18.92 3.16-.28 5.95 2.1 6.21 5.27s-2.1 5.95-5.27 6.21c-3.42.29-6.75.42-9.97.42z"/></g><g><path d="m332.69 198.51h-15.55c-3.18 0-5.76-2.58-5.76-5.76s2.58-5.76 5.76-5.76h15.55c7.05 0 12.79-5.74 12.79-12.79v-13.06c0-7.06-5.74-12.79-12.79-12.79h-6.99c-3.18 0-5.76-2.58-5.76-5.76s2.58-5.76 5.76-5.76h6.99c13.41 0 24.31 10.91 24.31 24.31v13.06c0 13.4-10.9 24.31-24.31 24.31z"/></g><g><path d="m175.38 198.51h-15.56c-13.41 0-24.31-10.91-24.31-24.31v-13.06c0-13.41 10.91-24.31 24.31-24.31h8.38c3.18 0 5.76 2.58 5.76 5.76s-2.58 5.76-5.76 5.76h-8.38c-7.06 0-12.8 5.74-12.8 12.79v13.06c0 7.06 5.74 12.79 12.8 12.79h15.56c3.18 0 5.76 2.58 5.76 5.76s-2.58 5.76-5.76 5.76z"/></g><g><path d="m345.61 153.62c-3.18 0-5.76-2.58-5.76-5.76v-56.53c0-30.23-24.6-54.83-54.83-54.83h-77.52c-30.23 0-54.83 24.6-54.83 54.83v56.51c0 3.18-2.58 5.76-5.76 5.76s-5.76-2.58-5.76-5.76v-56.51c0-36.59 29.76-66.35 66.35-66.35h77.53c36.59 0 66.35 29.77 66.35 66.35v56.53c-.01 3.18-2.59 5.76-5.77 5.76z"/></g><g><path d="m266.65 230.8c-2.55 0-4.88-1.71-5.57-4.29-.81-3.08 1.03-6.23 4.1-7.04 33.02-8.7 67.15-31.54 67.49-31.77 2.64-1.78 6.22-1.08 8 1.56s1.08 6.22-1.55 7.99c-1.46.98-36.05 24.15-70.99 33.36-.5.12-1 .19-1.48.19z"/></g><g><path d="m253.01 247.48c-10.85 0-19.68-8.83-19.68-19.68s8.83-19.68 19.68-19.68 19.68 8.83 19.68 19.68-8.83 19.68-19.68 19.68zm0-27.83c-4.5 0-8.16 3.66-8.16 8.16s3.66 8.16 8.16 8.16 8.16-3.66 8.16-8.16-3.66-8.16-8.16-8.16z"/></g></g></svg>