<svg id="Layer_1" height="512" viewBox="0 0 52 52" width="512" xmlns="http://www.w3.org/2000/svg"><g fill="rgb(0,0,0)"><path d="m49 21c-.553 0-1 .447-1 1v17c0 .552-.448 1-1 1h-42c-.552 0-1-.448-1-1v-28c0-.552.448-1 1-1h15c.553 0 1-.447 1-1s-.447-1-1-1h-15c-1.654 0-3 1.346-3 3v28c0 1.654 1.346 3 3 3h42c1.654 0 3-1.346 3-3v-17c0-.553-.447-1-1-1z"/><path d="m34 48h-2v-3c0-.553-.447-1-1-1s-1 .447-1 1v3h-8v-3c0-.553-.447-1-1-1s-1 .447-1 1v3h-2c-.553 0-1 .447-1 1s.447 1 1 1h16c.553 0 1-.447 1-1s-.447-1-1-1z"/><path d="m17 33c-.553 0-1 .447-1 1s.447 1 1 1h26c.553 0 1-.447 1-1s-.447-1-1-1z"/><path d="m9 33c-.553 0-1 .447-1 1s.447 1 1 1h3c.553 0 1-.447 1-1s-.447-1-1-1z"/><path d="m23.643 18.234 1.596.319c.104.285.219.564.346.836l-.902 1.353c-.539.808-.432 1.893.255 2.579l1.742 1.741c.685.686 1.768.796 2.578.256l1.36-.906c.274.129.551.245.828.348l.319 1.598c.19.952 1.033 1.642 2.004 1.642h2.463c.971 0 1.813-.69 2.004-1.643l.319-1.597c.285-.104.564-.219.836-.345l1.354.903c.807.536 1.892.429 2.577-.257l1.742-1.741c.687-.687.794-1.771.255-2.579l-.906-1.359c.13-.274.246-.552.349-.828l1.597-.32c.951-.19 1.641-1.032 1.641-2.003v-2.464c0-.97-.69-1.812-1.643-2.003l-1.596-.319c-.104-.286-.219-.564-.345-.836l.901-1.353c.539-.808.432-1.893-.255-2.579l-1.742-1.741c-.685-.685-1.768-.796-2.578-.256l-1.36.906c-.274-.129-.551-.245-.828-.348l-.319-1.598c-.19-.95-1.033-1.64-2.004-1.64h-2.463c-.971 0-1.813.69-2.004 1.642l-.319 1.597c-.279.103-.558.219-.831.348l-1.358-.907c-.808-.537-1.893-.429-2.577.257l-1.742 1.741c-.687.687-.794 1.771-.255 2.579l.907 1.359c-.128.273-.244.55-.346.828l-1.601.32c-.952.191-1.642 1.034-1.642 2.004v2.464c0 .969.69 1.812 1.643 2.002zm.392-4.508 2.169-.434c.362-.072.656-.34.762-.694.159-.533.381-1.063.657-1.577.176-.325.157-.722-.048-1.029l-1.225-1.899 1.797-1.747 1.842 1.229c.308.206.705.226 1.031.047.512-.277 1.043-.499 1.577-.658.355-.105.623-.398.695-.762l.477-2.202 2.506.034.432 2.166c.072.363.34.656.694.762.523.156 1.055.379 1.577.66.325.176.723.157 1.029-.048l1.899-1.224 1.747 1.797-1.224 1.836c-.206.309-.224.705-.047 1.031.266.491.486 1.024.653 1.584.106.354.399.621.762.693l2.166.434.037.043-.035 2.506-2.165.433c-.363.072-.656.34-.762.694-.156.522-.378 1.053-.661 1.576-.176.326-.157.723.048 1.03l1.225 1.899-1.797 1.747-1.836-1.225c-.307-.205-.704-.223-1.03-.048-.493.267-1.026.487-1.585.654-.354.106-.621.399-.693.762l-.478 2.204-2.506-.035-.433-2.166c-.072-.363-.34-.656-.694-.762-.523-.156-1.055-.379-1.577-.66-.148-.08-.312-.12-.475-.12-.194 0-.388.057-.555.168l-1.899 1.224-1.747-1.797 1.225-1.836c.206-.309.224-.705.047-1.031-.268-.494-.487-1.026-.654-1.584-.106-.354-.399-.621-.762-.693l-2.201-.477z"/><path d="m35 21c3.309 0 6-2.691 6-6 0-.404-.04-.808-.119-1.199-.109-.541-.636-.891-1.179-.782-.541.11-.892.638-.782 1.179.054.261.08.531.08.802 0 2.206-1.794 4-4 4s-4-1.794-4-4 1.794-4 4-4c.271 0 .54.026.802.08.539.11 1.068-.241 1.179-.782.109-.541-.241-1.068-.782-1.179-.392-.079-.796-.119-1.199-.119-3.309 0-6 2.691-6 6s2.691 6 6 6z"/></g></svg>