<svg height="491pt" viewBox="-56 0 491 491.994" width="491pt" xmlns="http://www.w3.org/2000/svg"><path d="m48.09375 424c1.414062 0 2.804688-.074219 4.1875-.195312h.054688 111.152343v16.832031c.03125 28.304687 22.96875 51.242187 51.273438 51.273437h155.59375c.753906.054688 1.515625.082032 2.285156.082032 3.328125-.039063 6.003906-2.753907 6-6.082032 0-3.3125-2.6875-6-6-6h-1.78125c-9.582031-.929687-16.898437-8.976562-16.910156-18.605468v-99.898438c-.03125-28.308594-22.96875-51.246094-51.273438-51.277344h-75.121093v-304.128906c0-3.3125-2.6875-6-6-6-8.554688 0-13.125 3.078125-16.800782 5.550781-3.019531 2.035157-5.199218 3.5-10.09375 3.5-4.890625 0-7.070312-1.46875-10.089844-3.5-3.667968-2.472656-8.234374-5.550781-16.789062-5.550781s-13.121094 3.078125-16.792969 5.550781c-3.019531 2.035157-5.203125 3.5-10.089843 3.5-4.890626 0-7.070313-1.46875-10.089844-3.5-3.671875-2.472656-8.242188-5.550781-16.792969-5.550781s-13.121094 3.078125-16.792969 5.550781c-3.019531 2.035157-5.199218 3.5-10.089844 3.5-4.886718 0-7.066406-1.46875-10.085937-3.5-3.671875-2.472656-8.242187-5.550781-16.792969-5.550781-8.554687 0-13.121094 3.078125-16.792968 5.550781-3.019532 2.035157-5.199219 3.5-10.085938 3.5s-7.070312-1.46875-10.085938-3.5c-3.671874-2.472656-8.242187-5.550781-16.792968-5.550781-3.3125 0-6 2.6875-6 6v370.40625c.03125 26.273438 21.324218 47.5625 47.597656 47.59375zm31.769531-12.191406c10.070313-9.011719 15.828125-21.886719 15.824219-35.402344v-20.371094c0-18.722656 15.175781-33.902344 33.898438-33.902344 18.722656 0 33.902343 15.179688 33.902343 33.902344v55.777344zm222.8125-89.675782c21.679688.023438 39.25 17.59375 39.273438 39.273438v99.902344c-.007813 6.726562 2.207031 13.265625 6.300781 18.601562h-133.488281c-21.679688-.023437-39.25-17.59375-39.273438-39.273437v-84.601563c.003907-12.910156-5.4375-25.21875-14.988281-33.902344zm-290.179687-309.03125c1.433594.667969 2.804687 1.472657 4.085937 2.398438 3.671875 2.472656 8.238281 5.550781 16.792969 5.550781s13.121094-3.078125 16.789062-5.550781c3.019532-2.03125 5.203126-3.5 10.089844-3.5 4.886719 0 7.066406 1.46875 10.085938 3.5 3.671875 2.472656 8.242187 5.550781 16.792968 5.550781 8.554688 0 13.125-3.078125 16.792969-5.550781 3.019531-2.03125 5.203125-3.5 10.089844-3.5 4.890625 0 7.070313 1.472656 10.089844 3.5 3.671875 2.476562 8.238281 5.554688 16.792969 5.554688 8.554687 0 13.121093-3.078126 16.792968-5.550782 3.019532-2.035156 5.199219-3.5 10.089844-3.5s7.070312 1.46875 10.089844 3.5c3.671875 2.472656 8.242187 5.550782 16.800781 5.550782s13.125-3.078126 16.800781-5.550782c1.28125-.933594 2.652344-1.738281 4.089844-2.410156v297.039062h-84.558594c-.125 0-.25 0-.375.011719-.347656-.007812-.695312-.011719-1.039062-.011719-25.339844.03125-45.871094 20.5625-45.902344 45.902344v20.371094c0 19.660156-15.9375 35.597656-35.59375 35.597656-19.660156 0-35.597656-15.9375-35.597656-35.597656zm0 0"/><path d="m76.308594 98.164062c0 3.3125 2.683594 6 6 6h101.640625c3.3125 0 6-2.6875 6-6s-2.6875-6-6-6h-101.640625c-3.316406 0-6 2.6875-6 6zm0 0"/><path d="m44.101562 104.164062h16.464844c3.316406 0 6-2.6875 6-6s-2.683594-6-6-6h-16.464844c-3.3125 0-6 2.6875-6 6s2.6875 6 6 6zm0 0"/><path d="m183.949219 135.480469h-101.640625c-3.316406 0-6 2.6875-6 6s2.683594 6 6 6h101.640625c3.3125 0 6-2.6875 6-6s-2.6875-6-6-6zm0 0"/><path d="m44.101562 147.480469h16.464844c3.316406 0 6-2.6875 6-6s-2.683594-6-6-6h-16.464844c-3.3125 0-6 2.6875-6 6s2.6875 6 6 6zm0 0"/><path d="m183.949219 178.800781h-101.640625c-3.316406 0-6 2.683594-6 6 0 3.3125 2.683594 6 6 6h101.640625c3.3125 0 6-2.6875 6-6 0-3.316406-2.6875-6-6-6zm0 0"/><path d="m44.101562 190.800781h16.464844c3.316406 0 6-2.6875 6-6 0-3.316406-2.683594-6-6-6h-16.464844c-3.3125 0-6 2.683594-6 6 0 3.3125 2.6875 6 6 6zm0 0"/><path d="m183.949219 222.113281h-101.640625c-3.316406 0-6 2.6875-6 6s2.683594 6 6 6h101.640625c3.3125 0 6-2.6875 6-6s-2.6875-6-6-6zm0 0"/><path d="m44.101562 234.113281h16.464844c3.316406 0 6-2.6875 6-6s-2.683594-6-6-6h-16.464844c-3.3125 0-6 2.6875-6 6s2.6875 6 6 6zm0 0"/><path d="m183.949219 260.429688h-101.640625c-3.316406 0-6 2.6875-6 6s2.683594 6 6 6h101.640625c3.3125 0 6-2.6875 6-6s-2.6875-6-6-6zm0 0"/><path d="m44.101562 272.429688h16.464844c3.316406 0 6-2.6875 6-6s-2.683594-6-6-6h-16.464844c-3.3125 0-6 2.6875-6 6s2.6875 6 6 6zm0 0"/><path d="m44.101562 60.847656h72.726563c3.316406 0 6-2.6875 6-6s-2.683594-6-6-6h-72.726563c-3.3125 0-6 2.6875-6 6s2.6875 6 6 6zm0 0"/><path d="m224.6875 426.953125c-.039062 0-.078125-.003906-.121094-.003906-.039062 0-.078125 0-.121094.003906-6.296874-.066406-11.367187-5.191406-11.371093-11.488281 0-3.3125-2.6875-6-6-6-3.316407 0-6 2.6875-6 6 .011719 10.660156 7.191406 19.980468 17.492187 22.714844v5.1875c0 3.316406 2.6875 6 6 6 3.316406 0 6-2.683594 6-6v-5.1875c11.417969-3.011719 18.824219-14.03125 17.304688-25.738282-1.519532-11.710937-11.496094-20.472656-23.304688-20.46875-6.351562 0-11.5-5.148437-11.5-11.5 0-6.351562 5.148438-11.5 11.5-11.5 6.351563 0 11.5 5.148438 11.5 11.5 0 3.3125 2.6875 6 6 6 3.316406 0 6-2.6875 6-6-.015625-10.660156-7.195312-19.980468-17.5-22.710937v-4.394531c0-3.3125-2.683594-6-6-6-3.3125 0-6 2.6875-6 6v4.394531c-11.398437 3.027343-18.785156 14.039062-17.265625 25.734375 1.519531 11.695312 11.472657 20.457031 23.265625 20.476562 6.3125.015625 11.433594 5.117188 11.464844 11.429688.035156 6.3125-5.03125 11.46875-11.34375 11.550781zm0 0"/><path d="m277.566406 439.367188h28.96875c3.3125 0 6-2.683594 6-6 0-3.3125-2.6875-6-6-6h-28.96875c-3.3125 0-6 2.6875-6 6 0 3.316406 2.6875 6 6 6zm0 0"/><path d="m277.566406 404.367188h28.96875c3.3125 0 6-2.683594 6-6 0-3.3125-2.6875-6-6-6h-28.96875c-3.3125 0-6 2.6875-6 6 0 3.316406 2.6875 6 6 6zm0 0"/><path d="m277.566406 369.367188h28.96875c3.3125 0 6-2.683594 6-6 0-3.3125-2.6875-6-6-6h-28.96875c-3.3125 0-6 2.6875-6 6 0 3.316406 2.6875 6 6 6zm0 0"/></svg>