<?xml version="1.0" encoding="UTF-8"?>
<svg id="Layer_1" xmlns="http://www.w3.org/2000/svg" version="1.1" viewBox="0 0 1000 1000">
  <!-- Generator: Adobe Illustrator 29.5.0, SVG Export Plug-In . SVG Version: 2.1.0 Build 137)  -->
  <defs>
    <style>
      .st0 {
        display: none;
      }
    </style>
  </defs>
  <path class="st0" d="M156.66,690.45c-11.62,0-21.12-3.86-28.52-11.57-7.41-7.7-11.12-17.06-11.12-28.07v-109.02h47.75v100.91h164.88v-321.64h47.75v329.75c0,11.41-3.86,20.87-11.57,28.38-7.7,7.51-17.06,11.26-28.07,11.26h-181.09ZM605.33,690.45c-14.48,0-26.21-4.66-35.19-13.98-8.97-9.33-13.46-20.89-13.46-34.67v-63.97h47.75v64.87h202.72v-118.03h-216.23c-10.39,0-18.7-3.11-24.92-9.32-6.21-6.22-9.32-14.53-9.32-24.92v-120.73c0-13.79,4.49-25.35,13.46-34.67,8.99-9.32,20.72-13.98,35.19-13.98h200.91c13.79,0,25.35,4.62,34.67,13.86,9.32,9.24,13.98,20.69,13.98,34.34v64.42h-47.75v-64.87h-202.72v118.03h216.23c9.71,0,17.84,3.11,24.4,9.32,6.56,6.22,9.84,14.53,9.84,24.92v120.73c0,13.78-4.66,25.33-13.98,34.67-9.32,9.32-20.88,13.98-34.67,13.98h-200.91Z"/>
  <path class="st0" d="M502.05,823.36v-28.25h270.82c9.23,0,17.45-2.95,24.65-8.86,7.2-5.91,10.8-13.66,10.8-23.26v-299.62c0-81.23-30.46-148.7-91.38-202.42-60.92-53.72-133.1-80.58-216.55-80.58s-155.63,26.86-216.55,80.58c-60.92,53.72-91.38,121.2-91.38,202.42v242.02h-13.85c-15.88,0-29.54-5.17-40.98-15.51-11.45-10.34-17.17-23.45-17.17-39.32v-80.86c0-12.55,4.43-23.17,13.29-31.85s19.01-16.15,30.46-22.43v-52.61c0-43.94,9.14-84.92,27.41-122.95,18.28-38.03,42.64-70.98,73.11-98.86s66.09-49.66,106.89-65.35c40.8-15.69,83.72-23.54,128.76-23.54s87.87,7.85,128.49,23.54c40.61,15.69,76.24,37.48,106.89,65.35,30.65,27.88,55.01,60.74,73.11,98.58,18.09,37.84,27.32,78.92,27.69,123.23v52.06c10.71,4.8,20.68,11.17,29.91,19.11,9.23,7.94,13.85,18,13.85,30.18v93.04c0,12.18-4.62,22.25-13.85,30.18-9.23,7.94-19.2,14.31-29.91,19.11v56.49c0,16.98-6.18,31.29-18.55,42.92s-27.41,17.45-45.14,17.45h-270.82ZM391.29,547.56c-8.12,0-15.14-2.58-21.05-7.75s-8.86-11.63-8.86-19.38,2.95-14.49,8.86-20.21,12.92-8.58,21.05-8.58,14.58,2.86,20.49,8.58c5.91,5.72,8.86,12.46,8.86,20.21s-2.95,14.21-8.86,19.38c-5.91,5.17-12.74,7.75-20.49,7.75ZM610.05,547.56c-8.12,0-15.14-2.58-21.05-7.75-5.91-5.17-8.86-11.63-8.86-19.38s2.95-14.49,8.86-20.21c5.91-5.72,12.92-8.58,21.05-8.58s14.58,2.86,20.49,8.58c5.91,5.72,8.86,12.46,8.86,20.21s-2.95,14.21-8.86,19.38c-5.91,5.17-12.74,7.75-20.49,7.75ZM279.41,477.22c-3.32-61.29,17.17-113.35,61.47-156.18,44.31-42.83,98.21-64.24,161.72-64.24,53.17,0,100.7,15.69,142.61,47.08,41.91,31.38,67.66,72.92,77.26,124.61-55.38-.74-106.98-14.4-154.79-40.98-47.81-26.58-84.46-64.24-109.93-112.98-9.97,47.63-30.92,89.07-62.86,124.33s-70.43,61.38-115.47,78.37Z"/>
  <path class="st0" d="M262.87,620.13h291.16v-28.18h-291.16v28.18ZM262.87,488.64h466.31v-28.18h-466.31v28.18ZM262.87,357.14h466.31v-28.18h-466.31v28.18ZM117.01,886.43V247.13c0-17.96,6.09-33.03,18.27-45.21,12.18-12.18,27.19-18.27,45.03-18.27h631.43c17.84,0,32.85,6.09,45.03,18.27,12.18,12.18,18.27,27.19,18.27,45.05v455.7c0,17.86-6.09,32.87-18.27,45.05-12.18,12.18-27.19,18.27-45.03,18.27H237.46s-120.44,120.44-120.44,120.44ZM225.86,737.81h585.64c8.84,0,16.94-3.68,24.31-11.05,7.37-7.37,11.05-15.47,11.05-24.31V247.2c0-8.84-3.68-16.94-11.05-24.31s-15.47-11.05-24.31-11.05H180.55c-8.84,0-16.94,3.68-24.31,11.05-7.37,7.37-11.05,15.47-11.05,24.31v571.28l80.66-80.66ZM145.19,737.81V211.84v525.97Z"/>
  <path d="M178.3,790.37c-17.87,0-32.91-6.1-45.11-18.3-12.2-12.2-18.3-27.24-18.3-45.13v-456.53c0-17.89,6.1-32.93,18.3-45.13,12.2-12.2,27.24-18.3,45.11-18.3h632.59c17.87,0,32.91,6.1,45.11,18.3,12.2,12.2,18.3,27.24,18.3,45.13v456.53c0,17.89-6.1,32.93-18.3,45.13-12.2,12.2-27.24,18.3-45.11,18.3,0,0-632.59,0-632.59,0ZM494.59,489.55l-351.47-232.75v469.92c0,10.33,3.32,18.82,9.96,25.46s15.13,9.96,25.46,9.96h632.1c10.33,0,18.82-3.32,25.46-9.96s9.96-15.13,9.96-25.46v-469.92l-351.47,232.75ZM494.59,454.95l333.21-219.74H161.38l333.21,219.74ZM143.12,256.8v-21.59,491.51c0,10.33,3.32,18.82,9.96,25.46s15.13,9.96,25.46,9.96h-35.42v-505.35Z"/>
</svg>