<svg viewBox="0 0 24 24" xmlns="http://www.w3.org/2000/svg"><g fill-rule="evenodd"><path d="m.5 5c0-1.38071 1.11929-2.5 2.5-2.5h18c1.3807 0 2.5 1.11929 2.5 2.5v16c0 1.3807-1.1193 2.5-2.5 2.5h-18c-1.38071 0-2.5-1.1193-2.5-2.5zm2.5-1.5c-.82843 0-1.5.67157-1.5 1.5v16c0 .8284.67157 1.5 1.5 1.5h18c.8284 0 1.5-.6716 1.5-1.5v-16c0-.82843-.6716-1.5-1.5-1.5z"/><path d="m5 .5c.27614 0 .5.223858.5.5v4c0 .27614-.22386.5-.5.5s-.5-.22386-.5-.5v-4c0-.276142.22386-.5.5-.5z"/><path d="m12 .5c.2761 0 .5.223858.5.5v4c0 .27614-.2239.5-.5.5s-.5-.22386-.5-.5v-4c0-.276142.2239-.5.5-.5z"/><path d="m19 .5c.2761 0 .5.223858.5.5v4c0 .27614-.2239.5-.5.5s-.5-.22386-.5-.5v-4c0-.276142.2239-.5.5-.5z"/><path d="m.5 5c0-1.38071 1.11929-2.5 2.5-2.5h18c1.3807 0 2.5 1.11929 2.5 2.5v2c0 .27614-.2239.5-.5.5h-22c-.276142 0-.5-.22386-.5-.5zm2.5-1.5c-.82843 0-1.5.67157-1.5 1.5v1.5h21v-1.5c0-.82843-.6716-1.5-1.5-1.5z"/><path d="m16.5984 9.64189c.1942-.18919.5037-.18919.6979 0l2.0526 2.00001c.0966.0941.1511.2232.1511.3581s-.0545.264-.1511.3581l-8.2105 8c-.1942.1892-.5037.1892-.6979 0l-4.78943-4.6667c-.09659-.0941-.15107-.2232-.15107-.3581 0-.1348.05448-.264.15107-.3581l2.05263-2c.19416-.1892.50371-.1892.69786 0l2.38794 2.3267zm.349 1.05621-5.809 5.66c-.1942.1892-.5037.1892-.6979 0l-2.38787-2.3267-1.33616 1.3019 4.07303 3.9686 7.494-7.3019z"/></g></svg>