<svg id="Layer_1" enable-background="new 0 0 512 512" viewBox="0 0 512 512" xmlns="http://www.w3.org/2000/svg"><path clip-rule="evenodd" d="m125.491 134.971h-56.928c-4.418 0-8 3.582-8 8v32.21c0 4.418 3.582 8 8 8h56.928c4.418 0 8-3.582 8-8v-32.21c0-4.419-3.582-8-8-8zm-8 32.21h-40.928v-16.21h40.928zm372.714 327.194c-3.734-49.764-39.397-90.531-85.848-102.708 21.874-10.722 36.974-33.214 36.974-59.173 0-36.316-29.545-65.861-65.861-65.861s-65.862 29.545-65.862 65.861c0 25.959 15.101 48.451 36.975 59.173-46.452 12.177-82.115 52.944-85.849 102.708-.322 4.29 1.163 8.549 4.074 11.688 2.912 3.138 7.049 4.938 11.351 4.938h198.621c4.302 0 8.439-1.8 11.352-4.938 2.91-3.14 4.395-7.399 4.073-11.688zm-164.598-161.881c0-27.494 22.368-49.861 49.862-49.861s49.861 22.368 49.861 49.861-22.367 49.861-49.861 49.861-49.862-22.368-49.862-49.861zm-48.874 162.506c4.133-51.107 47.392-91.058 98.736-91.058s94.602 39.951 98.735 91.058zm28.974-218.128c1.481 1.519 3.506 2.386 5.628 2.413h.098c2.087 0 4.092-.815 5.587-2.274l35.135-34.285h34.992c4.418 0 8-3.582 8-8v-157.911c0-4.418-3.582-8-8-8h-112.33v-46.878c0-11.545-9.392-20.937-20.937-20.937h-211.192c-11.544 0-20.937 9.392-20.937 20.937v179.12c0 11.544 9.393 20.937 20.937 20.937h178.549v12.732c0 4.418 3.582 8 8 8h43.15zm-187.753-259.872h60.659v37.945l-21.633-17.736c-5.038-4.132-12.354-4.133-17.394 0l-21.633 17.735v-37.944zm103.282 59.815v129.178h-178.548c-2.676 0-4.937-2.261-4.937-4.937v-179.119c0-2.676 2.261-4.937 4.937-4.937h59.267v42.768c0 5.36 3.007 10.113 7.848 12.404 1.895.896 3.902 1.336 5.894 1.336 3.096 0 6.15-1.064 8.673-3.132l23.915-19.606 23.916 19.607c4.145 3.397 9.727 4.085 14.567 1.795 4.84-2.291 7.847-7.043 7.847-12.403v-42.769h59.267c2.677 0 4.938 2.261 4.938 4.937v46.878h-29.581c-4.421 0-8.003 3.582-8.003 8zm16 8h141.91v141.91h-30.249c-2.088 0-4.093.816-5.587 2.274l-31.739 30.972-30.088-30.833c-1.506-1.542-3.57-2.413-5.726-2.413h-38.521zm40.069 63.047c-4.418 0-8-3.582-8-8 0-21.442 17.444-38.886 38.887-38.886s38.887 17.444 38.887 38.886c0 18.744-12.992 34.381-30.887 38.069v6.984c0 4.418-3.582 8-8 8s-8-3.582-8-8v-11.269c0-5.756 4.324-10.48 10.059-10.989 11.679-1.036 20.828-11.049 20.828-22.796 0-12.62-10.267-22.886-22.887-22.886s-22.887 10.267-22.887 22.886c0 4.419-3.582 8.001-8 8.001zm37.487 66.643c0 4.66-3.778 8.438-8.438 8.438s-8.438-3.778-8.438-8.438 3.777-8.438 8.438-8.438 8.438 3.778 8.438 8.438z" fill-rule="evenodd"/></svg>