<?xml version="1.0" encoding="UTF-8"?>
<svg id="Layer_1" xmlns="http://www.w3.org/2000/svg" version="1.1" viewBox="0 0 1000 1000">
  <!-- Generator: Adobe Illustrator 29.6.1, SVG Export Plug-In . SVG Version: 2.1.1 Build 9)  -->
  <defs>
    <style>
      .st0 {
        fill: #1f1f1f;
      }
    </style>
  </defs>
  <path class="st0" d="M383.4,461.5c-8.6,0-15.8-2.9-21.7-8.8-5.8-5.8-8.8-13.1-8.8-21.8s2.9-15.9,8.8-21.7c5.8-5.8,13.1-8.6,21.8-8.6s15.8,2.9,21.6,8.7c5.8,5.8,8.7,13,8.7,21.7s-2.9,15.9-8.6,21.7c-5.7,5.8-13,8.8-21.8,8.8ZM271.9,523.1c-7.5,0-13.9-2.7-19.2-8-5.3-5.3-8-11.7-8-19.2v-129.6c0-7.5,2.7-13.9,8-19.2,5.3-5.3,11.7-8,19.2-8h223.2c7.5,0,13.9,2.7,19.2,8,5.3,5.3,8,11.8,8,19.2v129.6c0,7.5-2.7,13.9-8,19.2-5.3,5.3-11.8,8-19.2,8h-223.2ZM284.5,511h198.1c0-7.7,2.7-14.3,8.1-19.8,5.4-5.4,12-8.2,19.6-8.2v-104c-7.7,0-14.3-2.7-19.7-8.2-5.4-5.5-8.1-12.1-8.1-19.7h-198.1c0,7.7-2.7,14.3-8.1,19.8-5.4,5.4-12,8.2-19.6,8.2v104c7.7,0,14.3,2.7,19.7,8.2,5.4,5.5,8.1,12.1,8.1,19.7ZM466.9,573.6h-245.7c-7.5,0-13.9-2.7-19.2-8-5.3-5.3-8-11.7-8-19.2v-151.9h12.1v151.9c0,3.8,1.6,7.3,4.7,10.4,3.2,3.2,6.6,4.7,10.4,4.7h245.7v12.1ZM271.9,511h-15.2v-159.9h15.2c-4.1,0-7.7,1.5-10.7,4.5s-4.5,6.6-4.5,10.7v129.6c0,4.1,1.5,7.7,4.5,10.7,3,3,6.6,4.5,10.7,4.5Z"/>
  <path class="st0" d="M294.5,811.5c-29.2,0-53.8-10.2-73.8-30.7-20-20.4-29.6-45.2-28.9-74.2h-95.6l5.9-28.4h92.7c6.5-21.6,18.9-39.2,37.1-53,18.2-13.8,39.1-20.6,62.7-20.6s44.6,6.9,62.7,20.6c18.1,13.8,30.6,31.4,37.4,53h210l98.3-425H214.5l-.3.7c1.2-8.2,5-15.1,11.6-20.7,6.6-5.6,14.3-8.4,23.3-8.4h489.7l-34,145h82.5l116.6,155-35.7,181.8h-34.6c.4,29-9.5,53.7-29.5,74.2-20.1,20.4-44.7,30.7-73.9,30.7s-53.8-10.2-73.6-30.7c-19.9-20.4-29.6-45.2-29.2-74.2h-229.2c.4,29-9.5,53.7-29.5,74.2-20,20.4-44.7,30.7-73.9,30.7ZM656.7,574.5h208l8.4-42.4-100.5-133.8h-75.2l-40.7,176.2ZM689.1,311.8l13.9-58.6-98.2,425,13.9-58.6,34-151.1,36.2-156.7ZM294.4,783c20.7,0,38.3-7.3,53-22,14.7-14.6,22-32.3,22-53s-7.4-38.3-22.1-53c-14.7-14.7-32.3-22-52.6-22s-38.6,7.4-53.3,22.1c-14.7,14.7-22,32.3-22,52.6s7.3,38.6,22,53.3c14.6,14.7,32.3,22,53,22ZM730,783c20.7,0,38.3-7.3,53-22,14.7-14.6,22-32.3,22-53s-7.4-38.3-22.1-53c-14.7-14.7-32.3-22-52.6-22s-38.6,7.4-53.3,22.1c-14.7,14.7-22,32.3-22,52.6s7.3,38.6,22,53.3c14.6,14.7,32.3,22,53,22Z"/>
</svg>