<?xml version="1.0" encoding="UTF-8" standalone="no"?>
<!-- Created with Inkscape (http://www.inkscape.org/) -->

<svg
   version="1.1"
   id="svg1440"
   xml:space="preserve"
   width="682.66669"
   height="682.66669"
   viewBox="0 0 682.66669 682.66669"
   xmlns="http://www.w3.org/2000/svg"
   xmlns:svg="http://www.w3.org/2000/svg"><defs
     id="defs1444"><clipPath
       clipPathUnits="userSpaceOnUse"
       id="clipPath1454"><path
         d="M 0,512 H 512 V 0 H 0 Z"
         id="path1452" /></clipPath></defs><g
     id="g1446"
     transform="matrix(1.3333333,0,0,-1.3333333,0,682.66667)"><g
       id="g1448"><g
         id="g1450"
         clip-path="url(#clipPath1454)"><g
           id="g1456"
           transform="translate(275.5596,354.2402)"><path
             d="m 0,0 c 13.811,0 25,-14.33 25,-32 0,-17.67 -11.189,-32 -25,-32 -3.909,0 -7.6,1.15 -10.899,3.19"
             style="fill:none;stroke:#000000;stroke-width:15;stroke-linecap:round;stroke-linejoin:round;stroke-miterlimit:10;stroke-dasharray:none;stroke-opacity:1"
             id="path1458" /></g><g
           id="g1460"
           transform="translate(35.5596,354.2402)"><path
             d="m 0,0 c -13.8,0 -25,-14.33 -25,-32 0,-17.67 11.2,-32 25,-32 5.391,0 10.391,2.19 14.48,5.9"
             style="fill:none;stroke:#000000;stroke-width:15;stroke-linecap:round;stroke-linejoin:round;stroke-miterlimit:10;stroke-dasharray:none;stroke-opacity:1"
             id="path1462" /></g><g
           id="g1464"
           transform="translate(127.5,175.4702)"><path
             d="M 0,0 V 27.73"
             style="fill:none;stroke:#000000;stroke-width:15;stroke-linecap:round;stroke-linejoin:round;stroke-miterlimit:10;stroke-dasharray:none;stroke-opacity:1"
             id="path1466" /></g><g
           id="g1468"
           transform="translate(187.5,175.4702)"><path
             d="M 0,0 V 27.73"
             style="fill:none;stroke:#000000;stroke-width:15;stroke-linecap:round;stroke-linejoin:round;stroke-miterlimit:10;stroke-dasharray:none;stroke-opacity:1"
             id="path1470" /></g><g
           id="g1472"
           transform="translate(265.5,338.73)"><path
             d="m 0,0 v -31.8 c 0,-59.61 -48.32,-107.93 -107.93,-107.93 h -0.14 c -59.61,0 -107.93,48.32 -107.93,107.93 V 0"
             style="fill:none;stroke:#000000;stroke-width:15;stroke-linecap:round;stroke-linejoin:round;stroke-miterlimit:10;stroke-dasharray:none;stroke-opacity:1"
             id="path1474" /></g><g
           id="g1476"
           transform="translate(208.75,157.5)"><path
             d="m 0,0 h 6.75 c 50.81,0 92,-41.19 92,-92 v -52 c 0,-3.31 -2.69,-6 -6,-6 h -288 c -3.31,0 -6,2.69 -6,6 v 52 c 0,50.81 41.19,92 92,92 h 6.75"
             style="fill:none;stroke:#000000;stroke-width:15;stroke-linecap:round;stroke-linejoin:round;stroke-miterlimit:10;stroke-dasharray:none;stroke-opacity:1"
             id="path1478" /></g><g
           id="g1480"
           transform="translate(126.3965,175.0225)"><path
             d="m 0,0 -19.434,-16.191 c -0.872,-0.726 -0.964,-2.033 -0.204,-2.876 l 27.782,-30.8 c 0.893,-0.99 2.487,-0.845 3.187,0.289 L 31.104,-17.522 2.327,0.167 C 1.596,0.617 0.659,0.549 0,0 Z"
             style="fill:none;stroke:#000000;stroke-width:15;stroke-linecap:round;stroke-linejoin:round;stroke-miterlimit:10;stroke-dasharray:none;stroke-opacity:1"
             id="path1482" /></g><g
           id="g1484"
           transform="translate(188.6035,175.0225)"><path
             d="m 0,0 19.434,-16.191 c 0.872,-0.726 0.964,-2.033 0.204,-2.876 l -27.782,-30.8 c -0.893,-0.99 -2.487,-0.845 -3.187,0.289 L -31.104,-17.522 -2.327,0.167 C -1.596,0.617 -0.659,0.549 0,0 Z"
             style="fill:none;stroke:#000000;stroke-width:15;stroke-linecap:round;stroke-linejoin:round;stroke-miterlimit:10;stroke-dasharray:none;stroke-opacity:1"
             id="path1486" /></g><g
           id="g1488"
           transform="translate(217.5352,441.8008)"><path
             d="m 0,0 c -3.434,3.125 -8.911,1.229 -9.794,-3.33 -3.038,-15.678 -17.549,-41.94 -82.065,-32.52 -39.231,5.728 -76.176,-35.413 -76.176,-67.217 0,0 -2.535,9.804 -13.938,15.506 0,0 -12.348,43.375 -4.035,80.866 7.654,34.51 52.988,69.394 121.936,69.394 35.908,0 50.798,-8.875 56.409,-14.014 2.364,-2.165 5.35,-3.536 8.548,-3.78 14.814,-1.131 54.931,-8.049 63.598,-49.604 7.179,-34.422 -3.533,-54.554 -6.456,-82.862 -6.297,-4.716 -10.062,-15.506 -10.062,-15.506 0,0 -19.116,36.503 -23.572,63.628 C 21.58,-22.321 8.941,-8.136 0,0 Z"
             style="fill:none;stroke:#000000;stroke-width:15;stroke-linecap:round;stroke-linejoin:round;stroke-miterlimit:10;stroke-dasharray:none;stroke-opacity:1"
             id="path1490" /></g><g
           id="g1492"
           transform="translate(504.5,488.52)"><path
             d="m 0,0 v -284.04 c 0,-8.826 -7.152,-15.98 -15.976,-15.98 h -135.828 c -8.822,0 -15.974,7.154 -15.974,15.98 v 28.557 c 0,2.04 -1.796,3.614 -3.818,3.346 l -46.453,-6.155 c -1.676,-0.222 -2.633,1.856 -1.375,2.986 l 49.443,44.402 c 1.401,1.259 2.203,3.055 2.203,4.94 V 0 c 0,8.826 7.152,15.98 15.974,15.98 H -15.976 C -7.152,15.98 0,8.826 0,0 Z"
             style="fill:none;stroke:#000000;stroke-width:15;stroke-linecap:round;stroke-linejoin:round;stroke-miterlimit:10;stroke-dasharray:none;stroke-opacity:1"
             id="path1494" /></g><g
           id="g1496"
           transform="translate(405.4795,459.6025)"><path
             d="M 0,0 H 62.854"
             style="fill:none;stroke:#000000;stroke-width:15;stroke-linecap:round;stroke-linejoin:round;stroke-miterlimit:10;stroke-dasharray:none;stroke-opacity:1"
             id="path1498" /></g><g
           id="g1500"
           transform="translate(378.333,424.6025)"><path
             d="M 0,0 H 90"
             style="fill:none;stroke:#000000;stroke-width:15;stroke-linecap:round;stroke-linejoin:round;stroke-miterlimit:10;stroke-dasharray:none;stroke-opacity:1"
             id="path1502" /></g><g
           id="g1504"
           transform="translate(378.333,389.6025)"><path
             d="M 0,0 H 90"
             style="fill:none;stroke:#000000;stroke-width:15;stroke-linecap:round;stroke-linejoin:round;stroke-miterlimit:10;stroke-dasharray:none;stroke-opacity:1"
             id="path1506" /></g><g
           id="g1508"
           transform="translate(460.7695,230.6631)"><path
             d="M 0,0 H -77.539 C -85.95,0 -92.77,6.819 -92.77,15.231 v 92.875 c 0,8.412 6.82,15.231 15.231,15.231 H 0 c 8.411,0 15.23,-6.819 15.23,-15.231 V 15.231 C 15.23,6.819 8.411,0 0,0 Z"
             style="fill:none;stroke:#000000;stroke-width:15;stroke-linecap:round;stroke-linejoin:round;stroke-miterlimit:10;stroke-dasharray:none;stroke-opacity:1"
             id="path1510" /></g><g
           id="g1512"
           transform="translate(422,328.4873)"><path
             d="M 0,0 V -41.846"
             style="fill:none;stroke:#000000;stroke-width:15;stroke-linecap:round;stroke-linejoin:round;stroke-miterlimit:10;stroke-dasharray:none;stroke-opacity:1"
             id="path1514" /></g><g
           id="g1516"
           transform="translate(422,265.3076)"><path
             d="M 0,0 V -4.308"
             style="fill:none;stroke:#000000;stroke-width:15;stroke-linecap:round;stroke-linejoin:round;stroke-miterlimit:10;stroke-dasharray:none;stroke-opacity:1"
             id="path1518" /></g><g
           id="g1520"
           transform="translate(173.5,73.1582)"><path
             d="m 0,0 c 0,-8.834 -7.163,-16 -16,-16 -8.832,0 -16,7.159 -16,16 0,8.836 7.164,16 16,16 C -7.164,16 0,8.836 0,0 Z"
             style="fill:none;stroke:#000000;stroke-width:15;stroke-linecap:round;stroke-linejoin:round;stroke-miterlimit:10;stroke-dasharray:none;stroke-opacity:1"
             id="path1522" /></g></g></g></g></svg>
