<svg id="Layer_1" enable-background="new 0 0 512 512" viewBox="0 0 512 512" xmlns="http://www.w3.org/2000/svg"><path d="m332.65 264.76c-15.82 1.04-29.83 9.97-37.85 22.97 2.98-5.89 4.67-12.53 4.67-19.57 0-23.97-19.5-43.47-43.47-43.47s-43.47 19.5-43.47 43.47c0 7.04 1.69 13.69 4.68 19.58-8.02-13-22.04-21.93-37.86-22.98 9.26-7.98 15.13-19.77 15.13-32.92 0-23.97-19.5-43.47-43.47-43.47s-43.47 19.5-43.47 43.47c0 13.15 5.88 24.94 15.13 32.92-25.06 1.61-44.95 22.49-44.95 47.95v42.06c0 3.31 2.69 6 6 6h98.99v18.09c0 10.05 8.18 18.23 18.23 18.23h110.12c10.05 0 18.23-8.18 18.23-18.23v-18.09h98.98c3.31 0 6-2.69 6-6v-42.06c0-25.45-19.9-46.34-44.95-47.95 9.25-7.98 15.13-19.77 15.13-32.92 0-23.97-19.5-43.47-43.47-43.47s-43.47 19.5-43.47 43.47c.01 13.15 5.88 24.94 15.14 32.92zm-48.31 36.32c3.31-2.85 6.19-6.19 8.52-9.92-1.67 3.28-2.98 6.78-3.86 10.44-1.53-.25-3.08-.42-4.66-.52zm-28.34-64.39c17.35 0 31.47 14.12 31.47 31.47s-14.12 31.47-31.47 31.47-31.47-14.12-31.47-31.47 14.12-31.47 31.47-31.47zm-28.34 64.39c-1.58.1-3.13.28-4.66.53-.88-3.66-2.19-7.16-3.86-10.45 2.33 3.72 5.21 7.06 8.52 9.92zm-108.11-69.24c0-17.35 14.12-31.47 31.47-31.47s31.47 14.12 31.47 31.47-14.12 31.47-31.47 31.47-31.47-14.12-31.47-31.47zm-29.83 80.87c0-19.88 16.18-36.06 36.06-36.06h50.47c16.96 0 31.64 12.15 35.22 28.38-16.84 7.42-28.64 24.21-28.75 43.73h-93zm227.57 66.14c0 3.44-2.8 6.23-6.23 6.23h-110.12c-3.44 0-6.23-2.8-6.23-6.23v-29.83c0-19.88 16.17-36.06 36.06-36.06h50.47c19.88 0 36.06 16.17 36.06 36.06v29.83zm104.99-66.14v36.06h-92.99c-.11-19.52-11.91-36.32-28.75-43.73 3.58-16.23 18.25-28.38 35.22-28.38h50.47c19.87-.01 36.05 16.16 36.05 36.05zm-61.29-112.34c17.35 0 31.47 14.12 31.47 31.47s-14.12 31.47-31.47 31.47-31.47-14.12-31.47-31.47 14.11-31.47 31.47-31.47zm97.54-60.16-135.3-78.11c-10.01-27.45-36.37-47.1-67.23-47.1s-57.22 19.65-67.23 47.1l-135.3 78.12c-1.86 1.07-3 3.05-3 5.2v230.38c0 2.14 1.14 4.12 3 5.2l199.53 115.2c.93.54 1.96.8 3 .8s2.07-.27 3-.8l199.53-115.2c1.86-1.07 3-3.05 3-5.2v-230.39c0-2.14-1.15-4.12-3-5.2zm-202.53-113.21c32.82 0 59.53 26.7 59.53 59.53 0 32.82-26.7 59.53-59.53 59.53s-59.53-26.7-59.53-59.53 26.71-59.53 59.53-59.53zm193.53 345.34-193.53 111.73-193.53-111.73v-223.46l122.51-70.73c-.32 2.75-.51 5.54-.51 8.38 0 39.44 32.09 71.53 71.53 71.53s71.53-32.09 71.53-71.53c0-2.84-.18-5.63-.51-8.38l122.51 70.73zm-233.17-284.74c-2.34-2.34-2.34-6.14 0-8.49 2.34-2.34 6.14-2.34 8.48 0l21.47 21.47 40.85-40.85c2.34-2.34 6.14-2.34 8.48 0s2.34 6.14 0 8.49l-45.09 45.09c-1.12 1.12-2.65 1.76-4.24 1.76s-3.12-.63-4.24-1.76z"/></svg>