<svg id="Layer_1" enable-background="new 0 0 512 512" viewBox="0 0 512 512" xmlns="http://www.w3.org/2000/svg"><path d="m92.01 411.24c0 3.31-2.69 6-6 6h-29.71c-3.31 0-6-2.69-6-6s2.69-6 6-6h29.71c3.31 0 6 2.69 6 6zm404.99-142.19v128.83c0 10.27-8.36 18.63-18.63 18.63h-73.88c3.01 11.88 11.05 23.49 23.61 33.92 1.94 1.62 2.67 4.28 1.81 6.65-.86 2.38-3.12 3.96-5.64 3.96h-84.9c-2.53 0-4.78-1.58-5.64-3.96s-.14-5.04 1.81-6.65c12.55-10.43 20.59-22.04 23.61-33.92h-42.17v38.54c0 3.31-2.69 6-6 6h-289.98c-3.31 0-6-2.69-6-6v-44.89c0-26.66 9.5-52.62 26.76-73.11 17.04-20.23 40.61-34 66.37-38.77 6.42-1.19 11.53-4.24 15.62-9.32 3.21-3.98 5.07-6.64 5.82-10.23-15.91-6.97-27.85-21.36-31.42-38.76h-8.78c-12.7 0-23.03-10.33-23.03-23.03v-13.25c0-7.02 3.16-13.31 8.12-17.53v-26.61c0-29.97 18.34-55.74 44.39-66.68-1.74-3.82-2.67-7.99-2.67-12.24 0-16.35 13.3-29.66 29.66-29.66h40.27c16.35 0 29.66 13.3 29.66 29.66 0 4.25-.93 8.42-2.67 12.24 26.05 10.94 44.39 36.7 44.39 66.68v26.61c4.96 4.23 8.12 10.52 8.12 17.53v13.25c0 12.7-10.33 23.03-23.03 23.03h-8.78c-3.57 17.41-15.52 31.79-31.42 38.76.76 3.59 2.62 6.25 5.82 10.23 4.09 5.08 9.2 8.13 15.62 9.32 15.29 2.83 29.88 8.85 42.8 17.58v-46.8c0-10.27 8.36-18.63 18.63-18.63h193.12c10.27-.01 18.63 8.35 18.63 18.62zm-218.37 0v107.39h206.37v-107.39c0-3.66-2.97-6.63-6.63-6.63h-193.12c-3.65 0-6.62 2.98-6.62 6.63zm-67.88 90.65c.22-1.8 1.23-3.4 2.77-4.37l16.43-10.32c.39-.25.56-.77.36-1.11l-19.42-31.63-33.07 91.65 43.25-28.91c.28-.19.36-.31.39-.65.04-.33-.01-.47-.25-.71l-8.8-9.05c-1.26-1.3-1.87-3.1-1.66-4.9zm42.86-156.02c0-6.08-4.95-11.03-11.03-11.03h-7.68v35.31h7.68c6.08 0 11.03-4.95 11.03-11.03zm-123.19-114.55c5.25-1.22 10.72-1.88 16.34-1.88h38.45c5.62 0 11.08.67 16.34 1.88 1.44-2.6 2.23-5.53 2.23-8.52 0-9.74-7.92-17.66-17.66-17.66h-40.27c-9.74 0-17.66 7.92-17.66 17.66 0 3 .79 5.92 2.23 8.52zm-43.94 91.71c.95-.12 1.92-.19 2.91-.19h7.99c1.6-8.89 9.37-15.66 18.71-15.66h45.54l43.1-17.89c6.14-2.55 13.01-1.78 18.84 2.12 6.88 4.6 11.33 12.78 11.33 20.84v10.59h7.68c.99 0 1.96.07 2.91.19v-21.31c0-33.24-27.04-60.28-60.28-60.28h-38.45c-33.24 0-60.28 27.04-60.28 60.28zm2.9 47.12h7.68v-35.31h-7.68c-6.08 0-11.03 4.95-11.03 11.03v13.25c0 6.08 4.95 11.03 11.03 11.03zm61.89 43.31h29.42c23.28 0 42.21-18.94 42.21-42.21v-59c0-4.04-2.47-8.51-6-10.86-1.75-1.17-4.5-2.3-7.58-1.02l-44.21 18.35c-.73.3-1.51.46-2.3.46h-46.74c-3.88 0-7.03 3.15-7.03 7.03v45.04c.02 23.27 18.96 42.21 42.23 42.21zm-10.2 11.02c-1.43 5.65-4.39 9.76-7.96 14.19-1.13 1.4-2.32 2.69-3.57 3.89l36.44 101.01 36.44-101.01c-1.25-1.2-2.44-2.49-3.57-3.89-3.57-4.44-6.53-8.54-7.96-14.19-3.31.63-6.72.98-10.21.98h-29.42c-3.48 0-6.88-.35-10.19-.98zm-21.52 82.31-8.8 9.05c-.23.24-.28.38-.25.72.04.34.11.46.39.65l43.25 28.91-33.07-91.66-19.42 31.63c-.21.33-.04.86.36 1.11l16.43 10.32c1.53.96 2.55 2.57 2.77 4.37s-.39 3.6-1.66 4.9zm185.41 51.91h-19.71c-10.27 0-18.63-8.36-18.63-18.63v-67.14c-12.5-10.02-27.18-16.96-42.73-20.21l16.64 27.1c3.64 5.93 1.76 13.81-4.2 17.55l-10.15 6.37 3.63 3.73c2.72 2.79 3.99 6.46 3.58 10.34s-2.42 7.2-5.66 9.37l-58.42 39.06c-.09.06-.19.11-.28.16-.11.07-.23.13-.34.19-.17.09-.35.16-.53.23-.11.04-.22.09-.34.13-.2.07-.41.11-.62.16-.1.02-.19.05-.29.06-.31.05-.62.08-.93.08s0 0 0 0c-.31 0-.62-.03-.93-.08-.1-.02-.19-.04-.29-.06-.21-.04-.41-.09-.62-.15-.12-.04-.23-.09-.34-.13-.18-.07-.36-.14-.53-.23-.12-.06-.23-.13-.35-.2-.09-.06-.19-.1-.28-.16l-58.42-39.06c-3.24-2.16-5.25-5.49-5.66-9.37-.41-3.87.86-7.55 3.58-10.34l3.63-3.73-10.15-6.37c-5.96-3.74-7.84-11.61-4.2-17.55l16.63-27.08c-47.1 9.81-81.05 51.32-81.05 99.6v38.89h277.96zm87.22 0h-20.74c-2.24 11.35-8.06 22.36-17.17 32.54h55.08c-9.11-10.18-14.93-21.2-17.17-32.54zm92.82-18.63v-9.44h-206.37v9.44c0 3.66 2.97 6.63 6.63 6.63h193.12c3.65 0 6.62-2.97 6.62-6.63zm-127.87-78.45c0-13.61 11.07-24.69 24.68-24.69s24.69 11.07 24.69 24.69c0 13.61-11.07 24.69-24.69 24.69s-24.68-11.08-24.68-24.69zm12 0c0 6.99 5.69 12.69 12.68 12.69 7 0 12.69-5.69 12.69-12.69s-5.69-12.69-12.69-12.69c-6.99 0-12.68 5.7-12.68 12.69z"/></svg>