<?xml version="1.0" encoding="UTF-8"?>
<svg id="Layer_1" xmlns="http://www.w3.org/2000/svg" version="1.1" viewBox="0 0 2500 2500">
  <!-- Generator: Adobe Illustrator 30.2.1, SVG Export Plug-In . SVG Version: 2.1.1 Build 1)  -->
  <defs>
    <style>
      .st0 {
        fill: #caddff;
      }

      .st1 {
        fill: #fff;
      }

      .st2 {
        fill: #99b9ff;
      }

      .st3 {
        fill: #5479f7;
      }
    </style>
  </defs>
  <g id="Illustration">
    <g id="Multi_device_targeting">
      <path class="st0" d="M777.86,795.56c191.55-192.79,136.71-313.61,267.78-402.87,201.68-137.34,578.08-19.18,800.14,169.73,271.98,231.38,412.3,653.85,252.45,1036.04-170.23,407.03-618.15,618.31-1017.82,554.64-356.91-56.86-707.76-338.15-742.92-675.52-3.81-36.57-20.63-234.24,97.34-404.66,97.51-140.86,191.18-124.53,343.02-277.35Z"/>
      <path class="st2" d="M2077.17,1416.03l-354.88,354.88c-13.07,13.07-13.07,34.26,0,47.32s34.26,13.07,47.32,0l354.88-354.88c13.07-13.07,13.07-34.26,0-47.32s-34.26-13.07-47.32,0Z"/>
      <g>
        <path class="st2" d="M1959.36,1411.59l-186.1,186.1c-11.52,11.52-11.52,30.2,0,41.72s30.2,11.52,41.72,0l186.1-186.1c11.52-11.52,11.52-30.2,0-41.72-11.52-11.52-30.2-11.52-41.72,0Z"/>
        <circle class="st2" cx="2044.13" cy="1368.69" r="29.5"/>
      </g>
      <g>
        <g>
          <g>
            <path class="st3" d="M786.82,1617.41s-5.1,38.6,0,45.23c4.7,6.11,137.83,10.27,165.1-5.34,27.27-15.62-56.02-45.4-56.02-45.4l-109.08,5.52Z"/>
            <path d="M854.83,1658c-39.83,0-62.97-7.54-64.47-8.04-1.73-.58-2.66-2.46-2.08-4.19.58-1.73,2.46-2.67,4.19-2.09.57.19,58.23,18.87,148.74-3.22,1.77-.44,3.57.66,4,2.43.43,1.78-.66,3.57-2.43,4-34.55,8.43-64.21,11.11-87.94,11.11Z"/>
            <path d="M870.98,1637.06c-.88,0-1.75-.35-2.4-1.03-1.26-1.33-1.2-3.42.12-4.68l19.08-18.1c1.32-1.26,3.41-1.2,4.68.12,1.26,1.33,1.2,3.42-.12,4.68l-19.08,18.1c-.64.61-1.46.91-2.28.91Z"/>
            <path d="M902.28,1637.06c-.7,0-1.41-.22-2-.68-1.45-1.11-1.73-3.18-.63-4.64l8.83-11.58c1.11-1.45,3.19-1.73,4.64-.63,1.45,1.11,1.73,3.18.63,4.64l-8.83,11.58c-.65.85-1.64,1.3-2.63,1.3Z"/>
          </g>
          <g>
            <path class="st3" d="M529.33,1625.92s-17.09,20.57-14.06,40.27,109.17,11.33,113.34,4.81c6.01-9.4-.42-35.93-15.1-50.51-14.68-14.58-84.18,5.43-84.18,5.43Z"/>
            <path d="M577.65,1667.51c-29.6,0-54.6-5.89-56.17-6.26-1.78-.43-2.87-2.21-2.44-3.99.43-1.78,2.21-2.87,3.99-2.45.56.14,57.01,13.41,99.73.06,1.75-.55,3.6.43,4.15,2.17.54,1.74-.43,3.6-2.17,4.15-15.18,4.74-31.75,6.32-47.08,6.32Z"/>
          </g>
          <path d="M548.05,875c-8.36,74.23-14.39,136.54-18.55,182.37-17.58,193.82-26.37,290.73-22.35,336.83,4.92,56.41,15.09,93.01-1.75,136.8-1.96,5.09-12.85,32.57-13.24,69.13-.2,18.87-.16,35.39,10.08,42.69,14.27,10.18,34.08-7.69,67.98-12.06,29.95-3.86,56.23,4.71,74.91,13.5,8.24-81.33,16.09-162.72,23.53-244.16,10.04-109.78,19.36-219.6,27.95-329.47,15.88,50.6,24.82,92.54,29.96,120.53,30.15,163.99,46.79,254.5,27.4,353.09-3.65,18.55-12.77,58.72,7.35,76.48,10.04,8.87,24.19,9.35,62.69,4.82,27.59-3.24,64.02-8.63,106.85-18.1-15.08-154.32-40.34-323.33-80.86-503.42-20.31-90.25-42.8-175.97-66.61-256.97-78.45,9.32-156.89,18.63-235.34,27.95Z"/>
          <path class="st0" d="M696.29,1077.98c-1.83,0-3.31-1.48-3.31-3.31,0-2.23,1.83-61.58,1.91-64.11.04-1.37.93-2.58,2.22-3.03l31.9-11.03c1.73-.6,3.61.32,4.21,2.05.6,1.73-.32,3.61-2.05,4.21l-29.74,10.29c-.57,18.56-1.84,59.93-1.84,61.62,0,1.83-1.48,3.31-3.31,3.31Z"/>
        </g>
        <g>
          <g>
            <polygon class="st1" points="923.27 594.18 1137.24 672.77 961.06 694.94 896.04 663.17 923.27 594.18"/>
            <path d="M961.06,698.25c-.5,0-1-.11-1.45-.34l-65.02-31.77c-1.55-.76-2.26-2.58-1.63-4.19l27.23-68.99c.66-1.67,2.53-2.51,4.22-1.89l213.97,78.59c1.43.53,2.32,1.97,2.15,3.48-.17,1.52-1.36,2.72-2.87,2.91l-176.18,22.17c-.14.02-.28.03-.41.03ZM900.24,661.54l61.38,30,161.7-20.35-198.16-72.79-24.92,63.14Z"/>
          </g>
          <path class="st3" d="M939.73,575.46l1.58,139.06-67.4,16.72s-25.14,37.31-27.53,182.36c0,0-11.41,9.94-32.78,16.52-42.09,12.97-80.6.08-92.56-3.62-34.9-10.8-69.67,116.86-209.4,46.1,0,0-25.45-277.32,46.15-396.22,22.95-38.11,45.23-52.1,52.08-56.12,55.1-32.38,127.08-16.73,184.49-4.24,33.05,7.19,79.95,33.39,145.38,59.43Z"/>
          <path class="st1" d="M726.05,698.25c-.83,0-1.66-.31-2.31-.94-1.31-1.27-1.34-3.37-.06-4.68l9.37-9.65c-25.53-25.15-41.59-55.68-52.78-79.69-.77-1.66-.06-3.63,1.6-4.4,1.66-.78,3.62-.06,4.4,1.6,11.3,24.22,27.62,55.2,53.75,80.01.64.61,1.01,1.45,1.03,2.33.02.88-.32,1.74-.94,2.37l-11.69,12.02c-.65.67-1.51,1-2.37,1Z"/>
          <path class="st1" d="M613.65,798.23c-.76,0-1.52-.26-2.13-.77-39.17-32.84-49.69-90.91-50.11-93.36-.32-1.8.89-3.51,2.69-3.83,1.81-.31,3.52.89,3.83,2.69.1.57,10.21,56.18,45.93,87.78l9.87-6.92c1.49-1.05,3.56-.69,4.61.81,1.05,1.5.68,3.56-.81,4.61l-11.98,8.4c-.57.4-1.24.6-1.9.6Z"/>
        </g>
        <g>
          <g>
            <path class="st1" d="M708.04,487.84l45.53-58.03s-5.78,4.88-10.88,3.21c-7.41-2.42-2.23-32.86,5.05-34.17,7.28-1.31,9.38,4.3,9.38,4.3l31.6-25.16,59.27,31.1c-3.02,22.74-16.99,29.69-20.18,39.03-3.88,11.37-1.71,17.96-2.34,30.83l-8.86.99c-18.4,22.71-22.33,19.61-29.84,20.08-3.42.13-8.26-.36-14.04-3.2l-4.77,9.72,29.82,14.28s-51.82,27.46-166.33-7.35l76.59-25.63Z"/>
            <path d="M737.28,534.51c-26.49,0-61.83-4.21-106.79-17.88-1.38-.42-2.33-1.68-2.35-3.12-.02-1.44.89-2.73,2.26-3.18l75.65-25.31,37.95-48.37c-.77-.07-1.56-.22-2.34-.48-4.42-1.45-6.42-7.11-5.78-16.38.43-6.24,3.3-22.76,11.27-24.19,4.99-.9,8.47.76,10.62,2.81l28.9-23c1.03-.82,2.44-.95,3.6-.34l59.27,31.1c1.23.64,1.92,1.99,1.74,3.36-2.09,15.76-9.3,24.59-14.56,31.04-2.6,3.19-4.85,5.94-5.76,8.63-2.43,7.12-2.3,12.26-2.14,18.76.08,3.22.17,6.86-.04,11.16-.08,1.62-1.32,2.95-2.94,3.13l-7.52.84c-15.36,18.75-21.22,20.14-28.93,20.18-.78,0-1.57,0-2.41.06-4.23.17-8.47-.57-12.67-2.2l-1.9,3.87,26.81,12.84c1.13.54,1.85,1.67,1.88,2.92.02,1.25-.66,2.41-1.76,2.99-1.31.7-21.09,10.76-62.05,10.76ZM642.51,513.26c82.93,23.32,130.5,12.83,147.03,7.29l-23.01-11.02c-.79-.38-1.41-1.07-1.7-1.9-.29-.83-.23-1.75.16-2.54l4.77-9.72c.39-.79,1.07-1.39,1.9-1.67.84-.28,1.74-.22,2.53.16,4.19,2.06,8.4,3.02,12.45,2.86.9-.06,1.82-.06,2.72-.07,5.3-.02,9.49-.05,24.68-18.79.55-.67,1.34-1.11,2.2-1.2l6.02-.67c.06-2.85,0-5.39-.07-7.86-.18-6.88-.33-12.83,2.49-21.07,1.3-3.81,3.9-6.99,6.9-10.67,4.75-5.82,10.59-12.98,12.78-25.45l-55.27-29-29.92,23.82c-.83.66-1.93.88-2.94.6-1.02-.28-1.85-1.04-2.22-2.03-.28-.66-1.58-2.93-5.7-2.2-1.31.51-4.45,6.34-5.59,15.64-.99,8.02.42,11.71,1.05,12.15,2.64.85,6.52-1.68,7.67-2.63,1.3-1.08,3.22-1.01,4.43.17,1.22,1.18,1.35,3.08.3,4.41l-45.53,58.03c-.4.51-.94.89-1.55,1.1l-66.58,22.27ZM708.04,487.84h.02-.02Z"/>
          </g>
          <path d="M772.73,500.13c-.5,0-1.01-.11-1.49-.36-3.55-1.8-11.12-7.25-14.17-10.02-1.35-1.23-1.46-3.32-.23-4.67,1.23-1.36,3.32-1.46,4.67-.23,2.91,2.63,9.92,7.6,12.72,9.02,1.63.82,2.28,2.82,1.46,4.45-.58,1.15-1.75,1.82-2.96,1.82Z"/>
          <path d="M757.12,403.15s5.89,1.22,7.73,5.85c.34.86.62,2,.43,4.48-.62,8.15-4.72,10.76-3.55,14.2,1.02,2.98,5.49,5.09,8.98,4.47,4.7-.84,5.76-6.35,10.92-12.9,3.66-4.64,9.92-10.52,15.42-12.29,14.98-4.83,25.31,20.48,45.12,20.19,17.41-.25,34.67-20.17,31.8-30.71-2.04-7.5-12.95-5.33-31-17.43-15.79-10.58-14.17-16.74-26.84-24.54-1.59-.98-32.28-19.3-51.6-4.18-12.97,10.15-16.81,32.25-7.42,52.86Z"/>
        </g>
      </g>
      <g>
        <g>
          <g>
            <polygon class="st2" points="1396.33 1685.75 1103.82 1685.75 1020.84 1988.64 1479.32 1988.64 1396.33 1685.75"/>
            <path d="M1479.32,1991.95h-458.48c-1.03,0-2.01-.48-2.63-1.3-.63-.82-.83-1.89-.56-2.88l82.98-302.89c.39-1.44,1.7-2.44,3.19-2.44h292.51c1.49,0,2.8,1,3.19,2.44l82.98,302.89c.27.99.07,2.06-.56,2.88-.62.82-1.6,1.3-2.63,1.3ZM1025.18,1985.33h449.8l-81.17-296.27h-287.46l-81.17,296.27Z"/>
          </g>
          <g>
            <path class="st1" d="M1834.07,891.19H666.09c-25.78,0-46.68,20.9-46.68,46.68v800.78c0,25.78,20.9,46.68,46.68,46.68h1167.98c25.78,0,46.68-20.9,46.68-46.68v-800.78c0-25.78-20.9-46.68-46.68-46.68Z"/>
            <path d="M1834.07,1788.64H666.09c-27.56,0-49.99-22.42-49.99-49.99v-800.78c0-27.56,22.42-49.99,49.99-49.99h1167.98c27.56,0,49.99,22.42,49.99,49.99v800.78c0,27.56-22.42,49.99-49.99,49.99ZM666.09,894.5c-23.91,0-43.37,19.46-43.37,43.37v800.78c0,23.91,19.45,43.37,43.37,43.37h1167.98c23.91,0,43.37-19.45,43.37-43.37v-800.78c0-23.91-19.45-43.37-43.37-43.37H666.09Z"/>
          </g>
          <g>
            <path class="st2" d="M1529.11,1957.52h-558.06c-16.04,0-29.04,13-29.04,29.04s13,29.04,29.04,29.04h558.06c16.04,0,29.04-13,29.04-29.04s-13-29.04-29.04-29.04Z"/>
            <path d="M1529.11,2018.92h-558.06c-17.84,0-32.35-14.51-32.35-32.35s14.52-32.35,32.35-32.35h558.06c17.84,0,32.35,14.51,32.35,32.35s-14.51,32.35-32.35,32.35ZM971.05,1960.83c-14.19,0-25.74,11.55-25.74,25.73s11.55,25.73,25.74,25.73h558.06c14.19,0,25.73-11.54,25.73-25.73s-11.54-25.73-25.73-25.73h-558.06Z"/>
          </g>
        </g>
        <g>
          <g>
            <rect class="st0" x="684.76" y="958.1" width="1130.64" height="56.01"/>
            <rect class="st3" x="684.76" y="1055.05" width="1130.64" height="372.7"/>
            <circle class="st1" cx="1776.15" cy="986.11" r="13.48"/>
          </g>
          <rect class="st0" x="684.76" y="1453.4" width="355.24" height="232.35"/>
          <rect class="st0" x="1072.46" y="1453.4" width="355.24" height="232.35"/>
          <rect class="st0" x="1460.16" y="1453.4" width="355.24" height="232.35"/>
        </g>
      </g>
      <g>
        <g>
          <g>
            <path class="st1" d="M2024.71,431.18h-316.57c-12.94,0-23.43,10.49-23.43,23.43v615.66c0,12.94,10.49,23.43,23.43,23.43h316.57c12.94,0,23.43-10.49,23.43-23.43V454.61c0-12.94-10.49-23.43-23.43-23.43Z"/>
            <path d="M2024.7,1097.01h-316.57c-14.74,0-26.74-12-26.74-26.74V454.61c0-14.74,11.99-26.74,26.74-26.74h316.57c14.74,0,26.74,12,26.74,26.74v615.66c0,14.74-12,26.74-26.74,26.74ZM1708.14,434.49c-11.09,0-20.12,9.02-20.12,20.12v615.66c0,11.09,9.03,20.12,20.12,20.12h316.57c11.1,0,20.12-9.03,20.12-20.12V454.61c0-11.1-9.03-20.12-20.12-20.12h-316.57Z"/>
          </g>
          <path d="M1774.6,431.18v13.14c0,13.96,11.32,25.28,25.28,25.28h133.08c13.96,0,25.28-11.32,25.28-25.28v-13.14h-183.64Z"/>
        </g>
        <g>
          <g>
            <rect class="st0" x="1717.08" y="503.13" width="298.69" height="27.07"/>
            <rect class="st3" x="1717.08" y="549.98" width="298.69" height="180.12"/>
            <circle class="st1" cx="1996.8" cy="516.66" r="6.52"/>
          </g>
          <rect class="st0" x="1717.08" y="742.5" width="298.69" height="112.29"/>
          <rect class="st0" x="1717.08" y="871.19" width="298.69" height="112.29"/>
          <rect class="st0" x="1717.08" y="999.88" width="298.69" height="74.28"/>
          <rect class="st0" x="1717.08" y="999.88" width="298.69" height="74.28"/>
        </g>
      </g>
      <g>
        <g>
          <path class="st2" d="M824.27,954.74c0-234.97,190.48-425.45,425.45-425.45s425.45,190.48,425.45,425.45-190.48,425.45-425.45,425.45-425.45-190.48-425.45-425.45h0Z"/>
          <path class="st1" d="M908,954.74c0-188.73,152.99-341.72,341.72-341.72s341.72,152.99,341.72,341.72-152.99,341.72-341.72,341.72-341.72-152.99-341.72-341.72h0Z"/>
          <path class="st2" d="M986.86,954.74c0-145.17,117.69-262.86,262.86-262.86s262.86,117.69,262.86,262.86-117.69,262.86-262.86,262.86-262.86-117.69-262.86-262.86h0Z"/>
          <path class="st1" d="M1079.99,954.74c0-93.74,75.99-169.73,169.73-169.73s169.73,75.99,169.73,169.73-75.99,169.73-169.73,169.73-169.73-75.99-169.73-169.73h0Z"/>
          <path class="st3" d="M1157.03,954.74c0-51.19,41.5-92.69,92.69-92.69s92.69,41.5,92.69,92.69-41.5,92.69-92.69,92.69-92.69-41.5-92.69-92.69h0Z"/>
        </g>
        <path class="st1" d="M1398.27,1356.85c-1.34,0-2.6-.82-3.1-2.16-.64-1.71.23-3.62,1.94-4.26,72.84-27.14,136.81-73.98,185.01-135.45,1.13-1.44,3.21-1.69,4.65-.56,1.44,1.13,1.69,3.21.56,4.65-48.95,62.43-113.93,110.01-187.91,137.58-.38.14-.77.21-1.15.21Z"/>
        <path class="st3" d="M861.51,783.72c-.46,0-.91-.09-1.35-.29-1.67-.75-2.41-2.71-1.66-4.38,43.65-97.05,121.32-174.1,218.71-216.95,1.69-.74,3.63.03,4.36,1.7.74,1.67-.02,3.63-1.7,4.36-95.89,42.19-172.36,118.05-215.34,213.61-.55,1.23-1.76,1.95-3.02,1.95Z"/>
        <path class="st3" d="M998.67,1036.22c-1.41,0-2.72-.91-3.16-2.33-7.94-25.53-11.97-52.16-11.97-79.15,0-1.83,1.48-3.31,3.31-3.31s3.31,1.48,3.31,3.31c0,26.32,3.93,52.29,11.67,77.18.54,1.74-.43,3.6-2.18,4.14-.33.1-.66.15-.98.15Z"/>
        <path class="st3" d="M1507.24,905.08c-1.54,0-2.92-1.08-3.24-2.65-11.81-57.71-43.48-110.26-89.18-147.97-1.41-1.16-1.61-3.25-.45-4.66s3.24-1.61,4.66-.45c46.86,38.68,79.34,92.57,91.45,151.75.37,1.79-.79,3.54-2.58,3.91-.22.04-.45.07-.67.07Z"/>
        <path class="st3" d="M986.86,958.05c-1.83,0-3.31-1.48-3.31-3.31,0-146.77,119.4-266.17,266.17-266.17,27.72,0,55.03,4.24,81.18,12.61,1.74.56,2.7,2.42,2.14,4.16-.56,1.74-2.41,2.7-4.16,2.14-25.5-8.16-52.14-12.29-79.17-12.29-143.12,0-259.55,116.43-259.55,259.55,0,1.83-1.48,3.31-3.31,3.31Z"/>
      </g>
      <g>
        <path class="st1" d="M1288.41,1088.88h29.72c8.56,0,13.83-9.61,9.39-17.12l-73.62-124.28c-4.22-7.13-14.55-7.13-18.77,0l-73.62,124.28c-4.45,7.51.82,17.12,9.39,17.12h24.89c6.75,0,11.92,6.19,10.85,13.03-12.73,81.49-77.96,336.11-364.22,317.35,13.57,30.91,35.09,65.09,66.78,95.48,29.55,28.34,66.08,48.35,105.64,58.88,16.31,4.34,32.48,8.71,35.55,9.77,200.36-129.78,225.58-406.91,227.05-483.48.12-6.13,5-11.03,10.98-11.03Z"/>
        <path d="M874.31,1423.74c-9.64,0-19.52-.32-29.72-.99-1.82-.12-3.2-1.69-3.09-3.52.12-1.82,1.68-3.22,3.52-3.08,283.92,18.64,346.06-236.2,358.33-314.75.37-2.36-.3-4.74-1.83-6.53-1.48-1.73-3.52-2.68-5.75-2.68h-24.89c-5.15,0-9.77-2.71-12.35-7.25-2.67-4.68-2.62-10.24.12-14.87l73.62-124.28c2.61-4.41,7.18-7.04,12.23-7.04s9.62,2.63,12.23,7.04l73.62,124.28c2.74,4.63,2.79,10.19.12,14.87-2.59,4.54-7.21,7.25-12.36,7.25h-29.72c-4.15,0-7.59,3.49-7.67,7.78-.63,32.9-6.56,149.55-56.44,269.28-.7,1.69-2.64,2.49-4.33,1.78-1.69-.7-2.48-2.64-1.78-4.33,49.43-118.65,55.31-234.26,55.93-266.86.15-7.87,6.56-14.27,14.29-14.27h29.72c2.74,0,5.21-1.46,6.61-3.91,1.47-2.59,1.45-5.66-.07-8.21l-73.62-124.28c-1.41-2.38-3.85-3.79-6.54-3.79s-5.13,1.42-6.54,3.79l-73.62,124.28c-1.52,2.56-1.54,5.63-.07,8.21,1.39,2.44,3.86,3.91,6.6,3.91h24.89c4.13,0,8.06,1.82,10.78,4.99,2.79,3.26,4.01,7.58,3.34,11.85-12.05,77.14-71.38,321.3-335.59,321.32Z"/>
        <path d="M1182.08,1448.61c-.59,0-1.19-.16-1.72-.48-1.56-.95-2.05-2.99-1.1-4.55,4.92-8.06,9.74-16.47,14.33-25,.87-1.61,2.88-2.21,4.48-1.35,1.61.87,2.21,2.87,1.35,4.48-4.65,8.64-9.53,17.16-14.51,25.32-.63,1.02-1.71,1.58-2.83,1.58Z"/>
      </g>
      <g>
        <g>
          <path class="st1" d="M1346.79,1348.99H420c-20.46,0-37.04,16.58-37.04,37.04v635.42c0,20.46,16.58,37.04,37.04,37.04h926.79c20.45,0,37.04-16.58,37.04-37.04v-635.42c0-20.46-16.58-37.04-37.04-37.04Z"/>
          <path d="M1346.79,2061.8H420c-22.25,0-40.35-18.1-40.35-40.35v-635.42c0-22.25,18.1-40.35,40.35-40.35h926.8c22.25,0,40.35,18.1,40.35,40.35v635.42c0,22.25-18.1,40.35-40.35,40.35ZM420,1352.3c-18.6,0-33.73,15.13-33.73,33.73v635.42c0,18.6,15.13,33.73,33.73,33.73h926.8c18.6,0,33.73-15.13,33.73-33.73v-635.42c0-18.6-15.13-33.73-33.73-33.73H420Z"/>
        </g>
        <g>
          <g>
            <rect class="st0" x="434.81" y="1402.08" width="897.16" height="44.45"/>
            <rect class="st3" x="434.81" y="1479.01" width="897.16" height="295.74"/>
            <path class="st1" d="M1311.54,1424.3c0,5.91-4.79,10.7-10.7,10.7s-10.7-4.79-10.7-10.7,4.79-10.7,10.7-10.7,10.7,4.79,10.7,10.7Z"/>
          </g>
          <rect class="st0" x="434.81" y="1795.11" width="281.88" height="184.37"/>
          <rect class="st0" x="742.45" y="1795.11" width="281.89" height="184.37"/>
          <rect class="st0" x="1050.09" y="1795.11" width="281.89" height="184.37"/>
        </g>
        <g>
          <path class="st1" d="M1408.02,2058.49H359.29c-10.87,0-19.68,8.81-19.68,19.68v4.59c0,19.04,15.43,34.47,34.47,34.47h1019.14c19.04,0,34.47-15.43,34.47-34.47v-4.59c0-10.87-8.81-19.68-19.68-19.68Z"/>
          <path d="M1393.22,2120.55H374.09c-20.83,0-37.78-16.95-37.78-37.78v-4.59c0-12.68,10.31-22.99,22.99-22.99h1048.73c12.68,0,22.99,10.31,22.99,22.99v4.59c0,20.83-16.95,37.78-37.78,37.78ZM359.29,2061.8c-9.03,0-16.37,7.34-16.37,16.37v4.59c0,17.18,13.98,31.17,31.16,31.17h1019.14c17.19,0,31.17-13.98,31.17-31.17v-4.59c0-9.03-7.34-16.37-16.37-16.37H359.29Z"/>
        </g>
      </g>
      <g>
        <path d="M1568.48,1288.19s-11.76,40.32,163.72,50.13c175.47,9.81,146.11-40.03,146.11-40.03l-184.22-53.67-125.61,43.57Z"/>
        <g>
          <g>
            <g>
              <path class="st1" d="M1768.44,1917.21c-4.7-.22,16.04,104.25,16.04,104.25l-44.43,5.29-24.17-117.55,52.56,8.02Z"/>
              <path d="M1740.05,2030.05c-1.55,0-2.92-1.09-3.24-2.64l-24.17-117.55c-.22-1.06.1-2.16.84-2.95.75-.79,1.82-1.15,2.9-.99l52.55,8.02c1.74.27,2.97,1.85,2.79,3.6-.06.64-.31,1.22-.67,1.7-.74,7.71,7.9,57.4,16.67,101.58.18.9-.03,1.84-.57,2.59-.54.75-1.37,1.23-2.29,1.34l-44.43,5.29c-.13.02-.26.02-.39.02ZM1720.09,1913.18l22.59,109.92,37.86-4.51c-13.36-67.63-15.97-90.48-15.89-98.61l-44.57-6.8Z"/>
            </g>
            <g>
              <path class="st3" d="M1804.27,2058.31c-3.77-22.48-9.59-52.69-14.46-58.83-7.96-10.01-29.6,11.81-29.6,11.81,0,0-9.87-32.29-31.24-28.02-16.09,3.21-70.16,42.46-98.66,73.7-9.32,10.22-1.95,26.65,11.88,26.65h140.65c13.44,0,23.66-12.07,21.43-25.32Z"/>
              <path d="M1782.83,2086.94h-140.65c-7.76,0-14.54-4.42-17.68-11.54-3.11-7.06-1.83-14.97,3.35-20.65,27.35-29.98,82.74-71.18,100.45-74.72,18.79-3.74,29.33,15.95,33.27,25.45,5.38-4.73,15.36-12.35,23.25-11.92,3.07.17,5.68,1.5,7.56,3.86,1.57,1.98,6.35,7.99,15.14,60.34h0c1.22,7.28-.81,14.68-5.58,20.31-4.77,5.64-11.74,8.87-19.12,8.87ZM1732.72,1986.21c-1.01,0-2.04.1-3.11.31-15.09,3.01-68.7,41.82-96.86,72.69-4.05,4.44-3.79,9.9-2.19,13.52,1.62,3.67,5.52,7.59,11.62,7.59h140.65c5.43,0,10.56-2.38,14.07-6.52,3.51-4.14,5-9.59,4.1-14.94h0c-7.67-45.72-12.2-55.31-13.79-57.31-.7-.88-1.55-1.3-2.74-1.37-5.94-.37-16.59,8.08-21.91,13.45-.82.82-2,1.16-3.14.88-1.13-.28-2.03-1.13-2.37-2.24-.08-.28-8.21-26.06-24.32-26.06Z"/>
            </g>
            <path class="st1" d="M1789.8,2062.69h-139.7c-1.83,0-3.31-1.48-3.31-3.31s1.48-3.31,3.31-3.31h139.7c1.83,0,3.31,1.48,3.31,3.31,0,1.83-1.48,3.31-3.31,3.31Z"/>
          </g>
          <g>
            <g>
              <polygon class="st1" points="1953.89 1924.45 2004.73 2025.21 2033.16 2022.3 2007.88 1914.34 1953.89 1924.45"/>
              <path d="M2004.73,2028.52c-1.24,0-2.39-.7-2.95-1.82l-50.84-100.76c-.47-.93-.47-2.03-.01-2.96s1.33-1.59,2.36-1.79l53.99-10.11c1.77-.32,3.43.78,3.83,2.5l25.28,107.95c.22.93.02,1.9-.53,2.68-.55.77-1.41,1.27-2.36,1.37l-28.43,2.92c-.11.01-.22.02-.34.02ZM1958.83,1926.9l47.83,94.79,22.42-2.3-23.7-101.21-46.55,8.72Z"/>
            </g>
            <g>
              <path class="st3" d="M2008.75,2010.28s14.45-22.03,38.09-5.21c0,0,34.62,77.58,41.64,137.58,1.98,16.97-17.19,28.32-31.2,18.54-32.78-22.9-82.53-67.39-102.82-136.37,0,0,14.82-24.02,33-32.97l21.28,18.43Z"/>
              <path d="M2068.64,2168.12c-4.63,0-9.23-1.41-13.25-4.22-36.44-25.46-84.08-70.1-104.1-138.15-.27-.9-.13-1.87.36-2.67.62-1.01,15.54-24.94,34.35-34.21,1.19-.59,2.62-.41,3.63.47l18.68,16.18c2.92-3.24,8.52-8.17,16.44-9.66,7.82-1.47,15.88.72,24.01,6.5.48.34.86.81,1.1,1.35.35.78,34.91,78.73,41.9,138.55,1.07,9.13-3.2,17.75-11.14,22.5-3.75,2.24-7.88,3.36-11.99,3.36ZM1958.08,2025.34c19.72,65.39,65.79,108.47,101.11,133.14,5.42,3.79,12.34,4.02,18.05.6,5.67-3.39,8.72-9.54,7.96-16.05-6.49-55.51-37.27-127.25-41-135.78-6.32-4.3-12.43-5.95-18.15-4.89-9.07,1.68-14.48,9.66-14.53,9.74-.53.79-1.37,1.32-2.31,1.45-.94.13-1.89-.15-2.62-.77l-19.57-16.95c-14.01,7.86-25.84,24.81-28.94,29.51Z"/>
            </g>
            <path class="st1" d="M2075.92,2149.93s-.09,0-.13,0c-2.34-.09-57.91-3.55-112.74-119.45-.78-1.65-.08-3.62,1.57-4.41s3.63-.07,4.41,1.58c52.86,111.73,106.49,115.64,107.03,115.67,1.82.09,3.23,1.63,3.15,3.45-.08,1.77-1.53,3.16-3.29,3.16Z"/>
          </g>
          <path d="M1944.68,1941.28l85.28-2.85-116.31-459.72c-18.63-73.61-48.84-143.8-89.52-207.92h0l-178.24-.11s-65.75,250.95,54.78,663.93h89.14s-34.71-376.79-31.84-485.05c0,0,83.79,309.49,186.72,491.7Z"/>
        </g>
        <path class="st0" d="M1767.72,1503.19c-1.45,0-2.77-.95-3.19-2.41l-30.95-110.06-22.36-6.82c-1.75-.53-2.73-2.38-2.2-4.13.54-1.75,2.39-2.73,4.13-2.2l24.09,7.35c1.08.33,1.92,1.18,2.22,2.27l31.45,111.8c.49,1.76-.53,3.59-2.29,4.08-.3.08-.6.12-.9.12Z"/>
        <g>
          <g>
            <g>
              <path class="st1" d="M1309.6,974.08l65.86,35.55s40.37,105.29,98.16,111.63c57.79,6.34,114.96-73.59,114.96-73.59l38.36,82.07s-56.33,87.1-145.66,73.06-113.67-148.23-113.67-148.23c.04.09-21.14,2.09-29.12-18.53-6.79-17.56-3.96-27.9-3.96-27.9,0,0-31.73-16.94-24.93-34.07Z"/>
              <path d="M1500.51,1207.63c-6.39,0-12.97-.49-19.73-1.56-37.64-5.92-69.73-33.99-92.8-81.19-14.57-29.81-21.2-57.99-23.06-66.88-.99-.04-2.18-.15-3.6-.34-7.1-.96-19.91-4.89-25.92-20.43-5.2-13.44-5.03-23.01-4.52-27.36-7.4-4.38-31.12-20.01-24.35-37.02.35-.88,1.06-1.56,1.94-1.89.89-.32,1.87-.25,2.7.2l65.86,35.55c.7.38,1.23.99,1.52,1.73.4,1.03,40.32,103.48,95.43,109.52,55.25,6.06,111.34-71.44,111.9-72.23.69-.96,1.83-1.48,2.99-1.37,1.17.11,2.19.83,2.69,1.89l38.36,82.07c.48,1.03.4,2.24-.22,3.2-.53.83-50.2,76.08-129.22,76.09ZM1367.62,1051.27c.18,0,.36.02.55.05,1.38.23,2.46,1.3,2.71,2.67.24,1.32,24.97,132.04,110.93,145.55,79.84,12.55,133.41-58.79,141.35-70.1l-35.23-75.37c-12.66,16.35-58.57,70.86-107.62,70.87-2.34,0-4.68-.12-7.03-.38-56.49-6.2-95.61-100.4-100.44-112.58l-60.86-32.85c.09,12.89,23.86,25.97,24.12,26.11,1.36.73,2.04,2.3,1.63,3.79-.02.07-2.39,9.7,3.85,25.83,6.8,17.59,24.3,16.55,25.47,16.47.19-.03.38-.05.57-.05Z"/>
            </g>
            <path d="M1369.49,1046.69c-.32,0-.65-.05-.97-.15-.58-.18-14.33-4.54-16.02-16.76-.64-4.63-3.43-8.25-5.66-10.47-3.62-3.61-5.61-8.42-5.61-13.55v-2.55c0-1.1.55-2.12,1.45-2.74s2.06-.74,3.08-.34l22.21,8.86c1.7.68,2.53,2.6,1.85,4.3-.68,1.7-2.6,2.52-4.3,1.85l-17.45-6.96c.47,2.43,1.65,4.66,3.43,6.44,2.95,2.94,6.66,7.79,7.55,14.25,1.11,8.02,11.31,11.31,11.42,11.35,1.74.55,2.71,2.4,2.17,4.14-.44,1.42-1.74,2.33-3.15,2.33Z"/>
          </g>
          <g>
            <path class="st1" d="M1813.95,1134.6s40.61,91.36,106.84,110.02c66.22,18.66,112.35-37.73,112.06-95.95l-22.51-7.46s-23.1,59.66-74.63,44.14c-51.53-15.52-75.44-136.88-75.44-136.88l-46.32,86.13Z"/>
            <path d="M1946.23,1251.61c-8.06,0-16.84-1.13-26.35-3.81-66.95-18.86-107.28-108.07-108.96-111.86-.42-.94-.38-2.01.11-2.91l46.31-86.13c.66-1.23,2-1.92,3.41-1.7,1.38.21,2.48,1.26,2.75,2.63.23,1.19,24.12,119.58,73.15,134.35,48.04,14.47,69.69-39.84,70.59-42.16.63-1.65,2.45-2.5,4.13-1.95l22.51,7.46c1.35.45,2.26,1.7,2.27,3.12.17,34.13-15.15,67.07-40,85.98-11.11,8.46-27.8,16.97-49.92,16.97ZM1817.65,1134.71c5.54,11.69,44.61,89.98,104.04,106.73,32.93,9.28,56.5-1.44,70.46-12.06,22.65-17.24,36.84-47.08,37.37-78.31l-17.37-5.76c-4.91,10.5-24.15,45.93-59.82,45.93-5.47,0-11.32-.83-17.58-2.72-45.1-13.59-69.13-101.92-75.81-130.6l-41.29,76.79Z"/>
          </g>
          <g>
            <path class="st1" d="M1568.46,1046.45s40.72-53.15,155.77-43.22c137.38,11.86,147.85,39,147.85,39l-35.86,72.66,42.08,183.4s-28.76,23.81-96.11,10.44-183.11-29.78-213.72-20.54l42.67-175-42.68-66.75Z"/>
            <path d="M1821.22,1316.15c-11.41,0-24.59-1.17-39.66-4.17-68.22-13.55-182.83-29.47-212.12-20.62-1.14.34-2.37.05-3.23-.77-.86-.82-1.22-2.03-.94-3.19l42.33-173.62-41.92-65.55c-.75-1.17-.69-2.69.16-3.8,1.71-2.23,43.17-54.48,158.68-44.5,135.53,11.7,149.51,38.13,150.66,41.11.33.86.29,1.83-.12,2.66l-35.34,71.61,41.82,182.25c.28,1.22-.15,2.49-1.11,3.29-.95.79-19.07,15.3-59.21,15.31ZM1596.55,1282.23c47.39,0,130.21,12.12,186.3,23.25,56.39,11.19,84.96-4.17,91.75-8.61l-41.59-181.24c-.17-.74-.08-1.52.26-2.2l35.03-70.98c-4.03-4.77-28.12-25.9-144.34-35.92-100.14-8.65-143.15,31.34-151.37,40.22l41.35,64.66c.49.76.64,1.69.43,2.57l-41.4,169.8c6.13-1.06,14.16-1.54,23.58-1.54Z"/>
          </g>
          <g>
            <path class="st0" d="M1998.48,1211.65l-163.97,6.62c-5.55,0-8.95-6.08-6.05-10.81l106.18-194.03c2.03-3.31,5.63-5.32,9.52-5.32l165.75,3.78-111.43,199.76Z"/>
            <g>
              <polygon class="st3" points="2010.28 1218.28 1833.29 1218.28 1949.38 1008.11 2126.37 1008.11 2010.28 1218.28"/>
              <path d="M2010.29,1221.59h-176.99c-1.17,0-2.26-.62-2.85-1.63-.59-1.01-.61-2.26-.05-3.28l116.09-210.17c.58-1.05,1.69-1.71,2.9-1.71h177c1.17,0,2.26.62,2.85,1.63.59,1.01.61,2.26.05,3.28l-116.09,210.17c-.59,1.06-1.7,1.71-2.9,1.71ZM1838.9,1214.97h169.43l112.43-203.55h-169.44l-112.43,203.55Z"/>
            </g>
          </g>
          <g>
            <path class="st1" d="M2014.35,1211.65s-3.33-17.43,0-29.06c3.33-11.63,23.95-46.21,29.84-53.45,5.9-7.24,10.89,70.03-29.84,82.5Z"/>
            <path d="M2014.35,1214.96c-.6,0-1.19-.16-1.71-.47-.81-.49-1.37-1.29-1.54-2.21-.14-.74-3.44-18.34.07-30.59,3.37-11.8,24.17-46.91,30.46-54.63,1.48-1.81,3.42-1.94,4.73-1.44,4.68,1.74,5.32,13.56,5.03,23.16-.8,26.83-10.7,58.27-36.07,66.04-.32.1-.64.15-.97.15ZM2044.11,1134.87c-7.8,11.38-23.82,39-26.57,48.64-2.16,7.55-1.26,18.03-.53,23.63,9.7-4.29,17.09-13.3,22.02-26.84,6.55-18,6.36-37.29,5.08-45.43Z"/>
          </g>
        </g>
        <g>
          <path d="M1393.22,838.8c-22.33,13.59-25.83,39.55-26.09,41.7-3.5,29.44,17.46,59.91,40.34,64.47,19.58,3.9,26.34-14,50.92-12.84,27.41,1.29,30.11,24.08,56.23,29.82,38.53,8.47,54.24-36.34,98.49-33.21,34.06,2.41,38.52,29.92,75.63,30.26,4.21.04,37.45-.19,59.61-25.96,22.22-25.83,22.73-65.02,6.26-91.11-1.7-2.69-19.8-30.58-43.77-29.9-15.04.43-18.03,11.69-32.34,11.44-22.03-.38-26.44-27.24-45.73-28.37-22.29-1.3-27.25,33.93-57.25,38.92-22.65,3.77-29.06-14.77-53.38-10.49-25.2,4.43-26.43,25.77-47.82,26.45-20.48.65-26.11-18.7-52.62-18.85-5.6-.03-17.09.76-28.48,7.69Z"/>
          <g>
            <path class="st1" d="M1797.29,944.08c1.53-2.42-5.72-15.53-5.98-20.3-.25-4.77,3.48-8.77,5.04-13.79s-.18-13.93-.18-13.93c-2.13-59.79-67.27-45.6-67.27-45.6-14.96,4.53-23.77,21.33-26.65,32.5-5.58,21.63,4.7,47.79,4.7,47.79-.44.98-11.12,71-11.59,71.91-6.77,13.01,38.59,21.52,52.86,8.42,4.82-4.43-1.35-36.95,0-36.99,5.34-.14,11.89,5.59,18.63,3.8,9.92-2.63,17.4-27.49,18.82-29.34.68-.88,2.99-1.39,5.39-1.94,2.66-.61,5.43-1.27,6.23-2.54Z"/>
            <path d="M1725.26,1020.96c-11.54,0-23.3-3.01-29.19-7.53-4.43-3.39-5.81-7.72-3.83-11.92.56-2.77,3.57-21.92,6-37.41,3.61-23.05,4.8-30.46,5.29-33.07-1.83-5.01-9.72-28.56-4.47-48.9,2.71-10.51,11.85-29.69,28.9-34.84.08-.03.17-.05.25-.07,1.33-.29,32.79-6.9,53.7,9.34,10.99,8.53,16.9,21.7,17.57,39.13.33,1.79,1.7,9.98.04,15.29-.68,2.18-1.66,4.07-2.6,5.91-1.29,2.5-2.4,4.66-2.29,6.72.08,1.6,1.65,5.53,2.91,8.68,2.91,7.29,4.23,10.92,2.56,13.56h0c-1.55,2.45-4.98,3.23-8.29,3.99-1.26.29-2.87.66-3.6.95-.22.53-.73,1.82-1.2,2.98-3.47,8.67-9.92,24.82-19.3,27.31-4.99,1.33-9.7-.53-13.47-2.02-.93-.36-1.83-.72-2.69-1.01.13,1.34.3,2.92.45,4.4,1.96,18.28,2.23,27.59-1.53,31.05-5.74,5.27-15.39,7.45-25.2,7.45ZM1710.13,931.67c-.39,1.78-3.03,18.59-5.36,33.45-5.98,38.11-6.06,38.26-6.48,39.06-.31.6-.97,1.87,1.8,3.99,8.79,6.74,36.2,9.35,45.9.46,1.88-2.65.1-19.23-.57-25.47-.91-8.45-1.05-9.74.25-11.23.61-.7,1.55-1.14,2.47-1.16,2.92-.07,5.75,1.05,8.51,2.13,3.33,1.31,6.47,2.54,9.35,1.78,6.16-1.64,12.47-17.42,14.85-23.37,1.22-3.05,1.63-4.05,2.19-4.78,1.38-1.8,3.9-2.37,7.09-3.1,1.12-.26,2.94-.67,3.96-1.08-.38-1.75-1.75-5.2-2.72-7.62-1.66-4.17-3.23-8.1-3.37-10.79-.2-3.85,1.44-7.03,3.02-10.1.85-1.65,1.66-3.21,2.17-4.84,1.07-3.44.17-10.05-.27-12.31-.03-.17-.05-.34-.06-.52-.55-15.49-5.6-27.05-15-34.37-17.85-13.88-46.07-8.56-48.14-8.14-14.15,4.37-21.91,20.97-24.27,30.12-5.24,20.31,4.48,45.5,4.58,45.76.27.68.3,1.43.1,2.13ZM1794.2,943.12h0s0,0,0,0ZM1794.71,942.05h0Z"/>
          </g>
          <path d="M1823.4,854.37c-6.55-6.63-13.2,0-39.23-3.66-21.65-3.04-27.89-9.15-44.28-6.44-4.6.76-12.83,2.12-20.95,8.06-12.03,8.8-16.51,21.16-18.89,30.38-4.64,17.99,1.17,38.97,3.79,46.91.64,1.95,2.55,3.19,4.6,3.02,5.46-.46,10.29-1.18,14.61-2.1,2.05-.44,3.21-2.59,2.42-4.53-.21-.53-.4-1.08-.56-1.65-2.16-7.59,1.47-15.28,8.11-17.17s13.78,2.73,15.94,10.32c.15.53.27,1.05.36,1.58,9.56-7.24,14.47-15.43,23.3-19.83,1.06-.53,5.71-2.65,12.79-2.9,15.36-.54,20.47,8.56,27.73,6.8,12.69-3.07,22.02-36.85,10.25-48.77Z"/>
          <path d="M1749.79,977.4c-.33,0-.66-.05-.99-.15-24.02-7.56-27.73-23.56-27.88-24.24-.39-1.79.75-3.55,2.54-3.93,1.79-.38,3.53.74,3.93,2.51.14.59,3.32,13.03,23.4,19.35,1.74.55,2.71,2.41,2.16,4.15-.44,1.41-1.75,2.32-3.16,2.32Z"/>
        </g>
      </g>
      <g>
        <g>
          <path class="st1" d="M1037.23,766.45s-166.38,64.72-300.86-61.62l-75.51,60.46s133.5,174.14,381.34,39.86c0,0,56.86,3.62,67.47-3.6s31.6-39.81,28.57-44.74l4.45-16.21c.5-1.84.34-3.79-.46-5.52h0c-2.04-4.4-7.64-5.74-11.44-2.74l-41.63,32.76-4.14-.02c-6.23-.03-10.84-5.81-9.48-11.89l5.9-26.42c.64-2.86-1.54-5.59-4.47-5.59h0l-39.75,45.27Z"/>
          <path d="M862.1,859.1c-42.5,0-77.65-9.2-104.77-20.47-64.43-26.78-97.7-69.52-99.09-71.33-1.09-1.43-.85-3.47.56-4.6l75.51-60.46c1.28-1.03,3.13-.96,4.34.17,68.59,64.44,145.77,77.57,198.32,77.29,53.01-.31,92.52-13.95,98.34-16.07l39.19-44.64c.63-.72,1.53-1.13,2.49-1.13,2.41,0,4.65,1.08,6.16,2.96,1.51,1.88,2.07,4.31,1.55,6.66l-5.9,26.42c-.43,1.92.03,3.9,1.25,5.43,1.22,1.53,3.05,2.42,5.01,2.42h2.99s40.72-32.03,40.72-32.03c2.62-2.06,5.96-2.79,9.2-2.02,3.23.78,5.89,2.95,7.29,5.97,1.13,2.43,1.36,5.2.65,7.78l-4.23,15.41c1.35,10.45-20.91,41.15-30.13,47.41-10.78,7.32-59.41,4.77-68.59,4.22-69.83,37.68-130.49,50.59-180.85,50.59ZM665.55,765.77c8.18,9.57,40.49,44.45,94.62,66.87,58,24.02,153.74,38.25,280.46-30.4.55-.3,1.16-.44,1.79-.39,21.54,1.37,58.35,1.76,65.4-3.03,10-6.8,27.66-35.4,27.43-40.63-.32-.7-.39-1.5-.18-2.26l4.45-16.21c.3-1.08.2-2.23-.27-3.25-.54-1.17-1.57-2.02-2.83-2.32-1.25-.3-2.55-.02-3.57.78l-41.63,32.76c-.58.46-1.3.71-2.05.71h-.01l-4.14-.02c-3.97-.02-7.68-1.81-10.16-4.92-2.48-3.11-3.41-7.12-2.54-11l5.9-26.42c.11-.47-.07-.83-.21-1.03l-38.29,43.61c-.35.4-.79.71-1.29.9-1.72.67-42.84,16.41-101.18,16.79-53.43.34-131.31-12.8-201.05-77.12l-70.66,56.57ZM1037.23,766.45h.02-.02ZM1135.43,758.53s0,0,0,0c0,0,0,0,0,0Z"/>
        </g>
        <path d="M1091.05,781.35c-1.69,0-3.14-1.3-3.29-3.02-.16-1.82,1.18-3.43,3-3.59l21.18-1.88,28.2-34.37c1.16-1.41,3.25-1.62,4.66-.46,1.41,1.16,1.62,3.24.46,4.66l-29.08,35.44c-.56.69-1.38,1.12-2.26,1.2l-22.57,2.01c-.1,0-.2.01-.3.01Z"/>
        <path d="M1096.51,795.17c-1.58,0-2.97-1.13-3.26-2.74-.31-1.8.89-3.52,2.69-3.83l15.59-2.73,23.15-28.18c1.16-1.41,3.24-1.62,4.66-.46,1.41,1.16,1.62,3.25.46,4.66l-23.93,29.13c-.5.61-1.21,1.02-1.99,1.16l-16.8,2.94c-.19.03-.38.05-.57.05Z"/>
      </g>
      <g>
        <path class="st1" d="M1541.01,356.5l-133,133c-11.44,11.44-11.44,30,0,41.44,11.44,11.44,30,11.44,41.44,0l137.72-137.72c-16.35-10.33-30.34-25.63-46.17-36.72Z"/>
        <g>
          <path class="st1" d="M1590.41,489.23c10.09,10.09,26.45,10.09,36.54,0l91.52-91.52c-.42-2.17-.83-4.34-1.25-6.5-3.49-18.07-7.04-36.19-11.16-54.16l-115.65,115.64c-10.09,10.09-10.09,26.45,0,36.54Z"/>
          <path class="st1" d="M1534.44,545.19c-10.09-10.09-10.09-26.45,0-36.54,10.09-10.09,26.45-10.09,36.54,0s10.09,26.45,0,36.54c-10.09,10.09-26.45,10.09-36.54,0Z"/>
        </g>
      </g>
      <g>
        <path class="st2" d="M888.44,1632.44c-10.09-10.09-10.09-26.45,0-36.54,10.09-10.09,26.45-10.09,36.54,0s10.09,26.45,0,36.54-26.45,10.09-36.54,0Z"/>
        <path class="st2" d="M865.72,1479.01l-190.67,190.67c-13.53,13.54-13.53,35.48,0,49.02,13.54,13.54,35.48,13.54,49.02,0l239.68-239.68h-98.04Z"/>
        <path class="st2" d="M1005.33,1479.01l-60.93,60.93c-10.09,10.09-10.09,26.45,0,36.54,10.09,10.09,26.45,10.09,36.54,0l97.46-97.46h-73.07Z"/>
      </g>
      <g>
        <g>
          <path d="M2101.65,378c-.82,0-1.65-.3-2.29-.92-1.32-1.26-1.37-3.36-.1-4.68l10.42-10.89c1.26-1.32,3.36-1.36,4.68-.1,1.32,1.26,1.37,3.36.1,4.68l-10.42,10.89c-.65.68-1.52,1.02-2.39,1.02Z"/>
          <path d="M2065.19,416.1c-.82,0-1.65-.3-2.29-.92-1.32-1.26-1.37-3.36-.1-4.68l10.42-10.89c1.26-1.32,3.36-1.36,4.68-.1,1.32,1.26,1.37,3.36.1,4.68l-10.42,10.89c-.65.68-1.52,1.02-2.39,1.02Z"/>
          <path d="M2075.41,378.58c-.84,0-1.68-.32-2.32-.95l-10.57-10.42c-1.3-1.28-1.32-3.38-.03-4.68,1.28-1.3,3.38-1.32,4.68-.03l10.57,10.42c1.3,1.28,1.32,3.38.03,4.68-.65.66-1.5.99-2.36.99Z"/>
          <path d="M2112.41,415.05c-.84,0-1.68-.32-2.32-.95l-10.57-10.42c-1.3-1.28-1.32-3.38-.03-4.68,1.28-1.3,3.38-1.32,4.68-.03l10.57,10.42c1.3,1.28,1.32,3.38.03,4.68-.65.66-1.5.99-2.36.99Z"/>
        </g>
        <path d="M1626.15,1914.85c-2.84,0-5.68-.53-8.41-1.59-5.94-2.31-10.63-6.85-13.18-12.78-5.21-12.1.2-26.28,12.07-31.62,5.72-2.57,12.08-2.74,17.93-.47,5.94,2.31,10.63,6.85,13.18,12.78,5.21,12.1-.2,26.28-12.07,31.62-3.05,1.37-6.28,2.06-9.52,2.06ZM1626.14,1873.43c-2.31,0-4.62.49-6.8,1.47h0c-8.59,3.86-12.49,14.16-8.7,22.96,1.85,4.29,5.22,7.57,9.5,9.23,4.17,1.62,8.72,1.5,12.81-.34,8.59-3.86,12.49-14.16,8.7-22.96-1.85-4.29-5.22-7.57-9.5-9.23-1.95-.76-3.98-1.14-6.01-1.14ZM1617.98,1871.88h.02-.02Z"/>
        <path d="M722.47,2043.42c-.85,0-1.69-.32-2.34-.97-1.29-1.29-1.29-3.39,0-4.68l208.39-208.39c1.29-1.29,3.39-1.29,4.68,0,1.29,1.29,1.29,3.39,0,4.68l-208.39,208.39c-.65.65-1.49.97-2.34.97Z"/>
        <path d="M478.59,1935.17c-.85,0-1.69-.32-2.34-.97-1.29-1.29-1.29-3.39,0-4.68l86.07-86.07c1.29-1.29,3.39-1.29,4.68,0,1.29,1.29,1.29,3.39,0,4.68l-86.07,86.07c-.65.65-1.49.97-2.34.97Z"/>
      </g>
    </g>
  </g>
</svg>