<?xml version="1.0" encoding="UTF-8"?>
<svg id="Illustration" xmlns="http://www.w3.org/2000/svg" version="1.1" viewBox="0 0 2500 2500">
  <!-- Generator: Adobe Illustrator 30.2.1, SVG Export Plug-In . SVG Version: 2.1.1 Build 1)  -->
  <defs>
    <style>
      .st0 {
        fill: #caddff;
      }

      .st1 {
        fill: #fff;
      }

      .st2 {
        fill: #99b9ff;
      }

      .st3 {
        fill: #5479f7;
      }
    </style>
  </defs>
  <g id="Reputation_management">
    <path class="st0" d="M2133.83,679.87c-61.34-123.64-183.89-190.48-259.88-231.91-328.5-179.15-775.95-131.57-1073.32,35.35-293.53,164.75-549.29,554.94-441.96,978.95,107.75,425.65,526.8,644.58,843.74,691.05,503.25,73.78,926-261.33,949.12-377.65,7.13-35.88,5.26-67.67,5.26-67.67-8.95-83.98-78.1-133.9-94.24-325.3-29.71-352.18,178.87-485.97,71.28-702.81Z"/>
    <g>
      <g>
        <path d="M981.61,1708.17c2.91-1.61,5.86-3.17,8.84-4.66,26.27-13.12,54.61-22.92,82.18-32.93,102.12-37.06,207.36-64.35,311.41-95.28,36.83-10.95,73.66-21.73,110.7-31.8,142.63-299.04,399.15-843.74,375.2-843.74l-1387.68-53.58c-33,0-59.85,26.85-59.85,59.85v968.74c0,33,26.85,59.85,59.85,59.85l501.41-33.97-2.06,7.52Z"/>
        <g>
          <polygon class="st1" points="1394.15 1610.77 1040.28 1610.77 939.89 1977.19 1494.53 1977.19 1394.15 1610.77"/>
          <path d="M1494.53,1980.5h-554.64c-1.03,0-2.01-.48-2.63-1.3-.63-.82-.83-1.89-.56-2.88l100.39-366.41c.39-1.44,1.7-2.44,3.19-2.44h353.87c1.49,0,2.8,1,3.19,2.44l100.39,366.41c.27,1,.07,2.06-.56,2.88-.63.82-1.6,1.3-2.63,1.3ZM944.23,1973.87h545.96l-98.57-359.79h-348.81l-98.57,359.79Z"/>
        </g>
        <rect class="st1" x="454.27" y="649.56" width="1525.89" height="1081.68" rx="56.47" ry="56.47"/>
        <g>
          <path class="st1" d="M1554.76,1939.54h-675.11c-19.4,0-35.14,15.73-35.14,35.14s15.73,35.14,35.14,35.14h675.11c19.4,0,35.14-15.73,35.14-35.14s-15.73-35.14-35.14-35.14Z"/>
          <path d="M1554.77,2013.12h-675.11c-21.2,0-38.45-17.25-38.45-38.45s17.25-38.45,38.45-38.45h675.11c21.2,0,38.45,17.25,38.45,38.45s-17.25,38.45-38.45,38.45ZM879.66,1942.85c-17.55,0-31.82,14.28-31.82,31.83s14.28,31.83,31.82,31.83h675.11c17.55,0,31.82-14.28,31.82-31.83s-14.28-31.83-31.82-31.83h-675.11Z"/>
        </g>
        <path d="M1923.69,1734.55H510.73c-32.96,0-59.78-26.82-59.78-59.78v-968.74c0-32.96,26.82-59.78,59.78-59.78h186.74c1.83,0,3.31,1.48,3.31,3.31s-1.48,3.31-3.31,3.31h-186.74c-29.31,0-53.16,23.85-53.16,53.16v968.74c0,29.31,23.85,53.16,53.16,53.16h1412.95c29.31,0,53.16-23.85,53.16-53.16l-.88-855.1c0-1.83,1.48-3.31,3.31-3.32h0c1.83,0,3.31,1.48,3.31,3.31l.88,855.11c0,32.97-26.82,59.78-59.78,59.78Z"/>
        <path d="M1342.98,652.87h-227.56c-1.83,0-3.31-1.48-3.31-3.31s1.48-3.31,3.31-3.31h227.56c1.83,0,3.31,1.48,3.31,3.31s-1.48,3.31-3.31,3.31Z"/>
      </g>
      <g>
        <path d="M1929.96,1530.84c-1.83,0-3.31-1.48-3.31-3.31v-237.53c0-1.83,1.48-3.31,3.31-3.31s3.31,1.48,3.31,3.31v237.53c0,1.83-1.48,3.31-3.31,3.31Z"/>
        <path d="M1576.05,1684.35h-754.22c-1.83,0-3.31-1.48-3.31-3.31s1.48-3.31,3.31-3.31h754.22c1.83,0,3.31,1.48,3.31,3.31s-1.48,3.31-3.31,3.31Z"/>
        <path d="M821.82,1684.35h-289.29c-8.38,0-16.27-3.27-22.2-9.19-1.29-1.29-1.29-3.39,0-4.68,1.29-1.29,3.39-1.29,4.68,0,4.68,4.68,10.9,7.25,17.51,7.25h289.29c1.83,0,3.31,1.48,3.31,3.31s-1.48,3.31-3.31,3.31Z"/>
        <path d="M512.68,1676.13c-.85,0-1.7-.32-2.34-.97-5.93-5.93-9.19-13.81-9.19-22.19v-925.13c0-17.31,14.08-31.39,31.39-31.39h109.01c1.83,0,3.31,1.48,3.31,3.31s-1.48,3.31-3.31,3.31h-109.01c-13.66,0-24.77,11.11-24.77,24.77v925.13c0,6.61,2.58,12.83,7.25,17.51,1.29,1.29,1.29,3.39,0,4.68-.65.65-1.49.97-2.34.97Z"/>
        <path d="M1333.05,703.07h-311.82c-1.83,0-3.31-1.48-3.31-3.31s1.48-3.31,3.31-3.31h311.82c1.83,0,3.31,1.48,3.31,3.31s-1.48,3.31-3.31,3.31Z"/>
      </g>
    </g>
    <g>
      <path class="st3" d="M1912.71,1784.58l-17.41-38.57-45.28,9.28c-5.63-8.21-11.85-15.85-18.63-22.85l18.03-42.5-34.36-24.7-34.58,30.68c-8.88-4.23-18.09-7.71-27.55-10.41l-5.64-45.89-42.11-4.21-14.58,43.8c-9.71.77-19.44,2.38-29.09,4.81l-27.82-36.91-38.57,17.41,9.28,45.28c-8.21,5.63-15.85,11.86-22.85,18.63l-42.5-18.03-24.7,34.36,30.68,34.58c-4.23,8.88-7.71,18.09-10.41,27.54l-45.88,5.64-4.21,42.11,43.8,14.58c.76,9.71,2.38,19.44,4.81,29.09l-36.91,27.82,17.41,38.57,45.28-9.28c5.63,8.21,11.86,15.85,18.63,22.85l-18.03,42.5,34.36,24.7,34.58-30.68c8.88,4.23,18.09,7.71,27.54,10.41l5.64,45.88,42.11,4.21,14.58-43.8c9.71-.76,19.44-2.38,29.09-4.81l27.82,36.91,38.57-17.41-9.28-45.28c8.21-5.63,15.85-11.85,22.85-18.63l42.5,18.03,24.7-34.36-30.68-34.58c4.23-8.88,7.71-18.09,10.41-27.55l45.88-5.64,4.21-42.11-43.8-14.58c-.76-9.71-2.38-19.44-4.81-29.09l36.91-27.82ZM1749.29,1954.65c-54.84,24.75-119.36.37-144.11-54.47-24.75-54.84-.37-119.36,54.47-144.11,54.84-24.75,119.36-.37,144.11,54.47,24.75,54.84.37,119.36-54.47,144.11Z"/>
      <path class="st3" d="M2152.16,1619.54l-11.63-25.76-30.24,6.2c-3.76-5.48-7.92-10.59-12.45-15.26l12.04-28.38-22.95-16.5-23.1,20.49c-5.93-2.82-12.08-5.15-18.4-6.95l-3.77-30.65-28.12-2.81-9.74,29.25c-6.49.51-12.98,1.59-19.43,3.21l-18.58-24.65-25.76,11.63,6.2,30.24c-5.48,3.76-10.59,7.92-15.26,12.44l-28.38-12.04-16.5,22.95,20.49,23.1c-2.82,5.93-5.15,12.08-6.95,18.4l-30.65,3.77-2.81,28.12,29.25,9.74c.51,6.49,1.59,12.98,3.21,19.43l-24.65,18.58,11.63,25.76,30.24-6.2c3.76,5.48,7.92,10.59,12.45,15.26l-12.04,28.38,22.95,16.5,23.1-20.49c5.93,2.82,12.08,5.15,18.4,6.95l3.77,30.65,28.12,2.81,9.74-29.25c6.49-.51,12.98-1.59,19.43-3.21l18.58,24.65,25.76-11.63-6.2-30.24c5.48-3.76,10.59-7.92,15.26-12.45l28.38,12.04,16.5-22.95-20.49-23.1c2.82-5.93,5.15-12.08,6.95-18.4l30.65-3.77,2.81-28.12-29.25-9.74c-.51-6.49-1.59-12.98-3.21-19.43l24.65-18.58ZM2043.02,1733.14c-36.63,16.53-79.72.24-96.25-36.38-16.53-36.63-.24-79.72,36.38-96.25,36.63-16.53,79.72-.24,96.25,36.38,16.53,36.63.24,79.72-36.38,96.25Z"/>
    </g>
    <g>
      <path d="M793.35,591.36c-13.44,0-24.38-10.92-24.38-24.34s10.94-24.34,24.38-24.34c1.83,0,3.31,1.48,3.31,3.31s-1.48,3.31-3.31,3.31c-9.79,0-17.75,7.95-17.75,17.72s7.96,17.72,17.75,17.72,17.76-7.95,17.76-17.72c0-1.83,1.48-3.31,3.31-3.31s3.31,1.48,3.31,3.31c0,13.42-10.94,24.34-24.38,24.34Z"/>
      <path d="M1424.46,2145.25c-13.44,0-24.38-10.92-24.38-24.34s10.94-24.35,24.38-24.35c1.83,0,3.31,1.48,3.31,3.31s-1.48,3.31-3.31,3.31c-9.79,0-17.76,7.95-17.76,17.72s7.97,17.72,17.76,17.72,17.75-7.95,17.75-17.72c0-1.83,1.48-3.31,3.31-3.31s3.31,1.48,3.31,3.31c0,13.42-10.94,24.34-24.38,24.34Z"/>
      <path d="M501.34,628.36c-.86,0-1.71-.33-2.36-.99-1.28-1.3-1.27-3.4.04-4.68l138.05-135.91c1.3-1.28,3.4-1.26,4.68.04,1.28,1.3,1.27,3.4-.04,4.68l-138.05,135.91c-.64.63-1.48.95-2.32.95Z"/>
      <path d="M505.04,552.81c-.86,0-1.71-.33-2.36-.99-1.28-1.3-1.27-3.4.04-4.68l72.66-71.53c1.3-1.28,3.4-1.26,4.68.04,1.28,1.3,1.27,3.4-.04,4.68l-72.66,71.53c-.64.63-1.48.95-2.32.95Z"/>
      <path d="M1494.53,1077.83c-.86,0-1.71-.33-2.36-.99-1.28-1.3-1.27-3.4.04-4.68l210.09-206.84c1.31-1.28,3.4-1.26,4.68.04,1.28,1.3,1.27,3.4-.04,4.68l-210.09,206.84c-.65.63-1.49.95-2.32.95Z"/>
      <path d="M1509.64,987.39c-.86,0-1.71-.33-2.36-.99-1.28-1.3-1.27-3.4.04-4.68l98.78-97.25c1.31-1.28,3.4-1.27,4.68.04,1.28,1.3,1.27,3.4-.04,4.68l-98.78,97.25c-.65.63-1.49.95-2.32.95Z"/>
      <g>
        <path d="M859.16,1116.41c-.82,0-1.65-.3-2.29-.92-1.32-1.27-1.37-3.36-.1-4.68l10.42-10.89c1.27-1.32,3.36-1.37,4.68-.1,1.32,1.27,1.37,3.36.1,4.68l-10.42,10.89c-.65.68-1.52,1.02-2.39,1.02Z"/>
        <path d="M822.68,1154.53c-.82,0-1.65-.3-2.29-.92-1.32-1.27-1.37-3.36-.1-4.68l10.42-10.89c1.27-1.32,3.36-1.37,4.68-.1,1.32,1.27,1.37,3.36.1,4.68l-10.42,10.89c-.65.68-1.52,1.02-2.39,1.02Z"/>
        <path d="M832.91,1116.99c-.84,0-1.68-.32-2.32-.95l-10.58-10.43c-1.3-1.28-1.32-3.38-.03-4.68,1.28-1.3,3.38-1.32,4.68-.03l10.58,10.43c1.3,1.28,1.32,3.38.03,4.68-.65.66-1.5.99-2.36.99Z"/>
        <path d="M869.93,1153.48c-.84,0-1.68-.32-2.32-.95l-10.58-10.43c-1.3-1.28-1.32-3.38-.03-4.68,1.28-1.3,3.38-1.32,4.68-.03l10.58,10.43c1.3,1.28,1.32,3.38.03,4.68-.65.66-1.5.99-2.36.99Z"/>
      </g>
      <path d="M1509.02,2135.98c-2.84,0-5.68-.53-8.41-1.59-5.95-2.31-10.63-6.85-13.19-12.79-5.21-12.1.2-26.3,12.07-31.63,5.72-2.57,12.09-2.74,17.94-.47,5.95,2.31,10.63,6.86,13.19,12.79,5.21,12.1-.2,26.29-12.07,31.63-3.05,1.37-6.28,2.06-9.52,2.06ZM1509.01,2094.54c-2.32,0-4.63.49-6.81,1.47h0c-8.59,3.86-12.5,14.17-8.71,22.97,1.85,4.29,5.23,7.58,9.51,9.24,4.18,1.63,8.73,1.5,12.82-.34,8.59-3.87,12.5-14.17,8.7-22.97-1.85-4.29-5.22-7.58-9.5-9.24-1.95-.76-3.98-1.14-6.01-1.14ZM1500.84,2092.99h.02-.02Z"/>
      <g>
        <path d="M1219.61,385.18c-.85,0-1.7-.32-2.34-.97l-9.62-9.63c-1.29-1.29-1.29-3.39,0-4.68,1.29-1.29,3.39-1.29,4.68,0l9.62,9.63c1.29,1.29,1.29,3.39,0,4.68-.65.64-1.49.97-2.34.97Z"/>
        <path d="M1253.27,418.88c-.85,0-1.7-.32-2.34-.97l-9.62-9.63c-1.29-1.29-1.29-3.39,0-4.68,1.29-1.29,3.39-1.29,4.68,0l9.62,9.63c1.29,1.29,1.29,3.39,0,4.68-.64.64-1.49.97-2.34.97Z"/>
        <path d="M1209.99,418.88c-.85,0-1.69-.32-2.34-.97-1.29-1.29-1.3-3.39,0-4.68l9.62-9.63c1.29-1.3,3.39-1.3,4.68,0,1.29,1.29,1.3,3.39,0,4.68l-9.62,9.63c-.65.65-1.5.97-2.34.97Z"/>
        <path d="M1243.65,385.18c-.85,0-1.69-.32-2.34-.97-1.29-1.29-1.3-3.39,0-4.68l9.62-9.63c1.29-1.3,3.39-1.29,4.68,0,1.3,1.29,1.3,3.39,0,4.68l-9.62,9.63c-.65.65-1.49.97-2.34.97Z"/>
      </g>
      <path d="M860.38,536.33c-2.14,0-4.29-.4-6.34-1.2-4.48-1.74-8-5.16-9.93-9.63-3.92-9.1.16-19.77,9.09-23.79h0c4.31-1.94,9.11-2.06,13.51-.35,4.48,1.74,8,5.16,9.93,9.63,3.92,9.1-.16,19.77-9.09,23.79-2.3,1.03-4.73,1.55-7.17,1.55ZM855.91,507.76c-5.65,2.54-8.22,9.33-5.72,15.12,1.22,2.82,3.44,4.98,6.25,6.07,2.74,1.06,5.72.99,8.4-.22,5.65-2.54,8.22-9.33,5.72-15.12-1.22-2.82-3.44-4.98-6.25-6.07-2.74-1.06-5.72-.99-8.4.22h0Z"/>
    </g>
    <path class="st2" d="M2122.24,833.99l-376.64,101.25c-19.5,5.24-26.62,29.2-13.16,44.24l39.42,44.04c9.97,11.14,9.04,28.25-2.08,38.24l-214.85,192.99c-11.13,10-28.27,9.08-38.27-2.05l-229.65-255.66c-10-11.14-27.14-12.05-38.27-2.05l-575.15,515.01c-11.13,10-12.05,27.13-2.05,38.27l83.95,93.46c10,11.13,27.14,12.05,38.27,2.05l441.45-394.77c11.13-10,28.27-9.08,38.27,2.05l229.56,255.57c10,11.13,27.13,12.05,38.27,2.05l348.33-312.88c11.15-10.01,28.3-9.08,38.3,2.09l42.52,47.5c13.56,15.15,38.36,10.52,45.54-8.5l138.61-367.14c7.8-20.66-11.06-41.47-32.39-35.74Z"/>
    <g>
      <g>
        <g>
          <polygon class="st1" points="754.94 1995.27 764.98 2065.7 786.69 2065.7 787.9 1996.43 754.94 1995.27"/>
          <path d="M786.69,2069.02h-21.71c-1.65,0-3.05-1.21-3.28-2.84l-10.03-70.43c-.14-.97.16-1.95.81-2.68.66-.73,1.61-1.15,2.58-1.09l32.96,1.16c1.81.06,3.23,1.56,3.19,3.37l-1.21,69.27c-.03,1.81-1.5,3.25-3.31,3.25ZM767.85,2062.39h15.59l1.1-62.77-25.75-.91,9.07,63.67Z"/>
        </g>
        <g>
          <path class="st1" d="M764.11,2133.04c10.39,1.11,27.39,1.83,47.21-1.58,6.5-1.12,10.61-7.59,8.83-13.93-4.97-17.67-15.69-51.15-29.17-66.39l-2.94,8.6-4.71-7.85c-.65-1.08-1.76-1.78-3.01-1.9l-9.78-.91c-2.04-.19-3.89,1.22-4.25,3.24l-1.31,7.42-3.72-9.56-6.96,70.75c-.59,6.04,3.77,11.46,9.81,12.11Z"/>
          <path d="M781.85,2137.28c-7.08,0-13.21-.42-18.09-.95h0c-7.8-.83-13.53-7.89-12.75-15.73l6.96-70.75c.15-1.53,1.33-2.75,2.85-2.96,1.44-.18,2.85.58,3.46,1.9,1.47-2.03,3.95-3.27,6.57-3.01l9.78.91c2.29.21,4.36,1.52,5.54,3.49l1.04,1.74.63-1.86c.38-1.11,1.33-1.94,2.48-2.18,1.16-.23,2.35.17,3.13,1.05,13.82,15.62,24.65,49.11,29.87,67.69,1.1,3.91.49,8.13-1.68,11.57-2.18,3.45-5.74,5.83-9.77,6.52-11.07,1.91-21.28,2.55-30.03,2.55ZM763.36,2062.63l-5.77,58.62c-.42,4.23,2.66,8.04,6.87,8.49h0c10.48,1.12,27.03,1.77,46.29-1.55,2.22-.38,4.09-1.63,5.29-3.53,1.19-1.88,1.51-4.1.91-6.24-4.59-16.31-13.57-44.4-24.82-60.44l-.97,2.83c-.42,1.22-1.5,2.08-2.78,2.22-1.28.15-2.53-.48-3.19-1.59l-4.71-7.85c-.1-.17-.28-.28-.48-.3l-9.78-.91c-.33-.05-.62.19-.68.52l-1.31,7.42c-.26,1.46-1.46,2.58-2.94,2.72-.68.06-1.36-.08-1.94-.41Z"/>
        </g>
        <path d="M788.79,2125.26c-15.05,0-26.61-2.83-27.33-3.01-1.77-.44-2.85-2.24-2.41-4.01.44-1.77,2.23-2.85,4.02-2.41.25.06,25.52,6.23,49.14,0,1.77-.46,3.58.59,4.04,2.36.46,1.77-.59,3.58-2.36,4.04-8.62,2.26-17.33,3.02-25.1,3.02Z"/>
        <path d="M797.54,2097.72h-23.29c-1.83,0-3.31-1.48-3.31-3.31s1.48-3.31,3.31-3.31h23.29c1.83,0,3.31,1.48,3.31,3.31s-1.48,3.31-3.31,3.31Z"/>
        <g>
          <polygon class="st1" points="570.71 2001.56 561.67 2083.65 527.14 2090.88 529.25 1994.62 570.71 2001.56"/>
          <path d="M527.14,2094.19c-.77,0-1.52-.27-2.12-.76-.78-.65-1.22-1.61-1.19-2.62l2.1-96.26c.02-.96.46-1.86,1.2-2.48.74-.61,1.71-.87,2.66-.72l41.46,6.94c1.73.29,2.94,1.88,2.75,3.63l-9.03,82.09c-.16,1.42-1.21,2.58-2.61,2.88l-34.53,7.23c-.23.05-.45.07-.68.07ZM532.47,1998.52l-1.93,88.26,28.1-5.88,8.43-76.59-34.6-5.79Z"/>
        </g>
        <g>
          <path class="st1" d="M576.25,2126.69s4.42-39.5-7.96-57.54l-27.62,9.84v-5.9c0-1.9-1.36-3.47-3.09-3.57l-15.4-.88c-5.75-.33-11.48.86-16.73,3.44-18.45,9.07-60.92,32.45-59.58,54.88,0,0,33.44,8.3,130.38-.27Z"/>
          <path d="M497.91,2133.89c-37.16,0-51.93-3.51-52.83-3.73-1.41-.35-2.42-1.57-2.51-3.02-1.41-23.53,37.88-46.47,61.42-58.05,5.75-2.83,12.1-4.15,18.38-3.77l15.4.88c3.48.2,6.21,3.22,6.21,6.87v1.21l23.2-8.26c1.42-.5,2.99,0,3.84,1.25,12.92,18.83,8.7,58.11,8.52,59.78-.18,1.57-1.43,2.79-3,2.93-33.26,2.94-59.05,3.91-78.63,3.91ZM449.26,2124.24c9.39,1.61,45.36,6.16,123.94-.61.66-8.59,1.97-35.65-6.31-50.46l-25.11,8.94c-1.02.36-2.14.2-3.02-.41-.88-.62-1.4-1.63-1.4-2.71v-5.9c0-.18-.07-.28-.1-.3l-15.27-.85c-5.13-.29-10.35.78-15.08,3.11-34.86,17.14-56.03,35.29-57.66,49.19ZM576.25,2126.69h.02-.02Z"/>
        </g>
        <path d="M529.21,2121.72c-41.28,0-72.91-6.28-73.33-6.37-1.79-.36-2.95-2.11-2.59-3.9.36-1.79,2.11-2.95,3.9-2.59.54.11,54.29,10.77,112.79,3.98,1.81-.21,3.46,1.09,3.67,2.91.21,1.82-1.09,3.46-2.91,3.67-14.36,1.66-28.43,2.3-41.54,2.3Z"/>
        <path d="M496.37,2100.88c-1.03,0-2.04-.48-2.69-1.38-1.07-1.49-.73-3.55.75-4.62l26.59-19.13c1.48-1.07,3.55-.73,4.62.75,1.07,1.49.73,3.55-.75,4.62l-26.59,19.13c-.59.42-1.26.62-1.93.62Z"/>
        <g>
          <path class="st3" d="M559.94,1468.92s-49.54,314.89-38.99,541.52l55.08,1.43s59.07-319.6,88.54-376.78c0,0,80.06,291.39,83.15,374.33,0,0,35.63,3.58,49.83-1.53,7.63-80.04,9.92-148.14,10.3-200.15,1.09-148.87-13.13-216.49-20.93-248.57-7.16-29.46-14.85-53.39-20.46-69.59l-18.74-53.46-187.78,32.8Z"/>
          <path d="M576.02,2015.17h-.09l-55.08-1.43c-1.74-.04-3.14-1.42-3.22-3.16-10.44-224.37,38.53-539.03,39.03-542.19.22-1.4,1.31-2.5,2.7-2.75l187.78-32.8c1.6-.28,3.16.64,3.69,2.17l18.74,53.46c7.91,22.81,14.82,46.32,20.55,69.9,9.52,39.18,22.07,107.65,21.03,249.37-.49,66.24-3.96,133.68-10.32,200.44-.12,1.28-.97,2.37-2.18,2.8-14.74,5.3-49.79,1.86-51.28,1.71-1.65-.16-2.92-1.52-2.98-3.17-2.74-73.5-67.24-315.23-80.62-364.7-29.93,73.45-83.94,364.57-84.51,367.63-.29,1.57-1.66,2.71-3.26,2.71ZM524.11,2007.2l49.17,1.27c6.25-33.58,60.11-320.15,88.34-374.91.63-1.21,1.93-1.9,3.29-1.78,1.36.14,2.49,1.1,2.85,2.42,3.24,11.78,78.44,286.29,83.13,372.16,8.13.66,31.65,2.2,43.57-.99,6.21-65.85,9.6-132.35,10.08-197.67,1.03-140.99-11.4-208.93-20.84-247.76-5.68-23.37-12.54-46.68-20.37-69.29l-17.81-50.8-182.67,31.9c-4.45,29.15-48.11,322.2-38.73,535.43Z"/>
        </g>
        <path d="M661.65,1631.8c-1.47,0-2.82-.99-3.2-2.48l-7.97-30.81-19.03-3.93c-1.79-.37-2.94-2.12-2.57-3.91.37-1.79,2.12-2.95,3.91-2.57l21.05,4.35c1.24.25,2.22,1.19,2.54,2.41l8.49,32.81c.46,1.77-.61,3.58-2.38,4.04-.28.07-.56.11-.83.11Z"/>
      </g>
      <g>
        <path d="M564.78,1189.63c32.22-3.63,100.42-10.1,148.39-6.11,14.75,1.23,28.73,6.98,40.04,16.53,34.07,28.77,107.89,100.87,108.85,186.19l-75.62-10.97s26.7,95.67,24.88,111.04c-1.82,15.37-48.63,41.53-107.16,20.07-58.54-21.46-142.78-18.84-170.06,0l-2.63-118.04h-115.03s38.04-123.8,111.84-183.56c10.45-8.46,23.15-13.65,36.5-15.16Z"/>
        <g>
          <path class="st1" d="M416.43,1388.35s-9,41.16,31.92,53.52c40.92,12.36,79.78-62.13,79.78-62.13l-28.49-16.51-83.21,25.12Z"/>
          <path d="M457.75,1446.58c-3.42,0-6.87-.49-10.36-1.54-43.35-13.09-34.29-56.95-34.19-57.39.26-1.17,1.13-2.11,2.28-2.46l83.21-25.12c.88-.26,1.83-.16,2.62.3l28.49,16.51c1.53.89,2.1,2.83,1.28,4.4-1.51,2.89-34.56,65.3-73.31,65.3ZM419.34,1390.93c-1.14,7.89-3.11,37.78,29.96,47.77,33.52,10.11,66.91-44.6,74.36-57.72l-24.44-14.17-79.88,24.11Z"/>
        </g>
        <g>
          <path class="st0" d="M681.83,1482.15h-201.11c-5.1,0-9.54-3.47-10.76-8.42l-40.6-163.69c-1.73-6.99,3.56-13.76,10.76-13.76h201.11c5.1,0,9.54,3.47,10.76,8.42l40.6,163.69c1.73,6.99-3.56,13.76-10.76,13.76Z"/>
          <path d="M681.83,1485.46h-201.11c-6.63,0-12.38-4.5-13.98-10.93l-40.6-163.69c-1.07-4.33-.11-8.83,2.64-12.34,2.75-3.51,6.88-5.53,11.34-5.53h201.11c6.63,0,12.38,4.49,13.98,10.93l40.6,163.69c1.07,4.33.11,8.83-2.64,12.34-2.75,3.51-6.88,5.53-11.34,5.53ZM440.12,1299.59c-2.41,0-4.64,1.09-6.13,2.99-1.48,1.9-2,4.33-1.42,6.66l40.6,163.69c.86,3.48,3.97,5.91,7.55,5.91h201.11c2.41,0,4.64-1.09,6.13-2.99,1.48-1.9,2-4.33,1.42-6.67l-40.6-163.69c-.86-3.48-3.97-5.9-7.55-5.9h-201.11Z"/>
        </g>
        <g>
          <path class="st1" d="M444.28,1377.65l5.91,16.38,48.36-23.03s26.59,23.03-37.86,52.53c-26.86,12.29-16.4-45.88-16.4-45.88Z"/>
          <path d="M453.96,1428.53c-3.29,0-5.68-1.16-7.33-2.43-12.31-9.55-6.34-45.02-5.61-49.03.27-1.47,1.49-2.59,2.98-2.71,1.49-.09,2.88.77,3.39,2.18l4.67,12.94,45.06-21.46c1.19-.57,2.6-.38,3.59.49.33.28,7.95,7.02,6.37,18.07-1.97,13.76-17.12,27.21-45.02,39.98-3.15,1.44-5.83,1.99-8.1,1.99ZM445.88,1391.84c-.86,12.14-.1,25.22,4.82,29.03.72.56,2.91,2.26,8.61-.35,32.04-14.66,40.1-27.07,41.22-34.89.71-4.96-1.31-8.64-2.77-10.58l-46.14,21.97c-.84.4-1.82.43-2.68.07-.86-.36-1.54-1.06-1.86-1.94l-1.2-3.31Z"/>
        </g>
        <g>
          <path class="st1" d="M728.72,1294.32s90.4,50.75,109.05,66.69c18.65,15.94,38.87,28.03,12.59,62.87-26.29,34.84-138.36-104.71-138.36-104.71,0,0-21.53,3.56-29.04-25.76,0,0-36.35,1.3-37.67-10.11l51.27-9.17c6.63-1.19,13.41.99,18.12,5.81l14.05,14.39Z"/>
          <path d="M838.73,1432.77c-37.41,0-117.49-96.98-128.24-110.2-5.81.11-22.8-1.77-30.04-25.79-11.31.17-37.04-.78-38.46-13.11-.2-1.74.99-3.33,2.71-3.64l51.27-9.17c7.72-1.38,15.59,1.14,21.07,6.75l13.72,14.05c7.48,4.21,90.94,51.24,109.17,66.82,1.43,1.22,2.87,2.42,4.3,3.61,17.17,14.31,34.93,29.1,8.78,63.77-3.39,4.49-8.08,6.81-13.95,6.9-.11,0-.22,0-.32,0ZM711.98,1315.85c1,0,1.97.45,2.6,1.24,24.42,30.4,94.16,109.06,124.12,109.06.09,0,.17,0,.26,0,3.77-.06,6.64-1.45,8.76-4.27,22.35-29.63,9.73-40.14-7.73-54.69-1.45-1.21-2.91-2.43-4.36-3.66-18.19-15.55-107.62-65.81-108.52-66.32-.27-.15-.53-.35-.75-.57l-14.05-14.39c-3.94-4.04-9.61-5.85-15.17-4.86l-46.22,8.27c5.44,3.2,19.39,4.89,31.92,4.45,1.53-.13,2.94.98,3.33,2.49,6.62,25.84,24.55,23.42,25.31,23.31.17-.03.34-.04.5-.04Z"/>
        </g>
      </g>
      <g>
        <path d="M601.16,1130.62c-1.64,2.83,1.74,8.33,1.77,8.32.05-.02-1.62-16.09-10.58-20.16-5.19-2.36-7.88,1.57-15.62.5-8.22-1.13-17.27-7.22-20.66-16.12-4.1-10.75,1.81-21,5.53-27.47,3.7-6.43,8.42-13.59,16.6-16.68,10.66-4.03,15.12,2.16,27.33-1.64,9.93-3.09,9.2-7.87,18.04-10.39,7.37-2.09,28.59-.9,33.34,10.39,3.01,7.16-3.49,11.52-.25,22.13,1.95,6.37,5.01,7.15,7.24,12.07,5.54,12.2-1.4,33.64-14.61,40.82-17.93,9.74-44.25-8.47-48.13-1.76Z"/>
        <g>
          <path class="st1" d="M608.84,1139.25l-4.17,34.23c-.79,6.52-5.49,11.89-11.85,13.55l-17.61,4.59,54.27,41.32,60.98-46.26-21.87-4.88c-6.28-1.4-11.11-6.44-12.26-12.77l-9.09-50.43-38.41,20.66Z"/>
          <path d="M629.49,1236.25c-.71,0-1.41-.23-2.01-.68l-54.27-41.33c-1.01-.77-1.49-2.04-1.24-3.29.25-1.24,1.19-2.23,2.41-2.55l17.61-4.59c5.07-1.32,8.76-5.54,9.39-10.74l4.17-34.23c.13-1.07.77-2,1.72-2.52l38.41-20.66c.93-.5,2.05-.53,3.01-.06.95.46,1.63,1.35,1.82,2.39l9.09,50.43c.91,5.04,4.72,9.02,9.72,10.13l21.87,4.88c1.26.28,2.24,1.27,2.51,2.53.27,1.26-.21,2.56-1.23,3.34l-60.98,46.26c-.59.45-1.3.67-2,.67ZM582.64,1193.1l46.85,35.68,53.29-40.43-14.9-3.33c-7.6-1.7-13.41-7.75-14.79-15.42l-8.28-45.94-32.88,17.69-3.96,32.53c-.96,7.92-6.58,14.34-14.3,16.35l-11.02,2.87Z"/>
        </g>
        <g>
          <path class="st1" d="M642.88,1125.54s13.51-5.09,8.44-16.26c-5.08-11.17-13.33-2.92-13.33-2.92,0,0-7.68-27.51-23.81-16.66-16.13,10.85-31.41,14.79-31.41,14.79,0,0,5.68,27.68,15.88,46.1,6.15,11.11,13.95,18.85,23.14,15.12,25.16-10.22,21.09-40.17,21.09-40.17h0Z"/>
          <path d="M617.15,1169.97c-6.16,0-13.75-3.94-21.4-17.77-10.33-18.65-16-45.89-16.23-47.04-.35-1.73.71-3.43,2.41-3.87.15-.04,14.97-3.96,30.39-14.33,5.81-3.9,10.64-3.39,13.66-2.28,7.25,2.67,11.63,11.22,13.73,16.54,1.74-.81,3.92-1.38,6.28-.95,3.51.64,6.32,3.21,8.33,7.65,1.73,3.8,1.89,7.61.48,11.02-1.85,4.48-5.87,7.24-8.46,8.63.35,7.81-.53,31.95-23.32,41.21-1.74.71-3.73,1.19-5.88,1.19ZM586.67,1106.78c1.76,7.55,6.96,27.92,14.88,42.21,6.41,11.58,12.8,16.17,19,13.65,22.42-9.11,19.21-35.54,19.06-36.66-.2-1.52.67-2.99,2.11-3.54,1.5-.58,5.66-2.79,6.99-6.06.7-1.72.57-3.6-.4-5.73-.73-1.61-1.93-3.59-3.49-3.87-1.79-.34-4.03,1.46-4.49,1.92-.83.83-2.04,1.16-3.18.86-1.14-.3-2.03-1.18-2.35-2.31-1.07-3.81-5.16-14.18-11.11-16.37-2.32-.86-4.83-.34-7.67,1.57-12.28,8.25-23.97,12.6-29.36,14.33Z"/>
        </g>
      </g>
    </g>
    <g>
      <g>
        <g>
          <path class="st1" d="M980.7,1923.06c-1.2,1.87-46.89,67.2-46.89,67.2,0,0,1.16,16.65,12.99,19.89l54.34-58.8-20.44-28.29Z"/>
          <path d="M946.81,2013.46c-.29,0-.59-.04-.87-.12-13.95-3.82-15.37-22.08-15.42-22.85-.05-.75.16-1.5.59-2.13,12.65-18.09,45.72-65.41,46.82-67.09.59-.92,1.61-1.49,2.7-1.52,1.05.02,2.13.48,2.77,1.36l20.44,28.29c.92,1.28.82,3.03-.25,4.19l-54.34,58.8c-.64.69-1.52,1.06-2.43,1.06ZM937.24,1991.13c.44,3.13,2.25,12.05,8.63,15.15l51-55.18-16.11-22.29c-9.02,12.99-37.44,53.63-43.52,62.33Z"/>
        </g>
        <g>
          <g>
            <path class="st1" d="M908.92,2001.74s3.89,51.58,26.67,78.73c22.78,27.15,59.34,18.47,59.34,18.47,0,0,2.77-22.97-1.97-28.94-4.74-5.97-30.96-37.88-30.89-66.57l-13.93-18.97-8.22,10.64-3.52-17.38-27.49,24.01Z"/>
            <path d="M981.05,2103.63c-13.39,0-33.26-3.46-48-21.03-23.2-27.65-27.28-78.46-27.44-80.61-.08-1.04.34-2.06,1.12-2.74l27.49-24.01c.89-.78,2.12-1.02,3.24-.64,1.12.38,1.95,1.32,2.18,2.48l2.08,10.28,3.79-4.91c.63-.82,1.59-1.25,2.66-1.29,1.04.01,2.01.51,2.63,1.35l13.93,18.97c.42.57.64,1.26.64,1.97-.03,12.15,5.09,33.08,29.65,63.86l.52.65c5.33,6.71,3.15,27.33,2.66,31.39-.17,1.38-1.17,2.51-2.52,2.82-.6.14-6.39,1.46-14.65,1.46ZM912.37,2003.12c.9,8.89,6.16,51.87,25.75,75.23,18.06,21.53,45.72,19.06,53.77,17.8.82-8.75.88-21.04-1.53-24.07l-.51-.63c-25.06-31.39-30.82-53.55-31.09-66.9l-10.69-14.56-5.53,7.17c-.79,1.02-2.11,1.49-3.37,1.2-1.26-.3-2.24-1.3-2.49-2.57l-2.39-11.8-21.92,19.14Z"/>
          </g>
          <g>
            <path class="st1" d="M918.11,2003.72s5.91,85.7,69.51,83.86l-69.51-83.86Z"/>
            <path d="M985.6,2090.92c-64.06,0-70.74-86.09-70.8-86.97-.12-1.82,1.25-3.4,3.07-3.53,1.86-.08,3.41,1.25,3.53,3.07.23,3.33,6.32,80.8,64.19,80.8.64,0,1.27-.01,1.92-.03,1.82-.11,3.35,1.39,3.41,3.21.05,1.83-1.39,3.35-3.21,3.41-.71.02-1.42.03-2.11.03Z"/>
          </g>
        </g>
        <path d="M1082.99,1467s53.77,158.2,54.04,262.39c.26,104.19-147.12,242.35-147.12,242.35l-30.45-26.41s54.23-57.48,64.61-135.26c10.37-77.78-21.14-224.64-21.14-224.64l-11.76-103.72,91.83-14.71Z"/>
        <g>
          <path class="st1" d="M1003.74,1979.13c-.26,2.8,2.63,41.95,14.77,66.54,0,0-5.61,18.04-22.78,14.8,0,0-26.38-50.22-31.91-82.73l39.92,1.39Z"/>
          <path d="M999.72,2064.17c-1.46,0-2.99-.14-4.6-.44-.99-.19-1.85-.82-2.32-1.71-1.09-2.07-26.68-51.06-32.24-83.72-.17-.98.12-1.99.77-2.74.66-.75,1.6-1.16,2.61-1.13l39.92,1.39c.91.03,1.77.44,2.37,1.12.6.68.89,1.57.81,2.47-.14,2.53,2.47,40.55,14.44,64.78.38.76.45,1.64.19,2.45-2.02,6.48-9.03,17.52-21.95,17.52ZM997.9,2057.44c10.84,1.12,15.65-8.22,17.02-11.6-10.1-21.4-13.78-52.76-14.4-63.52l-32.66-1.14c6.03,28.42,25.88,68.12,30.04,76.25Z"/>
        </g>
        <g>
          <g>
            <path class="st1" d="M986.16,2041.68s-4.38,51.36,2.08,65.91c0,0,48.88,25.14,105.62,25.07,4.03,0,7.33-3.27,7.29-7.3-.08-9.71-2.64-27.45-18.16-41.49-22.57-20.42-71.01-53.95-71.01-53.95l-9.77,11.83,4.1,18.71-20.15-18.78Z"/>
            <path d="M1093.62,2135.98c-56.78,0-104.87-24.4-106.89-25.44-.67-.34-1.21-.91-1.51-1.6-6.72-15.15-2.53-65.4-2.35-67.53.11-1.26.93-2.35,2.11-2.81,1.18-.45,2.52-.2,3.45.67l12.39,11.55-1.83-8.35c-.22-.99.03-2.03.68-2.82l9.77-11.83c1.1-1.33,3.02-1.59,4.44-.61.49.34,48.88,33.89,71.34,54.22,16.55,14.98,19.16,33.95,19.25,43.92.02,2.82-1.06,5.47-3.05,7.48-2.07,2.09-4.86,3.17-7.8,3.15ZM990.84,2105.18c7.47,3.61,52.24,24.17,102.78,24.17,1.17.02,2.27-.37,3.08-1.19.74-.74,1.14-1.73,1.13-2.76-.08-8.89-2.4-25.79-17.07-39.07-19.24-17.41-57.99-44.82-68.18-51.95l-6.8,8.24,3.75,17.14c.31,1.41-.34,2.87-1.6,3.59-1.26.72-2.84.53-3.9-.46l-15.1-14.07c-1.07,16.55-1.97,45.6,1.89,56.37Z"/>
          </g>
          <g>
            <path class="st1" d="M992.04,2092.4s46.48,29.36,102.1,26l-102.1-26Z"/>
            <path d="M1085.07,2121.98c-51.77,0-92.98-25.63-94.8-26.78-1.55-.98-2.01-3.02-1.03-4.57.98-1.55,3.02-2.01,4.57-1.03.46.29,46.29,28.73,100.13,25.49,1.82-.14,3.39,1.28,3.5,3.1.11,1.83-1.28,3.4-3.11,3.51-3.12.19-6.21.28-9.26.28Z"/>
          </g>
        </g>
        <path d="M918.01,1467s-34.05,228.33,45.81,530.17l48.17-6.91s-25.99-263.87,36.26-403.36l13.86-126.08-144.1,6.18Z"/>
      </g>
      <g>
        <path d="M933.47,1116.64c-6.45,12.95,2.71,17.53-1.76,42.68-3.29,18.48-9.93,25.55-5.52,34.75,3.97,8.29,13.54,11.27,19.85,13.24,28.68,8.94,56.32-5.6,73.28-14.53,13.73-7.22,32.55-17.13,31.29-27.17-1.25-9.92-20.65-8.53-29.78-25.15-7.34-13.37,1.1-21.76-6.63-33.06-10-14.63-33.31-14.02-37.05-13.92-15,.39-35.74,7.21-43.68,23.16Z"/>
        <g>
          <g>
            <path class="st1" d="M1093.72,1193.23l-75.42,18.88c-1.37.3-2.76-.47-3.22-1.79-5.13-14.45,2.86-30.62,5.17-34.82.36-.66.99-1.13,1.72-1.33,3.74-1.01,7.11-2.34,10.15-3.94,3.74-1.98,5.27-6.57,3.57-10.44-2.75-6.25-5.75-14.66-7.45-18.11-.41-.84-.4-1.84.12-2.62,1.28-1.9,3.29-3.36,3.04-6.21-.09-1.08-.84-2.04-1.88-2.35-9.47-2.8-16.8-17.02-23.13-21.35-3.01-2.06-5.06-2.61-8.44-4.45-.57-.31-1.25-.45-1.88-.31-16.09,3.49,8.57,23.47-12.52,35.19-1.05.58-1.68,1.77-1.44,2.95.36,1.74.28,4.09.07,6.24,0,.02,0,.04,0,.07-.22,2.17-2.78,3.23-4.48,1.86-3.19-2.6-6.46-3.35-8.38-2.22-2.73,1.6-2.56,6.87-1.59,10.04,1.92,6.3,8.5,9.2,12.24,10.37,1.43.45,2.24,1.95,1.82,3.39-2.49,8.66-10.04,35.74-10.62,48.05-.06,1.26-.94,2.33-2.17,2.6l-14.39,3.15c-21.67,4.75-47.39,17.86-63.97,32.6l-21.4,17.94c-1.66,1.48-9.17,5.92-7.61,7.51,44.82,45.57,132.83,17.07,165.41,2.62,31.6-14.01,63.09-79.42,74.72-66.36,7.65,8.59-5.9-27.61-8.03-27.14Z"/>
            <path d="M930.59,1312.17c-26.1,0-52.26-6.35-71.33-25.74-.85-.86-1.25-2-1.15-3.2.24-2.7,2.84-4.73,7.1-7.76.78-.56,1.46-1.02,1.82-1.34l21.47-18c16.9-15.03,43.2-28.43,65.39-33.29l13.99-3.07c.7-12.32,7.49-37.15,10.58-47.9-4.43-1.47-11.62-4.95-13.9-12.4-1.26-4.11-1.47-11.2,3.08-13.86,3.04-1.78,7.31-1.05,11.32,1.88.17-2.3.05-3.59-.1-4.3-.53-2.58.7-5.2,3.07-6.51,9.27-5.15,7.81-11.47,6.12-18.79-1.05-4.54-2.04-8.82.24-12.41,1.39-2.19,3.7-3.61,7.07-4.34,1.38-.3,2.86-.07,4.16.64,1.25.68,2.3,1.17,3.29,1.64,1.73.81,3.37,1.58,5.43,2.99,2.81,1.92,5.55,5.23,8.45,8.74,4.16,5.03,8.87,10.72,13.75,12.16,2.33.69,4.03,2.8,4.24,5.24.3,3.49-1.54,5.75-2.75,7.25-.2.24-.4.49-.58.74.92,1.94,2.1,4.92,3.45,8.34,1.23,3.11,2.61,6.64,3.91,9.57,2.41,5.47.19,11.93-5.05,14.7-3.25,1.72-6.83,3.12-10.63,4.16-1.87,3.46-9.3,18.47-4.99,31.45l74.88-18.75s.06-.02.09-.02c3.02-.67,4.79,1.6,8.62,11,8.39,20.61,5.55,22.39,3.85,23.44-1.33.83-3.49,1.18-6.2-1.86-.51-.57-.86-.64-1.18-.6-4.8.12-15.27,13.12-24.51,24.59-13.6,16.88-29.02,36.02-45.21,43.2-7.5,3.32-52.54,22.41-97.79,22.41ZM865.65,1283.42c49.59,47.24,148.78,5.27,160.05.28,14.72-6.53,30.26-25.81,42.74-41.3,13.82-17.15,22-26.86,29.51-27.05.62-.01,1.22.04,1.8.15-1.74-5.97-5.27-15.07-7.2-18.57l-73.44,18.38c-3.09.69-6.12-1.01-7.15-3.9-5.55-15.64,2.72-32.67,5.39-37.52.79-1.45,2.13-2.49,3.75-2.93,3.41-.92,6.59-2.15,9.47-3.68,2.19-1.16,3.1-3.87,2.09-6.18-1.34-3.05-2.76-6.64-4.01-9.81-1.32-3.34-2.56-6.5-3.39-8.17-.95-1.92-.82-4.2.34-5.93.37-.55.78-1.06,1.2-1.58.88-1.09,1.22-1.58,1.29-2.11-6.59-2.17-11.84-8.52-16.49-14.14-2.6-3.14-5.05-6.1-7.08-7.49-1.62-1.11-2.9-1.71-4.51-2.46-1.06-.5-2.18-1.03-3.5-1.74-1,.24-2.17.66-2.62,1.36-.79,1.25-.07,4.36.62,7.37,1.69,7.31,4.24,18.34-9.07,25.91.3,1.78.31,4.01.04,6.79-.23,2.29-1.65,4.2-3.71,5.05-2.07.86-4.43.52-6.16-.89-2.45-2-4.27-2.11-4.62-1.94-.55.42-.97,3.34-.09,6.21,1.48,4.84,6.94,7.2,10.06,8.18,3.17,1,4.93,4.27,4.01,7.47-2.32,8.06-9.93,35.29-10.49,47.29-.13,2.75-2.09,5.09-4.77,5.68l-14.4,3.15c-21.17,4.64-46.28,17.43-62.48,31.84l-21.47,18c-.48.42-1.29,1-2.31,1.73-.8.57-2.33,1.65-3.4,2.55Z"/>
          </g>
          <g>
            <path class="st1" d="M998.38,1174.97s10.06,4.08,21.61-.27l-21.61.27Z"/>
            <path d="M1008.85,1180.02c-6.71,0-11.41-1.86-11.71-1.98-1.69-.69-2.51-2.62-1.82-4.31.69-1.69,2.61-2.51,4.3-1.83.19.08,9.15,3.49,19.21-.29,1.71-.64,3.62.22,4.26,1.93s-.22,3.62-1.93,4.27c-4.44,1.67-8.67,2.21-12.31,2.21Z"/>
          </g>
        </g>
        <path d="M944.58,1109.96s-4.85-29.41-28.17-21.45c-23.32,7.96-.7,32.14,16.92,34,17.62,1.86,11.25-12.55,11.25-12.55Z"/>
      </g>
      <g>
        <g>
          <g>
            <path class="st1" d="M1390.07,998.75l28.81-27.89c2-1.94,5.1-2.16,7.36-.54h0c2.56,1.84,3.16,5.41,1.34,7.99l-9.13,12.94,7.35,18.18c2.26,5.6.8,12.01-3.68,16.06l-11.83,10.72c-5.92,5.37-14.53,6.56-21.68,2.99l-4.81-2.4c-7.41-3.69-11.67-11.68-10.59-19.89l1.27-9.68c.8-6.07,6.53-10.21,12.55-9.06l3.05.58Z"/>
            <path d="M1397.3,1044.58c-3.44,0-6.92-.79-10.17-2.41l-4.81-2.4c-8.67-4.32-13.65-13.68-12.4-23.29l1.27-9.68c.5-3.79,2.56-7.25,5.66-9.5,3.1-2.24,7.03-3.1,10.79-2.39l1.36.26,27.58-26.7c3.15-3.05,8.02-3.41,11.59-.85,4.02,2.89,4.97,8.54,2.12,12.58l-8.09,11.47,6.67,16.5c2.77,6.85.95,14.79-4.52,19.76l-11.83,10.72c-4.3,3.89-9.72,5.91-15.22,5.91ZM1384.99,1001.28c-1.52,0-3,.48-4.26,1.39-1.65,1.19-2.71,2.96-2.97,4.99l-1.27,9.68c-.89,6.81,2.64,13.44,8.78,16.5l4.81,2.4c5.97,2.98,13.04,2,17.98-2.48l11.83-10.72c3.43-3.11,4.57-8.08,2.83-12.37l-7.35-18.18c-.42-1.04-.28-2.23.36-3.15l9.13-12.94c.77-1.09.51-2.61-.57-3.39-.96-.69-2.27-.59-3.12.23l-28.82,27.9c-.77.75-1.86,1.07-2.93.87l-3.05-.58c-.47-.09-.94-.14-1.4-.14Z"/>
          </g>
          <g>
            <path class="st1" d="M1390.07,998.75l10.77,7.96s-3.57,10.4-10.77,6.13v-14.1Z"/>
            <path d="M1393.43,1017.18c-1.45,0-3.17-.38-5.05-1.49-1.57-.93-2.09-2.96-1.16-4.54.93-1.57,2.97-2.09,4.54-1.16,1.35.8,2.03.55,2.29.45,1.01-.37,1.94-1.53,2.63-2.69l-8.58-6.35c-1.47-1.09-1.78-3.16-.69-4.63,1.09-1.47,3.17-1.78,4.63-.69l10.77,7.96c1.16.86,1.63,2.37,1.16,3.74-.24.71-2.53,7-7.63,8.88-.78.29-1.77.52-2.91.52Z"/>
          </g>
          <g>
            <path class="st1" d="M1420.4,996.13l-12.13,15.04,12.13-15.04Z"/>
            <path d="M1408.27,1014.49c-.73,0-1.46-.24-2.08-.73-1.42-1.15-1.65-3.23-.5-4.66l12.13-15.04c1.15-1.42,3.23-1.64,4.66-.5,1.43,1.15,1.65,3.23.5,4.66l-12.13,15.04c-.66.81-1.61,1.23-2.58,1.23Z"/>
          </g>
          <g>
            <path class="st1" d="M1424.11,1007.94l-9.77,11.87,9.77-11.87Z"/>
            <path d="M1414.33,1023.12c-.74,0-1.49-.25-2.1-.75-1.41-1.16-1.61-3.25-.45-4.66l9.77-11.87c1.16-1.41,3.25-1.61,4.66-.45,1.41,1.16,1.61,3.25.45,4.66l-9.77,11.87c-.66.8-1.6,1.21-2.56,1.21Z"/>
          </g>
        </g>
        <g>
          <path class="st1" d="M906.18,1530.89s25.69-19.28,40.45-22.5c14.76-3.22,29.29,6.65,29.29,6.65,0,0-15.85,8.82-23.55,9.83-7.7,1.01-27.71,37.9-51.62,26.08l5.43-20.06Z"/>
          <path d="M910.48,1556.65c-3.6,0-7.34-.82-11.2-2.73-1.42-.7-2.14-2.31-1.73-3.83l5.43-20.06c.19-.71.62-1.34,1.21-1.78,1.07-.8,26.44-19.75,41.73-23.09,15.96-3.48,31.22,6.72,31.86,7.15.95.64,1.5,1.74,1.45,2.89-.05,1.15-.69,2.19-1.7,2.74-1.68.94-16.64,9.16-24.73,10.22-1.36.33-5.34,4.48-8.24,7.5-8.38,8.72-20.15,20.99-34.08,20.99ZM904.7,1549.01c13.51,4.53,25.9-8.37,35.08-17.95,5.22-5.43,8.66-9.02,12.16-9.48,4.11-.54,11.5-3.87,16.96-6.6-5.14-2.38-13.41-5.15-21.57-3.36-12.38,2.7-33.63,17.86-38.26,21.25l-4.37,16.14Z"/>
        </g>
        <path class="st0" d="M928.88,1230.31l12.47-4.79s75.42,48.28,108.17-24.83l17.29-4.97,34.94,99.03-175.68,46.81,2.81-111.24Z"/>
        <path class="st3" d="M1391.39,1050.34c-12.19-3.83-24.38-7.67-36.58-11.5-51.35,59.77-101.61,90.49-139.73,107.58-46.94,21.05-127.75,44.88-127.75,44.88h0s.14,38.29-63.11,82c-63.25,43.71-160.11.28-160.11.28,0,0-107.31,91.63-113.53,146.69-10.33,91.46,148.9,135.36,148.9,135.36l6.7-24.75s-64.08-52.15-50.17-105.04c13.9-52.88,49.7-76.3,49.7-76.3,10.67,61.06,6.08,132.15,6.08,132.15,105.2,26.78,195.98-7.7,236.07-27.44,13.65-6.72,21.27-21.54,18.93-36.58-8.83-56.56-31-127.96-31-127.96,24.32-1.26,50.52-5.94,77.14-16.28,130.01-50.49,171.69-197.69,178.47-223.11Z"/>
        <path class="st2" d="M1031.13,1453.2c-1.3,0-2.54-.77-3.06-2.05-.69-1.69.12-3.63,1.81-4.32,76.87-31.51,88.14-118.45,88.25-119.33.22-1.82,1.88-3.12,3.68-2.89,1.82.22,3.11,1.87,2.89,3.68-.11.91-11.89,91.69-92.31,124.66-.41.17-.84.25-1.25.25Z"/>
      </g>
      <path class="st1" d="M1018.05,1727.3c-1.82,0-3.3-1.47-3.31-3.29-.2-34.61,9.39-101.41,24.32-123.23,1.03-1.51,3.09-1.89,4.6-.86,1.51,1.03,1.9,3.09.86,4.6-13.72,20.06-23.36,85.28-23.16,119.45.01,1.83-1.46,3.32-3.29,3.33h-.02Z"/>
      <path class="st1" d="M1008.58,1926.37c-1.74,0-3.2-1.36-3.3-3.13-1.8-32.29,3.37-85.31,3.43-85.84.18-1.82,1.8-3.16,3.62-2.97,1.82.18,3.15,1.8,2.97,3.62-.05.53-5.18,53.04-3.4,84.82.1,1.83-1.3,3.39-3.12,3.49-.06,0-.12,0-.19,0Z"/>
    </g>
    <g>
      <rect class="st1" x="1378.11" y="510" width="715.49" height="273.37" rx="17" ry="17"/>
      <path class="st0" d="M1924.58,590.95h-390.5c-7.78,0-14.08-6.3-14.08-14.08h0c0-7.78,6.3-14.08,14.08-14.08h390.5c7.78,0,14.08,6.3,14.08,14.08h0c0,7.78-6.3,14.08-14.08,14.08Z"/>
    </g>
    <g>
      <g>
        <path class="st3" d="M1502.74,687.78l-30.69-4.46-13.73-27.81c-2.95-5.98-11.48-5.98-14.43,0l-13.73,27.81-30.69,4.46c-6.6.96-9.23,9.07-4.46,13.72l22.21,21.65-5.24,30.57c-1.13,6.57,5.77,11.58,11.67,8.48l27.45-14.43,27.45,14.43c5.9,3.1,12.8-1.91,11.67-8.48l-5.24-30.57,22.21-21.65c4.77-4.65,2.14-12.76-4.46-13.72Z"/>
        <path class="st3" d="M1644.46,687.78l-30.7-4.46-13.73-27.81c-2.95-5.98-11.48-5.98-14.43,0l-13.73,27.81-30.69,4.46c-6.6.96-9.23,9.07-4.46,13.72l22.21,21.65-5.24,30.57c-1.13,6.57,5.77,11.58,11.67,8.48l27.45-14.43,27.45,14.43c5.9,3.1,12.8-1.91,11.67-8.48l-5.24-30.57,22.21-21.65c4.77-4.65,2.14-12.76-4.46-13.72Z"/>
        <path class="st3" d="M1786.18,687.78l-30.69-4.46-13.73-27.81c-2.95-5.98-11.48-5.98-14.43,0l-13.73,27.81-30.69,4.46c-6.6.96-9.23,9.07-4.46,13.72l22.21,21.65-5.24,30.57c-1.13,6.57,5.77,11.58,11.67,8.48l27.45-14.43,27.45,14.43c5.9,3.1,12.8-1.91,11.67-8.48l-5.24-30.57,22.21-21.65c4.77-4.65,2.14-12.76-4.46-13.72Z"/>
        <path class="st3" d="M1927.9,687.78l-30.7-4.46-13.73-27.81c-2.95-5.98-11.48-5.98-14.43,0l-13.73,27.81-30.7,4.46c-6.6.96-9.23,9.07-4.46,13.72l22.21,21.65-5.24,30.57c-1.13,6.57,5.77,11.58,11.67,8.48l27.45-14.43,27.45,14.43c5.9,3.1,12.8-1.91,11.67-8.48l-5.24-30.57,22.21-21.65c4.77-4.65,2.14-12.76-4.46-13.72Z"/>
        <path class="st2" d="M2069.62,687.78l-30.7-4.46-13.73-27.81c-2.95-5.98-11.48-5.98-14.43,0l-13.73,27.81-30.69,4.46c-6.6.96-9.23,9.07-4.46,13.72l22.21,21.65-5.24,30.57c-1.13,6.57,5.77,11.58,11.67,8.48l27.45-14.43,27.45,14.43c5.9,3.1,12.8-1.91,11.67-8.48l-5.24-30.57,22.21-21.65c4.77-4.65,2.14-12.76-4.46-13.72Z"/>
      </g>
      <g>
        <g>
          <path class="st3" d="M1986.66,377.11l-66.93,21.63-55.76-42.87c-11.99-9.22-29.34-.69-29.37,14.44l-.11,70.34-58.01,39.78c-12.47,8.55-9.72,27.69,4.65,32.39l66.86,21.84,19.91,67.46c4.28,14.5,23.33,17.8,32.24,5.58l41.43-56.84,70.31,1.91c15.12.41,24.14-16.69,15.27-28.94l-41.25-56.97,23.54-66.28c5.06-14.25-8.41-28.12-22.8-23.47Z"/>
          <path d="M1897.61,607.54c-1.24,0-2.49-.11-3.74-.32-8.14-1.41-14.66-7.21-17-15.14l-19.42-65.79-65.21-21.3c-7.86-2.57-13.47-9.24-14.64-17.42-1.18-8.18,2.33-16.17,9.14-20.84l56.57-38.8.11-68.6c.02-8.27,4.63-15.67,12.05-19.31,7.41-3.65,16.09-2.78,22.65,2.25l54.38,41.81,65.27-21.09c7.86-2.53,16.33-.44,22.09,5.49,5.76,5.93,7.62,14.45,4.85,22.24l-22.96,64.64,40.23,55.56c4.85,6.69,5.46,15.39,1.61,22.7-3.86,7.31-11.34,11.75-19.65,11.49l-68.57-1.86-40.41,55.43c-4.12,5.65-10.54,8.86-17.36,8.86ZM1865.05,344.38c-2.24,0-4.5.52-6.65,1.58-5.22,2.57-8.34,7.56-8.35,13.38l-.11,70.34c0,1.09-.54,2.11-1.44,2.73l-58,39.78c-4.79,3.29-7.16,8.68-6.34,14.44.83,5.75,4.62,10.27,10.14,12.07l66.86,21.84c1.04.34,1.84,1.16,2.15,2.21l19.91,67.46c1.65,5.57,6.05,9.49,11.77,10.49,5.72,1,11.19-1.22,14.62-5.92l41.43-56.84c.64-.88,1.73-1.44,2.77-1.36l70.31,1.91c5.84.06,10.9-2.82,13.61-7.96,2.71-5.14,2.3-11.02-1.11-15.73l-41.25-56.97c-.64-.88-.8-2.02-.44-3.05l23.55-66.28c1.94-5.48.69-11.24-3.36-15.4-4.05-4.17-9.77-5.59-15.3-3.8h0l-66.93,21.63c-1.03.33-2.17.14-3.04-.53l-55.76-42.87c-2.71-2.08-5.85-3.14-9.04-3.14ZM1998.79,366.14h.02-.02Z"/>
        </g>
        <path d="M2056.75,666.98c-.77,0-1.54-.27-2.16-.81-1.38-1.2-1.53-3.29-.34-4.67,27.33-31.57,39.62-65.03,36.52-99.44-5.67-63.08-61.6-108.79-62.17-109.25-1.42-1.15-1.65-3.23-.5-4.66,1.15-1.42,3.24-1.65,4.65-.5,2.39,1.92,58.66,47.86,64.61,113.76,3.28,36.29-9.54,71.42-38.11,104.42-.65.76-1.58,1.14-2.5,1.14Z"/>
        <path d="M1978.83,677.14c-.44,0-.88-.09-1.3-.27-1.68-.72-2.46-2.67-1.74-4.35,24.3-56.69-15.96-102.75-16.37-103.21-1.22-1.36-1.1-3.46.27-4.68,1.36-1.22,3.46-1.1,4.68.27.44.49,43.45,49.7,17.51,110.23-.54,1.25-1.76,2.01-3.05,2.01Z"/>
      </g>
    </g>
    <path d="M2056.07,786.68h-640.43c-22.52,0-40.84-18.32-40.84-40.84v-198.31c0-22.52,18.32-40.84,40.84-40.84h332.22c1.83,0,3.31,1.48,3.31,3.31s-1.48,3.31-3.31,3.31h-332.22c-18.87,0-34.22,15.35-34.22,34.22v198.31c0,18.87,15.35,34.22,34.22,34.22h640.43c18.87,0,34.22-15.35,34.22-34.22v-68.56c0-1.83,1.48-3.31,3.31-3.31s3.31,1.48,3.31,3.31v68.56c0,22.52-18.32,40.84-40.84,40.84Z"/>
    <g>
      <g>
        <g>
          <path class="st2" d="M623.66,832.58c0-113.79,92.25-206.04,206.04-206.04s206.04,92.25,206.04,206.04-92.25,206.04-206.04,206.04-206.04-92.25-206.04-206.04h0Z"/>
          <path d="M829.7,1041.93c-115.44,0-209.35-93.91-209.35-209.35s93.91-209.35,209.35-209.35,209.35,93.91,209.35,209.35-93.91,209.35-209.35,209.35ZM829.7,629.85c-111.79,0-202.73,90.94-202.73,202.73s90.94,202.73,202.73,202.73,202.73-90.94,202.73-202.73-90.94-202.73-202.73-202.73Z"/>
        </g>
        <path class="st1" d="M664.21,832.58c0-91.4,74.09-165.49,165.49-165.49s165.49,74.09,165.49,165.49-74.09,165.49-165.49,165.49-165.49-74.09-165.49-165.49h0Z"/>
        <path class="st2" d="M702.4,832.58c0-70.31,56.99-127.3,127.3-127.3s127.3,56.99,127.3,127.3-56.99,127.3-127.3,127.3-127.3-56.99-127.3-127.3h0Z"/>
        <path class="st1" d="M747.5,832.58c0-45.4,36.8-82.2,82.2-82.2s82.2,36.8,82.2,82.2-36.8,82.2-82.2,82.2-82.2-36.8-82.2-82.2h0Z"/>
        <path class="st3" d="M784.81,832.58c0-24.79,20.1-44.89,44.89-44.89s44.89,20.1,44.89,44.89-20.1,44.89-44.89,44.89-44.89-20.1-44.89-44.89h0Z"/>
      </g>
      <path class="st3" d="M708.12,873.75c-1.41,0-2.72-.91-3.16-2.33-3.9-12.53-5.87-25.6-5.87-38.84,0-1.83,1.48-3.31,3.31-3.31s3.31,1.48,3.31,3.31c0,12.58,1.88,24.98,5.57,36.87.54,1.75-.43,3.6-2.18,4.15-.33.1-.66.15-.98.15Z"/>
      <path class="st3" d="M954.41,810.24c-1.54,0-2.92-1.08-3.24-2.65-5.64-27.57-20.77-52.67-42.6-70.69-1.41-1.16-1.61-3.25-.45-4.66,1.16-1.41,3.25-1.61,4.66-.45,23,18.98,38.93,45.43,44.88,74.47.37,1.79-.79,3.54-2.58,3.91-.22.05-.45.07-.67.07Z"/>
      <path class="st3" d="M702.4,835.89c-1.83,0-3.31-1.48-3.31-3.31,0-72.02,58.59-130.61,130.61-130.61,13.6,0,27,2.08,39.84,6.19,1.74.56,2.7,2.42,2.14,4.16-.56,1.74-2.43,2.71-4.16,2.14-12.18-3.9-24.91-5.87-37.82-5.87-68.37,0-123.99,55.62-123.99,123.99,0,1.83-1.48,3.31-3.31,3.31Z"/>
    </g>
    <g>
      <g>
        <path class="st1" d="M829.74,836.46l38.54-43.26,5.76,5.77-43.18,38.61c-.74.67-1.78-.37-1.12-1.12Z"/>
        <path d="M830.33,841.11c-1.04,0-2.08-.41-2.9-1.22-1.57-1.56-1.64-3.99-.17-5.64,0,0,0,0,0,0l38.54-43.26c.61-.68,1.47-1.08,2.38-1.11.9-.05,1.79.33,2.44.97l5.76,5.77c.64.64.99,1.52.97,2.43-.03.91-.42,1.77-1.1,2.37l-43.18,38.61c-.79.71-1.77,1.06-2.74,1.06ZM868.42,798.02l-6.73,7.55,7.54-6.74-.81-.81Z"/>
      </g>
      <g>
        <path class="st1" d="M868.78,799.56l-1.1-1.1c-1.93-1.93-1.93-5.07,0-7l16.42-16.45,8.08,8.1-16.42,16.45c-1.93,1.93-5.06,1.93-6.99,0Z"/>
        <path d="M872.28,804.32c-2.21,0-4.28-.86-5.84-2.42l-1.1-1.1c-3.21-3.22-3.21-8.46,0-11.68l16.42-16.45c1.24-1.25,3.44-1.25,4.69,0l8.08,8.09c1.29,1.29,1.29,3.38,0,4.68l-16.42,16.45c-1.56,1.56-3.63,2.42-5.84,2.42ZM884.11,779.7l-14.08,14.1c-.64.64-.64,1.68,0,2.32l1.09,1.1h0c.41.42.9.48,1.15.48s.74-.06,1.15-.48l14.09-14.11-3.4-3.41Z"/>
      </g>
      <g>
        <path class="st1" d="M880.72,788.39l-1.88-1.88c-3.31-3.31-3.31-8.68,0-12l187-187.34c3.31-3.31,8.67-3.31,11.97,0l1.88,1.88c3.31,3.31,3.31,8.68,0,12l-187,187.34c-3.31,3.31-8.67,3.31-11.97,0Z"/>
        <path d="M886.71,794.19c-3.15,0-6.11-1.23-8.33-3.46h0l-1.88-1.88c-4.59-4.6-4.59-12.08,0-16.67l187-187.34c2.22-2.23,5.18-3.46,8.33-3.46s6.11,1.23,8.33,3.46l1.88,1.88c4.59,4.6,4.59,12.08,0,16.68l-187,187.34c-2.22,2.23-5.18,3.46-8.33,3.46ZM883.06,786.05c1.95,1.95,5.34,1.95,7.29,0l187-187.34c2.01-2.02,2.01-5.3,0-7.32l-1.88-1.88c-1.95-1.95-5.34-1.95-7.29,0l-187,187.34c-2.01,2.02-2.01,5.3,0,7.32l1.88,1.88Z"/>
      </g>
      <g>
        <g>
          <path class="st3" d="M1010.8,642.31l-5.73-27.91c-2.26-11,1.15-22.4,9.08-30.34l35.51-35.58c1.29-1.29,3.5-.63,3.87,1.16l8.5,41.35-51.23,51.32Z"/>
          <path d="M1010.8,645.62c-.32,0-.64-.05-.95-.14-1.17-.35-2.05-1.31-2.29-2.5l-5.73-27.91c-2.49-12.13,1.24-24.59,9.98-33.35l35.51-35.58c1.46-1.47,3.59-2,5.57-1.41,1.98.59,3.47,2.22,3.89,4.25l8.5,41.35c.22,1.09-.11,2.22-.9,3.01l-51.22,51.32c-.63.63-1.48.97-2.34.97ZM1050.67,552.15l-34.18,34.24c-7.16,7.18-10.22,17.4-8.18,27.34l4.5,21.88,45.62-45.7-7.76-37.76Z"/>
        </g>
        <g>
          <path class="st3" d="M1024.66,656.19l27.86,5.74c10.98,2.26,22.36-1.15,30.29-9.09l35.51-35.58c1.29-1.29.63-3.51-1.16-3.88l-41.28-8.51-51.23,51.32Z"/>
          <path d="M1059.28,665.93c-2.47,0-4.96-.25-7.43-.76l-27.86-5.74c-1.19-.25-2.15-1.13-2.5-2.29-.35-1.16-.03-2.43.83-3.29l51.23-51.32c.79-.79,1.92-1.14,3.01-.9l41.28,8.51c2.02.42,3.65,1.91,4.24,3.88.59,1.98.05,4.12-1.4,5.58l-35.51,35.58c-6.96,6.97-16.26,10.76-25.87,10.76ZM1031.34,654.18l21.85,4.51c9.93,2.04,20.12-1.02,27.28-8.19l34.19-34.25-37.69-7.77-45.63,45.71Z"/>
        </g>
        <g>
          <path class="st1" d="M1070.1,619.34l33.55,6.29-33.55-6.29Z"/>
          <path d="M1103.65,628.94c-.2,0-.41-.02-.61-.06l-33.55-6.29c-1.8-.34-2.98-2.07-2.64-3.87.34-1.8,2.06-2.98,3.86-2.65l33.55,6.29c1.8.34,2.98,2.07,2.64,3.87-.3,1.59-1.69,2.7-3.25,2.7Z"/>
        </g>
        <g>
          <path class="st1" d="M1056.46,633l33.55,6.29-33.55-6.29Z"/>
          <path d="M1090.01,642.6c-.2,0-.41-.02-.61-.06l-33.55-6.29c-1.8-.34-2.98-2.07-2.64-3.87.34-1.8,2.07-2.98,3.86-2.65l33.55,6.29c1.8.34,2.98,2.07,2.64,3.87-.3,1.59-1.69,2.7-3.25,2.7Z"/>
        </g>
      </g>
      <g>
        <g>
          <path class="st1" d="M1005.37,654.69l6.92,6.93-6.92-6.93Z"/>
          <path d="M1012.3,664.94c-.85,0-1.7-.32-2.34-.97l-6.92-6.94c-1.29-1.29-1.29-3.39,0-4.68,1.29-1.29,3.39-1.29,4.68,0l6.92,6.94c1.29,1.29,1.29,3.39,0,4.68-.65.64-1.49.97-2.34.97Z"/>
        </g>
        <g>
          <path class="st1" d="M1013.38,646.67l6.92,6.93-6.92-6.93Z"/>
          <path d="M1020.31,656.91c-.85,0-1.7-.32-2.34-.97l-6.92-6.94c-1.29-1.29-1.29-3.39,0-4.68,1.29-1.29,3.39-1.29,4.68,0l6.92,6.94c1.29,1.29,1.29,3.39,0,4.68-.65.64-1.49.97-2.34.97Z"/>
        </g>
        <g>
          <path class="st1" d="M1021.39,638.64l6.92,6.93-6.92-6.93Z"/>
          <path d="M1028.31,648.89c-.85,0-1.7-.32-2.34-.97l-6.92-6.93c-1.29-1.29-1.29-3.39,0-4.68,1.29-1.29,3.39-1.29,4.68,0l6.92,6.94c1.29,1.29,1.29,3.39,0,4.68-.65.64-1.49.97-2.34.97Z"/>
        </g>
      </g>
    </g>
  </g>
</svg>