<?xml version="1.0" encoding="UTF-8"?>
<svg id="Layer_1" xmlns="http://www.w3.org/2000/svg" xmlns:xlink="http://www.w3.org/1999/xlink" version="1.1" viewBox="0 0 2475 1650">
  <!-- Generator: Adobe Illustrator 30.2.1, SVG Export Plug-In . SVG Version: 2.1.1 Build 1)  -->
  <defs>
    <style>
      .st0 {
        fill: none;
      }

      .st1 {
        fill: url(#linear-gradient36);
        fill-rule: evenodd;
      }

      .st2 {
        fill: #91b3fa;
      }

      .st3 {
        fill: url(#linear-gradient2);
      }

      .st4 {
        fill: url(#linear-gradient1);
      }

      .st5 {
        fill: url(#linear-gradient9);
      }

      .st6 {
        fill: url(#linear-gradient3);
      }

      .st7 {
        fill: url(#linear-gradient6);
      }

      .st8 {
        fill: url(#linear-gradient8);
      }

      .st9 {
        fill: url(#linear-gradient7);
      }

      .st10 {
        fill: url(#linear-gradient5);
      }

      .st11 {
        fill: url(#linear-gradient4);
      }

      .st12 {
        fill: url(#linear-gradient31);
      }

      .st13 {
        fill: url(#linear-gradient30);
      }

      .st14 {
        fill: url(#linear-gradient38);
      }

      .st15 {
        fill: url(#linear-gradient32);
      }

      .st16 {
        fill: url(#linear-gradient61);
      }

      .st17 {
        fill: url(#linear-gradient60);
      }

      .st18 {
        fill: url(#linear-gradient62);
      }

      .st19 {
        fill: url(#linear-gradient69);
      }

      .st20 {
        fill: url(#linear-gradient65);
      }

      .st21 {
        fill: url(#linear-gradient68);
      }

      .st22 {
        fill: url(#linear-gradient67);
      }

      .st23 {
        fill: url(#linear-gradient64);
      }

      .st24 {
        fill: url(#linear-gradient63);
      }

      .st25 {
        fill: url(#linear-gradient66);
      }

      .st26 {
        fill: url(#linear-gradient71);
      }

      .st27 {
        fill: url(#linear-gradient70);
      }

      .st28 {
        fill: url(#linear-gradient39);
      }

      .st29 {
        fill: url(#linear-gradient34);
      }

      .st30 {
        fill: url(#linear-gradient37);
      }

      .st31 {
        fill: url(#linear-gradient35);
      }

      .st32 {
        fill: url(#linear-gradient33);
      }

      .st33 {
        fill: url(#linear-gradient40);
      }

      .st34 {
        fill: url(#linear-gradient41);
      }

      .st35 {
        fill: url(#linear-gradient42);
      }

      .st36 {
        fill: url(#linear-gradient46);
      }

      .st37 {
        fill: url(#linear-gradient48);
      }

      .st38 {
        fill: url(#linear-gradient43);
      }

      .st39 {
        fill: url(#linear-gradient44);
      }

      .st40 {
        fill: url(#linear-gradient47);
      }

      .st41 {
        fill: url(#linear-gradient45);
      }

      .st42 {
        fill: url(#linear-gradient49);
      }

      .st43 {
        fill: url(#linear-gradient50);
      }

      .st44 {
        fill: url(#linear-gradient51);
      }

      .st45 {
        fill: url(#linear-gradient52);
      }

      .st46 {
        fill: url(#linear-gradient59);
      }

      .st47 {
        fill: url(#linear-gradient53);
      }

      .st48 {
        fill: url(#linear-gradient56);
      }

      .st49 {
        fill: url(#linear-gradient54);
      }

      .st50 {
        fill: url(#linear-gradient57);
      }

      .st51 {
        fill: url(#linear-gradient55);
      }

      .st52 {
        fill: url(#linear-gradient58);
      }

      .st53 {
        fill: url(#linear-gradient28);
      }

      .st54 {
        fill: url(#linear-gradient29);
      }

      .st55 {
        fill: url(#linear-gradient18);
      }

      .st56 {
        fill: url(#linear-gradient13);
      }

      .st57 {
        fill: url(#linear-gradient12);
      }

      .st58 {
        fill: url(#linear-gradient15);
      }

      .st59 {
        fill: url(#linear-gradient16);
      }

      .st60 {
        fill: url(#linear-gradient11);
      }

      .st61 {
        fill: url(#linear-gradient10);
      }

      .st62 {
        fill: url(#linear-gradient17);
      }

      .st63 {
        fill: url(#linear-gradient14);
      }

      .st64 {
        fill: url(#linear-gradient19);
      }

      .st65 {
        fill: url(#linear-gradient23);
      }

      .st66 {
        fill: url(#linear-gradient22);
      }

      .st67 {
        fill: url(#linear-gradient24);
      }

      .st68 {
        fill: url(#linear-gradient25);
      }

      .st69 {
        fill: url(#linear-gradient21);
      }

      .st70 {
        fill: url(#linear-gradient20);
      }

      .st71 {
        fill: url(#linear-gradient27);
      }

      .st72 {
        fill: url(#linear-gradient26);
      }

      .st73 {
        fill: #bdd0fb;
      }

      .st74 {
        fill: url(#linear-gradient);
      }

      .st75 {
        fill: #7d97f4;
      }

      .st76, .st77, .st78 {
        fill: #fff;
      }

      .st79 {
        fill: #dce5fe;
      }

      .st80, .st77 {
        opacity: .76;
      }

      .st81 {
        opacity: .73;
      }

      .st82 {
        clip-path: url(#clippath);
      }

      .st77, .st78 {
        isolation: isolate;
      }

      .st78 {
        opacity: .67;
      }
    </style>
    <linearGradient id="linear-gradient" x1="3894.28" y1="806.58" x2="733.09" y2="846.1" gradientTransform="translate(0 1649.57) scale(1 -1)" gradientUnits="userSpaceOnUse">
      <stop offset="0" stop-color="#dae3fe"/>
      <stop offset="1" stop-color="#e9effd"/>
    </linearGradient>
    <linearGradient id="linear-gradient1" x1="1607.74" y1="1350.15" x2="1538.81" y2="1068.46" gradientTransform="translate(0 1649.57) scale(1 -1)" gradientUnits="userSpaceOnUse">
      <stop offset="0" stop-color="#fe7062"/>
      <stop offset="1" stop-color="#ff928e"/>
    </linearGradient>
    <linearGradient id="linear-gradient2" x1="1875.8" y1="916.66" x2="1927.68" y2="916.66" gradientTransform="translate(0 1649.57) scale(1 -1)" gradientUnits="userSpaceOnUse">
      <stop offset="0" stop-color="#fe7062"/>
      <stop offset="1" stop-color="#ff928e"/>
    </linearGradient>
    <linearGradient id="linear-gradient3" x1="2022.89" y1="1353.97" x2="2068.9" y2="1353.97" gradientTransform="translate(0 1649.57) scale(1 -1)" gradientUnits="userSpaceOnUse">
      <stop offset="0" stop-color="#4042e2"/>
      <stop offset="1" stop-color="#4f52ff"/>
    </linearGradient>
    <linearGradient id="linear-gradient4" x1="2009.32" y1="868.97" x2="2173.96" y2="868.97" gradientTransform="translate(0 1649.57) scale(1 -1)" gradientUnits="userSpaceOnUse">
      <stop offset="0" stop-color="#4042e2"/>
      <stop offset="1" stop-color="#4f52ff"/>
    </linearGradient>
    <linearGradient id="linear-gradient5" x1="1648.51" y1="1073.5" x2="1770.17" y2="1236.58" gradientTransform="translate(0 1649.57) scale(1 -1)" gradientUnits="userSpaceOnUse">
      <stop offset="0" stop-color="#4042e2"/>
      <stop offset="1" stop-color="#4f52ff"/>
    </linearGradient>
    <linearGradient id="linear-gradient6" x1="1701.32" y1="1161.92" x2="1725.81" y2="1161.92" gradientTransform="translate(0 1649.57) scale(1 -1)" gradientUnits="userSpaceOnUse">
      <stop offset="0" stop-color="#dae3fe"/>
      <stop offset="1" stop-color="#e9effd"/>
    </linearGradient>
    <linearGradient id="linear-gradient7" x1="1707.87" y1="1176.31" x2="1746.97" y2="1176.31" gradientTransform="translate(0 1649.57) scale(1 -1)" gradientUnits="userSpaceOnUse">
      <stop offset="0" stop-color="#dae3fe"/>
      <stop offset="1" stop-color="#e9effd"/>
    </linearGradient>
    <linearGradient id="linear-gradient8" x1="1704.71" y1="1187.14" x2="1765.8" y2="1187.14" gradientTransform="translate(0 1649.57) scale(1 -1)" gradientUnits="userSpaceOnUse">
      <stop offset="0" stop-color="#dae3fe"/>
      <stop offset="1" stop-color="#e9effd"/>
    </linearGradient>
    <linearGradient id="linear-gradient9" x1="1701.56" y1="1197.96" x2="1784.53" y2="1197.96" gradientTransform="translate(0 1649.57) scale(1 -1)" gradientUnits="userSpaceOnUse">
      <stop offset="0" stop-color="#dae3fe"/>
      <stop offset="1" stop-color="#e9effd"/>
    </linearGradient>
    <linearGradient id="linear-gradient10" x1="239.75" y1="116.75" x2="596.74" y2="595.64" gradientTransform="translate(0 1649.57) scale(1 -1)" gradientUnits="userSpaceOnUse">
      <stop offset="0" stop-color="#09005d"/>
      <stop offset="1" stop-color="#1a0f91"/>
    </linearGradient>
    <linearGradient id="linear-gradient11" x1="778.23" y1="1234.86" x2="1374.67" y2="172.59" gradientTransform="translate(0 1649.57) scale(1 -1)" gradientUnits="userSpaceOnUse">
      <stop offset="0" stop-color="#4042e2"/>
      <stop offset="1" stop-color="#4f52ff"/>
    </linearGradient>
    <linearGradient id="linear-gradient12" x1="2220.62" y1="1495.16" x2="1252.62" y2="835.16" gradientTransform="translate(0 1649.57) scale(1 -1)" gradientUnits="userSpaceOnUse">
      <stop offset="0" stop-color="#09005d"/>
      <stop offset="1" stop-color="#1a0f91"/>
    </linearGradient>
    <linearGradient id="linear-gradient13" x1="1510.46" y1="947.22" x2="1262.78" y2="871.76" gradientTransform="translate(0 1649.57) scale(1 -1)" gradientUnits="userSpaceOnUse">
      <stop offset="0" stop-color="#4042e2"/>
      <stop offset="1" stop-color="#4f52ff"/>
    </linearGradient>
    <clipPath id="clippath">
      <path class="st0" d="M1347.81,1210.81c-9.02-9.17-28.66-44.55-45.5-136.03-16.28-88.41-25.24-203.07-25.24-322.88s8.96-234.47,25.24-322.88c16.84-91.48,36.48-126.86,45.5-136.03,9.02,9.17,28.66,44.55,45.5,136.03,16.28,88.41,144.7,203.07,144.7,322.88s-128.43,234.47-144.7,322.88c-16.84,91.48-36.48,126.85-45.5,136.03Z"/>
    </clipPath>
    <linearGradient id="linear-gradient14" x1="1557.88" y1="1215.15" x2="1253.13" y2="788.5" gradientTransform="translate(0 1649.57) scale(1 -1)" gradientUnits="userSpaceOnUse">
      <stop offset="0" stop-color="#fe7062"/>
      <stop offset="1" stop-color="#ff928e"/>
    </linearGradient>
    <linearGradient id="linear-gradient15" x1="390.09" y1="662.27" x2="363.96" y2="1319.65" gradientTransform="translate(0 1649.57) scale(1 -1)" gradientUnits="userSpaceOnUse">
      <stop offset="0" stop-color="#09005d"/>
      <stop offset="1" stop-color="#1a0f91"/>
    </linearGradient>
    <linearGradient id="linear-gradient16" x1="448.28" y1="195.88" x2="230.87" y2="-40.6" gradientTransform="translate(0 1649.57) scale(1 -1)" gradientUnits="userSpaceOnUse">
      <stop offset="0" stop-color="#4042e2"/>
      <stop offset="1" stop-color="#4f52ff"/>
    </linearGradient>
    <linearGradient id="linear-gradient17" x1="377.71" y1="178.32" x2="397.02" y2="178.32" gradientTransform="translate(0 1649.57) scale(1 -1)" gradientUnits="userSpaceOnUse">
      <stop offset="0" stop-color="#ff928e"/>
      <stop offset="1" stop-color="#feb3b1"/>
    </linearGradient>
    <linearGradient id="linear-gradient18" x1="331.92" y1="325.98" x2="395.77" y2="325.98" gradientTransform="translate(0 1649.57) scale(1 -1)" gradientUnits="userSpaceOnUse">
      <stop offset="0" stop-color="#09005d"/>
      <stop offset="1" stop-color="#1a0f91"/>
    </linearGradient>
    <linearGradient id="linear-gradient19" x1="399.51" y1="240.72" x2="182.09" y2="4.24" gradientTransform="translate(0 1649.57) scale(1 -1)" gradientUnits="userSpaceOnUse">
      <stop offset="0" stop-color="#4042e2"/>
      <stop offset="1" stop-color="#4f52ff"/>
    </linearGradient>
    <linearGradient id="linear-gradient20" x1="308.11" y1="179.31" x2="324.78" y2="179.31" gradientTransform="translate(0 1649.57) scale(1 -1)" gradientUnits="userSpaceOnUse">
      <stop offset="0" stop-color="#ff928e"/>
      <stop offset="1" stop-color="#feb3b1"/>
    </linearGradient>
    <linearGradient id="linear-gradient21" x1="290.14" y1="328.07" x2="380.79" y2="328.07" gradientTransform="translate(0 1649.57) scale(1 -1)" gradientUnits="userSpaceOnUse">
      <stop offset="0" stop-color="#09005d"/>
      <stop offset="1" stop-color="#1a0f91"/>
    </linearGradient>
    <linearGradient id="linear-gradient22" x1="349.64" y1="546.13" x2="228.14" y2="264.15" gradientTransform="translate(0 1649.57) scale(1 -1)" gradientUnits="userSpaceOnUse">
      <stop offset="0" stop-color="#fe7062"/>
      <stop offset="1" stop-color="#ff928e"/>
    </linearGradient>
    <linearGradient id="linear-gradient23" x1="581.65" y1="807.57" x2="451.65" y2="605.57" gradientTransform="translate(0 1649.57) scale(1 -1)" gradientUnits="userSpaceOnUse">
      <stop offset="0" stop-color="#ff928e"/>
      <stop offset="1" stop-color="#feb3b1"/>
    </linearGradient>
    <linearGradient id="linear-gradient24" x1="6401.18" y1="-4597.27" x2="6271.18" y2="-4799.27" gradientTransform="translate(10411.78 1649.57) rotate(-180)" gradientUnits="userSpaceOnUse">
      <stop offset="0" stop-color="#ff928e"/>
      <stop offset="1" stop-color="#feb3b1"/>
    </linearGradient>
    <linearGradient id="linear-gradient25" x1="580.16" y1="852.81" x2="549.16" y2="720.81" gradientTransform="translate(0 1649.57) scale(1 -1)" gradientUnits="userSpaceOnUse">
      <stop offset="0" stop-color="#ff928e"/>
      <stop offset="1" stop-color="#feb3b1"/>
    </linearGradient>
    <linearGradient id="linear-gradient26" x1="275.47" y1="578.09" x2="153.98" y2="296.1" gradientTransform="translate(0 1649.57) scale(1 -1)" gradientUnits="userSpaceOnUse">
      <stop offset="0" stop-color="#fe7062"/>
      <stop offset="1" stop-color="#ff928e"/>
    </linearGradient>
    <linearGradient id="linear-gradient27" x1="241.29" y1="542.38" x2="366.14" y2="542.38" gradientTransform="translate(0 1649.57) scale(1 -1)" gradientUnits="userSpaceOnUse">
      <stop offset="0" stop-color="#ff928e"/>
      <stop offset="1" stop-color="#feb3b1"/>
    </linearGradient>
    <linearGradient id="linear-gradient28" x1="446.9" y1="676.24" x2="432.28" y2="612.03" gradientTransform="translate(0 1649.57) scale(1 -1)" gradientUnits="userSpaceOnUse">
      <stop offset="0" stop-color="#4042e2"/>
      <stop offset="1" stop-color="#4f52ff"/>
    </linearGradient>
    <linearGradient id="linear-gradient29" x1="439.25" y1="649.31" x2="432.25" y2="607.35" gradientTransform="translate(0 1649.57) scale(1 -1)" gradientUnits="userSpaceOnUse">
      <stop offset="0" stop-color="#4042e2"/>
      <stop offset="1" stop-color="#4f52ff"/>
    </linearGradient>
    <linearGradient id="linear-gradient30" x1="356.87" y1="555.47" x2="395.77" y2="555.47" gradientTransform="translate(0 1649.57) scale(1 -1)" gradientUnits="userSpaceOnUse">
      <stop offset="0" stop-color="#ff928e"/>
      <stop offset="1" stop-color="#feb3b1"/>
    </linearGradient>
    <linearGradient id="linear-gradient31" x1="371.1" y1="706.9" x2="345.1" y2="600.9" gradientTransform="translate(0 1649.57) scale(1 -1)" gradientUnits="userSpaceOnUse">
      <stop offset="0" stop-color="#ff928e"/>
      <stop offset="1" stop-color="#feb3b1"/>
    </linearGradient>
    <linearGradient id="linear-gradient32" x1="364.46" y1="793" x2="376.84" y2="712.2" gradientTransform="translate(0 1649.57) scale(1 -1)" gradientUnits="userSpaceOnUse">
      <stop offset="0" stop-color="#ff928e"/>
      <stop offset="1" stop-color="#feb3b1"/>
    </linearGradient>
    <linearGradient id="linear-gradient33" x1="-5980.24" y1="4074.04" x2="-5964.81" y2="3986.03" gradientTransform="translate(7489.42 -68.7) rotate(-41.75) scale(1 -1)" gradientUnits="userSpaceOnUse">
      <stop offset="0" stop-color="#4042e2"/>
      <stop offset="1" stop-color="#4f52ff"/>
    </linearGradient>
    <linearGradient id="linear-gradient34" x1="346.37" y1="790.23" x2="358.75" y2="709.43" gradientTransform="translate(0 1649.57) scale(1 -1)" gradientUnits="userSpaceOnUse">
      <stop offset="0" stop-color="#ff928e"/>
      <stop offset="1" stop-color="#feb3b1"/>
    </linearGradient>
    <linearGradient id="linear-gradient35" x1="1585.1" y1="907.26" x2="1727.23" y2="907.26" gradientTransform="translate(0 1649.57) scale(1 -1)" gradientUnits="userSpaceOnUse">
      <stop offset="0" stop-color="#dae3fe"/>
      <stop offset="1" stop-color="#e9effd"/>
    </linearGradient>
    <linearGradient id="linear-gradient36" x1="1633.9" y1="905.44" x2="1691.04" y2="905.44" gradientTransform="translate(0 1649.57) scale(1 -1)" gradientUnits="userSpaceOnUse">
      <stop offset="0" stop-color="#dae3fe"/>
      <stop offset="1" stop-color="#e9effd"/>
    </linearGradient>
    <linearGradient id="linear-gradient37" x1="1937.93" y1="1397.7" x2="2171.23" y2="697.8" gradientTransform="translate(0 1649.57) scale(1 -1)" gradientUnits="userSpaceOnUse">
      <stop offset="0" stop-color="#fe7062"/>
      <stop offset="1" stop-color="#ff928e"/>
    </linearGradient>
    <linearGradient id="linear-gradient38" x1="2092.35" y1="764.67" x2="2237.35" y2="516.67" gradientTransform="translate(0 1649.57) scale(1 -1)" gradientUnits="userSpaceOnUse">
      <stop offset="0" stop-color="#09005d"/>
      <stop offset="1" stop-color="#1a0f91"/>
    </linearGradient>
    <linearGradient id="linear-gradient39" x1="2089.17" y1="614.82" x2="2062.47" y2="515.99" gradientTransform="translate(4116.17 1649.57) rotate(-180)" gradientUnits="userSpaceOnUse">
      <stop offset="0" stop-color="#ff928e"/>
      <stop offset="1" stop-color="#feb3b1"/>
    </linearGradient>
    <linearGradient id="linear-gradient40" x1="6401.75" y1="741.38" x2="6385.95" y2="1250.91" gradientTransform="translate(8402.44 2335.01) rotate(-172.84)" gradientUnits="userSpaceOnUse">
      <stop offset="0" stop-color="#cb236d"/>
      <stop offset="1" stop-color="#4c246d"/>
    </linearGradient>
    <linearGradient id="linear-gradient41" x1="2089.26" y1="675.95" x2="2124.26" y2="594.95" gradientTransform="translate(0 1649.57) scale(1 -1)" gradientUnits="userSpaceOnUse">
      <stop offset="0" stop-color="#ff928e"/>
      <stop offset="1" stop-color="#feb3b1"/>
    </linearGradient>
    <linearGradient id="linear-gradient42" x1="-2785.81" y1="5702.7" x2="-2830.81" y2="5651.7" gradientTransform="translate(9820.27 -1684.48) rotate(-16.09) scale(1 -1)" gradientUnits="userSpaceOnUse">
      <stop offset="0" stop-color="#ff928e"/>
      <stop offset="1" stop-color="#feb3b1"/>
    </linearGradient>
    <linearGradient id="linear-gradient43" x1="2059.68" y1="745.57" x2="2204.68" y2="497.57" gradientTransform="translate(0 1649.57) scale(1 -1)" gradientUnits="userSpaceOnUse">
      <stop offset="0" stop-color="#09005d"/>
      <stop offset="1" stop-color="#1a0f91"/>
    </linearGradient>
    <linearGradient id="linear-gradient44" x1="-2769.94" y1="5688.71" x2="-2814.94" y2="5637.71" gradientTransform="translate(9820.27 -1684.48) rotate(-16.09) scale(1 -1)" gradientUnits="userSpaceOnUse">
      <stop offset="0" stop-color="#ff928e"/>
      <stop offset="1" stop-color="#feb3b1"/>
    </linearGradient>
    <linearGradient id="linear-gradient45" x1="2097.15" y1="257.95" x2="2056.15" y2="112.95" gradientTransform="translate(0 1649.57) scale(1 -1)" gradientUnits="userSpaceOnUse">
      <stop offset="0" stop-color="#ff928e"/>
      <stop offset="1" stop-color="#feb3b1"/>
    </linearGradient>
    <linearGradient id="linear-gradient46" x1="6390.7" y1="168.03" x2="6434.18" y2="168.03" gradientTransform="translate(8555.8 1706.35) rotate(-179.46)" gradientUnits="userSpaceOnUse">
      <stop offset="0" stop-color="#09005d"/>
      <stop offset="1" stop-color="#1a0f91"/>
    </linearGradient>
    <linearGradient id="linear-gradient47" x1="2130.43" y1="434.53" x2="2108.43" y2="226.53" gradientTransform="translate(0 1649.57) scale(1 -1)" gradientUnits="userSpaceOnUse">
      <stop offset="0" stop-color="#ff928e"/>
      <stop offset="1" stop-color="#feb3b1"/>
    </linearGradient>
    <linearGradient id="linear-gradient48" x1="6431.01" y1="160.18" x2="6482.84" y2="160.18" gradientTransform="translate(8555.8 1706.35) rotate(-179.46)" gradientUnits="userSpaceOnUse">
      <stop offset="0" stop-color="#09005d"/>
      <stop offset="1" stop-color="#1a0f91"/>
    </linearGradient>
    <linearGradient id="linear-gradient49" x1="6502.81" y1="508.31" x2="6378.63" y2="231.51" gradientTransform="translate(8555.8 1706.35) rotate(-179.46)" gradientUnits="userSpaceOnUse">
      <stop offset="0" stop-color="#09005d"/>
      <stop offset="1" stop-color="#1a0f91"/>
    </linearGradient>
    <linearGradient id="linear-gradient50" x1="2141.41" y1="667.22" x2="2072.41" y2="538.22" gradientTransform="translate(0 1649.57) scale(1 -1)" gradientUnits="userSpaceOnUse">
      <stop offset="0" stop-color="#ff928e"/>
      <stop offset="1" stop-color="#feb3b1"/>
    </linearGradient>
    <linearGradient id="linear-gradient51" x1="-8291.66" y1="1376.62" x2="-8311.01" y2="1356.17" gradientTransform="translate(10488.23 1429.09) rotate(-9.41) scale(1 -1.28)" gradientUnits="userSpaceOnUse">
      <stop offset="0" stop-color="#2b3582"/>
      <stop offset="1" stop-color="#150e42"/>
    </linearGradient>
    <linearGradient id="linear-gradient52" x1="2118.69" y1="604.37" x2="2104.61" y2="552.29" gradientTransform="translate(4116.17 1649.57) rotate(-180)" gradientUnits="userSpaceOnUse">
      <stop offset="0" stop-color="#ff928e"/>
      <stop offset="1" stop-color="#feb3b1"/>
    </linearGradient>
    <linearGradient id="linear-gradient53" x1="1798.7" y1="807.79" x2="1936.21" y2="395.24" gradientTransform="translate(0 1649.57) scale(1 -1)" gradientUnits="userSpaceOnUse">
      <stop offset="0" stop-color="#fe7062"/>
      <stop offset="1" stop-color="#ff928e"/>
    </linearGradient>
    <linearGradient id="linear-gradient54" x1="1318.56" y1="14.58" x2="1321.19" y2="93.49" gradientTransform="translate(2825.66 1649.57) rotate(-180)" gradientUnits="userSpaceOnUse">
      <stop offset="0" stop-color="#4042e2"/>
      <stop offset="1" stop-color="#4f52ff"/>
    </linearGradient>
    <linearGradient id="linear-gradient55" x1="1412.31" y1="216.54" x2="1249.73" y2="88.88" gradientTransform="translate(2825.66 1649.57) rotate(-180)" gradientUnits="userSpaceOnUse">
      <stop offset="0" stop-color="#09005d"/>
      <stop offset="1" stop-color="#1a0f91"/>
    </linearGradient>
    <linearGradient id="linear-gradient56" x1="3322.07" y1="214.59" x2="3313.25" y2="137.57" gradientTransform="translate(-1811.84 1649.57) scale(1 -1)" gradientUnits="userSpaceOnUse">
      <stop offset="0" stop-color="#ff928e"/>
      <stop offset="1" stop-color="#feb3b1"/>
    </linearGradient>
    <linearGradient id="linear-gradient57" x1="3471.9" y1="178.65" x2="3314.67" y2="55.2" gradientTransform="translate(-1811.84 1649.57) scale(1 -1)" gradientUnits="userSpaceOnUse">
      <stop offset="0" stop-color="#09005d"/>
      <stop offset="1" stop-color="#1a0f91"/>
    </linearGradient>
    <linearGradient id="linear-gradient58" x1="3426.56" y1="-34.22" x2="3429.19" y2="44.69" gradientTransform="translate(-1811.84 1649.57) scale(1 -1)" gradientUnits="userSpaceOnUse">
      <stop offset="0" stop-color="#4042e2"/>
      <stop offset="1" stop-color="#4f52ff"/>
    </linearGradient>
    <linearGradient id="linear-gradient59" x1="3415.04" y1="204.73" x2="3406.78" y2="132.69" gradientTransform="translate(-1811.84 1649.57) scale(1 -1)" gradientUnits="userSpaceOnUse">
      <stop offset="0" stop-color="#ff928e"/>
      <stop offset="1" stop-color="#feb3b1"/>
    </linearGradient>
    <linearGradient id="linear-gradient60" x1="1552.24" y1="207.04" x2="1562.14" y2="517.34" gradientTransform="translate(0 1649.57) scale(1 -1)" gradientUnits="userSpaceOnUse">
      <stop offset="0" stop-color="#09005d"/>
      <stop offset="1" stop-color="#1a0f91"/>
    </linearGradient>
    <linearGradient id="linear-gradient61" x1="1542.31" y1="687.62" x2="1530.24" y2="424.11" gradientTransform="translate(0 1649.57) scale(1 -1)" gradientUnits="userSpaceOnUse">
      <stop offset="0" stop-color="#4042e2"/>
      <stop offset="1" stop-color="#4f52ff"/>
    </linearGradient>
    <linearGradient id="linear-gradient62" x1="1536.71" y1="731.66" x2="1536.21" y2="663.16" gradientTransform="translate(0 1649.57) scale(1 -1)" gradientUnits="userSpaceOnUse">
      <stop offset="0" stop-color="#ff928e"/>
      <stop offset="1" stop-color="#feb3b1"/>
    </linearGradient>
    <linearGradient id="linear-gradient63" x1="1460.38" y1="691.38" x2="1448.31" y2="427.86" gradientTransform="translate(0 1649.57) scale(1 -1)" gradientUnits="userSpaceOnUse">
      <stop offset="0" stop-color="#4042e2"/>
      <stop offset="1" stop-color="#4f52ff"/>
    </linearGradient>
    <linearGradient id="linear-gradient64" x1="1526.16" y1="500.89" x2="1455.73" y2="440.74" gradientTransform="translate(0 1649.57) scale(1 -1)" gradientUnits="userSpaceOnUse">
      <stop offset="0" stop-color="#f9b776"/>
      <stop offset="1" stop-color="#f47960"/>
    </linearGradient>
    <linearGradient id="linear-gradient65" x1="1642.56" y1="683.03" x2="1630.5" y2="419.51" gradientTransform="translate(0 1649.57) scale(1 -1)" gradientUnits="userSpaceOnUse">
      <stop offset="0" stop-color="#4042e2"/>
      <stop offset="1" stop-color="#4f52ff"/>
    </linearGradient>
    <linearGradient id="linear-gradient66" x1="1568.53" y1="497.65" x2="1608.15" y2="458.04" gradientTransform="translate(0 1649.57) scale(1 -1)" gradientUnits="userSpaceOnUse">
      <stop offset="0" stop-color="#f9b776"/>
      <stop offset="1" stop-color="#f47960"/>
    </linearGradient>
    <linearGradient id="linear-gradient67" x1="1576.25" y1="769.54" x2="1527.25" y2="728.04" gradientTransform="translate(0 1649.57) scale(1 -1)" gradientUnits="userSpaceOnUse">
      <stop offset="0" stop-color="#ff928e"/>
      <stop offset="1" stop-color="#feb3b1"/>
    </linearGradient>
    <linearGradient id="linear-gradient68" x1="-1262.03" y1="2665.18" x2="-1191.98" y2="2665.18" gradientTransform="translate(4329.93 1836.67) rotate(-46.73) scale(1 -1)" gradientUnits="userSpaceOnUse">
      <stop offset="0" stop-color="#09005d"/>
      <stop offset="1" stop-color="#1a0f91"/>
    </linearGradient>
    <linearGradient id="linear-gradient69" x1="-1303.13" y1="2622.37" x2="-1256.09" y2="2670.63" gradientTransform="translate(4329.93 1836.67) rotate(-46.73) scale(1 -1)" gradientUnits="userSpaceOnUse">
      <stop offset="0" stop-color="#ff928e"/>
      <stop offset="1" stop-color="#feb3b1"/>
    </linearGradient>
    <linearGradient id="linear-gradient70" x1="1422.53" y1="514.63" x2="1436.13" y2="514.63" gradientTransform="translate(0 1649.57) scale(1 -1)" gradientUnits="userSpaceOnUse">
      <stop offset="0" stop-color="#ff928e"/>
      <stop offset="1" stop-color="#feb3b1"/>
    </linearGradient>
    <linearGradient id="linear-gradient71" x1="-1134.13" y1="514.63" x2="-1120.53" y2="514.63" gradientTransform="translate(537.99 1649.57) rotate(-180)" gradientUnits="userSpaceOnUse">
      <stop offset="0" stop-color="#ff928e"/>
      <stop offset="1" stop-color="#feb3b1"/>
    </linearGradient>
  </defs>
  <g id="Illustration">
    <g>
      <path class="st74" d="M770.73,1429.61c242.35,7.86,504.61-35.65,724.53,5.63,161.22,30.26,341.97,73.58,505.98,33.27,169.42-41.64,382.87-185.09,332.84-387.27-16.45-66.47-78.52-89.27-115.16-140.4-46.76-65.25-31.35-130.26-7.05-202.22,40.25-119.22,102.35-269.12,51.29-393.55-54.54-132.89-219.85-97.58-323.17-52.15-137.9,60.63-260.45,197.37-425.05,151.63-116.66-32.42-213.76-116.66-314.28-179.75-153.87-96.57-641.9-192.05-810.37-77.83-184.76,125.27,133.92,252.24-65.5,366.91-143.98,82.79-220.54,305.63-180.85,514.34,50.48,265.36,399.99,354.01,626.79,361.37Z"/>
      <g>
        <path class="st73" d="M302.8,371.87h-81.7c-5.61,0-10.16-4.55-10.16-10.16h0c0-5.61,4.55-10.16,10.16-10.16h81.7c5.61,0,10.16,4.55,10.16,10.16h0c0,5.61-4.55,10.16-10.16,10.16Z"/>
        <path class="st73" d="M613.07,371.87h-262.6c-5.61,0-10.16-4.55-10.16-10.16h0c0-5.61,4.55-10.16,10.16-10.16h262.6c5.61,0,10.16,4.55,10.16,10.16h0c0,5.61-4.55,10.16-10.16,10.16Z"/>
        <path class="st73" d="M644.62,411.67h-262.6c-5.61,0-10.16-4.55-10.16-10.16h0c0-5.61,4.55-10.16,10.16-10.16h262.6c5.61,0,10.16,4.55,10.16,10.16h0c0,5.61-4.55,10.16-10.16,10.16Z"/>
        <path class="st73" d="M569.95,491.28h-187.93c-5.61,0-10.16-4.55-10.16-10.16h0c0-5.61,4.55-10.16,10.16-10.16h187.93c5.61,0,10.16,4.55,10.16,10.16h0c0,5.61-4.55,10.16-10.16,10.16Z"/>
        <path class="st73" d="M674.07,451.48h-262.6c-5.61,0-10.16-4.55-10.16-10.16h0c0-5.61,4.55-10.16,10.16-10.16h262.6c5.61,0,10.16,4.55,10.16,10.16h0c0,5.61-4.55,10.16-10.16,10.16Z"/>
      </g>
      <g>
        <path class="st73" d="M1797.24,1178.74h-81.7c-5.61,0-10.16-4.55-10.16-10.16h0c0-5.61,4.55-10.16,10.16-10.16h81.7c5.61,0,10.16,4.55,10.16,10.16h0c0,5.61-4.55,10.16-10.16,10.16Z"/>
        <path class="st73" d="M2107.51,1178.74h-262.6c-5.61,0-10.16-4.55-10.16-10.16h0c0-5.61,4.55-10.16,10.16-10.16h262.6c5.61,0,10.16,4.55,10.16,10.16h0c0,5.61-4.55,10.16-10.16,10.16Z"/>
        <path class="st73" d="M2139.07,1218.54h-262.6c-5.61,0-10.16-4.55-10.16-10.16h0c0-5.61,4.55-10.16,10.16-10.16h262.6c5.61,0,10.16,4.55,10.16,10.16h0c0,5.61-4.55,10.16-10.16,10.16Z"/>
        <path class="st73" d="M2064.39,1298.15h-187.93c-5.61,0-10.16-4.55-10.16-10.16h0c0-5.61,4.55-10.16,10.16-10.16h187.93c5.61,0,10.16,4.55,10.16,10.16h0c0,5.61-4.55,10.16-10.16,10.16Z"/>
        <path class="st73" d="M2168.52,1258.34h-262.6c-5.61,0-10.16-4.55-10.16-10.16h0c0-5.61,4.55-10.16,10.16-10.16h262.6c5.61,0,10.16,4.55,10.16,10.16h0c0,5.61-4.55,10.16-10.16,10.16Z"/>
      </g>
      <path class="st4" d="M1549.01,385.63v38.51c0,4.58,3.59,8.34,8.17,8.56l48.16,2.26c4.88.23,8.97-3.67,8.97-8.56v-40.77c0-4.73-3.84-8.57-8.57-8.57h-48.16c-4.73,0-8.57,3.83-8.57,8.57Z"/>
      <path class="st3" d="M1875.8,716.72v30.6c0,3.64,2.86,6.63,6.49,6.8l38.27,1.8c3.88.18,7.13-2.91,7.13-6.8v-32.4c0-3.76-3.05-6.81-6.81-6.81h-38.27c-3.76,0-6.81,3.05-6.81,6.81Z"/>
      <path class="st6" d="M2022.89,281.25v27.13c0,3.22,2.53,5.88,5.75,6.03l33.93,1.59c3.44.16,6.32-2.58,6.32-6.03v-28.73c0-3.33-2.7-6.04-6.04-6.04h-33.93c-3.33,0-6.04,2.7-6.04,6.04Z"/>
      <path class="st75" d="M1950.48,935.35v17.61c0,2.09,1.64,3.82,3.73,3.91l22.02,1.03c2.23.1,4.1-1.68,4.1-3.91v-18.65c0-2.16-1.75-3.92-3.92-3.92h-22.02c-2.16,0-3.92,1.75-3.92,3.92Z"/>
      <g>
        <path class="st11" d="M2011.26,720.65l-1.93,119.47c-.12,7.56,5.97,13.76,13.54,13.76h137.55c7.48,0,13.54-6.06,13.54-13.54v-119.47c0-7.48-6.06-13.54-13.54-13.54h-135.62c-7.39,0-13.42,5.93-13.54,13.32Z"/>
        <g class="st81">
          <path class="st76" d="M2092.17,835.45c-.99,0-1.98-.02-2.97-.07-33.94-1.5-60.43-28.52-59.04-60.24.67-15.43,7.75-29.63,19.92-39.99,12.09-10.29,27.78-15.55,44.16-14.84,33.94,1.5,60.43,28.52,59.04,60.24h0c-.68,15.43-7.75,29.63-19.92,39.99-11.35,9.67-25.88,14.9-41.19,14.9ZM2091.27,728.37c-13.38,0-26.05,4.55-35.93,12.96-10.43,8.88-16.5,21.01-17.07,34.16-1.19,27.25,21.81,50.48,51.29,51.78,14.32.62,28.02-3.95,38.53-12.91,10.43-8.88,16.5-21.01,17.07-34.16,1.19-27.25-21.82-50.48-51.29-51.78-.87-.04-1.74-.06-2.61-.06Z"/>
          <g>
            <g>
              <path class="st76" d="M2106.43,778.11c-.01,9.44-.66,18.9-2.32,28.21-.42,2.33-.91,4.64-1.49,6.93-.58,2.29-1.25,4.56-2.07,6.78-.83,2.22-1.79,4.4-3.09,6.39-.66.99-1.4,1.94-2.32,2.72-.46.39-.97.73-1.52.98-.55.25-1.16.41-1.77.42-.61.02-1.23-.1-1.79-.33-.57-.23-1.08-.55-1.56-.93-.94-.76-1.7-1.69-2.37-2.68-1.33-1.98-2.3-4.16-3.14-6.37-.83-2.22-1.51-4.49-2.1-6.78-.58-2.29-1.08-4.6-1.5-6.93-.84-4.65-1.42-9.34-1.81-14.05-.39-4.71-.58-9.43-.6-14.16-.01-2.36.05-4.72.14-7.08.09-2.36.22-4.72.39-7.07.35-4.71.87-9.41,1.64-14.07.39-2.33.84-4.65,1.38-6.95.54-2.3,1.18-4.58,1.96-6.81.4-1.11.83-2.22,1.32-3.29.49-1.08,1.04-2.13,1.69-3.12.65-.99,1.39-1.94,2.32-2.69.46-.38.98-.7,1.53-.92.56-.22,1.16-.34,1.76-.32.6.02,1.2.17,1.74.41.55.24,1.05.57,1.51.95.93.76,1.69,1.68,2.37,2.65,1.35,1.95,2.37,4.1,3.25,6.3.88,2.2,1.6,4.45,2.23,6.73.63,2.28,1.16,4.58,1.62,6.9,1.82,9.28,2.56,18.74,2.59,28.18ZM2105.73,778.11c0-4.7-.17-9.41-.56-14.1-.38-4.69-.97-9.36-1.83-13.98-.43-2.31-.94-4.61-1.54-6.88-.6-2.27-1.3-4.52-2.14-6.71-.85-2.18-1.84-4.33-3.15-6.27-.66-.96-1.4-1.88-2.29-2.62-.45-.37-.93-.69-1.45-.93-.52-.24-1.09-.39-1.66-.41-.57-.02-1.15.1-1.68.32-.53.22-1.02.54-1.46.9-.89.74-1.61,1.68-2.24,2.66-.62.99-1.16,2.03-1.63,3.1-.48,1.07-.89,2.17-1.27,3.28-.76,2.22-1.36,4.5-1.88,6.79-.52,2.29-.94,4.61-1.3,6.93-.72,4.65-1.19,9.34-1.48,14.03-.3,4.7-.4,9.4-.39,14.11-.01,4.7.14,9.41.49,14.1.35,4.69.89,9.37,1.69,14,.4,2.32.87,4.62,1.44,6.9.56,2.28,1.22,4.54,2.03,6.74.81,2.2,1.76,4.36,3.04,6.3.65.96,1.38,1.88,2.27,2.6.45.36.93.67,1.45.88.52.21,1.08.33,1.64.31.56-.01,1.11-.16,1.63-.4.51-.24.99-.57,1.42-.94.87-.75,1.59-1.68,2.22-2.65,1.26-1.96,2.2-4.13,3-6.33.8-2.21,1.45-4.47,2-6.75.56-2.28,1.02-4.59,1.42-6.9.8-4.63,1.33-9.31,1.68-14,.36-4.69.52-9.4.52-14.1Z"/>
              <path class="st76" d="M2091.7,831.92c-.72,0-1.47-.15-2.17-.43-.65-.26-1.27-.63-1.9-1.13-.94-.76-1.78-1.7-2.65-2.98-1.21-1.8-2.25-3.91-3.29-6.66-.78-2.09-1.48-4.35-2.14-6.92-.56-2.21-1.06-4.51-1.52-7.02-.81-4.46-1.41-9.1-1.83-14.18-.38-4.62-.58-9.42-.61-14.26-.01-2.53.06-5.03.14-7.14.09-2.4.22-4.8.39-7.12.38-5.11.92-9.76,1.66-14.19.42-2.53.88-4.83,1.4-7.04.61-2.58,1.27-4.86,2.01-6.95.45-1.26.89-2.38,1.37-3.41.57-1.26,1.16-2.34,1.78-3.3.85-1.3,1.68-2.25,2.6-3.01.62-.5,1.26-.88,1.9-1.14.74-.3,1.54-.44,2.32-.41.74.02,1.5.2,2.24.53.62.28,1.22.65,1.82,1.14.93.76,1.76,1.68,2.63,2.93,1.23,1.78,2.31,3.87,3.4,6.57.83,2.08,1.58,4.33,2.28,6.88.61,2.22,1.15,4.5,1.64,7,1.73,8.81,2.58,18.11,2.61,28.44h0c-.01,10.4-.78,19.71-2.34,28.46-.45,2.52-.95,4.81-1.51,7.03-.65,2.57-1.34,4.83-2.12,6.92-1.03,2.75-2.06,4.87-3.23,6.67-.85,1.29-1.67,2.24-2.58,3.02-.61.51-1.21.9-1.84,1.19-.77.35-1.55.53-2.32.54-.05,0-.11,0-.16,0ZM2090.99,727.58c-.34,0-.7.07-1.04.21-.36.15-.74.38-1.11.69-.68.56-1.3,1.31-1.96,2.34-.54.85-1.04,1.8-1.53,2.92-.42.95-.82,1.99-1.23,3.17-.68,1.99-1.28,4.16-1.84,6.65-.48,2.15-.9,4.39-1.28,6.84-.67,4.35-1.15,8.9-1.47,13.91-.27,4.28-.4,8.86-.39,14.02-.01,4.76.15,9.47.49,14,.37,4.98.92,9.52,1.68,13.87.42,2.43.89,4.66,1.42,6.8.61,2.46,1.26,4.62,1.98,6.59.93,2.51,1.85,4.43,2.9,6.02.68,1.01,1.31,1.74,1.99,2.3.38.3.75.53,1.1.68.38.15.73.21,1.08.22.36,0,.72-.1,1.1-.28.36-.17.73-.41,1.1-.73.67-.58,1.3-1.33,1.97-2.36,1.03-1.6,1.94-3.52,2.86-6.04.72-1.98,1.36-4.14,1.96-6.6.52-2.13.98-4.36,1.4-6.81.74-4.31,1.29-8.85,1.67-13.87.34-4.53.52-9.23.52-14h0c0-4.75-.18-9.45-.55-13.98-.41-4.99-1-9.52-1.81-13.84-.45-2.41-.95-4.63-1.51-6.78-.65-2.44-1.33-4.59-2.09-6.56-.97-2.49-1.93-4.4-3.01-5.99-.69-1.01-1.34-1.76-2.04-2.33-.39-.32-.77-.57-1.15-.74-.39-.18-.77-.27-1.13-.28-.03,0-.05,0-.08,0Z"/>
            </g>
            <g>
              <path class="st76" d="M2130.15,778.11c-.03,6.08-.81,12.16-2.43,18.03-1.65,5.85-4.14,11.48-7.51,16.53-1.69,2.52-3.6,4.9-5.74,7.05-2.14,2.15-4.5,4.09-7.06,5.71-2.57,1.61-5.34,2.91-8.24,3.78-2.9.88-5.93,1.34-8.96,1.34-3.03,0-6.06-.46-8.96-1.33-2.9-.87-5.68-2.16-8.25-3.78-2.57-1.62-4.93-3.55-7.07-5.7-2.14-2.15-4.06-4.53-5.75-7.05-3.38-5.05-5.88-10.68-7.53-16.54-.82-2.93-1.42-5.92-1.82-8.94-.4-3.02-.6-6.06-.61-9.1.01-3.04.22-6.09.62-9.1.4-3.02,1.01-6,1.83-8.93,1.66-5.85,4.16-11.48,7.54-16.53,1.69-2.52,3.61-4.89,5.75-7.04,2.14-2.15,4.5-4.08,7.07-5.69,2.57-1.61,5.34-2.89,8.24-3.76,2.9-.88,5.92-1.34,8.95-1.34,3.03,0,6.05.47,8.95,1.35,2.9.88,5.67,2.16,8.24,3.77,2.56,1.61,4.93,3.55,7.06,5.7,2.14,2.15,4.05,4.53,5.74,7.05,3.38,5.05,5.87,10.67,7.52,16.52,1.63,5.86,2.41,11.94,2.44,18.02ZM2129.35,778.11c0-6.01-.75-12.03-2.33-17.83-1.59-5.79-3.98-11.39-7.27-16.42-1.65-2.51-3.51-4.88-5.61-7.03-2.09-2.15-4.41-4.09-6.94-5.71-2.53-1.61-5.27-2.9-8.14-3.78-2.87-.88-5.86-1.34-8.86-1.35-3,.01-5.99.47-8.86,1.35-2.87.88-5.6,2.17-8.13,3.78-2.53,1.62-4.84,3.56-6.93,5.71-2.09,2.15-3.96,4.52-5.6,7.03-3.29,5.03-5.67,10.62-7.25,16.41-.79,2.9-1.36,5.85-1.74,8.83-.39,2.98-.58,5.98-.58,8.98,0,3,.2,6.01.59,8.98.39,2.98.96,5.93,1.75,8.83,1.58,5.79,3.98,11.38,7.26,16.4,1.64,2.51,3.51,4.88,5.6,7.03,2.09,2.15,4.4,4.09,6.93,5.7,2.53,1.6,5.26,2.89,8.12,3.77,2.86.88,5.85,1.34,8.84,1.36,3-.01,5.98-.47,8.84-1.35,2.86-.88,5.6-2.16,8.13-3.76,2.53-1.61,4.84-3.55,6.94-5.7,2.09-2.15,3.96-4.52,5.61-7.03,3.29-5.03,5.69-10.61,7.28-16.41,1.58-5.8,2.33-11.82,2.34-17.83Z"/>
              <path class="st76" d="M2090.21,831.92c-3.15,0-6.3-.47-9.36-1.39-2.96-.89-5.84-2.21-8.58-3.93-2.59-1.63-5.05-3.61-7.32-5.9-2.14-2.15-4.13-4.59-5.92-7.26-3.36-5.02-5.95-10.71-7.71-16.93-.82-2.97-1.45-6.03-1.86-9.13-.4-3.03-.61-6.15-.63-9.28.02-3.14.23-6.27.63-9.29.41-3.1,1.04-6.17,1.87-9.12,1.77-6.22,4.36-11.91,7.73-16.92,1.78-2.66,3.77-5.09,5.92-7.25,2.27-2.28,4.73-4.27,7.31-5.89,2.72-1.7,5.6-3.02,8.57-3.91,3.05-.92,6.19-1.39,9.34-1.4,3.16,0,6.3.48,9.34,1.4,2.97.9,5.85,2.22,8.56,3.92,2.58,1.63,5.04,3.61,7.3,5.89,2.14,2.16,4.13,4.59,5.91,7.25,3.36,5.01,5.95,10.7,7.7,16.91,1.62,5.84,2.46,12.02,2.5,18.39v.02c-.03,6.37-.87,12.55-2.48,18.39-1.75,6.22-4.34,11.91-7.7,16.93-1.78,2.66-3.77,5.1-5.91,7.26-2.27,2.28-4.72,4.27-7.3,5.9-2.73,1.72-5.62,3.04-8.58,3.93-3.05.92-6.2,1.4-9.35,1.4ZM2090.2,727.37c-2.84.01-5.69.45-8.45,1.29-2.67.82-5.29,2.04-7.8,3.63-2.32,1.48-4.57,3.34-6.68,5.51-1.97,2.03-3.8,4.33-5.43,6.83-3.08,4.72-5.46,10.11-7.08,16.02-.74,2.73-1.32,5.64-1.71,8.65-.37,2.88-.57,5.84-.57,8.81,0,2.97.2,5.93.58,8.8.39,3,.97,5.91,1.71,8.65,1.62,5.91,4,11.29,7.09,16.01,1.63,2.5,3.46,4.79,5.43,6.82,2.12,2.17,4.36,4.03,6.68,5.51,2.48,1.58,5.1,2.79,7.79,3.61,2.76.85,5.6,1.29,8.45,1.3,2.84-.01,5.68-.45,8.44-1.29,2.69-.82,5.31-2.04,7.8-3.61,2.31-1.47,4.56-3.33,6.69-5.5,1.97-2.03,3.8-4.32,5.44-6.82,3.09-4.71,5.48-10.1,7.11-16.02,1.51-5.53,2.28-11.41,2.3-17.46,0-6.05-.78-11.93-2.29-17.47-1.62-5.91-4.01-11.31-7.1-16.02-1.64-2.5-3.47-4.8-5.44-6.83-2.11-2.17-4.36-4.02-6.69-5.51-2.5-1.59-5.12-2.8-7.8-3.62-2.77-.84-5.61-1.28-8.47-1.29Z"/>
            </g>
            <g>
              <path class="st76" d="M2043.59,757.36l12-.1,12-.05,23.99-.04,23.99.05,12,.06,12,.1s.03.02.03.03c0,0-.02.03-.03.03l-12,.1-12,.06-23.99.05-23.99-.04-12-.05-12-.1s-.05-.02-.05-.02c0-.06.02-.08.05-.08Z"/>
              <polygon class="st76" points="2091.58 759.03 2055.58 758.93 2043.01 758.83 2042.17 757.99 2042.17 757.38 2042.2 756.03 2043.58 755.98 2067.58 755.83 2091.57 755.78 2127.57 755.89 2140.93 756.01 2140.97 758.78 2139.56 758.82 2115.58 758.98 2091.58 759.03"/>
            </g>
            <g>
              <path class="st76" d="M2057.51,737.18c2.84-.04,5.68-.07,8.52-.1l8.52-.05c2.84-.02,5.68-.02,8.52-.03l8.52-.02,17.03.05,8.52.06c2.84.04,5.68.06,8.52.1.02,0,.03.02.03.02,0,.04-.02.05-.03.05-2.84.05-5.68.07-8.52.1l-8.52.06-17.03.05-8.52-.02c-2.84,0-5.68,0-8.52-.03l-8.52-.05c-2.84-.03-5.68-.05-8.52-.1-.03,0-.05-.02-.05-.05,0-.03.02-.05.05-.05Z"/>
              <path class="st76" d="M2091.58,738.86l-10.73-.02c-2.11,0-4.21,0-6.32-.02l-11.36-.09c-1.9-.02-3.79-.04-5.69-.07l-1.35-.02-.05-2.78,1.4-.05c1.83-.03,3.67-.05,5.5-.07l11.54-.09c2-.02,4-.02,6-.02l11.04-.02,28.66.14c1.81.02,3.62.04,5.43.07l1.4.02-.06,2.76-1.36.03c-1.87.03-3.77.05-5.66.07l-11.36.09-17.04.05Z"/>
            </g>
            <g>
              <path class="st76" d="M2039.42,777.53l13.04-.1,13.04-.05,26.08-.04,26.08.05,13.04.06,13.04.1s.03.02.03.03c0,0-.02.03-.03.03l-13.04.1-13.04.06-26.08.05-26.08-.04-13.04-.06-13.04-.1s-.05-.02-.05-.05.02-.05.05-.05Z"/>
              <polygon class="st76" points="2091.58 779.2 2052.45 779.1 2038.05 779 2038 776.2 2039.41 776.15 2065.49 776 2091.57 775.95 2130.7 776.06 2144.32 776.17 2145.15 777.02 2145.09 778.96 2143.73 778.99 2117.66 779.16 2091.58 779.2"/>
            </g>
            <g>
              <path class="st76" d="M2043.59,797.7l12-.1,12-.05,23.99-.04,23.99.05,12,.06,12,.1s.03.02.03.02c0,.04-.02.05-.03.05l-12,.1-12,.06-23.99.05-23.99-.04-12-.05-12-.1s-.05-.02-.05-.05.02-.05.05-.05Z"/>
              <polygon class="st76" points="2091.58 799.37 2055.58 799.27 2043.01 799.17 2042.17 798.33 2042.17 797.72 2042.2 796.37 2043.58 796.32 2067.58 796.17 2091.57 796.12 2127.57 796.23 2140.93 796.35 2140.97 799.13 2139.56 799.16 2115.58 799.33 2091.58 799.37"/>
            </g>
            <g>
              <path class="st76" d="M2127.36,818.1h-68.14c-.1,0-.18-.08-.18-.18s.08-.18.18-.18h68.14c.1,0,.18.08.18.18s-.08.18-.18.18Z"/>
              <path class="st76" d="M2127.36,819.48h-68.14c-.86,0-1.55-.7-1.55-1.56s.7-1.56,1.55-1.56h68.14c.86,0,1.55.7,1.55,1.56,0,.86-.7,1.56-1.55,1.56Z"/>
            </g>
          </g>
        </g>
      </g>
      <g>
        <path class="st10" d="M1780.36,517.62l-82.58,8.7c-10.21,1.08-19.11-6.93-19.11-17.2v-95.31c0-8.6,6.32-15.89,14.83-17.12l82.58-11.89c10.43-1.5,19.76,6.59,19.76,17.12v98.51c0,8.85-6.68,16.28-15.49,17.2Z"/>
        <g>
          <path class="st7" d="M1713.57,499.89c-6.75,0-12.24-5.49-12.24-12.24s5.49-12.24,12.24-12.24,12.24,5.49,12.24,12.24c0,6.75-5.49,12.24-12.24,12.24ZM1713.57,480.27c-4.07,0-7.38,3.31-7.38,7.38s3.31,7.38,7.38,7.38,7.38-3.31,7.38-7.38c0-4.07-3.31-7.38-7.38-7.38Z"/>
          <g>
            <path class="st9" d="M1713.57,461.53c14.4,0,26.12,11.72,26.12,26.12,0,.89-.05,1.77-.14,2.64-.12,1.17.86,2.15,2.02,1.98l3.8-.57c.83-.12,1.45-.81,1.51-1.65.06-.79.09-1.59.09-2.4,0-18.42-14.99-33.41-33.41-33.41-1.4,0-2.77.09-4.12.26-1.01.13-1.72,1.07-1.55,2.07l.63,3.7c.16.93,1.02,1.58,1.96,1.46,1.01-.12,2.03-.2,3.07-.2Z"/>
            <path class="st8" d="M1713.57,442.7c24.79,0,44.95,20.16,44.95,44.95v.02c0,1.08.94,1.92,2.02,1.76l3.73-.56c.58-.67.96-1.11,1.54-1.78-.3-28.55-23.62-51.68-52.23-51.68-2.5,0-4.95.19-7.36.53-.98.14-1.64,1.08-1.47,2.05l.63,3.68c.16.94,1.03,1.6,1.97,1.46,2.04-.29,4.11-.44,6.23-.44Z"/>
            <path class="st5" d="M1713.57,423.87c34.25,0,62.27,27.15,63.71,61.05.05,1.07.98,1.86,2.04,1.71l3.7-.55c.9-.13,1.56-.93,1.52-1.83-1.79-37.61-32.92-67.66-70.96-67.66-3.57,0-7.08.28-10.51.8-.98.15-1.64,1.08-1.47,2.06l.63,3.68c.16.96,1.06,1.59,2.03,1.45,3.05-.45,6.16-.7,9.33-.7Z"/>
          </g>
        </g>
      </g>
      <g>
        <path class="st61" d="M273.48,941.47s163.37,430.87,214.99,520.5c59.92,104.05,234.9,37.75,226.19-49.33-8.71-87.08-213.15-446.99-213.15-446.99l-228.03-24.18Z"/>
        <polygon class="st60" points="494.23 627.6 1339.28 275.54 1328.62 1228.28 466.48 997.9 494.23 627.6"/>
        <ellipse class="st57" cx="1340.24" cy="754.67" rx="99.76" ry="489.62"/>
        <path class="st56" d="M1347.81,1210.81c-9.02-9.17-28.66-44.55-45.5-136.03-16.28-88.41-25.24-203.07-25.24-322.88s8.96-234.47,25.24-322.88c16.84-91.48,36.48-126.86,45.5-136.03,9.02,9.17,28.66,44.55,45.5,136.03,16.28,88.41,25.24,203.07,25.24,322.88s-8.96,234.47-25.24,322.88c-16.84,91.48-36.48,126.85-45.5,136.03Z"/>
        <g class="st82">
          <path class="st63" d="M1475.68,748.26c0,83.19-44.82,150.63-133.52,150.63s-160.61-67.44-160.61-150.63,71.91-150.63,160.61-150.63,133.52,67.44,133.52,150.63Z"/>
        </g>
        <path class="st58" d="M330.46,607.12c47.77-5.55,116.26-7.54,190.33,9.42-24.4,127.46-20.72,260.31,7.5,397.88h-208.89c-33.3,0-61.7-24.19-66.9-57.09-10.41-65.94-23.14-176.77-9.57-265.78,6.81-44.67,42.64-79.21,87.53-84.43Z"/>
        <path class="st73" d="M455.82,703.93h-162.75c-5.22,0-9.83-2.74-12.32-7.33-2.5-4.59-2.29-9.94.55-14.33,1.01-1.56,3.1-2.01,4.66-1,1.56,1.01,2.01,3.1,1,4.66-1.47,2.28-1.58,5.06-.28,7.44,1.3,2.38,3.69,3.8,6.4,3.8h162.75c4.02,0,7.29-3.27,7.29-7.29v-11.58c0-4.02-3.27-7.29-7.29-7.29h-163.96c-1.86,0-3.37-1.51-3.37-3.37s1.51-3.37,3.37-3.37h163.96c7.74,0,14.03,6.29,14.03,14.03v11.58c0,7.73-6.29,14.03-14.03,14.03Z"/>
        <path class="st73" d="M441.31,776.01h-162.75c-5.22,0-9.83-2.74-12.32-7.33-2.49-4.59-2.29-9.94.55-14.33,1.01-1.56,3.1-2.01,4.66-1,1.56,1.01,2.01,3.1,1,4.66-1.47,2.28-1.58,5.06-.28,7.44,1.3,2.38,3.69,3.8,6.4,3.8h162.75c4.02,0,7.29-3.27,7.29-7.29v-11.58c0-4.02-3.27-7.29-7.29-7.29h-163.96c-1.86,0-3.37-1.51-3.37-3.37s1.51-3.37,3.37-3.37h163.96c7.74,0,14.03,6.29,14.03,14.03v11.58c0,7.74-6.29,14.03-14.03,14.03Z"/>
        <path class="st73" d="M641.78,601c-1.33,0-2.59-.79-3.12-2.1-.71-1.72.12-3.69,1.85-4.4l598.7-244.73c1.72-.7,3.69.12,4.4,1.85.7,1.72-.12,3.69-1.85,4.4l-598.7,244.73c-.42.17-.85.25-1.27.25Z"/>
        <path class="st73" d="M537.78,643.52c-1.33,0-2.59-.79-3.12-2.1-.71-1.72.12-3.69,1.85-4.4l39.58-16.18c1.72-.7,3.69.12,4.4,1.85s-.12,3.69-1.85,4.4l-39.58,16.18c-.42.17-.85.25-1.27.25Z"/>
        <path class="st73" d="M455.82,860.42h-162.75c-5.22,0-9.83-2.74-12.32-7.33-2.5-4.59-2.29-9.94.55-14.33,1.01-1.56,3.1-2.01,4.66-1,1.56,1.01,2.01,3.1,1,4.66-1.47,2.28-1.58,5.06-.28,7.44,1.3,2.38,3.69,3.8,6.4,3.8h162.75c4.02,0,7.29-3.27,7.29-7.29v-11.58c0-4.02-3.27-7.29-7.29-7.29h-163.96c-1.86,0-3.37-1.51-3.37-3.37s1.51-3.37,3.37-3.37h163.96c7.74,0,14.03,6.29,14.03,14.03v11.58c0,7.73-6.29,14.03-14.03,14.03Z"/>
        <path class="st73" d="M471.06,954.12h-162.75c-5.22,0-9.83-2.74-12.32-7.33-2.5-4.59-2.29-9.94.55-14.33,1.01-1.56,3.1-2.01,4.66-1,1.56,1.01,2.01,3.1,1,4.66-1.47,2.28-1.58,5.06-.28,7.44,1.3,2.38,3.69,3.8,6.4,3.8h162.75c4.02,0,7.29-3.27,7.29-7.29v-11.58c0-4.02-3.27-7.29-7.29-7.29h-163.96c-1.86,0-3.37-1.51-3.37-3.37s1.51-3.37,3.37-3.37h163.96c7.74,0,14.03,6.29,14.03,14.03v11.58c0,7.74-6.29,14.03-14.03,14.03Z"/>
        <path class="st73" d="M616.42,1463.56c-7.44,0-14.96-.8-22.47-2.44-32.84-7.15-59.57-28.8-73.34-59.4l-130.03-288.87c-.77-1.7,0-3.69,1.69-4.46,1.7-.77,3.69,0,4.46,1.69l130.03,288.87c12.89,28.63,37.9,48.88,68.62,55.58,30.2,6.58,60.76-1.23,83.85-21.44,1.23-1.08,2.47-2.19,3.71-3.32,1.38-1.26,3.51-1.16,4.76.22,1.26,1.38,1.16,3.51-.22,4.76-1.28,1.17-2.55,2.31-3.82,3.42-18.98,16.6-42.66,25.39-67.26,25.39Z"/>
        <path class="st76" d="M374.43,1072.12c-1.29,0-2.51-.74-3.08-1.99l-14.51-32.23c-.77-1.7,0-3.69,1.69-4.46,1.7-.77,3.7,0,4.46,1.69l14.51,32.23c.77,1.7,0,3.69-1.69,4.46-.45.2-.92.3-1.38.3Z"/>
        <path class="st78" d="M1451.9,743.11c-1.75,0-3.23-1.36-3.36-3.13-2.91-41-17.14-71.59-42.31-90.91-43.47-33.38-105.45-21.91-106.07-21.79-1.84.35-3.6-.84-3.95-2.67-.35-1.83.84-3.59,2.67-3.95,2.66-.51,65.6-12.14,111.45,23.06,26.76,20.54,41.88,52.77,44.93,95.78.13,1.86-1.27,3.47-3.12,3.6-.08,0-.16,0-.24,0Z"/>
      </g>
      <g>
        <path class="st2" d="M1115.65,1496.13s63.88-80.27,53.5-156.16c-10.39-75.89-62.23-66.83-85.3-21.96-23.07,44.87-43.81,38.71-30.1-3.47,13.7-42.19,30.88-69.65,2.48-111.64-28.4-42-31.34-59.84-15.39-97.31,15.96-37.47,35.99-90.57-27.5-109.52-63.49-18.95-126.74,39.26-111.94,115.44,14.81,76.18,23.7,84.48,3.31,112.7-20.39,28.22-11.9,39.81-9.01,58.18,2.89,18.37-28.27,22.67-27.6-3.2.66-25.87,40.3-86.93,13.24-115.42-27.05-28.49-80.07-28.79-93.65,37.07-13.58,65.87,29.93,95.47,27.76,119.29s-25.53-12.3-45.88,11.98c-20.35,24.29,7.05,43.36,27.21,56.52s50.57,36.75,21.64,53.87c-28.93,17.13-56.32.74-38.6,53.62h335.81Z"/>
        <path class="st79" d="M984.31,1051c-2.09,1.11-3.91,2.49-5.7,3.98-1.78,1.49-3.41,3.15-4.94,4.9-3.08,3.5-5.68,7.43-7.79,11.62-4.24,8.39-6.52,17.72-7.27,27.07-.13,1.17-.17,2.34-.23,3.51-.04,1.17-.11,2.35-.09,3.52l.02,3.52.17,3.51.09,1.75.17,1.74.35,3.49c.35,2.3.59,4.63,1.04,6.92.42,2.29.84,4.58,1.39,6.84l.78,3.4.81,3.29,3.26,13.12c4.32,17.48,8.48,34.95,11.75,52.52,3.18,17.55,5.38,35.3,4.89,52.83-.11,4.38-.41,8.74-.97,13.04-.54,4.31-1.29,8.58-2.4,12.73-1.09,4.16-2.42,8.23-4.13,12.13-1.9,4.41-3.38,8.99-4.53,13.53-2.18,9.11-3.47,18.22-4.46,27.29-.96,9.07-1.7,18.11-2.28,27.14-1.24,18.04-2.3,36.02-4.9,53.75-.33,2.22-.68,4.43-1.09,6.62-.37,2.21-.84,4.39-1.3,6.58-.42,2.2-1.02,4.34-1.52,6.52-.28,1.08-.61,2.14-.91,3.22-.31,1.07-.59,2.15-.97,3.2l-1.07,3.17c-.36,1.06-.81,2.07-1.22,3.11-.78,2.09-1.79,4.06-2.72,6.09-2.07,3.93-4.51,7.68-7.48,11.03l.72.72c3.29-3.19,6.1-6.85,8.54-10.74,2.33-3.95,4.37-8.09,6.02-12.36,3.4-8.53,5.64-17.43,7.48-26.35,3.67-17.88,5.41-35.99,7.39-53.93,1.01-8.97,1.9-17.93,3.13-26.8,1.22-8.86,2.75-17.64,5.03-26.05,1.21-4.19,2.55-8.2,4.3-12.07,1.99-4.35,3.57-8.85,4.84-13.41,1.29-4.56,2.19-9.2,2.86-13.84.69-4.64,1.09-9.31,1.29-13.95.78-18.63-1.53-36.97-4.65-54.96-3.18-18-7.47-35.7-12.28-53.18-1.21-4.37-2.43-8.73-3.69-13.08l-.95-3.26-.87-3.17c-.62-2.11-1.08-4.25-1.59-6.38-.54-2.13-.87-4.28-1.32-6.43l-.5-3.23c-.18-1.08-.33-2.16-.44-3.24-.6-4.33-.75-8.68-.79-13.02-.02-4.35.35-8.69,1.09-12.96.76-4.27,1.8-8.5,3.35-12.58.8-2.02,1.66-4.03,2.67-5.97.97-1.96,2.09-3.85,3.31-5.68,2.45-3.63,5.35-7.09,8.79-9.83l-.52-.87Z"/>
        <path class="st79" d="M1120.32,1322.91c-1.91,14.21-4.61,28.29-7.92,42.18-1.67,6.95-3.5,13.85-5.53,20.68-.48,1.72-1.05,3.41-1.57,5.11-.52,1.7-1.08,3.39-1.65,5.08-1.08,3.4-2.3,6.74-3.49,10.09-1.28,3.32-2.52,6.65-3.92,9.92-1.29,3.31-2.77,6.54-4.2,9.79-3.01,6.43-6.18,12.78-9.7,18.95-3.51,6.17-7.4,12.11-11.53,17.9-4.22,5.73-8.81,11.17-13.67,16.45l.69.75c5.63-4.54,10.81-9.66,15.58-15.14,4.69-5.55,8.98-11.44,12.9-17.58,3.78-6.21,7.35-12.56,10.44-19.14,1.5-3.31,3.05-6.59,4.41-9.96,1.41-3.35,2.64-6.76,3.92-10.15,1.18-3.43,2.4-6.84,3.46-10.31.56-1.72,1.07-3.46,1.56-5.2.49-1.74,1.02-3.47,1.47-5.23,1.93-6.98,3.51-14.04,4.88-21.14,2.69-14.2,4.57-28.55,4.89-43l-1.02-.06Z"/>
      </g>
      <g>
        <path class="st59" d="M379.55,1471.31s-2.25,12.75-3.36,25.36c-.43,4.93,3.37,9.21,8.32,9.42,16.8.7,52.74,2.06,65.64,1.48,1.94-.09,3.21-2.07,2.49-3.88h0c-.6-1.51-1.76-2.73-3.24-3.41l-59.37-27.29-10.48-1.69Z"/>
        <path class="st62" d="M377.71,1463.82l1.81,15.25s10.4,4.84,17.5-.61l-4.31-16.99-15,2.35Z"/>
        <path class="st55" d="M379.07,1177.18c-.78,3.98-4.19,198.69,16.62,285.94.34,1.42-.38,2.89-1.74,3.44-3.19,1.3-9.45,3.19-16.95,3.44-2.32.08-4.4-1.43-5.06-3.66-5.95-20.24-34.46-121.68-38.18-218.57-4.15-108.27,0-3.69,0-3.69l2.44-66.93h42.87Z"/>
        <path class="st64" d="M311.26,1477.96s-3.58,6.44-7.05,23.53c-.63,3.09,1.53,6.04,4.67,6.35,5.55.55,14.09,1.25,20.93,1.2,3.15-.02,5.62-2.77,5.24-5.9-.76-6.24-3.12-16.48-10.41-24.46l-13.37-.72Z"/>
        <path class="st70" d="M308.11,1458.35l4.23,23.06s4.18,3.11,12.45.85l-2.02-24.81-14.66.9Z"/>
        <path class="st69" d="M296.69,1183.16c-17.02,102.73,3.69,253.9,10.68,283.49.43,1.81,1.89,3.2,3.73,3.5,3.12.52,8.25.94,13.31-.53,1.74-.51,2.97-2.08,3.04-3.89.94-23.92-.75-170.78,15.11-228.81.8-2.94,2.6-5.51,5.08-7.27l30.78-21.89,2.36-35.38-84.1,10.78Z"/>
        <g>
          <path class="st66" d="M405.16,988.51c-51.01-.84-107.3,13.39-107.3,13.39-15.2,88.72-2.66,191.06-2.66,191.06,39.49,10.36,84.04-6.33,84.04-6.33,6.56-37.08,37.19-141.45,37.19-141.45,24.92-3.09,45.46-10.28,62.36-19.79-12.9-14.95-18.98-33.97-21.62-45.22-18.04,5.61-36.29,8.6-52.02,8.34Z"/>
          <path class="st65" d="M555.84,913.37c-5.01-6.05-11.35-3.19-11.35-3.19-7.51,31.71-46.87,57.42-87.31,69.99,2.64,11.24,8.72,30.27,21.62,45.22,67.11-37.73,77.04-112.02,77.04-112.02Z"/>
        </g>
        <g>
          <path class="st67" d="M554.62,914.91c.52,1.67-5.55,4.21-9.12-2.61-.12-3.27-2.11-17.27-.16-19.93,10.4-14.18,30.56-31.95,30.56-31.95,3.41,3.36.6,6.66.6,6.66l-9.78,10.19c2.04,3.7,4.54,6.82,5.71,11.29.89,3.39.34,7.01-1.37,10.09-1.72,3.09-4.06,7.11-6.27,10.26-4.19,5.96-10.17,6-10.17,6Z"/>
          <path class="st68" d="M562.44,883.88l-8.91,7.55-2.8,7.52,7.95,8.82s2.67-14.92,4.66-18.16c1.99-3.23.96-4.79-.89-5.74Z"/>
        </g>
        <path class="st72" d="M317.42,1051.3l-19.57-49.39s-47.65,32.38-55.48,73.42c9,.66,25.39,3.01,41.42,11.1,3.52-19.38,33.63-35.13,33.63-35.13Z"/>
        <path class="st71" d="M359.06,1097.77s-53.5,30.23-71.55,4.42c-3.75-5.36-4.64-10.69-3.72-15.77-16.04-8.1-32.42-10.44-41.42-11.1-2.36,12.37-1.11,25.54,6.16,38.84,31.62,57.84,117.61-3.2,117.61-3.2l-7.08-13.19Z"/>
        <g>
          <path class="st73" d="M352.64,1136.02l29.2-101.96c.33-1.16,1.32-2,2.52-2.14,5.29-.62,20.62-2.35,38.32-3.85,21.32-1.8,46.07-3.26,60.87-2.02,2.1.18,3.37,2.4,2.44,4.29-8.41,17.02-43.01,86.25-60.34,108.93-.57.75-1.46,1.19-2.41,1.18l-67.74-.63c-1.97-.02-3.38-1.91-2.84-3.8Z"/>
          <path class="st53" d="M425.69,1019.23l21.17-3.53c1.13-.19,2.05.89,1.69,1.97l-2.1,6.35c-.18.55-.67.95-1.24,1.03l-20.37,2.72c-1.05.14-1.92-.82-1.68-1.85l1.3-5.54c.14-.6.62-1.05,1.23-1.15Z"/>
          <path class="st54" d="M409.84,1037.16l1.74-9.08c.17-.91.93-1.6,1.85-1.69l42.75-4.34c1.44-.15,2.59,1.17,2.25,2.58l-2.72,11.32c-.22.91-1.01,1.56-1.94,1.61l-41.78,2.1c-1.36.07-2.42-1.16-2.17-2.49Z"/>
          <path class="st13" d="M359.69,1111.39s-4.07-16.72-2.43-22.66c1.64-5.93,4.82-13.56,15.41-11.87,10.6,1.69,23.09,6.16,23.09,6.16,0,0-.63,7.73-8.68,5.23l4.99,3.86s-.71,6.19-7.52,2.88l4.64,5.12s-2.92,5.08-7.92,1.82c-5-3.26-7.4,11.45-21.59,9.44Z"/>
        </g>
        <path class="st12" d="M353.48,947.09l-16.23,46.94c-.27.78.05,1.64.77,2.04,4.42,2.45,20.36,9.52,39.57-2.66,2-1.27,3.36-3.34,3.67-5.69l5.26-40.63h-33.04Z"/>
        <g>
          <path class="st15" d="M388.8,903.63s17.82,33.55,15.54,47.1c-2.29,13.55-24.37,12.58-43.66,1.57l-13.48-36.23,41.6-12.45Z"/>
          <path class="st32" d="M361.53,934.51c.78-.35,1.07-1.31.6-2.02-1.43-2.18-4.11-6.63-4.96-10.53,0,0-3.2-2.05,8.15-4.77,11.36-2.72,28.3-6.94,31.86-16.61,3.47-9.43-5.65-33.13-20.2-14.24-.55.72-1.64.73-2.19.02-2.39-3.1-8.66-9.55-17.36-5.64-8.15,3.66-9.07,9.63-8.95,12.64.03.89-.76,1.57-1.63,1.41-4.12-.79-14.01-1.46-18.62,8.68-3.8,8.35-1.33,13.08.92,15.4.73.75.41,1.98-.59,2.29-2.71.83-6.2,3.12-5.85,9.47.48,8.77,10.29,8,13.08,7.6.46-.07.92.09,1.23.43,2.39,2.65,13.18,13.9,24.85,15.25,1.01.12,1.79-.88,1.46-1.84l-5.05-14.68c-.23-.68.09-1.43.75-1.72l2.5-1.11Z"/>
          <path class="st29" d="M363.56,936.6s-12.69-8.71-13.62-1.38,11.43,10.62,17.55,7.89l-3.93-6.51Z"/>
        </g>
      </g>
      <g>
        <path class="st75" d="M1756.19,640.47l-188.68-9.82c-15.41-.8-27.7,11.21-27.27,26.74l4.88,173.52c.4,14.18,12.67,25.01,27.23,24.29l179.17-8.85c12.15-.6,22.17-11.37,22.53-24.13l4.37-155.43c.39-13.84-9.49-25.66-22.22-26.32Z"/>
        <g>
          <path class="st31" d="M1656.17,813.38c-39.19,0-71.07-31.88-71.07-71.07s31.88-71.07,71.07-71.07,71.07,31.88,71.07,71.07-31.88,71.07-71.07,71.07ZM1656.17,683.15c-32.62,0-59.16,26.54-59.16,59.16s26.54,59.16,59.16,59.16,59.16-26.54,59.16-59.16c0-32.62-26.54-59.16-59.16-59.16Z"/>
          <path class="st1" d="M1633.9,769.68v-51.09c0-5.46,5.94-8.84,10.64-6.06l43.05,25.55c4.6,2.73,4.6,9.39,0,12.11l-43.05,25.55c-4.7,2.79-10.64-.6-10.64-6.06Z"/>
        </g>
      </g>
      <g>
        <path class="st30" d="M2103.84,393.18l-172.13-8.95c-14.06-.73-25.28,10.23-24.88,24.39l4.45,158.3c.36,12.94,11.56,22.82,24.84,22.16l163.45-8.07c11.08-.55,20.23-10.37,20.56-22.01l3.99-141.8c.36-12.63-8.66-23.41-20.27-24.02Z"/>
        <g class="st80">
          <path class="st76" d="M2074.81,547.42h-120.66c-9.28,0-16.83-7.55-16.83-16.84v-87.92c0-9.28,7.55-16.84,16.83-16.84h120.66c9.28,0,16.83,7.55,16.83,16.84v87.92c0,9.28-7.55,16.84-16.83,16.84ZM1954.15,437.53c-2.84,0-5.14,2.31-5.14,5.14v87.92c0,2.84,2.31,5.15,5.14,5.15h120.66c2.84,0,5.14-2.31,5.14-5.15v-87.92c0-2.84-2.31-5.14-5.14-5.14h-120.66Z"/>
          <path class="st76" d="M2014.51,489.98c-1.18,0-2.37-.36-3.38-1.08l-67.58-47.92c-2.63-1.87-3.25-5.52-1.39-8.15,1.87-2.64,5.52-3.25,8.15-1.39l64.19,45.52,63.35-45c2.63-1.87,6.28-1.25,8.15,1.38,1.87,2.63,1.25,6.28-1.38,8.15l-66.73,47.4c-1.01.72-2.2,1.08-3.39,1.08Z"/>
          <path class="st76" d="M1947.85,544.74l-1.72-11.57.8,5.79-4.9-3.18c1.28-2.06,25.64-44.66,41.69-72.78,1.6-2.81,5.17-3.79,7.97-2.18,2.8,1.6,3.78,5.17,2.18,7.97,0,0-10.43,18.26-20.87,36.53-5.22,9.13-10.45,18.27-14.39,25.12q-7.95,13.84-10.77,14.29Z"/>
          <path class="st76" d="M2080.77,544.74q-2.82-.45-10.77-14.29c-3.93-6.85-9.16-15.99-14.39-25.12-10.45-18.27-20.87-36.53-20.87-36.53-1.6-2.8-.63-6.37,2.18-7.97,2.8-1.61,6.37-.63,7.97,2.18,16.06,28.13,40.41,70.72,41.69,72.78l-4.9,3.18-.91,5.78Z"/>
        </g>
      </g>
      <g>
        <path class="st14" d="M2072.09,911.23c-19.34,12.9-37.07,41.91-1.61,88.65,31.81,41.93,64.47,69.31,59.64,95.1-4.84,25.79,32.87,90.8,109.6,48.35,75.75-41.91,61.25-122.5-30.62-153.12-53.78-17.93-66.19-126.19-137-78.98Z"/>
        <path class="st28" d="M2010.56,1072.39s30.01,35.94,60.23,6.75l11.68,27.08s-44.13,34.17-77.61-19.59l5.7-14.24Z"/>
        <path class="st33" d="M2084.68,1005.66c8.33-2.5,32.59-7.11,55.66,14.18,3.91,3.61,5.51,9.1,4.12,14.24-6.2,22.81-22.55,90.22-8.21,119.39,0,0-25.26,27.85-52.83,5.4,0,0-12.37-53.9-28.56-77.56-11.18-16.33,17.83-61.34,25.17-72.21,1.11-1.65,2.75-2.86,4.65-3.43Z"/>
        <path class="st34" d="M2097.59,962.17s16.81,32.92,19.76,48.04c0,0-12.68,7.93-26.78-.73,0,0-5.93-34.33-8.68-40.25l15.7-7.06Z"/>
        <g>
          <path class="st35" d="M2059.9,943.62s-3.13,55.34,20.15,56.12c23.28.78,25.54-38.57,25.54-38.57,0,0-6.87-24.86-17.96-27.76-11.08-2.9-27.73,10.21-27.73,10.21Z"/>
          <path class="st38" d="M2066.75,926.54s-10.64,10.88-8.81,17.65c1.83,6.77,24.64-.31,30.27-3.51l18.85,20.06s-.58-29.72-13.58-38.87c-13-9.15-26.73,4.67-26.73,4.67Z"/>
          <path class="st39" d="M2098.54,961.69s2.84-18.98,12.11-13.64c9.28,5.34-.68,20.05-7.93,19.13l-4.19-5.49Z"/>
        </g>
        <path class="st41" d="M2051.25,1272.04c.09,2.45-4.2,21.85-6.54,32.21-.94,4.17-.29,8.52,1.83,12.23l80.97,136.28c.98,1.65,1.69,3.43,2.13,5.3,1.48,6.4,4.56,22.07,2.96,36.33l-4.19,8.7,18.12-4.11,3.94-48.65-5.13-3.13c-4.43-2.7-7.88-6.74-9.85-11.54-7.32-17.78-25.5-63.06-30.19-85.12-5.33-25.07-33.17-45.44-33.17-45.44l4.89-11.56-25.76-21.49Z"/>
        <path class="st36" d="M2166.65,1482.23s-9.78-15.51-10.93-21.55c-1.15-6.04-4.35-16.7-10.39-13.49,0,0-2.84,29.33-1.86,40.79.98,11.46-12.96,11.09-12.96,11.09,0,0-3.84.54-6.65,3.35-1.94,1.94-.55,5.31,2.19,5.49,4.56.29,11.8.37,19.41-1.1,2.66-.51,4.63-2.78,4.79-5.48l2.01-33.75,12.34,15.58,2.06-.93Z"/>
        <path class="st40" d="M2099.61,1293.75s2.86,121.9,3.24,139.21c.39,17.31-2.73,55.68-20.09,67.15l7.55,5.59s9.44-8.02,18.66-23.46c10.36-17.34,13.49-20.51,13.49-20.51l-3.44-7.04c-1.5-3.08-1.95-6.57-1.25-9.93,3.75-18.15,16.26-78.53,19.67-91.53,4.03-15.35,4.31-35.84-9.7-53-14.01-17.16-28.13-6.48-28.13-6.48Z"/>
        <path class="st37" d="M2115.64,1511.19c.54,0,1-.38,1.07-.91.58-4.06,2.98-20.36,4.95-24.57,2.25-4.83,9.62-25.17,0-26.89,0,0-23.92,34.94-28.51,39.65-4.59,4.71-10.39,1.65-10.39,1.65,0,0-4.47,1.32-7.85,5.63-1.61,2.05-.11,5.06,2.5,5.09l16.11.15c4.68.05,8.89-2.8,10.62-7.14,2.84-7.08,7.71-17.47,13.38-22.08l-2.95,28.24c-.07.63.42,1.18,1.06,1.19h0Z"/>
        <path class="st42" d="M2079.61,1145.73s3.63,11.57-1.95,30.63l-34.59,120.81c-.54,1.9.48,3.89,2.34,4.55,10.35,3.71,44.36,14.21,90.8,11.01,2.34-.16,4.3-1.82,4.81-4.1,3.06-13.77,13.5-60.76,15.65-70.42,8.19-36.79,16.12-71.78-24.11-95.77-18.54,7.94-34.62,7.93-52.94,3.29Z"/>
        <path class="st43" d="M2121.34,1036.34s6.96,99.51-57.33,49.53c0,0-9.5-8.97-16.35-10.06-3.69-.59-7.86-.98-10.92-1.22-1.4-.11-2.05,1.69-.9,2.5,2.21,1.55,5.1,3.22,7.61,3.48,4.85.5-.32,4.06,4.96,13.34,5.28,9.29,12.83,5.79,12.83,5.79,0,0,73.67,75.44,88.38-56.14.52-24.48-23.03-23.18-28.28-7.23Z"/>
        <path class="st44" d="M1990.83,1047.65l21.87-2.88c2.61-.43,5.3,1.1,6.91,3.92l14.39,31.8c2.71,4.75.78,11.06-3.6,11.78l-17.56,2.25c-1.68.28-3.41-.78-4.36-2.68l-19.46-38.84c-1.12-2.24-.18-5.03,1.81-5.36Z"/>
        <path class="st45" d="M2005.75,1090.55s-14.71-21.4-13-24.04c1.71-2.64,14.6-6.41,17.63-7.3,3.03-.89,8.72,18.52-4.63,31.34Z"/>
        <path class="st2" d="M2229.86,1126.65c-.32,0-.62-.19-.75-.51-.17-.41.04-.88.45-1.05,14.11-5.61,25.57-17.51,30.64-31.83,5.07-14.32,3.67-30.77-3.77-44.02-10.46-18.65-30.51-29.07-49.9-39.14l-2.34-1.22c-20.96-10.92-41.4-23.92-48.9-44.97-.15-.42.07-.88.49-1.03.42-.15.88.07,1.03.49,7.31,20.52,27.45,33.32,48.12,44.08l2.33,1.21c19.6,10.19,39.87,20.72,50.56,39.79,7.65,13.65,9.1,30.6,3.88,45.35-5.23,14.75-17.02,27.01-31.56,32.79-.1.04-.2.06-.3.06Z"/>
        <path class="st2" d="M2208.21,1119.22c-.36,0-.69-.24-.78-.61-.11-.43.15-.87.58-.98,16.31-4.13,29.93-14.32,36.43-27.28,7.33-14.61,5.01-32.81-5.53-43.28-.32-.31-.32-.82,0-1.14.31-.32.82-.32,1.14,0,11.02,10.94,13.47,29.93,5.83,45.14-6.71,13.37-20.72,23.88-37.48,28.12-.06.02-.13.03-.2.03Z"/>
      </g>
      <g>
        <path class="st47" d="M1896.49,925.08l-101.46-5.28c-8.29-.43-14.9,6.03-14.66,14.38l2.62,93.31c.21,7.62,6.81,13.45,14.64,13.06l96.34-4.76c6.53-.32,11.92-6.11,12.12-12.98l2.35-83.58c.21-7.44-5.11-13.8-11.95-14.15Z"/>
        <path class="st77" d="M1883.19,934.86h-71.73c-6.64,0-15.47,5.69-15.47,12.54v39.9c0,6.58,8.89,10.49,15.47,10.49h49.34c1.7,0,2.62,4.68,2.62,6.38v5.9c0,2.43,2.42,3.33,3.62,3.73.57.4,1.54,1,2.74,1,.99,0,1.97-.42,2.61-1.17l10.72-12.53c6.7-.15,9.53-7.22,9.53-13.79v-39.9c0-6.53-2.92-12.54-9.45-12.54ZM1885.9,987.3c0,3.09-.22,6-2.71,6h-2.68l-12.59,13.17v-8.66c0-1.7.95-4.51-.75-4.51h-55.71c-3.06,0-8.72-2.94-8.72-6v-38.25c0-4.46,5.64-5.2,8.72-5.2h71.73c3.04,0,2.71.52,2.71,3.55v39.89h0Z"/>
        <path class="st76" d="M1879.16,955.09c0,1.24-1.01,2.25-2.25,2.25h-65.18c-1.24,0-2.25-1.01-2.25-2.25h0c0-1.24,1.01-2.25,2.25-2.25h65.18c1.24,0,2.25,1.01,2.25,2.25h0Z"/>
        <path class="st76" d="M1879.16,966.33c0,1.24-1.01,2.25-2.25,2.25h-65.18c-1.24,0-2.25-1.01-2.25-2.25h0c0-1.24,1.01-2.25,2.25-2.25h65.18c1.24,0,2.25,1.01,2.25,2.25h0Z"/>
        <path class="st76" d="M1879.16,982.06c0,1.24-1.01,2.25-2.25,2.25h-65.18c-1.24,0-2.25-1.01-2.25-2.25h0c0-1.24,1.01-2.25,2.25-2.25h65.18c1.24,0,2.25,1.01,2.25,2.25h0Z"/>
      </g>
      <g>
        <path class="st73" d="M1757.27,370.69c2.11.86,4.21,1.74,6.31,2.65,2.28.99,3.33,3.63,2.34,5.91-.24.56-.58,1.04-.99,1.44-1.27,1.23-3.2,1.64-4.92.9-2.04-.88-4.08-1.74-6.13-2.58-2.3-.94-3.4-3.56-2.47-5.86.94-2.29,3.56-3.4,5.86-2.47Z"/>
        <path class="st73" d="M1693.15,857.87c2.21-.33,4.42-.67,6.63-1.02,2.45-.39,4.75,1.29,5.14,3.74.24,1.5-.3,2.94-1.31,3.93-.64.62-1.48,1.06-2.43,1.21-2.23.35-4.47.69-6.7,1.03-2.45.37-4.74-1.33-5.11-3.78-.37-2.45,1.32-4.74,3.78-5.11Z"/>
        <path class="st73" d="M1735.84,362.87l.84.27c1.89.62,3.77,1.25,5.64,1.9,2.35.82,3.58,3.38,2.77,5.72-.24.68-.62,1.27-1.11,1.75-1.18,1.15-2.95,1.6-4.61,1.02-1.82-.63-3.65-1.25-5.49-1.85l-.81-.26c-2.36-.76-3.66-3.3-2.89-5.66.77-2.37,3.3-3.66,5.66-2.89Z"/>
        <path class="st73" d="M1713.91,356.65c2.21.54,4.42,1.11,6.62,1.7,2.4.64,3.83,3.11,3.19,5.5-.22.82-.65,1.52-1.21,2.06-1.1,1.07-2.71,1.55-4.29,1.12-2.14-.57-4.29-1.12-6.44-1.64-2.41-.59-3.89-3.02-3.3-5.43.59-2.41,3.02-3.89,5.43-3.3Z"/>
        <path class="st73" d="M1715.23,854.28c2.2-.39,4.4-.79,6.6-1.2,2.44-.45,4.79,1.16,5.24,3.6.29,1.54-.25,3.04-1.29,4.05-.61.6-1.4,1.02-2.31,1.19-2.23.41-4.45.82-6.68,1.21-2.44.43-4.78-1.2-5.2-3.65-.43-2.45,1.2-4.78,3.65-5.21Z"/>
        <path class="st73" d="M1737.18,850.09c2.19-.45,4.38-.91,6.56-1.38,2.43-.52,4.82,1.03,5.34,3.45.34,1.57-.19,3.13-1.27,4.17-.58.57-1.33.98-2.19,1.17-2.21.47-4.43.94-6.64,1.39-2.43.5-4.81-1.07-5.31-3.5-.5-2.43,1.07-4.81,3.5-5.31Z"/>
        <path class="st73" d="M1791.95,392.47c1.26-2.14,4.01-2.86,6.15-1.61,1.96,1.15,3.92,2.33,5.86,3.52,2.12,1.3,2.78,4.07,1.48,6.18-.2.33-.44.62-.7.88-1.44,1.4-3.69,1.7-5.48.6-1.89-1.16-3.79-2.3-5.7-3.42-2.14-1.26-2.86-4.01-1.61-6.15Z"/>
        <path class="st73" d="M1801.73,832.84c2.1-.73,4.19-1.47,6.27-2.24,2.33-.85,4.91.34,5.77,2.67.63,1.72.15,3.58-1.09,4.78-.44.42-.97.77-1.58.99-2.14.78-4.28,1.55-6.43,2.3-2.34.82-4.91-.43-5.72-2.77-.81-2.35.43-4.91,2.77-5.72Z"/>
        <path class="st73" d="M1778.05,380.05c2.04,1.01,4.07,2.04,6.09,3.09,2.2,1.15,3.06,3.86,1.91,6.06-.23.44-.52.82-.85,1.15-1.35,1.31-3.45,1.68-5.21.76-1.97-1.02-3.94-2.03-5.93-3.01-2.22-1.1-3.14-3.8-2.04-6.02,1.09-2.23,3.8-3.14,6.02-2.04Z"/>
        <path class="st73" d="M1758.98,845.25c2.17-.52,4.33-1.06,6.5-1.61,2.41-.61,4.85.84,5.47,3.25.41,1.62-.11,3.25-1.23,4.34-.55.53-1.23.93-2.02,1.13-2.2.56-4.4,1.1-6.6,1.64-2.41.58-4.84-.9-5.43-3.31-.58-2.41.9-4.85,3.31-5.43Z"/>
        <path class="st73" d="M1780.53,839.56c2.14-.62,4.27-1.25,6.4-1.9,2.38-.72,4.89.61,5.61,2.99.51,1.67,0,3.4-1.17,4.54-.5.48-1.11.85-1.82,1.07-2.17.66-4.35,1.31-6.53,1.94-2.39.69-4.88-.69-5.56-3.07-.69-2.38.69-4.88,3.07-5.56Z"/>
        <path class="st73" d="M1646.25,347.66c2.28.06,4.56.14,6.83.26,2.48.12,4.39,2.23,4.27,4.7-.06,1.19-.57,2.24-1.36,3.01-.86.83-2.05,1.33-3.35,1.26-2.21-.1-4.43-.19-6.65-.25-2.48-.07-4.44-2.13-4.37-4.61.06-2.48,2.14-4.44,4.61-4.37Z"/>
        <path class="st73" d="M1600.75,349.57c2.27-.25,4.53-.48,6.8-.69,2.47-.22,4.66,1.6,4.88,4.07.13,1.41-.41,2.72-1.35,3.63-.71.69-1.66,1.15-2.72,1.25-2.21.2-4.42.42-6.62.67-2.47.27-4.69-1.51-4.96-3.97-.27-2.47,1.5-4.69,3.97-4.96Z"/>
        <path class="st73" d="M1604.16,866.87c2.23-.13,4.47-.27,6.7-.41,2.48-.16,4.61,1.72,4.77,4.2.09,1.36-.45,2.63-1.36,3.51-.74.72-1.73,1.19-2.84,1.26-2.25.14-4.5.28-6.75.41-2.48.15-4.6-1.75-4.75-4.23-.15-2.48,1.75-4.61,4.23-4.75Z"/>
        <path class="st73" d="M1581.8,867.94c2.24-.09,4.47-.18,6.71-.28,2.48-.11,4.58,1.81,4.69,4.29.06,1.34-.47,2.56-1.36,3.42-.76.74-1.79,1.21-2.93,1.27-2.25.1-4.5.19-6.76.28-2.48.1-4.57-1.84-4.66-4.32-.1-2.48,1.83-4.57,4.32-4.66Z"/>
        <path class="st73" d="M1623.47,347.83c2.28-.09,4.56-.17,6.83-.21,2.48-.05,4.54,1.92,4.59,4.4.03,1.3-.5,2.48-1.36,3.32-.79.77-1.85,1.24-3.04,1.27-2.22.05-4.43.12-6.65.21-2.48.11-4.57-1.82-4.68-4.3-.1-2.48,1.82-4.57,4.3-4.68Z"/>
        <path class="st73" d="M1578.21,352.86c2.24-.41,4.48-.79,6.73-1.15,2.45-.4,4.76,1.27,5.15,3.72.24,1.5-.29,2.95-1.31,3.94-.64.62-1.47,1.06-2.42,1.21-2.19.35-4.37.73-6.56,1.12-2.44.44-4.78-1.18-5.22-3.62-.44-2.44,1.18-4.78,3.62-5.23Z"/>
        <path class="st73" d="M1559.42,868.61c2.24-.05,4.47-.1,6.71-.16,2.48-.07,4.55,1.89,4.61,4.37.04,1.31-.49,2.5-1.36,3.34-.78.76-1.84,1.24-3.01,1.27-2.26.06-4.51.11-6.77.16-2.48.05-4.54-1.92-4.59-4.4-.05-2.48,1.92-4.54,4.4-4.58Z"/>
        <path class="st73" d="M1626.49,865.36c2.23-.17,4.46-.35,6.69-.54,2.47-.21,4.65,1.63,4.86,4.1.12,1.4-.42,2.7-1.35,3.6-.72.7-1.68,1.16-2.75,1.25-2.25.19-4.5.37-6.75.55-2.47.19-4.64-1.66-4.83-4.13-.19-2.47,1.66-4.63,4.13-4.83Z"/>
        <path class="st73" d="M1671,860.9c2.22-.28,4.44-.56,6.66-.85,2.46-.32,4.72,1.41,5.04,3.87.19,1.46-.34,2.86-1.33,3.81-.67.65-1.55,1.1-2.55,1.23-2.24.29-4.48.58-6.72.86-2.46.31-4.71-1.44-5.02-3.91-.31-2.46,1.44-4.71,3.9-5.01Z"/>
        <path class="st73" d="M1668.99,349.06c2.27.22,4.54.46,6.8.73,2.47.29,4.23,2.53,3.94,4.99-.13,1.07-.62,2-1.33,2.7-.94.91-2.26,1.41-3.66,1.24-2.2-.26-4.4-.5-6.61-.71-2.47-.24-4.28-2.43-4.04-4.9.24-2.47,2.43-4.28,4.91-4.04Z"/>
        <path class="st73" d="M1648.77,863.38c2.23-.22,4.45-.45,6.68-.69,2.47-.26,4.69,1.52,4.95,3.99.15,1.43-.38,2.78-1.34,3.71-.7.68-1.61,1.13-2.65,1.24-2.24.24-4.49.47-6.73.7-2.47.25-4.67-1.55-4.92-4.02-.24-2.47,1.56-4.67,4.02-4.92Z"/>
        <path class="st73" d="M1811.1,404.24c1.41-2.06,4.2-2.58,6.25-1.17,1.88,1.29,3.75,2.59,5.6,3.92,2.02,1.44,2.49,4.25,1.04,6.27-.16.22-.34.43-.53.61-1.53,1.48-3.95,1.71-5.74.43-1.8-1.29-3.62-2.56-5.45-3.81-2.05-1.4-2.57-4.2-1.18-6.25Z"/>
        <path class="st73" d="M1691.58,352.05c2.25.38,4.49.78,6.73,1.21,2.44.47,4.04,2.82,3.57,5.26-.18.94-.64,1.76-1.28,2.38-1.02.99-2.48,1.48-3.98,1.19-2.18-.42-4.35-.81-6.54-1.18-2.45-.41-4.1-2.73-3.68-5.18.41-2.45,2.73-4.1,5.18-3.68Z"/>
        <path class="st73" d="M1900.59,772.73c1.75-1.84,4.53-1.93,6.35-.25,1.82,1.69,1.93,4.53.25,6.35-1.57,1.69-3.16,3.35-4.79,4.98-.02.02-.04.03-.06.05-1.76,1.71-4.56,1.69-6.3-.04-1.76-1.75-1.76-4.6-.01-6.36,1.55-1.55,3.07-3.13,4.56-4.74Z"/>
        <path class="st73" d="M1948.93,618.83c-2.46.33-4.72-1.39-5.06-3.85-.3-2.19-.62-4.38-.98-6.56-.4-2.45,1.27-4.76,3.72-5.16,2.45-.4,4.76,1.27,5.16,3.72.37,2.26.7,4.52,1.01,6.79.2,1.47-.34,2.87-1.33,3.83-.66.64-1.53,1.09-2.52,1.23Z"/>
        <path class="st73" d="M1950.57,641.25c-2.48.11-4.58-1.81-4.69-4.29-.1-2.2-.23-4.41-.39-6.61-.18-2.47,1.67-4.63,4.16-4.81,2.48-.18,4.63,1.68,4.81,4.16.17,2.29.3,4.57.41,6.86.06,1.34-.47,2.57-1.36,3.43-.76.74-1.79,1.21-2.93,1.26Z"/>
        <path class="st73" d="M1945.33,596.64c-2.42.54-4.83-.98-5.37-3.4-.48-2.16-.99-4.31-1.53-6.46-.6-2.41.86-4.85,3.27-5.45,2.41-.6,4.85.86,5.45,3.27.55,2.22,1.08,4.44,1.58,6.67.36,1.58-.17,3.16-1.26,4.21-.58.56-1.3.97-2.14,1.16Z"/>
        <path class="st73" d="M1950.11,663.73c-2.48-.12-4.39-2.23-4.27-4.71.11-2.2.18-4.4.23-6.61.05-2.48,2.1-4.46,4.58-4.4,2.48.05,4.45,2.1,4.4,4.59-.05,2.3-.12,4.59-.24,6.88-.06,1.18-.57,2.24-1.36,3-.86.84-2.06,1.33-3.36,1.27Z"/>
        <path class="st73" d="M1947.4,686.05c-2.45-.38-4.14-2.67-3.76-5.12.33-2.18.64-4.36.9-6.55.3-2.46,2.54-4.22,5.01-3.92,2.46.3,4.22,2.54,3.92,5.01-.28,2.28-.59,4.56-.94,6.83-.15,1.01-.63,1.88-1.31,2.54-.98.95-2.37,1.44-3.82,1.22Z"/>
        <path class="st73" d="M1901.41,493.97c-2.04,1.41-4.84.9-6.25-1.14-1.26-1.82-2.54-3.63-3.84-5.42-1.45-2.01-1.01-4.8,1.01-6.28,2.01-1.45,4.82-1.01,6.28,1.01,1.34,1.85,2.65,3.71,3.95,5.58,1.27,1.83.98,4.27-.56,5.78-.18.17-.37.33-.58.47Z"/>
        <path class="st73" d="M1913.26,513.06c-2.14,1.26-4.89.56-6.16-1.58-1.13-1.91-2.28-3.8-3.45-5.68-1.31-2.11-.65-4.89,1.45-6.19,2.11-1.31,4.88-.66,6.19,1.45,1.2,1.94,2.38,3.89,3.54,5.85,1.08,1.82.72,4.1-.73,5.51-.25.24-.53.46-.85.65Z"/>
        <path class="st73" d="M1939.86,574.84c-2.37.74-4.89-.58-5.63-2.95-.66-2.11-1.34-4.21-2.05-6.29-.8-2.35.46-4.9,2.81-5.71,2.35-.8,4.9.46,5.7,2.81.73,2.16,1.44,4.34,2.12,6.52.52,1.67.02,3.42-1.16,4.57-.49.48-1.09.85-1.79,1.06Z"/>
        <path class="st73" d="M1822.45,824.93c2.04-.86,4.08-1.74,6.1-2.64,2.27-1.01,4.93,0,5.94,2.28.79,1.77.34,3.78-.97,5.06-.37.36-.81.66-1.3.88-2.08.93-4.17,1.83-6.27,2.71-2.29.96-4.92-.11-5.89-2.4-.96-2.29.11-4.93,2.4-5.89Z"/>
        <path class="st73" d="M1923.71,532.96c-2.22,1.11-4.92.2-6.03-2.02-.99-1.98-2-3.96-3.03-5.92-1.15-2.2-.3-4.92,1.89-6.07,2.2-1.16,4.91-.31,6.07,1.89,1.06,2.02,2.1,4.05,3.11,6.09.9,1.79.48,3.9-.89,5.23-.32.32-.7.59-1.13.8Z"/>
        <path class="st73" d="M1932.64,553.57c-2.3.93-4.92-.18-5.86-2.48-.62-1.52-1.24-3.03-1.89-4.53l-.68-1.58c-.99-2.28.06-4.93,2.33-5.91,2.28-.99,4.93.06,5.91,2.33l.69,1.61c.67,1.56,1.32,3.12,1.95,4.7.71,1.75.24,3.68-1.04,4.92-.4.39-.89.71-1.44.94Z"/>
        <path class="st73" d="M1939.1,702.41c.58-2.12,1.11-4.24,1.62-6.39.57-2.42,2.99-3.92,5.4-3.35,2.42.57,3.92,2.99,3.35,5.4-.53,2.24-1.09,4.48-1.69,6.69-.22.8-.65,1.5-1.2,2.04-1.1,1.07-2.73,1.55-4.32,1.11-2.4-.65-3.81-3.12-3.15-5.52Z"/>
        <path class="st73" d="M1861.68,804.7c1.86-1.18,3.71-2.38,5.53-3.61,2.06-1.39,4.85-.85,6.24,1.21,1.24,1.83.94,4.25-.59,5.74-.19.18-.39.35-.62.51-1.9,1.28-3.81,2.53-5.75,3.76-2.1,1.33-4.88.7-6.2-1.4-1.32-2.1-.7-4.86,1.4-6.2Z"/>
        <path class="st73" d="M1873.83,458.51c-1.83,1.68-4.67,1.57-6.35-.26-1.5-1.63-3.02-3.25-4.56-4.85-1.71-1.79-1.66-4.62.11-6.34,0,0,.01-.01.02-.02,1.79-1.72,4.64-1.66,6.36.13,1.58,1.64,3.14,3.3,4.68,4.98,1.66,1.8,1.57,4.58-.17,6.27-.03.03-.06.06-.09.08Z"/>
        <path class="st73" d="M1847.03,437.95c-1.84-1.67-1.97-4.51-.3-6.35,1.68-1.84,4.51-1.97,6.35-.3,1.69,1.53,3.36,3.08,5.01,4.65,1.8,1.71,1.88,4.55.17,6.35-.04.05-.09.09-.13.14-1.72,1.67-4.46,1.7-6.22.04-1.61-1.52-3.24-3.03-4.88-4.52Z"/>
        <path class="st73" d="M1829.39,417.3c1.53-1.93,4.37-2.28,6.31-.74,1.79,1.41,3.56,2.84,5.32,4.29,1.91,1.58,2.19,4.41.61,6.33-.11.13-.22.25-.34.37-1.62,1.58-4.2,1.71-5.99.24-1.71-1.41-3.44-2.8-5.18-4.18-1.95-1.54-2.28-4.37-.74-6.31Z"/>
        <path class="st73" d="M1842.51,815.6c1.97-1.01,3.92-2.04,5.85-3.1,2.18-1.19,4.91-.38,6.1,1.79.99,1.81.6,4-.81,5.38-.29.28-.61.52-.98.72-2,1.09-4.02,2.16-6.05,3.2-2.21,1.13-4.92.26-6.05-1.95-1.13-2.21-.27-4.92,1.95-6.05Z"/>
        <path class="st73" d="M1922.56,742.82c1.08-1.9,2.12-3.82,3.13-5.75,1.15-2.19,3.85-3.06,6.06-1.92,2.2,1.14,3.06,3.85,1.92,6.06-1.06,2.04-2.16,4.07-3.3,6.07-.21.37-.48.71-.77,1-1.4,1.36-3.58,1.69-5.36.68-2.15-1.23-2.9-3.98-1.67-6.13Z"/>
        <path class="st73" d="M1932.1,723.17c.83-2.03,1.62-4.07,2.37-6.13.85-2.33,3.43-3.53,5.76-2.68,2.33.85,3.53,3.43,2.68,5.76-.79,2.17-1.62,4.32-2.49,6.45-.24.59-.59,1.11-1.03,1.53-1.24,1.21-3.13,1.63-4.83.94-2.3-.94-3.4-3.56-2.46-5.86Z"/>
        <path class="st73" d="M1884.6,464.15c1.46,1.75,2.9,3.51,4.33,5.29,1.46,1.82,1.27,4.44-.38,6.03-.1.1-.21.2-.33.29-1.94,1.55-4.77,1.24-6.32-.7-1.39-1.73-2.79-3.45-4.21-5.15-1.59-1.9-1.34-4.7.57-6.33,1.91-1.59,4.74-1.34,6.33.57Z"/>
        <path class="st73" d="M1911.69,759.41c.91-1.21,1.8-2.44,2.67-3.67,1.44-2.04,4.24-2.51,6.27-1.08,2.03,1.43,2.51,4.23,1.08,6.27-.92,1.31-1.86,2.6-2.82,3.89l-1.28,1.68c-.14.18-.29.34-.44.5-1.57,1.53-4.07,1.71-5.86.34-1.97-1.51-2.35-4.33-.84-6.3l1.22-1.61Z"/>
        <path class="st73" d="M1879.64,792.02c1.72-1.36,3.42-2.75,5.1-4.17,1.89-1.6,4.73-1.37,6.33.53,1.54,1.82,1.38,4.49-.3,6.12-.07.07-.15.14-.23.21-1.75,1.48-3.53,2.94-5.34,4.36-1.95,1.54-4.78,1.2-6.31-.74-1.54-1.95-1.22-4.8.74-6.31Z"/>
        <path class="st73" d="M1555.95,357.7c2.21-.56,4.42-1.1,6.65-1.61,2.42-.56,4.83.95,5.39,3.37.37,1.59-.16,3.18-1.25,4.24-.57.55-1.29.96-2.11,1.15-2.16.5-4.32,1.02-6.46,1.57-2.41.61-4.85-.85-5.46-3.25-.61-2.41.85-4.85,3.25-5.46Z"/>
        <path class="st73" d="M952.99,857.06c2.24-.28,4.48-.55,6.72-.81,2.47-.29,4.7,1.48,4.99,3.94.17,1.44-.36,2.81-1.34,3.75-.68.66-1.59,1.12-2.61,1.24-2.22.26-4.43.53-6.65.8-2.46.31-4.71-1.44-5.02-3.9-.31-2.46,1.44-4.71,3.91-5.02Z"/>
        <path class="st73" d="M930.62,860.16c2.23-.34,4.47-.67,6.7-.99,2.46-.35,4.74,1.35,5.09,3.81.21,1.48-.32,2.9-1.32,3.87-.66.64-1.51,1.08-2.49,1.22-2.21.32-4.42.65-6.63.98-2.46.37-4.75-1.32-5.12-3.77-.37-2.45,1.32-4.75,3.77-5.12Z"/>
        <path class="st73" d="M886.15,868.18c2.21-.46,4.43-.92,6.65-1.36,2.43-.49,4.8,1.09,5.29,3.53.31,1.55-.22,3.08-1.28,4.11-.6.58-1.37,1-2.25,1.18-2.19.44-4.38.89-6.56,1.34-2.43.51-4.81-1.05-5.32-3.48-.51-2.43,1.04-4.82,3.48-5.32Z"/>
        <path class="st73" d="M908.34,863.86c2.22-.4,4.45-.79,6.68-1.17,2.45-.42,4.77,1.23,5.19,3.67.26,1.52-.28,2.99-1.3,3.99-.63.61-1.44,1.04-2.37,1.2-2.2.38-4.4.76-6.6,1.16-2.44.44-4.78-1.18-5.22-3.63-.44-2.44,1.18-4.78,3.63-5.22Z"/>
        <path class="st73" d="M864.09,873.13c2.2-.53,4.4-1.04,6.6-1.55,2.42-.56,4.83.95,5.39,3.37.37,1.59-.16,3.18-1.25,4.24-.57.55-1.29.96-2.12,1.15-2.18.5-4.35,1.02-6.53,1.53-2.41.58-4.84-.91-5.42-3.32-.58-2.42.91-4.84,3.32-5.42Z"/>
        <path class="st73" d="M1537.02,868.9c2.24-.01,4.48-.03,6.72-.05,2.48-.02,4.51,1.97,4.54,4.45.01,1.28-.51,2.44-1.36,3.27-.8.78-1.89,1.26-3.09,1.27-2.25.02-4.51.04-6.76.05-2.48.01-4.51-1.99-4.52-4.47-.01-2.48,1.99-4.51,4.47-4.52Z"/>
        <path class="st73" d="M842.17,878.74c2.18-.6,4.37-1.18,6.56-1.75,2.4-.63,4.86.81,5.49,3.21.43,1.62-.09,3.28-1.22,4.37-.54.52-1.21.92-1.99,1.12-2.16.57-4.32,1.14-6.47,1.73-2.39.65-4.87-.76-5.52-3.15-.65-2.39.76-4.87,3.15-5.52Z"/>
        <path class="st73" d="M1042.95,849.89c2.26-.09,4.51-.17,6.76-.24,2.48-.09,4.56,1.86,4.64,4.34.04,1.32-.48,2.53-1.36,3.38-.77.75-1.82,1.23-2.98,1.27-2.24.08-4.48.16-6.72.24-2.48.09-4.57-1.84-4.66-4.32-.1-2.48,1.84-4.57,4.32-4.67Z"/>
        <path class="st73" d="M975.42,854.54c2.24-.22,4.49-.44,6.73-.66,2.47-.23,4.66,1.58,4.9,4.05.13,1.41-.4,2.73-1.35,3.65-.71.69-1.65,1.15-2.71,1.25-2.23.21-4.45.43-6.68.65-2.47.25-4.67-1.55-4.92-4.02-.24-2.47,1.56-4.67,4.03-4.92Z"/>
        <path class="st73" d="M1065.49,849.21c2.26-.05,4.51-.09,6.76-.13,2.48-.04,4.53,1.93,4.57,4.42.02,1.29-.5,2.47-1.36,3.3-.79.77-1.86,1.25-3.06,1.27-2.24.04-4.48.08-6.72.13-2.48.05-4.54-1.91-4.59-4.4-.06-2.48,1.91-4.54,4.4-4.59Z"/>
        <path class="st73" d="M1020.41,850.99c2.25-.13,4.5-.26,6.76-.38,2.48-.13,4.59,1.78,4.72,4.25.07,1.35-.46,2.59-1.36,3.46-.75.73-1.77,1.2-2.9,1.26-2.24.12-4.47.24-6.71.37-2.48.15-4.6-1.75-4.75-4.23-.14-2.48,1.75-4.61,4.23-4.75Z"/>
        <path class="st73" d="M997.9,852.52c2.25-.18,4.5-.34,6.75-.51,2.47-.18,4.63,1.68,4.81,4.16.1,1.38-.43,2.66-1.35,3.55-.73.71-1.71,1.18-2.8,1.26-2.23.16-4.46.33-6.7.5-2.47.19-4.64-1.66-4.83-4.13-.19-2.47,1.66-4.64,4.13-4.83Z"/>
        <path class="st73" d="M657.46,962.66c1.86-1.3,3.73-2.58,5.6-3.85,2.05-1.39,4.85-.86,6.24,1.2,1.24,1.83.95,4.26-.59,5.74-.19.18-.39.35-.61.5-1.84,1.25-3.68,2.51-5.51,3.79-2.04,1.42-4.84.92-6.26-1.12-1.42-2.03-.93-4.82,1.12-6.26Z"/>
        <path class="st73" d="M1088.03,848.9c2.25-.01,4.51-.02,6.77-.02,2.48,0,4.5,2.01,4.5,4.49,0,1.27-.52,2.41-1.36,3.23-.81.78-1.91,1.27-3.13,1.27-2.24,0-4.48.01-6.72.02-2.48.02-4.51-1.99-4.52-4.47-.02-2.48,1.99-4.51,4.47-4.52Z"/>
        <path class="st73" d="M639.17,976.07c1.8-1.38,3.6-2.75,5.41-4.11,1.99-1.49,4.8-1.08,6.29.91,1.37,1.83,1.13,4.36-.46,5.91-.14.13-.28.26-.44.38-1.78,1.33-3.56,2.68-5.32,4.04-1.97,1.51-4.79,1.14-6.3-.83-1.52-1.97-1.16-4.8.83-6.3Z"/>
        <path class="st73" d="M604.63,1005.44c1.66-1.56,3.32-3.09,5-4.62,1.83-1.67,4.68-1.54,6.35.29,1.64,1.8,1.55,4.57-.19,6.25-.03.03-.07.07-.1.1-1.64,1.5-3.27,3.01-4.9,4.53-1.81,1.7-4.65,1.61-6.35-.2-1.7-1.81-1.66-4.65.2-6.36Z"/>
        <path class="st73" d="M676.34,950.11c1.91-1.21,3.84-2.41,5.77-3.6,2.11-1.3,4.88-.64,6.18,1.47,1.12,1.83.78,4.14-.7,5.58-.23.23-.49.43-.78.61-1.9,1.17-3.79,2.35-5.67,3.54-2.1,1.33-4.87.7-6.2-1.4-1.33-2.1-.72-4.86,1.39-6.2Z"/>
        <path class="st73" d="M621.54,990.33c1.73-1.47,3.47-2.92,5.21-4.37,1.92-1.58,4.75-1.31,6.33.61,1.5,1.82,1.33,4.47-.33,6.08-.09.08-.18.17-.28.25-1.71,1.41-3.42,2.84-5.11,4.28-1.89,1.61-4.73,1.38-6.34-.52-1.61-1.89-1.38-4.82.52-6.33Z"/>
        <path class="st73" d="M735.95,917.48c2.05-.96,4.11-1.92,6.17-2.86,2.26-1.03,4.92-.04,5.96,2.22.81,1.78.37,3.81-.96,5.09-.36.35-.78.64-1.27.86-2.03.93-4.06,1.87-6.08,2.82-2.25,1.05-4.92.09-5.98-2.16-1.06-2.24-.1-4.92,2.16-5.98Z"/>
        <path class="st73" d="M777.63,899.75c2.12-.81,4.24-1.61,6.36-2.4,2.33-.86,4.91.33,5.78,2.65.64,1.72.15,3.59-1.08,4.79-.43.42-.96.76-1.57.99-2.09.78-4.19,1.56-6.27,2.36-2.32.89-4.92-.27-5.8-2.59-.89-2.32.27-4.92,2.59-5.8Z"/>
        <path class="st73" d="M756.63,908.23c2.08-.89,4.17-1.76,6.27-2.62,2.3-.95,4.92.15,5.87,2.44.72,1.75.26,3.7-1.02,4.94-.4.39-.88.7-1.42.93-2.06.85-4.12,1.71-6.18,2.59-2.28.97-4.92-.09-5.9-2.38-.97-2.28.1-4.93,2.38-5.89Z"/>
        <path class="st73" d="M715.64,927.53c2.01-1.05,4.03-2.08,6.06-3.11,2.22-1.12,4.92-.23,6.04,1.99.91,1.8.49,3.92-.88,5.25-.32.31-.69.58-1.11.79-1.99,1-3.98,2.02-5.96,3.05-2.2,1.15-4.92.29-6.06-1.91-1.15-2.2-.29-4.92,1.91-6.06Z"/>
        <path class="st73" d="M695.75,938.4c1.97-1.13,3.94-2.25,5.92-3.35,2.17-1.21,4.91-.43,6.11,1.74,1.01,1.82.63,4.03-.79,5.41-.28.27-.59.51-.95.7-1.95,1.09-3.89,2.18-5.82,3.29-2.15,1.24-4.9.49-6.14-1.66-1.24-2.15-.49-4.91,1.66-6.13Z"/>
        <path class="st73" d="M798.92,892.02c2.14-.73,4.29-1.46,6.44-2.17,2.36-.78,4.9.49,5.68,2.85.56,1.69.06,3.48-1.14,4.64-.47.46-1.05.82-1.71,1.04-2.12.71-4.24,1.42-6.35,2.15-2.35.81-4.91-.44-5.71-2.79-.81-2.35.44-4.9,2.79-5.71Z"/>
        <path class="st73" d="M820.45,885.02c2.16-.66,4.33-1.32,6.5-1.96,2.38-.71,4.88.65,5.59,3.03.49,1.66-.02,3.38-1.18,4.5-.5.49-1.13.87-1.85,1.08-2.14.64-4.28,1.28-6.42,1.93-2.38.73-4.89-.61-5.62-2.98-.72-2.38.61-4.89,2.98-5.62Z"/>
        <path class="st73" d="M1447.36,867.07l6.73.28c2.48.1,4.41,2.19,4.31,4.67-.05,1.2-.56,2.27-1.36,3.05-.85.83-2.03,1.32-3.31,1.27l-6.75-.28c-2.48-.11-4.41-2.2-4.3-4.68.11-2.47,2.2-4.4,4.68-4.3Z"/>
        <path class="st73" d="M1469.78,867.92l6.73.21c2.48.07,4.43,2.15,4.36,4.63-.04,1.22-.55,2.3-1.36,3.09-.84.82-2,1.3-3.27,1.27l-6.75-.21c-2.48-.08-4.43-2.16-4.35-4.64.08-2.48,2.15-4.43,4.64-4.35Z"/>
        <path class="st73" d="M1380.11,863.46l6.73.42c2.48.15,4.36,2.29,4.21,4.76-.07,1.16-.58,2.2-1.35,2.95-.88.85-2.09,1.34-3.41,1.26l-6.74-.42c-2.48-.16-4.36-2.29-4.21-4.77.16-2.48,2.29-4.36,4.77-4.21Z"/>
        <path class="st73" d="M1470.31,398.39c-1.27-2.13-.57-4.88,1.57-6.16,1.96-1.17,3.94-2.3,5.93-3.42,2.16-1.22,4.9-.45,6.12,1.71,1.02,1.82.65,4.04-.78,5.43-.27.26-.58.5-.93.69-1.93,1.09-3.85,2.19-5.75,3.32-2.13,1.27-4.89.56-6.16-1.57Z"/>
        <path class="st73" d="M1402.53,864.81l6.73.38c2.48.14,4.38,2.26,4.24,4.74-.06,1.17-.57,2.22-1.35,2.97-.87.84-2.08,1.34-3.38,1.27l-6.74-.38c-2.48-.14-4.37-2.26-4.23-4.74.14-2.48,2.27-4.37,4.74-4.23Z"/>
        <path class="st73" d="M1424.95,866.03l6.72.34c2.48.12,4.39,2.23,4.27,4.71-.06,1.18-.57,2.24-1.36,3.01-.86.84-2.06,1.33-3.35,1.26l-6.75-.34c-2.48-.13-4.39-2.24-4.26-4.72.12-2.47,2.24-4.38,4.72-4.26Z"/>
        <path class="st73" d="M1534.07,364.06c2.17-.71,4.34-1.4,6.52-2.07,2.37-.73,4.89.61,5.61,2.98.51,1.67,0,3.41-1.17,4.54-.49.48-1.11.86-1.81,1.07-2.12.65-4.23,1.32-6.33,2.02-2.36.78-4.9-.51-5.68-2.86-.78-2.36.5-4.89,2.86-5.68Z"/>
        <path class="st73" d="M1514.61,868.86c2.24.02,4.48.03,6.72.04,2.48.01,4.49,2.03,4.47,4.51,0,1.26-.53,2.39-1.36,3.21-.81.79-1.93,1.28-3.15,1.27-2.25-.01-4.51-.02-6.76-.04-2.48-.02-4.48-2.05-4.45-4.54.02-2.48,2.05-4.48,4.54-4.45Z"/>
        <path class="st73" d="M1512.7,371.95c2.11-.86,4.22-1.7,6.35-2.52,2.32-.89,4.92.26,5.81,2.58.67,1.73.19,3.63-1.06,4.84-.42.41-.93.74-1.52.97-2.07.8-4.13,1.62-6.18,2.45-2.3.94-4.92-.16-5.86-2.46-.94-2.29.16-4.92,2.46-5.86Z"/>
        <path class="st73" d="M1492.2,868.53c2.24.05,4.48.09,6.72.13,2.48.04,4.46,2.09,4.42,4.57-.02,1.24-.54,2.35-1.36,3.15-.83.8-1.96,1.29-3.21,1.27-2.25-.04-4.51-.08-6.76-.13-2.48-.05-4.45-2.11-4.4-4.59.05-2.48,2.11-4.45,4.59-4.4Z"/>
        <path class="st73" d="M1501.91,386.51c-2.01.94-4,1.91-5.98,2.89-2.22,1.1-4.92.2-6.03-2.03-1.1-2.22-.2-4.92,2.03-6.03,2.04-1.01,4.09-2.01,6.16-2.98,2.25-1.05,4.92-.09,5.98,2.15.84,1.78.41,3.84-.94,5.14-.35.34-.76.62-1.22.84Z"/>
        <path class="st73" d="M1110.58,848.94c2.25.02,4.5.04,6.76.07,2.48.03,4.47,2.07,4.44,4.55-.02,1.24-.54,2.36-1.36,3.17-.82.8-1.95,1.29-3.19,1.27-2.24-.03-4.49-.05-6.73-.07-2.48-.02-4.48-2.05-4.45-4.53.02-2.48,2.05-4.48,4.54-4.45Z"/>
        <path class="st73" d="M1223.1,853.02l6.74.39c2.48.15,4.37,2.28,4.22,4.76-.07,1.17-.58,2.2-1.35,2.96-.87.85-2.09,1.34-3.4,1.27l-6.72-.39c-2.48-.14-4.37-2.26-4.23-4.74.14-2.48,2.27-4.37,4.74-4.23Z"/>
        <path class="st73" d="M1178.14,850.74l6.75.3c2.48.11,4.4,2.21,4.29,4.69-.05,1.19-.56,2.25-1.36,3.02-.86.83-2.05,1.33-3.33,1.27l-6.73-.29c-2.48-.11-4.41-2.2-4.3-4.68.11-2.47,2.2-4.4,4.68-4.3Z"/>
        <path class="st73" d="M1200.63,851.79l6.74.35c2.48.13,4.38,2.24,4.25,4.72-.06,1.18-.57,2.22-1.36,2.99-.87.84-2.07,1.33-3.37,1.26l-6.73-.35c-2.48-.13-4.39-2.24-4.26-4.72.12-2.47,2.24-4.38,4.72-4.26Z"/>
        <path class="st73" d="M1357.7,862l6.72.45c2.48.16,4.35,2.3,4.19,4.78-.08,1.16-.58,2.18-1.35,2.93-.88.86-2.11,1.35-3.43,1.26l-6.73-.45c-2.48-.17-4.35-2.31-4.18-4.79.16-2.48,2.31-4.35,4.79-4.18Z"/>
        <path class="st73" d="M1155.64,849.89l6.74.23c2.48.09,4.42,2.17,4.33,4.65-.04,1.21-.56,2.29-1.36,3.07-.85.82-2.02,1.31-3.29,1.27l-6.73-.23c-2.48-.08-4.43-2.16-4.34-4.65.08-2.48,2.16-4.42,4.65-4.34Z"/>
        <path class="st73" d="M1133.11,849.28c2.25.05,4.5.1,6.76.16,2.48.06,4.44,2.12,4.38,4.61-.03,1.22-.55,2.32-1.36,3.11-.84.81-1.99,1.3-3.24,1.27-2.24-.06-4.49-.11-6.73-.16-2.48-.05-4.45-2.11-4.4-4.59.05-2.48,2.11-4.45,4.59-4.4Z"/>
        <path class="st73" d="M1245.57,854.37l6.73.43c2.48.16,4.36,2.3,4.19,4.77-.07,1.16-.58,2.18-1.35,2.93-.88.85-2.1,1.35-3.42,1.26l-6.72-.43c-2.48-.15-4.36-2.29-4.2-4.77.16-2.48,2.29-4.36,4.77-4.2Z"/>
        <path class="st73" d="M1312.87,858.91l6.73.47c2.48.17,4.34,2.32,4.17,4.8-.08,1.15-.59,2.17-1.35,2.91-.89.86-2.12,1.35-3.45,1.26l-6.72-.47c-2.48-.17-4.34-2.32-4.17-4.79.17-2.48,2.32-4.35,4.8-4.17Z"/>
        <path class="st73" d="M1335.29,860.47l6.72.46c2.48.17,4.35,2.32,4.18,4.79-.08,1.15-.58,2.17-1.35,2.92-.89.86-2.11,1.35-3.44,1.26l-6.73-.46c-2.48-.17-4.34-2.32-4.17-4.79.17-2.48,2.32-4.34,4.79-4.17Z"/>
        <path class="st73" d="M1268.01,855.83l6.73.45c2.48.17,4.35,2.31,4.18,4.79-.08,1.15-.58,2.18-1.35,2.92-.88.86-2.11,1.35-3.44,1.26l-6.73-.45c-2.48-.16-4.35-2.31-4.19-4.78.16-2.47,2.31-4.35,4.78-4.19Z"/>
        <path class="st73" d="M1290.45,857.35l6.72.47c2.48.17,4.34,2.32,4.17,4.8-.08,1.15-.59,2.17-1.35,2.91-.89.86-2.12,1.35-3.44,1.26l-6.73-.47c-2.48-.17-4.34-2.32-4.17-4.8.17-2.48,2.32-4.34,4.8-4.17Z"/>
      </g>
      <g>
        <g>
          <path class="st49" d="M1480.54,1501.67c0-.33.02-.67.1-1.01,5.03-19.96,25.61-30.19,25.61-30.19l9.9.78c5.69,17.59,9.36,26.18,8.45,30.98-.03.14-.07.26-.1.39-8.17.73-24.98,1.21-43.96-.95Z"/>
          <path class="st51" d="M1524.5,1502.63c-.44,1.6-1.62,2.85-3.14,3.17-11.62,2.44-30.08.48-37.83-.54-1.71-.22-2.96-1.81-2.99-3.59,18.99,2.16,35.8,1.68,43.96.95Z"/>
          <path class="st48" d="M1498.1,1455.07l4.33,20.87c.32,1.53,1.49,2.67,2.92,2.81,1.74.16,4.22.26,6.71-.11,2.24-.33,3.79-2.6,3.4-5.04l-3.01-18.53h-14.35Z"/>
          <path class="st50" d="M1608.62,1502.45c-10.57-.3-16.04-1.54-18.87-2.7,0,1.05,0,2.12.03,3.23.04,1.18.91,2.13,1.99,2.12l58.05-.38c1.85-.01,2.94-2.16,2.13-3.86-7.61.63-27,2.04-43.34,1.58Z"/>
          <path class="st52" d="M1651.96,1500.87c-.07-.15-.13-.3-.23-.44-5.13-7.16-18.19-21.43-43.99-27.61l-12.38-.39s-5.51,9.58-5.62,27.32c2.83,1.16,8.3,2.4,18.87,2.7,16.34.46,35.73-.95,43.34-1.58Z"/>
          <path class="st46" d="M1593.07,1453.67c.14.92,1.83,14.94,2.49,20.38.16,1.29,1.09,2.29,2.27,2.43,2.11.25,5.52.48,8.5-.13,1.61-.33,2.78-1.88,2.78-3.68v-22.01l-16.04,3Z"/>
          <path class="st17" d="M1506.38,1181.07s-19.81,176.07-8.8,286.11c0,0,13.2,0,19.81-2.2,0,0,20.58-172.15,27.24-221.41.25-1.86,2.9-1.94,3.27-.1,8.21,41.44,40.48,203.96,44.32,219.31,0,0,11,4.4,19.81,0,0,0-17.61-235.49-30.81-277.3l-74.83-4.4Z"/>
          <path class="st16" d="M1466.76,976.39s83.63-13.21,149.66,4.4l-4.4,68.23s-17.61,94.64-30.81,136.45c0,0-50.62,8.8-74.83-4.4,0,0-19.81-118.84-30.81-136.45,0,0-11-46.22-8.8-68.23Z"/>
          <path class="st18" d="M1524.86,916.26l-8.33,56.34s23.28,10.69,39.57-.46l-3.51-39.76-27.73-16.12Z"/>
          <path class="st24" d="M1466.76,976.39s-129.85,140.85,23.11,194.77v-11s-57.22-48.42-13.2-114.44c0,0-5.5-62.72-9.9-69.33Z"/>
          <path class="st23" d="M1490.97,1161.26s19.81-13.2,28.61-8.8c8.8,4.4,8.8,11,8.8,11,0,0-4.4,8.8-11,6.6-6.6-2.2-22.01,2.2-28.61,0,0,0-2.2-8.8,2.2-8.8Z"/>
          <path class="st20" d="M1616.42,980.79s135.35,136.45-17.61,190.37v-11s57.22-48.42,13.2-114.44c0,0-4.4-53.92,4.4-64.92Z"/>
          <path class="st25" d="M1597.71,1161.26s-19.81-13.2-28.61-8.8c-8.8,4.4-8.8,11-8.8,11,0,0,4.4,8.8,11,6.6,6.6-2.2,22.01,2.2,28.61,0,0,0,2.2-8.8-2.2-8.8Z"/>
          <g>
            <path class="st22" d="M1549.19,874.85c.56.53,23.76,46.08,23.76,46.08l-26.29,12.69-28.4-39.9s21.5-27.73,30.93-18.86Z"/>
            <path class="st21" d="M1529.9,894.82c-.47,1.21-.35,2.57.32,3.68l13.11,21.86c.2.33.44.63.72.9,1.56,1.45,6.9,5.68,11.03-.08,3.52-4.9,6.82-9.36,10.36-11.2,2.06-1.07,4.61-.22,5.66,1.86,2.16,4.28,6.34,13.01,8.97,21.28.66,2.07-.41,4.3-2.43,5.12-5.32,2.16-15.84,6.06-25.18,7.34-1.53.21-3.05-.43-3.96-1.69-4.02-5.5-15.34-20.88-19.2-24.73-3.59-3.58-10.21-2.23-13.2-1.37-1.13.33-2.34.17-3.35-.44-3.03-1.82-8.31-6.37-3.48-14.06,1.2-1.91.59-4.46-1.3-5.7-3.38-2.22-7.05-6.4-3.56-13.16,3.54-6.84,9.86-7.46,14.16-6.93,1.91.23,3.84-.77,4.57-2.54.32-.79.97-1.46,2.16-1.7,2.26-.46,3.74-2.52,3.29-4.78-.76-3.87-.19-8.91,6-12.31,11.34-6.24,21.28,3.92,23.81,12.5,2.53,8.58-10.16,14.64-18.13,15.65-5.86.74-9.07,7.14-10.37,10.48Z"/>
            <path class="st19" d="M1534.21,927.21s-5.04-14.76-11.5-14.22-11.54,6.97-3.54,14.2c9.95,8.99,15.04.01,15.04.01Z"/>
          </g>
        </g>
        <polygon class="st75" points="1415.33 1017.42 1545.61 1066.71 1547.89 1243.46 1437.71 1208.2 1415.33 1017.42"/>
        <polygon class="st75" points="1678.25 1017.42 1545.61 1066.71 1545.69 1243.46 1655.87 1208.2 1678.25 1017.42"/>
        <g>
          <polygon class="st73" points="1553.26 1075.98 1671.74 1031.69 1665.99 1067.65 1553.26 1100.8 1553.26 1075.98"/>
          <polygon class="st73" points="1555.49 1114.02 1593.41 1100.8 1587.79 1215.99 1558.01 1227.23 1555.49 1114.02"/>
          <polygon class="st73" points="1601.72 1100.8 1661.4 1079.99 1649.6 1170.7 1598.81 1181.07 1601.72 1100.8"/>
          <polygon class="st73" points="1598.21 1191.83 1647.65 1181.07 1647.65 1198.57 1598.21 1212.43 1598.21 1191.83"/>
        </g>
        <g>
          <polygon class="st2" points="1533.03 1075.98 1427.24 1035.24 1429.19 1055.47 1533.03 1088.44 1533.03 1075.98"/>
          <polygon class="st2" points="1532.72 1104.73 1431.02 1075.98 1444.51 1200.82 1536.31 1227.23 1532.72 1104.73"/>
        </g>
        <path class="st27" d="M1428.77,1148.28c-.56-1.29-11.13-19.9-3.47-26.71,7.66-6.81,11.3.77,10.77,8.96s-3.04,27.48-7.31,17.75Z"/>
        <path class="st26" d="M1665.88,1148.28c.56-1.29,11.13-19.9,3.47-26.71-7.66-6.81-11.3.77-10.77,8.96.53,8.19,3.04,27.48,7.31,17.75Z"/>
      </g>
    </g>
  </g>
</svg>