<?xml version="1.0" encoding="UTF-8"?>
<svg id="Illustration" xmlns="http://www.w3.org/2000/svg" version="1.1" viewBox="0 0 2500 2500">
  <!-- Generator: Adobe Illustrator 30.2.1, SVG Export Plug-In . SVG Version: 2.1.1 Build 1)  -->
  <defs>
    <style>
      .st0 {
        fill: #caddff;
      }

      .st1 {
        fill: #fff;
      }

      .st2 {
        fill: #99b9ff;
      }

      .st3 {
        fill: #5479f7;
      }
    </style>
  </defs>
  <g id="Business_idea">
    <g>
      <path class="st0" d="M2161.98,1478.75c-18.85,180.99-128.65,345.85-281.49,468.53-131.87,105.81-295.76,180.22-460.94,206.55-261.69,41.69-544.11-34.59-755.59-206.55-111.28-90.51-202.91-207.47-261.56-347.72-159.74-381.94-19.51-804.14,252.28-1035.36,221.94-188.78,598.08-306.87,799.62-169.62,130.99,89.21,76.18,209.94,267.6,402.6,151.76,152.73,245.35,136.41,342.81,277.17,117.89,170.32,101.09,367.85,97.28,404.41Z"/>
      <path class="st2" d="M1880.49,1947.28c-131.87,105.81-295.76,180.22-460.94,206.55-261.69,41.69-544.11-34.59-755.59-206.55h1216.53Z"/>
    </g>
    <g>
      <path class="st3" d="M1006.25,723.59c.66-1.8-.02-3.81-1.63-4.85l-23.28-15.01c-1.36-.88-2.05-2.47-1.8-4.07.83-5.38,1.33-10.75,1.47-16.11.04-1.61,1-3.04,2.49-3.67l25.56-10.66c1.77-.74,2.79-2.6,2.46-4.48l-4.17-23.9c-.33-1.89-1.92-3.29-3.83-3.39l-27.69-1.35c-1.61-.08-3-1.11-3.59-2.61-1.96-5.02-4.23-9.91-6.8-14.64-.77-1.42-.66-3.14.32-4.42l16.84-22.05c1.16-1.52,1.11-3.64-.11-5.11l-15.55-18.6c-1.23-1.47-3.31-1.89-5.01-1.01l-24.62,12.66c-1.44.74-3.15.54-4.41-.46-4.18-3.34-8.6-6.43-13.24-9.26-1.38-.84-2.15-2.4-1.95-4l3.57-27.49c.25-1.9-.86-3.71-2.65-4.37l-22.77-8.33c-1.8-.66-3.81.02-4.85,1.63l-15.02,23.31c-.87,1.36-2.47,2.05-4.06,1.8-5.37-.83-10.75-1.32-16.1-1.46-1.61-.04-3.05-1-3.67-2.49l-10.63-25.55c-.74-1.77-2.6-2.79-4.49-2.46l-23.9,4.18c-1.88.33-3.29,1.92-3.38,3.83l-1.37,27.7c-.08,1.61-1.11,3-2.61,3.59-5.02,1.96-9.91,4.23-14.65,6.81-1.42.77-3.14.66-4.42-.32l-22.02-16.83c-1.52-1.16-3.64-1.12-5.11.11l-18.61,15.57c-1.47,1.23-1.89,3.31-1.01,5.01l12.64,24.62c.74,1.43.54,3.15-.46,4.41-3.35,4.18-6.44,8.61-9.28,13.25-.84,1.38-2.4,2.15-4,1.94l-27.48-3.55c-1.9-.24-3.71.86-4.37,2.65l-8.34,22.79c-.66,1.8.02,3.81,1.63,4.85l23.28,15.01c1.36.88,2.05,2.47,1.8,4.07-.83,5.38-1.33,10.75-1.47,16.11-.04,1.61-1,3.04-2.49,3.67l-25.56,10.66c-1.76.74-2.79,2.6-2.46,4.48l4.17,23.9c.33,1.89,1.92,3.29,3.83,3.39l27.69,1.35c1.61.08,3,1.11,3.59,2.61,1.96,5.02,4.23,9.91,6.79,14.64.77,1.42.66,3.14-.32,4.42l-16.84,22.04c-1.16,1.52-1.11,3.64.11,5.11l15.55,18.6c1.23,1.47,3.31,1.89,5.01,1.01l24.62-12.66c1.44-.74,3.15-.54,4.41.46,4.18,3.34,8.6,6.43,13.24,9.26,1.38.84,2.15,2.4,1.94,4l-3.57,27.49c-.25,1.9.86,3.71,2.65,4.37l22.77,8.33c1.8.66,3.81-.02,4.85-1.63l15.02-23.31c.88-1.36,2.47-2.05,4.06-1.8,5.37.83,10.75,1.32,16.1,1.46,1.61.04,3.05,1,3.67,2.49l10.63,25.55c.74,1.77,2.6,2.79,4.49,2.46l23.9-4.18c1.88-.33,3.29-1.92,3.38-3.83l1.37-27.7c.08-1.61,1.11-3,2.61-3.58,5.02-1.96,9.91-4.24,14.65-6.81,1.42-.77,3.14-.66,4.42.32l22.02,16.83c1.52,1.16,3.64,1.12,5.11-.11l18.61-15.57c1.47-1.23,1.89-3.31,1.01-5.01l-12.64-24.62c-.74-1.43-.54-3.15.46-4.41,3.35-4.18,6.44-8.61,9.28-13.25.84-1.38,2.4-2.15,4-1.94l27.48,3.55c1.9.24,3.71-.86,4.37-2.65l8.34-22.79ZM814.19,751.81c-39.5-21.13-54.4-70.29-33.27-109.79s70.29-54.4,109.79-33.27c39.5,21.13,54.4,70.29,33.27,109.79-21.13,39.5-70.29,54.4-109.79,33.27Z"/>
      <path class="st3" d="M1251.23,566.18l4.59-20.14-20.34-9.72c.23-4.85.06-9.66-.52-14.38l19.53-11.23-6.09-19.73-22.49,1.76c-2.21-4.26-4.77-8.33-7.65-12.16l11.33-19.52-15.14-14.04-18.58,12.75c-4-2.56-8.26-4.8-12.73-6.69l.05-22.56-20.13-4.58-9.73,20.36c-4.85-.23-9.66-.05-14.38.52l-11.22-19.53-19.73,6.1,1.75,22.5c-4.26,2.21-8.33,4.77-12.16,7.66l-19.51-11.32-14.04,15.15,12.74,18.58c-2.56,4.01-4.8,8.27-6.7,12.74l-22.55-.04-4.59,20.14,20.34,9.72c-.23,4.85-.06,9.66.52,14.38l-19.53,11.23,6.09,19.73,22.49-1.76c2.21,4.26,4.76,8.33,7.65,12.16l-11.32,19.52,15.14,14.04,18.58-12.75c4,2.56,8.26,4.8,12.73,6.69l-.05,22.56,20.13,4.58,9.73-20.36c4.85.23,9.66.05,14.38-.52l11.22,19.53,19.73-6.1-1.75-22.5c4.26-2.21,8.33-4.77,12.16-7.66l19.51,11.32,14.04-15.15-12.74-18.58c2.56-4.01,4.8-8.27,6.7-12.74l22.55.04ZM1137.57,584.26c-28.62-6.51-46.53-35.01-40-63.64,6.53-28.64,35.02-46.57,63.64-40.06,28.62,6.51,46.53,35.01,40,63.64-6.53,28.64-35.02,46.57-63.64,40.06Z"/>
    </g>
    <g>
      <g>
        <g>
          <path class="st2" d="M1528.72,465.82c0-28.54-21.82-51.69-48.73-51.69-22.95,0-42.18,16.83-47.35,39.48-.59-.01-1.18-.02-1.78-.02-38.89,0-70.41,31.88-70.41,71.2,0,2.64.15,5.25.43,7.82-25.44,5.22-44.57,27.73-44.57,54.71,0,6.53,1.13,12.81,3.19,18.63-18.55,10.96-31,31.15-31,54.26,0,21.89,11.18,41.18,28.13,52.46-16.96,11.28-28.13,30.56-28.13,52.46,0,33.19,25.68,60.39,58.26,62.8-.14,1.52-.22,3.06-.22,4.62,0,28.22,22.88,51.1,51.1,51.1,5.97,0,11.7-1.03,17.03-2.92,2.61,26.76,27.09,47.74,56.91,47.74,31.56,0,57.14-23.5,57.14-52.49,0-.31,0-.62-.01-.93v-405.32s-.14,0-.14,0c.09-1.3.15-2.6.15-3.92Z"/>
          <path class="st3" d="M1365.62,724.9c-1.51,0-2.87-1.04-3.22-2.57-.41-1.78.7-3.55,2.48-3.96,23.6-5.42,41.91-25.14,45.56-49.07.28-1.81,1.97-3.05,3.77-2.77,1.81.28,3.05,1.96,2.77,3.77-4.06,26.58-24.4,48.49-50.62,54.52-.25.06-.5.08-.74.08Z"/>
          <path class="st3" d="M1413.64,778.46c-.17,0-.35-.01-.53-.04-1.8-.29-3.03-1.98-2.75-3.79.5-3.12.75-6.31.75-9.49,0-20.02-9.96-38.6-26.65-49.71-1.52-1.01-1.93-3.06-.92-4.59,1.01-1.52,3.06-1.93,4.59-.92,18.54,12.34,29.6,32.98,29.6,55.21,0,3.52-.28,7.07-.83,10.53-.26,1.63-1.67,2.79-3.26,2.79Z"/>
          <path class="st3" d="M1470.97,555.96c-.63,0-1.26-.18-1.82-.55-1.52-1.01-1.94-3.06-.94-4.58,11.16-16.9,8.85-39.58-5.5-53.92l-6.8-6.8c-1.29-1.29-1.29-3.39,0-4.68,1.29-1.29,3.38-1.29,4.68,0l6.8,6.8c16.56,16.56,19.22,42.73,6.34,62.25-.64.96-1.69,1.49-2.76,1.49Z"/>
          <path class="st3" d="M1431.35,868.49c-1.24,0-2.43-.7-2.99-1.9-.78-1.65-.07-3.62,1.58-4.4,21.9-10.32,35.59-33.49,34.06-57.64-.12-1.82,1.27-3.39,3.09-3.51,1.8-.11,3.39,1.27,3.51,3.09,1.7,26.84-13.51,52.58-37.84,64.04-.46.21-.94.32-1.41.32Z"/>
        </g>
        <g>
          <path class="st2" d="M1540.68,469.74h-.15v405.32c0,.31,0,.62,0,.93,0,28.99,25.58,52.49,57.14,52.49,29.82,0,54.3-20.98,56.91-47.74,5.33,1.88,11.06,2.92,17.03,2.92,28.22,0,51.1-22.88,51.1-51.1,0-1.56-.08-3.1-.22-4.62,32.58-2.41,58.26-29.6,58.26-62.8,0-21.89-11.18-41.18-28.13-52.46,16.96-11.28,28.13-30.56,28.13-52.46,0-23.11-12.45-43.3-31-54.26,2.06-5.83,3.19-12.1,3.19-18.63,0-26.98-19.13-49.5-44.57-54.71.28-2.57.43-5.18.43-7.82,0-39.32-31.52-71.2-70.41-71.2-.59,0-1.19,0-1.78.02-5.17-22.65-24.4-39.48-47.35-39.48-26.91,0-48.73,23.14-48.73,51.69,0,1.32.06,2.62.15,3.92Z"/>
          <path class="st3" d="M1703.63,724.9c-.25,0-.49-.03-.74-.08-26.22-6.02-46.56-27.93-50.62-54.52-.28-1.81.96-3.49,2.77-3.77,1.83-.28,3.49.96,3.77,2.77,3.65,23.93,21.96,43.65,45.56,49.07,1.78.41,2.89,2.18,2.48,3.96-.35,1.53-1.71,2.57-3.22,2.57Z"/>
          <path class="st3" d="M1655.6,778.46c-1.6,0-3-1.16-3.26-2.79-.55-3.46-.83-7-.83-10.53,0-22.24,11.07-42.88,29.6-55.21,1.52-1.01,3.58-.6,4.59.92,1.01,1.52.6,3.57-.92,4.59-16.69,11.11-26.65,29.69-26.65,49.71,0,3.18.25,6.37.75,9.49.29,1.8-.94,3.5-2.74,3.79-.18.03-.35.04-.53.04Z"/>
          <path class="st3" d="M1604.19,563.21c-.85,0-1.69-.32-2.34-.97-9.35-9.35-14.5-21.78-14.5-35s5.15-25.65,14.5-35l6.8-6.8c1.29-1.29,3.38-1.29,4.68,0,1.29,1.29,1.29,3.39,0,4.68l-6.8,6.8c-8.1,8.1-12.56,18.87-12.56,30.33s4.46,22.23,12.56,30.33c1.29,1.29,1.29,3.39,0,4.68-.65.65-1.49.97-2.34.97Z"/>
          <path class="st3" d="M1638.71,862.82c-.47,0-.95-.1-1.41-.32-24.33-11.47-39.54-37.21-37.84-64.04.12-1.82,1.69-3.2,3.51-3.09,1.82.12,3.21,1.69,3.09,3.51-1.53,24.16,12.16,47.32,34.06,57.64,1.65.78,2.36,2.75,1.58,4.4-.56,1.2-1.75,1.9-2.99,1.9Z"/>
        </g>
      </g>
      <g>
        <g>
          <g>
            <g>
              <path class="st3" d="M1573.41,818.5c-1.08-1.57-1.08-3.6,0-5.17,1.49-2.17,2.3-4.51,2.3-6.94,0-11.33-17.55-20.52-39.21-20.52s-39.21,9.19-39.21,20.52c0,2.44.81,4.77,2.3,6.94,1.08,1.57,1.08,3.6,0,5.17-1.49,2.17-2.3,4.51-2.3,6.94,0,5.38,3.95,10.27,10.42,13.93-.14.61-.22,1.23-.22,1.86,0,8.39,12.99,15.18,29.01,15.18s29.01-6.8,29.01-15.18c0-.63-.08-1.25-.22-1.86,6.47-3.66,10.42-8.55,10.42-13.93,0-2.44-.81-4.77-2.3-6.94Z"/>
              <path d="M1536.51,859.72c-18.12,0-32.32-8.12-32.32-18.49,0-.04,0-.09,0-.13-6.59-4.27-10.19-9.77-10.19-15.65,0-3.07.97-6.03,2.89-8.82.31-.45.31-.97,0-1.42-1.92-2.79-2.89-5.75-2.89-8.82,0-13.36,18.67-23.82,42.51-23.82s42.51,10.46,42.51,23.82c0,3.07-.97,6.03-2.89,8.82-.31.45-.31.97,0,1.42h0c1.92,2.79,2.89,5.75,2.89,8.82,0,5.88-3.6,11.38-10.19,15.65,0,.04,0,.09,0,.13,0,10.37-14.2,18.49-32.32,18.49ZM1536.51,789.18c-21.47,0-35.9,8.9-35.9,17.21,0,1.7.58,3.41,1.72,5.07,1.86,2.71,1.86,6.21,0,8.92-1.14,1.66-1.72,3.37-1.72,5.07,0,3.93,3.1,7.86,8.74,11.05,1.28.72,1.92,2.2,1.59,3.63-.09.4-.14.76-.14,1.11,0,5.62,10.56,11.88,25.71,11.88s25.71-6.26,25.71-11.88c0-.35-.05-.71-.14-1.11-.33-1.43.32-2.91,1.59-3.63,5.63-3.19,8.74-7.11,8.74-11.05,0-1.7-.58-3.41-1.72-5.07-1.86-2.71-1.86-6.21,0-8.92,1.14-1.66,1.72-3.37,1.72-5.07,0-8.31-14.42-17.21-35.9-17.21Z"/>
            </g>
            <g>
              <path class="st1" d="M1642.92,649.09c0-58.11-48.36-107.68-106.47-107.68-58,0-105.84,48.23-106.22,106.22-.2,29.53,14.05,57,33.47,76.22,14.01,13.87,24.22,31.1,29.18,50.18l.24.92c4.81,18.52,21.53,31.44,40.66,31.44h7.84c19.13,0,35.85-12.93,40.66-31.44l.15-.56c4.92-18.94,14.73-36.34,28.74-50.01,19.58-19.11,31.74-45.78,31.74-75.3Z"/>
              <path d="M1541.63,809.71h-7.84c-20.63,0-38.67-13.95-43.86-33.92l-.24-.92c-4.73-18.18-14.52-35.01-28.31-48.66-22.08-21.86-34.64-50.5-34.45-78.6.4-60.38,49.54-109.51,109.53-109.51,59.5,0,109.78,50.82,109.78,110.98,0,29.49-11.63,57.07-32.74,77.67-13.36,13.03-22.99,29.8-27.84,48.47l-.15.56c-5.19,19.97-23.23,33.92-43.86,33.92ZM1536.45,544.72c-56.37,0-102.54,46.18-102.91,102.94-.17,26.32,11.67,53.24,32.49,73.85,14.64,14.49,25.03,32.36,30.06,51.7l.24.92c4.43,17.06,19.84,28.97,37.46,28.97h7.84c17.62,0,33.03-11.91,37.46-28.97l.15-.56c5.16-19.85,15.4-37.67,29.63-51.54,19.83-19.34,30.75-45.25,30.75-72.94,0-56.57-47.24-104.37-103.16-104.37Z"/>
            </g>
          </g>
          <g>
            <path d="M1542.42,794.65h-.01c-1.83,0-3.3-1.49-3.29-3.32.23-56.92,33.42-121.09,40.07-133.37,3.81-7.03,5.27-12.73,4.47-17.42-1.17-6.89-4.66-11.31-10.37-13.14-2.77-.89-8.99-1.67-14.75.92,7.11,7.91,11.71,20.04,8.53,31.16-1.36,4.77-5.18,8.12-10.22,8.96-5.77.97-11.71-1.55-15.12-6.42-2.86-4.09-6.32-13.32,2.67-29.19,1.05-1.84,2.23-3.45,3.52-4.85-4.2-2.43-10.72-4.07-17.14-1.68-1.43.53-2.79,1.24-4.08,2.13,7.69,6.57,11.13,20.76,9.48,28.95-1.36,6.75-5.34,11.59-10.93,13.27-4.81,1.45-10.01.12-13.58-3.46-4.83-4.84-6.01-12.84-3.24-21.94,1.9-6.23,4.31-11,6.92-14.66-10.23-2.09-17.27,2.84-19.24,7.7-2.49,6.14-1.58,13.47,2.38,19.13,9.76,13.95,32.6,54.68,33.71,131.28.03,1.83-1.43,3.33-3.26,3.35-1.83.03-3.33-1.43-3.36-3.26-1.09-74.77-23.1-114.13-32.52-127.59-5.31-7.59-6.47-17.08-3.09-25.41,3.69-9.11,15.86-15.33,30.32-10.75,2.84-2.51,5.68-4.04,8.18-4.97,8.99-3.34,18.06-.83,23.56,2.64.43.27.85.56,1.28.86,7.47-4.46,16.33-4.33,22-2.51,8.13,2.61,13.28,8.95,14.87,18.33,1.07,6.29-.58,13.18-5.18,21.68-6.52,12.04-39.04,74.91-39.27,130.25,0,1.82-1.49,3.29-3.31,3.29ZM1521.84,633c-2.91,3.59-5.3,8.36-7.08,14.19-2.04,6.69-1.45,12.28,1.6,15.34,1.87,1.88,4.49,2.55,6.99,1.79,3.17-.95,5.49-3.96,6.35-8.24,1.3-6.45-2.02-18.82-7.86-23.08ZM1553.06,632.17c-1.06,1.1-2.04,2.4-2.91,3.93-5.26,9.28-6.36,17.35-3.01,22.13,1.95,2.79,5.33,4.24,8.6,3.69,1.47-.25,4.06-1.12,4.95-4.25,2.49-8.72-1.62-19.09-7.64-25.5Z"/>
            <path d="M1585.25,718.43c-1.1,0-2.17-.55-2.8-1.55-.97-1.55-.51-3.59,1.04-4.56,18.52-11.65,31.86-30.57,36.58-51.9.4-1.78,2.17-2.91,3.94-2.51,1.78.39,2.91,2.16,2.51,3.94-5.1,23.05-19.51,43.49-39.52,56.07-.55.34-1.16.51-1.76.51Z"/>
            <path d="M1470.74,706.24c-.91,0-1.82-.37-2.47-1.11-14.46-16.27-22.43-37.23-22.43-59.02,0-33.99,18.91-64.5,49.36-79.62,1.64-.81,3.62-.15,4.43,1.49.81,1.64.15,3.62-1.49,4.43-28.18,13.99-45.69,42.23-45.69,73.69,0,20.17,7.37,39.56,20.76,54.62,1.21,1.37,1.09,3.46-.27,4.67-.63.56-1.41.84-2.2.84Z"/>
            <path class="st1" d="M1543.2,820.67c-1.58,0-2.98-1.14-3.26-2.75-.31-1.8.9-3.51,2.7-3.82,3.52-.6,6.94-1.37,10.17-2.28,1.75-.49,3.59.53,4.08,2.28.5,1.76-.53,3.59-2.28,4.08-3.46.98-7.11,1.8-10.85,2.44-.19.03-.38.05-.56.05Z"/>
            <path class="st1" d="M1526.68,840.83c-1.81,0-3.29-1.46-3.31-3.28-.02-1.83,1.45-3.32,3.28-3.34,7.94-.07,19.58-1.17,29.94-6.01,1.65-.77,3.62-.06,4.4,1.6.77,1.65.06,3.62-1.6,4.4-11.44,5.35-24.09,6.56-32.68,6.64h-.03Z"/>
          </g>
        </g>
        <g>
          <path d="M1573.32,525.01c-.3,0-.61-.04-.91-.13-1.76-.5-2.77-2.33-2.27-4.09l12.74-44.7c.5-1.76,2.34-2.77,4.09-2.27,1.76.5,2.77,2.33,2.27,4.09l-12.74,44.7c-.41,1.45-1.74,2.4-3.18,2.4Z"/>
          <path d="M1508.77,528.7c-1.55,0-2.93-1.09-3.24-2.67l-9.02-45.6c-.35-1.79.81-3.53,2.6-3.89,1.79-.35,3.53.81,3.89,2.6l9.02,45.6c.35,1.79-.81,3.53-2.6,3.89-.22.04-.43.06-.64.06Z"/>
          <path d="M1412.89,615.69h0l-29.67-.02c-1.83,0-3.31-1.48-3.31-3.31,0-1.83,1.48-3.31,3.31-3.31h0l29.67.02c1.83,0,3.31,1.48,3.31,3.31,0,1.83-1.48,3.31-3.31,3.31Z"/>
          <path d="M1431.48,558.26c-.53,0-1.07-.13-1.57-.4l-33.46-18.14c-1.61-.87-2.2-2.88-1.33-4.48.87-1.61,2.87-2.2,4.48-1.33l33.46,18.14c1.61.87,2.2,2.88,1.33,4.48-.6,1.11-1.74,1.73-2.91,1.73Z"/>
          <path d="M1662.56,620.56c-1.83,0-3.31-1.48-3.31-3.31,0-1.83,1.48-3.31,3.31-3.31l29.67-.02h0c1.83,0,3.31,1.48,3.31,3.31,0,1.83-1.48,3.31-3.31,3.31l-29.67.02h0Z"/>
          <path d="M1640.86,567.44c-1.17,0-2.31-.63-2.91-1.73-.87-1.61-.27-3.61,1.33-4.48l33.46-18.14c1.6-.87,3.61-.27,4.48,1.33.87,1.61.27,3.61-1.33,4.48l-33.46,18.14c-.5.27-1.04.4-1.57.4Z"/>
        </g>
      </g>
    </g>
    <g>
      <g>
        <polygon class="st1" points="879.25 1979.47 928.33 1220.43 1245.09 1979.47 1288.94 1979.47 939.82 1139.33 888.25 1139.26 835.4 1979.47 879.25 1979.47"/>
        <path d="M1288.94,1982.78h-43.85c-1.34,0-2.54-.8-3.05-2.03l-311.32-746-48.17,744.94c-.11,1.74-1.56,3.09-3.3,3.09h-43.85c-.91,0-1.79-.38-2.41-1.04-.63-.67-.95-1.56-.89-2.47l52.85-840.21c.11-1.74,1.56-3.1,3.3-3.1h0l51.57.07c1.33,0,2.54.81,3.05,2.04l349.12,840.13c.42,1.02.31,2.19-.3,3.1-.61.92-1.64,1.47-2.75,1.47ZM1247.3,1976.16h36.69l-346.37-833.52-46.25-.07-52.43,833.59h37.22l48.88-755.94c.1-1.53,1.24-2.8,2.76-3.05,1.52-.26,3.01.57,3.6,1.99l315.91,757Z"/>
      </g>
      <g>
        <g>
          <g>
            <path class="st1" d="M1369.18,687.91H373.65c-21.97,0-36.58,17.45-32.62,38.97l122.91,668.47c3.96,21.52,24.98,38.96,46.95,38.96h995.53c21.97,0,36.58-17.44,32.62-38.96l-122.91-668.47c-3.96-21.52-24.98-38.97-46.95-38.97Z"/>
            <path d="M1506.42,1437.61H510.89c-23.46,0-45.98-18.69-50.2-41.67l-122.91-668.47c-2.09-11.36.49-22.09,7.25-30.21,6.8-8.17,16.97-12.66,28.62-12.66h995.53c23.46,0,45.98,18.69,50.2,41.67l122.91,668.47c2.09,11.36-.49,22.09-7.25,30.21-6.8,8.17-16.97,12.66-28.62,12.66ZM373.65,691.22c-9.66,0-18.02,3.65-23.54,10.28-5.48,6.59-7.55,15.38-5.83,24.78l122.91,668.47c3.68,19.99,23.28,36.26,43.7,36.26h995.53c9.66,0,18.02-3.65,23.54-10.28,5.49-6.58,7.55-15.38,5.83-24.78l-122.91-668.47c-3.68-19.99-23.28-36.26-43.7-36.26H373.65Z"/>
          </g>
          <path class="st2" d="M512.01,1412.49c-13.22,0-25.91-10.47-28.27-23.34l-120.87-657.4c-2.37-12.87,6.47-23.34,19.69-23.34h985.27c13.22,0,25.91,10.47,28.27,23.34l120.87,657.4c2.37,12.87-6.47,23.34-19.69,23.34h-985.27Z"/>
        </g>
        <g>
          <g>
            <path class="st0" d="M1345.68,832.1H448.93c-1.83,0-3.31-1.48-3.31-3.31s1.48-3.31,3.31-3.31h896.75c1.83,0,3.31,1.48,3.31,3.31s-1.48,3.31-3.31,3.31Z"/>
            <g>
              <path class="st0" d="M1017.57,1385.22c-1.53,0-2.91-1.07-3.23-2.63l-133.96-640.78c-.37-1.79.77-3.54,2.56-3.91,1.8-.38,3.54.77,3.91,2.56l133.96,640.78c.37,1.79-.77,3.54-2.56,3.91-.23.05-.46.07-.68.07Z"/>
              <path class="st0" d="M791.07,1385.22c-1.53,0-2.91-1.07-3.23-2.63l-133.96-640.78c-.37-1.79.77-3.54,2.56-3.91,1.8-.38,3.54.77,3.91,2.56l133.96,640.78c.37,1.79-.77,3.54-2.56,3.91-.23.05-.46.07-.68.07Z"/>
              <path class="st0" d="M1244.08,1385.22c-1.53,0-2.91-1.07-3.23-2.63l-133.96-640.78c-.37-1.79.77-3.54,2.56-3.91,1.79-.38,3.54.77,3.91,2.56l133.96,640.78c.37,1.79-.77,3.54-2.56,3.91-.23.05-.46.07-.68.07Z"/>
            </g>
          </g>
          <polygon class="st0" points="926.36 807.32 1095.16 807.32 1084.65 757.07 915.85 757.07 926.36 807.32"/>
          <polygon class="st3" points="698.48 807.32 867.28 807.32 856.77 757.07 687.97 757.07 698.48 807.32"/>
          <polygon class="st0" points="1154.24 807.32 1323.04 807.32 1312.53 757.07 1143.73 757.07 1154.24 807.32"/>
          <polygon class="st0" points="470.6 807.32 639.4 807.32 628.89 757.07 460.09 757.07 470.6 807.32"/>
          <polygon class="st0" points="583.16 1345.72 751.96 1345.72 712.76 1158.25 543.96 1158.25 583.16 1345.72"/>
          <polygon class="st0" points="783.98 1216.28 952.78 1216.28 913.58 1028.81 744.78 1028.81 783.98 1216.28"/>
          <g>
            <polygon class="st0" points="1197.57 990.38 1361.31 990.38 1336.71 872.73 1172.97 872.73 1197.57 990.38"/>
            <path class="st1" d="M1278.88,909.71c2.1,10.06,13.57,18.21,25.61,18.21s20.1-8.15,18-18.21c-2.1-10.06-13.57-18.21-25.61-18.21s-20.1,8.15-18,18.21Z"/>
            <polygon class="st2" points="1219.37 972.72 1335.66 972.72 1329.4 942.8 1213.11 942.8 1219.37 972.72"/>
          </g>
          <g>
            <polygon class="st0" points="513.93 990.38 677.67 990.38 653.07 872.73 489.33 872.73 513.93 990.38"/>
            <path class="st1" d="M595.24,909.71c2.1,10.06,13.57,18.21,25.61,18.21s20.1-8.15,18-18.21c-2.1-10.06-13.57-18.21-25.61-18.21s-20.1,8.15-18,18.21Z"/>
            <polygon class="st2" points="535.73 972.72 652.02 972.72 645.76 942.8 529.47 942.8 535.73 972.72"/>
          </g>
          <g>
            <polygon class="st3" points="1001.88 1168.57 1170.68 1168.57 1108.83 872.73 940.03 872.73 1001.88 1168.57"/>
            <polygon class="st0" points="984.05 972.29 1106.44 972.29 1090.31 895.14 967.92 895.14 984.05 972.29"/>
            <polygon class="st0" points="990.28 1002.06 1112.66 1002.06 1108.48 982.07 986.1 982.07 990.28 1002.06"/>
            <path class="st1" d="M1076.68,1032.61c2.1,10.06,13.57,18.21,25.61,18.21s20.1-8.15,18-18.21c-2.1-10.06-13.57-18.21-25.61-18.21s-20.1,8.15-18,18.21Z"/>
            <polygon class="st0" points="1020.94 1148.74 1144.57 1148.74 1128.44 1071.58 1004.81 1071.58 1020.94 1148.74"/>
          </g>
          <g>
            <polygon class="st2" points="741.81 990.38 905.55 990.38 880.95 872.73 717.21 872.73 741.81 990.38"/>
            <g>
              <g>
                <polygon class="st0" points="858.91 972.11 884.57 972.11 867.78 891.82 842.12 891.82 858.91 972.11"/>
                <polygon class="st0" points="824.32 972.11 849.98 972.11 833.2 891.82 807.54 891.82 824.32 972.11"/>
                <polygon class="st0" points="789.74 972.11 815.4 972.11 798.61 891.82 772.95 891.82 789.74 972.11"/>
                <polygon class="st0" points="755.15 972.11 780.81 972.11 764.02 891.82 738.36 891.82 755.15 972.11"/>
              </g>
              <g>
                <polygon class="st1" points="858.91 972.11 884.57 972.11 881.58 957.82 855.92 957.82 858.91 972.11"/>
                <polygon class="st1" points="824.32 972.11 849.98 972.11 845.5 950.68 819.84 950.68 824.32 972.11"/>
                <polygon class="st1" points="789.74 972.11 815.4 972.11 801.35 904.94 775.69 904.94 789.74 972.11"/>
                <polygon class="st1" points="755.15 972.11 780.81 972.11 769.59 918.46 743.93 918.46 755.15 972.11"/>
              </g>
            </g>
          </g>
        </g>
      </g>
    </g>
    <g>
      <g>
        <g>
          <path d="M1968.7,1943.61c6.63,13.45,20.62,43.35,27.92,73.69,2.95,12.25-.23,19.17-3.02,29.1-4.02,14.27-8.54,20.95-6.57,25,4.12,8.5,51.44,6.4,67.14-19.45,5.02-8.26,6.05-20.37-2.22-63.51-8.49-44.25-5.33-51.16-11.86-56.55-20.56-16.95-65.66,8.43-71.38,11.72Z"/>
          <path class="st3" d="M1996.54,2070.1c-1.7,0-3.14-1.3-3.29-3.02-.16-1.82,1.19-3.42,3.01-3.58,17.66-1.54,30.17-7.8,37.21-18.63,13.36-20.57,3.08-51.14,2.97-51.45-.59-1.73.32-3.61,2.05-4.2,1.73-.59,3.61.32,4.2,2.05.47,1.38,11.42,33.96-3.68,57.21-8.2,12.62-22.39,19.89-42.18,21.61-.1,0-.19.01-.29.01Z"/>
        </g>
        <g>
          <path d="M1753.97,1999.54s-2.45,19.05,5.57,62.87c1.15,6.29-5.52,11.46-11.89,12.03-26,2.3-87.04,6.43-137.99,4.82-4.72-.15-8.16-3.75-9.21-6.82-9.43-27.49,65.62-36.27,68.67-54.9,5.45-33.33,84.84-17.99,84.84-17.99Z"/>
          <path class="st3" d="M1643.46,2071.45c-9.52,0-18.94-.28-27.91-.93-1.82-.13-3.19-1.71-3.06-3.54.13-1.82,1.71-3.19,3.54-3.06,54.45,3.92,121.26-5.7,127.56-9.74,1.54-.99,3.58-.54,4.57.99.99,1.54.54,3.58-.99,4.57-7.36,4.73-56.64,11.71-103.7,11.71Z"/>
        </g>
        <path class="st3" d="M1629.95,1315.96s6.47,458.93-15.37,665.82c-3.56,33.72,23.94,62.62,57.8,60.76,10.59-.58,22.88-2.91,37.1-7.7,31.89-10.74,56.97-12.71,74.8-11.68,17.48,1.01,32.12-13.09,32.08-30.6-.23-89.05-2.47-313.86-18.63-408.25,0,0,68.52,198.66,124.68,374.09,6.66,20.8,26.5,34.38,48.31,33.27,24.65-1.26,58.97-7.74,96.53-28.93,25.52-14.4,37.58-44.65,29.36-72.78-30.43-104.08-123.46-373.66-323.77-599.64l-142.86,25.65Z"/>
        <path class="st0" d="M1810.2,1633.06c-1.42,0-2.74-.93-3.17-2.36-8.11-27.15-29.03-82.09-45.91-124.45-9.03-22.68-28.62-39.54-52.4-45.12-1.78-.42-2.88-2.2-2.47-3.98.42-1.78,2.2-2.88,3.97-2.46,25.88,6.07,47.2,24.43,57.04,49.11,16.93,42.49,37.93,97.64,46.1,125,.52,1.75-.47,3.59-2.22,4.11-.32.09-.63.14-.95.14Z"/>
      </g>
      <g>
        <g>
          <path class="st1" d="M1316.83,1019.49c-2.27-3.21-1.26-7.76,2.35-9.65,2.55-1.34,5.71-.73,7.78,1.28l32.84,31.8,3.5-.67c6.89-1.32,13.46,3.43,14.37,10.39,0,0-.43,20.33,5.7,28.28,31.59,41,103.88,112.88,115.03,112.88,11.98,0,31.94-11.18,31.94-11.18l90.22,17.57s-46.31,73.46-125.36,55.89c-66.58-14.8-126.92-123.61-144.3-157.57-2.08-4.07-5.44-7.29-9.51-9.37-1.7-.87-3.3-1.97-4.76-3.3l-13.56-12.29c-5.12-4.64-6.81-11.99-4.21-18.4l3.25-8.03c3.23-7.97,2.18-17.04-2.78-24.06l-2.51-3.55Z"/>
          <path d="M1519.18,1262.07c-7.85,0-16.08-.85-24.68-2.77-68.06-15.12-129.36-125.75-146.53-159.29-1.72-3.37-4.52-6.11-8.07-7.94-1.98-1.02-3.83-2.29-5.48-3.79l-13.56-12.29c-6.12-5.55-8.16-14.43-5.06-22.09l3.25-8.03c2.82-6.96,1.91-14.78-2.42-20.92l-2.51-3.55c-1.64-2.33-2.2-5.25-1.54-8.03.67-2.77,2.51-5.13,5.06-6.46,3.77-1.98,8.44-1.24,11.61,1.83l31.61,30.6,1.81-.35c4.24-.81,8.49.13,11.99,2.66,3.5,2.53,5.73,6.27,6.29,10.55.02.16.03.33.03.5-.11,5.34.58,20.44,5.01,26.19,33.01,42.85,102.95,110.8,112.44,111.59,10.94,0,30.1-10.65,30.29-10.76.68-.38,1.48-.51,2.25-.36l90.22,17.57c1.07.21,1.97.93,2.4,1.93.43,1,.34,2.15-.24,3.08-.43.67-38.75,60.12-104.19,60.12ZM1322.12,1012.44c-.49,0-.97.11-1.39.33-.87.46-1.47,1.22-1.7,2.15-.22.92-.04,1.89.51,2.66h0s2.51,3.55,2.51,3.55c5.63,7.98,6.81,18.15,3.15,27.21l-3.25,8.03c-2.06,5.1-.71,11.02,3.37,14.71l13.56,12.29c1.22,1.11,2.59,2.05,4.05,2.8,4.8,2.46,8.58,6.2,10.94,10.81,16.83,32.9,76.83,141.35,142.07,155.85,8.07,1.79,15.81,2.6,23.18,2.6,52.05,0,86.11-39.97,95.81-52.99l-84.04-16.36c-4.44,2.38-21.3,11.01-32.47,11.01-13.67,0-87.83-75.46-117.65-114.17-6.43-8.34-6.44-26.88-6.39-30.09-.37-2.36-1.63-4.42-3.57-5.82-2-1.45-4.44-1.99-6.87-1.52l-3.5.67c-1.06.2-2.15-.12-2.92-.87l-32.84-31.8c-.71-.69-1.65-1.06-2.55-1.06Z"/>
        </g>
        <path d="M1589.27,1102.13c15.62-21.68,40.92-34.27,67.64-33.81l153.15,2.16c13.55.19,24.47,11.15,24.63,24.7l1.05,91.17,15.13,143.55c-69.16-51.52-141.25-7.45-181.58,6.03-40.33,13.48-52.7-4.79-52.7-4.79l3.99-120.57s-13.56,30.51-50.1,53.48c-4.76,2.99-11.04.99-13.36-4.14-10.87-23.97-31.62-40.31-33.14-75.15-.34-7.69,3.07-15.05,9.03-19.93,21.69-17.78,41.76-42.58,56.26-62.71Z"/>
        <g>
          <g>
            <path class="st1" d="M1760.85,1231.69h170.57c4.34,0,7.86,3.52,7.86,7.86v222.99c0,4.34-3.52,7.86-7.86,7.86h-170.57c-4.34,0-7.86-3.52-7.86-7.86v-222.99c0-4.34,3.52-7.86,7.86-7.86Z" transform="translate(-412.56 1714.14) rotate(-45.33)"/>
            <path d="M1865.47,1501.26c-2.84,0-5.68-1.07-7.85-3.22l-158.58-156.77c-2.12-2.1-3.3-4.9-3.32-7.88s1.13-5.8,3.23-7.92l119.92-121.31c4.33-4.38,11.42-4.42,15.8-.09l158.58,156.77c4.38,4.33,4.42,11.42.09,15.8l-119.92,121.31c-2.18,2.21-5.06,3.31-7.95,3.31ZM1703.65,1330.12c-.86.87-1.32,2.01-1.32,3.23,0,1.22.49,2.36,1.35,3.21l158.58,156.77c.87.86,2.09,1.34,3.23,1.32,1.22,0,2.36-.49,3.21-1.35l119.92-121.31c1.77-1.79,1.75-4.68-.04-6.44l-158.58-156.77c-1.79-1.77-4.68-1.75-6.44.04l-119.92,121.31Z"/>
          </g>
          <g>
            <path class="st1" d="M1727.52,1287.76l53.97-54.6c3.73-3.78,9.82-3.81,13.59-.08l12.49,12.35-67.49,68.27-12.49-12.35c-3.78-3.73-3.81-9.82-.08-13.59Z"/>
            <path class="st1" d="M1732.08,1267.31l14.67,14.5,29.01-29.34-14.67-14.5c-8.1-8.01-21.16-7.93-29.18.17-8.01,8.1-7.93,21.16.17,29.17ZM1738.88,1250.76c-1.6-1.58-1.62-4.16-.03-5.76,1.58-1.6,4.16-1.62,5.76-.03,1.6,1.58,1.62,4.16.03,5.77-1.58,1.6-4.16,1.62-5.76.03Z"/>
          </g>
          <g>
            <path class="st3" d="M1761.2,1340.38l73.29-74.14c1.83-1.85,1.81-4.83-.04-6.66-1.85-1.83-4.83-1.81-6.66.04l-73.29,74.14c-1.83,1.85-1.81,4.83.04,6.66,1.85,1.83,4.83,1.81,6.66-.04Z"/>
            <path class="st3" d="M1774.94,1353.97l73.29-74.14c1.83-1.85,1.81-4.83-.04-6.66-1.85-1.83-4.83-1.81-6.66.04l-73.29,74.14c-1.83,1.85-1.81,4.83.04,6.66,1.85,1.83,4.83,1.81,6.66-.04Z"/>
            <path class="st3" d="M1788.68,1367.55l73.29-74.14c1.83-1.85,1.81-4.83-.04-6.66-1.85-1.83-4.83-1.81-6.66.04l-73.29,74.14c-1.83,1.85-1.81,4.83.04,6.66,1.85,1.83,4.83,1.81,6.66-.04Z"/>
          </g>
        </g>
        <g>
          <path class="st1" d="M1792.31,1425.34l35.57-18.97s-32.85,4.55-29.17-6.64c1.9-5.75,4.73-5.46,12.19-5.58,5.45-.09,14.76-.6,23.16-1.13,13.14-.82,25.3-7.3,33.19-17.84,22.91-30.61,33.98-73.26,29.49-90.97-3.27-12.89-15.96-30.48-25.15-44.61,23.78-18.81,34.94-18.46,58.99-35.03,23.63,39.38,26.35,78.45,24.25,91.62-8.87,55.76-65.54,102.76-83.09,116.13-3.37,2.57-6.6,5.33-9.65,8.28-12.14,11.77-35.37,31.38-51.78,27.26-23.15-5.81-18-22.52-18-22.52Z"/>
          <path d="M1815.05,1451.73c-1.9,0-3.75-.21-5.55-.66-8.99-2.26-15.22-6.36-18.51-12.19-4.04-7.17-1.94-14.21-1.85-14.51.26-.83.83-1.53,1.6-1.95l22.11-11.79c-6.59-.15-13.23-1.27-16.11-4.72-1.65-1.98-2.07-4.54-1.19-7.21,2.53-7.68,7.38-7.74,14.1-7.83l1.18-.02c4.53-.07,12.27-.45,23-1.12,12.26-.77,23.46-6.79,30.74-16.52,21.58-28.83,33.27-71.07,28.93-88.18-2.6-10.27-11.87-24.22-20.04-36.54-1.61-2.43-3.19-4.8-4.67-7.09-.93-1.43-.62-3.34.72-4.4,13.36-10.57,22.72-15.17,32.64-20.03,7.82-3.84,15.91-7.81,26.52-15.13.75-.52,1.68-.7,2.58-.51.89.19,1.67.75,2.14,1.53,22.81,38,27.25,77.73,24.68,93.84-9.07,57.01-66.85,104.92-84.35,118.24-3.31,2.52-6.46,5.22-9.35,8.02-14,13.57-33.26,28.75-49.34,28.75ZM1795.24,1427.53c-.23,1.71-.3,4.93,1.57,8.19,2.38,4.14,7.19,7.15,14.31,8.93,10.83,2.71,28.55-6.92,48.67-26.43,3.07-2.98,6.42-5.85,9.94-8.54,17-12.95,73.14-59.43,81.82-114.02,1.58-9.94.77-46.64-22.06-86.39-9.58,6.34-17.11,10.04-24.42,13.63-8.98,4.41-17.49,8.59-29.06,17.43.97,1.47,1.96,2.97,2.98,4.49,8.47,12.75,18.06,27.21,20.94,38.57,4.8,18.94-6.36,62.11-30.05,93.77-8.45,11.29-21.43,18.27-35.63,19.16-10.83.68-18.68,1.06-23.31,1.13l-1.2.02c-6.85.09-6.91.27-7.9,3.29-.22.66-.09.81-.01.91,2.22,2.66,15.02,2.89,25.59,1.43,1.59-.22,3.1.73,3.6,2.26.5,1.52-.18,3.18-1.59,3.94l-34.2,18.24Z"/>
        </g>
        <path d="M1811.56,1070.95c24.01.41,46.59,11.36,61.84,29.9,18.95,23.04,45.4,57.17,67.64,93.2,2.38,3.86,2.68,8.7.55,12.7-15.4,28.88-43.82,25.01-65.64,37.82-3.31,1.94-7.53,1.07-9.73-2.06-19.03-27.11-41.24-45.12-41.24-45.12l-21.08-126.57,7.66.13Z"/>
      </g>
      <g>
        <g>
          <ellipse cx="1728.65" cy="980.68" rx="80.44" ry="80.57"/>
          <ellipse cx="1809.62" cy="1028.03" rx="29.97" ry="30.02"/>
          <ellipse cx="1841.68" cy="1059.55" rx="23.37" ry="23.41"/>
          <path d="M1885.66,1100.38s19.76-8.38,40.12,1.8c15.13,7.56,14.33,26.19,24.72,38.75,2.12,2.56.92,6.43-2.33,7.16-9.62,2.16-26.84,3.88-42.16-5.79-22.76-14.37-28.74-34.73-28.74-34.73l8.38-7.19Z"/>
          <ellipse cx="1869.95" cy="1089.52" rx="21.04" ry="21.07"/>
        </g>
        <g>
          <g>
            <path class="st1" d="M1700.64,933.72c-4.23,3.5-6.69,4.49-10.12,7.81-6.99,6.77-13.09,26.75-24.85,30.87-1.25,6.53,3.96,7.28,5.94,10.92-1.46,3.21-3.88,18.16-6.43,27.31-.9,3.2.73,6.61,3.82,7.85,5.19,2.1,11.04,3.48,17.59,3.96,0,0,33.53,38.19-.6,64.45,0,0,31.99,26.35,68.23-12.04,6.36-6.74-22.96-66.08-22.96-66.08,1-.37,14.09-5.39,15.48-16.22.51-3.98-.36-10.31-3.94-11.66-3.5-1.32-9.35,2.2-13.05,9.69-.81-1.78-1.52-4.07-2.24-6.7-.99-3.61-1.73-7.75-.7-9.83-32.66-8.85-3.3-40.59-26.16-40.35Z"/>
            <path d="M1712.89,1098.94c-17.15,0-28.8-9.32-29-9.49-.78-.64-1.22-1.6-1.2-2.61.02-1.01.49-1.95,1.29-2.57,8.35-6.43,13.02-14.16,13.88-22.99,1.58-16.15-9.74-31.65-12.94-35.66-6.15-.58-11.92-1.94-17.17-4.07-4.64-1.88-7.12-6.96-5.76-11.81,1.18-4.23,2.36-9.87,3.4-14.85,1.08-5.17,1.84-8.72,2.51-11-.34-.35-.74-.7-1.18-1.08-2.19-1.92-5.51-4.82-4.31-11.04.22-1.16,1.04-2.11,2.15-2.5,6.31-2.21,11.17-10.67,15.46-18.13,2.72-4.74,5.3-9.21,8.18-12,2.13-2.07,3.91-3.3,5.8-4.61,1.37-.95,2.79-1.94,4.52-3.37.58-.48,1.31-.75,2.07-.76,4.59-.06,7.87,1.05,10.07,3.35,3.43,3.6,3.13,8.86,2.8,14.43-.55,9.54-1.07,18.54,14.19,22.68.95.26,1.74.93,2.15,1.83.41.9.39,1.94-.05,2.83,0,.01-.7,1.57.92,7.48.01.04.02.09.04.13,4.07-4.67,9.14-6.88,13.23-5.34,5.6,2.11,6.69,10.23,6.06,15.17-1.21,9.43-9.47,14.96-14.29,17.42,2.5,5.2,7.71,16.24,12.45,27.61,12.21,29.3,11.28,36.11,8.45,39.11-15.95,16.9-31.3,21.81-43.74,21.81ZM1691.47,1086.64c8.69,5.14,32.92,14.92,60.24-13.92,2.05-5.18-10.51-36.36-23.41-62.46-.42-.84-.45-1.82-.11-2.69.35-.87,1.05-1.55,1.93-1.88.5-.18,12.19-4.58,13.34-13.53.47-3.66-.63-7.69-1.83-8.14-1.41-.53-5.85,1.83-8.92,8.06-.56,1.15-1.7,1.88-3.02,1.84-1.28-.02-2.43-.77-2.96-1.93-.98-2.16-1.78-4.85-2.42-7.2-.95-3.44-1.38-6.2-1.31-8.42-17.42-6.08-16.65-19.5-16.13-28.54.24-4.1.46-7.97-.99-9.49-.85-.89-2.54-1.2-4.1-1.28-1.52,1.2-2.82,2.11-3.99,2.93-1.73,1.2-3.22,2.24-4.97,3.94-2.22,2.15-4.56,6.23-7.05,10.55-4.47,7.77-9.49,16.5-16.98,20.21.13,1.28.91,1.96,2.29,3.17,1.16,1.02,2.48,2.17,3.43,3.91.5.91.53,2.01.1,2.95-.62,1.35-1.75,6.77-2.75,11.55-1.06,5.08-2.27,10.83-3.51,15.28-.45,1.61.36,3.28,1.87,3.9,5.02,2.03,10.6,3.28,16.59,3.72.87.06,1.67.46,2.24,1.12.71.81,17.47,20.17,15.37,41.67-.92,9.4-5.28,17.69-12.98,24.7Z"/>
          </g>
          <g>
            <path class="st1" d="M1713.5,1018.48s-11.17,6.92-25.85,4.09l25.85-4.09Z"/>
            <path d="M1694.8,1026.56c-2.45,0-5.06-.22-7.78-.74-1.79-.35-2.97-2.08-2.62-3.87.35-1.79,2.08-2.97,3.87-2.62,13.26,2.55,23.38-3.59,23.48-3.66,1.55-.96,3.59-.48,4.55,1.07.96,1.55.48,3.59-1.07,4.55-.41.26-8.67,5.27-20.44,5.27Z"/>
          </g>
        </g>
      </g>
    </g>
    <g>
      <g>
        <g>
          <g>
            <polygon class="st1" points="1594.68 1965.71 1606.95 2040.8 1567.95 2044.89 1552.91 1974.36 1594.68 1965.71"/>
            <path d="M1567.95,2048.2c-1.54,0-2.9-1.08-3.23-2.62l-15.04-70.54c-.18-.86-.02-1.76.47-2.5.48-.74,1.24-1.25,2.1-1.43l41.76-8.64c.88-.18,1.8,0,2.54.51.74.51,1.25,1.3,1.39,2.19l12.27,75.08c.15.9-.08,1.82-.64,2.54-.55.72-1.38,1.19-2.28,1.28l-39,4.1c-.12.01-.23.02-.35.02ZM1556.84,1976.92l13.72,64.37,32.56-3.42-11.15-68.22-35.13,7.27Z"/>
          </g>
          <g>
            <path class="st3" d="M1563.91,2028.62c12.66,5.28,27.27,2.17,36.69-7.81l4.95-5.25c1.72-1.82,4.68-1.56,6.06.52l26.96,40.79c4.84,6.68,4.01,16.73-2.01,22.43-7.84,7.43-19.77,17.44-34.16,25.4-27.15,15.01-50.83,47.41-78.33,39.17-27.5-8.24-26.04-9.54-29.06-18.29-3.01-8.75,10.41-26.49,32.62-46.26,13.58-12.08,26.95-38.39,31.21-48.64.82-1.98,3.09-2.9,5.07-2.08Z"/>
            <path d="M1532.97,2148.5c-3.23,0-6.51-.45-9.84-1.45-25.37-7.6-27.69-9.61-30.67-18.68-.17-.53-.36-1.1-.57-1.7-4.34-12.62,15.85-34.05,33.55-49.8,12.75-11.35,25.95-36.86,30.35-47.43.74-1.77,2.12-3.15,3.9-3.88,1.77-.73,3.72-.72,5.49.02,11.32,4.72,24.59,1.89,33.01-7.03l4.95-5.25c1.52-1.61,3.66-2.42,5.85-2.23,2.2.19,4.16,1.36,5.38,3.2l26.96,40.79c5.72,7.89,4.64,19.9-2.49,26.66-7.67,7.27-19.94,17.66-34.84,25.89-8.33,4.61-16.52,11.05-24.45,17.29-14.8,11.64-30.02,23.61-46.59,23.62ZM1562.42,2031.62c-.09,0-.16.02-.22.04-.1.04-.23.12-.3.3-3.65,8.77-17.37,36.76-32.06,49.84-26.21,23.33-33.46,37.59-31.69,42.71.22.63.41,1.23.6,1.79,1.97,6,2.38,7.25,26.28,14.41,17.17,5.15,33.33-7.57,50.44-21.02,8.13-6.4,16.54-13.01,25.34-17.88,14.28-7.9,26.1-17.9,33.49-24.9,4.81-4.56,5.53-12.67,1.61-18.09l-27.04-40.91c-.13-.19-.3-.24-.43-.26-.13-.01-.31.01-.47.18l-4.95,5.25c-10.3,10.91-26.52,14.36-40.37,8.59-.08-.03-.16-.05-.23-.05Z"/>
          </g>
          <path d="M1570.09,2074.66c-.41,0-.84-.08-1.24-.24l-25.56-10.38c-1.69-.69-2.51-2.62-1.82-4.31.69-1.69,2.61-2.51,4.31-1.82l25.56,10.38c1.69.69,2.51,2.62,1.82,4.31-.52,1.28-1.76,2.06-3.07,2.06Z"/>
          <path d="M1560.13,2090.27c-.42,0-.84-.08-1.25-.25l-27.08-11.05c-1.69-.69-2.5-2.62-1.81-4.31.69-1.69,2.62-2.5,4.31-1.81l27.08,11.05c1.69.69,2.5,2.62,1.81,4.31-.52,1.28-1.76,2.06-3.06,2.06Z"/>
          <g>
            <path class="st1" d="M1495.84,2127.64s14.03,19.72,44.74,3.08c20.46-11.09,97.88-74.43,97.88-74.43l6.41,8.94c3.25,4.53,2.46,10.83-1.79,14.46-19.22,16.42-70.8,58.77-100.41,66.71-36.9,9.89-46.83-18.77-46.83-18.77Z"/>
            <path d="M1528.1,2151.79c-27.03,0-35.3-22.8-35.39-23.07-.54-1.55.15-3.27,1.61-4.02,1.46-.75,3.24-.32,4.2,1.01.55.75,12.93,17.03,40.48,2.11,19.95-10.81,96.59-73.45,97.36-74.08.71-.58,1.61-.84,2.53-.72.91.12,1.72.61,2.25,1.35l6.41,8.94c4.22,5.88,3.19,14.18-2.33,18.9-20.58,17.58-71.68,59.34-101.7,67.39-5.71,1.53-10.84,2.19-15.42,2.19ZM1509.4,2139.66c6.59,4.62,16.87,7.73,32.41,3.56,29.52-7.92,83.33-52.54,99.12-66.03,2.93-2.51,3.48-6.91,1.25-10.02l-4.36-6.08c-14.14,11.52-77.12,62.49-95.67,72.55-13.92,7.54-24.81,8.01-32.75,6.03Z"/>
          </g>
        </g>
        <g>
          <g>
            <polygon class="st1" points="1383.59 1978.45 1401.43 2082.15 1358.28 2103.02 1335.33 1990.16 1383.59 1978.45"/>
            <path d="M1358.28,2106.33c-.5,0-1.01-.11-1.47-.34-.92-.45-1.57-1.3-1.77-2.3l-22.96-112.86c-.36-1.74.73-3.45,2.46-3.87l48.26-11.71c.89-.22,1.83-.05,2.6.45.77.5,1.29,1.3,1.44,2.2l17.84,103.7c.25,1.45-.49,2.9-1.82,3.54l-43.14,20.87c-.46.22-.95.33-1.44.33ZM1339.2,1992.62l21.47,105.57,37.07-17.93-16.81-97.76-41.73,10.12Z"/>
          </g>
          <g>
            <path class="st3" d="M1407.96,2075.09c1.39,9.92,3.64,28.32,3.83,44.81.12,10.36-7.62,19.1-17.83,20.42-28.89,3.73-94.41,7.8-150.22,2.71-3.82-.35-10.58-3.15-12.46-12.74-6.32-32.22,49.41-40.11,110.51-63.48,2.39-.92,5.1-.37,6.94,1.42l6.59,6.42c6.59,6.42,16.37,8.24,24.81,4.62l20.04-8.6c3.41-1.46,7.27.73,7.79,4.42Z"/>
            <path d="M1301.88,2148.75c-19.39,0-39.45-.69-58.45-2.42-5.82-.53-13.34-4.88-15.4-15.4-5.4-27.53,28.49-38.71,71.4-52.87,13.24-4.37,26.94-8.89,41.18-14.34,3.59-1.37,7.68-.53,10.43,2.14l6.59,6.42c5.65,5.5,13.97,7.05,21.2,3.95l20.04-8.6c2.57-1.1,5.45-.95,7.89.42,2.45,1.38,4.09,3.78,4.48,6.58,1.36,9.69,3.67,28.45,3.86,45.24.14,11.99-8.77,22.19-20.72,23.73-19.86,2.56-54.92,5.15-92.49,5.15ZM1344.15,2069.68c-.4,0-.8.07-1.18.22-14.38,5.5-28.15,10.05-41.47,14.44-41.37,13.65-71.25,23.51-66.98,45.32,1.75,8.93,8.23,9.97,9.51,10.09,55.27,5.04,119.68,1.15,149.49-2.7,8.62-1.11,15.05-8.46,14.95-17.1-.19-16.42-2.46-34.86-3.8-44.39-.1-.74-.53-1.37-1.18-1.74-.37-.21-1.13-.5-2.03-.11l-20.04,8.6c-9.69,4.16-20.85,2.08-28.42-5.29l-6.59-6.42c-.61-.6-1.44-.92-2.27-.92Z"/>
          </g>
          <g>
            <path class="st1" d="M1411.74,2117.43s.03,1.67.04,2.48c.12,10.36-7.62,19.1-17.83,20.42-28.89,3.73-94.41,7.8-150.22,2.71-3.82-.35-10.58-3.15-12.46-12.74-.58-2.94-.22-8.24-.22-8.24l3.96.2c56.4,2.8,112.92,1.44,169.12-4.07l7.61-.75Z"/>
            <path d="M1301.88,2148.75c-19.39,0-39.45-.69-58.45-2.42-5.82-.53-13.34-4.88-15.4-15.4-.64-3.27-.32-8.51-.28-9.1.12-1.8,1.65-3.19,3.46-3.08l3.96.2c56.05,2.78,112.78,1.42,168.63-4.06l7.61-.75c.93-.09,1.83.21,2.52.82.69.61,1.09,1.48,1.11,2.41l.04,2.51c.14,11.99-8.77,22.19-20.72,23.74-19.86,2.56-54.91,5.15-92.49,5.15ZM1234.25,2125.52c0,1.47.06,3.07.27,4.14,1.75,8.93,8.23,9.97,9.51,10.09,55.27,5.04,119.68,1.15,149.49-2.7,8.24-1.06,14.48-7.83,14.93-15.97l-4,.39c-56.18,5.51-113.24,6.88-169.61,4.08l-.6-.03Z"/>
          </g>
          <path d="M1327.77,2104.91c-.85,0-1.7-.33-2.35-.98l-21.44-21.57c-1.29-1.3-1.28-3.39.01-4.68,1.3-1.29,3.39-1.28,4.68.01l21.44,21.57c1.29,1.3,1.28,3.39-.01,4.68-.65.64-1.49.96-2.33.96Z"/>
          <path d="M1306.72,2107.14c-.87,0-1.74-.34-2.39-1.02l-17.13-17.9c-1.26-1.32-1.22-3.41.1-4.68,1.32-1.26,3.41-1.22,4.68.1l17.13,17.9c1.26,1.32,1.22,3.41-.1,4.68-.64.61-1.46.92-2.29.92Z"/>
        </g>
        <g>
          <path d="M1448.18,1383.09c-1.3,5.7,9.17,49.64,5.94,84.47-5.16,55.71,3.73,85,30.09,147.85,25.56,60.96,86.5,119.26,124.07,361.81,1.88,12.15-7.55,23.12-19.85,23.12h-31.11c-7.65,0-14.62-4.34-18.01-11.2-19.97-40.44-81.69-160.1-105.85-204.98-28.39-52.72-109.49-184.76-113.54-247.61-3.82-59.26,1.36-143.85,1.97-153.34.03-.51.44-.89.95-.91l125.34.79Z"/>
          <path d="M1273.63,1366.88s-75.49,152.35-33.62,337.42c30.29,133.86,73.76,283.17,87.79,325.75,2.75,8.34,10.51,13.99,19.28,14.05l33.98.26c12.27.09,21.86-10.54,20.5-22.73-7.89-70.58-32.05-299.02-29.42-354.16,4.33-90.87,27.8-128.06,33.22-191.97,5.91-69.63-9.31-105.84-9.31-105.84l-122.43-2.78Z"/>
          <path class="st0" d="M1374.92,1685.15c-1.75,0-3.21-1.37-3.3-3.14-2.91-57.78,10.37-99.8,22.08-136.87,7.69-24.32,14.94-47.29,17.06-72.17.16-1.82,1.74-3.17,3.58-3.02,1.82.15,3.17,1.75,3.02,3.57-2.17,25.62-9.54,48.93-17.34,73.61-12.11,38.32-24.63,77.95-21.79,134.54.09,1.82-1.31,3.38-3.14,3.47-.06,0-.11,0-.17,0Z"/>
        </g>
      </g>
      <g>
        <g>
          <path class="st1" d="M1046.27,953.43l-5.34-26.72c-.68-9.33,10.79-9.33,8.45-17.61-1.29-4.57-8.24-3.78-21.02-3.11-6.67.35-10.85-11.08-11.22-17.13-1.27-20.99-8.87-27.47-17.05-25.7s-22.8,30.09-11.69,54.28c11.11,24.19,36.83,46.61,36.83,46.61l21.04-10.62Z"/>
          <path d="M1025.22,967.36c-.78,0-1.56-.28-2.17-.81-1.07-.93-26.39-23.17-37.66-47.73-7.51-16.35-4.04-34.47,1.71-45.97,1.73-3.46,6.4-11.66,12.29-12.93,4.15-.9,8.07-.07,11.32,2.39,5.66,4.29,8.93,13.15,9.73,26.35.33,5.42,4.14,14.23,7.75,14.03l3.01-.16c12.13-.67,19.46-1.07,21.37,5.68,1.74,6.18-1.97,9.46-4.67,11.86-2.42,2.14-3.81,3.51-3.68,6.23l5.29,26.5c.29,1.46-.43,2.93-1.75,3.6l-21.04,10.62c-.47.24-.98.35-1.49.35ZM1002.6,866.18c-.58,0-1.19.07-1.82.21-1.33.29-4.61,3.1-7.77,9.42-5.06,10.13-8.15,26.02-1.61,40.25,9.09,19.81,28.59,38.69,34.36,44.02l16.77-8.46-4.85-24.25c-.03-.14-.05-.27-.06-.41-.45-6.25,3.21-9.49,5.88-11.85,2.68-2.37,3.25-3.12,2.69-5.1-.46-1.65-7.67-1.25-14.64-.87l-3.03.16c-9.35.5-14.26-13.16-14.69-20.24-.66-10.86-3.19-18.49-7.13-21.47-1.24-.94-2.59-1.4-4.11-1.4Z"/>
        </g>
        <g>
          <path class="st1" d="M1231.05,922.72l9.86,28.72,30.52-9.1s-15.65-30.76-14.31-31.06c18.03-4.01,33.16-26.7,39.53-37.66,2.11-3.63,1.35-8.35-1.94-10.95-3.83-3.02-7.83-1.26-13.31,4.56-5.41,5.75-10.77,9.41-13.99,12.01-2.82,2.28-6.39,3.41-10.01,3.2-10.28-.59-31.66-.67-37.28,3.52-12.36,9.2-2.12,21.1,4.4,26.92,2.99,2.67,5.24,6.04,6.54,9.84Z"/>
          <path d="M1240.91,954.74c-1.38,0-2.66-.87-3.13-2.23l-9.86-28.72c-1.11-3.23-3.05-6.15-5.62-8.44-5.35-4.77-11.64-12.12-11.29-20.01.21-4.62,2.6-8.67,7.12-12.03,7.63-5.68,34.2-4.47,39.45-4.17,2.82.17,5.57-.72,7.74-2.47.74-.59,1.58-1.24,2.51-1.96,3.18-2.44,7.13-5.47,11.15-9.75,2.79-2.97,10.22-10.85,17.77-4.89,4.53,3.58,5.72,10.11,2.75,15.2-7.02,12.07-20.99,32.39-38.29,38.28,2.18,5.19,7.84,16.83,13.16,27.28.44.87.48,1.9.09,2.8-.39.9-1.15,1.59-2.09,1.87l-30.52,9.1c-.32.09-.63.14-.95.14ZM1246.7,885.45c-11.17,0-21.71,1.01-24.61,3.17-2.89,2.15-4.35,4.45-4.46,7.02-.25,5.58,5.59,11.65,9.09,14.78,3.41,3.04,5.99,6.93,7.47,11.23l8.83,25.72,23.68-7.06c-13.94-27.58-13.38-28.76-12.62-30.38.44-.92,1.33-1.65,2.33-1.87,17.01-3.78,31.82-26.5,37.39-36.1,1.32-2.26.83-5.14-1.13-6.69-1.05-.83-2.8-2.21-8.86,4.23-4.39,4.66-8.75,8.01-11.94,10.46-.88.68-1.68,1.29-2.38,1.85-3.45,2.79-7.8,4.19-12.28,3.93-3.42-.2-6.99-.3-10.51-.3Z"/>
        </g>
        <g>
          <path class="st1" d="M1270.79,923.46s32.04,47.96,53.01,70.63c54.53,58.93,150.67,75.14,150.67,75.14l-20.9,93.23-136.79-52.05s-73.67-66.07-86.86-168.98l40.86-17.97Z"/>
          <path d="M1453.58,1165.77c-.4,0-.8-.07-1.18-.22l-136.79-52.05c-.38-.14-.73-.36-1.03-.63-.75-.67-74.74-68.09-87.93-171.02-.19-1.45.61-2.86,1.95-3.45l40.86-17.97c1.47-.65,3.19-.14,4.08,1.19.32.48,32.14,48.01,52.69,70.22,53.15,57.44,147.84,73.97,148.79,74.13.89.15,1.69.66,2.2,1.42.51.75.68,1.68.48,2.57l-20.9,93.23c-.21.94-.82,1.73-1.66,2.19-.49.26-1.03.39-1.57.39ZM1318.56,1107.55l132.63,50.47,19.32-86.18c-17.76-3.6-100.3-22.73-149.13-75.5-18.53-20.02-45.07-58.79-51.79-68.73l-36.06,15.86c13.16,95.07,79,158.47,85.03,164.09Z"/>
        </g>
        <g>
          <path class="st1" d="M1009.5,967.75s62.92,122.6,127.22,169.22c48.25,34.98,110.14,47.52,149.57,52.28,15.02,1.81,24.23,17.36,18.49,31.36-18.07,44.01-50.87,128.76-58.91,182.25l216.21,3.94s10-82.64,37.68-156.35c15.06-40.11,35.06-62.32,40.36-96.18,6.06-38.69-15.92-79.49-60.93-89.14-45.01-9.64-199.21,8.92-232.97,7.31s-135.4-51.2-186.84-128.36l-49.88,23.66Z"/>
          <path d="M1462.07,1410.1s-.04,0-.06,0l-216.21-3.94c-.95-.02-1.85-.44-2.47-1.17-.61-.73-.89-1.68-.74-2.63,8.05-53.53,40.49-137.64,59.12-183.02,2.33-5.68,1.89-11.97-1.22-17.26-3.13-5.33-8.45-8.81-14.61-9.56-42.78-5.16-103.73-18.53-151.11-52.88-64.2-46.55-125.63-165.35-128.22-170.38-.41-.8-.48-1.72-.19-2.57.29-.85.91-1.54,1.71-1.93l49.88-23.66c1.48-.71,3.26-.21,4.17,1.15,52.83,79.24,154.38,125.47,184.24,126.89,11.93.57,39.8-1.47,72.06-3.84,58.88-4.31,132.16-9.68,161.45-3.41,49.05,10.51,69.32,55.7,63.5,92.88-3.23,20.61-11.54,36.6-21.17,55.12-6.54,12.57-13.3,25.57-19.36,41.71-27.23,72.5-37.4,154.76-37.5,155.58-.2,1.66-1.61,2.91-3.28,2.91ZM1249.73,1399.62l209.45,3.82c2.1-15.48,12.91-88.73,37.48-154.15,6.2-16.51,13.36-30.29,19.68-42.44,9.36-18,17.45-33.55,20.51-53.09,5.49-35.04-12.79-75.63-58.35-85.39-28.36-6.08-101.11-.75-159.58,3.54-32.47,2.38-60.53,4.43-72.86,3.85-36.1-1.72-136.52-52.58-187.83-127.46l-44.2,20.97c10.16,19.12,67.29,123.46,124.63,165.03,46.24,33.52,106.02,46.6,148.02,51.67,8.22.99,15.34,5.65,19.52,12.78,4.16,7.09,4.75,15.52,1.63,23.12-18.08,44.05-49.26,124.79-58.1,177.76Z"/>
        </g>
      </g>
      <g>
        <g>
          <path class="st1" d="M1397.28,1074.99s19.73-5,21.4-10.98l14.16-28.96c.91-2.77-.05-5.81-2.37-7.53l-17.54-12.77c-2.23-1.65-3.08-4.6-2.09-7.21l9.02-23.71-5.59-9.14c-.44-.72-.23-1.65.47-2.11l16.7-10.94c5.69-4.33,13.79-16.38,16.76-14.47,0,0,71.66,13.49,64.29,49.2-1.07,5.17-4.14,9.71-8.34,12.91l-8.79,6.69c-8.82,6.71-15.34,16.27-17.52,27.17-.45,2.26-1.95,17.28-2.92,27.22-.55,5.64.95,11.28,4.23,15.9,4.12,5.81,9.07,13.12,7.89,13.13,0,0-9.4,3.22-23.03,4.43-24.21,2.15-47.96-7.61-64.09-25.8l-2.67-3.01Z"/>
          <path d="M1457.49,1107.39c-22.63,0-44.67-9.88-60.02-27.2l-2.67-3.01c-.77-.86-1.02-2.06-.69-3.17.34-1.1,1.23-1.95,2.35-2.23,9.16-2.33,18.41-6.54,19.03-8.66.05-.18.13-.39.21-.56l14.04-28.73c.37-1.37-.12-2.82-1.25-3.66l-17.52-12.75c-3.43-2.54-4.75-7.08-3.23-11.06l8.44-22.19-4.75-7.76c-1.38-2.25-.73-5.16,1.48-6.61l16.6-10.87c1.9-1.47,4.27-4.07,6.57-6.59,5.13-5.64,9.24-10.15,13.23-8.33,5.38,1.07,47.56,10.05,62.06,31.68,4.44,6.62,5.91,13.8,4.35,21.34-1.2,5.8-4.6,11.08-9.57,14.87l-8.79,6.69c-8.55,6.5-14.33,15.45-16.28,25.19-.15.75-.73,4.86-2.87,26.89-.47,4.84.82,9.69,3.64,13.66,9.71,13.69,9.27,14.56,8.29,16.46-.4.78-1.17,1.41-2.02,1.7-.4.14-9.93,3.37-23.81,4.6-2.28.2-4.56.3-6.83.3ZM1403.26,1076.73c15.49,16.89,38,25.76,60.48,23.77,8.33-.74,15.06-2.26,18.86-3.27-1.06-1.72-2.91-4.52-6.14-9.07-3.74-5.27-5.45-11.71-4.83-18.13,1.6-16.41,2.6-25.68,2.97-27.55,2.27-11.32,8.93-21.68,18.76-29.16l8.79-6.69c3.7-2.82,6.23-6.7,7.1-10.94,1.2-5.81.1-11.15-3.36-16.31-13.62-20.33-57.86-28.88-58.3-28.97-.04,0-.08-.01-.11-.02-1.45.86-4.45,4.16-6.49,6.4-2.53,2.78-5.15,5.65-7.54,7.47-.06.05-.12.09-.19.13l-15.28,10.01,4.71,7.7c.53.87.63,1.94.27,2.9l-9.02,23.71c-.47,1.22-.07,2.61.96,3.38l17.52,12.75c3.5,2.59,4.92,7.1,3.57,11.24-.05.14-.1.28-.17.42l-14.05,28.75c-1.85,5.37-11.38,9.27-18.5,11.49Z"/>
        </g>
        <path d="M1462.24,893.69c16.02,4.08-8.92,14.05,54.66,15.46,25.32.56,4.97,23.97,11.54,24.14,24.25.6,23.43.56,33.36,6.85,6.58,4.17,7.02,18.93,2.52,28.42-5.95,12.53-27.2,28.76-47.28,46.66-10.39,9.27-22.87,6.53-32.32-14.98-1.01-2.29,10.29-10.44,7.53-16.32-7.16-15.28-17.56,1.23-24.59-7.04-6.76-7.94-9.16-12.47-15.55-23.28-7.73-13.09-30.49-3.49-29.92-27.39.3-12.46,18.13-38.1,40.06-32.52Z"/>
      </g>
    </g>
    <g>
      <g>
        <g>
          <g>
            <polygon class="st1" points="789.73 2000.88 789.55 2089.91 825.85 2088.62 836.65 2003.6 789.73 2000.88"/>
            <path d="M789.55,2093.22c-.86,0-1.68-.33-2.3-.93-.65-.62-1.01-1.49-1.01-2.38l.19-89.02c0-.91.38-1.78,1.04-2.4.66-.62,1.55-.95,2.46-.89l46.92,2.71c.92.05,1.77.48,2.35,1.19.59.7.85,1.62.74,2.53l-10.81,85.03c-.2,1.61-1.54,2.83-3.16,2.89l-36.3,1.29s-.08,0-.12,0ZM793.03,2004.39l-.17,82.09,30.06-1.06,10-78.72-39.89-2.31Z"/>
          </g>
          <g>
            <path class="st3" d="M778.14,2112.1c-.19-8.29,2.94-21.17,3.8-37.42.18-3.46,3.32-5.94,6.61-4.86l24.31,5.86c1.19.29,2.16-.97,1.58-2.05l-3.53-6.55c-1.56-2.9-.34-6.52,2.67-7.87l16.98-7.62c2.51-1.13,5.36-1.21,7.93-.22,15.26,5.87,70.56,29.85,96.89,50.19,8.8,6.8,3.88,21.97-4.41,23.46-24.95,4.49-85.62,3.41-139.43-1.13-6.51-.55-13.26-5.27-13.4-11.8Z"/>
            <path d="M881.33,2131.19c-28.24,0-61.57-1.59-90.06-3.99-7.93-.67-16.24-6.47-16.43-15.02-.1-4.37.65-9.8,1.52-16.08.87-6.34,1.86-13.52,2.29-21.58.15-2.76,1.55-5.31,3.76-6.82,2.07-1.42,4.63-1.8,7.04-1.06l20.07,4.84-1.52-2.81c-1.18-2.19-1.4-4.8-.6-7.15.8-2.36,2.56-4.29,4.83-5.31l16.97-7.62c3.34-1.5,7.06-1.6,10.48-.29,12.72,4.9,70.08,29.3,97.72,50.66,4.97,3.84,7.04,10.42,5.39,17.17-1.58,6.44-5.98,11.22-11.23,12.16-11.32,2.04-29.39,2.9-50.23,2.9ZM786.99,2072.87c-.3,0-.59.09-.85.27-.52.36-.86,1-.89,1.71-.44,8.34-1.45,15.67-2.34,22.14-.83,6-1.54,11.19-1.46,15.03.1,4.62,5.45,8.16,10.38,8.58,57.24,4.83,115.51,5.32,138.56,1.17,2.59-.47,5.05-3.44,5.98-7.22.39-1.59,1.32-7.02-3-10.36-27.01-20.87-83.52-44.9-96.05-49.72-1.76-.68-3.67-.62-5.39.15l-16.98,7.62c-.61.27-1.06.77-1.27,1.4-.21.63-.16,1.3.16,1.89l3.53,6.55c.88,1.64.72,3.65-.42,5.12-1.13,1.47-3.04,2.14-4.85,1.71l-24.56-5.93c-.18-.06-.36-.09-.53-.09Z"/>
          </g>
          <path d="M862.4,2117.14c-35.89,0-64.99-3.03-65.43-3.08-1.82-.19-3.13-1.82-2.94-3.64.19-1.82,1.83-3.14,3.64-2.94.67.07,67.9,7.07,123.67-.39,1.8-.24,3.47,1.03,3.72,2.84.24,1.81-1.03,3.47-2.84,3.72-19.66,2.63-40.7,3.49-59.81,3.49Z"/>
          <path d="M873.12,2096.49c-.2,0-.4-.02-.61-.06-1.79-.34-2.98-2.06-2.64-3.86l4.5-24.1c.33-1.8,2.05-2.98,3.86-2.64,1.79.34,2.98,2.06,2.64,3.86l-4.5,24.1c-.3,1.59-1.69,2.7-3.25,2.7Z"/>
          <path d="M858.49,2092.55c-.2,0-.4-.02-.6-.05-1.8-.33-2.99-2.05-2.66-3.85l4.68-25.66c.33-1.8,2.05-2.98,3.85-2.66,1.8.33,2.99,2.05,2.66,3.85l-4.68,25.66c-.29,1.6-1.68,2.71-3.25,2.71Z"/>
        </g>
        <g>
          <g>
            <polygon class="st1" points="544.29 1966.68 516.15 2051.14 551.02 2061.32 590.21 1976.89 544.29 1966.68"/>
            <path d="M551.02,2064.63c-.31,0-.62-.04-.93-.13l-34.86-10.18c-.86-.25-1.59-.84-2-1.64-.42-.8-.49-1.73-.21-2.58l28.14-84.46c.54-1.61,2.21-2.55,3.86-2.18l45.91,10.21c.98.22,1.8.87,2.25,1.76.44.9.46,1.95.03,2.86l-39.19,84.43c-.55,1.19-1.74,1.92-3,1.92ZM520.37,2048.92l28.84,8.42,36.27-78.12-38.99-8.67-26.12,78.37Z"/>
          </g>
          <g>
            <path class="st3" d="M500.09,2068.38c2.45-7.92,6.18-19.89,10.97-35.09,1.04-3.3,5.02-4.6,7.81-2.54l20.43,12.2c2.41,1.44,5.4-.62,4.91-3.38l-.6-3.38c-.57-3.25,1.73-6.3,5.01-6.63l18.51-1.9c2.73-.28,5.46.54,7.59,2.28,12.62,10.35,57.46,48.24,74.09,77.08,4.21,7.3-1.71,16.25-10.05,15.06-25.11-3.58-81.78-16.84-131.45-38.06-6.05-2.59-9.16-9.34-7.21-15.63Z"/>
            <path d="M640.21,2125.47c-.64,0-1.28-.05-1.92-.14-25.72-3.66-82.18-16.88-132.29-38.29-7.63-3.26-11.53-11.71-9.07-19.65,2.46-7.92,6.18-19.9,10.97-35.1.81-2.57,2.82-4.6,5.38-5.43,2.51-.82,5.26-.4,7.4,1.12l20.3,12.12-.64-3.35c-.43-2.45.18-4.99,1.68-6.98,1.5-1.98,3.78-3.27,6.25-3.52l18.51-1.9c3.65-.37,7.2.7,10.02,3.01,13.31,10.91,58.03,48.79,74.86,77.98,2.6,4.51,2.41,9.99-.49,14.29-2.51,3.7-6.59,5.84-10.97,5.84ZM515.89,2033.06c-.23,0-.42.04-.55.09-.32.1-.88.39-1.12,1.13-4.78,15.19-8.51,27.16-10.96,35.07-1.45,4.69.84,9.68,5.35,11.61,49.52,21.16,105.24,34.21,130.62,37.83,2.59.37,5.02-.7,6.48-2.86,1.5-2.22,1.59-4.94.24-7.28-16.27-28.22-60.24-65.44-73.32-76.17-1.45-1.19-3.27-1.74-5.15-1.54l-18.51,1.9c-.66.07-1.25.4-1.65.93-.4.53-.56,1.18-.44,1.84l.6,3.38c.45,2.57-.6,5.08-2.75,6.57-2.15,1.48-4.87,1.57-7.11.23l-20.7-12.38c-.36-.26-.71-.34-1.02-.34ZM500.09,2068.38h.02-.02Z"/>
          </g>
          <path d="M636.91,2111.31c-.14,0-.28,0-.42-.03-55.97-7.06-123.35-35.37-124.02-35.65-1.68-.71-2.47-2.65-1.76-4.33.71-1.68,2.65-2.47,4.33-1.76.67.28,67.22,28.24,122.27,35.18,1.81.23,3.1,1.88,2.87,3.7-.21,1.67-1.64,2.89-3.28,2.89Z"/>
          <path d="M594.46,2083.8c-.54,0-1.09-.13-1.59-.41-1.6-.88-2.18-2.89-1.3-4.49l11.84-21.47c.88-1.6,2.89-2.18,4.49-1.3,1.6.88,2.18,2.89,1.3,4.49l-11.84,21.47c-.6,1.09-1.73,1.71-2.9,1.71Z"/>
          <path d="M581.8,2075.47c-.54,0-1.08-.13-1.58-.41-1.6-.88-2.19-2.89-1.32-4.49l12.51-22.89c.88-1.6,2.89-2.19,4.49-1.32,1.6.88,2.19,2.89,1.32,4.49l-12.51,22.89c-.6,1.1-1.74,1.72-2.91,1.72Z"/>
        </g>
        <g>
          <path d="M639.14,1370.66s-24.04,60.09-28.68,121.67c-4.65,61.58-67.92,453.6-73.52,491.5,0,0,31.24,18.69,55.69,14.74,0,0,125.87-216.32,146-438.81,18.58-205.34,15.86-188.59,15.86-188.59l-115.35-.52Z"/>
          <path d="M666.26,1391.51s-7.71,111.03,30.83,189.5c37.06,75.46,82,311.51,82.23,426.53.02,7.89,5.68,14.63,13.47,15.89,10.72,1.74,25.98,3.36,39.12,1.52,6.87-.96,12.25-6.37,13.41-13.21,11.1-65.39,66.96-425.71-14.03-621.79l-165.03,1.56Z"/>
          <path class="st0" d="M724.09,1674.69c-1.56,0-2.95-1.11-3.25-2.7-.11-.6-11.44-60.4-34.31-101.75-22.05-39.86-24.14-92.24-24.21-94.45-.06-1.83,1.36-3.36,3.19-3.42,1.85-.04,3.36,1.36,3.42,3.19.02.53,2.12,53.03,23.39,91.48,23.4,42.3,34.91,103.13,35.02,103.74.33,1.8-.85,3.52-2.65,3.86-.2.04-.41.06-.61.06Z"/>
          <path class="st0" d="M850.32,1559.87c-.41,0-.83-.08-1.24-.24-49.49-20.06-59.16-67.14-59.55-69.14-.35-1.79.82-3.52,2.61-3.88,1.8-.35,3.53.82,3.88,2.61.09.45,9.47,45.59,55.54,64.27,1.69.69,2.51,2.61,1.82,4.31-.52,1.29-1.76,2.07-3.07,2.07Z"/>
        </g>
      </g>
      <g>
        <g>
          <path class="st1" d="M695.69,1080.68l14.18-80.97,50.49,12.99-9.8,65.17c-.89,5.16-5.31,8.97-10.55,9.1l-33.27,6.7c-6.98.17-12.34-6.13-11.06-12.99Z"/>
          <path d="M706.47,1096.98c-4.2,0-8.14-1.82-10.87-5.02-2.8-3.29-3.96-7.61-3.17-11.86l14.18-80.96c.16-.91.69-1.71,1.47-2.21.78-.5,1.73-.65,2.62-.42l50.49,12.99c1.64.42,2.7,2.02,2.45,3.69l-9.8,65.17c-1.16,6.67-6.77,11.6-13.43,11.9l-33,6.65c-.19.04-.38.06-.57.06-.12,0-.23,0-.35,0ZM712.51,1003.8l-13.57,77.45s0,.02,0,.04c-.43,2.28.19,4.61,1.7,6.38,1.45,1.7,3.54,2.68,5.76,2.7l32.96-6.64c.19-.04.38-.06.57-.06,3.65-.09,6.75-2.76,7.37-6.36l9.34-62.15-44.13-11.35ZM695.69,1080.68h.02-.02Z"/>
        </g>
        <path d="M751.48,916.25c-18.05,2.45-20.5,22.82-42.07,25.21-9.88,1.1-14.85-2.57-23.6,1.63-5.8,2.78-14.23,9.49-15.1,18.37-1.1,11.3,11.29,13.74,23.95,35.5,8.89,15.28,9.43,25.51,16.5,26.61,7.15,1.12,10.35-8.75,18.25-8.12,10.23.82,11.56,17.89,22.35,22.98,6.8,3.21,21.05,2.54,41.16-12.52,3.26-2.44,4.32-6.86,2.5-10.51-2.32-4.67-5.29-10.56-8.6-15.94-15.77-25.66-26.89-30-24.7-37.87,3.36-12.06,25.49-9.82,27.2-19.52,1.77-10.07-19.31-28.34-37.84-25.83Z"/>
        <g>
          <path class="st1" d="M722.18,968.66l4.8-2.5s15.57,32.49,21.66,40.81c6.09,8.32,33.3-8.58,33.3-8.58l.67-6,3.25-2.12c1.01-.66,1.67-1.74,1.79-2.93s-.31-2.39-1.16-3.23c-6.56-6.51-20.49-21.27-27.27-35.65,0,0-22.9-1.36-37.04,20.2Z"/>
          <path d="M754.42,1012.57c-3.53,0-6.54-1.02-8.45-3.64-5.14-7.02-16.41-29.88-20.48-38.26l-1.78.93c-1.33.69-2.97.4-3.98-.72-1.01-1.12-1.14-2.77-.31-4.03,15.01-22.89,38.99-21.75,40-21.69,1.21.07,2.28.8,2.8,1.89,6.65,14.12,20.82,28.98,26.6,34.71,1.57,1.56,2.35,3.72,2.12,5.92-.22,2.2-1.42,4.16-3.27,5.37l-1.94,1.27-.5,4.45c-.11,1.01-.68,1.91-1.54,2.44-5.17,3.21-19.28,11.36-29.26,11.36ZM729.75,964.37c.08.12.15.24.21.37.16.32,15.5,32.31,21.34,40.29,2.42,3.31,16.12-1.79,27.52-8.61l.49-4.39c.11-.98.65-1.87,1.48-2.41l3.25-2.12c.17-.11.28-.29.3-.5.02-.2-.05-.41-.2-.55-7.16-7.1-19.91-20.79-27-34.69-4.68.19-17.16,1.75-27.4,12.6Z"/>
        </g>
        <path class="st1" d="M732.42,992.43s-12.52-15.32-18.28-8.15c-5.77,7.17,8.44,23.69,18.28,8.15Z"/>
      </g>
      <g>
        <g>
          <g>
            <path class="st1" d="M974.58,899.49c3.83-6.05,5.76-9.9,6.44-11.67,0,0,1.41-2.1,1.36-5.09-.17-9.24-1.81-32.01,5.31-40.05,11.93-13.46,25.59-3.93,25.59-3.93,0,0,7.9-12.85,15.9-6.97,6.14,4.51,11.68,13.65,9.31,26.8-3.23,17.93-7.91,34.92-27.9,43.44-3.88,1.66-7.11,4.56-9.12,8.33l-26.88-10.86Z"/>
            <path d="M1001.46,913.66c-.52,0-1.05-.12-1.55-.39-1.61-.86-2.23-2.86-1.37-4.47,2.32-4.37,6.14-7.86,10.74-9.82,18.56-7.92,22.86-23.9,25.94-40.99,2.61-14.47-5.47-21.68-8.01-23.55-1.06-.78-2.08-1.04-3.21-.82-3.43.67-6.94,5.29-7.91,6.86-.48.78-1.25,1.32-2.14,1.51-.89.19-1.82,0-2.57-.53-1.15-.78-11.62-7.43-21.22,3.41-5.46,6.16-4.86,25.1-4.58,34.21.04,1.34.08,2.55.1,3.59.06,3.25-1.16,5.71-1.69,6.63-.59,1.46-2.28,5.11-6.62,11.96-.98,1.54-3.02,2.01-4.56,1.03-1.54-.98-2-3.02-1.03-4.56,3.55-5.61,5.5-9.41,6.15-11.09.09-.23.2-.45.34-.66,0,0,.83-1.36.8-3.18-.02-1.02-.06-2.2-.1-3.51-.36-11.47-.96-30.67,6.24-38.8,9.41-10.62,20.6-9.16,27.11-6.08,2.11-2.63,5.82-6.38,10.41-7.27,2.95-.58,5.85.11,8.4,1.98,3.32,2.44,13.89,11.81,10.6,30.05-3.27,18.18-8.28,36.7-29.85,45.9-3.22,1.37-5.88,3.8-7.49,6.84-.59,1.12-1.74,1.76-2.92,1.76Z"/>
          </g>
          <g>
            <polygon class="st1" points="1078.17 785.24 1094.54 800.7 1110.5 768.06 1078.17 785.24"/>
            <path class="st3" d="M975.91,936.37l-28.55-27.96,14.03-13.27c.77-.73,1.71-1.27,2.72-1.56l1.84-.53c2.32-.67,4.11-2.56,4.65-4.92.3-1.28.97-2.45,1.93-3.36l104.18-98.71,16.04,16.83-94.38,107.83c-.81.92-1.85,1.6-3,1.97l-.29.09c-2.22.71-3.93,2.54-4.48,4.82l-.28,1.15c-.25,1.05-.76,2.03-1.48,2.85l-12.93,14.77Z"/>
            <path d="M976.08,940.84l-33.16-32.47,16.35-15.46c1.12-1.06,2.5-1.85,3.99-2.29l1.82-.53c1.26-.37,2.23-1.39,2.53-2.67.44-1.88,1.41-3.57,2.81-4.89l104.18-98.71c1.05-1,2.23-1.85,3.51-2.54l29.87-16.07c1.46-.79,3.25-.54,4.44.62,1.19,1.16,1.5,2.93.76,4.42l-14.52,29.29c-.96,1.94-2.17,3.75-3.6,5.39l-94.38,107.83c-1.17,1.34-2.69,2.34-4.38,2.88l-.29.09c-1.2.38-2.13,1.38-2.42,2.6l-.28,1.16c-.37,1.54-1.12,2.98-2.15,4.16l-15.07,17.22ZM951.78,908.45l23.95,23.45,10.79-12.33c.39-.44.67-.98.8-1.55l.28-1.16c.8-3.3,3.3-5.99,6.53-7.02l.29-.09c.62-.2,1.18-.57,1.62-1.07l94.38-107.83c1.08-1.23,1.99-2.6,2.72-4.07l11.24-22.69-23.38,12.58c-.8.43-1.54.97-2.2,1.59l-104.18,98.71c-.52.5-.89,1.13-1.05,1.82-.8,3.44-3.41,6.2-6.8,7.18l-1.82.53c-.55.16-1.06.45-1.48.85l-11.71,11.08Z"/>
            <path d="M1092.39,804.58c-.78,0-1.56-.3-2.16-.89l-15.16-14.95c-1.21-1.19-1.22-3.14-.03-4.34,1.19-1.21,3.14-1.22,4.35-.03l15.16,14.95c1.21,1.19,1.22,3.14.03,4.35-.6.61-1.39.92-2.19.92Z"/>
            <g>
              <path class="st2" d="M924.11,931.67l20.45-20.62c1.75-1.77,4.61-1.77,6.37,0l22.03,22.09c1.75,1.75,1.75,4.58,0,6.34l-20.48,20.66c-4.33,4.37-11.29,4.45-15.54.18l-12.98-13.01c-4.25-4.26-4.19-11.26.14-15.63Z"/>
              <path d="M944.56,966.77c-3.77,0-7.3-1.46-9.95-4.12l-12.98-13.02c-5.53-5.54-5.47-14.64.13-20.29l20.45-20.62c1.47-1.49,3.44-2.31,5.53-2.31h.01c2.09,0,4.05.81,5.52,2.29l22.03,22.1c3.02,3.03,3.03,7.96.02,11l-20.48,20.66c-2.75,2.77-6.39,4.3-10.26,4.31h-.02ZM947.75,913.03c-.09.02-.54.04-.84.35l-20.45,20.62c-3.05,3.07-3.11,7.99-.15,10.96l12.98,13.01c1.4,1.4,3.27,2.17,5.27,2.17h.01c2.09,0,4.07-.84,5.57-2.35l20.48-20.66c.46-.46.46-1.21,0-1.67l-22.03-22.1c-.3-.3-.66-.35-.84-.35Z"/>
            </g>
          </g>
          <path class="st1" d="M981.02,887.81s10.04-19.99,19.46-30.64c7.34-8.29,19.01-39.75,32.39-22.27,2.88,3.76,4.91,6.1,6.16,11.85.68,3.15,1.27,10.87.6,14.56-3.23,17.95-9.08,32.21-29.12,40.73-3.86,1.64-7.06,4.56-9.06,8.3-1.16,2.18-20.73-21.78-20.45-22.53Z"/>
          <path class="st1" d="M962.54,929.58c7.48-17.91,20.28-42.93,18.48-41.77,0,0,5.5-19.26,19.46-30.64,8.56-6.97,19.01-39.75,32.39-22.27,2.88,3.76,4.91,6.1,6.16,11.85.68,3.15,1.27,10.87.6,14.56-3.23,17.95-9.08,32.21-29.12,40.73-3.86,1.64-7.06,4.56-9.06,8.3-1.28,2.4-3.07,13.72-3.87,18.69l-35.06.55Z"/>
          <g>
            <path class="st1" d="M981.02,887.81s5.5-19.26,19.46-30.64c8.56-6.97,19.01-39.75,32.39-22.27,2.88,3.76,4.91,6.1,6.16,11.85.68,3.15,1.27,10.87.6,14.56-3.23,17.95-9.08,32.21-29.12,40.73-3.86,1.64-34.12,166.8-84.33,193.78-37.1,19.93-59.53-68.64-56.07-66.79.62.33,42.5-27.91,61.45-48.73,25.39-27.9,49.45-92.49,49.45-92.49Z"/>
            <path d="M915.35,1102.05c-7.25,0-15.67-3.43-24.38-14.03-14.67-17.85-27.48-56.37-23.63-61.06l1.73-2.1.97.47c7.42-4.54,42.57-29.11,59.08-47.25,24.18-26.57,47.62-88.3,48.75-91.31.57-1.94,6.38-20.65,20.51-32.16,2.09-1.7,4.75-5.95,7.33-10.06,5.44-8.68,11.06-17.65,18.79-18.01,3.9-.18,7.62,1.95,10.99,6.35l.57.74c2.62,3.4,4.87,6.33,6.2,12.42.76,3.49,1.39,11.58.63,15.85-3.45,19.16-9.92,33.8-30.06,42.74-.99,2.59-3.14,10.98-5.41,19.81-12.73,49.51-39.21,152.55-79.67,174.28-3.48,1.87-7.7,3.32-12.4,3.32ZM873.17,1031.1c1.16,8.87,13.19,49.11,31.97,61.08,6.42,4.09,12.8,4.33,19.49.73,37.9-20.36,64.87-125.29,76.39-170.1,5.64-21.96,5.95-22.85,8.21-23.81,18.27-7.77,23.94-20.4,27.16-38.27.57-3.14.05-10.39-.58-13.27-1.01-4.63-2.5-6.57-4.97-9.79l-.58-.76c-1.97-2.58-3.77-3.84-5.43-3.77-4.27.2-9.6,8.71-13.49,14.92-3,4.78-5.82,9.29-8.76,11.68-13.01,10.59-18.32,28.8-18.37,28.98l-.08.25c-.99,2.66-24.57,65.52-50.1,93.57-10.2,11.2-26.33,23.98-38.07,32.72-12.91,9.61-19.34,13.99-22.78,15.85ZM871.56,1031.88l.02.03c.07-.04.14-.08.2-.12-.07.03-.15.06-.22.09ZM871.41,1025.99l.27.13c-.09-.05-.18-.09-.27-.13Z"/>
          </g>
        </g>
        <g>
          <path class="st1" d="M504.66,1441.88c-1.18,2.81.77,8.58.48,10.94-1.32,10.77-15.22,19.73-25,26.97-7.77,5.76-12.71,14.73-13.35,24.49-.15,2.3-.19,4.81-.23,7.52-.08,6.2-2.24,9.36-5,10.86-5.41,2.94-11.95-1.3-12.22-7.53-.6-13.63-1.23-41.83,3.15-51.48,2.88-6.35,11.37-14.36,19.26-20.87,7.76-6.4,12.42-15.87,13.01-26,2.04-35.05,38.16-128.44,65.26-198.84l79.25,19.39s-47.59,51.15-71.59,103.44c-14.48,31.55-36.56,61.97-53.04,101.12Z"/>
          <path d="M457.86,1526.91c-1.92,0-3.85-.5-5.61-1.49-3.64-2.06-6.02-5.95-6.2-10.14-.68-15.46-1.13-42.91,3.44-52.99,2.6-5.75,9.39-13.17,20.17-22.05,6.97-5.74,11.27-14.36,11.81-23.64,2.04-35.04,36.54-124.66,64.26-196.68l1.22-3.16c.6-1.55,2.26-2.42,3.87-2.02l79.25,19.39c1.14.28,2.05,1.14,2.38,2.26.34,1.12.05,2.34-.75,3.2-.47.51-47.52,51.38-71.01,102.56-6.39,13.93-14.17,27.49-22.39,41.84-10.53,18.36-21.41,37.34-30.6,59.18-.36.85.09,3.68.33,5.2.3,1.87.55,3.48.38,4.86-1.35,11.07-13.44,19.85-23.15,26.91-1.09.79-2.15,1.56-3.16,2.31-7.06,5.23-11.44,13.27-12.02,22.05-.15,2.25-.19,4.76-.22,7.34-.1,8.37-3.72,12.08-6.73,13.72-1.65.9-3.47,1.35-5.29,1.35ZM552.07,1221.84l-.17.45c-26.1,67.81-61.85,160.67-63.83,194.69-.65,11.11-5.83,21.45-14.21,28.36-9.85,8.12-16.2,14.93-18.35,19.68-2.88,6.36-3.95,25.04-2.86,49.97.09,1.94,1.18,3.73,2.85,4.68.85.48,2.57,1.14,4.48.09,2.12-1.15,3.22-3.84,3.27-7.99.03-2.68.08-5.28.23-7.69.7-10.73,6.05-20.54,14.68-26.93,1.03-.76,2.11-1.55,3.21-2.35,8.67-6.3,19.46-14.15,20.47-22.36.06-.47-.19-2.01-.35-3.02-.46-2.91-.98-6.22.1-8.8,9.35-22.21,20.33-41.37,30.96-59.9,8.15-14.22,15.85-27.65,22.12-41.31,20.02-43.62,56.68-86.85,68.44-100.16l-71.06-17.39Z"/>
        </g>
        <g>
          <path class="st3" d="M875.06,1015.1c-23.09,18.38-62.01,40.5-99,49.48-76.04,18.46-111.5,19.32-150.13,39.15-60.33,30.97-88.49,109.64-97.34,140.52-1.8,6.28.69,13.01,6.11,16.55l53.44,30.54c2.21,1.44,5.08,1.06,6.9-.85,11.34-11.87,27.14-45.15,27.22-40.6.8,44.19-16.22,138.18-18.59,171.7-.47,6.66,3.28,12.88,9.33,15.48,50.51,21.75,147.41,26.74,199.35,39.31,4.45,1.08,8.82-1.46,8.81-6.1l1.69-52.38c6.2-9.32,19.53,34.66,25.66,49.77,1.18,2.9,4.19,4.6,7.28,4.07l8.89-1.51c3.84-.65,6.3-4.46,5.31-8.23-10.07-38.3-41.62-273.63-17.79-290.75,41.75-29.99,64.65-47.14,76.97-56.64,8.61-6.65,12.79-17.54,10.8-28.23-6.33-33.99-24.63-103.33-64.91-71.27Z"/>
          <path d="M814.36,1479.92c-.92,0-1.86-.11-2.79-.33-19.27-4.66-44.92-8.29-72.07-12.14-44.9-6.36-95.79-13.56-127.82-27.35-7.34-3.16-11.89-10.7-11.32-18.75.87-12.32,3.66-32.37,6.88-55.59,4.81-34.7,10.67-76.91,11.6-105.44-.4.69-.81,1.39-1.21,2.08-5.73,9.89-13.58,23.43-20.21,30.38-2.92,3.06-7.59,3.62-11.1,1.33l-53.27-30.43c-6.85-4.48-9.86-12.61-7.65-20.34,9.26-32.34,37.45-110.95,99.01-142.55,25.89-13.29,49.68-18.05,85.71-25.27,18.43-3.69,39.33-7.88,65.15-14.15,38.59-9.37,76.76-32.17,97.72-48.85h0c10.6-8.44,20.73-10.95,30.11-7.45,22.28,8.31,34.11,48.47,40.12,80.7,2.23,11.95-2.38,24.01-12.03,31.46-11.6,8.96-34.38,26.06-77.06,56.71-3.31,2.38-13.27,19.1-2.45,134.43,6.41,68.34,16.85,135.05,21.51,152.79.71,2.69.25,5.58-1.26,7.91-1.51,2.34-3.95,3.95-6.7,4.42l-8.89,1.51c-4.64.79-9.12-1.72-10.89-6.09-1.31-3.22-2.88-7.6-4.71-12.66-3.52-9.76-10.37-28.75-14.69-34.7l-1.58,48.84c0,2.9-1.25,5.55-3.54,7.36-1.81,1.43-4.14,2.18-6.57,2.18ZM621.75,1246.09c.37,0,.76.07,1.19.18,1.19.31,2.6,1.43,2.64,3.56.51,28.35-6.3,77.41-11.77,116.84-3.2,23.1-5.97,43.05-6.83,55.15-.37,5.25,2.58,10.16,7.34,12.21,31.21,13.44,81.64,20.58,126.13,26.87,27.31,3.87,53.11,7.52,72.69,12.26,1.4.34,2.79.11,3.7-.61.68-.54,1.02-1.3,1.02-2.26l1.69-52.5c.02-.61.21-1.21.55-1.72,1.87-2.81,4.33-2.84,5.31-2.72,6.19.75,11.42,12.6,21.55,40.66,1.8,5,3.36,9.31,4.62,12.42.6,1.47,2.09,2.32,3.66,2.06l8.89-1.51c.93-.16,1.73-.68,2.25-1.48.51-.79.66-1.73.42-2.65-5.34-20.3-15.75-90.41-21.7-153.85-7.97-84.98-6.23-132.23,5.18-140.42,42.6-30.59,65.32-47.65,76.87-56.57,7.67-5.93,11.34-15.51,9.57-25.01-7.93-42.56-21.02-70.15-35.93-75.72-7.14-2.67-14.89-.56-23.67,6.43-21.49,17.1-60.64,40.49-100.28,50.1-25.96,6.3-46.92,10.5-65.41,14.21-35.48,7.11-58.92,11.81-83.98,24.67-60.92,31.27-88.63,113.9-95.67,138.49-1.39,4.85.56,10.14,4.74,12.88l53.27,30.43c1.02.66,2.13.51,2.87-.26,6.09-6.38,13.71-19.53,19.27-29.13,6.02-10.4,7.52-12.98,9.82-12.98Z"/>
        </g>
      </g>
    </g>
    <g>
      <path class="st1" d="M2116.36,1530.78c-.23,0-.45-.02-.68-.07-1.79-.38-2.93-2.13-2.56-3.92,22.03-104.77,5.11-204.08-12.95-268.94-19.61-70.39-44.77-116.54-45.02-117-.88-1.6-.3-3.61,1.3-4.49,1.6-.88,3.61-.3,4.49,1.3.26.46,25.73,47.16,45.55,118.23,18.3,65.62,35.42,166.11,13.1,272.26-.33,1.56-1.7,2.63-3.23,2.63Z"/>
      <path class="st1" d="M2098.2,1455.42s-.08,0-.12,0c-1.82-.06-3.25-1.6-3.19-3.42,3.4-95.98-19.85-181.45-39.94-236.24-.63-1.72.25-3.62,1.97-4.24,1.71-.63,3.62.25,4.24,1.97,20.3,55.35,43.78,141.7,40.34,238.75-.06,1.79-1.53,3.19-3.3,3.19Z"/>
    </g>
  </g>
</svg>