<?xml version="1.0" encoding="UTF-8"?>
<svg id="Illustration" xmlns="http://www.w3.org/2000/svg" viewBox="0 0 1129.68 1132.19">
  <defs>
    <style>
      .cls-1 {
        fill: #caddff;
      }

      .cls-2 {
        fill: #fff;
      }

      .cls-3 {
        fill: #99b9ff;
      }

      .cls-4 {
        fill: #5479f7;
      }
    </style>
  </defs>
  <g id="Innovative_solution" data-name="Innovative solution">
    <path class="cls-1" d="M49.43,353.42C24.98,407.6-11.2,511.34,3.34,640.37c18.66,165.54,111.04,296.06,200.91,369.4,298.19,243.36,844.07,86.14,916.36-143.1,13.11-41.59,9.43-81.7,4.89-131.06-14.43-156.98-90.44-203.64-141.56-370.32-46.52-151.69-.66-168.76-44.16-236.2C845.41-17.2,573.01-24.57,385.58,45.56c-71.99,26.94-246.69,109.57-336.15,307.86Z"/>
    <g>
      <g>
        <path class="cls-4" d="M1041.57,1128.93l-731.85-2.33c-13.85,0-24.83-11.7-23.94-25.52l58.03-938.25c.81-12.63,11.29-22.47,23.94-22.47l735.55-2.18c13.85,0,26.8,13.96,25.92,27.79l-59.86,938.16c-.81,12.63-15.13,24.8-27.78,24.8Z"/>
        <path class="cls-3" d="M1024.56,1126.6H288.86c-13.85,0-24.83-11.7-23.94-25.52l59.96-940.6c.81-12.63,11.29-22.47,23.94-22.47h735.69c13.85,0,24.83,11.7,23.94,25.52l-59.96,940.6c-.81,12.63-11.29,22.47-23.94,22.47Z"/>
        <g>
          <path d="M316.34,296.4s-.09,0-.13,0c-1.12-.07-1.98-1.04-1.91-2.17l8.53-133.87c.87-13.67,12.28-24.38,25.98-24.38h277.73c1.13,0,2.04.91,2.04,2.04s-.91,2.04-2.04,2.04h-277.73c-11.55,0-21.17,9.03-21.91,20.56l-8.53,133.87c-.07,1.08-.97,1.91-2.04,1.91Z"/>
          <path d="M1024.56,1128.64H288.86c-7.27,0-14.01-2.92-18.99-8.22-4.98-5.3-7.46-12.22-7-19.47l10.68-167.61c.07-1.13,1.01-1.98,2.17-1.91,1.12.07,1.98,1.04,1.91,2.17l-10.68,167.61c-.39,6.12,1.71,11.95,5.9,16.42,4.19,4.47,9.88,6.93,16.01,6.93h735.69c11.55,0,21.17-9.03,21.91-20.56l59.96-940.6c.39-6.12-1.71-11.95-5.9-16.42-4.19-4.47-9.88-6.93-16.01-6.93h-18.09c-1.13,0-2.04-.91-2.04-2.04s.91-2.04,2.04-2.04h18.09c7.27,0,14.01,2.92,18.99,8.22,4.98,5.3,7.46,12.22,7,19.47l-59.96,940.6c-.87,13.67-12.28,24.38-25.98,24.38Z"/>
        </g>
        <path class="cls-2" d="M1008.65,1103.33H307.59c-13.2,0-23.66-11.15-22.82-24.32l57.14-896.31c.77-12.04,10.75-21.41,22.82-21.41h701.05c13.2,0,23.66,11.15,22.82,24.32l-57.14,896.31c-.77,12.04-10.75,21.41-22.82,21.41Z"/>
      </g>
      <g>
        <path class="cls-3" d="M573.49,235.2h-174.26c-4.13,0-7.49-3.35-7.49-7.49s3.35-7.49,7.49-7.49h174.26c4.13,0,7.49,3.35,7.49,7.49s-3.35,7.49-7.49,7.49Z"/>
        <path class="cls-3" d="M604.09,289.08h-210.18c-4.13,0-7.49-3.35-7.49-7.49s3.35-7.49,7.49-7.49h210.18c4.13,0,7.49,3.35,7.49,7.49s-3.35,7.49-7.49,7.49Z"/>
        <path class="cls-3" d="M530.92,985.47h-174.26c-4.13,0-7.49-3.35-7.49-7.49s3.35-7.49,7.49-7.49h174.26c4.13,0,7.49,3.35,7.49,7.49s-3.35,7.49-7.49,7.49Z"/>
        <path class="cls-3" d="M561.52,1039.35h-210.18c-4.13,0-7.49-3.35-7.49-7.49s3.35-7.49,7.49-7.49h210.18c4.13,0,7.49,3.35,7.49,7.49s-3.35,7.49-7.49,7.49Z"/>
        <path class="cls-3" d="M622.71,342.96h-54.69c-4.13,0-7.49-3.35-7.49-7.49s3.35-7.49,7.49-7.49h54.69c4.13,0,7.49,3.35,7.49,7.49s-3.35,7.49-7.49,7.49Z"/>
        <path class="cls-3" d="M515.4,342.96h-66.81c-4.13,0-7.49-3.35-7.49-7.49s3.35-7.49,7.49-7.49h66.81c4.13,0,7.49,3.35,7.49,7.49s-3.35,7.49-7.49,7.49Z"/>
      </g>
    </g>
    <path class="cls-3" d="M969.29,864.67l-18.8-7.84c-3.03-1.27-5.1-4.14-5.23-7.4-.14-3.44-.42-6.86-.85-10.25-.41-3.23,1.15-6.39,3.91-8.15l17.19-10.89c3.38-2.14,4.82-6.32,3.46-10.06l-5.54-15.23c-1.36-3.74-5.16-6.04-9.14-5.55l-20.28,2.53c-3.28.41-6.51-1.08-8.28-3.84-1.84-2.85-3.79-5.63-5.85-8.33-2-2.61-2.28-6.13-.76-9.03l9.43-17.98c1.85-3.53.99-7.86-2.08-10.42l-12.48-10.43c-3.07-2.56-7.52-2.68-10.72-.27l-16.26,12.21c-2.63,1.98-6.18,2.29-9.11.79-3.02-1.55-6.13-2.99-9.3-4.3-3.05-1.26-5.09-4.17-5.23-7.45l-.9-20.21c-.18-3.97-3.11-7.29-7.06-7.99l-16.08-2.84c-3.95-.7-7.87,1.41-9.43,5.08l-7.94,18.64c-1.28,3.01-4.18,5.06-7.47,5.2-3.48.14-6.93.43-10.34.86-3.26.41-6.45-1.13-8.22-3.87l-10.96-17.02c-2.16-3.35-6.37-4.77-10.15-3.42l-15.37,5.51c-3.78,1.35-6.11,5.12-5.61,9.07l2.53,20.09c.41,3.23-1.07,6.44-3.84,8.19-2.91,1.84-5.75,3.8-8.5,5.87-2.62,1.97-6.16,2.23-9.08.73l-18.13-9.32c-3.56-1.83-7.93-.97-10.52,2.07l-10.54,12.38c-2.59,3.04-2.71,7.46-.29,10.62l12.3,16.1c1.99,2.61,2.3,6.12.78,9.02-1.57,3-3.02,6.08-4.35,9.23-1.28,3.03-4.22,5.05-7.52,5.2l-20.39.92c-4.01.18-7.36,3.09-8.07,7.01l-2.89,15.94c-.71,3.92,1.41,7.79,5.11,9.34l18.8,7.84c3.03,1.27,5.1,4.14,5.23,7.4.14,3.44.42,6.86.85,10.25.41,3.23-1.15,6.39-3.91,8.15l-17.19,10.89c-3.38,2.14-4.82,6.32-3.46,10.06l5.54,15.23c1.36,3.74,5.16,6.04,9.14,5.55l20.27-2.53c3.26-.41,6.5,1.05,8.26,3.79,1.85,2.88,3.82,5.69,5.91,8.42,1.99,2.59,2.24,6.11.72,9l-9.43,17.98c-1.85,3.53-.99,7.86,2.08,10.42l12.48,10.43c3.07,2.56,7.52,2.68,10.72.27l16.26-12.21c2.63-1.98,6.18-2.29,9.11-.79,3.02,1.55,6.13,2.99,9.3,4.3,3.05,1.26,5.09,4.17,5.23,7.45l.9,20.21c.18,3.97,3.11,7.29,7.06,7.99l16.08,2.84c3.95.7,7.87-1.41,9.43-5.08l7.94-18.64c1.28-3.01,4.18-5.06,7.47-5.2,3.48-.15,6.92-.43,10.34-.86,3.26-.41,6.45,1.13,8.22,3.87l10.96,17.02c2.16,3.35,6.37,4.77,10.15,3.42l15.37-5.51c3.78-1.35,6.11-5.12,5.61-9.07l-2.53-20.09c-.41-3.25,1.1-6.45,3.88-8.21,2.88-1.82,5.69-3.76,8.41-5.81,2.63-1.98,6.19-2.27,9.12-.76l18.13,9.32c3.56,1.83,7.93.97,10.52-2.07l10.54-12.39c2.59-3.04,2.71-7.46.29-10.62l-12.3-16.1c-1.99-2.61-2.3-6.12-.78-9.02,1.57-3,3.02-6.08,4.35-9.23,1.28-3.03,4.22-5.05,7.52-5.2l20.39-.92c4.01-.18,7.36-3.09,8.07-7.01l2.89-15.94c.71-3.92-1.41-7.79-5.11-9.34ZM824.41,911.58c-31.57,2.54-59.2-20.77-61.71-52.06-2.51-31.29,21.04-58.7,52.61-61.24,31.57-2.54,59.2,20.77,61.71,52.06,2.51,31.29-21.04,58.7-52.61,61.24Z"/>
    <g>
      <g>
        <g>
          <path class="cls-3" d="M915.7,548.09c-2.13-3.1-2.13-7.09,0-10.18,2.94-4.27,4.54-8.88,4.54-13.68,0-22.33-34.59-40.43-77.26-40.43s-77.26,18.1-77.26,40.43c0,4.8,1.6,9.41,4.54,13.68,2.13,3.1,2.13,7.09,0,10.18-2.94,4.27-4.54,8.88-4.54,13.68,0,10.59,7.79,20.23,20.53,27.44-.28,1.2-.44,2.43-.44,3.67,0,16.53,25.6,29.92,57.18,29.92s57.18-13.4,57.18-29.92c0-1.24-.16-2.46-.44-3.67,12.74-7.21,20.53-16.85,20.53-27.44,0-4.8-1.6-9.41-4.54-13.68Z"/>
          <path d="M842.98,624.85c-33.21,0-59.22-14.04-59.22-31.96,0-.86.07-1.74.2-2.63-13.1-7.77-20.29-17.85-20.29-28.48,0-5.12,1.65-10.11,4.9-14.84,1.64-2.39,1.64-5.48,0-7.87-3.25-4.73-4.9-9.72-4.9-14.84,0-23.42,35.58-42.47,79.31-42.47s79.31,19.05,79.31,42.47c0,5.12-1.65,10.11-4.9,14.84-1.64,2.39-1.64,5.48,0,7.87h0c3.25,4.73,4.9,9.72,4.9,14.84,0,10.63-7.19,20.71-20.29,28.48.14.89.2,1.77.2,2.63,0,17.92-26.01,31.96-59.22,31.96ZM842.98,485.83c-41.48,0-75.22,17.22-75.22,38.39,0,4.28,1.41,8.49,4.18,12.53,2.61,3.8,2.61,8.7,0,12.5-2.78,4.04-4.18,8.25-4.18,12.53,0,9.44,6.92,18.55,19.49,25.67l1.33.75-.35,1.49c-.26,1.12-.39,2.16-.39,3.2,0,15.37,24.73,27.88,55.13,27.88s55.14-12.51,55.14-27.88c0-1.04-.13-2.09-.39-3.2l-.35-1.49,1.33-.75c12.57-7.11,19.49-16.23,19.49-25.67,0-4.28-1.41-8.49-4.18-12.53-2.61-3.8-2.61-8.7,0-12.5,2.78-4.04,4.18-8.25,4.18-12.53,0-21.17-33.74-38.39-75.22-38.39Z"/>
        </g>
        <g>
          <path class="cls-2" d="M856.18,547.89c-.98,0-1.84-.7-2.01-1.7-.19-1.11.56-2.17,1.67-2.36,7.08-1.21,13.98-2.76,20.5-4.6,1.08-.31,2.21.33,2.52,1.41.31,1.09-.32,2.21-1.41,2.52-6.66,1.88-13.7,3.46-20.92,4.7-.12.02-.23.03-.35.03Z"/>
          <path class="cls-2" d="M823.61,587.62c-1.12,0-2.03-.9-2.04-2.02,0-1.13.9-2.05,2.02-2.06,16.09-.14,39.7-2.38,60.85-12.27,1.02-.48,2.24-.04,2.71.98.48,1.02.04,2.24-.98,2.71-21.81,10.2-46.05,12.51-62.55,12.66h-.02Z"/>
        </g>
        <path class="cls-2" d="M1052.69,214.24c0-114.51-95.31-212.19-209.82-212.19-114.29,0-208.57,95.04-209.33,209.33-.39,58.2,27.69,112.33,65.96,150.21,27.61,27.33,47.74,61.29,57.51,98.89l.47,1.82c9.49,36.49,42.43,61.96,80.13,61.96h15.46c37.7,0,70.65-25.47,80.13-61.96l.29-1.1c9.71-37.33,29.02-71.62,56.63-98.55,38.59-37.65,62.56-90.22,62.56-148.4Z"/>
        <path d="M853.08,526.29h-15.46c-38.63,0-72.39-26.11-82.11-63.49l-.47-1.82c-9.52-36.61-29.22-70.48-56.97-97.95-42.67-42.23-66.93-97.51-66.57-151.68.26-38.5,11.15-76.34,31.51-109.43.59-.96,1.85-1.26,2.81-.67.96.59,1.26,1.85.67,2.81-19.97,32.45-30.65,69.56-30.9,107.32-.35,53.08,23.47,107.29,65.36,148.75,28.27,27.98,48.35,62.5,58.05,99.82l.47,1.82c9.25,35.58,41.39,60.43,78.16,60.43h15.46c36.77,0,68.91-24.85,78.16-60.44l.29-1.1c9.96-38.32,29.73-72.72,57.18-99.5,39.94-38.97,61.94-91.15,61.94-146.94,0-113.91-95.15-210.15-207.77-210.15-53.59,0-104.65,21.02-143.76,59.2-.81.79-2.1.77-2.89-.04-.79-.81-.77-2.1.03-2.89C736.14,21.44,788.21,0,842.87,0c0,0,0,0,0,0,114.84,0,211.86,98.11,211.86,214.24,0,56.89-22.43,110.12-63.17,149.86-26.91,26.26-46.31,60.01-56.08,97.61l-.29,1.1c-9.72,37.38-43.48,63.49-82.11,63.49Z"/>
      </g>
      <g>
        <g>
          <path d="M931.51,343.22c-7.14,0-12.54-1.77-12.67-1.81-1.07-.36-1.64-1.52-1.28-2.59.36-1.07,1.52-1.64,2.59-1.28,1.19.4,29.24,9.48,39.16-18.57,5.99-16.93-4.99-33.46-15.49-37.87-1.04-.44-1.53-1.63-1.09-2.67.43-1.04,1.63-1.53,2.67-1.09,11.99,5.03,24.54,23.81,17.76,42.99-6.73,19.02-21.08,22.88-31.64,22.88Z"/>
          <path d="M962.77,304.9c-.94,0-1.78-.65-1.99-1.6-.24-1.1.45-2.19,1.56-2.43,7.46-1.64,24.92-7.73,25.81-28.91.69-16.32-12-23.41-22.76-26.49-1.08-.31-1.71-1.44-1.4-2.52.31-1.08,1.44-1.71,2.52-1.4,9.97,2.85,26.57,10.61,25.72,30.59-1.02,24.01-20.63,30.89-29.02,32.73-.15.03-.29.05-.44.05Z"/>
          <path d="M986.45,259.04c-.64,0-1.27-.3-1.67-.86-.65-.92-.44-2.19.48-2.85,2.34-1.66,22.48-16.93,8.67-41.21-.56-.98-.22-2.23.77-2.78.97-.56,2.22-.22,2.78.77,15.58,27.4-7.21,44.68-9.86,46.56-.36.25-.77.38-1.18.38Z"/>
          <path d="M969.58,229.18c-1.12,0-2.03-.91-2.04-2.03,0-1.13.9-2.05,2.03-2.05.2,0,12.48-.23,20.42-8.51,4.85-5.06,7.16-12.13,6.87-21.01-.27-8.36-3.02-15.01-8.17-19.77-5.6-5.18-14.12-7.91-23.37-7.49-1.13.05-2.08-.82-2.13-1.95-.05-1.13.82-2.08,1.95-2.13,10.34-.47,19.94,2.65,26.33,8.57,5.98,5.53,9.16,13.14,9.47,22.63.33,10.05-2.37,18.12-8.03,24-9.19,9.55-22.74,9.73-23.31,9.74h-.01Z"/>
          <path d="M986.89,173.39c-.29,0-.59-.06-.87-.2-1.02-.48-1.45-1.7-.97-2.72,4.43-9.34,9.47-26.8-6.62-38.78-14.32-10.66-31.89-2.86-39.8,6.08-.75.84-2.04.92-2.88.18-.85-.75-.93-2.04-.18-2.88,8.93-10.11,28.89-18.86,45.29-6.65,19.11,14.22,11.87,35.37,7.87,43.8-.35.74-1.08,1.17-1.85,1.17Z"/>
          <path d="M963.39,126.17s-.05,0-.07,0c-1.13-.04-2.01-.98-1.97-2.11.2-5.79-.2-34.74-27.46-36.47-27.79-1.76-33.92,24.42-34.17,25.54-.24,1.1-1.33,1.8-2.43,1.55-1.1-.24-1.8-1.33-1.56-2.43.07-.31,7.02-30.72,38.41-28.74,31.69,2,31.42,36.73,31.28,40.68-.04,1.1-.94,1.97-2.04,1.97Z"/>
          <path d="M883.76,370.39c-6.86,0-13.02-1.72-18.41-5.14-8.88-5.64-14.4-15.95-14.4-26.9V88.15c0-12.44,6.51-23.8,16.98-29.65,6.91-3.86,15.07-4.94,24.24-3.22,21.99,4.12,28.09,26.83,29.09,31.34.24,1.1-.45,2.19-1.55,2.43-1.11.24-2.19-.45-2.44-1.55-.9-4.07-6.39-24.56-25.86-28.21-8.21-1.54-15.45-.61-21.5,2.77-9.18,5.13-14.89,15.12-14.89,26.08v250.2c0,9.56,4.79,18.55,12.51,23.45,6.74,4.28,14.97,5.52,24.45,3.67,12.37-2.41,21.14-10.49,24.08-22.16,3.1-12.32-1.19-25.81-10.67-33.57-.87-.71-1-2-.29-2.87.72-.87,2-1,2.87-.29,10.68,8.74,15.52,23.9,12.04,37.73-3.34,13.27-13.27,22.44-27.26,25.17-3.12.61-6.13.91-9.01.91Z"/>
          <path d="M852.98,197.31h-.01c-1.13,0-2.04-.92-2.03-2.05.09-18.47,9.69-30.98,24.46-31.88,16-.98,23.66,8.07,23.98,8.46.72.87.59,2.16-.28,2.87-.87.71-2.15.59-2.87-.27h0c-.27-.32-6.75-7.83-20.58-6.98-12.64.77-20.54,11.43-20.62,27.82,0,1.12-.92,2.03-2.04,2.03Z"/>
          <path d="M909.32,260.34c-6,0-13.35-1.82-19.63-7.86-11.33-10.9-3.8-31.84-3.48-32.73.39-1.06,1.55-1.6,2.62-1.21,1.06.39,1.6,1.56,1.21,2.62-.07.19-6.93,19.33,2.48,28.38,10.49,10.1,23.32,5.84,23.86,5.65,1.06-.37,2.23.2,2.6,1.26.37,1.07-.2,2.23-1.26,2.6-2.08.72-5.02,1.29-8.39,1.29Z"/>
          <path d="M914.87,287.82c-.88,0-1.69-.57-1.95-1.46-1.48-4.93-5.52-21.83,4.59-32.32,10.37-10.76,26.93-7.04,27.62-6.88,1.1.26,1.78,1.35,1.52,2.45-.26,1.1-1.35,1.78-2.45,1.52-.22-.05-15.03-3.31-23.76,5.74-8.57,8.89-4.94,23.91-3.62,28.31.32,1.08-.29,2.22-1.37,2.54-.2.06-.39.09-.59.09Z"/>
          <path d="M971.4,198.32c-9.3,0-21.57-1.85-27.82-10.57-10.57-14.76-1.03-33.56-.62-34.35.52-1,1.75-1.39,2.75-.87,1,.52,1.39,1.75.87,2.75-.09.17-8.79,17.39.31,30.09,5.3,7.39,16.42,8.9,24.76,8.87h0c1.12,0,2.04.91,2.04,2.03,0,1.13-.91,2.05-2.03,2.05-.09,0-.18,0-.27,0Z"/>
          <path d="M916.26,229.17c-.81,0-1.58-.49-1.9-1.29-.26-.67-6.34-16.56,2.71-30.49,7.55-11.64,23.68-11.1,30.27-10.33,1.12.13,1.92,1.15,1.79,2.27-.13,1.12-1.15,1.92-2.27,1.79-4.55-.53-19.88-1.49-26.37,8.5-7.88,12.14-2.39,26.63-2.33,26.78.41,1.05-.11,2.23-1.16,2.64-.24.1-.5.14-.74.14Z"/>
          <path d="M899.91,143.68c-4.41,0-9.11-1.05-13.56-4.04-14.49-9.74-12.81-27.32-12.73-28.06.12-1.12,1.14-1.93,2.24-1.82,1.12.12,1.93,1.12,1.82,2.24h0c-.02.16-1.47,15.9,10.95,24.25,12.3,8.27,27.94-1.65,28.1-1.75.95-.61,2.21-.34,2.82.6.61.95.34,2.21-.6,2.82-.51.33-9.01,5.75-19.04,5.75Z"/>
        </g>
        <g>
          <path d="M741.36,147.69c-.26,0-.53-.05-.79-.16-11.99-5.03-24.54-23.82-17.76-42.99,11.28-31.88,43.99-21.18,44.32-21.07,1.07.36,1.64,1.52,1.28,2.59-.36,1.07-1.52,1.64-2.59,1.28-1.19-.4-29.24-9.48-39.16,18.57-5.99,16.92,4.99,33.46,15.49,37.87,1.04.44,1.53,1.63,1.09,2.67-.33.78-1.08,1.25-1.88,1.25Z"/>
          <path d="M720,183.42c-.19,0-.37-.03-.56-.08-9.97-2.85-26.57-10.61-25.72-30.59,1.02-24.02,20.63-30.89,29.02-32.73,1.1-.24,2.19.46,2.43,1.56.24,1.1-.45,2.19-1.56,2.43-7.46,1.64-24.92,7.73-25.81,28.91-.69,16.32,12,23.41,22.76,26.49,1.08.31,1.71,1.44,1.4,2.52-.26.9-1.07,1.48-1.96,1.48Z"/>
          <path d="M690.24,213.8c-.71,0-1.4-.37-1.78-1.03-15.58-27.4,7.21-44.68,9.86-46.56.92-.65,2.19-.44,2.85.48.65.92.44,2.19-.48,2.85-2.34,1.66-22.48,16.93-8.67,41.21.56.98.22,2.23-.77,2.78-.32.18-.66.27-1.01.27Z"/>
          <path d="M718.79,260.68c-9.56,0-18.33-3.09-24.3-8.61-5.98-5.53-9.16-13.14-9.47-22.63-.33-10.05,2.37-18.12,8.03-24,9.19-9.55,22.74-9.73,23.31-9.74h.01c1.12,0,2.04.91,2.04,2.03,0,1.13-.9,2.05-2.03,2.05-.2,0-12.48.23-20.42,8.51-4.85,5.06-7.16,12.13-6.87,21.01.27,8.36,3.02,15.01,8.17,19.77,5.6,5.18,14.13,7.9,23.37,7.48,1.17-.05,2.08.82,2.13,1.95.05,1.13-.82,2.08-1.95,2.13-.68.03-1.36.05-2.03.05Z"/>
          <path d="M722.89,302.41c-5.95,0-12.09-1.71-17.79-5.96-19.11-14.22-11.87-35.37-7.87-43.8.48-1.02,1.71-1.45,2.72-.97,1.02.48,1.45,1.7.97,2.72-4.43,9.34-9.47,26.8,6.62,38.78,14.32,10.66,31.89,2.86,39.8-6.08.75-.84,2.04-.93,2.88-.18.85.75.93,2.04.18,2.88-5.83,6.59-16.34,12.61-27.5,12.61Z"/>
          <path d="M754.7,341.45c-.94,0-1.9-.03-2.89-.09-31.69-2-31.42-36.73-31.28-40.68.04-1.1.94-1.97,2.04-1.97.02,0,.05,0,.07,0,1.13.04,2.01.98,1.97,2.11-.2,5.79.2,34.74,27.46,36.47,27.83,1.77,33.92-24.42,34.16-25.54.24-1.1,1.33-1.8,2.43-1.55,1.1.24,1.8,1.33,1.56,2.43-.07.3-6.65,28.83-35.52,28.83Z"/>
          <path d="M801.95,370.39c-2.62,0-5.34-.26-8.17-.79-21.99-4.12-28.09-26.83-29.09-31.34-.24-1.1.45-2.19,1.55-2.44,1.1-.24,2.19.45,2.44,1.55.9,4.07,6.39,24.56,25.86,28.21,8.21,1.54,15.45.61,21.5-2.77,9.18-5.13,14.89-15.12,14.89-26.09V86.52c0-9.56-4.79-18.55-12.51-23.45-6.74-4.28-14.97-5.52-24.45-3.67-12.37,2.41-21.14,10.49-24.08,22.16-3.1,12.32,1.19,25.81,10.67,33.57.87.71,1,2,.29,2.87-.72.87-2,1-2.87.29-10.68-8.74-15.52-23.9-12.04-37.73,3.34-13.27,13.27-22.44,27.26-25.17,10.54-2.06,19.77-.64,27.42,4.23,8.88,5.64,14.4,15.95,14.4,26.9v250.2c0,12.44-6.51,23.8-16.98,29.65-4.78,2.67-10.17,4.01-16.08,4.01Z"/>
          <path d="M808.17,261.56c-14.4,0-21.29-8.17-21.59-8.53-.72-.87-.59-2.16.28-2.87.87-.72,2.15-.59,2.87.27.28.33,6.73,7.83,20.58,6.98,12.64-.77,20.54-11.43,20.62-27.82,0-1.12.92-2.03,2.04-2.03h.01c1.13,0,2.04.92,2.03,2.05-.09,18.47-9.69,30.98-24.46,31.88-.82.05-1.61.07-2.39.07Z"/>
          <path d="M797.82,206.46c-.23,0-.47-.04-.7-.13-1.06-.39-1.6-1.56-1.21-2.62.07-.19,6.93-19.33-2.48-28.38-10.49-10.1-23.32-5.84-23.86-5.65-1.07.37-2.23-.2-2.6-1.26-.37-1.07.2-2.23,1.26-2.6,5.8-2,18.22-2.87,28.02,6.57,11.33,10.9,3.8,31.84,3.48,32.73-.3.83-1.08,1.34-1.92,1.34Z"/>
          <path d="M748.34,178.46c-4.19,0-7.22-.68-7.51-.75-1.1-.26-1.78-1.35-1.52-2.45.26-1.1,1.35-1.78,2.45-1.52.23.05,15.04,3.31,23.76-5.74,8.57-8.89,4.94-23.91,3.62-28.31-.32-1.08.29-2.22,1.37-2.54,1.08-.32,2.22.29,2.54,1.37,1.48,4.93,5.52,21.83-4.59,32.32-6.06,6.28-14.23,7.63-20.11,7.63Z"/>
          <path d="M741.18,272.57c-.32,0-.64-.07-.94-.23-1-.52-1.39-1.75-.87-2.75.09-.17,8.79-17.39-.31-30.09-5.24-7.31-16.16-8.87-24.5-8.87-.09,0-.19,0-.26,0-1.12,0-2.04-.91-2.04-2.03,0-1.13.91-2.05,2.03-2.05.09,0,.18,0,.27,0,9.3,0,21.57,1.85,27.82,10.57,10.58,14.76,1.03,33.56.62,34.35-.36.7-1.08,1.1-1.81,1.1Z"/>
          <path d="M744.61,238.17c-2.37,0-4.44-.17-5.99-.35-1.12-.13-1.92-1.15-1.79-2.26.13-1.12,1.15-1.92,2.27-1.79,4.55.53,19.88,1.49,26.37-8.5,7.88-12.14,2.39-26.63,2.33-26.78-.41-1.05.11-2.23,1.16-2.64,1.05-.41,2.23.11,2.64,1.15.26.67,6.34,16.56-2.71,30.49-5.78,8.9-16.57,10.68-24.27,10.68Z"/>
          <path d="M810.31,315.12c-.07,0-.14,0-.22-.01-1.12-.12-1.93-1.12-1.82-2.24.02-.24,1.43-15.92-10.95-24.25-12.3-8.27-27.94,1.65-28.1,1.75-.95.61-2.21.34-2.82-.6-.61-.95-.34-2.21.6-2.82.73-.47,18.04-11.5,32.6-1.71,14.49,9.74,12.81,27.32,12.73,28.06-.11,1.05-1,1.83-2.03,1.83Z"/>
          <path d="M798.51,152.96c-.85,0-1.65-.54-1.93-1.39-.23-.68-5.53-16.84,2.97-29.28,9.78-14.32,32.69-8.55,33.66-8.3,1.09.28,1.74,1.4,1.46,2.49-.28,1.09-1.39,1.75-2.49,1.46-.21-.05-21.11-5.29-29.27,6.65-7.34,10.74-2.52,25.53-2.47,25.68.36,1.07-.22,2.23-1.29,2.58-.22.07-.44.11-.65.11Z"/>
        </g>
      </g>
    </g>
    <g>
      <g>
        <g>
          <g>
            <path class="cls-2" d="M76.19,1010.68l-10.24,77.55,33.46-10.05,8.02-9.46s-11.55-4.46-2.94-29.61l10.87-27.24-39.17-1.19Z"/>
            <path d="M65.95,1090.26c-.48,0-.95-.17-1.32-.49-.53-.45-.79-1.14-.7-1.82l10.24-77.55c.14-1.04,1.05-1.81,2.09-1.77l39.17,1.19c.67.02,1.28.36,1.65.92.36.56.43,1.26.19,1.88l-10.87,27.24c-7.72,22.56,1.68,26.91,1.78,26.95.62.24,1.08.76,1.24,1.4.16.64,0,1.32-.42,1.82l-8.02,9.46c-.26.3-.59.52-.97.63l-33.46,10.05c-.19.06-.39.09-.59.09ZM77.98,1012.77l-9.58,72.59,29.85-8.96,6.15-7.26c-3.39-2.92-8.59-10.94-1.83-30.7l9.82-24.62-34.41-1.05Z"/>
          </g>
          <g>
            <g>
              <path class="cls-4" d="M62.1,1063.14c-2.26,6.43-6.22,18.4-8.55,29.38-1.46,6.89,3.2,12.32,9.17,16.01,12.17,7.52,26.31,11.4,42.45,14.77,14.1,2.94,29.69,5.76,47.44,6.67,4.83.25,15.04-.85,19.97-6.36,14.9-16.64-27.6-33.37-65.23-57.14-1.47-.93-3.35-.93-4.82.02l-5.25,3.4c-5.26,3.4-12.02,3.31-17.17-.24l-12.22-8.42c-2.08-1.43-4.95-.49-5.79,1.91Z"/>
              <path d="M153.89,1132.04c-.5,0-.97-.01-1.39-.03-18.21-.94-34.36-3.92-47.76-6.71-14.72-3.07-30.14-7.01-43.11-15.03-7.95-4.91-11.53-11.36-10.09-18.17,2.37-11.16,6.42-23.36,8.62-29.64h0c.61-1.75,1.98-3.09,3.74-3.66,1.75-.57,3.62-.3,5.13.74l12.22,8.42c4.48,3.08,10.33,3.16,14.91.2l5.25-3.4c2.12-1.37,4.87-1.38,7.02-.03,8.65,5.46,17.47,10.5,26,15.37,23.07,13.18,41.3,23.59,43.09,34.68.58,3.56-.58,6.99-3.43,10.17-5.05,5.64-14.73,7.07-20.2,7.07ZM65.72,1062.6c-.18,0-.37.03-.55.09-.54.18-.96.59-1.15,1.13h0c-2.17,6.19-6.16,18.19-8.48,29.13-1.36,6.4,3.73,11.06,8.24,13.84,11.74,7.25,25.2,11.04,41.8,14.5,13.24,2.76,29.2,5.71,47.13,6.63,5.09.26,14.18-1.04,18.34-5.68,2.02-2.25,2.82-4.48,2.44-6.8-1.48-9.16-20.72-20.15-41.09-31.79-8.57-4.89-17.43-9.96-26.15-15.47-.8-.51-1.83-.51-2.62,0l-5.25,3.4c-5.96,3.86-13.6,3.75-19.44-.27l-12.22-8.42c-.3-.21-.65-.31-1-.31ZM62.1,1063.14h.01-.01Z"/>
            </g>
            <g>
              <path class="cls-2" d="M54.93,1087.3s-1.28,4.69-1.39,5.23c-.37,1.72-.27,3.53.08,5.28,1.13,5.63,5.09,10.28,10.31,12.68,1.26.58,2.94,1.29,4.88,2.07,20.14,8.11,41.29,13.45,62.84,16.1,10.93,1.34,34.88,3.52,40.92-5.05,1.86-2.64,1.42-8.27,1.42-8.27,0,0-3.63,4.75-20.79,3.31-29-2.43-50.76-9.43-77.17-17.64-5.2-1.62-9.07-3.46-13.24-5.81-3.3-1.86-6.02-4.59-7.86-7.9h0Z"/>
              <path d="M150.03,1131.97c-5.39,0-11.6-.43-18.62-1.29-22.02-2.71-43.33-8.17-63.36-16.23-2.09-.84-3.76-1.55-4.97-2.11-5.94-2.73-10.23-8.02-11.46-14.13-.44-2.21-.47-4.26-.08-6.11.11-.55,1.11-4.23,1.42-5.34.22-.8.9-1.39,1.73-1.49.83-.1,1.63.31,2.03,1.04,1.65,2.97,4.09,5.43,7.07,7.11,4.62,2.6,8.34,4.24,12.85,5.64l2.55.79c24.87,7.75,46.34,14.44,74.18,16.77,15.33,1.28,19.02-2.55,19.06-2.59.51-.67,1.36-.92,2.17-.68.81.24,1.36.99,1.43,1.83.05.65.44,6.45-1.78,9.61-3.37,4.79-11.49,7.19-24.21,7.19ZM55.77,1092.05c-.12.47-.21.79-.23.9-.28,1.3-.25,2.8.09,4.46.97,4.84,4.4,9.04,9.16,11.23,1.15.53,2.77,1.21,4.8,2.03,19.69,7.93,40.66,13.3,62.33,15.96,28.86,3.54,36.82-1.11,39-4.2.54-.77.83-2.09.98-3.42-3.22,1.32-8.97,2.5-18.86,1.68-28.28-2.37-49.96-9.12-75.06-16.94l-2.55-.79c-4.8-1.49-8.75-3.23-13.64-5.98-2.29-1.29-4.32-2.96-6.02-4.93Z"/>
            </g>
            <path d="M112.04,1093.6c-.66,0-1.3-.32-1.7-.91-.63-.94-.38-2.2.56-2.83l17.19-11.52c.93-.63,2.2-.38,2.83.56.63.94.38,2.2-.56,2.83l-17.19,11.52c-.35.23-.74.35-1.14.35Z"/>
            <path d="M125.79,1097.91c-.64,0-1.28-.3-1.67-.87-.65-.92-.42-2.2.51-2.84l13.82-9.65c.92-.64,2.2-.42,2.84.51.65.92.42,2.2-.51,2.84l-13.82,9.65c-.36.25-.76.37-1.17.37Z"/>
          </g>
        </g>
        <g>
          <g>
            <path class="cls-2" d="M40.93,983.93h0c8.74-11.06,20.92-20.51,35-20.05l26.91,4.02-9.78-35.06-53.92,2.38,1.79,48.72Z"/>
            <path d="M40.93,985.97c-.21,0-.43-.03-.63-.1-.81-.27-1.37-1.01-1.41-1.87l-1.79-48.72c-.04-1.12.83-2.06,1.95-2.11l53.92-2.38c.95-.04,1.8.58,2.06,1.49l9.78,35.06c.18.67.02,1.38-.44,1.9-.46.52-1.14.77-1.83.67l-26.79-4c-15.36-.42-27.38,11.89-33.22,19.28-.39.5-.99.78-1.6.78ZM41.26,937.16l1.52,41.43c10.17-11.21,21.85-17.11,33.22-16.75.08,0,.16,0,.24.02l23.8,3.55-8.5-30.47-50.28,2.22Z"/>
          </g>
          <g>
            <g>
              <path class="cls-4" d="M47.9,931.16c-6.79-.63-19.36-1.58-30.58-1.18-7.04.25-12.74,5.78-13.31,12.77-1.62,19.75-2.31,64.41,2.92,102.18.36,2.59,2.47,7.09,9.06,8.06,22.1,3.27,25.7-34.86,39.64-77.12.55-1.66.09-3.48-1.18-4.67l-4.57-4.27c-4.57-4.28-6.12-10.86-3.93-16.72l5.21-13.89c.89-2.37-.73-4.92-3.25-5.15Z"/>
              <path d="M18.62,1055.24c-.95,0-1.92-.07-2.94-.22-7.1-1.05-10.24-5.94-10.78-9.8-5.23-37.75-4.62-82.06-2.93-102.63.66-8.06,7.23-14.36,15.27-14.64,11.39-.4,24.22.57,30.84,1.19h0c1.85.17,3.47,1.17,4.45,2.74.98,1.56,1.17,3.44.52,5.16l-5.21,13.89c-1.91,5.09-.57,10.79,3.41,14.51l4.57,4.27c1.84,1.73,2.52,4.4,1.73,6.8-3.25,9.86-5.89,19.31-8.44,28.45-7.79,27.91-14.03,50.28-30.5,50.28ZM22.91,931.92c-1.86,0-3.7.03-5.51.09-5.98.21-10.86,4.89-11.35,10.89-1.67,20.39-2.27,64.32,2.91,101.74.12.89,1.06,5.4,7.33,6.32,15.11,2.24,20.91-18.46,28.91-47.11,2.56-9.19,5.21-18.69,8.5-28.63.3-.9.05-1.9-.64-2.54l-4.57-4.27c-5.19-4.85-6.93-12.28-4.44-18.92l5.21-13.89c.2-.52.14-1.09-.16-1.56-.3-.48-.8-.79-1.37-.84h0c-5.47-.51-15.21-1.27-24.8-1.27Z"/>
            </g>
            <g>
              <path class="cls-2" d="M19.01,929.93s-1.14.03-1.69.05c-7.04.25-12.74,5.78-13.31,12.77-1.62,19.75-2.31,64.41,2.92,102.18.36,2.59,2.47,7.09,9.06,8.06,2.02.3,5.61-.11,5.61-.11l-.26-2.68c-3.69-38.24-4.56-76.7-2.6-115.07l.27-5.2Z"/>
              <path d="M17.87,1055.14c-.77,0-1.53-.04-2.18-.13-7.1-1.05-10.24-5.94-10.78-9.8-5.23-37.75-4.62-82.06-2.93-102.63.66-8.06,7.23-14.36,15.27-14.64.55-.02,1.71-.05,1.71-.05.58,0,1.12.21,1.52.62.4.41.61.96.58,1.53l-.27,5.2c-1.95,38.15-1.08,76.77,2.59,114.77l.26,2.68c.11,1.11-.7,2.1-1.8,2.22-.28.03-2.12.23-3.96.23ZM16.85,932.05c-5.73.46-10.33,5.04-10.81,10.86-1.67,20.39-2.27,64.32,2.91,101.74.12.89,1.06,5.4,7.33,6.32.8.12,2.01.1,3.08.04l-.06-.62c-3.69-38.21-4.56-77.03-2.6-115.37l.15-2.97Z"/>
            </g>
            <path d="M47.77,1002.42c-.49,0-.98-.17-1.37-.53l-15.34-13.89c-.84-.76-.9-2.05-.14-2.88.76-.84,2.05-.9,2.88-.14l15.34,13.89c.84.76.9,2.05.14,2.88-.4.45-.96.67-1.51.67Z"/>
            <path d="M44.28,1014c-.48,0-.95-.17-1.34-.5l-12.71-11.07c-.85-.74-.94-2.03-.2-2.88.74-.85,2.03-.94,2.88-.2l12.71,11.07c.85.74.94,2.03.2,2.88-.4.46-.97.7-1.54.7Z"/>
          </g>
        </g>
        <g>
          <path d="M229.91,686.51s-97.09-15.02-81.07-45.84c10.19-19.6,76.42,13.08,95.57,23.53,3.27,1.78,87.12,9.08,87.12,9.08l-30.71,41.01-70.91-27.77Z"/>
          <path d="M324.63,636.44s28.75,136.54,10.22,225.22c-10.01,47.92-145.25,102.85-253.88,112.31-6.67.58-12.57-4.31-13.21-10.98l-2.62-27.34c-.56-5.9,3.19-11.35,8.92-12.91,31.11-8.46,127.17-36.89,166.75-75.13,47.55-45.95-40.12-124.07-40.12-124.07l-4.03-93.66,127.98,6.56Z"/>
          <path d="M177.75,605.79s-6.57,24.07-9.41,55.06c-2.73,29.83-11.43,58.74-25.35,85.26-25.32,48.25-58.26,161.72-75.47,288.69-.9,6.63,4.14,12.58,10.82,12.78l21.69.66c4.5.14,8.64-2.41,10.54-6.48,20.21-43.27,132.35-282.6,160.89-325.81,31.4-47.54,49.85-84.9,49.85-84.9l-143.56-25.26Z"/>
          <path class="cls-1" d="M162.74,935.6c-.31,0-.62-.07-.91-.22-1.01-.51-1.41-1.73-.91-2.74l30.15-60.06c.51-1.01,1.74-1.41,2.74-.91,1.01.51,1.41,1.73.91,2.74l-30.15,60.06c-.36.71-1.08,1.13-1.83,1.13Z"/>
          <path class="cls-1" d="M241.84,775.34c-.3,0-.61-.07-.9-.21-1.01-.5-1.43-1.72-.93-2.73l12.28-24.94c.5-1.01,1.72-1.43,2.73-.93,1.01.5,1.43,1.72.93,2.73l-12.28,24.94c-.35.72-1.08,1.14-1.83,1.14Z"/>
          <path class="cls-1" d="M164.76,675.33c-.1,0-.19,0-.29-.02-1.12-.16-1.89-1.19-1.74-2.31l3.1-21.97c.16-1.12,1.19-1.89,2.31-1.74,1.12.16,1.89,1.19,1.74,2.31l-3.1,21.97c-.14,1.02-1.02,1.76-2.02,1.76Z"/>
        </g>
      </g>
      <g>
        <g>
          <path class="cls-2" d="M372.28,451.67s34.51,41.36,57.93,50.61c23.43,9.25,82.93-4.12,98.59-12.82,12.47-6.93,21.71-9.9,30.55-8.05,22.24,4.67,43.03,32.34,35.7,36.71-7.75,4.61-23.7-5.31-32.08-9.85-1.74-.95-.49,3.05,1.4,7.25,2.22,4.94-3.88,10.27-8.43,3.7l-6.55-11.19c-1.36-2.32-4.41-2.97-6.6-1.4l-1.36,1c-45.46,36.99-116.34,72.75-164.12,36.28-53.48-40.83-42.38-53.88-42.38-53.88l37.34-38.36Z"/>
          <path d="M424.33,561.25c-18.4,0-34.55-5.24-48.26-15.71-34.8-26.57-43.17-41.99-44.05-50.26-.45-4.2,1.06-6.21,1.36-6.57.03-.03.06-.07.09-.1l37.34-38.36c.4-.41.95-.64,1.54-.62.58.02,1.12.29,1.49.73.34.41,34.44,41.07,57.11,50.02,22.68,8.96,81.83-4.36,96.85-12.71,13.89-7.72,23.15-10.11,31.96-8.26,18.55,3.89,36.95,23.69,38.68,34.06.66,3.95-1.19,5.71-2.36,6.4-7.91,4.71-21.81-2.99-31.09-8.15.3.8.7,1.78,1.23,2.96,1.48,3.29.3,7.18-2.68,8.87-2.35,1.33-6.19,1.3-9.28-3.16-.03-.04-.06-.09-.09-.13l-6.55-11.19c-.36-.62-.95-1.04-1.65-1.19-.7-.15-1.41,0-1.99.42l-1.35.99c-15.35,12.49-46.5,35.17-81.79,45.99-12.99,3.98-25.18,5.97-36.51,5.97ZM336.48,491.37c-.3.53-7.08,13.4,42.07,50.92,44.53,33.99,112.67,3.57,161.59-36.24l1.45-1.06c1.52-1.09,3.42-1.49,5.24-1.1,1.81.39,3.39,1.52,4.33,3.12l6.51,11.11c1.28,1.82,2.73,2.52,3.88,1.87,1.02-.58,1.66-2.09.97-3.64-3.25-7.25-2.61-8.69-1.59-9.64.3-.28,1.4-1.12,3.03-.24.89.48,1.85,1.02,2.89,1.59,7.95,4.42,21.24,11.83,27.17,8.3.59-.35.55-1.4.42-2.22-1.34-8.05-17.63-26.98-35.49-30.73-7.74-1.63-16.19.64-29.14,7.83-15.15,8.42-75.75,22.64-100.33,12.93-21.16-8.36-50.37-41.41-57.29-49.48l-35.69,36.66Z"/>
        </g>
        <path class="cls-4" d="M723.86,692.01l-21.76-12.25c-3.51-1.98-5.61-5.77-5.31-9.76.32-4.21.47-8.42.44-12.6-.03-3.99,2.31-7.62,5.94-9.36l22.49-10.78c4.43-2.12,6.78-7,5.66-11.75l-4.55-19.33c-1.12-4.75-5.41-8.1-10.33-8.07l-25.05.17c-4.05.03-7.77-2.25-9.53-5.86-1.82-3.74-3.8-7.4-5.93-10.99-2.05-3.46-1.9-7.79.38-11.11l14.07-20.54c2.76-4.03,2.34-9.43-1.03-12.99l-13.7-14.5c-3.36-3.56-8.77-4.34-13.01-1.87l-21.56,12.53c-3.49,2.03-7.85,1.9-11.2-.35-3.46-2.32-7.03-4.52-10.71-6.57-3.54-1.98-5.59-5.81-5.3-9.82l1.81-24.74c.36-4.86-2.74-9.33-7.44-10.74l-19.17-5.77c-4.71-1.42-9.78.59-12.21,4.83l-12.35,21.56c-1.99,3.48-5.82,5.56-9.85,5.25-4.25-.32-8.49-.47-12.71-.45-4.02.03-7.69-2.3-9.45-5.89l-10.89-22.3c-2.15-4.39-7.07-6.72-11.87-5.62l-19.51,4.5c-4.79,1.1-8.17,5.35-8.13,10.23l.18,24.82c.03,3.99-2.23,7.69-5.85,9.42-3.81,1.82-7.54,3.8-11.19,5.92-3.47,2.02-7.83,1.83-11.16-.42l-20.73-13.95c-4.07-2.74-9.52-2.32-13.11,1.01l-14.62,13.56c-3.59,3.33-4.37,8.69-1.88,12.89l12.66,21.37c2.05,3.46,1.92,7.78-.35,11.1-2.34,3.43-4.55,6.96-6.63,10.61-1.99,3.5-5.86,5.54-9.91,5.24l-24.96-1.81c-4.91-.36-9.41,2.7-10.84,7.37l-5.81,18.99c-1.43,4.67.6,9.69,4.88,12.1l21.76,12.25c3.51,1.98,5.61,5.77,5.31,9.76-.32,4.21-.47,8.42-.44,12.6.03,3.99-2.31,7.62-5.94,9.36l-22.49,10.78c-4.43,2.12-6.78,7-5.66,11.75l4.55,19.34c1.12,4.75,5.41,8.1,10.33,8.07l25.05-.16c4.03-.03,7.76,2.21,9.51,5.81,1.84,3.78,3.84,7.48,5.98,11.1,2.04,3.44,1.85,7.76-.41,11.06l-14.06,20.53c-2.76,4.03-2.34,9.43,1.03,12.99l13.69,14.5c3.36,3.56,8.77,4.34,13.01,1.87l21.55-12.53c3.49-2.03,7.85-1.9,11.2.35,3.46,2.33,7.03,4.52,10.71,6.57,3.54,1.98,5.59,5.81,5.3,9.82l-1.81,24.73c-.36,4.86,2.74,9.33,7.44,10.74l19.17,5.77c4.71,1.42,9.78-.59,12.21-4.83l12.35-21.56c1.99-3.48,5.82-5.56,9.85-5.25,4.25.32,8.49.47,12.71.45,4.02-.03,7.69,2.3,9.45,5.89l10.89,22.3c2.15,4.39,7.07,6.72,11.87,5.62l19.51-4.5c4.79-1.1,8.17-5.35,8.13-10.23l-.18-24.83c-.03-4.01,2.26-7.7,5.91-9.44,3.77-1.81,7.47-3.76,11.08-5.86,3.49-2.03,7.86-1.87,11.21.38l20.73,13.95c4.07,2.74,9.52,2.32,13.11-1.01l14.62-13.56c3.59-3.33,4.37-8.69,1.88-12.89l-12.66-21.37c-2.05-3.46-1.92-7.78.35-11.1,2.34-3.43,4.55-6.96,6.63-10.61,1.99-3.5,5.86-5.54,9.91-5.24l24.96,1.81c4.91.36,9.41-2.7,10.84-7.37l5.81-18.99c1.43-4.67-.6-9.69-4.88-12.1ZM540.72,728.27c-38.8-1.46-69.09-33.81-67.65-72.26,1.44-38.45,34.07-68.44,72.87-66.99,38.8,1.46,69.09,33.81,67.65,72.26-1.44,38.45-34.07,68.44-72.87,66.99Z"/>
        <path class="cls-4" d="M243.92,414.73s-35.97,21.22-48.9,54.21c-7.76,19.79-4.93,53.49-7.35,72.69-6.47,51.22-39.13,99.15-39.13,99.15,0,0,5.79-7.96,26.53,7.31,19.32,14.22,37.18,24.88,76.99,24.69,36-.17,57.56-4.16,69.8-7.81,8.11-2.42,13.17-10.45,11.79-18.8-2-12.06-4.5-30.91-4.32-48.84.25-25.16,16.91-72.35,16.91-72.35,0,0,49.1-27.3,52.42-58.28,0,0-29.44-44.58-75.07-49.71-47.41-5.33-79.67-2.28-79.67-2.28Z"/>
        <g>
          <path class="cls-2" d="M232.64,529.59s10.4,57.63,53.32,85.2c22.92,14.72,47.57,24.41,64.93,26.76,27.29,3.69,30.16-3.74,33.5-3.05,2.07.43,3.64,1.86,4.21,2.6.79,1.02.8,3.31.76,4.6l-.16,6.37c-.08,3.36,1.58,6.53,4.39,8.38l14.75,9.68c3.01,1.97,3.96,6.12,1.81,9-3.12,4.18-11.5,11.29-26.63,5.49-9.14-3.5-26.14-14.82-32.89-20.49-1.91-1.61-4.37-2.39-6.86-2.16-15.19,1.42-63.81,2.77-110.71-33.47-70.6-54.55-65.79-114.76-65.79-114.76l65.37,15.84Z"/>
          <path d="M394.29,688.85c-3.33,0-7.15-.66-11.5-2.32-9.25-3.54-26.41-14.9-33.48-20.83-1.51-1.27-3.4-1.87-5.35-1.69-18.31,1.72-65.89,1.85-112.15-33.89-36.87-28.49-53-58.56-60.05-78.78-7.67-22.02-6.58-37.13-6.52-37.76.05-.6.35-1.14.84-1.49.49-.35,1.1-.47,1.68-.33l65.37,15.84c.78.19,1.38.83,1.53,1.62.1.57,10.76,57.09,52.42,83.85,21.64,13.9,46.2,24.03,64.1,26.45,19.33,2.61,25.79-.41,29.27-2.04,1.5-.7,2.8-1.31,4.37-.99,2.48.51,4.46,2.12,5.41,3.35,1.15,1.49,1.24,3.93,1.19,5.9l-.16,6.37c-.07,2.68,1.23,5.15,3.47,6.62l14.75,9.67c1.98,1.3,3.36,3.39,3.77,5.72.39,2.23-.12,4.44-1.44,6.21-1.77,2.38-7.34,8.5-17.5,8.5ZM344.65,659.9c2.66,0,5.21.93,7.29,2.67,6.69,5.62,23.58,16.8,32.31,20.15,14.52,5.56,21.81-1.51,24.27-4.81.64-.86.89-1.95.69-3.06-.22-1.23-.94-2.33-1.99-3.02l-14.75-9.67c-3.43-2.25-5.41-6.04-5.31-10.13l.16-6.37c.07-2.62-.3-3.25-.34-3.31-.29-.37-1.47-1.53-3-1.84-.23-.06-1.08.34-1.82.69-3.85,1.8-11.03,5.16-31.54,2.38-18.45-2.49-43.65-12.86-65.75-27.06-39.55-25.4-52.06-76.4-53.96-85.24l-61.64-14.94c.09,11.68,4.13,63.49,65.05,110.56,45.11,34.85,91.44,34.73,109.27,33.06.36-.03.72-.05,1.07-.05Z"/>
        </g>
        <path class="cls-4" d="M248.42,498.73s-16.94,28.92,7.36,45.98l-93.01,33.31-8.69-41.15c-10.84-53.59,22.19-106.92,75.38-119.55,5.15-1.22,10.37-2.11,15.61-2.65h0l3.35,84.07Z"/>
        <path d="M250.69,547.03c-.58,0-1.16-.25-1.57-.73-15.21-18.13-8.34-65.34-8.04-67.34.17-1.12,1.21-1.88,2.32-1.72,1.12.17,1.88,1.21,1.72,2.32-.07.47-6.89,47.39,7.13,64.11.72.86.61,2.15-.25,2.88-.38.32-.85.48-1.31.48Z"/>
        <path class="cls-2" d="M533.6,487.43c6.91-2.79,19.52-7.32,25.75-6.01,22.24,4.67,43.03,32.34,35.7,36.71-7.75,4.61-23.7-5.31-32.08-9.85-1.74-.95-.49,3.05,1.4,7.25,2.22,4.94-3.88,10.27-8.43,3.7l-6.55-11.19c-.64-1.1-1.66-1.82-2.79-2.11-.09-.02-1.79.13-3.36.2-.79.03-1.28.1-3.06-.14-1.16-.16-9.49-17.39-6.59-18.56Z"/>
        <path d="M560.62,524.32c-2.03,0-4.35-1.03-6.36-3.93l-.09-.13-6.55-11.19c-.48-.82-1.36-1.3-2.33-1.24-1.15.06-2.09-.79-2.16-1.91-.07-1.13.79-2.09,1.91-2.16,2.52-.15,4.84,1.1,6.11,3.26l6.51,11.11c1.28,1.82,2.73,2.52,3.88,1.87,1.02-.58,1.66-2.09.97-3.64-3.25-7.25-2.61-8.69-1.59-9.64.3-.28,1.4-1.12,3.03-.24.89.48,1.85,1.02,2.89,1.59,7.95,4.42,21.24,11.83,27.17,8.3.76-.45.5-2.16.35-2.87-1.88-9-18.06-27.88-35.26-30.05-11.21-1.42-19.81,2.48-26.75,6.49-.98.56-2.23.23-2.79-.75-.56-.98-.23-2.23.75-2.79,7.09-4.09,16.84-8.57,29.3-7,19.19,2.42,36.61,23.03,38.75,33.27.95,4.54-1.01,6.47-2.26,7.22-7.91,4.71-21.81-2.99-31.09-8.15.3.8.7,1.78,1.23,2.96,1.48,3.29.3,7.18-2.68,8.87-.82.46-1.83.76-2.92.76Z"/>
      </g>
      <g>
        <g>
          <g>
            <path class="cls-2" d="M269.16,415.27l15.66-53.63,34.39,17.69-9.38,33.84c-1.31,4.92.85,10.11,5.27,12.64l3.99,2.28c2.06,1.18,1.52,4.28-.82,4.69l-17.98,3.17c-17.24,3.04-34.99.33-50.53-7.72h0c-2.23-1.15-1.9-4.44.51-5.13,7.38-2.1,18.18-5.54,18.88-7.84Z"/>
            <path d="M286.56,439.2c-13.06,0-26.09-3.12-37.73-9.15-1.77-.91-2.78-2.78-2.58-4.76.2-1.97,1.56-3.6,3.47-4.14,14.54-4.14,17.13-6.21,17.54-6.63l15.61-53.45c.17-.59.59-1.06,1.15-1.3.56-.24,1.2-.22,1.74.06l34.39,17.69c.86.44,1.29,1.43,1.03,2.36l-9.38,33.84c-1.07,4,.7,8.26,4.32,10.32l3.99,2.28c1.69.97,2.57,2.83,2.24,4.75-.33,1.92-1.79,3.38-3.71,3.72l-17.98,3.17c-4.66.82-9.38,1.23-14.1,1.23ZM286.09,364.59l-14.97,51.25s0,.01,0,.02c-.4,1.31-1.14,3.76-20.28,9.21-.41.12-.51.44-.53.63-.02.18,0,.52.39.72,15.06,7.8,32.54,10.47,49.24,7.52l17.98-3.17c.23-.04.36-.17.4-.4.04-.22-.04-.4-.24-.51l-3.99-2.28c-5.22-2.99-7.78-9.13-6.23-14.94l8.94-32.26-30.71-15.8ZM269.16,415.27h.01-.01Z"/>
          </g>
          <path d="M361.4,324.46c-8.85-4.56-1.53,9.86-30.82-14.88-11.66-9.85-11.74,8.77-14.77,6.22-11.2-9.41-14.31-11.84-21.29-12.98-4.62-.75-16.99,3.54-18.07,9.74-3.53,20.24,6.69,19.02,5.22,37.38-1.04,12.9.61,17.7,4.37,21.32,3.81,3.66,9.82-.93,14.28,2.76,5.77,4.77-.53,15.58,3.81,23.16,2.73,4.77,11.52,10.33,29.8,9.7,2.96-.1,5.43-2.32,5.86-5.27.55-3.78,1.22-8.55,1.48-13.17,1.24-22.01-3.61-29.27.97-33.08,7.02-5.83,19.32,4.77,24.37-.34,5.24-5.31,6.9-24.31-5.22-30.56Z"/>
          <g>
            <path class="cls-2" d="M315.44,342.88l.47,6c.22,2.83.25,5.66.08,8.5-.31,5.31-.5,14.45-.67,19.58-.53,16.52,23.47,8.78,23.47,8.78l2.89-3.33,2.73.09c.53.02,1.06-.08,1.53-.33,1.16-.63,1.72-1.9,1.5-3.11-1.22-6.66-3.41-21.36-1.48-32.82,0,0-13.12-10.4-30.53-3.37Z"/>
            <path d="M327.49,389.59c-3.59,0-7.3-.65-10.04-2.71-2.91-2.19-4.31-5.55-4.17-9.97.05-1.41.09-3.11.14-4.96.13-4.81.3-10.8.53-14.68.16-2.73.13-5.5-.08-8.22l-.47-6c-.07-.89.44-1.72,1.27-2.05,18.3-7.39,31.99,3.21,32.56,3.66.58.46.87,1.2.75,1.94-1.9,11.33.4,26.23,1.48,32.11.39,2.13-.63,4.25-2.54,5.28-.75.4-1.66.6-2.56.57l-1.77-.06-2.26,2.59c-.24.28-.56.49-.91.6-.37.12-5.99,1.9-11.93,1.9ZM317.59,344.25l.35,4.48c.23,2.91.26,5.86.08,8.78-.23,3.82-.39,9.77-.52,14.56-.05,1.85-.1,3.56-.14,4.97-.1,3.06.74,5.22,2.55,6.58,4.42,3.33,13.82,1.51,17.72.35l2.51-2.89c.4-.46.98-.72,1.6-.7l2.73.09c.22,0,.39-.02.5-.08.43-.23.52-.65.46-.95-1.34-7.29-3.28-20.95-1.68-32.25-3.06-2.01-13.15-7.54-26.16-2.94Z"/>
          </g>
          <path class="cls-2" d="M311.68,361.44s-1.11-14.44-7.54-12.55c-6.43,1.89-4.8,17.76,7.54,12.55h0Z"/>
        </g>
        <g>
          <path d="M336.01,375.38c-1.13,0-2.28-.32-3.41-.95-1.17-.65-1.96-2.04-2.23-3.91-.46-3.27.71-8.42,5.37-13.09.91-.91,2.22-1.41,3.71-1.39,1.73.03,3.38.8,4.65,2.17h0c1.74,1.87,1.9,4.62.5,8.4-1.73,4.67-3.86,7.42-6.5,8.39-.68.25-1.37.37-2.08.37ZM334.69,370.93c.98.51,1.6.39,1.98.25.81-.3,2.41-1.47,4.09-5.98.45-1.22,1.1-3.39.34-4.21-.68-.74-1.38-.86-1.73-.86-.43,0-.69.14-.75.2-5.03,5.04-4.47,9.79-3.93,10.61Z"/>
          <path d="M340.23,360.14c-.2,0-.39-.03-.59-.09l-29.98-9.01c-1.08-.32-1.69-1.46-1.37-2.54.33-1.08,1.47-1.69,2.54-1.37l29.98,9.01c1.08.33,1.69,1.46,1.37,2.54-.27.88-1.08,1.45-1.95,1.45Z"/>
          <path d="M347.81,377.51c-1.11,0-2.02-.89-2.04-2-.02-1.01.7-1.85,1.65-2.04,1.13-.66,4.49-4.75,4.04-8.77-.06-.55-.26-.76-.47-.9-1.05-.73-3.5-.43-4.52-.17-1.08.28-2.2-.38-2.48-1.47-.28-1.09.37-2.2,1.46-2.48.5-.13,4.98-1.21,7.85.76,1.26.87,2.03,2.19,2.21,3.81.6,5.28-2.8,9.61-3.85,10.82-1.41,1.61-2.69,2.43-3.82,2.45-.01,0-.03,0-.04,0ZM347.34,373.51h0ZM347.78,373.43h0,0Z"/>
        </g>
      </g>
    </g>
    <g>
      <path d="M818.26,1038.56c-101.62,0-184.29-82.67-184.29-184.29,0-11.19,1.01-22.41,3.01-33.32.2-1.11,1.28-1.84,2.38-1.64,1.11.2,1.84,1.27,1.64,2.38-1.95,10.68-2.94,21.64-2.94,32.59,0,99.37,80.84,180.2,180.2,180.2,73.96,0,141.54-46.34,168.17-115.32.41-1.05,1.59-1.58,2.64-1.17,1.05.41,1.58,1.59,1.17,2.64-13.26,34.34-36.28,63.68-66.58,84.84-31,21.65-67.45,33.1-105.4,33.1Z"/>
      <path d="M976.85,766.45c-.71,0-1.4-.37-1.78-1.03-32-56.35-92.08-91.35-156.81-91.35-21.62,0-42.76,3.79-62.83,11.26-1.06.39-2.23-.14-2.63-1.2-.39-1.06.14-2.23,1.2-2.63,20.53-7.64,42.15-11.51,64.26-11.51,66.19,0,127.64,35.79,160.36,93.42.56.98.21,2.23-.77,2.78-.32.18-.67.27-1.01.27Z"/>
      <path d="M818.7,1059.4c-63.8,0-122.77-29.01-161.8-79.58-.69-.89-.52-2.17.37-2.86.89-.69,2.17-.52,2.86.37,38.24,49.56,96.04,77.99,158.56,77.99,1.13,0,2.04.91,2.04,2.04s-.91,2.04-2.04,2.04Z"/>
      <path d="M1016.15,813.43c-.94,0-1.78-.65-1.99-1.6-8.82-39.98-29.49-75.88-59.76-103.81-.83-.76-.88-2.06-.12-2.88.77-.83,2.06-.88,2.89-.12,30.89,28.5,51.98,65.13,60.98,105.93.24,1.1-.45,2.19-1.55,2.43-.15.03-.3.05-.44.05Z"/>
      <path d="M426.21,840.24c-.38,0-.77-.11-1.11-.33-16.04-10.4-30.68-22.88-43.51-37.09-.76-.84-.69-2.13.15-2.88.83-.76,2.13-.69,2.88.15,12.59,13.95,26.96,26.19,42.7,36.4.95.61,1.21,1.88.6,2.82-.39.6-1.05.93-1.71.93Z"/>
      <path d="M543.78,874.94c-30.2,0-59.45-6.05-86.92-17.98-1.03-.45-1.51-1.65-1.06-2.69.45-1.03,1.65-1.51,2.69-1.06,26.96,11.71,55.66,17.64,85.29,17.64,14.54,0,29.08-1.47,43.2-4.35,1.1-.22,2.18.49,2.41,1.59.23,1.1-.49,2.18-1.59,2.41-14.39,2.94-29.2,4.44-44.02,4.44Z"/>
      <path d="M732.46,552.53c-.71,0-1.4-.37-1.78-1.04-37.97-67.44-109.59-109.33-186.9-109.33-22.61,0-44.88,3.5-66.19,10.41-1.08.35-2.22-.24-2.57-1.31-.35-1.07.24-2.22,1.31-2.57,21.71-7.04,44.41-10.61,67.45-10.61,78.78,0,151.76,42.69,190.46,111.41.55.98.21,2.23-.78,2.78-.32.18-.66.26-1,.26Z"/>
      <path d="M717.01,490.68c-.53,0-1.07-.21-1.47-.62-19.61-20.23-42.35-36.69-67.61-48.92-1.01-.49-1.44-1.71-.95-2.73.49-1.02,1.71-1.44,2.73-.95,25.68,12.45,48.82,29.19,68.76,49.76.78.81.76,2.1-.05,2.89-.4.38-.91.58-1.42.58Z"/>
      <path d="M426.17,447.89c-.72,0-1.41-.38-1.78-1.05-.55-.98-.2-2.23.78-2.78,36.04-20.17,77.06-30.83,118.61-30.83,16.05,0,32.11,1.57,47.72,4.68,1.11.22,1.82,1.29,1.6,2.4-.22,1.11-1.29,1.82-2.4,1.6-15.35-3.05-31.13-4.6-46.92-4.6-40.86,0-81.18,10.48-116.62,30.31-.31.18-.66.26-1,.26Z"/>
    </g>
    <g>
      <g>
        <path class="cls-3" d="M139,376.56c-.27,0-.55-.06-.82-.17-5.08-2.23-10.08-4.58-14.87-6.99-1.01-.51-1.41-1.73-.91-2.74.51-1.01,1.74-1.41,2.74-.9,4.73,2.38,9.66,4.7,14.67,6.9,1.03.45,1.5,1.66,1.05,2.69-.34.77-1.09,1.22-1.87,1.22ZM109.87,361.85c-.35,0-.7-.09-1.02-.28-4.8-2.78-9.5-5.71-13.96-8.71-.94-.63-1.19-1.9-.56-2.83.63-.94,1.9-1.19,2.83-.56,4.39,2.95,9.02,5.83,13.74,8.57.97.57,1.31,1.81.74,2.79-.38.65-1.06,1.02-1.77,1.02ZM82.79,343.65c-.44,0-.88-.14-1.25-.43-4.38-3.42-8.62-7-12.59-10.63-.83-.76-.89-2.05-.13-2.88.76-.83,2.05-.89,2.88-.13,3.89,3.56,8.05,7.07,12.35,10.43.89.69,1.05,1.98.35,2.87-.4.52-1,.79-1.61.79ZM58.76,321.6c-.55,0-1.1-.22-1.5-.66-3.75-4.08-7.32-8.34-10.61-12.65-.68-.9-.51-2.18.39-2.86.89-.68,2.18-.51,2.86.39,3.21,4.21,6.69,8.37,10.36,12.36.76.83.71,2.12-.12,2.89-.39.36-.89.54-1.38.54ZM39.04,295.64c-.68,0-1.35-.35-1.74-.97-2.9-4.71-5.57-9.59-7.92-14.51-.49-1.02-.06-2.24.96-2.72,1.02-.49,2.24-.06,2.72.96,2.3,4.79,4.9,9.54,7.72,14.14.59.96.29,2.22-.67,2.81-.33.21-.7.3-1.07.3ZM24.95,266.25c-.84,0-1.63-.52-1.92-1.36-1.84-5.19-3.4-10.53-4.66-15.87-.26-1.1.42-2.2,1.52-2.45,1.1-.26,2.2.42,2.45,1.52,1.22,5.2,2.75,10.4,4.53,15.45.38,1.06-.18,2.23-1.24,2.61-.22.08-.45.12-.68.12ZM17.49,234.52c-1.02,0-1.9-.76-2.02-1.79-.67-5.44-1.04-11-1.12-16.5-.02-1.13.89-2.05,2.01-2.07.01,0,.02,0,.03,0,1.12,0,2.03.9,2.04,2.01.08,5.36.44,10.77,1.09,16.07.14,1.12-.66,2.14-1.78,2.27-.09.01-.17.02-.25.02ZM17.02,201.94c-.06,0-.12,0-.19,0-1.12-.1-1.95-1.1-1.85-2.22.5-5.44,1.29-10.95,2.35-16.36.22-1.11,1.29-1.83,2.4-1.61,1.11.22,1.83,1.29,1.61,2.4-1.04,5.27-1.8,10.64-2.29,15.94-.1,1.06-.99,1.86-2.03,1.86ZM189.22,199.21c-5.79,0-11.28-.73-16.32-2.16-1.08-.31-1.71-1.44-1.41-2.52.31-1.08,1.43-1.71,2.52-1.41,4.68,1.33,9.8,2,15.21,2h.35s0,0,.01,0c1.12,0,2.03.91,2.04,2.03,0,1.13-.9,2.05-2.03,2.05h-.38ZM206.31,197.35l-.52-1.98-.33-2.02c5.49-1.14,10.66-2.57,15.37-4.24,1.07-.38,2.23.18,2.61,1.24.38,1.06-.18,2.23-1.24,2.61-4.89,1.73-10.24,3.21-15.9,4.39ZM205.79,195.37h.01-.01ZM158.84,190.08c-.42,0-.84-.13-1.2-.39-4.51-3.28-8.47-7.39-11.75-12.21-.63-.93-.39-2.2.54-2.84.93-.63,2.2-.39,2.84.54,3.02,4.43,6.64,8.2,10.77,11.21.91.66,1.11,1.94.45,2.85-.4.55-1.02.84-1.65.84ZM236.32,186.25c-.7,0-1.37-.36-1.76-1-.58-.97-.26-2.22.71-2.8,4.79-2.85,8.94-6.12,12.32-9.73.77-.82,2.06-.86,2.89-.09.82.77.86,2.06.09,2.89-3.64,3.89-8.09,7.4-13.21,10.45-.33.19-.69.29-1.04.29ZM23.28,169.95c-.2,0-.4-.03-.59-.09-1.08-.33-1.69-1.47-1.36-2.55,1.59-5.25,3.47-10.48,5.57-15.55.43-1.04,1.63-1.54,2.67-1.1,1.04.43,1.54,1.63,1.1,2.67-2.05,4.95-3.88,10.05-5.44,15.17-.27.88-1.08,1.45-1.95,1.45ZM140.5,163.72c-.86,0-1.66-.55-1.94-1.41-1.71-5.28-2.77-10.82-3.17-16.49-.08-1.12.77-2.1,1.9-2.18,1.11-.08,2.1.77,2.18,1.9.37,5.34,1.37,10.56,2.98,15.52.35,1.07-.24,2.22-1.31,2.57-.21.07-.42.1-.63.1ZM257.89,162.53c-.25,0-.51-.05-.76-.15-1.05-.42-1.55-1.61-1.13-2.66,1.92-4.75,2.89-9.86,2.89-15.17,0-1.13.91-2.04,2.04-2.04h0c1.13,0,2.04.92,2.04,2.04,0,5.84-1.08,11.46-3.19,16.7-.32.8-1.09,1.28-1.9,1.28ZM35.79,139.85c-.33,0-.66-.08-.97-.24-.99-.53-1.37-1.77-.83-2.76,2.61-4.86,5.48-9.62,8.54-14.15.63-.94,1.9-1.18,2.83-.55.93.63,1.18,1.9.55,2.83-2.98,4.42-5.78,9.06-8.33,13.79-.37.69-1.07,1.08-1.8,1.08ZM138.35,131.45c-.13,0-.26-.01-.4-.04-1.11-.22-1.83-1.29-1.61-2.4,1.22-6.21,3.39-11.54,6.29-15.4l.26-.35,1.66,1.19,1.61,1.26-.27.36c-2.52,3.37-4.44,8.12-5.54,13.73-.19.97-1.04,1.65-2,1.65ZM258.29,130.55c-.86,0-1.66-.55-1.94-1.41-1.55-4.8-3.81-9.61-6.7-14.31-.59-.96-.29-2.22.67-2.81.96-.59,2.22-.29,2.81.67,3.07,4.97,5.46,10.09,7.11,15.2.35,1.07-.24,2.22-1.31,2.57-.21.07-.42.1-.63.1ZM54.03,112.84c-.46,0-.93-.16-1.31-.48-.86-.72-.98-2.01-.26-2.88,3.56-4.25,7.36-8.32,11.29-12.1.81-.78,2.1-.76,2.89.06.78.81.75,2.11-.06,2.89-3.82,3.67-7.52,7.63-10.98,11.78-.4.48-.98.73-1.57.73ZM154.9,103.87c-.48,0-.97-.17-1.36-.52-.84-.75-.92-2.04-.17-2.88,3.64-4.09,7.49-8.08,11.46-11.87.81-.78,2.11-.75,2.89.07.78.82.75,2.11-.07,2.89-3.89,3.71-7.66,7.62-11.22,11.63-.4.45-.96.69-1.53.69ZM241.5,102.82c-.55,0-1.1-.22-1.5-.66-3.52-3.83-7.46-7.48-11.74-10.85-.89-.7-1.04-1.98-.34-2.87.7-.89,1.98-1.04,2.87-.34,4.45,3.5,8.56,7.31,12.22,11.3.76.83.71,2.12-.12,2.88-.39.36-.89.54-1.38.54ZM77.56,90.28c-.62,0-1.23-.28-1.63-.81-.68-.9-.51-2.18.39-2.86,4.45-3.38,9.08-6.47,13.79-9.2.97-.56,2.22-.23,2.79.74.56.98.23,2.22-.74,2.79-4.56,2.64-9.05,5.64-13.36,8.92-.37.28-.8.42-1.23.42ZM216.01,82.6c-.35,0-.7-.09-1.02-.27-4.58-2.64-9.42-5.02-14.41-7.07-1.04-.43-1.54-1.62-1.11-2.66.43-1.04,1.62-1.54,2.66-1.11,5.15,2.12,10.16,4.58,14.9,7.31.98.56,1.31,1.81.75,2.79-.38.65-1.06,1.02-1.77,1.02ZM105.77,74c-.8,0-1.56-.48-1.89-1.27-.43-1.04.07-2.24,1.11-2.66,5.16-2.12,10.47-3.87,15.77-5.2,1.09-.27,2.2.39,2.48,1.49.27,1.09-.39,2.2-1.49,2.48-5.11,1.28-10.22,2.96-15.2,5.01-.26.1-.52.15-.78.15ZM185.9,70.19c-.18,0-.35-.02-.53-.07-5.13-1.38-10.42-2.46-15.75-3.21-1.12-.16-1.89-1.19-1.74-2.31.16-1.12,1.19-1.89,2.31-1.74,5.49.77,10.95,1.89,16.24,3.31,1.09.29,1.73,1.41,1.44,2.5-.24.91-1.07,1.51-1.97,1.51ZM137.32,66.16c-1.05,0-1.94-.8-2.03-1.86-.1-1.12.73-2.11,1.85-2.21l.29-.03c5.43-.48,10.92-.66,16.25-.54,1.13.03,2.02.96,2,2.09-.03,1.13-.92,2.02-2.09,1.99-5.18-.12-10.52.06-15.8.52l-.29.03c-.06,0-.12,0-.18,0Z"/>
        <path class="cls-3" d="M702.53,95.4c-.31,0-.62-.07-.91-.21-.05-.03-5.3-2.63-14.82-6.72-1.04-.45-1.51-1.65-1.07-2.68.45-1.04,1.64-1.52,2.68-1.07,9.64,4.15,14.97,6.79,15.02,6.82,1.01.5,1.42,1.73.92,2.74-.36.72-1.08,1.13-1.83,1.13ZM672.49,82.38c-.25,0-.51-.05-.76-.15-4.93-1.96-10.05-3.93-15.21-5.85-1.06-.39-1.6-1.57-1.2-2.62.39-1.06,1.57-1.59,2.62-1.2,5.19,1.93,10.34,3.91,15.31,5.88,1.05.42,1.56,1.6,1.14,2.65-.32.8-1.09,1.29-1.9,1.29ZM641.84,71c-.22,0-.45-.04-.67-.11-5.09-1.76-10.29-3.5-15.46-5.17-1.07-.35-1.66-1.5-1.32-2.57.35-1.07,1.49-1.66,2.57-1.32,5.19,1.68,10.42,3.43,15.54,5.2,1.06.37,1.63,1.53,1.26,2.6-.29.84-1.08,1.37-1.93,1.37ZM610.74,60.96c-.2,0-.39-.03-.59-.09-5.17-1.55-10.44-3.08-15.66-4.53-1.09-.3-1.72-1.43-1.42-2.51.3-1.09,1.43-1.72,2.51-1.42,5.25,1.46,10.55,2.99,15.74,4.55,1.08.32,1.69,1.46,1.37,2.54-.27.88-1.08,1.45-1.95,1.45ZM223.79,53.18c-.87,0-1.68-.56-1.95-1.44-.33-1.08.27-2.22,1.35-2.55l.63-.19c1.08-.33,2.22.28,2.55,1.35.33,1.08-.28,2.22-1.35,2.55l-.63.19c-.2.06-.4.09-.6.09ZM579.25,52.19c-.17,0-.34-.02-.51-.06-5.24-1.34-10.56-2.65-15.83-3.89-1.1-.26-1.78-1.36-1.52-2.45.26-1.1,1.35-1.78,2.45-1.52,5.29,1.24,10.64,2.56,15.91,3.91,1.09.28,1.75,1.39,1.47,2.49-.24.92-1.07,1.53-1.98,1.53ZM240.11,48.44c-.9,0-1.72-.6-1.97-1.5-.3-1.09.34-2.21,1.43-2.51,5.24-1.43,10.57-2.81,15.86-4.08,1.1-.27,2.2.41,2.46,1.51.26,1.1-.41,2.2-1.5,2.46-5.25,1.27-10.55,2.63-15.75,4.05-.18.05-.36.07-.54.07ZM547.43,44.71c-.14,0-.28-.01-.43-.05-5.3-1.13-10.67-2.22-15.97-3.24-1.11-.21-1.83-1.28-1.62-2.39.21-1.11,1.28-1.83,2.39-1.62,5.33,1.02,10.73,2.12,16.06,3.26,1.1.24,1.8,1.32,1.57,2.42-.2.96-1.05,1.62-1.99,1.62ZM271.83,40.78c-.94,0-1.79-.66-2-1.62-.23-1.1.47-2.19,1.58-2.42,5.31-1.12,10.72-2.18,16.08-3.14,1.1-.2,2.17.54,2.37,1.65.2,1.11-.54,2.17-1.65,2.37-5.32.96-10.69,2.01-15.96,3.12-.14.03-.28.04-.42.04ZM515.34,38.55c-.11,0-.23,0-.35-.03-5.35-.91-10.77-1.77-16.09-2.56-1.12-.17-1.89-1.2-1.72-2.32.16-1.12,1.21-1.89,2.32-1.72,5.36.79,10.8,1.66,16.18,2.58,1.11.19,1.86,1.24,1.67,2.36-.17,1-1.03,1.7-2.01,1.7ZM303.96,34.97c-.99,0-1.86-.73-2.02-1.74-.17-1.11.6-2.16,1.71-2.32,5.36-.81,10.82-1.56,16.23-2.23,1.11-.14,2.14.66,2.28,1.78.14,1.12-.66,2.14-1.78,2.28-5.38.66-10.8,1.4-16.11,2.21-.1.02-.21.02-.31.02ZM483.02,33.76c-.09,0-.17,0-.26-.02-5.38-.68-10.82-1.3-16.19-1.86-1.12-.12-1.94-1.12-1.82-2.24.12-1.12,1.12-1.93,2.24-1.82,5.39.56,10.87,1.19,16.28,1.87,1.12.14,1.91,1.16,1.77,2.28-.13,1.03-1.01,1.79-2.02,1.79ZM336.35,30.98c-1.04,0-1.93-.79-2.03-1.85-.11-1.12.72-2.12,1.84-2.23,5.39-.51,10.88-.96,16.32-1.33,1.1-.08,2.1.77,2.18,1.9.08,1.12-.77,2.1-1.9,2.18-5.41.37-10.86.82-16.21,1.33-.07,0-.13,0-.2,0ZM450.52,30.4c-.06,0-.11,0-.17,0-5.41-.43-10.88-.81-16.25-1.12-1.13-.06-1.99-1.03-1.92-2.15.07-1.13,1.07-1.99,2.15-1.92,5.41.31,10.91.69,16.34,1.12,1.12.09,1.96,1.07,1.87,2.2-.09,1.07-.98,1.88-2.03,1.88ZM368.92,28.75c-1.09,0-1.99-.86-2.04-1.96-.05-1.13.83-2.08,1.95-2.13,5.41-.23,10.92-.39,16.37-.48,1.19,0,2.06.88,2.07,2.01.02,1.13-.88,2.06-2.01,2.07-5.42.09-10.89.25-16.26.48-.03,0-.06,0-.09,0ZM417.9,28.55s-.05,0-.07,0c-5.42-.18-10.9-.29-16.28-.34-1.13,0-2.03-.93-2.02-2.06,0-1.12.92-2.02,2.04-2.02h.02c5.41.05,10.93.16,16.38.34,1.13.04,2.01.98,1.97,2.11-.04,1.1-.94,1.97-2.04,1.97Z"/>
      </g>
      <path d="M61.67,559.57c-2,0-3.95-.62-5.61-1.82-4.31-3.1-5.29-9.13-2.18-13.44,1.5-2.09,3.73-3.46,6.27-3.88,2.54-.41,5.09.19,7.17,1.69,2.09,1.5,3.46,3.73,3.88,6.27.41,2.54-.19,5.09-1.69,7.17-1.5,2.09-3.73,3.46-6.27,3.88-.52.09-1.05.13-1.56.13ZM61.7,544.39c-.3,0-.6.02-.9.07-1.46.24-2.74,1.03-3.61,2.23-1.79,2.48-1.22,5.96,1.26,7.74,1.2.87,2.67,1.21,4.13.97,1.46-.24,2.74-1.03,3.61-2.23.87-1.2,1.21-2.67.97-4.13-.24-1.46-1.03-2.75-2.23-3.61-.95-.69-2.08-1.05-3.23-1.05Z"/>
      <path class="cls-3" d="M988.98,606.79c-3.4-2.45-4.17-7.19-1.72-10.59,2.45-3.4,7.19-4.17,10.59-1.72,3.4,2.45,4.17,7.19,1.72,10.59-2.45,3.4-7.19,4.17-10.59,1.72Z"/>
      <path d="M88.22,641.03c-1.47,0-2.95-.44-4.23-1.37-3.24-2.34-3.98-6.88-1.64-10.12,2.33-3.24,6.87-3.98,10.12-1.64,3.24,2.34,3.98,6.88,1.64,10.12-1.41,1.96-3.64,3.01-5.89,3.01ZM88.23,630.61c-.98,0-1.96.46-2.57,1.31-1.02,1.42-.7,3.4.72,4.42,1.42,1.02,3.4.7,4.42-.72,1.02-1.42.7-3.4-.72-4.42-.56-.4-1.21-.6-1.85-.6Z"/>
      <g>
        <path d="M80.18,448.98c-.59,0-1.17-.25-1.58-.74l-4.7-5.7c-.72-.87-.59-2.16.28-2.87.87-.72,2.16-.59,2.87.28l4.7,5.7c.72.87.59,2.16-.28,2.87-.38.31-.84.47-1.3.47Z"/>
        <path d="M95.04,466.99c-.59,0-1.17-.25-1.58-.74l-4.7-5.7c-.72-.87-.59-2.16.28-2.87.87-.72,2.16-.59,2.87.28l4.7,5.7c.72.87.59,2.16-.28,2.87-.38.31-.84.47-1.3.47Z"/>
        <path d="M73.4,464.92c-.59,0-1.17-.25-1.58-.74-.72-.87-.59-2.16.28-2.87l5.7-4.7c.87-.72,2.16-.59,2.87.28.72.87.59,2.16-.28,2.87l-5.7,4.7c-.38.31-.84.47-1.3.47Z"/>
        <path d="M91.42,450.05c-.59,0-1.17-.25-1.58-.74-.72-.87-.59-2.16.28-2.87l5.7-4.7c.87-.72,2.16-.59,2.88.28.72.87.59,2.16-.28,2.87l-5.7,4.7c-.38.31-.84.47-1.3.47Z"/>
      </g>
      <g>
        <path d="M1002.5,520.81c-.59,0-1.17-.25-1.58-.74l-4.7-5.7c-.72-.87-.59-2.16.28-2.87.87-.72,2.16-.59,2.87.28l4.7,5.7c.72.87.59,2.16-.28,2.87-.38.31-.84.47-1.3.47Z"/>
        <path d="M1017.36,538.83c-.59,0-1.17-.25-1.58-.74l-4.7-5.7c-.72-.87-.59-2.16.28-2.87.87-.72,2.16-.59,2.87.28l4.7,5.7c.72.87.59,2.16-.28,2.87-.38.31-.84.47-1.3.47Z"/>
        <path d="M995.72,536.75c-.59,0-1.17-.25-1.58-.74-.72-.87-.59-2.16.28-2.87l5.7-4.7c.87-.72,2.16-.59,2.87.28.72.87.59,2.16-.28,2.87l-5.7,4.7c-.38.31-.84.47-1.3.47Z"/>
        <path d="M1013.73,521.89c-.59,0-1.17-.25-1.58-.74-.72-.87-.59-2.16.28-2.87l5.7-4.7c.87-.72,2.16-.59,2.87.28.72.87.59,2.16-.28,2.87l-5.7,4.7c-.38.31-.84.47-1.3.47Z"/>
      </g>
    </g>
  </g>
</svg>