<?xml version="1.0" encoding="UTF-8"?>
<svg xmlns="http://www.w3.org/2000/svg" xmlns:xlink="http://www.w3.org/1999/xlink" version="1.1" viewBox="0 0 3415 2500">
  <!-- Generator: Adobe Illustrator 30.2.1, SVG Export Plug-In . SVG Version: 2.1.1 Build 1)  -->
  <defs>
    <style>
      .st0 {
        fill: url(#linear-gradient);
      }

      .st1 {
        fill: #fff;
      }

      .st2 {
        fill: #5479f7;
      }
    </style>
    <linearGradient id="linear-gradient" x1="5112.91" y1="3031.25" x2="1027.5" y2="2980.17" gradientTransform="translate(0 -1752)" gradientUnits="userSpaceOnUse">
      <stop offset="0" stop-color="#dae3fe"/>
      <stop offset="1" stop-color="#e9effd"/>
    </linearGradient>
  </defs>
  <g id="Background">
    <path class="st0" d="M1076.14,2037.37c313.2,10.16,652.14-46.07,936.36,7.28,208.36,39.11,441.95,95.09,653.91,43,218.95-53.81,494.81-239.2,430.15-500.49-21.26-85.9-101.48-115.37-148.83-181.45-60.43-84.33-40.52-168.34-9.11-261.34,52.02-154.08,132.27-347.8,66.29-508.61-70.49-171.74-284.13-126.11-417.65-67.4-178.22,78.36-336.6,255.07-549.32,195.96-150.77-41.9-276.26-150.77-406.16-232.3-198.86-124.8-829.57-248.2-1047.29-100.58-238.78,161.89,173.07,325.99-84.65,474.18-186.07,106.99-285.02,394.99-233.72,664.71,65.24,342.94,516.93,457.51,810.04,467.02v.03Z"/>
  </g>
  <g id="Illustration">
    <g id="Feminism">
      <g>
        <g>
          <g>
            <path class="st1" d="M495.63,1973.04c-33.12-29.92-66.84-69.25-83.23-113.49-3.8,4.03-7.65,8.05-11.62,12.07-20.01,20.28-24.66,51.17-11.19,76.26,17.84,33.23,45.23,78.94,77.46,114.98,30.29,33.86,75.98,49.59,120.8,42.1l31.48-5.26c6.55-1.09,8.99-9.22,4.14-13.74l-39.55-51.42s.15-.22.43-.62c-30.48-17.67-69.59-43.59-88.73-60.87Z"/>
            <path class="st2" d="M686.81,1163.38l-26.02-57.16s-91.4,121.21-86.31,282.26c4.66,147.58-10.7,310.54-162.08,471.07,16.4,44.24,50.11,83.57,83.23,113.49,19.14,17.29,58.25,43.2,88.73,60.87,7.94-11.53,127.13-185.81,177.31-337.53,51.93-156.99,2.38-413.74,74.9-430.36l-149.75-102.65Z"/>
          </g>
          <g>
            <path class="st2" d="M862.56,1163.16l-197.03-8.57-6.63,61.83,56.41,90.95,17.94,751.05,222.33-25.08-47.01-824.58c-1.29-24.78-21.2-44.52-46-45.6Z"/>
            <path d="M725.31,1789.55c-.31,0-.62-.06-.92-.2-1.11-.51-1.59-1.82-1.08-2.92,14.87-32.41,27.07-62.93,36.27-90.74,23.08-69.76,26.04-159.65,28.65-238.97,3.37-102.39,6.04-183.27,47.85-192.84,1.18-.27,2.37.47,2.64,1.65.27,1.19-.47,2.37-1.65,2.64-38.5,8.82-41.25,92.18-44.43,188.7-2.62,79.61-5.6,169.84-28.87,240.21-9.25,27.95-21.51,58.64-36.44,91.19-.37.81-1.17,1.28-2,1.28Z"/>
          </g>
          <path d="M565.45,2109.03c-38.05,0-74.29-15.9-100.05-44.7-32.65-36.5-60.31-82.91-77.76-115.41-13.96-26-9.32-57.69,11.56-78.84.85-.87,2.25-.88,3.11-.02.87.85.88,2.25.02,3.11-19.51,19.77-23.86,49.38-10.81,73.67,17.34,32.29,44.81,78.38,77.16,114.56,29.84,33.36,74.24,48.83,118.79,41.4l31.48-5.26c2.23-.37,3.95-1.89,4.6-4.05.65-2.16.05-4.37-1.6-5.91-.09-.08-.17-.17-.24-.27l-39.55-51.42c-.74-.96-.56-2.35.4-3.09.96-.74,2.35-.56,3.09.4l39.45,51.28c2.76,2.67,3.78,6.58,2.67,10.27-1.13,3.75-4.23,6.48-8.09,7.12l-31.48,5.26c-7.61,1.27-15.22,1.89-22.76,1.89Z"/>
          <g>
            <path class="st1" d="M733.33,2069.86c-2.01,23.64,17.34,43.6,41.04,42.34l230.19-11.39c10.5-.56,15.65-13.04,8.61-20.83l-57.6-46.65.05-.94-220.1,11.67-2.19,25.8Z"/>
            <path d="M772.29,2114.46c-11.15,0-21.86-4.51-29.67-12.57-8.31-8.58-12.5-20.32-11.49-32.22l2.19-25.8c.1-1.21,1.17-2.16,2.38-2.01,1.21.1,2.11,1.17,2.01,2.38l-2.19,25.8c-.9,10.63,2.84,21.12,10.26,28.78,7.43,7.67,17.82,11.78,28.47,11.18l230.2-11.39c4.05-.22,7.4-2.59,8.96-6.34,1.53-3.71.87-7.69-1.77-10.69l-57.46-46.54c-.95-.77-1.09-2.15-.33-3.1.77-.95,2.15-1.09,3.1-.33l57.6,46.65c.09.07.17.15.25.23,3.83,4.24,4.86,10.16,2.68,15.45-2.18,5.29-7.09,8.76-12.8,9.07l-230.2,11.39c-.73.04-1.46.06-2.19.06Z"/>
          </g>
        </g>
        <g>
          <g>
            <path class="st1" d="M936.71,896.2s109.86,58.39,176.72,59.72c101.88,2.03,105.94-118.73,76.55-179.76l-24.09-52.11s-89.63-45.02-137.07-5.63l22.4,61.82-91.5-70.47c-23.3-17.95-71.16-29.91-100.59-31.67l77.58,218.11Z"/>
            <path class="st1" d="M868.68,680.34c-23.25-7.14-52.82-8.82-88.99-1.45-9.54,1.95-18.12,3.7-25.86,5.28l.89-2.02s-38.43,9.29-59.88,14.19c-13.88,2.93-9.76,2.19-9.76,2.19,0,0,0,.01,0,.02-33.63,8.8-352.64,134.73-347.15,269.1,3.29,80.58,120.36,130.39,199.38,116.99,10.99-15.23,25.66-83.97,14.69-103.58-34.48-8.98-41.83-10.22-41.83-10.22l87.17-32.11c-31.93,97.88-71.11,177.03-73.54,284.68-.67,29.74,37.2,342.17-101.18,563.94,180.6,98.75,393.07,137.31,598.76,88.39l18.52-4.11c-7.44-85.45-122.35-812.75-102.82-977.89l-68.39-213.38Z"/>
            <path d="M831.57,1900.24c-143.02,0-284.23-37.7-410.06-110.99-.55-.32-.93-.86-1.05-1.48-.12-.62.03-1.26.41-1.76,77.04-101,111.11-283.83,101.27-543.39-.37-9.73-.61-16.16-.54-19.26,1.88-83.33,25.79-149.92,51.1-220.43,7.01-19.53,14.25-39.69,21.14-60.55l-75.8,27.92c6.08,1.41,16.66,3.99,34.53,8.64.58.15,1.07.53,1.37,1.06,11.65,20.83-3.65,90.46-14.82,105.95-.34.47-.85.79-1.42.88-51.73,8.76-117.2-8.86-159.2-42.89-26.82-21.73-41.6-48.07-42.75-76.18-2.93-71.62,85.38-139.38,159.98-183.62,85.08-50.45,173.25-83.55,188.64-87.65v-.05s.35-.06.35-.06c.02,0,.03,0,.05,0,1.78-.51,4.75-1.14,9.64-2.17,21.15-4.84,59.43-14.08,59.81-14.18.82-.2,1.67.09,2.21.73.15.18.27.38.35.59l22.49-4.59c44.35-9.04,84.7-2.59,99.99.6,1.19.25,1.95,1.42,1.71,2.6-.25,1.19-1.41,1.97-2.61,1.71-15.02-3.14-54.66-9.47-98.21-.6l-25.86,5.28c-.81.16-1.64-.14-2.16-.78-.11-.14-.2-.29-.28-.44-9.89,2.38-39,9.38-56.5,13.38-5.45,1.15-7.98,1.71-9.15,1.97-.17.1-.35.17-.55.23-14.79,3.87-102.68,36.82-187.68,87.22-73.57,43.63-160.67,110.21-157.83,179.65,1.1,26.8,15.32,52.03,41.13,72.94,40.84,33.09,104.34,50.35,154.77,42.12,10.01-15.37,23.95-80.2,14.47-99.68-33.03-8.59-40.63-9.93-40.71-9.94-.98-.17-1.73-.98-1.82-1.97-.09-.99.49-1.92,1.43-2.27l87.17-32.11c.79-.29,1.68-.11,2.29.48.61.59.83,1.47.57,2.27-7.33,22.47-15.09,44.09-22.6,65-25.19,70.16-48.97,136.44-50.84,219.04-.07,2.97.19,9.69.54,18.99,1.59,41.82,5.3,139.74-5.97,246.6-13.95,132.25-45.8,232.37-94.7,297.64,176.45,102.06,383.09,133.93,582.18,89.74l29.37-6.52c-6.81-46.18-123.52-841.87-102.52-976.53.19-1.2,1.31-2.02,2.52-1.84,1.2.19,2.02,1.31,1.84,2.52-21.41,137.34,101.58,968.85,102.83,977.23.17,1.14-.57,2.22-1.7,2.47l-31.37,6.96c-58.81,13.05-118.28,19.5-177.44,19.5Z"/>
            <path d="M1077.69,770.07c-12.43,0-21.01-.67-22.03-.76-1.21-.1-2.11-1.16-2.01-2.38.1-1.21,1.16-2.11,2.38-2.02.75.06,75.78,5.92,112.56-18.25,1.02-.66,2.38-.39,3.05.63.67,1.02.39,2.38-.63,3.05-25.63,16.85-67.65,19.72-93.31,19.72Z"/>
            <path d="M937.07,895.93c-.42,0-.83-.12-1.21-.36-1.02-.67-1.3-2.03-.63-3.05,33.79-51.42-7.42-92.26-7.84-92.67-.87-.85-.9-2.24-.05-3.11.85-.88,2.24-.9,3.11-.05.45.43,44.23,43.82,8.46,98.25-.42.65-1.12.99-1.84.99Z"/>
            <path d="M1115.89,958.15c-.83,0-1.66,0-2.5-.02-66.61-1.33-176.61-59.39-177.71-59.98-1.07-.57-1.48-1.9-.91-2.98.57-1.07,1.91-1.49,2.98-.91,1.09.58,110.17,58.15,175.73,59.46,32.75.67,57.24-11.33,72.84-35.6,24.89-38.76,20.4-102.13,1.68-141l-23.78-51.43c-8.26-3.96-88.88-41.12-132.79-6.54l21.87,60.35c.33.92.02,1.95-.77,2.53-.79.57-1.87.57-2.64-.03l-91.5-70.47c-22.76-17.53-51.89-24.7-79.99-29.85-1.2-.22-1.99-1.37-1.77-2.56.22-1.2,1.36-2,2.56-1.77,28.64,5.25,58.38,12.59,81.88,30.69l85.51,65.85-19.83-54.71c-.32-.87-.05-1.85.66-2.45,47.99-39.85,135.75,3.49,139.46,5.36.45.22.8.59,1.01,1.04l24.09,52.11c18.97,39.38,24.74,103.7-1.96,145.26-15.84,24.66-41.44,37.65-74.14,37.65Z"/>
          </g>
          <g>
            <polygon points="1083.87 738.78 994.46 579.73 1053.99 561.7 1136.88 728.6 1083.87 738.78"/>
            <g>
              <path class="st1" d="M994.53,488.33h69.14v105.64h-69.14c-12.54,0-22.71-10.18-22.71-22.71v-60.22c0-12.54,10.18-22.71,22.71-22.71Z"/>
              <path d="M1063.67,596.17h-69.14c-13.74,0-24.92-11.18-24.92-24.91v-60.22c0-13.74,11.18-24.91,24.92-24.91h69.14c1.22,0,2.2.99,2.2,2.2v105.64c0,1.22-.99,2.2-2.2,2.2ZM994.53,490.53c-11.31,0-20.51,9.2-20.51,20.51v60.22c0,11.31,9.2,20.51,20.51,20.51h66.94v-101.24h-66.94Z"/>
            </g>
            <g>
              <path class="st1" d="M1425.72,411.31s-8.66-48.47-45.46-44.56c-26.86,2.86-197.88,61.32-288.26,92.68-33.43,11.6-55.82,42.93-55.82,78.11,0,42.28,32.08,77.75,74.4,82.27l273.21,29.16s28.98-3.59,42.8-47.72c13.82-44.13-.86-189.93-.86-189.93Z"/>
              <path d="M1383.78,651.17c-.08,0-.16,0-.23-.01l-273.21-29.16c-43.54-4.65-76.37-40.96-76.37-84.46,0-36.08,23.03-68.3,57.3-80.19,96.36-33.43,262-89.94,288.75-92.78,38.39-4.11,47.77,45.86,47.86,46.36,0,.06.02.11.02.17.6,5.97,14.57,146.76.77,190.81-14.09,44.97-43.39,49.1-44.63,49.25-.09.01-.18.02-.27.02ZM1384.42,368.73c-1.27,0-2.58.07-3.93.21-27.29,2.9-210.34,65.7-287.78,92.57-32.5,11.28-54.34,41.83-54.34,76.03,0,41.25,31.14,75.67,72.43,80.08l272.93,29.13c2.85-.46,28.05-5.62,40.74-46.16,13.4-42.77-.52-184.72-.94-188.97-.5-2.72-8.46-42.89-39.12-42.89Z"/>
            </g>
            <g>
              <ellipse class="st1" cx="1386.54" cy="508" rx="75.82" ry="141.2"/>
              <path d="M1386.54,651.4c-43.02,0-78.02-64.33-78.02-143.4s35-143.4,78.02-143.4,78.02,64.33,78.02,143.4-35,143.4-78.02,143.4ZM1386.54,369c-40.59,0-73.62,62.35-73.62,139s33.02,139,73.62,139,73.61-62.35,73.61-139-33.02-139-73.61-139Z"/>
            </g>
            <path d="M1337.15,567.45c-1.15,0-2.12-.9-2.2-2.07-.08-1.21.85-2.26,2.06-2.33,19.63-1.22,38.21-14.02,46.23-31.86,8.02-17.83,5.22-40.11-6.96-55.44-9.56-12.03-24.75-19.66-40.64-20.41-1.22-.06-2.15-1.09-2.1-2.3.06-1.22,1.13-2.11,2.3-2.1,17.14.81,33.54,9.06,43.88,22.07,13.18,16.58,16.21,40.69,7.53,59.99-8.67,19.29-28.76,33.13-49.98,34.45-.05,0-.09,0-.14,0Z"/>
            <path d="M1409.59,618.85c-.4,0-.81-.11-1.18-.34-1.03-.65-1.33-2.02-.68-3.04,15.87-24.93,26.3-53.4,30.16-82.33,5.21-39.03-1.44-80.05-18.71-115.48-2.44-5.02-5.01-9.57-7.64-13.53-.67-1.01-.4-2.38.62-3.05,1.02-.67,2.38-.4,3.05.62,2.74,4.12,5.41,8.84,7.93,14.03,17.65,36.21,24.44,78.11,19.12,117.99-3.94,29.56-14.6,58.65-30.81,84.11-.42.66-1.13,1.02-1.86,1.02Z"/>
          </g>
          <path class="st1" d="M1045.31,763.9s83.3,14.81,130.15-19.17l-9.56-20.69s12.37-12.15-.16-16.6c0,0,11.65-23.07-8.59-24.44,0,0,13.47-30.09-17.64-24.38,0,0,18.69-33.95-16.16-25.74-27.57,6.49-33.33,15.41-33.33,15.41,0,0,15.38-37.83-3.9-33.92-6.06,1.23-15.32,5.2-25.1,11.25-31.42,19.43-44.73,58.19-32.2,92.78l16.48,45.49Z"/>
          <path d="M1072.45,833.25c-.88,0-1.72-.53-2.05-1.41l-43.62-112.63c-12.87-35.51,1.05-75.64,33.09-95.45,9.49-5.87,19.14-10.18,25.82-11.54,5.41-1.09,8.32.82,9.81,2.61,4.67,5.63,1.89,18.27-.71,26.6,5.09-3.24,13.75-7.32,28.05-10.69,10.73-2.52,17.98-1.43,21.54,3.26,4.67,6.15,1.35,16.3-1.08,21.88,7.59-.72,13.01.92,16.12,4.88,4.77,6.08,2.39,15.72.79,20.42,4.38.83,7.52,2.87,9.34,6.07,3.56,6.25.73,15.06-.9,19.07,2.6,1.38,4.18,3.29,4.71,5.71,1.09,4.93-2.81,10.14-4.84,12.44l7.7,16.65c.51,1.11.03,2.41-1.08,2.92-1.1.52-2.41.03-2.92-1.07l-8.32-17.99c-.39-.84-.21-1.84.45-2.49,1.45-1.43,5.43-6.25,4.71-9.5-.32-1.45-1.69-2.61-4.06-3.45-.59-.21-1.07-.67-1.31-1.26-.24-.59-.21-1.25.08-1.81,1.52-3.02,4.83-11.98,1.95-17.04-1.43-2.5-4.36-3.92-8.72-4.21-.72-.05-1.37-.45-1.74-1.06-.37-.62-.42-1.38-.12-2.03,1.56-3.49,4.74-13.65.81-18.64-2.57-3.26-7.96-4.16-16.04-2.67-.83.15-1.69-.19-2.18-.88-.5-.69-.55-1.6-.15-2.35,2.24-4.08,7.19-15.78,3.29-20.91-3-3.95-10.91-3.07-17.02-1.63-25.99,6.12-31.94,14.41-32,14.49-.64.92-1.88,1.23-2.87.7-.99-.53-1.43-1.71-1-2.76,3.67-9.03,8.03-25.11,4.12-29.82-.39-.48-1.58-1.91-5.54-1.11-6.19,1.25-15.3,5.35-24.38,10.96-30.27,18.72-43.43,56.64-31.28,90.16l43.61,112.59c.44,1.14-.12,2.41-1.26,2.85-.26.1-.53.15-.8.15Z"/>
          <path d="M1065.27,704.91l34.17,65.78c5.84,11.24,19.38,16.15,31.13,11.3,12.68-5.24,18.54-19.81,12.97-32.28l-2.24-5.01s-25.25,4.55-15.35-12.25c0,0-28.58,3.38-14.45-18.8,0,0-7.02,2.31-13.23-.5-9.08-4.1-16.43-15.57,2.4-31.69-14.55,6.28-28.22,3.77-28.22,3.77,0,0-3.67,12.66-7.18,19.69Z"/>
          <path d="M1089.13,689.94c-.78,0-1.54-.42-1.94-1.15-.58-1.07-.18-2.41.89-2.99,14.85-8.03,29.72-16.49,44.21-25.15,1.04-.62,2.4-.28,3.02.76.62,1.04.28,2.4-.76,3.02-14.55,8.7-29.48,17.19-44.38,25.25-.33.18-.69.26-1.05.26Z"/>
          <path d="M1097.97,724.17c-.79,0-1.56-.43-1.95-1.18-.56-1.08-.15-2.41.93-2.97,19.63-10.3,38.9-21.82,57.25-34.25,1.01-.68,2.38-.42,3.06.59.68,1.01.42,2.38-.59,3.06-18.49,12.52-37.9,24.13-57.68,34.5-.33.17-.68.25-1.02.25Z"/>
          <path d="M1115.48,740.05c-.78,0-1.53-.41-1.93-1.14-.59-1.07-.19-2.41.87-2.99l42.8-23.43c1.07-.59,2.41-.19,2.99.87.59,1.07.19,2.41-.87,2.99l-42.8,23.43c-.34.18-.7.27-1.06.27Z"/>
          <path d="M1075.01,689.29s-.08,0-.12,0c-6.14-.32-10.21-6.12-10.61-11.55-.83-11.55,7.47-22.1,24.68-31.38,1.07-.58,2.41-.18,2.98.89.58,1.07.18,2.41-.89,2.98-15.54,8.38-23.07,17.53-22.38,27.19.25,3.46,2.9,7.28,6.44,7.46,1.21.06,2.15,1.1,2.09,2.31-.06,1.18-1.03,2.09-2.2,2.09Z"/>
          <g>
            <g>
              <path class="st1" d="M686.78,1045.44s9.27,2.99,10.7-7.02c1.29-9.01-31.05-51.22-126.03-55.84-9.69-.47-18.46-.83-26.42-1.09-5.39,21.81-13.48,64.74-5.1,101.05,28.45-9.52,57.56-16.65,81.55-7.03,42.38,17.01,14.01-10.48,14.01-10.48,0,0,29.38,16.62,33.27,9.91,5.18-8.92-17.99-23.32-28.06-29.03-2.77-1.49-4.48-2.45-4.48-2.45,0,0,1.77.91,4.48,2.45,11.32,6.06,40.69,20.92,47.35,15.64,8.29-6.57-1.28-16.11-1.28-16.11Z"/>
              <path d="M539.93,1084.74c-.37,0-.74-.09-1.08-.28-.54-.3-.93-.82-1.07-1.43-8.45-36.62-.43-79.67,5.11-102.07.25-1.01,1.17-1.73,2.21-1.67,8.29.28,17.19.64,26.45,1.09,82.05,3.99,113.89,35.14,121.69,44.59,4.54,5.5,6.88,10.52,6.41,13.76-.53,3.69-2.05,6.35-4.54,7.9-1.21.75-2.49,1.14-3.7,1.31,1.25,2.12,2.37,4.86,2.21,7.76-.17,2.95-1.58,5.5-4.2,7.58-4.09,3.25-14.01.86-25.3-3.71,3.62,3.4,6.37,6.9,7.26,10.19.62,2.3.38,4.42-.71,6.3-3.26,5.62-15.87,1.12-26.16-3.81,2.07,3.21,3.26,6.5,1.78,8.78-1.73,2.67-6.14,4.36-25.63-3.47-23.53-9.45-52.37-2.19-80.03,7.07-.23.08-.46.11-.7.11ZM546.75,983.75c-5.29,21.94-12.38,61.64-5.19,95.92,27.75-9.14,56.57-15.92,80.74-6.21,17.68,7.1,20.23,5.2,20.33,5.12.38-1.39-3.81-7.26-8.67-11.98-.8-.77-.89-2.01-.23-2.9.66-.89,1.88-1.15,2.85-.6,15.48,8.76,28.99,12.93,30.29,10.72.49-.85.58-1.78.27-2.93-1.5-5.53-11.78-14.16-27.51-23.08-2.76-1.48-4.48-2.45-4.48-2.45-1.04-.59-1.42-1.91-.85-2.96.57-1.06,1.88-1.45,2.95-.91,0,0,1.8.93,4.56,2.49,26.72,14.32,41.81,18.27,44.89,15.84,1.61-1.28,2.44-2.71,2.54-4.38.23-4.11-3.96-8.41-4-8.45-.72-.72-.86-1.84-.33-2.71.53-.87,1.58-1.25,2.55-.95.08.02,3.15.94,5.36-.45,1.32-.84,2.16-2.44,2.5-4.78.16-1.1-.78-4.68-5.45-10.33-7.51-9.1-38.26-39.1-118.51-43-8.58-.42-16.84-.76-24.59-1.03Z"/>
            </g>
            <path d="M684.34,1046.32c-.44,0-.88-.13-1.26-.4-14.2-9.96-28.27-17.57-40.69-22-1.15-.41-1.74-1.67-1.33-2.81.41-1.15,1.67-1.74,2.82-1.33,16.16,5.77,31.62,15.44,41.74,22.55,1,.7,1.24,2.07.54,3.07-.43.61-1.11.94-1.81.94Z"/>
          </g>
        </g>
        <g>
          <g>
            <path class="st2" d="M647.5,705.7s61.56-22.74,88.03-28.63l52.77,264.5-131.69,50.74-9.11-286.61Z"/>
            <path d="M691.12,951.64c-1.14,0-2.11-.88-2.19-2.03l-17.82-233.59c-.09-1.21.82-2.27,2.03-2.36,1.21-.11,2.27.82,2.36,2.03l17.82,233.59c.09,1.21-.82,2.27-2.03,2.36-.06,0-.11,0-.17,0Z"/>
            <path d="M735.59,926.89c-1.05,0-1.98-.76-2.17-1.83l-30.3-176.1c-.21-1.2.6-2.34,1.8-2.54,1.19-.21,2.34.6,2.54,1.8l30.3,176.1c.21,1.2-.6,2.34-1.8,2.54-.13.02-.25.03-.38.03Z"/>
          </g>
          <g>
            <path class="st2" d="M872.14,552.87s23.62-31.37-14.45-66.41c-38.07-35.04-94.85-2.01-107.8,33.4-12.96,35.41-8.66,86.85-2.37,95.57,6.35,8.81,10.7,8.9,10.7,8.9,0,0-17.26,12.02-6.19,24.88,0,0-25.01,9.96-13.23,25.91l-51.33,16.13s56.02,39.56,112.81,28.95c56.79-10.6,86.96-41.22,86.96-41.22l-36.79-10.41s20.21-11.58,4.77-26.96c0,0,10.18-26.37-2.91-33.9-13.09-7.54,19.85-54.83,19.85-54.83Z"/>
            <path d="M742.86,718.82c-.19,0-.39-.03-.59-.08-31.95-8.82-55.85-25.54-56.09-25.71-.99-.7-1.23-2.07-.53-3.07.7-.99,2.08-1.23,3.07-.53.23.16,23.55,16.46,54.72,25.06,1.17.32,1.86,1.54,1.54,2.71-.27.98-1.16,1.62-2.12,1.62Z"/>
            <path d="M799.72,547.1s-.06,0-.09,0c-1.22-.05-2.16-1.07-2.12-2.28,1.36-35.22,15.52-49.95,16.12-50.56.85-.86,2.25-.87,3.11-.02s.87,2.25.02,3.11c-.18.19-13.58,14.35-14.86,47.63-.05,1.19-1.02,2.12-2.2,2.12Z"/>
            <path d="M758.21,626.52c-1.21,0-2.19-.97-2.2-2.18-.01-1.22.96-2.21,2.18-2.23,32.21-.33,54.99-5.11,55.22-5.16,1.19-.27,2.36.5,2.61,1.69.25,1.19-.5,2.36-1.69,2.61-.23.05-23.41,4.92-56.09,5.26h-.02Z"/>
            <path d="M794.24,646.26c-1.38,0-2.13-.05-2.28-.06-1.21-.09-2.12-1.14-2.03-2.36.09-1.21,1.15-2.14,2.35-2.03.19.01,19.3,1.2,60.11-11.01,1.16-.34,2.39.31,2.74,1.48.35,1.17-.31,2.39-1.48,2.74-34.15,10.22-53.19,11.24-59.41,11.24Z"/>
            <path d="M787.23,703.65c-42.62,0-50.5-27.66-50.58-27.98-.26-.97.18-1.99,1.05-2.48.87-.49,1.97-.33,2.67.39.17.17,18.6,17.85,77.9,3.52,1.17-.29,2.37.44,2.66,1.62.28,1.18-.44,2.37-1.62,2.66-42.62,10.31-65.03,4.63-75.16-.22,6.19,9.31,23.21,24.17,66.82,15.56,1.2-.24,2.35.54,2.59,1.74.24,1.19-.54,2.35-1.73,2.59-9.26,1.83-17.41,2.61-24.58,2.61Z"/>
          </g>
          <g>
            <path class="st1" d="M796.53,591.64s31.63,30.73,66.14,9.45c34.51-21.29,19.58-62.86,10.58-76.1-9-13.24-16.36-17.26-16.36-17.26,0,0-10.88,37.36-56.7,36.31-1.66-.04-3.66,47.6-3.66,47.6Z"/>
            <path d="M851.69,610.85c-.96,0-1.84-.63-2.12-1.6-.34-1.17.34-2.39,1.51-2.72,4.06-1.17,6.93-2.46,10.97-4.96,26.75-16.5,24.31-49.6,16.13-67.82-.5-1.11,0-2.41,1.11-2.91,1.11-.5,2.41,0,2.91,1.11,8.81,19.64,11.33,55.38-17.84,73.37-4.37,2.69-7.64,4.17-12.07,5.44-.2.06-.41.09-.61.09Z"/>
          </g>
        </g>
      </g>
      <g>
        <path d="M1835.12,1237.63s8.27-43.68-12.54-81.71c-13.18-24.08-57.32-35.6-47.98-64.76,6.31-19.7,6.01-32.81-7.23-48.35-30-35.24-92.8-21.08-124.79,7.78-12.08,10.9-29.51,38.97-36.1,53.74-4.17,9.36-6.98,18.4-15.39,25.01-11.44,8.98-25.65,13.34-39.46,17.19-13.66,3.8-27.81,7.15-40.17,14.35-10.89,6.34-19.21,15.62-24.15,27.21-9.68,22.69-7.15,48.36-11.43,72.21-2.17,12.08-6.26,23.99-14.41,33.39-9.77,11.26-23.83,17.15-37.73,21.53-14.22,4.48-28.92,7.62-42.61,13.65-12.19,5.37-23.02,13.42-31.87,23.36-17.7,19.88-27.59,46.9-26.11,73.54,1.6,28.95,17.56,54.96,39.48,73.27,24.5,20.48,55.32,30.91,86.73,34.55,31.87,3.7,64.58,1.42,96.13-3.93,29.98-5.09,59.4-13.47,87.61-24.83,28.22-11.37,55.27-25.71,80.52-42.67,25.24-16.95,94.94-13.11,94.94-13.11,0,0,97.93,10.11,123.61-72.45,22.95-73.76-97.07-138.96-97.07-138.96Z"/>
        <g>
          <g>
            <path class="st1" d="M2350.77,2145.13l-55.8-48.4c-80.01-40.1-144.22-35.9-206.62-1.36l13.31,49.99c6.48,10.82,18.17,17.44,30.79,17.44h213.07c9.57,0,13.27-12.45,5.25-17.67Z"/>
            <path d="M2345.52,2165h-213.07c-13.32,0-25.84-7.09-32.68-18.51-.11-.18-.19-.37-.24-.56l-13.31-49.99c-.26-.98.18-2,1.06-2.49,66.81-36.98,133.11-36.56,208.68,1.32.16.08.32.18.46.3l55.69,48.31c4.39,2.94,6.26,8.1,4.75,13.18-1.52,5.14-5.97,8.45-11.33,8.45ZM2103.71,2144.48c6.08,9.95,17.06,16.11,28.74,16.11h213.07c4.08,0,6.35-2.74,7.11-5.3.76-2.56.36-6.1-3.06-8.32-.08-.06-.16-.12-.24-.18l-55.59-48.22c-74.49-37.27-137.13-37.93-202.82-2.11l12.79,48.02Z"/>
          </g>
          <g>
            <path class="st1" d="M1197.05,1993.75c-7.92-.4-15.78,1.7-22.34,5.98-71.25,46.53-115.56,103.06-137,135.23-7.4,11.1.91,25.7,14.59,25.7h109.29c45.6-31.92,79.02-85.67,79.02-164.7l-43.56-2.21Z"/>
            <path d="M1161.59,2162.86h-109.29c-7.33,0-13.98-3.92-17.35-10.23-3.25-6.08-2.91-13.14.93-18.89,20.27-30.41,65.1-88.49,137.63-135.85,6.91-4.51,15.32-6.75,23.66-6.34h0l43.56,2.21c1.17.06,2.09,1.03,2.09,2.2,0,91.35-43.48,140.97-79.96,166.5-.37.26-.81.4-1.26.4ZM1195.17,1995.9c-6.84,0-13.61,1.99-19.26,5.67-71.87,46.94-116.29,104.48-136.37,134.61-2.92,4.37-3.18,9.75-.71,14.37,2.65,4.95,7.68,7.9,13.47,7.9h108.59c35.22-24.86,76.86-72.75,77.51-160.41l-41.46-2.11c-.59-.03-1.18-.05-1.77-.05Z"/>
          </g>
          <g>
            <path class="st2" d="M1739.2,1811.78l264.3-5.18,82.71,290.06c69.52,5.21,139.46,5.24,208.99.07l-149.99-423.03c-20.8-35.72-59.03-57.68-100.37-57.68h-441.76l136.12,195.77Z"/>
            <path class="st2" d="M1845.05,1620.66l-25.71-74.66-222.97,16.45c-30.94,17.25-104.59,433.18-104.59,433.18l-262.32-3.46c-31.87,54.09-58.38,111.34-79.02,170.63l447.59.21c46.92.02,87.43-32.84,97.05-78.74,24.24-115.68,69.91-301.18,69.91-301.18l119.24-8.53-39.17-153.9Z"/>
            <path d="M2031.72,1809.51h-29.18c-1.22,0-2.2-.99-2.2-2.2s.99-2.2,2.2-2.2h29.18c1.22,0,2.2.99,2.2,2.2s-.99,2.2-2.2,2.2Z"/>
            <path d="M1486.72,2031.69c-.13,0-.26-.01-.4-.04-1.2-.22-1.99-1.36-1.77-2.56l6.35-34.91c.22-1.2,1.36-2.01,2.56-1.77,1.2.22,1.99,1.36,1.77,2.56l-6.35,34.91c-.19,1.06-1.12,1.81-2.16,1.81Z"/>
            <path d="M1757.24,1814.71c-.14,0-.29-.01-.44-.04-1.19-.24-1.96-1.4-1.73-2.59l10.62-52.97c.24-1.19,1.39-1.97,2.59-1.73,1.19.24,1.96,1.4,1.73,2.59l-10.62,52.97c-.21,1.05-1.13,1.77-2.16,1.77Z"/>
          </g>
        </g>
        <g>
          <g>
            <g>
              <path class="st1" d="M1898.62,952.9s-22.03-91.2-21.3-107.13c.74-15.93,22.86-9.61,28.02,16.54,0,0-12.2-79.39,10.47-77.45,0,0-3.04-18.37,12.13-18.33l10.69,2.83s15.75,2.03,23.65,21.37c3.66,8.95,14.69,69,24.75,139.85l-88.41,22.32Z"/>
              <path d="M1898.62,955.1c-.99,0-1.89-.68-2.14-1.69-.9-3.74-22.1-91.69-21.35-107.75.29-6.24,3.7-10.36,8.9-10.74,5.61-.42,12.19,3.46,17.13,10.91-1.83-19.45-3.01-49.98,6.13-59.76,1.76-1.88,3.81-3,6.11-3.34-.17-3.43.11-9.65,3.76-13.93,2.53-2.99,6.1-4.41,10.79-4.48.19,0,.38.03.56.07l10.57,2.79c1.85.28,17.29,3.22,25.25,22.7,3.67,9,14.55,67.55,24.89,140.38.17,1.2-.67,2.32-1.87,2.49-1.21.17-2.32-.67-2.49-1.87-10.14-71.43-21.11-130.76-24.61-139.33-7.28-17.83-21.31-19.94-21.9-20.02-.09-.01-.19-.03-.27-.05l-10.41-2.75c-3.17.04-5.51,1-7.14,2.91-3.83,4.49-2.55,12.77-2.53,12.86.11.67-.1,1.35-.56,1.85-.46.5-1.12.78-1.8.7-2.03-.16-3.66.47-5.12,2.04-9.99,10.69-5.54,56.23-2.98,72.88.18,1.19-.62,2.3-1.8,2.51-1.19.2-2.31-.57-2.54-1.74-3.15-15.96-12.99-23.85-18.84-23.42-3.95.29-4.72,4.23-4.83,6.55-.71,15.44,21.02,105.6,21.24,106.51.28,1.18-.44,2.37-1.62,2.66-.17.04-.35.06-.52.06Z"/>
            </g>
            <path d="M1948.73,877.98c-.28,0-.57-.05-.85-.17-1.12-.47-1.65-1.76-1.18-2.88,4.96-11.86,3.6-25.34,1.61-36.95-.43-2.54-.91-5.08-1.39-7.63-1.91-10.17-3.87-20.69-3.12-31.27.62-8.73,4.19-14.72,9.79-16.44,1.16-.36,2.39.3,2.75,1.46.36,1.16-.3,2.39-1.46,2.75-5.5,1.68-6.51,10.02-6.68,12.53-.71,10.02,1.21,20.25,3.06,30.14.48,2.57.96,5.13,1.4,7.7,2.09,12.24,3.5,26.48-1.89,39.39-.35.85-1.17,1.35-2.03,1.35Z"/>
            <path d="M1933.35,900.52c-.71,0-1.4-.34-1.82-.97-6.04-8.91-13.4-16.78-21.87-23.41-.96-.75-1.13-2.13-.38-3.09.75-.96,2.13-1.13,3.09-.38,8.83,6.91,16.5,15.13,22.8,24.41.68,1.01.42,2.38-.59,3.06-.38.26-.81.38-1.23.38Z"/>
            <path d="M1937.7,853.65c-1.02,0-1.94-.71-2.15-1.75-3.3-15.84-6.02-32-8.06-48.05-1.26-9.9-1.6-20.97,5.44-28.06.85-.87,2.25-.87,3.11-.01.86.86.87,2.25.01,3.11-5.69,5.73-5.38,15.12-4.19,24.4,2.03,15.93,4.72,31.98,8,47.71.25,1.19-.52,2.36-1.71,2.6-.15.03-.3.05-.45.05Z"/>
            <path d="M1922.59,855.38c-.97,0-1.86-.65-2.13-1.63-6.01-22.52-8.49-45.74-7.38-69.02.06-1.21,1.09-2.12,2.31-2.09,1.22.06,2.15,1.09,2.09,2.31-1.09,22.83,1.34,45.6,7.23,67.67.31,1.17-.39,2.38-1.56,2.69-.19.05-.38.08-.57.08Z"/>
          </g>
          <g>
            <g>
              <g>
                <path class="st1" d="M1987.03,930.58c11.68,82.29,22.04,179.14,17.99,227.43-7.53,89.86-205.04,216.97-205.04,216.97l-22.22-124.99,121.46-126.67-.61-170.42,88.41-22.32Z"/>
                <path d="M1799.98,1377.18c-.3,0-.6-.06-.88-.18-.68-.3-1.16-.91-1.29-1.63l-22.22-124.99c-.12-.69.09-1.4.58-1.91l120.85-126.03-.61-169.53c0-1.22.98-2.21,2.19-2.21h0c1.21,0,2.2.98,2.2,2.19l.61,170.42c0,.57-.22,1.12-.61,1.53l-120.69,125.86,21.44,120.6c23.96-15.87,194.39-131.49,201.26-213.48,4.77-56.89-10.98-177.65-17.98-226.93-.17-1.2.67-2.32,1.87-2.49,1.21-.17,2.32.67,2.49,1.87,7.02,49.43,22.82,170.58,18.01,227.92-7.54,89.91-197.94,213.43-206.05,218.64-.36.23-.78.35-1.19.35Z"/>
              </g>
              <path d="M1908.17,951.65c-1.11,0-2.06-.84-2.19-1.96-.13-1.21.74-2.3,1.95-2.43,26.09-2.84,51.61-9.36,75.86-19.4,1.12-.46,2.41.07,2.88,1.19.47,1.12-.07,2.41-1.19,2.88-24.63,10.2-50.56,16.83-77.07,19.71-.08,0-.16.01-.24.01Z"/>
            </g>
            <g>
              <path class="st1" d="M1790.77,1225.76c-51.52-5.1-133.33,2.32-190.29-3.33-5.27-.52-35.82,276.26-56.62,378.09-3.51,17.17,17.39,31.33,34.46,27.33l265.53-62.18c11.68-2.74,19.94-13.15,19.94-25.14l-2.72-260.22-.89-11.57c-9.8-29.14-38.81-39.96-69.41-42.99Z"/>
              <path d="M1566.88,1630.88c-6.6,0-13-2.54-17.87-7.27-6.31-6.12-9.04-14.92-7.31-23.54,10.13-50.24,29.75-225.2,29.95-226.96.01-.1.03-.19.05-.29.09-.37,9.28-37.02,18.66-73.23,19.38-74.74,20.37-74.83,22.56-75.03,63.58-5.65,188.36-2.13,189.61-2.1,1.22.04,2.17,1.05,2.14,2.27-.04,1.22-1.08,2.13-2.26,2.14-1.24-.04-124.32-3.51-187.98,1.98-3.93,9.48-24.85,90.71-38.42,144.89-.67,5.98-19.95,177.4-29.99,227.2-1.44,7.14.82,14.43,6.06,19.5,5.24,5.08,12.61,7.11,19.72,5.45l268.86-62.54c12.31-2.92,20.78-13.79,20.6-26.44l-2.34-163.06c-.02-1.22.95-2.22,2.17-2.23,1.19.04,2.22.95,2.23,2.17l2.34,163.06c.21,14.73-9.66,27.39-23.99,30.79l-268.87,62.54c-1.97.46-3.95.69-5.92.69Z"/>
              <path d="M1861.12,1376.04c-1.22,0-2.2-.99-2.2-2.2v-57.3c0-7.12,3.79-13.81,9.9-17.47l1.67-1c1.05-.62,2.4-.28,3.02.76.62,1.05.28,2.4-.76,3.02l-1.67,1c-4.79,2.86-7.77,8.11-7.76,13.69v57.3c0,1.22-.98,2.2-2.2,2.2Z"/>
            </g>
            <g>
              <path class="st1" d="M1461.39,902.2c-4.57,77.66-8.7,177.07-.03,229.08,14.82,88.96,131.02,243.7,131.02,243.7l61.18-108.57-89.57-178.29-17.98-175.6-45.78-9.56-38.84-.75Z"/>
              <path d="M1578.16,1357.83c-.67,0-1.33-.3-1.76-.88-1.02-1.36-102.48-136.85-117.21-225.31-9.49-56.95-3.53-179.48-.53-229.51.07-1.22,1.09-2.1,2.33-2.07,1.21.07,2.14,1.12,2.07,2.33-2.99,49.89-8.93,172.01.48,228.53,14.56,87.41,115.37,222.03,116.39,223.38.73.97.54,2.35-.43,3.08-.4.3-.86.44-1.32.44Z"/>
              <path d="M1629.05,1215.48c-.8,0-1.56-.43-1.96-1.19l-65.07-125.17c-.13-.25-.21-.52-.24-.79l-17.13-169.88c-.12-1.21.76-2.29,1.97-2.41,1.21-.08,2.29.76,2.41,1.97l17.09,169.46,64.87,124.79c.56,1.08.14,2.41-.94,2.97-.32.17-.67.25-1.01.25Z"/>
              <path d="M1546.01,919.31h-.06c-26.05-.7-59.71-6.57-85.77-14.95-1.16-.37-1.79-1.61-1.42-2.77.37-1.16,1.61-1.8,2.77-1.42,25.69,8.27,58.88,14.05,84.54,14.74,1.22.03,2.18,1.05,2.14,2.26-.03,1.2-1.01,2.14-2.2,2.14Z"/>
            </g>
          </g>
          <g>
            <path class="st2" d="M1911.95,899.95c-46.18,51.15-109.29,81.18-178.27,84.71-70.61,3.62-137.35-22.29-188.99-70.65-48.71-45.6-78.02-106.45-81.46-173.64-3.44-67.18,18.79-131.91,62.58-182.26,48.28-55.56,115.8-87.81,185.2-88.57,18.93-.21,46.91.95,72.67,7.65,43.34,11.27,81.45,32.09,113.27,61.88,48.71,45.6,77.42,107.72,80.86,174.91,3.44,67.18-18.79,131.91-62.58,182.26-1.08,1.25-2.18,2.49-3.28,3.71ZM1562.19,584.11c-.95,1.05-1.88,2.1-2.81,3.17-74.38,85.52-67.6,218.1,15.13,295.55,42.75,40.02,98.47,60.42,156.9,57.42,58.45-2.99,111.82-29.03,150.26-73.19,74.38-85.52,67.6-218.1-15.13-295.55-26.34-24.66-57.98-41.92-94.06-51.3-16.39-4.26-38.05-6.47-60.99-6.22-55.38.61-109.57,26.11-149.31,70.11Z"/>
            <rect class="st2" x="1973.99" y="847.78" width="46.9" height="289.02" transform="translate(-77.66 1809.83) rotate(-47.92)"/>
            <rect class="st2" x="1926.34" y="994.12" width="198.24" height="46.9" transform="translate(-87.18 1838.97) rotate(-47.92)"/>
          </g>
          <g>
            <path class="st1" d="M1547.13,915.33c8.67-22.66,1.32-39.57-19.18-63.75-31.08-36.65-32.62-68.43-36.68-85.53-2.1-8.83-8.2-15.2-17.17-13.83-3.45.53-6.59,1.85-8.52,4.54,0,0-25.55,29.97-6.2,85.72,2.96,8.53,15.76,53.77,8.94,59.71l78.8,13.13Z"/>
            <path d="M1546.65,918.46c-.26,0-.53-.05-.79-.15-1.14-.43-1.7-1.71-1.27-2.84,7.94-20.73,2.88-37.59-18.67-62.24-27.61-31.57-32.27-58.02-35.35-75.52-.61-3.44-1.18-6.68-1.84-9.48-1.98-8.33-8.02-12.98-15.38-11.84-3.31.51-5.69,1.74-7.06,3.65-.36.43-24.57,29.94-5.9,83.72,3.03,8.72,17.7,52.58,9.39,59.82-.92.8-2.31.7-3.11-.21-.8-.92-.7-2.31.21-3.11,3.88-3.38-2.38-31.19-10.66-55.05-19.54-56.3,5.52-86.61,6.6-87.87,1.98-2.77,5.33-4.6,9.86-5.29,9.64-1.48,17.82,4.62,20.33,15.18.7,2.92,1.28,6.23,1.89,9.73,3,17.02,7.53,42.74,34.33,73.39,22.52,25.76,27.98,44.47,19.46,66.71-.34.88-1.17,1.42-2.06,1.42Z"/>
            <path d="M1475.04,827.87c-.84,0-1.65-.49-2.01-1.31-8.44-18.98-16.73-41.28-14.26-62.74.14-1.21,1.24-2.1,2.44-1.94,1.21.14,2.08,1.23,1.94,2.44-2.35,20.4,5.72,42.01,13.91,60.44.49,1.11,0,2.41-1.12,2.91-.29.13-.59.19-.89.19Z"/>
          </g>
          <path d="M1576.77,1367.97c-.09,0-.18,0-.28-.02-1.21-.15-2.06-1.25-1.91-2.46l4.4-35.02c.5-3.96-.32-8.06-2.3-11.53l-1.67-2.4c-.69-1-.44-2.37.56-3.06,1-.69,2.37-.44,3.06.56l1.77,2.56c2.55,4.45,3.56,9.51,2.95,14.42l-4.4,35.03c-.14,1.11-1.09,1.93-2.18,1.93Z"/>
        </g>
        <g>
          <g>
            <path class="st1" d="M1754.36,1196.59l-10.51,57.44c-2.94,16.05-18.15,26.84-34.28,24.3-17.24-2.71-28.55-19.47-24.63-36.46l11.06-47.91,58.36,2.64Z"/>
            <path d="M1714.4,1280.9c-1.7,0-3.43-.13-5.17-.41-8.95-1.41-16.67-6.32-21.74-13.83-5.06-7.5-6.73-16.49-4.7-25.31l11.06-47.91c.24-1.04,1.17-1.74,2.25-1.71l58.36,2.64c.63.03,1.23.33,1.62.83.4.5.56,1.14.44,1.77l-10.51,57.44c-2.86,15.64-16.25,26.48-31.62,26.48ZM1697.74,1196.23l-10.64,46.12c-1.76,7.62-.32,15.38,4.06,21.85,4.38,6.48,11.04,10.72,18.77,11.94,15.06,2.37,29.02-7.52,31.77-22.52l10.05-54.95-54-2.44Z"/>
          </g>
          <g>
            <g>
              <path class="st1" d="M1753.81,1092.95s44.34,83.85,20.74,106.06c-24.37,22.94-64.77,12.42-88.56-16.96,0,0-40.36,2.25-41.41-25.04-.97-25.42,19.36-24.07,36.51-5.46,0,0,15.04,2.52,13.3-5.17-1.75-7.69-8.4-25.18-8.4-25.18,0,0,0-16.79,33.59-18.19,15.77-.66,34.24-10.07,34.24-10.07Z"/>
              <path d="M1742.32,1213.68c-1.3,0-2.62-.05-3.94-.13-19.37-1.31-39.26-12.22-53.41-29.25-4.86.13-23.89-.14-34.85-10.11-4.88-4.44-7.48-10.19-7.75-17.08-.55-14.34,5.52-19.02,9.19-20.53,8.22-3.39,19.9,1.56,30.6,12.92,3.41.46,8.43.43,9.84-1.06.14-.15.47-.5.23-1.56-1.7-7.46-8.24-24.71-8.31-24.88-.1-.25-.14-.52-.14-.78,0-.77.41-18.92,35.7-20.39,15.11-.63,33.15-9.74,33.33-9.83,1.07-.55,2.39-.13,2.95.93,1.84,3.48,44.84,85.6,20.3,108.7-9.12,8.59-20.72,13.06-33.74,13.06ZM1685.99,1179.85c.66,0,1.29.3,1.71.82,13.43,16.58,32.49,27.23,50.98,28.48,13.38.93,25.25-3.16,34.37-11.74,20.24-19.05-13.9-89.1-20.2-101.54-5.26,2.46-19.97,8.8-33.17,9.35-28.45,1.19-31.19,13.35-31.45,15.66,1.08,2.86,6.69,17.87,8.32,25.02.63,2.77-.37,4.56-1.32,5.56-3.65,3.86-12.71,2.57-14.49,2.27-.48-.08-.92-.32-1.25-.68-9.27-10.07-19.81-15.06-26.22-12.41-4.5,1.86-6.8,7.64-6.47,16.29.22,5.67,2.34,10.38,6.31,13.99,11.02,10.03,32.55,8.95,32.77,8.94.04,0,.08,0,.12,0Z"/>
            </g>
            <path d="M1682.98,1170.4c-.58,0-1.16-.23-1.59-.68-4.14-4.35-11.03-6.09-16.74-4.25-1.16.37-2.4-.26-2.77-1.42-.37-1.16.26-2.4,1.42-2.77,7.38-2.38,15.93-.21,21.28,5.4.84.88.81,2.28-.07,3.11-.43.41-.97.61-1.52.61Z"/>
          </g>
        </g>
      </g>
      <g>
        <path d="M2731.56,558.97s9.41-94.56,108.69-85.21c99.29,9.35,124.34,98.78,97.08,182.45-21.25,65.23-21.54,130.91,14,118.2,105.21-37.61,130.75,182.11-34.44,186.36-226.47,5.83-131.76-273.62-116.36-305.16,17.77-36.37,9.41-97.68-53.3-78.98s-15.68-17.67-15.68-17.67Z"/>
        <g>
          <g>
            <g>
              <g>
                <path class="st1" d="M2844.95,1480.66s46.55,182.78,76.48,252.66c22.86,53.39,108.78,185.44,148.05,244.78,11.55,17.45,9.8,40.73-4.23,56.18l-77.97,85.88c-24.12,26.57-57.97,41.66-93.43,41.66h-21.85c-10.55,0-17.09-11.73-11.71-21.01l22.35-38.59s-155.23-276.69-176.39-339.79c-21.16-63.11-6.96-300.69-6.96-300.69l145.67,18.92Z"/>
                <path d="M2893.84,2164.02h-21.85c-5.67,0-10.77-2.97-13.63-7.95-2.96-5.13-2.95-11.24.01-16.36l21.72-37.5c-10.71-19.13-155.63-278.51-175.94-339.08-21.06-62.79-7.65-291.8-7.07-301.52.04-.61.32-1.18.79-1.57.47-.39,1.08-.56,1.69-.49l145.67,18.92c.89.12,1.63.77,1.85,1.64.46,1.83,46.85,183.42,76.37,252.34,23,53.71,111.07,188.83,147.86,244.43,12.17,18.39,10.35,42.6-4.43,58.87l-77.97,85.88c-24.46,26.94-59.1,42.38-95.06,42.38ZM2701.34,1464.23c-1.39,24.92-12.68,238.86,6.98,297.5,20.85,62.19,174.67,336.65,176.22,339.42.38.68.38,1.51-.02,2.18l-22.35,38.59c-2.17,3.74-2.17,8.21,0,11.96,2.07,3.6,5.74,5.74,9.82,5.74h21.85c34.72,0,68.18-14.92,91.8-40.94l77.97-85.88c13.42-14.79,15.08-36.78,4.02-53.48-36.86-55.7-125.1-191.09-148.24-245.12-28.24-65.95-71.74-234.13-76.22-251.53l-141.84-18.43Z"/>
              </g>
              <path d="M2896.15,2096.7c-.75,0-1.49-.38-1.9-1.08-.62-1.05-.27-2.4.77-3.02,58.32-34.5,110.57-78.11,155.29-129.64.8-.92,2.19-1.02,3.11-.22.92.8,1.02,2.19.22,3.11-45.04,51.88-97.65,95.8-156.38,130.54-.35.21-.74.31-1.12.31Z"/>
            </g>
            <g>
              <g>
                <path class="st1" d="M2758.65,1489.86l-46.95,642.68c-1.21,16.51-14.66,29.28-30.86,29.28h-234.45c-8.54,0-12.32-10.98-5.67-16.45l50.99-41.89,72.1-662.14,194.83,48.53Z"/>
                <path d="M2680.85,2164.02h-234.45c-4.78,0-8.93-2.95-10.56-7.52-1.67-4.67-.3-9.71,3.5-12.83l50.29-41.32,72-661.25c.07-.63.41-1.2.93-1.57.52-.37,1.17-.48,1.79-.33l194.83,48.53c1.04.26,1.74,1.23,1.66,2.3l-46.95,642.68c-1.28,17.56-15.8,31.32-33.05,31.32ZM2565.73,1444.08l-71.83,659.64c-.06.57-.35,1.1-.79,1.46l-50.99,41.89c-2.85,2.34-2.98,5.64-2.15,7.94.8,2.23,2.9,4.6,6.42,4.6h234.45c14.96,0,27.55-11.96,28.66-27.24l46.81-640.83-190.59-47.47Z"/>
              </g>
              <path d="M2702.42,2116.27h-.05c-69.42-1.65-139.74-5.32-209-10.92-1.21-.1-2.12-1.16-2.02-2.37.1-1.21,1.14-2.13,2.37-2.02,69.18,5.6,139.41,9.27,208.75,10.91,1.22.03,2.18,1.04,2.15,2.25-.03,1.2-1.01,2.15-2.2,2.15Z"/>
            </g>
          </g>
          <g>
            <g>
              <polygon class="st1" points="2996.64 1578.55 2912.49 1582.37 2923.65 1642.19 2432.63 1590.21 2591.14 1123.89 2863.89 1123.89 2996.64 1578.55"/>
              <path d="M2923.65,1644.39c-.08,0-.15,0-.23-.01l-491.02-51.98c-.67-.07-1.26-.44-1.62-1-.36-.57-.45-1.26-.23-1.9l158.51-466.32c.3-.89,1.14-1.49,2.09-1.49h272.75c.98,0,1.84.65,2.11,1.59l132.74,454.66c.19.65.07,1.35-.32,1.9-.39.55-1.02.89-1.69.92l-81.61,3.71,10.69,57.33c.13.68-.08,1.39-.55,1.9-.42.45-1.01.71-1.62.71ZM2435.6,1588.31l485.34,51.38-10.62-56.91c-.12-.63.04-1.27.44-1.77.4-.5.99-.8,1.63-.83l81.34-3.69-131.49-450.38h-269.52l-157.12,462.22Z"/>
            </g>
            <path d="M2911.35,1577.62c-1.06,0-2-.77-2.17-1.86l-47.46-301.75c-.19-1.2.63-2.33,1.83-2.52,1.22-.19,2.33.63,2.52,1.83l47.46,301.75c.19,1.2-.63,2.33-1.83,2.52-.12.02-.23.03-.35.03Z"/>
          </g>
        </g>
        <g>
          <path class="st2" d="M2771.76,874.33c-50.98-.45-114.6,1.64-142.43,12.71l-43.99,250.81,289.75,14.88-23.02-205.19c-4.23-41.28-38.79-72.84-80.31-73.21Z"/>
          <g>
            <g>
              <path class="st1" d="M2354.59,816.62c-48.89-9.4-54.51-67.89-50.09-95.8,15.71-99.07,64.62-218.39,71.13-235.61,8.19-21.67,19.29-27.42,26.7-11.85,0,0,13.21-14.46,18.96,4.28,0,0,9.57-7.53,14.11,4.52,0,0,17.36-6.61,12.5,18.46-3.17,16.33-6.56,23.55-6.56,23.55,0,0,9.23-7.38,14.84-3.35,5.61,4.03-42.14,222.58-42.22,230.72-.19,19.61-26,71.49-59.36,65.08Z"/>
              <path d="M2360.35,819.38c-2.06,0-4.11-.2-6.18-.59-47.67-9.17-57.1-65.16-51.85-98.31,9.51-60.01,32.57-137.08,68.53-229.07,1.2-3.08,2.12-5.43,2.71-6.97,5.28-13.96,11.88-21.8,18.6-22.08,2.94-.09,7.03,1.16,10.77,7.46,2.53-2.06,6.89-4.77,11.36-3.76,3.49.79,6.23,3.59,8.17,8.33,1.93-.91,4.72-1.75,7.61-.94,2.76.77,4.97,2.82,6.58,6.08,2.52-.52,6.87-.86,10.21,1.95,3.98,3.35,5.06,9.93,3.19,19.56-1.59,8.18-3.23,14.1-4.49,18.03,3.57-1.62,8.21-2.69,11.89-.04,1.77,1.27,3.6,2.59-7.61,62.28-6.28,33.44-14.79,75.17-21.63,108.71-6.46,31.68-12.04,59.04-12.06,61.54-.14,13.72-11.94,42.34-30.86,57.82-8.13,6.65-16.5,10-24.95,10ZM2355,814.46c9.2,1.78,18.45-1.08,27.5-8.48,17.67-14.45,29.12-41.9,29.24-54.45.03-2.78,4.19-23.3,12.15-62.38,12.01-58.89,31.98-156.85,30.5-166.83-3.56-1.84-9.59,1.89-11.7,3.58-.8.63-1.93.64-2.73,0-.8-.63-1.06-1.73-.63-2.66.03-.07,3.33-7.25,6.39-23.04,1.52-7.82.93-13.12-1.69-15.34-2.89-2.45-7.82-.66-7.87-.64-1.14.42-2.41-.15-2.84-1.28-1.12-2.96-2.6-4.73-4.42-5.24-2.96-.85-6.24,1.66-6.27,1.69-.57.44-1.33.58-2.02.36-.69-.22-1.23-.76-1.44-1.45-.99-3.24-2.81-7.25-5.84-7.93-3.57-.81-7.98,2.97-9.39,4.5-.5.54-1.23.8-1.95.69-.72-.11-1.35-.57-1.66-1.23-1.68-3.52-4.46-7.73-7.99-7.55-4.7.2-10.18,7.39-14.66,19.23-.58,1.55-1.51,3.92-2.72,7.02-35.85,91.7-58.82,168.46-68.29,228.16-5,31.52,3.7,84.71,48.33,93.29ZM2454.32,521.92h0Z"/>
            </g>
            <path d="M2429.25,537.38c-.25,0-.51-.01-.77-.03-3.36-.29-6.43-2.7-8.01-6.28-1.33-3.02-1.47-6.36-1.43-9.22.2-13.13,4.24-26.44,11.4-37.5.66-1.02,2.02-1.31,3.05-.65,1.02.66,1.31,2.03.65,3.05-6.71,10.37-10.51,22.86-10.69,35.16-.04,2.39.06,5.13,1.05,7.38.92,2.08,2.63,3.52,4.36,3.67,3.29.29,6.14-3.49,8.26-6.82.65-1.02,2.01-1.32,3.04-.67,1.02.65,1.33,2.02.67,3.04-2.66,4.17-6.36,8.87-11.58,8.87Z"/>
            <path d="M2411.89,529.27c-1.22,0-2.44-.23-3.59-.74-3.43-1.5-5.98-4.97-6.82-9.28-.74-3.8-.14-7.59.55-10.8,2.34-10.92,7.15-21.39,13.92-30.28.74-.96,2.12-1.15,3.09-.42.97.74,1.15,2.12.42,3.09-6.37,8.37-10.91,18.23-13.11,28.53-.59,2.78-1.12,6.02-.53,9.04.56,2.85,2.19,5.18,4.26,6.09,1.87.82,4.72.26,5.74-1.69.56-1.08,1.9-1.49,2.97-.93,1.08.56,1.5,1.89.93,2.97-1.45,2.77-4.59,4.42-7.81,4.42Z"/>
            <path d="M2397.19,521.07c-3.55,0-7.05-2.38-8.76-6.1-1.67-3.62-1.51-7.64-1.18-10.73,1.06-9.96,4.8-19.45,10.83-27.45.73-.97,2.11-1.17,3.08-.43.97.73,1.17,2.11.43,3.08-5.47,7.26-9,16.23-9.96,25.27-.27,2.53-.42,5.77.8,8.42.9,1.94,3.04,3.83,5.25,3.51,1.21-.17,2.32.66,2.49,1.87.17,1.2-.66,2.32-1.87,2.49-.37.05-.74.08-1.12.08Z"/>
            <path d="M2383.57,510.13c-5.1,0-9.01-4.42-10.21-8.9-1.25-4.66-.25-9.63.56-13.62.24-1.19,1.41-1.97,2.59-1.72,1.19.24,1.96,1.4,1.72,2.6-.75,3.72-1.61,7.94-.62,11.61.8,2.98,3.53,5.94,6.52,5.6,1.2-.17,2.31.71,2.46,1.92.15,1.21-.71,2.31-1.92,2.45-.37.05-.74.07-1.1.07Z"/>
            <path d="M2405.2,570.55c-.15,0-.29-.02-.44-.05-1.19-.24-1.96-1.4-1.72-2.6,2.59-12.74,11.44-24.04,23.1-29.5,1.1-.51,2.41-.04,2.93,1.06.52,1.1.04,2.41-1.06,2.93-10.42,4.88-18.33,14.99-20.65,26.39-.21,1.05-1.13,1.76-2.16,1.76Z"/>
          </g>
          <g>
            <path class="st2" d="M2772.59,772.15c62.35.07,118.22,38.42,140.58,96.51,17.21,44.71,36.31,100.67,49.85,158.36,10.13,43.16-19.17,85.69-63.12,92.08-53.56,7.79-107.83,11.19-207.25-1.11-11.03-1.36-80.22-20.53-83.39-31.16l-31.69-169.69c-3.9-10.65-13.98-17.79-25.34-17.96-127.2-2-235.37,10.47-270.45-71.04-21.69-50.41,44.59-213.03,47-230.9l120.66,37.1-24.85,132.33,217.56-3.83,130.45,9.31Z"/>
            <path d="M2804.16,1002.15c-.89,0-1.73-.54-2.06-1.43l-31.69-84.47c-.43-1.14.15-2.41,1.29-2.84,1.14-.42,2.41.15,2.84,1.29l31.69,84.47c.43,1.14-.15,2.41-1.29,2.84-.25.09-.52.14-.77.14Z"/>
            <path d="M2845.58,1009.4c-.11,0-.21,0-.32-.02-51.26-7.51-92.66-7.7-129.18-7.86-4.75-.02-9.39-.04-13.91-.08-1.22-.01-2.19-1-2.18-2.22,0-1.21.99-2.19,2.2-2.19h.02c4.51.04,9.14.06,13.89.08,34.86.15,78.23.35,129.8,7.91,1.2.18,2.04,1.29,1.86,2.5-.16,1.09-1.1,1.88-2.18,1.88Z"/>
          </g>
          <g>
            <polygon class="st1" points="2545.53 1450.75 2145.67 1395.57 2203.45 981.5 2603.31 1036.68 2545.53 1450.75"/>
            <g>
              <path d="M2430.37,1341.92s-.08,0-.12,0c-1.22-.07-2.15-1.1-2.08-2.32,6.53-122.27,9.69-192.44,9.39-208.54-.32-17.08-4.23-28.81-10.46-31.37-5.02-2.07-10.89,2.17-14.93,6.09-.52.5-1.25.72-1.96.58-.71-.14-1.31-.62-1.59-1.28-.04-.09-4.22-9.51-10.69-10.3-3.77-.47-7.83,2.14-12.1,7.72-.43.57-1.12.91-1.83.86-.72-.03-1.37-.4-1.76-1-.03-.05-3.31-4.96-7.96-5.27-2.91-.16-5.9,1.47-8.92,4.93-.78.9-2.14,1.01-3.06.25-.06-.05-6.04-4.85-11.44-2.8-4.67,1.79-8.04,8.41-9.72,19.15-3.36,21.38-2.4,31.95-2.39,32.05.1,1.01-.51,1.96-1.47,2.29-.96.33-2.03-.04-2.57-.89-2.09-3.26-8.71-11.22-14.76-10.01-5.17,8.23-19.27,108.17-29.6,181.37-.17,1.21-1.29,2.05-2.49,1.87-1.2-.17-2.04-1.28-1.87-2.49,5.83-41.32,12.44-88.14,18.04-123.45,9.54-60.1,12.04-60.81,14.25-61.44,6.36-1.8,12.2,2.58,15.94,6.51.09-5.42.64-14.19,2.57-26.51,1.98-12.59,6.19-20.19,12.53-22.59,5.72-2.17,11.35.58,14.09,2.32,3.58-3.57,7.33-5.24,11.21-4.97,4.28.3,7.57,2.96,9.47,4.98,4.74-5.42,9.58-7.86,14.4-7.27,6.35.78,10.71,6.68,12.79,10.24,7.93-6.76,13.84-6.54,17.51-5.03,8.14,3.35,12.82,15.91,13.19,35.36.31,16.21-2.85,86.48-9.39,208.86-.06,1.17-1.03,2.08-2.2,2.08Z"/>
              <path d="M2349.96,1172.82c-.89,0-1.77-.11-2.62-.32-7.11-1.79-9.8-9.53-11.34-16.08-.28-1.18.45-2.37,1.64-2.65,1.18-.26,2.37.46,2.65,1.64,1.26,5.33,3.32,11.61,8.13,12.82,2.62.65,5.84-.49,8.21-2.92,2.43-2.5,3.86-6,4.95-9.1,5.5-15.72,6.37-33.28,2.44-49.46-.29-1.18.44-2.37,1.62-2.66,1.18-.3,2.37.44,2.66,1.62,4.13,16.99,3.22,35.45-2.56,51.96-1.24,3.56-2.92,7.61-5.95,10.72-2.78,2.86-6.36,4.44-9.81,4.44Z"/>
              <path d="M2376.49,1170.38c-5.55,0-10.67-4.02-11.4-9.11-.17-1.2.66-2.32,1.87-2.49,1.21-.18,2.32.66,2.49,1.87.44,3.08,3.94,5.53,7.53,5.32,3.38-.24,6.83-2.6,9.01-6.17,2.23-3.66,3.06-8.07,3.59-11.9,1.92-14.05.61-28.61-3.82-42.09-.38-1.15.25-2.4,1.41-2.78,1.16-.39,2.4.25,2.78,1.41,4.63,14.11,6.01,29.34,3.99,44.06-.59,4.28-1.54,9.24-4.19,13.59-2.95,4.84-7.61,7.93-12.46,8.27-.27.02-.53.03-.8.03Z"/>
              <path d="M2399.07,1166.51c-1.71,0-3.37-.37-4.87-1.13-1.08-.55-1.52-1.88-.97-2.96.55-1.08,1.88-1.51,2.96-.97,3.13,1.59,7.13.08,9.46-2.24,2.94-2.92,4.28-7.2,5.13-10.6,2.97-11.93,2.53-24.94-1.23-36.65-.37-1.16.27-2.4,1.42-2.77,1.16-.37,2.4.26,2.77,1.42,4.06,12.65,4.52,26.16,1.31,39.05-.99,3.96-2.59,8.97-6.3,12.66-2.73,2.71-6.3,4.17-9.7,4.17Z"/>
              <path d="M2421.86,1158.77c-1.68,0-3.35-.35-4.94-1.12-1.09-.53-1.55-1.85-1.02-2.94.53-1.09,1.85-1.55,2.94-1.02,4.14,2,9.52-.73,12.14-4.42,3.07-4.32,3.93-10.11,4.69-15.21.18-1.2,1.31-2.02,2.5-1.85,1.2.18,2.03,1.3,1.86,2.5-.83,5.59-1.77,11.93-5.45,17.11-2.79,3.93-7.76,6.95-12.71,6.95Z"/>
              <path d="M2362.92,1224.86c-.11,0-.22,0-.32-.02-1.2-.18-2.04-1.3-1.86-2.5,2.3-15.62-3.36-32.11-14.76-43.04-.88-.84-.91-2.23-.07-3.11.84-.88,2.24-.91,3.11-.06,12.42,11.9,18.58,29.86,16.07,46.86-.16,1.09-1.1,1.88-2.18,1.88Z"/>
            </g>
            <path d="M2545.53,1452.95c-.1,0-.2,0-.3-.02l-399.86-55.18c-.58-.08-1.1-.38-1.45-.85-.35-.47-.51-1.05-.42-1.63l57.78-414.07c.17-1.2,1.29-2.05,2.48-1.88l399.86,55.18c.58.08,1.1.39,1.45.85s.51,1.05.42,1.63l-57.78,414.07c-.15,1.1-1.1,1.9-2.18,1.9ZM2148.16,1393.69l395.5,54.58,57.17-409.71-395.5-54.58-57.17,409.71Z"/>
          </g>
          <g>
            <path class="st1" d="M2470.92,1065.69c1.53-5.58,6.09-9.75,10.45-13.59-5.51,2.46-10.33,2.48-13.4-1.26-3.07-3.74-1.53-7.77.96-11.93,2.49-4.16,6.59-7.08,10.7-9.68,44.18-27.99,99.23-32.21,151.5-30.65,28.13.84,40.92,1.99,69.07,2.41,7.36,38.22,4.69,71.95-4.88,117.52-36.08-4.91-47.57-9.2-83.26-16.72-22.43-4.72-47.75-8.35-66.74,4.52-4.91,3.33-10.26,7.9-15.96,6.31-5.45-1.53-7.84-8.42-6.32-13.85,1.52-5.44,5.81-9.63,10.08-13.36,4.27-3.72,8.85-7.42,11.32-12.5-10.71,5.77-21.41,11.53-32.12,17.3-2.23,1.2-4.6,2.43-7.12,2.32-5.98-.27-8.92-8.27-6.47-13.71,2.45-5.44,8.08-8.66,13.42-11.37,5.34-2.71,11.07-5.56,14.06-10.73-13.34,6.66-26.68,13.33-40.02,19.99-2.48,1.24-5.13,2.51-7.89,2.27-5.79-.51-8.91-7.71-7.39-13.29Z"/>
            <path d="M2486.15,1052.19c-.74,0-1.46-.37-1.88-1.05-.64-1.03-.32-2.39.72-3.03,9.13-5.64,18.73-10.75,28.51-15.18,1.11-.5,2.41,0,2.91,1.1.5,1.11,0,2.41-1.1,2.91-9.61,4.35-19.04,9.36-28.01,14.91-.36.22-.76.33-1.15.33Z"/>
            <path d="M2531.77,1115.16c-.98,0-1.99-.13-3.02-.42-3.21-.9-5.77-3.29-7.21-6.73-1.29-3.08-1.52-6.67-.63-9.84,1.73-6.17,6.46-10.68,10.76-14.42l1.05-.91c1.08-.94,2.18-1.89,3.24-2.86l-22.6,12.17c-2.25,1.22-5.07,2.71-8.27,2.58-3.07-.14-5.73-1.8-7.5-4.67-2.22-3.62-2.57-8.38-.88-12.15,1.16-2.59,2.94-4.71,5.02-6.51l-14.56,7.27c-2.5,1.25-5.61,2.79-9.07,2.49-2.9-.26-5.5-1.84-7.32-4.45-2.29-3.3-3.06-7.75-2-11.61.97-3.53,2.98-6.5,5.28-9.08-3.79-.1-6.26-1.9-7.81-3.79-4.01-4.89-1.86-10.05.77-14.46,2.83-4.73,7.37-7.85,11.41-10.41,29.52-18.7,66.92-28.79,114.33-30.85,1.22-.03,2.24.89,2.3,2.11s-.89,2.24-2.1,2.29c-46.63,2.02-83.32,11.89-112.17,30.17-3.61,2.29-7.66,5.05-9.99,8.95-2.72,4.56-3.03,7.1-1.15,9.4,2.18,2.65,5.81,2.86,10.8.64,1-.44,2.16-.09,2.75.82.59.92.42,2.12-.4,2.84-3.73,3.29-8.38,7.39-9.78,12.52-.71,2.6-.17,5.71,1.37,7.93.75,1.08,2.07,2.4,4.09,2.58,2.06.19,4.17-.78,6.71-2.05l40.02-19.99c.87-.44,1.92-.25,2.59.46s.79,1.77.3,2.61c-3.28,5.67-9.39,8.76-14.78,11.49-5.29,2.69-10.45,5.61-12.61,10.41-1.08,2.39-.82,5.7.61,8.03.69,1.13,1.94,2.49,3.95,2.58,1.83.09,3.72-.84,5.97-2.06l32.12-17.3c.84-.45,1.88-.31,2.57.35.69.66.87,1.69.45,2.55-2.47,5.08-6.71,8.75-10.81,12.29l-1.04.91c-3.82,3.32-8.01,7.29-9.41,12.29-.62,2.2-.45,4.8.45,6.95.53,1.26,1.79,3.48,4.34,4.19,3.98,1.12,8.16-1.83,12.21-4.67.65-.46,1.29-.91,1.92-1.34,16.73-11.34,37.72-9.9,52.06-7.84,1.2.17,2.04,1.29,1.87,2.49-.17,1.2-1.29,2.04-2.49,1.87-21.64-3.12-37.19-.85-48.96,7.13-.61.42-1.23.85-1.86,1.29-3.86,2.71-8.15,5.72-12.91,5.72Z"/>
          </g>
          <path d="M2808.36,1127.27c-36.36,0-81.07-1.29-111.77-6.59-1.2-.21-2-1.35-1.8-2.54.21-1.2,1.34-2,2.54-1.8,59.25,10.21,171.56,5.39,172.68,5.34,1.19-.08,2.24.89,2.3,2.1.05,1.22-.89,2.24-2.1,2.3-.55.02-27.47,1.18-61.86,1.18Z"/>
        </g>
        <g>
          <path d="M2760.83,652.18c30.16-26.39,26.13-70.66,3.22-87.44-20.46-14.98-28.09-37.16-52.81-42.99-24.72-5.84-62.48-1.44-86.99,23.68-20.92,21.44-2.26,54.09-.34,83.89,5.53,85.76,84.66,68.58,136.91,22.86Z"/>
          <g>
            <g>
              <polygon class="st1" points="2731.83 661.18 2771.27 783.04 2681.11 766.71 2661.22 673.29 2731.83 661.18"/>
              <path d="M2771.27,785.24c-.93,0-1.79-.59-2.09-1.52l-39.45-121.86c-.38-1.16.26-2.4,1.42-2.77,1.16-.38,2.4.26,2.77,1.42l39.45,121.86c.38,1.16-.26,2.4-1.42,2.77-.23.07-.45.11-.68.11Z"/>
              <path d="M2681.97,776.61c-1.02,0-1.94-.72-2.15-1.76l-20.75-101.12c-.12-.59,0-1.19.34-1.69.34-.49.86-.83,1.45-.93l70.61-12.1c1.22-.2,2.34.6,2.54,1.8.21,1.2-.6,2.34-1.8,2.54l-68.37,11.72,20.3,98.89c.25,1.19-.52,2.35-1.71,2.6-.15.03-.3.05-.45.05Z"/>
            </g>
            <g>
              <g>
                <path class="st1" d="M2615.44,620.84c-2.48,13.44-2.54,27.58,2.02,40.47,4.56,12.88,14.18,24.37,27.01,29.24,11.13,4.23,23.86,3.21,34.85-1.35,10.99-4.57,20.35-12.45,27.99-21.54,11.74,4.15,26.04-.69,32.8-11.09,3.9-6,5.27-13.98,2.09-20.39-3.18-6.41-11.57-10.24-18.06-7.18-3.7,1.74-6.34,5.29-10.11,6.87-4.21,1.77-9.22.72-13.01-1.81-3.79-2.53-6.51-6.36-8.68-10.36-6.84-12.58-8.87-27.66-5.62-41.58-.31,1.32-7.34,3.3-8.59,3.72-3.15,1.06-6.4,1.84-9.69,2.35-6.49,1-13.14.93-19.61-.18-3.28-.57-6.51-1.4-9.65-2.51-2.49-.88-5.72-3.22-8.38-3.25-5.55-.06-7.2,10-8.54,13.89-2.78,8.08-5.25,16.29-6.8,24.7Z"/>
                <path d="M2659.6,695.42c-5.56,0-10.97-.94-15.91-2.82-12.64-4.81-23.22-16.23-28.3-30.57-4.27-12.05-4.98-26.05-2.11-41.6,1.36-7.39,3.55-15.34,6.89-25.02.22-.65.45-1.47.71-2.39,1.45-5.18,3.65-12.99,9.86-12.99h.08c2.24.03,4.51,1.17,6.51,2.19.94.48,1.83.93,2.57,1.19,2.98,1.05,6.11,1.87,9.29,2.42,6.27,1.09,12.63,1.15,18.9.18,3.2-.49,6.33-1.26,9.32-2.26l.89-.28c4.36-1.35,5.96-2.08,6.5-2.46.47-.82,1.44-1.26,2.41-1.04,1.18.28,1.92,1.46,1.64,2.65-3.13,13.37-1.15,27.96,5.41,40.03,2.48,4.55,5.01,7.6,7.97,9.58,3.52,2.35,7.71,2.97,10.94,1.61,1.66-.7,3.15-1.91,4.72-3.2,1.61-1.32,3.28-2.68,5.31-3.64,7.3-3.42,17.1.4,20.97,8.19,3.33,6.7,2.48,15.35-2.21,22.57-7.09,10.92-21.44,16.09-33.92,12.44-8.48,9.8-17.84,16.87-27.86,21.03-6.71,2.79-13.75,4.19-20.57,4.19ZM2630.74,584.45c-2.88,0-4.6,6.11-5.63,9.77-.28,1.01-.54,1.92-.79,2.63-3.26,9.47-5.4,17.22-6.72,24.38-2.73,14.78-2.08,28.01,1.93,39.33,4.65,13.13,14.27,23.57,25.72,27.92,9.96,3.79,22.07,3.31,33.22-1.33,9.74-4.05,18.88-11.08,27.15-20.92.59-.7,1.56-.97,2.42-.66,10.75,3.8,24.02-.69,30.21-10.21,3.79-5.83,4.56-12.98,1.96-18.21-2.8-5.64-10.03-8.58-15.15-6.17-1.53.72-2.92,1.86-4.39,3.06-1.75,1.43-3.55,2.91-5.8,3.85-4.57,1.92-10.36,1.15-15.09-2.01-3.58-2.39-6.57-5.93-9.39-11.13-6.31-11.6-8.68-25.36-6.73-38.42-1.11.41-2.45.85-4.06,1.35l-.79.25c-3.23,1.09-6.61,1.91-10.05,2.44-6.74,1.04-13.58.97-20.32-.19-3.42-.59-6.79-1.46-10.01-2.6-1.01-.36-2.07-.89-3.1-1.41-1.58-.8-3.36-1.7-4.58-1.71h-.02ZM2615.44,620.84h.02-.02ZM2684.56,581.61s0,0,0,0c0,0,0,0,0,0Z"/>
              </g>
              <path d="M2711.24,657.59c-.32,0-.64-.07-.94-.21-1.1-.52-1.57-1.83-1.05-2.93,3.16-6.7,10.57-11.1,17.99-10.75,1.22.06,2.15,1.09,2.09,2.31-.06,1.22-1.09,2.17-2.31,2.09-5.69-.28-11.37,3.1-13.79,8.23-.38.8-1.17,1.26-1.99,1.26Z"/>
            </g>
          </g>
          <path class="st1" d="M2782.02,775.85l-18.72-29.72s-29.32,14.33-59.86,14.86l-8.78,11.45-5.79-11.45h-16.71l-6.61,23.55,11.66,27.6,17.46-20.64,15.73,25.52s53.61-14.18,71.63-41.17Z"/>
          <path d="M2694.66,774.64c-.07,0-.14,0-.2,0-.75-.07-1.42-.52-1.76-1.2l-5.18-10.24h-13.69l-1.33,4.75c-.33,1.17-1.54,1.86-2.72,1.52-1.17-.33-1.85-1.54-1.52-2.72l1.79-6.36c.27-.95,1.13-1.61,2.12-1.61h16.71c.83,0,1.59.47,1.96,1.21l4.21,8.32,6.65-8.67c.41-.53,1.04-.85,1.71-.86,29.71-.51,58.64-14.49,58.93-14.64,1.01-.49,2.23-.15,2.83.8l14.42,22.9c.65,1.03.34,2.39-.69,3.04-1.03.65-2.39.34-3.04-.69l-13.39-21.26c-6.81,3.09-31.6,13.5-57.92,14.22l-8.14,10.61c-.42.55-1.07.86-1.75.86Z"/>
        </g>
      </g>
      <g>
        <g>
          <polygon class="st1" points="1825.11 337.24 1841.98 378.14 1885.23 387.43 1851.55 416.1 1856.08 460.11 1818.39 436.93 1777.94 454.83 1788.33 411.84 1758.8 378.9 1802.91 375.5 1825.11 337.24"/>
          <path d="M1856.08,462.31c-.4,0-.8-.11-1.15-.33l-36.7-22.57-39.39,17.43c-.77.34-1.66.22-2.3-.32-.64-.54-.93-1.39-.73-2.21l10.12-41.87-28.76-32.08c-.56-.63-.72-1.51-.4-2.29.31-.78,1.04-1.31,1.88-1.38l42.95-3.31,21.62-37.26c.42-.72,1.2-1.14,2.05-1.09.84.06,1.57.58,1.89,1.36l16.43,39.82,42.12,9.05c.82.18,1.47.8,1.67,1.62.2.81-.07,1.67-.71,2.22l-32.8,27.92,4.41,42.85c.09.83-.31,1.65-1.02,2.09-.36.23-.77.34-1.17.34ZM1818.39,434.73c.4,0,.8.11,1.15.33l33.88,20.84-4.07-39.56c-.07-.72.21-1.43.76-1.9l30.29-25.78-38.89-8.36c-.71-.15-1.3-.64-1.57-1.31l-15.17-36.77-19.96,34.4c-.36.63-1.01,1.03-1.74,1.09l-39.66,3.06,26.55,29.62c.48.54.67,1.28.5,1.99l-9.34,38.66,36.37-16.09c.28-.13.59-.19.89-.19Z"/>
        </g>
        <g>
          <polygon class="st1" points="1637.43 337.1 1657.01 376.77 1700.79 383.14 1669.11 414.01 1676.6 457.61 1637.44 437.02 1598.28 457.6 1605.76 414.01 1574.07 383.13 1617.85 376.77 1637.43 337.1"/>
          <path d="M1676.6,459.81c-.35,0-.7-.08-1.02-.25l-38.13-20.05-38.13,20.04c-.74.39-1.64.33-2.32-.17-.68-.49-1.02-1.33-.88-2.15l7.28-42.46-30.85-30.07c-.6-.59-.82-1.46-.56-2.26.26-.8.95-1.38,1.78-1.5l42.63-6.19,19.06-38.63c.74-1.51,3.21-1.51,3.95,0l19.07,38.63,42.63,6.2c.83.12,1.52.7,1.78,1.5.26.8.04,1.67-.56,2.26l-30.85,30.07,7.29,42.46c.14.83-.2,1.66-.88,2.15-.38.28-.84.42-1.29.42ZM1637.44,434.82c.35,0,.7.08,1.02.25l35.21,18.51-6.73-39.2c-.12-.71.11-1.44.63-1.95l28.48-27.76-39.36-5.72c-.72-.1-1.34-.55-1.66-1.2l-17.61-35.67-17.6,35.66c-.32.65-.94,1.1-1.66,1.2l-39.36,5.72,28.49,27.76c.52.51.76,1.23.63,1.95l-6.72,39.2,35.21-18.5c.32-.17.67-.25,1.02-.25Z"/>
        </g>
        <g>
          <polygon class="st1" points="1974.38 416.88 1993.96 456.55 2037.74 462.92 2006.06 493.79 2013.54 537.39 1974.38 516.8 1935.23 537.38 1942.7 493.78 1911.02 462.9 1954.8 456.55 1974.38 416.88"/>
          <path d="M2013.54,539.59c-.35,0-.7-.08-1.02-.25l-38.13-20.05-38.13,20.04c-.74.39-1.64.33-2.32-.17-.68-.49-1.02-1.33-.88-2.15l7.28-42.46-30.85-30.07c-.6-.59-.82-1.46-.56-2.26.26-.8.95-1.38,1.78-1.5l42.63-6.19,19.06-38.63c.74-1.51,3.21-1.51,3.95,0l19.07,38.63,42.63,6.2c.83.12,1.52.7,1.78,1.5.26.8.04,1.67-.56,2.26l-30.85,30.06,7.29,42.46c.14.83-.2,1.66-.88,2.15-.38.28-.84.42-1.29.42ZM1974.38,514.6c.35,0,.7.08,1.02.25l35.21,18.51-6.73-39.2c-.12-.71.11-1.44.63-1.95l28.48-27.76-39.36-5.73c-.72-.1-1.34-.55-1.66-1.2l-17.61-35.67-17.6,35.66c-.32.65-.94,1.1-1.66,1.2l-39.36,5.71,28.48,27.77c.52.51.76,1.23.63,1.95l-6.72,39.2,35.21-18.5c.32-.17.67-.25,1.02-.25Z"/>
        </g>
        <g>
          <polygon class="st1" points="2049.25 552.17 2068.84 591.84 2112.62 598.2 2080.94 629.07 2088.42 672.67 2049.26 652.09 2010.11 672.67 2017.58 629.07 1985.9 598.19 2029.68 591.83 2049.25 552.17"/>
          <path d="M2088.42,674.87c-.35,0-.7-.08-1.02-.25l-38.13-20.05-38.13,20.04c-.74.39-1.64.33-2.32-.17-.68-.49-1.02-1.33-.88-2.15l7.28-42.46-30.85-30.07c-.6-.59-.82-1.46-.56-2.26.26-.8.95-1.38,1.78-1.5l42.63-6.19,19.06-38.63c.74-1.51,3.21-1.51,3.95,0l19.07,38.63,42.63,6.2c.83.12,1.52.7,1.78,1.5.26.8.04,1.67-.56,2.26l-30.85,30.06,7.29,42.46c.14.83-.2,1.66-.88,2.15-.38.28-.84.42-1.29.42ZM2049.26,649.88c.35,0,.7.08,1.02.25l35.21,18.51-6.73-39.2c-.12-.71.11-1.44.63-1.95l28.48-27.76-39.36-5.73c-.72-.1-1.34-.55-1.66-1.2l-17.61-35.67-17.6,35.66c-.32.65-.94,1.1-1.66,1.2l-39.36,5.71,28.49,27.77c.52.51.76,1.23.63,1.95l-6.72,39.2,35.21-18.5c.32-.17.67-.25,1.02-.25Z"/>
        </g>
        <g>
          <polygon class="st1" points="2072.08 705.86 2091.66 745.53 2135.44 751.89 2103.76 782.77 2111.24 826.37 2072.09 805.78 2032.93 826.36 2040.4 782.76 2008.72 751.88 2052.5 745.53 2072.08 705.86"/>
          <path d="M2111.24,828.57c-.35,0-.7-.08-1.02-.25l-38.13-20.05-38.13,20.04c-.74.39-1.64.33-2.32-.17-.68-.49-1.02-1.33-.88-2.15l7.28-42.46-30.85-30.07c-.6-.59-.82-1.46-.56-2.26.26-.8.95-1.38,1.78-1.5l42.63-6.19,19.06-38.63c.74-1.51,3.21-1.51,3.95,0l19.07,38.63,42.63,6.2c.83.12,1.52.7,1.78,1.5.26.8.04,1.67-.56,2.26l-30.85,30.06,7.29,42.46c.14.83-.2,1.66-.88,2.15-.38.28-.84.42-1.29.42ZM2072.09,803.58c.35,0,.7.08,1.02.25l35.21,18.51-6.73-39.2c-.12-.71.11-1.44.63-1.95l28.48-27.76-39.36-5.73c-.72-.1-1.34-.55-1.66-1.2l-17.61-35.67-17.6,35.66c-.32.65-.94,1.1-1.66,1.2l-39.36,5.72,28.48,27.76c.52.51.76,1.23.63,1.95l-6.72,39.2,35.21-18.5c.32-.17.67-.25,1.02-.25Z"/>
        </g>
      </g>
    </g>
  </g>
</svg>