<svg id="Layer_1" enable-background="new 0 0 66 66" viewBox="0 0 66 66" xmlns="http://www.w3.org/2000/svg"><g><g><path d="m42.8 62.19h-19.48c-.41 0-.75-.34-.75-.75s.34-.75.75-.75h19.48c.41 0 .75.34.75.75s-.34.75-.75.75z"/></g><g><path d="m41.18 58.77h-16.37c-.41 0-.75-.34-.75-.75s.34-.75.75-.75h16.38c.41 0 .75.34.75.75s-.34.75-.76.75z"/></g><g><path d="m34.71 58.77h-3.42c-.41 0-.75-.34-.75-.75v-6.75c0-.41.34-.75.75-.75h3.42c.41 0 .75.34.75.75v6.75c0 .42-.34.75-.75.75zm-2.67-1.5h1.92v-5.25h-1.92z"/></g><g><path d="m60.82 52.02h-55.64c-2.01 0-3.64-1.63-3.64-3.64v-37.18c0-2.01 1.63-3.64 3.64-3.64h55.63c2.01 0 3.64 1.63 3.64 3.64v37.18c.01 2.01-1.62 3.64-3.63 3.64zm-55.64-42.96c-1.18 0-2.14.96-2.14 2.14v37.18c0 1.18.96 2.14 2.14 2.14h55.63c1.18 0 2.14-.96 2.14-2.14v-37.18c0-1.18-.96-2.14-2.14-2.14z"/></g><g><g><path d="m21.81 65h-4.59c-.25 0-.49-.13-.63-.34s-.16-.48-.06-.71l5.8-12.98c.12-.27.39-.44.68-.44h4.59c.25 0 .49.13.63.34s.16.48.06.71l-5.8 12.98c-.12.27-.38.44-.68.44zm-3.44-1.5h2.95l5.13-11.48h-2.95z"/></g><g><path d="m48.78 65h-4.59c-.3 0-.56-.17-.68-.44l-5.8-12.98c-.1-.23-.08-.5.06-.71s.38-.34.63-.34h4.59c.3 0 .56.17.68.44l5.8 12.98c.1.23.08.5-.06.71-.13.21-.37.34-.63.34zm-4.1-1.5h2.95l-5.13-11.48h-2.95z"/></g></g><g><path d="m40.58 9.06h-15.16c-.41 0-.75-.34-.75-.75v-3.09c0-.41.34-.75.75-.75h15.17c.41 0 .75.34.75.75v3.09c-.01.41-.34.75-.76.75zm-14.41-1.5h13.67v-1.59h-13.67z"/></g><g><path d="m36.22 5.97h-6.45c-.41 0-.75-.34-.75-.75v-3.47c0-.41.34-.75.75-.75h6.45c.41 0 .75.34.75.75v3.47c0 .41-.33.75-.75.75zm-5.69-1.5h4.95v-1.97h-4.95z"/></g><g><path d="m11.42 46.76h-5.08c-.41 0-.75-.34-.75-.75v-7.31c0-.41.34-.75.75-.75h5.08c.41 0 .75.34.75.75v7.31c0 .41-.34.75-.75.75zm-4.33-1.5h3.58v-5.81h-3.58z"/></g><g><path d="m20 46.76h-5.08c-.41 0-.75-.34-.75-.75v-14.63c0-.41.34-.75.75-.75h5.08c.41 0 .75.34.75.75v14.63c0 .41-.34.75-.75.75zm-4.33-1.5h3.58v-13.13h-3.58z"/></g><g><path d="m28.58 46.76h-5.08c-.41 0-.75-.34-.75-.75v-10.5c0-.41.34-.75.75-.75h5.08c.41 0 .75.34.75.75v10.5c0 .41-.33.75-.75.75zm-4.32-1.5h3.58v-9h-3.58z"/></g><g><path d="m37.17 46.76h-5.08c-.41 0-.75-.34-.75-.75v-14.63c0-.41.34-.75.75-.75h5.08c.41 0 .75.34.75.75v14.63c0 .41-.34.75-.75.75zm-4.33-1.5h3.58v-13.13h-3.58z"/></g><g><path d="m59.66 45.41h-11.32c-.41 0-.75-.34-.75-.75s.34-.75.75-.75h11.32c.41 0 .75.34.75.75s-.33.75-.75.75z"/></g><g><path d="m43.25 47.52c-1.58 0-2.87-1.29-2.87-2.87s1.29-2.87 2.87-2.87 2.87 1.29 2.87 2.87-1.29 2.87-2.87 2.87zm0-4.23c-.75 0-1.37.61-1.37 1.37s.61 1.37 1.37 1.37 1.37-.61 1.37-1.37-.62-1.37-1.37-1.37z"/></g><g><path d="m59.66 38.42h-11.32c-.41 0-.75-.34-.75-.75s.34-.75.75-.75h11.32c.41 0 .75.34.75.75s-.33.75-.75.75z"/></g><g><path d="m43.25 40.54c-1.58 0-2.87-1.29-2.87-2.87s1.29-2.87 2.87-2.87 2.87 1.29 2.87 2.87c-.01 1.58-1.29 2.87-2.87 2.87zm0-4.23c-.75 0-1.37.61-1.37 1.37 0 .75.61 1.37 1.37 1.37s1.37-.61 1.37-1.37c-.01-.76-.62-1.37-1.37-1.37z"/></g><g><path d="m59.66 31.44h-11.32c-.41 0-.75-.34-.75-.75s.34-.75.75-.75h11.32c.41 0 .75.34.75.75s-.33.75-.75.75z"/></g><g><path d="m43.25 33.56c-1.58 0-2.87-1.29-2.87-2.87s1.29-2.87 2.87-2.87 2.87 1.29 2.87 2.87c-.01 1.58-1.29 2.87-2.87 2.87zm0-4.23c-.75 0-1.37.61-1.37 1.37 0 .75.61 1.37 1.37 1.37s1.37-.61 1.37-1.37c-.01-.76-.62-1.37-1.37-1.37z"/></g><g><path d="m8.88 33.09c-.19 0-.38-.07-.53-.22-.29-.29-.29-.77 0-1.06l8.59-8.59c.27-.27.7-.29 1-.06l7.78 6.18 8.83-7.36c.32-.27.79-.22 1.06.1s.22.79-.1 1.06l-9.3 7.75c-.27.23-.67.23-.95.01l-7.73-6.14-8.12 8.12c-.15.14-.34.21-.53.21z"/></g><g><path d="m34.72 27.37c-.02 0-.04 0-.06 0-.41-.03-.72-.39-.69-.8l.25-3.34-3.34-.25c-.41-.03-.72-.39-.69-.8s.41-.72.8-.69l4.09.3c.41.03.72.39.69.8l-.3 4.09c-.03.39-.36.69-.75.69z"/></g><g><path d="m33.76 13.94h-27.42c-.41 0-.75-.34-.75-.75s.34-.75.75-.75h27.43c.41 0 .75.34.75.75s-.34.75-.76.75z"/></g><g><path d="m28.2 18.32h-21.86c-.41 0-.75-.34-.75-.75s.34-.75.75-.75h21.86c.41 0 .75.34.75.75s-.33.75-.75.75z"/></g><g><path d="m14.3 22.71h-7.96c-.41 0-.75-.34-.75-.75s.34-.75.75-.75h7.96c.41 0 .75.34.75.75s-.34.75-.75.75z"/></g><g><path d="m50.27 20.21c-.06 0-.13-.01-.19-.02l-3.83-1c-.37-.1-.61-.46-.55-.84.54-3.58 3.69-6.28 7.32-6.28 1.98 0 3.84.77 5.25 2.18.15.15.23.35.22.56s-.1.41-.27.54l-3.02 2.54c-.27.23-.66.24-.94.02-.26-.2-.69-.43-1.25-.43-1.1 0-1.99.89-1.99 1.98 0 .23-.11.45-.29.59-.13.1-.29.16-.46.16zm-2.95-2.3 2.33.61c.41-1.46 1.76-2.54 3.37-2.54.57 0 1.13.14 1.64.41l1.93-1.63c-1.02-.78-2.26-1.2-3.57-1.2-2.67 0-5.01 1.83-5.7 4.35z"/></g><g><path d="m53.02 26.87c-4.08 0-7.4-3.32-7.4-7.41 0-.34.03-.69.08-1.1s.42-.7.84-.65c.41.05.7.43.65.84-.04.3-.07.59-.07.9 0 3.26 2.65 5.91 5.9 5.91.74 0 1.47-.14 2.17-.42.39-.15.82.04.97.42.15.39-.04.82-.42.97-.88.36-1.8.54-2.72.54z"/></g><g><path d="m53.02 22.95c-1.93 0-3.49-1.57-3.49-3.49 0-.41.34-.75.75-.75s.75.34.75.75c0 1.1.89 1.99 1.99 1.99.26 0 .5-.04.69-.12.38-.16.82.01.98.39s-.01.82-.39.98c-.38.17-.82.25-1.28.25z"/></g><g><path d="m55.46 26.4c-.3 0-.58-.18-.7-.47l-1.46-3.63c-.08-.19-.07-.4.01-.58.08-.19.23-.33.42-.4.76-.29 1.27-1.03 1.27-1.86 0-.6-.28-1.17-.76-1.56-.32-.26-.38-.73-.12-1.05s.73-.37 1.05-.12c.84.67 1.33 1.67 1.33 2.73 0 1.18-.6 2.28-1.56 2.91l.91 2.26c1.85-1.03 3.05-3.02 3.05-5.17 0-1.55-.61-3.03-1.72-4.16-.29-.3-.28-.77.01-1.06.3-.29.77-.28 1.06.01 1.38 1.42 2.14 3.27 2.14 5.21 0 3.01-1.88 5.78-4.68 6.89-.06.03-.16.05-.25.05z"/></g></g></svg>