<svg id="Layer_1" enable-background="new 0 0 512 512" viewBox="0 0 512 512" xmlns="http://www.w3.org/2000/svg"><path d="m285.6 341.7c7.9 2.4 15.4 5.8 22.3 9.9 12.9-17.1 31-29.9 51.6-36.2-5.8-3.9-10.7-9-14.5-14.8h-36.6c-.7 17-9.4 32-22.8 41.1zm35.3 19.2c9 7.5 16.7 16.6 22.6 26.7h127.3c-15.8-51.9-75.6-76.1-123-50-10.4 5.8-19.6 13.8-26.9 23.3zm30.3 42.7c2 5.4 3.5 11 4.6 16.8.9 4.9-2.9 9.4-7.9 9.4h-183.8c-5 0-9-4.5-7.7-10.1 1.1-5.6 2.6-11 4.5-16.2h-129.9c-5 0-9-4.5-7.7-10.1 4.5-23.5 17.1-44.2 34.8-58.9 10.2-8.5 22.2-15.1 35.3-19.1-27.1-18.5-30.8-57.1-7.5-80.4 6.6-6.5 14.9-11.4 24.1-13.7v-107c0-16.6 11.7-32.2 28.1-32.2h235.8c16.4 0 28.1 15.6 28.1 32.2v107c43.6 11.1 53.9 68.7 16.6 94.2 35.9 10.9 63.3 41.2 70.2 78.7.9 4.9-2.9 9.4-7.9 9.4zm-182.8-16c6-10.2 13.6-19.2 22.6-26.7-29.5-38.8-85.4-45.2-122.8-14.1-12.6 10.5-22.2 24.7-27.1 40.8zm35.7-35.9c6.9-4.2 14.4-7.5 22.3-9.9-13.4-9.2-22.1-24.2-22.8-41.1h-36.6c-3.8 5.8-8.7 10.9-14.4 14.8 20.5 6.3 38.6 19 51.5 36.2zm106.6 21.4c-15-12.5-34.2-19.7-54.7-19.7-37.7 0-70.9 24.7-81.8 60.5h163.6c-4.8-15.9-14.4-30.2-27.1-40.8zm-54.7-38.2c20.1 0 36.5-16.3 36.5-36.5 0-20.1-16.3-36.5-36.5-36.5s-36.5 16.3-36.5 36.5 16.3 36.5 36.5 36.5zm-50.6-50.2c10.4-38.6 59.1-52 87.7-23.3 6.4 6.3 11.1 14.4 13.5 23.3h31.5c-7.8-31.8 15.2-63 47.9-64.9v-105.5c0-7.9-4.8-16.2-12.1-16.2h-235.8c-7.3 0-12.1 8.4-12.1 16.2v105.5c32.7 1.9 55.7 33.1 47.9 64.9zm183.7 23.9c20.1 0 36.5-16.3 36.5-36.5s-16.3-36.5-36.5-36.5-36.5 16.3-36.5 36.5 16.3 36.5 36.5 36.5zm-266.2 0c20.1 0 36.5-16.3 36.5-36.5s-16.3-36.5-36.5-36.5-36.5 16.3-36.5 36.5c.1 20.2 16.4 36.5 36.5 36.5zm183.3-105.3c-3.1-3.1-3.1-8.2 0-11.3s8.2-3.1 11.3 0l7.8 7.8c3.1 3.1 3.1 8.2 0 11.3s-8.2 3.1-11.3 0zm11.3-45.9c-3.1 3.1-8.2 3.1-11.3 0s-3.1-8.2 0-11.3l7.5-7.5c3.1-3.1 8.2-3.1 11.3 0s3.1 8.2 0 11.3zm.6 25.4c-4.4 0-8-3.6-8-8s3.6-8 8-8h9c4.4 0 8 3.6 8 8s-3.6 8-8 8zm-99.7 49.2c0 4.4-3.6 8-8 8s-8-3.6-8-8v-23.3c-15.2-3.1-25.5-17.9-25.5-33.8 0-18.1 13.3-34.4 31.2-34.4h21.4l54.1-26.5c5.3-2.6 11.5 1.4 11.5 7.1v107.4c0 5.6-6 10.2-12.2 6.8l-53.5-26.2h-11zm-8.7-38.7h13.5v-36.8h-15.2c-13.5 0-20.6 20.2-10.4 31.7 2.7 3.1 6.4 5 10.4 5h1.7zm69.4-59.4-39.8 19.5v42.9l39.8 19.5z"/></svg>