<?xml version="1.0" encoding="UTF-8"?>
<svg id="Layer_1" xmlns="http://www.w3.org/2000/svg" version="1.1" viewBox="0 0 466.67 512.5">
  <!-- Generator: Adobe Illustrator 30.2.1, SVG Export Plug-In . SVG Version: 2.1.1 Build 1)  -->
  <defs>
    <style>
      .st0 {
        fill: #010101;
      }
    </style>
  </defs>
  <g id="Page-1">
    <g id="_x30_20---Teamwork">
      <path id="Shape" class="st0" d="M350.67,108.13c-3.5-.36-7.03.37-10.12,2.07-1.5-4.88-5.12-8.83-9.86-10.75-4.73-1.92-10.08-1.61-14.56.84-2.49-7.72-10.05-12.65-18.12-11.82-5.25.6-9.93,3.6-12.67,8.13-4.08-3.02-9.31-4.04-14.24-2.78-4.92,1.27-9.01,4.68-11.13,9.3h-48.38c-.9,0-1.77-.26-2.54-.72l-19.86-11.88c-2.28-1.38-4.9-2.12-7.57-2.13h-72.75c-8.99-.12-16.65,6.51-17.81,15.43-.35,3.51.37,7.04,2.07,10.12-4.88,1.5-8.83,5.12-10.75,9.86-1.92,4.73-1.61,10.08.85,14.56-7.74,2.49-12.67,10.05-11.83,18.13.6,5.25,3.6,9.93,8.13,12.67-2.49,3.44-3.64,7.67-3.21,11.9.7,5.87,4.38,10.97,9.74,13.49v48.36c0,.89-.26,1.77-.73,2.53l-11.99,19.97c-1.3,2.28-2,4.85-2.02,7.47v72.75c-.11,8.99,6.52,16.64,15.43,17.8,3.5.35,7.03-.38,10.12-2.07,1.5,4.88,5.12,8.83,9.86,10.75s10.08,1.61,14.56-.85c2.28,7.11,8.89,11.93,16.35,11.91,5.92,0,11.41-3.12,14.43-8.21,4.09,3.02,9.32,4.04,14.25,2.78,4.92-1.27,9.02-4.69,11.14-9.31h48.36c.9,0,1.77.26,2.54.72l19.86,11.89c2.28,1.37,4.9,2.11,7.57,2.12h72.75c8.99.12,16.65-6.51,17.81-15.43.35-3.5-.37-7.03-2.07-10.12,4.88-1.5,8.83-5.12,10.75-9.86,1.92-4.73,1.61-10.08-.85-14.56,7.73-2.48,12.67-10.05,11.83-18.12-.6-5.25-3.6-9.93-8.13-12.67,2.49-3.44,3.64-7.67,3.21-11.9-.71-5.87-4.39-10.96-9.74-13.47v-48.39c.01-.89.26-1.77.72-2.54l11.9-19.86c1.37-2.29,2.11-4.9,2.12-7.57v-72.75c.11-8.99-6.52-16.64-15.43-17.8h0ZM81.2,155.51c-.23-2.08.44-4.16,1.84-5.72,1.4-1.56,3.39-2.45,5.49-2.45h31.93c2.71,0,4.91-2.2,4.91-4.91s-2.2-4.91-4.91-4.91h-22.11c-2.09,0-4.09-.88-5.49-2.44s-2.07-3.64-1.85-5.72c.63-3.92,4.08-6.74,8.05-6.58h31.23c2.71,0,4.91-2.2,4.91-4.91s-2.2-4.91-4.91-4.91h-22.11c-2.09,0-4.09-.88-5.49-2.44s-2.07-3.64-1.85-5.72c.63-3.92,4.08-6.75,8.05-6.58h72.75c.9,0,1.77.26,2.54.73l19.87,11.9c2.29,1.37,4.9,2.1,7.57,2.11h46.42v43.67l-8.51-6.97c-6.39-4.87-15.37-4.38-21.18,1.16-4.32,4.19-5.82,10.49-3.85,16.17h-16.47c-3.87.02-7.57,1.55-10.32,4.27l-46.23,45.86-.1.1-2.04,2.02c-2.4,2.34-6.23,2.32-8.6-.06-2.16-2.17-2.37-5.6-.49-8.01l13.51-16.51c1.2-1.47,1.45-3.5.64-5.21-.81-1.71-2.54-2.81-4.44-2.81h-55.8c-3.96.15-7.4-2.67-8.03-6.58-.22-2.08.45-4.16,1.84-5.72,1.4-1.56,3.39-2.45,5.49-2.44h27.02c2.71,0,4.91-2.2,4.91-4.91s-2.2-4.91-4.91-4.91h-31.23c-3.95.15-7.4-2.66-8.03-6.57h0ZM277.67,248.82l-44.85,44.48c-.9.9-2.12,1.41-3.4,1.41h-23.76l-44.48-44.83c-.9-.9-1.41-2.13-1.42-3.4v-23.78l44.84-44.47c.9-.91,2.13-1.42,3.41-1.42h23.78l44.48,44.83c.9.91,1.4,2.13,1.41,3.41v23.76ZM162.97,368.38c-2.07.22-4.13-.45-5.67-1.85-1.55-1.4-2.43-3.39-2.44-5.48v-27.02c0-2.71-2.2-4.91-4.91-4.91s-4.91,2.2-4.91,4.91v31.24c.13,3.97-2.71,7.42-6.64,8.03-2.06.22-4.13-.45-5.66-1.85-1.55-1.41-2.44-3.4-2.44-5.49v-31.93c0-2.71-2.2-4.91-4.91-4.91s-4.91,2.2-4.91,4.91v22.17c-.01,2.08-.91,4.06-2.46,5.45-1.55,1.39-3.62,2.05-5.69,1.83-3.91-.63-6.74-4.08-6.58-8.04v-31.23c0-2.71-2.2-4.91-4.91-4.91s-4.91,2.2-4.91,4.91v22.15c0,2.08-.9,4.07-2.45,5.46s-3.62,2.06-5.7,1.84c-3.91-.63-6.74-4.08-6.59-8.04v-72.75c0-.89.24-1.75.67-2.53l11.95-19.88c1.37-2.29,2.1-4.9,2.11-7.56v-46.43h43.67l-6.97,8.51c-4.49,5.47-4.81,13.25-.78,19.07,4.03,5.82,11.43,8.25,18.13,5.96v16.47c.02,3.87,1.55,7.57,4.27,10.32l45.82,46.18c.05.06.11.11.17.17l2,2.01c1.72,1.75,2.22,4.37,1.27,6.63-.95,2.26-3.17,3.74-5.63,3.73-1.34,0-2.64-.44-3.68-1.27l-16.5-13.51c-1.47-1.23-3.52-1.49-5.25-.67-1.73.82-2.83,2.57-2.81,4.48v55.8c.14,3.97-2.7,7.41-6.62,8.03h0ZM356.24,316.03c.23,2.08-.44,4.16-1.84,5.72-1.4,1.56-3.39,2.45-5.49,2.45h-31.93c-2.71,0-4.91,2.2-4.91,4.91s2.2,4.91,4.91,4.91h22.11c2.09,0,4.09.88,5.49,2.44,1.4,1.56,2.07,3.64,1.85,5.72-.63,3.92-4.08,6.74-8.05,6.58h-31.23c-2.71,0-4.91,2.2-4.91,4.91s2.2,4.91,4.91,4.91h22.11c2.09,0,4.09.88,5.49,2.44,1.4,1.56,2.07,3.64,1.85,5.72-.63,3.92-4.08,6.75-8.05,6.58h-72.75c-.9,0-1.77-.26-2.54-.73l-19.87-11.9c-2.29-1.37-4.9-2.1-7.57-2.11h-46.42v-43.68l8.51,6.97c6.38,4.89,15.37,4.4,21.18-1.16,4.32-4.18,5.82-10.48,3.86-16.16h16.46c3.87-.02,7.57-1.55,10.32-4.27l46.22-45.84.17-.17,2-1.97c2.4-2.34,6.23-2.32,8.6.06,2.16,2.17,2.37,5.6.49,8.01l-13.51,16.51c-1.19,1.47-1.44,3.49-.63,5.2.81,1.71,2.53,2.8,4.42,2.81h55.8c3.96-.15,7.4,2.67,8.03,6.58.22,2.08-.45,4.16-1.84,5.72-1.4,1.56-3.39,2.45-5.49,2.44h-27.02c-2.71,0-4.91,2.2-4.91,4.91s2.2,4.91,4.91,4.91h31.25c3.95-.15,7.38,2.67,8.02,6.57h0ZM356.28,198.68c0,.89-.26,1.77-.72,2.54l-11.9,19.87c-1.37,2.28-2.1,4.9-2.11,7.56v46.43h-43.68l6.97-8.51c5.06-6.32,4.55-15.44-1.17-21.17-4.29-4.12-10.5-5.55-16.16-3.72v-16.61c-.02-3.87-1.55-7.57-4.27-10.32l-45.84-46.25-.09-.09-2.03-2.04c-1.15-1.14-1.79-2.69-1.78-4.31s.68-3.16,1.84-4.28c2.2-2.1,5.58-2.3,8.02-.49l16.5,13.51c1.47,1.19,3.49,1.43,5.19.62s2.8-2.52,2.81-4.41v-55.8c-.15-3.96,2.67-7.4,6.58-8.03,2.08-.22,4.16.45,5.71,1.85s2.44,3.39,2.44,5.48v27.02c0,2.71,2.2,4.91,4.91,4.91s4.91-2.2,4.91-4.91v-31.23c-.15-3.96,2.67-7.41,6.58-8.03,2.08-.22,4.16.45,5.71,1.85,1.56,1.4,2.44,3.39,2.44,5.48v31.93c0,2.71,2.2,4.91,4.91,4.91s4.91-2.2,4.91-4.91v-22.11c0-2.09.88-4.09,2.44-5.49s3.63-2.07,5.72-1.85c3.91.63,6.74,4.08,6.58,8.04v31.23c0,2.71,2.2,4.91,4.91,4.91s4.91-2.2,4.91-4.91v-22.11c0-2.09.88-4.09,2.44-5.49,1.56-1.4,3.63-2.07,5.72-1.85,3.91.63,6.74,4.08,6.58,8.04v72.75Z"/>
    </g>
  </g>
</svg>