<svg id="Layer_1" viewBox="0 0 512 512" xmlns="http://www.w3.org/2000/svg" data-name="Layer 1"><path d="m489.305 4.015h-146.778c-10.308 0-18.694 8.373-18.694 18.666v50.422c-17.578-12.613-39.11-20.049-62.348-20.049s-44.77 7.436-62.348 20.049v-50.422c0-10.293-8.374-18.666-18.666-18.666h-146.807c-10.292 0-18.666 8.373-18.666 18.666v87.874c0 10.293 8.373 18.666 18.666 18.666h48.951l19.026 41.085c.982 2.119 3.104 3.476 5.44 3.476h.001c2.336 0 4.459-1.358 5.44-3.479l18.999-41.082h27.355c-2.977 9.826-4.584 20.241-4.584 31.025 0 59.105 48.086 107.191 107.192 107.191s107.192-48.086 107.192-107.191c0-10.785-1.607-21.199-4.584-31.025h27.357l19.026 41.085c.982 2.119 3.104 3.476 5.44 3.476h.001c2.336 0 4.459-1.358 5.44-3.479l18.999-41.082h48.948c10.308 0 18.694-8.373 18.694-18.666v-87.874c0-10.293-8.386-18.666-18.694-18.666zm-361.615 113.215c-2.337 0-4.46 1.357-5.441 3.479l-15.17 32.803-15.192-32.806c-.982-2.119-3.105-3.476-5.44-3.476h-52.781c-3.681 0-6.675-2.995-6.675-6.676v-87.873c0-3.681 2.995-6.676 6.675-6.676h146.807c3.681 0 6.676 2.995 6.676 6.676v60.416c-10.015 9.653-18.158 21.232-23.833 34.134h-35.624zm133.795 138.217c-52.494 0-95.202-42.707-95.202-95.201s42.708-95.202 95.202-95.202 95.202 42.708 95.202 95.202-42.707 95.201-95.202 95.201zm234.524-144.893c0 3.681-3.007 6.676-6.704 6.676h-52.781c-2.337 0-4.46 1.357-5.441 3.479l-15.17 32.803-15.192-32.806c-.982-2.119-3.105-3.476-5.44-3.476h-35.624c-5.675-12.902-13.818-24.481-23.833-34.134v-60.415c0-3.681 3.007-6.676 6.704-6.676h146.778c3.697 0 6.704 2.995 6.704 6.676v87.874zm-234.524-30.401c-44.164 0-80.093 35.93-80.093 80.093s35.929 80.093 80.093 80.093 80.093-35.93 80.093-80.093-35.929-80.093-80.093-80.093zm0 148.195c-37.552 0-68.103-30.551-68.103-68.103s30.551-68.103 68.103-68.103 68.102 30.551 68.102 68.103-30.551 68.103-68.102 68.103zm29.296-50.557c0 12.572-10.012 23.098-23.301 25.571v7.027c0 3.312-2.684 5.995-5.995 5.995s-5.995-2.684-5.995-5.995v-7.028c-13.273-2.476-23.272-13-23.272-25.57 0-3.312 2.684-5.995 5.995-5.995s5.995 2.684 5.995 5.995c0 7.792 7.75 14.131 17.277 14.131s17.306-6.339 17.306-14.131c0-9.319-4.896-11.28-17.851-14.141-10.854-2.396-25.718-5.679-25.718-23.531 0-11.133 8.666-20.485 20.268-22.923v-7.097c0-3.312 2.684-5.995 5.995-5.995s5.995 2.684 5.995 5.995v7.097c11.602 2.438 20.268 11.79 20.268 22.923 0 3.312-2.684 5.995-5.995 5.995s-5.995-2.684-5.995-5.995c0-6.369-6.403-11.552-14.272-11.552s-14.272 5.183-14.272 11.552c0 7.548 4.229 9.154 16.313 11.823 10.854 2.396 27.255 6.018 27.255 25.849zm-71.277 232.059h-16.411c-3.492-20.064-11.417-37.354-23.622-51.441-9.24-10.666-20.758-19.114-33.756-24.867 16.827-12.58 27.74-32.656 27.74-55.234 0-38.005-30.919-68.924-68.924-68.924s-68.924 30.919-68.924 68.924c0 22.575 10.91 42.65 27.734 55.23-14.894 6.576-27.74 16.642-37.593 29.587-13.837 18.18-21.153 40.794-21.746 67.212 0 .045-.001.09-.001.135v71.518c0 3.312 2.684 5.995 5.995 5.995h189.071c3.311 0 5.995-2.684 5.995-5.995v-31.705h14.443c16.669 0 30.231-13.562 30.231-30.231s-13.562-30.203-30.231-30.203zm-171.908-131.541c0-31.394 25.541-56.934 56.934-56.934s56.934 25.54 56.934 56.934-25.541 56.935-56.934 56.935-56.934-25.541-56.934-56.935zm145.475 217.687h-177.08v-65.454c1.011-44.113 23.621-77.291 60.614-89.241 8.543 3.802 17.988 5.934 27.926 5.934s19.388-2.132 27.933-5.937c30.899 9.975 51.875 34.659 58.445 68.554h-55.773l-43.511-25.134c-17.071-9.854-33.607-1.844-41.119 11.158-7.512 13.006-6.186 31.336 10.888 41.207l49.06 28.317c4.899 3.196 10.581 4.886 16.442 4.886h66.175zm26.433-37.7h-92.608c-3.566 0-7.019-1.038-9.986-3.002-.102-.067-.206-.132-.312-.192l-49.206-28.401c-10.794-6.24-11.043-16.966-6.503-24.826 3.13-5.418 8.574-9.544 15.19-9.544 2.98 0 6.199.838 9.549 2.771l44.901 25.937c.912.526 1.946.804 2.999.804h64.414s.007 0 .011 0h.015 21.536c10.058 0 18.241 8.17 18.241 18.213s-8.183 18.241-18.241 18.241zm266.738-95.168c-9.851-12.947-22.694-23.013-37.583-29.588 16.824-12.58 27.735-32.655 27.735-55.23 0-38.005-30.919-68.924-68.924-68.924s-68.924 30.919-68.924 68.924c0 22.576 10.911 42.651 27.735 55.231-30.285 13.379-51.156 40.954-57.369 76.311h-16.415c-16.669 0-30.231 13.549-30.231 30.203s13.562 30.231 30.231 30.231h14.443v31.705c0 3.312 2.684 5.995 5.995 5.995h189.071c3.311 0 5.995-2.684 5.995-5.995v-71.518c0-.046 0-.092-.001-.138-.606-26.421-7.926-49.033-21.756-67.208zm-135.707-84.818c0-31.394 25.541-56.934 56.934-56.934s56.934 25.54 56.934 56.934-25.541 56.935-56.934 56.935-56.934-25.541-56.934-56.935zm-58.039 179.986c-10.058 0-18.241-8.183-18.241-18.241s8.183-18.213 18.241-18.213h21.536s.01 0 .015 0h.011 64.414c1.053 0 2.087-.277 2.999-.804l44.899-25.936c10.791-6.228 20.2-1.088 24.737 6.77 4.539 7.861 4.281 18.586-6.523 24.826l-49.209 28.403c-.106.062-.21.125-.312.192-2.967 1.964-6.42 3.002-9.986 3.002h-92.58zm203.514 37.7h-177.081v-25.71h66.146c5.862 0 11.542-1.688 16.441-4.887l49.061-28.317c17.085-9.867 18.422-28.197 10.912-41.205-7.508-13.004-24.044-21.013-41.117-11.158l-43.509 25.133h-55.777c6.55-33.889 27.527-58.573 58.449-68.554 8.545 3.804 17.992 5.937 27.933 5.937s19.383-2.131 27.926-5.934c36.969 11.944 59.579 45.121 60.614 89.242v65.453zm-325.021-459.369c0 3.312-2.684 5.995-5.995 5.995h-115.852c-3.311 0-5.995-2.684-5.995-5.995s2.684-5.995 5.995-5.995h115.852c3.311 0 5.995 2.684 5.995 5.995zm-23.244 59.98c0 3.312-2.684 5.995-5.995 5.995h-92.608c-3.311 0-5.995-2.684-5.995-5.995s2.684-5.995 5.995-5.995h92.608c3.311 0 5.995 2.684 5.995 5.995zm23.244-29.99c0 3.312-2.684 5.995-5.995 5.995h-115.852c-3.311 0-5.995-2.684-5.995-5.995s2.684-5.995 5.995-5.995h115.852c3.311 0 5.995 2.684 5.995 5.995zm308.834 0c0 3.312-2.684 5.995-5.995 5.995h-115.824c-3.311 0-5.995-2.684-5.995-5.995s2.684-5.995 5.995-5.995h115.824c3.311 0 5.995 2.684 5.995 5.995zm0 29.99c0 3.312-2.684 5.995-5.995 5.995h-92.58c-3.311 0-5.995-2.684-5.995-5.995s2.684-5.995 5.995-5.995h92.58c3.311 0 5.995 2.684 5.995 5.995zm0-59.98c0 3.312-2.684 5.995-5.995 5.995h-115.824c-3.311 0-5.995-2.684-5.995-5.995s2.684-5.995 5.995-5.995h115.824c3.311 0 5.995 2.684 5.995 5.995z"/></svg>