<?xml version="1.0" encoding="UTF-8" standalone="no"?>
<!-- Created with Inkscape (http://www.inkscape.org/) -->

<svg
   version="1.1"
   id="svg141"
   xml:space="preserve"
   width="682.66669"
   height="682.66669"
   viewBox="0 0 682.66669 682.66669"
   xmlns="http://www.w3.org/2000/svg"
   xmlns:svg="http://www.w3.org/2000/svg"><defs
     id="defs145"><clipPath
       clipPathUnits="userSpaceOnUse"
       id="clipPath155"><path
         d="M 0,512 H 512 V 0 H 0 Z"
         id="path153" /></clipPath></defs><g
     id="g147"
     transform="matrix(1.3333333,0,0,-1.3333333,0,682.66667)"><g
       id="g149"><g
         id="g151"
         clip-path="url(#clipPath155)"><g
           id="g157"
           transform="translate(268.2705,268.2896)"><path
             d="m 0,0 c -55.846,53.917 -125.552,94.011 -142.627,52.894 -0.205,-0.467 -1.842,-4.91 -3.1,-7.656 l -87.278,-245.213 c -5,-14.086 -3.509,-24.577 2.983,-29.924 5.35,-6.459 15.847,-7.978 29.94,-2.981 l 245.344,87.231 c 2.749,1.257 7.193,2.893 7.661,3.098 C 94.062,-125.485 53.946,-55.816 0,0 Z"
             style="fill:none;stroke:#000000;stroke-width:15;stroke-linecap:round;stroke-linejoin:round;stroke-miterlimit:10;stroke-dasharray:none;stroke-opacity:1"
             id="path159" /></g><g
           id="g161"
           transform="translate(232.1021,203.1802)"><path
             d="M 0,0 C 27.514,-31.181 49.268,-64.7 54.648,-90.066 L 9.62,-106.081 c -11.93,26.067 -34.882,56.46 -61.08,83.608 -27.164,26.184 -57.572,49.124 -83.653,61.048 l 16.023,45.004 c 26.49,-5.611 61.869,-29.048 94.178,-58.243"
             style="fill:none;stroke:#000000;stroke-width:15;stroke-linecap:round;stroke-linejoin:round;stroke-miterlimit:10;stroke-dasharray:none;stroke-opacity:1"
             id="path163" /></g><g
           id="g165"
           transform="translate(130.5552,130.6479)"><path
             d="M 0,0 C 17.573,-18.206 33.683,-37.874 45.993,-56.722 L -5.292,-74.929 c -9.678,12.654 -20.643,25.337 -32.28,37.377 -12.047,11.631 -24.736,22.59 -37.397,32.262 l 18.216,51.258 C -37.894,33.665 -18.216,17.563 0,0 Z"
             style="fill:none;stroke:#000000;stroke-width:15;stroke-linecap:round;stroke-linejoin:round;stroke-miterlimit:10;stroke-dasharray:none;stroke-opacity:1"
             id="path167" /></g><g
           id="g169"
           transform="translate(312.626,353.3877)"><path
             d="m 0,0 31.549,37.932 c 4.006,4.004 10.555,4.004 14.561,0 L 78.272,5.815 c 4.006,-4.003 4.006,-10.549 0,-14.553 L -31.022,-99.505 m -28.245,28.2 36.46,43.835"
             style="fill:none;stroke:#000000;stroke-width:15;stroke-linecap:round;stroke-linejoin:round;stroke-miterlimit:10;stroke-dasharray:none;stroke-opacity:1"
             id="path171" /></g><g
           id="g173"
           transform="translate(221.2251,307.6826)"><path
             d="m 0,0 c 33.917,54.472 23.216,106.636 15.292,138.84 -9.649,39.276 -64.267,29.953 -53.098,-11.602 9.503,-35.448 13.655,-63.414 6.988,-108.331"
             style="fill:none;stroke:#000000;stroke-width:15;stroke-linecap:round;stroke-linejoin:round;stroke-miterlimit:10;stroke-dasharray:none;stroke-opacity:1"
             id="path175" /></g><g
           id="g177"
           transform="translate(308.2402,220.4805)"><path
             d="M 0,0 C 55.524,29.954 106.4,16.774 137.861,7.335 176.633,-4.296 164.557,-58.33 123.593,-45.092 89.646,-34.104 62.483,-28.551 19.474,-32.263"
             style="fill:none;stroke:#000000;stroke-width:15;stroke-linecap:round;stroke-linejoin:round;stroke-miterlimit:10;stroke-dasharray:none;stroke-opacity:1"
             id="path179" /></g><g
           id="g181"
           transform="translate(422.3018,498.2769)"><path
             d="m 0,0 -6.258,-22.005 c -0.701,-2.396 -0.672,-3.127 -3.04,-4.442 L -30.292,-38.02 c -4.064,-2.25 -4.006,-3.331 -0.117,-5.903 l 19.152,-13.53 c 2.046,-1.461 2.836,-3.566 3.333,-6.254 l 4.065,-22.005 c 0.701,-4.617 1.783,-4.91 5.496,-2.104 l 17.573,13.53 c 1.812,1.403 5.059,2.28 7.339,1.958 l 21.958,-2.922 c 4.649,-0.584 5.409,0.205 3.743,4.559 l -7.515,21.099 c -0.906,2.571 -1.256,4.763 -0.205,7.072 l 9.796,21.304 c 2.075,4.15 1.608,5.114 -3.07,5.026 l -23.947,-0.467 c -2.719,-0.03 -3.07,0.613 -4.854,2.338 L 6.023,1.607 C 2.689,4.822 1.286,4.442 0,0 Z"
             style="fill:none;stroke:#000000;stroke-width:15;stroke-linecap:round;stroke-linejoin:round;stroke-miterlimit:10;stroke-dasharray:none;stroke-opacity:1"
             id="path183" /></g><g
           id="g185"
           transform="translate(337.5381,481.6196)"><path
             d="m 0,0 -29.239,16.891 c -3.304,1.9 -8.187,1.023 -9.503,-2.572 l -15.935,-43.016 c -1.345,-3.595 -0.761,-7.598 2.543,-9.498 l 15.848,-9.176 c 3.334,-1.9 7.076,-0.38 9.503,2.572 L 2.544,-9.498 C 5,-6.546 3.333,-1.9 0,0 Z"
             style="fill:none;stroke:#000000;stroke-width:15;stroke-linecap:round;stroke-linejoin:round;stroke-miterlimit:10;stroke-dasharray:none;stroke-opacity:1"
             id="path187" /></g><g
           id="g189"
           transform="translate(451.0137,369.8403)"><path
             d="m 0,0 h 44.269 c 5.028,0 9.969,-4.179 9.122,-9.118 L 43.274,-68.412 c -0.848,-4.938 -4.123,-9.117 -9.123,-9.117 H 10.146 c -5.029,0 -8.274,4.179 -9.123,9.117 L -9.122,-9.118 C -9.97,-4.179 -4.999,0 0,0 Z"
             style="fill:none;stroke:#000000;stroke-width:15;stroke-linecap:round;stroke-linejoin:round;stroke-miterlimit:10;stroke-dasharray:none;stroke-opacity:1"
             id="path191" /></g><g
           id="g193"
           transform="translate(14.5645,354.9072)"><path
             d="m 0,0 42.747,11.456 c 4.854,1.315 10.702,-1.461 11.17,-6.43 l 5.584,-59.907 c 0.468,-4.997 -1.608,-9.878 -6.461,-11.163 l -23.187,-6.225 c -4.854,-1.286 -9.064,1.899 -11.169,6.458 L -6.462,-11.163 C -8.567,-6.604 -4.854,-1.286 0,0 Z"
             style="fill:none;stroke:#000000;stroke-width:15;stroke-linecap:round;stroke-linejoin:round;stroke-miterlimit:10;stroke-dasharray:none;stroke-opacity:1"
             id="path195" /></g><g
           id="g197"
           transform="translate(374.291,41.4585)"><path
             d="m 0,0 -28.829,-28.814 c -3.275,-3.273 -9.211,-3.77 -11.871,0 l -32.046,45.208 c -2.691,3.77 -3.275,8.621 0,11.894 l 15.613,15.606 c 3.275,3.273 8.129,2.688 11.901,0 L 0,11.865 C 3.771,9.205 3.275,3.273 0,0 Z"
             style="fill:none;stroke:#000000;stroke-width:15;stroke-linecap:round;stroke-linejoin:round;stroke-miterlimit:10;stroke-dasharray:none;stroke-opacity:1"
             id="path199" /></g><g
           id="g201"
           transform="translate(103.7432,497.0493)"><path
             d="m 0,0 6.812,-23.875 c 0.761,-2.601 0.731,-3.39 3.305,-4.822 l 22.777,-12.566 c 4.415,-2.426 4.356,-3.595 0.146,-6.4 L 12.251,-62.362 C 10,-63.94 9.152,-66.22 8.596,-69.142 L 4.21,-93.018 c -0.789,-4.997 -1.959,-5.318 -5.994,-2.279 l -19.034,14.699 c -1.989,1.52 -5.497,2.455 -7.982,2.134 l -23.83,-3.186 c -5.029,-0.642 -5.877,0.234 -4.064,4.939 l 8.157,22.882 c 0.995,2.805 1.374,5.202 0.234,7.685 l -10.643,23.116 c -2.281,4.529 -1.754,5.582 3.304,5.465 l 26.023,-0.497 c 2.953,-0.059 3.304,0.643 5.263,2.542 L -6.521,1.753 C -2.895,5.26 -1.375,4.851 0,0 Z"
             style="fill:none;stroke:#000000;stroke-width:15;stroke-linecap:round;stroke-linejoin:round;stroke-miterlimit:10;stroke-dasharray:none;stroke-opacity:1"
             id="path203" /></g><g
           id="g205"
           transform="translate(450.7217,143.5352)"><path
             d="m 0,0 -12.777,-21.333 c -1.404,-2.337 -1.579,-3.098 -4.445,-3.799 l -25.292,-6.254 c -4.912,-1.227 -5.145,-2.366 -1.783,-6.166 l 16.286,-19.609 c 1.754,-2.104 1.989,-4.529 1.754,-7.481 l -1.93,-24.255 c -0.555,-5.026 0.498,-5.64 5.206,-3.741 l 22.221,9.264 c 2.339,0.965 5.965,0.965 8.275,0 l 22.251,-9.264 c 4.677,-1.899 5.73,-1.285 5.204,3.741 l -1.959,24.255 c -0.234,2.952 0,5.377 1.755,7.481 l 16.314,19.609 c 3.363,3.8 3.1,4.939 -1.812,6.166 l -25.292,6.254 c -2.866,0.701 -3.04,1.462 -4.445,3.799 L 6.754,0 C 4.182,4.325 2.603,4.325 0,0 Z"
             style="fill:none;stroke:#000000;stroke-width:15;stroke-linecap:round;stroke-linejoin:round;stroke-miterlimit:10;stroke-dasharray:none;stroke-opacity:1"
             id="path207" /></g></g></g></g></svg>
