<svg id="Layer_1" viewBox="0 0 512 512" xmlns="http://www.w3.org/2000/svg" data-name="Layer 1"><path d="m294.356 343.466c26.014-13.673 43.805-40.953 43.805-72.325 0-45.031-36.636-81.666-81.666-81.666s-81.695 36.635-81.695 81.666c0 31.37 17.796 58.648 43.816 72.323-61.244 15.318-109.025 66.935-117.235 131.896-1.194 9.551.221 16.454 4.324 21.103 2.285 2.589 6.558 5.674 13.933 5.674h273.685c7.363 0 11.637-3.09 13.926-5.683 4.105-4.651 5.532-11.467 4.361-20.836-8.115-65.088-55.909-116.811-117.255-132.15zm-105.552-72.325c0-37.31 30.366-67.663 67.691-67.663s67.662 30.354 67.662 67.663-30.353 67.663-67.662 67.663-67.691-30.354-67.691-67.663zm207.947 216.044c-.691.783-2.245.948-3.428.948h-273.685c-1.188 0-2.75-.163-3.435-.938-.45-.51-1.847-2.745-.929-10.089 8.956-70.862 69.655-124.298 141.192-124.298s132.396 53.542 141.248 124.544c.888 7.106-.513 9.324-.964 9.834zm-224.253-398.099 42.208 30.352-15.963 49.399c-1.443 4.333.083 9.042 3.771 11.7 1.828 1.33 3.973 1.997 6.126 1.997s4.325-.67 6.19-2.016l41.911-30.785 42.005 30.419c3.715 2.763 8.703 2.76 12.412 0 3.632-2.703 5.111-7.4 3.687-11.672l-16.33-49.342 42.012-30.618c.019-.013.037-.027.056-.041 3.646-2.712 5.137-7.41 3.71-11.684-1.45-4.356-5.471-7.194-9.967-7.142l-51.967.27-16.161-49.457c-1.432-4.291-5.38-7.139-9.864-7.139-.044 0-.088 0-.132 0-4.549.028-8.512 2.948-9.865 7.255l-15.797 49.526-51.97.082c-4.58 0-8.574 2.929-9.94 7.289-1.364 4.351.213 9.03 3.868 11.605zm60.668-4.976c4.571 0 8.565-2.938 9.931-7.283l13.231-41.483 13.499 41.309c1.366 4.359 5.373 7.288 10.005 7.288l43.517-.227-35.233 25.678c-3.576 2.662-5.082 7.31-3.747 11.566.011.035.022.07.033.105l13.674 41.315-35.308-25.569c-3.714-2.618-8.645-2.562-12.231.108l-35.093 25.777 13.365-41.36c1.464-4.386-.097-9.126-3.829-11.756l-35.321-25.4 43.508-.068zm268.928 77.158c-2.296-3.994-6.825-5.996-11.295-4.993l-50.781 10.895-25.888-45.036c-2.243-3.966-6.757-5.993-11.229-5.047-4.484.948-7.786 4.645-8.209 9.135l-5.348 51.718-50.877 10.694c-4.464.945-7.755 4.614-8.207 9.139-.476 4.5 1.975 8.763 6.142 10.632l47.526 21.05-5.528 51.642c-.508 4.488 1.925 8.774 6.053 10.667.053.024.106.048.16.071 1.342.575 2.753.854 4.149.854 2.91 0 5.758-1.209 7.789-3.466l34.697-38.691 47.45 21.215c4.104 1.84 8.919.853 11.979-2.461.042-.045.084-.091.124-.138 2.978-3.402 3.446-8.298 1.185-12.148l-26.076-44.971 34.878-38.549c.025-.029.052-.058.077-.087 2.937-3.357 3.439-8.212 1.228-12.124zm-48.324 43.308c-3.007 3.34-3.536 8.224-1.278 12.222l21.832 37.653-39.674-17.738c-4.159-1.907-9.01-.898-12.07 2.512l-29.085 32.434 4.632-43.271c.52-4.59-1.977-8.894-6.134-10.675l-39.838-17.646 42.593-8.953c4.521-.939 7.844-4.654 8.262-9.168l4.475-43.275 21.726 37.794c2.284 3.892 6.772 5.884 11.192 4.945l42.597-9.139-29.229 32.305zm-329.575 88.113c1.397 0 2.811-.279 4.154-.854.053-.023.105-.046.158-.071 4.128-1.892 6.561-6.179 6.058-10.625l-5.533-51.683 47.557-21.064c4.138-1.857 6.588-6.119 6.111-10.619-.452-4.525-3.743-8.194-8.217-9.141l-50.867-10.691-5.341-51.66c-.433-4.551-3.734-8.246-8.214-9.193-4.473-.95-8.987 1.08-11.206 5.004l-25.912 45.078-50.781-10.895c-4.465-1-8.999.999-11.32 5.038-2.211 3.916-1.671 8.799 1.346 12.152.004.004.008.008.012.012l34.851 38.55-26.057 44.938c-2.281 3.883-1.812 8.779 1.165 12.181.04.047.082.093.124.138 3.06 3.315 7.874 4.306 11.971 2.465l47.459-21.218 34.706 38.701c2.024 2.25 4.869 3.457 7.777 3.457zm-41.545-56.924c-1.441 0-2.898.301-4.279.921l-39.733 17.765 21.813-37.621c2.307-3.929 1.801-8.854-1.271-12.265l-29.189-32.288 42.588 9.137c4.399.931 8.888-1.058 11.205-5.005l21.694-37.74 4.467 43.202c.425 4.589 3.747 8.304 8.252 9.24l42.609 8.956-39.761 17.612c-4.234 1.815-6.73 6.119-6.216 10.667l4.638 43.313-29.088-32.436c-2.023-2.254-4.845-3.458-7.729-3.458z"/></svg>