<?xml version="1.0" encoding="UTF-8"?>
<svg id="Layer_1" xmlns="http://www.w3.org/2000/svg" version="1.1" viewBox="0 0 506.39 483.36">
  <!-- Generator: Adobe Illustrator 30.2.1, SVG Export Plug-In . SVG Version: 2.1.1 Build 1)  -->
  <defs>
    <style>
      .st0 {
        fill: #010101;
      }
    </style>
  </defs>
  <path class="st0" d="M418.34,320.76c-1.38-5.14-4.68-9.43-9.28-12.1-1.75-1.01-3.59-1.72-5.47-2.15v-129.67c1.88-.43,3.72-1.13,5.47-2.14,9.51-5.5,12.79-17.7,7.3-27.21,0,0,0,0,0,0-5.5-9.5-17.71-12.78-27.23-7.29-1.75,1.01-3.29,2.25-4.61,3.67l-112.27-64.83c.56-1.84.87-3.8.87-5.82,0-10.98-8.94-19.91-19.93-19.91s-19.93,8.93-19.93,19.91c0,2.03.31,3.98.87,5.82l-112.27,64.83c-1.31-1.41-2.85-2.65-4.61-3.67-9.51-5.48-21.72-2.21-27.22,7.3,0,0,0,0,0,0-5.49,9.51-2.22,21.71,7.3,27.21,1.73,1,3.58,1.72,5.47,2.16v129.65c-1.9.44-3.74,1.17-5.47,2.17-4.6,2.66-7.9,6.95-9.28,12.09-1.38,5.14-.68,10.51,1.98,15.12,0,0,0,0,0,0,3.69,6.38,10.41,9.95,17.31,9.95,3.37,0,6.79-.86,9.92-2.66,1.75-1.01,3.29-2.26,4.6-3.67l112.27,64.81c-.57,1.85-.87,3.81-.87,5.84,0,10.98,8.94,19.91,19.93,19.91s19.93-8.93,19.93-19.91c0-2.03-.31-3.99-.87-5.84l112.27-64.81c1.31,1.41,2.85,2.66,4.61,3.67,3.13,1.8,6.54,2.65,9.91,2.65,6.9,0,13.62-3.57,17.31-9.95,0,0,0,0,0,0,2.66-4.6,3.36-9.97,1.98-15.12h0ZM393.61,147.95c1.72-.99,3.6-1.46,5.46-1.46,3.8,0,7.5,1.97,9.53,5.48,3.02,5.23,1.21,11.94-4.02,14.96-5.24,3.02-11.95,1.22-14.97-4.02-3.02-5.23-1.23-11.95,3.99-14.96h0ZM253.2,62.26c6.05,0,10.97,4.91,10.97,10.95s-4.92,10.97-10.97,10.97-10.97-4.92-10.97-10.97,4.92-10.95,10.97-10.95ZM97.8,151.97c3.03-5.23,9.75-7.03,14.98-4.02,5.23,3.02,7.02,9.73,4,14.97-1.46,2.53-3.82,4.35-6.64,5.11-2.83.76-5.78.37-8.32-1.09-5.23-3.02-7.04-9.74-4.02-14.96h0ZM112.79,335.41c-5.24,3.02-11.96,1.21-14.99-4.02-1.46-2.53-1.85-5.48-1.09-8.31.76-2.83,2.57-5.19,5.11-6.66,2.53-1.46,5.48-1.85,8.31-1.1,2.83.76,5.19,2.56,6.65,5.09,3.02,5.25,1.23,11.97-3.99,14.99h0ZM253.2,421.1c-6.05,0-10.97-4.91-10.97-10.95s4.92-10.97,10.97-10.97,10.97,4.92,10.97,10.97-4.92,10.95-10.97,10.95ZM267.75,396.56c-3.64-3.9-8.82-6.34-14.56-6.34s-10.92,2.44-14.56,6.34l-112.31-64.83c1.55-5.1,1.08-10.81-1.79-15.79-2.66-4.6-6.96-7.9-12.1-9.27-.22-.06-.45-.11-.67-.16v-129.67c.23-.05.46-.1.69-.16,5.14-1.38,9.43-4.68,12.09-9.29,2.87-4.97,3.35-10.67,1.79-15.77l112.29-64.84c3.64,3.9,8.82,6.35,14.57,6.35s10.93-2.45,14.57-6.35l112.29,64.84c-1.55,5.1-1.08,10.8,1.79,15.77,2.87,4.98,7.57,8.23,12.77,9.44v129.69c-5.2,1.2-9.91,4.46-12.77,9.42-2.87,4.98-3.34,10.68-1.79,15.78l-112.31,64.83h0ZM408.6,331.39c-3.03,5.23-9.75,7.04-14.99,4.02-5.23-3.02-7.02-9.74-4-14.98,2.02-3.5,5.71-5.46,9.5-5.46,1.86,0,3.74.47,5.46,1.46,2.53,1.46,4.35,3.83,5.11,6.66.76,2.83.37,5.78-1.08,8.3h0ZM350.49,224.6c-14.28-13.61-14.4-15.54-15.28-30.6-.09-1.48-.18-3.07-.29-4.78-.64-9.9-3.42-19.08-8.29-27.28-10.85-18.3-30.43-31.3-55.15-36.59-29.86-6.4-62.25-.62-84.54,15.08-21.3,15-35.25,37.74-38.3,62.37-3.25,26.31,5.67,52.56,25.78,75.91.05.06.1.11.15.17,11.46,12.04,17.4,28.44,16.28,45.01,0,.1-.01.2-.01.3v31.89c0,2.48,2.01,4.48,4.48,4.48h89.3c2.48,0,4.48-2.01,4.48-4.48v-13.98c.88-14.46,12.54-14.98,30.21-14.12,8.79.43,16.39.79,20.9-2.84,5.77-4.64,8.13-12.43,5.95-19.49-.23-1.34-.61-2.62-.96-3.77-.3-1-.79-2.64-.75-3.28,3.98-5.61,4.99-11.83,2.93-17.98-.37-1.13-.26-2.1.35-3.13,4.63-7.7,3.75-15.26-2.45-21.36-.16-.28-.27-.58-.22-.79.04-.17.53-1.73,4.92-4.08.06-.03.12-.07.18-.1,4.93-2.93,7.67-6.58,8.15-10.87.56-5.01-2-10.14-7.83-15.68h0ZM349.41,239.28c-.19,1.65-2.12,3.14-3.74,4.11-5.36,2.88-8.4,6.09-9.31,9.8-.47,1.94-.56,4.96,1.74,8.31.18.27.4.51.63.74,3.5,3.28,3.88,6.35,1.31,10.63-1.95,3.29-2.36,6.93-1.16,10.56,1.18,3.5.61,6.69-1.77,10-2.68,3.68-1.41,7.91-.49,10.99.32,1.06.62,2.06.73,2.88.04.26.1.53.18.78,1.21,3.62.02,7.66-2.94,10.05-1.86,1.5-9.07,1.15-14.85.87-7.91-.38-16.87-.82-24.34,1.64-9.51,3.13-14.65,10.21-15.26,21.05,0,.08,0,.17,0,.25v9.63h-80.34v-27.26c1.24-18.98-5.56-37.76-18.66-51.56-18.37-21.36-26.54-45.18-23.61-68.88,2.73-22.13,15.33-42.59,34.56-56.14,20.31-14.31,50.01-19.54,77.5-13.65,22.25,4.77,39.76,16.27,49.32,32.4,4.14,6.98,6.51,14.81,7.05,23.29.11,1.7.2,3.27.29,4.73.99,16.93,1.77,21.06,18.05,36.57,3.46,3.29,5.32,6.27,5.1,8.19h0ZM240.28,164.96v-12.52c0-2.48,2.01-4.48,4.48-4.48s4.48,2.01,4.48,4.48v12.52c0,2.48-2.01,4.48-4.48,4.48s-4.48-2.01-4.48-4.48ZM284.71,166.88l-7.35,10.13c-.88,1.21-2.24,1.85-3.63,1.85-.91,0-1.83-.28-2.63-.86-2-1.45-2.45-4.26-.99-6.26l7.35-10.13c1.45-2,4.26-2.45,6.26-.99s2.45,4.26.99,6.26h0ZM307.88,194.05c.76,2.36-.54,4.88-2.9,5.64l-11.91,3.82c-.45.15-.92.21-1.37.21-1.9,0-3.66-1.21-4.27-3.12-.76-2.36.54-4.88,2.9-5.64l11.91-3.82c2.36-.75,4.88.54,5.64,2.9ZM307.79,234.71c-.61,1.9-2.37,3.1-4.26,3.1-.46,0-.92-.07-1.38-.22l-11.91-3.86c-2.35-.76-3.65-3.29-2.88-5.65.76-2.35,3.29-3.64,5.65-2.88l11.91,3.86c2.35.76,3.65,3.29,2.88,5.65ZM283.42,262.66c1.4,2.04.89,4.83-1.15,6.23-.78.53-1.66.79-2.54.79-1.43,0-2.83-.68-3.7-1.94l-7.1-10.32c-1.4-2.04-.89-4.83,1.15-6.23,2.04-1.4,4.83-.89,6.23,1.15l7.1,10.32h0ZM249.24,263.53v12.52c0,2.48-2.01,4.48-4.48,4.48s-4.48-2.01-4.48-4.48v-12.52c0-2.48,2.01-4.48,4.48-4.48s4.48,2.01,4.48,4.48ZM221.2,257.77l-6.93,10.43c-.86,1.3-2.29,2-3.74,2-.85,0-1.71-.24-2.48-.75-2.06-1.37-2.62-4.15-1.25-6.21l6.93-10.43c1.37-2.06,4.15-2.62,6.21-1.25s2.62,4.15,1.25,6.21h0ZM201.99,227.59c.74,2.36-.58,4.88-2.94,5.61l-11.95,3.73c-.44.14-.89.2-1.34.2-1.91,0-3.68-1.23-4.28-3.15-.74-2.36.58-4.88,2.94-5.61l11.95-3.73c2.36-.74,4.88.58,5.61,2.94h0ZM181.17,195.51c.7-2.38,3.19-3.74,5.57-3.03l12.02,3.54c2.37.7,3.73,3.19,3.03,5.57-.57,1.95-2.36,3.22-4.3,3.22-.42,0-.85-.06-1.27-.18l-12.02-3.54c-2.37-.7-3.73-3.19-3.03-5.57h0ZM206.16,165.76c-1.4-2.04-.88-4.83,1.17-6.23,2.04-1.4,4.83-.88,6.23,1.17l7.08,10.34c1.4,2.04.88,4.83-1.17,6.23-.77.53-1.66.78-2.53.78-1.43,0-2.83-.68-3.7-1.95l-7.08-10.34h0ZM264.11,220.66l13.97-12.83c1.29-1.19,1.77-3.02,1.23-4.69-.54-1.67-2.01-2.87-3.75-3.07l-18.85-2.17-7.87-17.24c-.73-1.6-2.32-2.62-4.08-2.62h0c-1.75,0-3.35,1.02-4.08,2.62l-7.89,17.24-18.85,2.17c-1.74.2-3.21,1.4-3.75,3.07s-.06,3.5,1.23,4.69l13.97,12.83-3.76,18.61c-.35,1.72.34,3.48,1.76,4.51,1.42,1.03,3.31,1.14,4.84.28l16.53-9.33,16.51,9.33c.69.39,1.45.58,2.2.58.93,0,1.85-.29,2.63-.86,1.42-1.03,2.11-2.79,1.76-4.51l-3.76-18.61ZM256.18,215.77c-1.16,1.06-1.67,2.65-1.36,4.19l2.32,11.47-10.17-5.75c-1.37-.77-3.04-.77-4.41,0l-10.2,5.76,2.32-11.48c.31-1.54-.21-3.13-1.36-4.19l-8.61-7.91,11.62-1.34c1.56-.18,2.91-1.16,3.56-2.59l4.86-10.62,4.85,10.62c.65,1.43,2.01,2.41,3.56,2.59l11.62,1.34-8.61,7.91h0Z"/>
</svg>