<svg id="svg8" height="64" viewBox="0 0 64 64" width="64" xmlns="http://www.w3.org/2000/svg" xmlns:svg="http://www.w3.org/2000/svg"><g id="g51" stroke-width="1.804" transform="matrix(.998 0 0 .998 .123 -79.887)"><path id="path20" d="m33.02512 9.9153354c-6.239782.0003467-11.318943 4.3200546-11.31935 9.6298586-.0018 1.016678.282449 5.201413 4.884699 7.905954.397152.233392.868912.93482.868912 1.245413v1.242079c0 2.574581 2.485274 4.67655 5.565739 4.67655 3.080464 0 5.563781-2.101969 5.563781-4.67655v-1.242079c0-.310602.473735-1.012038.87087-1.245413 3.024592-1.777413 4.877064-4.721932 4.884699-7.904287 0-4.152776-3.872479-9.6311116-11.31935-9.6315256zm0 1.5371766c5.266577.000292 9.514642 3.61442 9.514986 8.092682-.0071 2.675874-1.562299 5.14699-4.103852 6.640535-.931797.54758-1.64976 1.446306-1.64976 2.510832v.230076h-2.861149v-6.400455l2.354284-2.234073c.331786-.315537.301149-.800332-.0685-1.083693-.369889-.284173-.941929-.258046-1.27401.05835l-1.833719 1.737245-2.025506-1.728906c-.35076-.300729-.922153-.301453-1.274014-.0017-.351297.299894-.351297.785466 0 1.08536l2.319058 1.980657v6.587183h-2.86115v-.230076c0-1.064526-.716009-1.963252-1.647803-2.510832-2.541545-1.493553-4.096808-3.964677-4.103851-6.640535.000343-4.478262 4.248408-8.09239 9.514986-8.092682zm-16.753969 2.687557c-.296126.340348-.212953.820683.185916 1.073689l1.935484 1.225407c.399847.253412.965167.182477 1.262272-.158386.296125-.340348.212952-.820683-.185916-1.073689l-1.935484-1.225407c-.390353-.246368-.959543-.187967-1.262272.158386zm32.278935-.158386-1.935484 1.225407c-.398225.253518-.480509.733776-.183959 1.073689.296984.339805.86081.410662 1.260315.158386l1.935484-1.225407c.398868-.253006.482042-.733341.185916-1.073689-.302609-.346216-.871745-.404867-1.262272-.158386zm-32.47855 4.183054c-.498351-.000184-.902398.344032-.902182.768588.000864.423904.404595.767106.902182.766921h2.375811c.496822-.000735.899363-.343667.900225-.766921.000216-.423905-.40264-.767852-.900225-.768588zm31.564626 0c-.498351-.000184-.902398.344032-.902182.768588.000864.423904.404595.767106.902182.766921h2.375811c.497586.000185.901318-.343017.902182-.766921.000216-.424556-.403832-.768772-.902182-.768588zm-23.6994 10.888609-17.9849285 4.444807c-.2423723.06528-.4440717.18824-.6242864.555184-1.5475301 3.156346-1.7765743 5.941809-.1957011 8.897949-1.2263528 2.417224-1.2312217 5.004856-.354219 7.532497.3913403 1.127897 1.3848776 1.852369 2.4814896 2.059016l25.8325414 4.866613c.993575.18723 2.016573.173929 3.004012-.04335l21.754131-4.788254c1.170738-.257613 1.852341-1.503501 1.53821-2.625871-.679306-2.427151-.622739-4.246298.383574-6.682215.03251-.09913.106404-.344144.0137-.606868-.939094-2.655318-1.124453-4.524373-.4188-6.813925.347478-1.127408-.41585-1.77903-1.497113-2.003998l-16.22949-2.774253c-.487921-.08302-.962576.186311-1.0607.601867-.09745.41567.218696.820039.706481.903633l12.505299 2.137375-16.558268 3.644541c-1.755561.386295-3.570299.412888-5.336768.08003l-22.3921181-4.219732 14.9359061-3.689557c.47825-.118336.753364-.544539.614501-.951982-.162046-.473712-.728297-.618845-1.117453-.523507zm5.379823 1.4088h7.415113c-.289555 1.490368-1.792765 2.617535-3.706578 2.617535-1.913815 0-3.418658-1.127167-3.708535-2.617535zm-22.6680557 4.911629 24.9401447 4.699891c.577361.108797 1.160187.179767 1.743697.220073-.533007 2.139436-.612467 3.439143-.483382 4.539838.09581.817006.288446 1.47667.467725 2.28409-.623943-.040973-1.245814-.115425-1.863074-.231743l-23.8109493-4.48482-.9941614-.201734c-1.2914325-2.357216-1.1414488-4.265402 0-6.825595zm51.1073347.171723c-.655733 2.259999-.456915 4.393419.256369 6.758907l-6.931732 1.525506v-2.872619l1.039172-.243414c.479831-.113317.761052-.5365.628201-.945313-.1409-.436015-.664317-.641158-1.109625-.536845l-8.970937 2.105698c-.479641.112605-.76162.534866-.630158.943646.131286.410127.62857.651462 1.109625.538512l1.035259-.243414v2.782589l-6.509018 1.433809c-.83073.182793-1.673667.293828-2.518673.338445-.201081-.987759-.423631-1.691021-.512736-2.450812-.113652-.969101-.0472-2.142541.534264-4.373116.810532-.04391 1.618065-.14976 2.414951-.325108zm-8.47777 5.835268v7.699219l-.94915-.61187c-.386665-.250825-.937087-.195528-1.244659.125042l-1.097883 1.142045v-7.582514zm-42.6452208 2.52417 24.5115598 4.618197c.727691.137128 1.461696.221173 2.197723.263421-.542143 2.163639-.623067 3.472216-.493167 4.579852.100111.853626.305236 1.538642.49121 2.397461l-25.7718747-4.858277c-.3821163-.072007-1.117507-.675508-1.2192176-.968655-.7423034-2.139412-.6450742-4.091632.2837665-6.031999zm51.2638958.143381c-.611795 2.134973-.725491 4.156824-.11155 6.350438.09136.326422.0053.489422-.293551.555184l-21.756088 4.786587c-.181111.03985-.36264.06932-.546006.0917-.209537-1.080346-.453769-1.816016-.547963-2.619202-.114449-.975886-.04687-2.157125.546006-4.418131.954356-.04771 1.905723-.17044 2.843536-.376791l6.150885-1.353783v4.823266c.000846.720996 1.061788 1.044032 1.598878.486828l2.148797-2.235741 1.7026 1.100365c.594657.385682 1.450336.02317 1.448188-.613537v-5.076683z" stroke-linecap="round" stroke-linejoin="round" transform="matrix(1 0 0 1.174 0 72.52)"/><g id="g52" stroke-width="1.804" transform="translate(.233)"/></g></svg>