<svg id="Layer_1" viewBox="0 0 512 512" xmlns="http://www.w3.org/2000/svg" data-name="Layer 1"><path d="m99.273 159.834c29.679 0 45.692-30.085 45.692-58.392 0-25.179-20.497-45.664-45.692-45.664s-45.665 20.485-45.665 45.664c0 28.307 16.005 58.392 45.665 58.392zm0-90.056c17.476 0 31.692 14.205 31.692 31.664 0 17.163-8.604 44.392-31.692 44.392s-31.665-27.229-31.665-44.392c0-17.459 14.205-31.664 31.665-31.664zm397.727-53.912h-318.98c-3.866 0-7 3.134-7 7v27.638c0 3.866 3.134 7 7 7h7.031v105.244l-78.037-.235c-.671-.078-1.351-.125-2.043-.125h-11.366c-.501 0-.993.039-1.483.08l-26.53-.08h-.162c-14.646 0-28.742 6.016-39.711 16.951-11.26 11.226-17.718 26.134-17.718 40.902v107.121c0 13.316 10.82 24.149 24.121 24.149 3.624 0 7.062-.808 10.149-2.244v114.866c0 17.646 14.355 32.001 32.001 32.001 10.111 0 19.136-4.719 25.005-12.064 5.874 7.345 14.906 12.064 25.026 12.064 17.646 0 32.002-14.355 32.002-32.001v-239.563l28.746-7.516v93.556c0 3.866 3.134 7 7 7h138.473v28.542c-8.43 2.908-14.513 10.911-14.513 20.328 0 11.847 9.638 21.485 21.484 21.485s21.514-9.638 21.514-21.485c0-9.399-6.068-17.388-14.485-20.311v-28.56h138.444c3.866 0 7-3.134 7-7v-253.105h7.032c3.866 0 7-3.134 7-7v-27.638c0-3.866-3.134-7-7-7zm-159.505 358.099c-4.127 0-7.484-3.358-7.484-7.485s3.357-7.513 7.484-7.513 7.514 3.371 7.514 7.513-3.371 7.485-7.514 7.485zm-231.166-197.249c.215.909.268 2.598.093 3.428-.508.83-1.304 1.544-2.222 1.987-2.748 1.324-4.322 4.274-3.892 7.294l10.105 70.903-11.137 12.142-11.119-12.14 10.08-70.908c.427-3.006-1.133-5.945-3.861-7.277-.914-.445-1.709-1.162-2.24-2.034-.171-.821-.113-2.494.104-3.393.185-.127.409-.2.629-.249l12.983.039c.168.049.334.11.476.207zm35.976 287.417c0 9.926-8.075 18.001-18.002 18.001s-18.029-8.075-18.029-18.001v-119.338c0-3.866-3.134-7-7-7s-7 3.134-7 7v119.338c0 9.926-8.075 18.001-18.002 18.001s-18.001-8.075-18.001-18.001v-239.866c0-3.866-3.134-7-7-7s-7 3.134-7 7v103.095c0 5.596-4.553 10.149-10.149 10.149s-10.121-4.553-10.121-10.149v-107.121c0-10.912 5.085-22.496 13.603-30.987 8.354-8.33 18.964-12.895 29.945-12.866l12.586.038c-.361 3.769.215 7.647 1.522 10.052 1.044 1.964 2.447 3.74 4.115 5.237l-9.939 69.918c-.294 2.073.354 4.169 1.769 5.713l18.511 20.21c1.325 1.447 3.197 2.271 5.159 2.272h.003c1.961 0 3.833-.823 5.158-2.268l18.538-20.21c1.418-1.545 2.067-3.644 1.771-5.72l-9.963-69.898c1.68-1.5 3.093-3.283 4.143-5.258 1.278-2.408 1.842-6.214 1.513-9.922l69.871.21 48.969-36.97c4.859-3.674 11.804-2.708 15.473 2.144 3.678 4.88 2.715 11.842-2.142 15.514l-55.672 42.024-49.398 12.916c-3.148.823-5.224 3.664-5.223 6.772h-.007v244.969zm333.663-160.523h-276.917v-90.216l4.104-1.073 57.89-43.698c11.007-8.324 13.197-24.074 4.875-35.119-8.334-11.019-24.075-13.205-35.086-4.878l-31.783 23.995v-95.117h276.917v246.105zm14.032-260.105h-304.98v-13.638h304.98zm-196.47 123.275h36.993v17.635h-63.271c-3.866 0-7 3.134-7 7v24.634h-14.202c-3.866 0-7 3.134-7 7v42.633c0 3.866 3.134 7 7 7h42.405c3.866 0 7-3.134 7-7v-42.633c0-3.866-3.134-7-7-7h-14.203v-17.634h56.271v17.634h-14.203c-3.866 0-7 3.134-7 7v42.633c0 3.866 3.134 7 7 7h42.378c3.866 0 7-3.134 7-7v-42.633c0-3.866-3.134-7-7-7h-14.175v-17.634h56.242v17.634h-14.203c-3.866 0-7 3.134-7 7v42.633c0 3.866 3.134 7 7 7h42.406c3.866 0 7-3.134 7-7v-42.633c0-3.866-3.134-7-7-7h-14.203v-24.634c0-3.866-3.134-7-7-7h-63.242v-17.635h36.965c3.866 0 7-3.134 7-7v-64.346c0-3.866-3.134-7-7-7h-87.958c-3.866 0-7 3.134-7 7v64.346c0 3.866 3.134 7 7 7zm-12.074 91.902h-28.405v-28.633h28.405zm70.242 0h-28.378v-28.633h28.378zm70.271 0h-28.406v-28.633h28.406zm-121.438-156.248h73.958v50.346h-73.958zm69.25 34.867c0 3.866-3.134 7-7 7h-50.541c-3.866 0-7-3.134-7-7s3.134-7 7-7h50.541c3.866 0 7 3.134 7 7zm0-19.36c0 3.866-3.134 7-7 7h-22.989c-3.866 0-7-3.134-7-7s3.134-7 7-7h22.989c3.866 0 7 3.134 7 7zm-64.541 0c0-3.866 3.134-7 7-7h5.612c3.866 0 7 3.134 7 7s-3.134 7-7 7h-5.612c-3.866 0-7-3.134-7-7z"/></svg>