<svg id="Layer_1" enable-background="new 0 0 500 500" height="512" viewBox="0 0 500 500" width="512" xmlns="http://www.w3.org/2000/svg"><path d="m412.8 286.85c-2.04-1.28-4.59-1.43-6.75-.39l-75.77 36.3v-41.38c0-3.87-3.13-7-7-7h-92.9c4.36-12.33 6.74-25.59 6.74-39.39 0-65.37-53.18-118.55-118.56-118.55-65.38 0-118.56 53.18-118.56 118.55 0 35.88 15.73 69.01 43.33 91.64l-12.58 48.37 54.7-26.15c10.73 3.11 21.85 4.69 33.1 4.69 1.33 0 2.66-.03 3.98-.07v77.36c0 3.87 3.13 7 7 7h26.84l-5.43 38.89c-.4 2.87 1.01 5.69 3.54 7.09 1.06.59 2.23.88 3.39.88 1.61 0 3.21-.56 4.5-1.64l53.93-45.22h106.98c3.87 0 7-3.13 7-7v-41.38l75.77 36.3c.96.46 1.99.69 3.02.69 1.3 0 2.6-.36 3.73-1.08 2.03-1.28 3.27-3.52 3.27-5.92v-126.66c0-2.41-1.23-4.65-3.27-5.93zm-325.81 47.84-2.64-.83-32.48 15.53 7.33-28.18-3.72-2.82c-26.36-19.98-41.48-50.37-41.48-83.4 0-57.65 46.9-104.55 104.55-104.55s104.56 46.9 104.56 104.55-46.9 104.56-104.56 104.56c-10.75 0-21.37-1.64-31.56-4.86zm229.29 89.15h-102.53c-1.65 0-3.24.58-4.5 1.64l-41.93 35.16 4.02-28.83c.28-2.01-.32-4.03-1.65-5.56s-3.26-2.41-5.28-2.41h-27.89v-71.65c38.45-5.87 70.88-30.29 87.86-63.81h91.89v45.5 44.46 45.5zm85.79-15.51-71.79-34.39v-35.65l71.79-34.39zm-154.79-53.71c0 3.87-3.13 7-7 7h-9.58c-3.87 0-7-3.13-7-7s3.13-7 7-7h9.58c3.86 0 7 3.14 7 7zm38.43 0c0 3.87-3.13 7-7 7h-9.58c-3.87 0-7-3.13-7-7s3.13-7 7-7h9.58c3.87 0 7 3.14 7 7zm-76.87 0c0 3.87-3.13 7-7 7h-9.58c-3.87 0-7-3.13-7-7s3.13-7 7-7h9.58c3.87 0 7 3.14 7 7zm-116.93-119.84c0 3.87-3.13 7-7 7h-9.58c-3.87 0-7-3.13-7-7s3.13-7 7-7h9.58c3.87 0 7 3.13 7 7zm76.87 0c0 3.87-3.13 7-7 7h-9.58c-3.87 0-7-3.13-7-7s3.13-7 7-7h9.58c3.86 0 7 3.13 7 7zm-38.44 0c0 3.87-3.13 7-7 7h-9.58c-3.87 0-7-3.13-7-7s3.13-7 7-7h9.58c3.87 0 7 3.13 7 7zm298.6-92.05c9.14-13.12 9.9-30 1.64-44.31s-23.26-22.09-39.19-20.73l-20.18-34.95c-1.17-2.03-3.27-3.33-5.61-3.49-2.33-.15-4.59.87-6.01 2.73l-61.97 80.95-31.92 18.43c-21.61 12.48-29.04 40.21-16.56 61.82 8.37 14.5 23.62 22.62 39.27 22.62 6.67 0 13.42-1.48 19.74-4.57l34.24 46.3c1.33 1.79 3.42 2.84 5.63 2.84.19 0 .38-.01.58-.02l30.83-2.55c2.39-.2 4.51-1.6 5.62-3.73 1.11-2.12 1.06-4.67-.14-6.75l-33.02-57.19 92.07-12.02c2.32-.3 4.33-1.74 5.37-3.84s.96-4.57-.21-6.6zm-10.48-37.3c3.55 6.15 5.4 14.7 2.29 23.11l-21.16-36.65c8.84 1.51 15.32 7.39 18.87 13.54zm-157.2 90.75c-8.62-14.93-3.48-34.08 11.44-42.7l27.07-15.63 31.26 54.15-24.46 14.12-2.61 1.51c-14.93 8.61-34.08 3.48-42.7-11.45zm90.07 59.9-30.91-41.8 17.6-10.16 29.24 50.64zm-7.02-69.07-33.58-58.17 53.6-70.02 17.24 29.86c0 .01.01.01.01.02l32.91 57.01c.01.01.01.02.02.04l17.24 29.85zm63.69-135.59 8.29-30.93c1-3.73 4.84-5.95 8.57-4.95s5.95 4.84 4.95 8.57l-8.29 30.93c-.84 3.13-3.67 5.19-6.76 5.19-.6 0-1.21-.08-1.82-.24-3.73-1-5.94-4.83-4.94-8.57zm91.76 92.43c-.84 3.13-3.67 5.19-6.76 5.19-.6 0-1.21-.08-1.82-.24l-30.93-8.29c-3.73-1-5.95-4.84-4.95-8.57s4.84-5.95 8.57-4.95l30.93 8.29c3.75 1 5.96 4.84 4.96 8.57zm-44.66-53.15c-2.42 0-4.77-1.26-6.07-3.5-1.93-3.35-.79-7.63 2.56-9.56l27.73-16.01c3.35-1.93 7.63-.79 9.56 2.56s.79 7.63-2.56 9.56l-27.73 16.01c-1.1.63-2.3.94-3.49.94z" fill="rgb(0,0,0)"/></svg>