<svg enable-background="new 0 0 512 512" viewBox="0 0 512 512" xmlns="http://www.w3.org/2000/svg"><g id="_x31_4_Gps"><g><path d="m51.372 404.897c.544 4.585-4.615 21.42-11.612 37.725-.954 2.224-.41 4.807 1.361 6.453 1.085 1.008 2.486 1.532 3.899 1.532.898 0 1.804-.211 2.636-.643 16.98-8.809 38.06-17.919 43.346-17.919.037 0 .075 0 .108.002 60.362 29.37 137.892 23.553 190.787-15.064 2.554-1.864 3.113-5.446 1.249-8-1.868-2.555-5.45-3.12-8.004-1.249-49.865 36.406-123.151 41.407-179.473 13.795-5.152-2.518-18.482 1.344-39.697 11.48 10.907-29.362 5.901-33.993 3.869-35.87-54.759-51.01-47.623-128.557 17.424-172.301 2.624-1.765 3.321-5.321 1.558-7.946-1.767-2.626-5.323-3.32-7.948-1.556-71.126 47.828-78.767 133.641-19.503 189.561z"/><path d="m295.644 61.391c-112.851 0-204.658 74.993-204.658 167.172s91.807 167.17 204.658 167.17c37.035 0 73.303-8.154 104.914-23.587 5.804-.747 33.703 11.204 56.308 22.943 2.143 1.115 4.757.764 6.535-.885 1.774-1.646 2.319-4.229 1.368-6.453-9.413-21.942-16.07-44.194-14.814-49.339 32.473-30.411 50.347-69.4 50.347-109.848 0-92.18-91.807-167.173-204.658-167.173zm146.058 269.059c-5.67 5.273-3.403 21.246 6.721 47.557-21.968-10.71-45.016-20.013-52.61-16.29-30.117 14.762-64.755 22.564-100.169 22.564-106.536 0-193.206-69.855-193.206-155.718s86.67-155.72 193.206-155.72 193.206 69.856 193.206 155.72c.001 37.419-16.744 73.604-47.148 101.887z"/><path d="m340.624 147.705-156.588 46.586c-5.282 1.571-9.047 6.132-9.592 11.616-.544 5.485 2.252 10.697 7.12 13.275h.004l70.242 37.175 37.173 70.242c2.363 4.468 6.945 7.189 11.918 7.189.447 0 .902-.022 1.353-.067 5.484-.542 10.046-4.307 11.619-9.592l46.586-156.588c1.67-5.618.134-11.683-4.011-15.826-4.142-4.148-10.195-5.689-15.824-4.01zm8.861 16.57-46.586 156.587c-.343 1.156-1.26 1.413-1.774 1.463-.507.054-1.458-.021-2.02-1.085l-37.997-71.799c-.541-1.016-1.368-1.845-2.386-2.382l-71.8-37.999c-1.059-.563-1.133-1.51-1.081-2.022.048-.514.306-1.428 1.461-1.773l156.588-46.584c2.315-.697 3.896.563 4.462 1.13.57.571 1.822 2.147 1.133 4.464z"/></g></g><g id="Layer_1"/></svg>