<?xml version="1.0" encoding="UTF-8"?>
<svg id="Layer_1" xmlns="http://www.w3.org/2000/svg" version="1.1" viewBox="0 0 1000 1000">
  <!-- Generator: Adobe Illustrator 29.8.2, SVG Export Plug-In . SVG Version: 2.1.1 Build 3)  -->
  <path d="M117.01,878.52v-144.19h61.8v-469.65h-61.8V120.48h144.19v61.8h469.65v-61.8h144.19v144.19h-61.8v469.65h61.8v144.19h-144.19v-61.8h-469.65v61.8H117.01ZM261.2,794.06h469.65v-59.74h59.74v-469.65h-59.74v-59.74h-469.65v59.74h-59.74v469.65h59.74v59.74ZM341.54,668.41l149.34-380.04h9.27l153.46,380.04h-29.87l-48.72-116.38h-156.96l-48.72,116.38h-27.81ZM425.99,527.31h140.07l-69.01-174.06h-5.15l-65.92,174.06ZM139.67,242.02h98.87v-98.87h-98.87v98.87ZM753.51,242.02h98.87v-98.87h-98.87v98.87ZM753.51,855.86h98.87v-98.87h-98.87v98.87ZM139.67,855.86h98.87v-98.87h-98.87v98.87Z"/>
</svg>