<svg clip-rule="evenodd" fill-rule="evenodd" height="512" image-rendering="optimizeQuality" shape-rendering="geometricPrecision" text-rendering="geometricPrecision" viewBox="0 0 512 512" width="512" xmlns="http://www.w3.org/2000/svg"><g id="Layer_x0020_1"><g id="_223489256"><g><g id="_223487216"><path d="m505 425h-498c-4 0-7-3-7-7v-387c0-4 3-7 7-7h498c4 0 7 3 7 7v387c0 4-3 7-7 7zm-491-14h484v-373h-484z"/></g><g id="_223487648"><path d="m505 363h-498c-4 0-7-3-7-7s3-7 7-7h498c4 0 7 3 7 7s-3 7-7 7z"/></g><g id="_223488776"><path d="m341 488c-3 0-7-3-7-7v-63c0-3 4-7 7-7 4 0 7 4 7 7v63c0 4-3 7-7 7zm-170 0c-4 0-7-3-7-7v-63c0-3 3-7 7-7 3 0 7 4 7 7v63c0 4-4 7-7 7z"/></g><g><g><g id="_223487480"><path d="m305 271c-3 0-5-2-6-4-2-3-1-7 2-9l33-19-33-19c-3-2-4-6-2-10 2-3 6-4 9-2l44 25c2 1 3 3 3 6 0 2-1 5-3 6l-44 25c-1 0-2 1-3 1z"/></g><g id="_223489016"><path d="m207 271c-1 0-2-1-3-1l-44-25c-2-1-3-4-3-6 0-3 1-5 3-6l44-25c3-2 7-1 9 2 2 4 1 8-2 10l-33 19 33 19c3 2 4 6 2 9-1 2-3 4-6 4z"/></g></g><g id="_223489040"><path d="m212 322c-1 0-2 0-4-1-3-2-4-6-2-10l88-152c2-3 6-5 10-3 3 2 4 7 2 10l-88 152c-1 3-4 4-6 4z"/></g></g><g id="_223489088"><path d="m505 128h-498c-4 0-7-3-7-7s3-7 7-7h498c4 0 7 3 7 7s-3 7-7 7z"/></g><g id="_223489352"><path d="m120 105c-16 0-29-13-29-29 0-15 13-28 29-28s28 13 28 28c0 16-12 29-28 29zm0-43c-8 0-15 6-15 14s7 15 15 15 14-7 14-15-6-14-14-14z"/></g><g id="_223489424"><path d="m58 105c-16 0-28-13-28-29 0-15 12-28 28-28s29 13 29 28c0 16-13 29-29 29zm0-43c-8 0-14 6-14 14s6 15 14 15 15-7 15-15-7-14-15-14z"/></g><g id="_223489496"><path d="m181 105c-16 0-28-13-28-29 0-15 12-28 28-28s29 13 29 28c0 16-13 29-29 29zm0-43c-8 0-14 6-14 14s6 15 14 15 15-7 15-15-7-14-15-14z"/></g><g id="_223489568"><path d="m471 83h-132c-4 0-7-3-7-7s3-7 7-7h132c4 0 7 3 7 7s-3 7-7 7z"/></g><g id="_223489640"><path d="m380 488h-248c-4 0-7-3-7-7s3-7 7-7h248c4 0 7 3 7 7s-3 7-7 7z"/></g><g id="_223489712"><path d="m240 105c-15 0-28-13-28-29 0-15 13-28 28-28 16 0 29 13 29 28 0 16-13 29-29 29zm0-43c-8 0-14 6-14 14s6 15 14 15c9 0 15-7 15-15s-6-14-15-14z"/></g></g></g></g></svg>