<svg id="edit" height="512" viewBox="0 0 32 32" width="512" xmlns="http://www.w3.org/2000/svg"><path d="m13.5 13.95c5.92-.19 5.92-8.77 0-8.96-5.91.19-5.9 8.77 0 8.96zm0-7.96c4.6.14 4.6 6.82 0 6.96-4.59-.15-4.58-6.81 0-6.96zm8.6 13.15 1.27-1.27c-2.24 13.81-20.8 11.3-19.87-2.86h14.24l-1 1h-12.24c-.2 11.43 14.61 13.83 17.6 3.13zm-2.94-4.13-3.74 3.74-.47 3.3 3.3-.47c2.27-2.27 6-6 8.25-8.24l-2.83-2.83zm4.24 0-5.63 5.63-1.65.23.24-1.65c2.04-2.05 5.27-5.25 7.31-7.3l1.41 1.41zm4.51-5.92c-.78-.78-2.05-.78-2.83 0l-.7.71 2.82 2.82.71-.7c.78-.75.78-2.08 0-2.83zm-.71 2.12-1.41-1.41c.92-.92 2.34.49 1.41 1.41z"/></svg>