<svg id="svg8" height="64" viewBox="0 0 16.933333 16.933334" width="64" xmlns="http://www.w3.org/2000/svg" xmlns:svg="http://www.w3.org/2000/svg"><g id="layer6" stroke-linecap="round" stroke-linejoin="round"><path id="path2" d="m5.5566406 9.265625c-1.1993297 0-2.2358633.849277-2.4707031 2.025391l-.3320312 1.667968c-.2187127 1.095348.6271703 2.126953 1.7441406 2.126954h7.9375001c1.11697-.000001 1.962853-1.031606 1.744141-2.126954l-.332032-1.667968c-.234839-1.176113-1.271373-2.0253909-2.470703-2.025391zm0 .5195313h5.8203124c.954327 0 1.772119.6715687 1.958985 1.6074217l.333984 1.667969c.156557.784066-.434832 1.503906-1.234375 1.503906h-7.9375001c-.7995435 0-1.3909327-.71984-1.234375-1.503906l.3339844-1.667969c.186866-.935853 1.0046571-1.6074217 1.9589843-1.6074217z"/><path id="ellipse2" d="m8.4667969 1.8515625c-1.750369 0-3.1757813 1.4254122-3.1757813 3.1757812s1.4254124 3.1738282 3.1757813 3.1738282c1.7503691 0 3.1757811-1.4234592 3.1757811-3.1738282s-1.425412-3.1757812-3.1757811-3.1757812zm0 .5292969c1.4643866 0 2.6464841 1.1820976 2.6464841 2.6464843 0 1.4643868-1.1820975 2.6464844-2.6464841 2.6464844-1.4643867 0-2.6464844-1.1820976-2.6464844-2.6464844-.0000001-1.4643867 1.1820977-2.6464843 2.6464844-2.6464843z"/></g></svg>