<svg id="Capa_1" enable-background="new 0 0 511.988 511.988" height="512" viewBox="0 0 511.988 511.988" width="512" xmlns="http://www.w3.org/2000/svg"><g><g><path d="m141.33 424.777c-1.188.037-2.384.055-3.58.055-64.928.001-117.75-52.822-117.75-117.749s52.822-117.75 117.75-117.75c1.196 0 2.393.019 3.58.055 5.514.181 10.134-4.165 10.305-9.685s-4.165-10.134-9.685-10.305c-1.393-.043-2.797-.065-4.2-.065-75.956 0-137.75 61.794-137.75 137.75s61.794 137.75 137.75 137.75c1.403 0 2.808-.021 4.2-.065 5.521-.171 9.856-4.785 9.685-10.305-.171-5.522-4.803-9.867-10.305-9.686z"/><path d="m263.607 424.095c-4.37.49-8.844.738-13.297.738-64.928 0-117.75-52.822-117.75-117.75s52.822-117.75 117.75-117.75c4.454 0 8.928.249 13.296.738 5.495.609 10.437-3.335 11.052-8.824s-3.335-10.437-8.824-11.052c-5.105-.573-10.329-.863-15.524-.863-75.956 0-137.75 61.794-137.75 137.75s61.794 137.75 137.75 137.75c5.194 0 10.417-.29 15.523-.862 5.488-.615 9.439-5.562 8.825-11.051-.616-5.488-5.563-9.436-11.051-8.824z"/><path d="m497.805 341.17c-5.193-1.879-10.927.805-12.807 5.999-16.818 46.452-61.323 77.661-110.745 77.661-64.926 0-117.747-52.821-117.747-117.747s52.821-117.747 117.747-117.747c49.476 0 93.997 31.255 110.785 77.774 1.875 5.195 7.608 7.886 12.801 6.012 5.195-1.875 7.886-7.606 6.012-12.801-19.64-54.421-71.721-90.985-129.598-90.985-75.954 0-137.747 61.793-137.747 137.747s61.793 137.747 137.747 137.747c57.813 0 109.876-36.511 129.551-90.853 1.88-5.193-.806-10.927-5.999-12.807z"/><path d="m57.21 120.223h376.902l-15.776 16.059c-3.87 3.94-3.814 10.271.126 14.142 3.887 3.818 10.324 3.76 14.142-.126l32.483-33.067c3.816-3.885 3.758-10.33-.124-14.139l-33.638-33.067c-3.938-3.872-10.269-3.817-14.142.121-3.872 3.938-3.817 10.27.121 14.142l16.211 15.936h-376.305c-5.523 0-10 4.477-10 10s4.477 9.999 10 9.999z"/><path d="m511.8 305.124c-.798-4.185-4.378-7.441-8.579-7.966-4.176-.522-8.327 1.738-10.182 5.508-3.932 7.992 4.27 16.967 12.582 13.729 4.463-1.738 7.119-6.565 6.179-11.271z"/></g></g></svg>