<svg id="Layer_1" enable-background="new 0 0 100 100" height="512" viewBox="0 0 100 100" width="512" xmlns="http://www.w3.org/2000/svg"><path d="m77.4824219 90c.5527344 0 1-.4477539 1-1v-78c0-.5522461-.4472656-1-1-1h-55.5810547c-.5527344 0-1 .4477539-1 1v78c0 .5522461.4472656 1 1 1s1-.4477539 1-1v-4.9506836h53.5810547v4.9506836c0 .5522461.4472656 1 1 1zm-54.5810547-78h53.5810547v46.875h-53.5810547zm0 70.0493164v-21.1743164h53.5810547v21.1743164z"/><path d="m64.7382812 67.3974609h-30.0927734c-.5527344 0-1 .4477539-1 1s.4472656 1 1 1h30.0927734c.5527344 0 1-.4477539 1-1s-.4472656-1-1-1z"/><path d="m64.7382812 74.4619141h-30.0927734c-.5527344 0-1 .4477539-1 1s.4472656 1 1 1h30.0927734c.5527344 0 1-.4477539 1-1s-.4472656-1-1-1z"/><path d="m64.359375 26.0737305h-6.2578125v-4.8320312c0-1.9106445-1.5546875-3.465332-3.4648438-3.465332h-9.2734375c-1.9101562 0-3.4648438 1.5546875-3.4648438 3.465332v4.8320312h-6.2578124c-1.8671875 0-3.3867188 1.5195312-3.3867188 3.387207v19.7768555c0 1.8676758 1.5195312 3.3867188 3.3867188 3.3867188h28.71875c1.8671875 0 3.3867188-1.519043 3.3867188-3.3867188v-19.7768555c0-1.8676758-1.5195313-3.387207-3.3867188-3.387207zm-20.4609375-4.8320313c0-.8081055.6572266-1.465332 1.4648438-1.465332h9.2734375c.8076172 0 1.4648438.6572266 1.4648438 1.465332v4.8320312h-12.203125v-4.8320312zm21.8476563 27.9960938c0 .7646484-.6220703 1.3867188-1.3867188 1.3867188h-28.71875c-.7646484 0-1.3867188-.6220703-1.3867188-1.3867188v-19.7768555c0-.7651367.6220703-1.387207 1.3867188-1.387207h28.71875c.7646484 0 1.3867188.6220703 1.3867188 1.387207z"/></svg>