<svg id="Layer_17" viewBox="0 0 36 36" xmlns="http://www.w3.org/2000/svg" data-name="Layer 17"><path d="m34 10.5h-2.5v-3.5c0-1.38-1.12-2.5-2.5-2.5h-7.5v-2.5c0-.28-.22-.5-.5-.5h-6c-.28 0-.5.22-.5.5v2.5h-7.5c-1.38 0-2.5 1.12-2.5 2.5v3.5h-2.5c-.28 0-.5.22-.5.5v6c0 .28.22.5.5.5h6c.28 0 .5-.22.5-.5v-6c0-.28-.22-.5-.5-.5h-2.5v-3.5c0-.83.67-1.5 1.5-1.5h7.5v2.5c0 .28.22.5.5.5h6c.28 0 .5-.22.5-.5v-2.5h7.5c.83 0 1.5.67 1.5 1.5v3.5h-2.5c-.28 0-.5.22-.5.5v6c0 .28.22.5.5.5h6c.28 0 .5-.22.5-.5v-6c0-.28-.22-.5-.5-.5zm-26.5 6h-5v-5h5zm13-9h-5v-5h5zm13 9h-5v-5h5zm-15.13-2.83s-.07-.04-.1-.06-.05-.06-.09-.07c-.01 0-.02 0-.03 0-.05-.02-.1 0-.15 0s-.1 0-.15 0c-.01 0-.02 0-.03 0-.04.01-.06.05-.09.07s-.07.03-.1.06l-9 10c-.12.13-.16.31-.11.48l3 10c.06.21.26.36.48.36h12c.22 0 .42-.15.48-.36l3-10c.05-.17 0-.35-.11-.48zm-.37 10.83c.83 0 1.5.67 1.5 1.5s-.67 1.5-1.5 1.5-1.5-.67-1.5-1.5.67-1.5 1.5-1.5zm5.63 9h-11.26l-2.81-9.37 7.94-8.82v8.25c-1.14.23-2 1.24-2 2.45 0 1.38 1.12 2.5 2.5 2.5s2.5-1.12 2.5-2.5c0-1.21-.86-2.22-2-2.45v-8.25l7.94 8.82z"/></svg>