<svg id="Layer_1" enable-background="new 0 0 512 512" viewBox="0 0 512 512" xmlns="http://www.w3.org/2000/svg"><path d="m462.7 125.5v-28-97h-413.3v105.1 19.8h-30.3v84.9c-.2 1.5-.2 2.9 0 4.4v155.3 65.8h170.1c0 24.8-2.3 39.2-10 67.5-22 0-36.8 0-36.8 0-5.4 0-5.2 8.1 0 8.1h34.6 158.3 34.6c5.4 0 5.2-8.1 0-8.1 0 0-14.8 0-36.8 0-7.7-28.3-10-42.7-10-67.5h170.1v-65.8-244.5c-.1 0-21.4 0-30.5 0zm-405.1-116.8h397v88.8h-397zm397 97v231.4h-236.6c-2.2-3.1-4.6-6.1-7.6-9.1-12.4-12.4-24.6-14.7-32.6-14.8-2.2.2-4.1.6-6.1 1-1.9-1.9-6.1-5.9-11.7-11.4h105v-162.8h-166.2v102.6c-19.3-19-36.2-35.5-41.2-40.4v-96.5zm-397 156 74.5 75.4h-74.5zm-1.2-12.8c-14.1-14.3-24-24.3-24-24.3-3.4-3.4-4.9-7-5.2-10.3v-1.8c.6-9.8 12.7-16.2 23.1-5.9l112.6 110.4c-9.3 4.2-15.2 11.6-17.9 20.1h-1.4c-16-16.1-59.6-60.2-87.2-88.2zm50.5 1.7v-102.4h150v146.5h-105.1c-12.6-12.4-29.1-28.6-44.9-44.1zm52.4 78.6c13.4-12 28.9-10.7 45.4 4.6 13.2 13.2 16.9 28.1 17.1 39.9 0 .1-.1.2-.1.4 0 .1.1.2.1.3.1 6.8-1 12.5-1.9 16.2-9.5-4.9-18.4-5.7-26.2-5.7-30.3 6.6-57.7-30.8-34.4-55.7zm-109.9-195.5v62.3c-7.6-4-16.1-3.7-22.2.9v-63.3h22.2zm-22.2 97.2 22.2 22.5v91.8h90.7l2.9 2.9c-.2 7.4 1.4 15 4.8 21.9h-120.6zm297.4 272.4h-137.1c8.3-31.2 9.6-40.4 9.7-67.5h117.7c.1 27 1.5 36.3 9.7 67.5zm160.3-75.7h-161.8-134-161.9v-49.5h125.8c6.8 8.5 16.7 14.6 29.4 15.2 13.6-.8 25.4-.6 39.9 7.5 1.6 0 3.2-1.1 3.8-2.6.3-.7 3.2-8.7 3.8-20.1h255.1v49.5zm-255.2-57.6c-.5-7.7-2.4-16.2-6.7-24.8h239.7v-211.5h22.2v236.3zm179.6-113h-105c-5.3 0-5.4-8.1 0-8.1h105c5.3 0 5.3 8.1 0 8.1zm0 45.8h-105c-5.3 0-5.4-8.1 0-8.1h105c5.3-.1 5.3 8.1 0 8.1zm-307.8-269c-25.5.7-25.5 38 0 38.7 25.5-.7 25.5-38 0-38.7zm0 30.5c-14.7-.3-14.7-22.1 0-22.4 14.7.3 14.7 22.2 0 22.4zm61.1-30.5c-25.5.7-25.5 38 0 38.7 25.4-.7 25.4-38 0-38.7zm0 30.5c-14.7-.3-14.7-22.1 0-22.4 14.7.3 14.7 22.2 0 22.4zm231.4-30.5h-74.5c-10.7 0-19.3 8.7-19.3 19.3 0 10.7 8.7 19.3 19.3 19.3h74.5c25.5-.6 25.5-37.9 0-38.6zm0 30.5h-74.5c-14.7-.3-14.7-22.1 0-22.4h74.5c14.7.3 14.7 22.2 0 22.4zm19.3 75.7h-113.1v29.1h113.2v-29.1zm-8.1 21h-96.9v-12.8h96.9zm8.1 24.8h-113.1v29.1h113.2v-29.1zm-8.1 21h-96.9v-12.8h96.9z"/></svg>