<svg id="_26_App" viewBox="0 0 64 64" xmlns="http://www.w3.org/2000/svg" data-name="26 App"><path d="m55 29h-14v-26c0-1.654-1.346-3-3-3h-28c-1.654 0-3 1.346-3 3v58c0 1.654 1.346 3 3 3h28c1.654 0 3-1.346 3-3v-10h14c1.102 0 2-.897 2-2v-18c0-1.103-.898-2-2-2zm-45-27h28c.552 0 1 .449 1 1v3h-30v-3c0-.551.448-1 1-1zm28 60h-28c-.552 0-1-.448-1-1v-3h30v3c0 .552-.448 1-1 1zm1-6h-30v-48h30v21h-8c-1.103 0-2 .897-2 2v5.537l-3.6 2.7c-.252.189-.4.485-.4.8s.148.611.4.8l3.6 2.7v5.463c0 1.103.897 2 2 2h8zm16-7h-24v-5.963c0-.314-.148-.611-.4-.8l-2.933-2.2 2.933-2.2c.252-.189.4-.485.4-.8v-6.037h24z"/><path d="m38.707 35.33c-.391-.391-1.023-.391-1.414 0l-4 4c-.391.391-.391 1.023 0 1.414l4 4c.195.195.451.293.707.293s.512-.098.707-.293c.391-.391.391-1.023 0-1.414l-3.293-3.293 3.293-3.293c.391-.391.391-1.023 0-1.414z"/><path d="m47.293 44.744c.195.195.451.293.707.293s.512-.098.707-.293l4-4c.391-.391.391-1.023 0-1.414l-4-4c-.391-.391-1.023-.391-1.414 0s-.391 1.023 0 1.414l3.293 3.293-3.293 3.293c-.391.391-.391 1.023 0 1.414z"/><path d="m41.713 45.995c.096.028.192.042.287.042.431 0 .828-.279.958-.713l3-10c.158-.528-.142-1.086-.671-1.245-.533-.159-1.087.142-1.245.671l-3 10c-.158.528.142 1.086.671 1.245z"/><path d="m19 26h10c1.654 0 3-1.346 3-3v-10c0-1.654-1.346-3-3-3h-10c-1.654 0-3 1.346-3 3v10c0 1.654 1.346 3 3 3zm-1-13c0-.551.448-1 1-1h10c.552 0 1 .449 1 1v10c0 .551-.448 1-1 1h-10c-.552 0-1-.449-1-1z"/><path d="m15 31h10c.553 0 1-.448 1-1s-.447-1-1-1h-10c-.553 0-1 .448-1 1s.447 1 1 1z"/><path d="m15 35h10c.553 0 1-.447 1-1s-.447-1-1-1h-10c-.553 0-1 .447-1 1s.447 1 1 1z"/><path d="m15 39h6c.553 0 1-.447 1-1s-.447-1-1-1h-6c-.553 0-1 .447-1 1s.447 1 1 1z"/><path d="m24 42h-9c-.553 0-1 .447-1 1v6c0 .553.447 1 1 1h9c.553 0 1-.447 1-1v-6c0-.553-.447-1-1-1zm-1 6h-7v-4h7z"/></svg>