<svg id="Line_copy" height="512" viewBox="0 0 256 256" width="512" xmlns="http://www.w3.org/2000/svg" data-name="Line copy"><path d="m237.982 94.7346-23.7774-40.9546v-22.351a3 3 0 0 0 -3-3h-107.5908a3 3 0 0 0 -3 3v22.6384l-13.8568 23.8664h-55.9625a3 3 0 0 0 -3 3v9.2648a12.7991 12.7991 0 0 0 -11.2363 12.6834v11.6a3 3 0 0 0 3 3h2.4683l10.31 104.4893a2.9994 2.9994 0 0 0 2.9854 2.7051h199.8981c1.6243.1517 3.4076-1.1978 3.0012-3.9724l.1658-124.4593a3.0007 3.0007 0 0 0 -.405-1.5101zm-46.49.0684 19.7961-34.0967 19.7959 34.0967zm-1.3035 6h18.0039v96.0892l-18.0034 17.6437zm24.0039 0h18.1884l-.1508 113.5787-18.037-17.6761zm-107.5786-66.374h101.5908v17.4463h-101.5908zm-1.2725 23.4463h100.6524l-21.3994 36.8593a2.9963 2.9963 0 0 0 -.4053 1.5059v122.4355h-86.8272l3.7412-37.916a40.4246 40.4246 0 1 0 5.3163-53.8794l.9274-9.3992h2.4683a3 3 0 0 0 3-3v-11.6a12.7994 12.7994 0 0 0 -11.2373-12.6836v-9.264a3 3 0 0 0 -3-3h-4.8826zm-67.3008 160.8007-3.6663-37.156h12.4132a25.4214 25.4214 0 0 0 35.7974 0h12.4141l-3.6664 37.156zm-8.6953-122.581h70.6826a6.7951 6.7951 0 0 1 6.7871 6.7871v8.6h-84.2568v-8.6a6.7951 6.7951 0 0 1 6.7871-6.7871zm35.3408 86.7939a19.4731 19.4731 0 1 1 19.474-19.4736 19.4951 19.4951 0 0 1 -19.4739 19.4736zm25.474-19.4736a25.3109 25.3109 0 0 0 -2.9854-11.9492h10.79l-2.3746 24.0539h-8.4953a25.3168 25.3168 0 0 0 3.0653-12.1047zm15.2559-26.3622a34.41 34.41 0 1 1 -3.3112 33.5581zm-74.0068 14.413h10.7887a25.4209 25.4209 0 0 0 .08 24.0537h-8.496zm64.1686-67.5323v6.1612h-61.7832v-6.1612zm5.74 33.5479-2.7614 27.9844h-15.8143a25.4284 25.4284 0 0 0 -36.1118 0h-15.8135l-2.7614-27.9844zm93.2189 101.1943 16.8079-16.3483 16.6955 16.3483z"/></svg>