<svg clip-rule="evenodd" fill-rule="evenodd" height="512" image-rendering="optimizeQuality" shape-rendering="geometricPrecision" text-rendering="geometricPrecision" viewBox="0 0 43.3492 43.3492" width="512" xmlns="http://www.w3.org/2000/svg"><g id="Layer_x0020_1"><g id="_344870624"><path id="_344872160" d="m12.8077 38.762h25.0155v-35.0015h-25.0155zm25.4889.9464h-25.962c-.2614 0-.4734-.212-.4734-.4732v-35.9479c0-.2614.2119-.4732.4732-.4732h25.9622c.261 0 .473.2119.473.4732l.0001 35.9478c0 .2613-.2121.4733-.4731.4733z"/><path id="_344872256" d="m12.3346 39.7084c-.2614 0-.4734-.212-.4734-.4732v-35.8853c-.3962-1.4181-1.6908-2.4034-3.1676-2.4034-1.4767-.0001-2.7713.9853-3.1677 2.4034l.0001 35.8852c0 .2613-.212.4733-.4733.4733-.2612 0-.4732-.212-.4732-.4732l.0002-35.9479c0-.0402.0057-.0802.0156-.1192.485-1.8654 2.1709-3.1682 4.0983-3.1682s3.6132 1.3029 4.0982 3.1682c.011.0389.0158.079.0158.1192l.0001 35.9478c0 .2613-.2121.4733-.4731.4733z"/><path id="_344872592" d="m33.2233 43.3493h-24.5297c-2.2684 0-4.1141-1.8456-4.1141-4.1141.0002-2.2683 1.8456-4.1138 4.1141-4.1138 2.2685-.0001 4.114 1.8455 4.114 4.1138.0001.2612-.212.4732-.4732.4732s-.4732-.212-.4732-.4732c0-1.7465-1.4207-3.1673-3.1676-3.1673-1.746-.0001-3.1677 1.4208-3.1677 3.1673.0001 1.7459 1.4216 3.1676 3.1677 3.1676l24.0563-.0001v-3.1676c0-.2613.2119-.4731.4732-.4731.2612 0 .4732.2119.4732.4732l.0001 3.6408c0 .2612-.2121.4733-.4731.4733z"/><path id="_344872040" d="m16.4653 13.4051h17.7003v-5.9864h-17.7003zm18.1736.9464h-18.6467c-.2613 0-.4734-.2118-.4734-.4731v-6.9329c0-.2613.2119-.4732.4732-.4732l18.6469-.0001c.2613 0 .4731.212.4731.4733l.0001 6.9328c0 .2614-.212.4733-.4732.4732z"/><path id="_344872448" d="m27.5326 22.9257h6.633v-5.9863h-6.633zm7.1063.9466h-7.5794c-.2613 0-.4733-.2119-.4733-.4732l.0002-6.9328c0-.2614.2117-.4732.473-.4732l7.5795-.0001c.2613 0 .4731.2119.4731.4733l.0001 6.9328c0 .2613-.212.4732-.4732.4732z"/><path id="_344872328" d="m34.6389 26.4948h-7.5794c-.2613 0-.4733-.2118-.4733-.473.0002-.2614.2119-.4733.4732-.4733h7.5795c.2613 0 .4731.2119.4731.4733.0001.2612-.2119.4731-.4731.473z"/><path id="_344871488" d="m34.6389 28.8836h-7.5794c-.2613 0-.4733-.2118-.4733-.4731.0002-.2613.2119-.4732.4732-.4732l7.5795-.0001c.2613 0 .4731.212.4731.4733.0001.2613-.2119.4732-.4731.4731z"/><path id="_344871344" d="m34.6389 31.2725h-7.5794c-.2613 0-.4733-.2119-.4733-.4731.0002-.2615.2119-.4732.4732-.4732l7.5795-.0001c.2613 0 .4731.2119.4731.4733.0001.2612-.2119.4731-.4731.4731z"/><path id="_344871176" d="m34.6389 33.6613h-7.5794c-.2613 0-.4733-.2118-.4733-.4732.0002-.2614.2119-.4732.4732-.4732h7.5795c.2613 0 .4731.2119.4731.4732.0001.2614-.2119.4733-.4731.4732z"/><path id="_344871320" d="m34.6389 36.0502h-7.5794c-.2613 0-.4733-.2118-.4733-.4732.0002-.2612.2119-.4731.4732-.4731l7.5795-.0001c.2613 0 .4731.212.4731.4732.0001.2614-.2119.4732-.4731.4732z"/><path id="_344871128" d="m23.5714 16.9395h-7.5792c-.2613 0-.4734-.2118-.4734-.4731 0-.2614.2119-.4732.4732-.4732l7.5794-.0001c.2613 0 .4732.2119.4732.4733.0001.2613-.212.4732-.4732.4731z"/><path id="_344871752" d="m23.5714 19.3283h-7.5792c-.2613 0-.4734-.2117-.4734-.473 0-.2614.2119-.4733.4732-.4733h7.5794c.2613 0 .4732.2119.4732.4733.0001.2613-.212.4731-.4732.473z"/><path id="_344871608" d="m23.5714 21.7171h-7.5792c-.2613 0-.4734-.2117-.4734-.4731 0-.2613.2119-.4732.4732-.4732l7.5794-.0001c.2613 0 .4732.212.4732.4733.0001.2613-.212.4731-.4732.4731z"/><path id="_344871872" d="m23.5714 24.1059h-7.5792c-.2613 0-.4734-.2118-.4734-.473 0-.2614.2119-.4732.4732-.4732l7.5794-.0001c.2613 0 .4732.2119.4732.4733.0001.2612-.212.4731-.4732.473z"/><path id="_344871848" d="m23.5714 26.4948h-7.5792c-.2613 0-.4734-.2118-.4734-.473 0-.2614.2119-.4733.4732-.4733h7.5794c.2613 0 .4732.2119.4732.4733.0001.2612-.212.4731-.4732.473z"/><path id="_344871704" d="m16.4653 35.1038h6.6329v-5.9864h-6.6329zm7.1061.9464h-7.5792c-.2613 0-.4734-.2118-.4734-.4732v-6.9327c0-.2614.2119-.4734.4732-.4734h7.5794c.2613 0 .4732.212.4732.4734l.0001 6.9327c0 .2614-.2121.4732-.4733.4732z"/></g></g></svg>