<svg id="Capa_1" enable-background="new 0 0 493.992 493.992" height="512" viewBox="0 0 493.992 493.992" width="512" xmlns="http://www.w3.org/2000/svg"><path d="m493.992 383.795v-276.585c0-.028 0-.056 0-.084s0-.055 0-.083v-63.219c0-21.924-17.509-39.511-38.576-39.511h-416.845c-21.067 0-38.571 17.586-38.571 39.511v339.97c0 21.924 17.504 40.089 38.571 40.089h144.493c-.745 0-1.323 1.48-1.649 2.525l-17.201 55.207c-.61 1.911-.247 3.999.971 5.592 1.238 1.613 3.177 2.532 5.21 2.469h153.204c3.477.099 6.376-2.639 6.475-6.116.02-.708-.079-1.415-.294-2.09l-17.205-55.094c-.324-1.045-.904-2.494-1.649-2.494h144.492c21.066.001 38.574-18.164 38.574-40.087zm-455.421-366.539h416.845c13.929 0 25.633 11.78 25.633 26.568v56.483h-468.106v-56.483c0-14.788 11.699-26.568 25.628-26.568zm-25.628 366.539v-270.545h468.106v270.545c0 14.787-11.704 27.145-25.633 27.145h-145.677l33.45-79.492c.786-1.892.656-4.041-.353-5.824l-90.231-157.016c-1.775-3.102-5.728-4.179-8.831-2.404-.991.567-1.814 1.386-2.387 2.374l-90.229 156.977c-1.036 1.86-1.143 4.097-.289 6.047l35.707 79.339h-148.005c-13.929-.001-25.628-12.359-25.628-27.146zm192.831 37.931-41.748-92.579 76.499-133.109v85.796c-14.431 3.574-23.232 18.17-19.658 32.601s18.17 23.232 32.601 19.658 23.232-18.17 19.658-32.601c-2.4-9.691-9.967-17.258-19.658-19.658v-85.796l76.548 133.196-38.997 92.493h-85.245zm41.222-127.743c7.719-.001 13.978 6.257 13.978 13.976.001 7.719-6.257 13.978-13.976 13.978-7.72.001-13.978-6.257-13.978-13.976v-.001c.008-7.715 6.261-13.968 13.976-13.977zm67.812 182.75h-135.624l13.175-42.065h109.274z"/><path d="m91.248 66.871h31.526c3.574 0 6.472-2.897 6.472-6.472s-2.897-6.472-6.472-6.472h-31.526c-3.574 0-6.472 2.897-6.472 6.472s2.898 6.472 6.472 6.472z"/><path d="m149.222 66.871h30.447c3.574 0 6.472-2.897 6.472-6.472s-2.897-6.472-6.472-6.472h-30.447c-3.574 0-6.472 2.897-6.472 6.472s2.898 6.472 6.472 6.472z"/><path d="m33.281 66.871h31.527c3.574 0 6.472-2.897 6.472-6.472s-2.897-6.472-6.472-6.472h-31.527c-3.574 0-6.472 2.897-6.472 6.472s2.898 6.472 6.472 6.472z"/></svg>