<svg height="512pt" viewBox="0 0 512 512" width="512pt" xmlns="http://www.w3.org/2000/svg"><path d="m90 40c-27.570312 0-50 22.429688-50 50s22.429688 50 50 50 50-22.429688 50-50-22.429688-50-50-50zm0 80c-16.542969 0-30-13.457031-30-30s13.457031-30 30-30 30 13.457031 30 30-13.457031 30-30 30zm0 0"/><path d="m133 302c-27.570312 0-50 22.429688-50 50s22.429688 50 50 50 50-22.429688 50-50-22.429688-50-50-50zm0 80c-16.542969 0-30-13.457031-30-30s13.457031-30 30-30 30 13.457031 30 30-13.457031 30-30 30zm0 0"/><path d="m290 116c-23.160156 0-42 18.839844-42 42s18.839844 42 42 42 42-18.839844 42-42-18.839844-42-42-42zm0 64c-12.132812 0-22-9.867188-22-22s9.867188-22 22-22 22 9.867188 22 22-9.867188 22-22 22zm0 0"/><path d="m482 68h-82c-5.523438 0-10 4.476562-10 10s4.476562 10 10 10h82c5.515625 0 10 4.484375 10 10v384c0 5.515625-4.484375 10-10 10h-252c-5.515625 0-10-4.484375-10-10v-24h16c16.542969 0 30-13.457031 30-30v-152c0-16.542969-13.457031-30-30-30h-16v-148c0-5.515625 4.484375-10 10-10h81.5c5.523438 0 10-4.476562 10-10s-4.476562-10-10-10h-81.5c-16.542969 0-30 13.457031-30 30v148h-170c-16.542969 0-30 13.457031-30 30v152c0 16.542969 13.457031 30 30 30h170v24c0 16.542969 13.457031 30 30 30h252c16.542969 0 30-13.457031 30-30v-384c0-16.542969-13.457031-30-30-30zm-462 360v-152c0-5.515625 4.484375-10 10-10h206c5.515625 0 10 4.484375 10 10v152c0 5.515625-4.484375 10-10 10h-206c-5.515625 0-10-4.484375-10-10zm0 0"/><path d="m10 180h160c5.523438 0 10-4.476562 10-10v-160c0-5.523438-4.476562-10-10-10h-160c-5.523438 0-10 4.476562-10 10v160c0 5.523438 4.476562 10 10 10zm10-160h140v140h-140zm0 0"/><path d="m457 126h-89.332031c-5.523438 0-10 4.476562-10 10s4.476562 10 10 10h89.332031c5.523438 0 10-4.476562 10-10s-4.476562-10-10-10zm0 0"/><path d="m457 170h-89.332031c-5.523438 0-10 4.476562-10 10s4.476562 10 10 10h89.332031c5.523438 0 10-4.476562 10-10s-4.476562-10-10-10zm0 0"/><path d="m356 88c2.628906 0 5.210938-1.070312 7.070312-2.929688 1.859376-1.859374 2.929688-4.441406 2.929688-7.070312s-1.070312-5.210938-2.929688-7.070312c-1.859374-1.859376-4.441406-2.929688-7.070312-2.929688s-5.210938 1.070312-7.070312 2.929688c-1.859376 1.859374-2.929688 4.441406-2.929688 7.070312s1.070312 5.210938 2.929688 7.070312c1.859374 1.859376 4.441406 2.929688 7.070312 2.929688zm0 0"/></svg>