<?xml version="1.0" encoding="iso-8859-1"?>
<!-- Generator: Adobe Illustrator 19.0.0, SVG Export Plug-In . SVG Version: 6.00 Build 0)  -->
<svg version="1.1" id="Capa_1" xmlns="http://www.w3.org/2000/svg" xmlns:xlink="http://www.w3.org/1999/xlink" x="0px" y="0px"
	 viewBox="0 0 496.941 496.941" style="enable-background:new 0 0 496.941 496.941;" xml:space="preserve">
<g>
	<g>
		<g>
			<path d="M469.443,0H28.22C13.161,0,0.361,12.8,0.361,27.859v320.753c0,15.812,12.8,27.859,27.859,27.859h130.259v47.435H123.09
				c-4.518,0-7.529,3.012-7.529,7.529v57.976c0,4.518,3.012,7.529,7.529,7.529h250.729c4.518,0,7.529-3.012,7.529-7.529v-57.224
				c0-4.518-3.012-7.529-7.529-7.529h-35.388v-47.435H468.69c15.812,0,27.859-12.8,27.859-27.859V27.859
				C497.302,12.8,484.502,0,469.443,0z M15.42,27.859c0-6.776,6.023-12.8,12.8-12.8H468.69c7.529,0,12.8,6.023,12.8,12.8v257.506
				H15.42V27.859z M366.29,439.718v42.165H130.619v-42.165C370.055,439.718,275.937,439.718,366.29,439.718z M174.29,424.659
				v-47.435h149.082v47.435H174.29z M482.996,349.365c-0.753,6.776-6.776,12.8-13.553,12.8c-290.635,0-142.306,0-440.471,0
				c-7.529,0-12.8-6.023-12.8-12.8v-48.188h466.823V349.365z"/>
			<path d="M248.831,351.624c12.8,0,22.588-9.788,22.588-22.588c0-12.8-10.541-22.588-22.588-22.588s-22.588,9.788-22.588,22.588
				C226.243,341.835,236.031,351.624,248.831,351.624z M248.831,320.753c3.765,0,7.529,3.012,7.529,7.529s-3.765,7.529-7.529,7.529
				s-7.529-3.012-7.529-7.529S244.314,320.753,248.831,320.753z"/>
			<path d="M82.431,182.212c12.047,0,21.835-9.788,21.835-21.082c0-3.012-0.753-6.023-1.506-8.282l31.623-29.365
				c5.271,2.259,10.541,2.259,15.812,0l23.341,23.341c-1.506,3.012-2.259,6.023-2.259,9.035c0,11.294,9.035,21.082,21.082,21.082
				s21.082-9.035,21.082-21.082c0-3.765-0.753-6.776-3.012-9.788l33.129-36.141c2.259,0.753,3.765,0.753,6.023,0.753
				c11.294,0,21.082-9.035,21.082-21.082c0-12.047-9.035-21.082-21.082-21.082s-21.082,9.035-21.082,21.082
				c0,3.765,0.753,6.776,3.012,9.788l-33.129,36.141c-4.518-1.506-9.035-1.506-14.306,0.753l-23.341-23.341
				c1.506-3.012,2.259-6.023,2.259-9.035c0-11.294-9.035-21.082-21.082-21.082s-21.082,9.035-21.082,21.082
				c0,3.012,0.753,6.024,1.506,8.282l-31.623,29.365c-2.259-1.506-5.271-1.506-8.282-1.506c-11.294,0-21.082,9.035-21.082,21.082
				C61.349,172.424,70.384,182.212,82.431,182.212z M250.337,84.329c3.012,0,6.024,2.259,6.024,6.023
				c0,3.765-2.259,6.024-6.024,6.024c-3.012,0-6.023-2.259-6.023-6.024C244.314,86.588,247.325,84.329,250.337,84.329z
				 M192.361,150.588c3.765,0,6.023,2.259,6.023,6.023c0,3.012-2.259,6.023-6.023,6.023s-6.024-2.259-6.024-6.023
				C186.337,153.6,188.596,150.588,192.361,150.588z M142.667,99.388c3.012,0,6.024,2.259,6.024,6.023s-2.259,6.024-6.024,6.024
				s-6.023-2.259-6.023-6.024S139.655,99.388,142.667,99.388z M83.937,155.106c3.765,0,6.023,2.259,6.023,6.023
				s-2.259,6.024-6.023,6.024s-6.024-3.012-6.024-6.024S80.172,155.106,83.937,155.106z"/>
			<path d="M294.008,33.882H46.29c-4.518,0-7.529,3.012-7.529,7.529v171.671c0,4.518,3.012,7.529,7.529,7.529h26.353l-3.012,37.647
				c0,3.012,1.506,6.024,3.765,6.776c2.259,1.506,6.024,1.506,8.282-0.753l62.494-44.424h149.835c4.518,0,7.529-3.012,7.529-7.529
				V41.412C301.537,36.894,298.525,33.882,294.008,33.882z M286.478,205.553H141.914c-1.506,0-3.012,0.753-4.518,1.506L85.443,243.2
				l2.259-29.365c0-2.259-0.753-4.518-2.259-6.023c-1.506-1.506-3.765-2.259-5.271-2.259H53.819V48.941h232.659V205.553z"/>
			<path d="M459.655,59.482c-2.259-1.506-5.271-1.506-7.529,0l-85.082,52.706h-43.671c-4.518,0-7.529,3.012-7.529,7.529v64.753
				c0,5.271,3.765,8.282,7.529,8.282h42.165l86.588,54.212c2.259,1.506,5.271,1.506,7.529,0c2.259-1.506,3.765-3.765,3.765-6.776
				V66.259C463.42,63.247,461.914,60.988,459.655,59.482z M359.514,177.694h-28.612V128h28.612V177.694z M449.114,226.635
				l-73.788-45.929v-55.718l73.788-45.929V226.635z"/>
		</g>
	</g>
</g>
<g>
</g>
<g>
</g>
<g>
</g>
<g>
</g>
<g>
</g>
<g>
</g>
<g>
</g>
<g>
</g>
<g>
</g>
<g>
</g>
<g>
</g>
<g>
</g>
<g>
</g>
<g>
</g>
<g>
</g>
</svg>
