<svg id="Layer_1" enable-background="new 0 0 48 48" viewBox="0 0 48 48" xmlns="http://www.w3.org/2000/svg"><path d="m3.73 32.01h11.89l-7.58 7.58c-.54.54-.85 1.27-.85 2.04s.3 1.5.85 2.04l2.99 2.99c.54.54 1.27.85 2.04.85s1.5-.3 2.04-.85l14.64-14.64h14.52c1.78 0 3.23-1.45 3.23-3.23v-25.06c0-1.78-1.45-3.23-3.23-3.23h-40.54c-1.78 0-3.23 1.45-3.23 3.23v25.05c0 1.78 1.45 3.23 3.23 3.23zm-1.73-3.23v-25.05c0-.23.05-.45.13-.66l14.42 11.83-14.45 14.45c-.06-.18-.1-.37-.1-.57zm15.34 13.51-4.95-4.95 12.29-12.29 6.62-1.67-1.67 6.62zm-3.3 3.3c-.54.54-1.42.54-1.96 0l-2.98-2.98c-.54-.54-.54-1.42 0-1.96l2.24-2.24 4.95 4.95zm17.01-15.08 2.01-7.97c.06-.26-.01-.53-.2-.71-.19-.19-.46-.26-.71-.2l-8.04 2.03c-.13.03-.25.1-.35.2l-6.65 6.65h-13.38c-.2 0-.39-.04-.57-.1l14.55-14.55 5.81 4.77c.14.11.31.17.48.17s.34-.06.48-.17l5.81-4.77 14.55 14.55c-.18.06-.37.1-.57.1zm14.82-27.44c.08.21.13.43.13.66v25.05c0 .2-.04.39-.1.57l-14.45-14.45zm-1.6-1.07c.16 0 .31.03.46.07l-20.73 17.01-20.73-17.01c.15-.04.3-.07.46-.07z"/></svg>