<svg height="24.006" viewBox="0 0 24 24.00589" width="24" xmlns="http://www.w3.org/2000/svg"><g id="Layer_2" data-name="Layer 2"><g id="Layer_1-2" fill="none" stroke="#000" stroke-linecap="round" stroke-linejoin="round" data-name="Layer 1"><path d="m18.557 13.537h1.85"/><path d="m9.48584 10.47775h12.91547a1.05 1.05 0 0 1 1.05 1.05v6.93925a1.05 1.05 0 0 1 -1.05 1.05h-12.91643a1.049 1.049 0 0 1 -1.049-1.049v-6.9402a1.05 1.05 0 0 1 1.04996-1.05005z"/><path d="m14.31.5.004 3.971h4.139"/><path d="m18.45342 8.37342v-3.90226c0-.21351-.08621-.2946-.238-.44435l-3.34518-3.29739a.79728.79728 0 0 0 -.55993-.22942h-12.99416a.79773.79773 0 0 0 -.7979.79793v21.34623a.79776.79776 0 0 0 .7979.79816h16.33842a.798.798 0 0 0 .79886-.79816v-1.10979"/><path d="m11.48272 16.39593v-2.85845h1.07248s.9182-.03344.9182.73871c0 .80009-.9182.80772-.9182.80772l-1.07248.00238"/><path d="m15.27955 16.39593v-2.85845h1.07245s.9182-.03344.9182.73871c0 .80009-.9182.80772-.9182.80772l-1.07248.00238"/><path d="m19.482 13.537v2.859"/><path d="m11.976 8.97868a4.47544 4.47544 0 0 0 -.47314-1.85953c-.015-.02921-4.02891 2.1601-4.02891 2.1601l.17545-4.64377a4.4994 4.4994 0 0 0 -.6205 8.973"/><path d="m12.28649 5.20573a3.85437 3.85437 0 0 0 -3.26017-2.0606l-.15442 3.85456 3.4151-1.79318z"/></g><g id="Layer_2-2" data-name="Layer 2"><path d="m0 .006h24v24h-24z" fill="none"/></g></g></svg>