<svg id="Layer_1" enable-background="new 0 0 512 512" height="512" viewBox="0 0 512 512" width="512" xmlns="http://www.w3.org/2000/svg"><g id="document"><path d="m452.422 70.25-64-64-6.25-6.25h-8.844-298.656-21.344v21.336 469.32 21.344h21.344 362.656 21.344v-21.344-405.32-8.836zm-68.422-38.25 42.672 42.664h-42.672zm-309.328 458.656v-469.32h288v74.664h74.656v394.656z"/><path d="m214.859 192h73.141l-65.016-113.773-37.266 65.211-19.625-32.703-48.765 81.265h40.641zm8.125-70.781 28.25 49.445h-56.5zm-67.968 49.445 11.078-18.469 7.484 12.477-3.422 5.992z"/><path d="m384 277.344h-256c-5.891 0-10.672 4.766-10.672 10.656s4.781 10.656 10.672 10.656h256c5.891 0 10.672-4.766 10.672-10.656s-4.781-10.656-10.672-10.656z"/><path d="m384 341.344h-256c-5.891 0-10.672 4.766-10.672 10.656s4.781 10.656 10.672 10.656h256c5.891 0 10.672-4.766 10.672-10.656s-4.781-10.656-10.672-10.656z"/><path d="m266.672 405.344h-138.672c-5.891 0-10.672 4.766-10.672 10.656s4.781 10.656 10.672 10.656h138.672c5.891 0 10.656-4.766 10.656-10.656s-4.766-10.656-10.656-10.656z"/></g></svg>