<svg enable-background="new 0 0 64 64" viewBox="0 0 64 64" xmlns="http://www.w3.org/2000/svg"><g id="Layer_1"/><g id="Layer_2"><g><path d="m46.8198242 42.2695313c.0007935-6.3303032-.0010223-27.8889561-.0014648-33.8154221 0-.552742-.4477539-1.0000076-1-1.0000076h-3.1630859v-4.4541016c0-.5527344-.4477539-1-1-1h-8.1557617c-.5522461 0-1 .4472656-1 1v4.4541016h-16.265625v-4.4541016c0-.5527344-.4477539-1-1-1h-8.1557618c-.5522461 0-1 .4472656-1 1v4.4541016h-3.078125c-.5522461 0-1 .4472656-1 1-.0005733.0009871.0004132 8.7264366-.0000013 8.7275314.0000013.0000076.0000013 33.818367.0000013 33.818367 0 .5527344.4477539 1 1 1h33.6401367c.2563477 0 .503418-.0986328.6889648-.2753906 0 0 9.1796875-8.7304688 9.1796875-8.7304688.1987305-.1884765.3110352-.4511718.3110352-.7246093zm-9.2617187 6.399414v-5.3964844h5.6728516zm-3.0585938-44.6689453h6.1557617v3.4541016h-6.1557617zm-26.4213867 0h6.1557617v3.4541016h-6.1557617zm-1 5.4541016h37.7402344v6.7255859h-40.8183594v-6.7255859zm-3.078125 8.727539h40.8198242v23.0908203h-8.2617188c-.5522461 0-1 .4472656-1 1v7.7275391h-31.5581054z"/><path d="m62 29.5800781c.1553078-6.3749142-7.3422623-10.548666-12.700779-7.1248131-1.1102676.6870556-.0817184 2.382515 1.0406761 1.7077885 5.1277351-3.1903038 11.5406761 2.2384701 9.1848793 7.8185234.0001259-.0001316-.8124962 1.9849758-.8124962 1.9849758l-8.1677246-3.3308105c-.0504875-.0120564-.3684235-.1641293-.415905-.154892-.7745628-.2880955-1.576088.5922813-1.2305565 1.3267307.1221619.2340145.2937851.4288197.5433273.5381107-.0000153.0000114 9.4399261 3.860363 9.4399261 3.860363.0009766.0004272.0021362.0001831.0031128.0006104.0009766.0003662.00177.0009766.0027466.0013428l.0371094.015625-2.8120117 6.8916016c-1.2509727-.5102577-4.5268669-1.8466797-5.8183594-2.3720703-1.2338409-.6227913-2.1209068 1.2585831-.8510323 1.8125191-.000042-.0000191 2.8996162 1.1829643 2.8996162 1.1829643l-8.5778809 15.994751-4.1625977-1.6992188 1.2578125-4.3251953c.0268555-.0908203.0400391-.1943359.0400391-.2890625.0091743-1.1581459-1.6952171-1.3530388-1.9672852-.2451172l-1.5024414 5.1660156c-.1430664.4912109.1079102 1.0117188.5820313 1.2050781l5.8300781 2.3798828c.1235354.0507813.2514651.0742188.3774417.0742188.3588867 0 .7026367-.1933594.8818359-.5273438l9.1032715-16.9742432 2.0769043.84729c.493721.2128334 1.1110268-.0466537 1.3041954-.547863.0000038.0000114 3.569828-8.7499886 3.569828-8.7499886.2208023-.5115929-.0664825-1.1459045-.5933838-1.3218384.6498299-1.556362 1.5149002-3.4407271 1.4376221-5.1459349z"/><path d="m25 23h-17c-.5522461 0-1 .4472656-1 1v8c0 .5527344.4477539 1 1 1h17c.5522461 0 1-.4472656 1-1v-8c0-.5527344-.4477539-1-1-1zm-1 8h-15v-6h15z"/><path d="m8 40h5.9091797c1.3059578-.0050659 1.3090811-1.9946976-.0000629-1.9999962.0000629-.0000038-5.9091168-.0000038-5.9091168-.0000038-1.3059573.0050659-1.3090811 1.9946976 0 2z"/><path d="m21 43h-13c-.5522461 0-1 .4472656-1 1s.4477539 1 1 1h13c1.303688-.0046234 1.310873-1.9946404 0-2z"/><path d="m37 33c.5522461 0 1-.4472656 1-1v-8c0-.5527344-.4477539-1-1-1h-6c-.5522461 0-1 .4472656-1 1v8c0 .5527344.4477539 1 1 1zm-5-8h4v6h-4z"/></g></g></svg>