<?xml version="1.0" encoding="UTF-8"?>
<svg xmlns="http://www.w3.org/2000/svg" viewBox="0 0 64 64" width="512" height="512"><g id="Pentool"><path d="M33.02344,11.84961c-.10547-.249-.41016-.85547-1.02344-.85352a1.1398,1.1398,0,0,0-1.02344.85352c-1.69043,4.01758-7.66211,17.583-13.52246,23.44336a.99931.99931,0,0,0-.13183,1.251L22.15948,44H21a.99943.99943,0,0,0-1,1v7a.99943.99943,0,0,0,1,1h2V63a.99943.99943,0,0,0,1,1H40a.99943.99943,0,0,0,1-1V53h2a.99943.99943,0,0,0,1-1V45a.99943.99943,0,0,0-1-1H41.84052l4.83721-7.456a.99931.99931,0,0,0-.13183-1.251C40.68555,29.43262,34.71387,15.86719,33.02344,11.84961ZM32,33a2,2,0,1,1-2,2A2.0026,2.0026,0,0,1,32,33Zm7,29H25V53H39Zm3-11H22V46H42Zm-2.543-7H24.543l-5.11041-7.87793C23.94519,31.27728,28.2984,22.70435,31,16.77594V31.142a4,4,0,1,0,2,0v-14.366c2.7016,5.92841,7.05481,14.50134,11.56738,19.34613Z"/><path d="M59,0a3.99552,3.99552,0,0,0-3.858,3H36V1a.99943.99943,0,0,0-1-1H29a.99943.99943,0,0,0-1,1V3H8.858a4,4,0,1,0,0,2H20.574a18.49714,18.49714,0,0,0-9.30676,11H9a.99943.99943,0,0,0-1,1v6a.99943.99943,0,0,0,1,1h6a.99943.99943,0,0,0,1-1V17a.99943.99943,0,0,0-1-1H13.38342A16.47646,16.47646,0,0,1,28,5.0401V7a.99943.99943,0,0,0,1,1h6a.99943.99943,0,0,0,1-1V5.0401A16.4762,16.4762,0,0,1,50.61627,16H49a.99943.99943,0,0,0-1,1v6a.99943.99943,0,0,0,1,1h6a.99943.99943,0,0,0,1-1V17a.99943.99943,0,0,0-1-1H52.73248A18.49758,18.49758,0,0,0,43.4259,5H55.142A3.99348,3.99348,0,1,0,59,0ZM14,22H10V18h4Zm40,0H50V18h4ZM5,6A2,2,0,1,1,7,4,2.0026,2.0026,0,0,1,5,6ZM34,6H30V2h4ZM59,6a2,2,0,1,1,2-2A2.0026,2.0026,0,0,1,59,6Z"/></g></svg>
