<svg id="Layer_2" viewBox="0 0 64 64" xmlns="http://www.w3.org/2000/svg" data-name="Layer 2"><path d="m57.41 4.45h-50.82c-3.08 0-5.59 2.51-5.59 5.59v43.93c0 3.08 2.51 5.59 5.59 5.59h50.82c3.08 0 5.59-2.51 5.59-5.59v-43.93c0-3.08-2.51-5.59-5.59-5.59zm4.57 49.52c0 2.52-2.05 4.57-4.57 4.57h-50.82c-2.52 0-4.57-2.05-4.57-4.57v-32.48h59.97v32.47zm0-33.49h-59.96v-10.44c0-2.52 2.05-4.57 4.57-4.57h50.82c2.52 0 4.57 2.05 4.57 4.57z"/><path d="m53.71 9.32c-2.01 0-3.65 1.64-3.65 3.65s1.64 3.65 3.65 3.65 3.65-1.64 3.65-3.65-1.64-3.65-3.65-3.65zm0 6.28c-1.45 0-2.63-1.18-2.63-2.63s1.18-2.63 2.63-2.63 2.63 1.18 2.63 2.63-1.18 2.63-2.63 2.63z"/><path d="m42.84 9.32c-2.01 0-3.65 1.64-3.65 3.65s1.64 3.65 3.65 3.65 3.65-1.64 3.65-3.65-1.64-3.65-3.65-3.65zm0 6.28c-1.45 0-2.63-1.18-2.63-2.63s1.18-2.63 2.63-2.63 2.63 1.18 2.63 2.63-1.18 2.63-2.63 2.63z"/><path d="m9.42 54.17h45.17c1.53 0 2.78-1.25 2.78-2.78s-1.25-2.78-2.78-2.78h-45.17c-1.53 0-2.78 1.25-2.78 2.78s1.25 2.78 2.78 2.78zm0-4.54h45.17c.97 0 1.76.79 1.76 1.76s-.79 1.76-1.76 1.76h-45.17c-.97 0-1.76-.79-1.76-1.76s.79-1.76 1.76-1.76z"/><path d="m9.34 37.23h3.28v3.28c0 1.49 1.21 2.7 2.7 2.7s2.7-1.21 2.7-2.7v-3.28h3.28c1.49 0 2.7-1.21 2.7-2.7s-1.21-2.7-2.7-2.7h-3.28v-3.28c0-1.49-1.21-2.7-2.7-2.7s-2.7 1.21-2.7 2.7v3.28h-3.28c-1.49 0-2.7 1.21-2.7 2.7s1.21 2.7 2.7 2.7zm0-4.38h3.79c.28 0 .51-.23.51-.51v-3.79c0-.93.75-1.68 1.68-1.68s1.68.75 1.68 1.68v3.79c0 .28.23.51.51.51h3.79c.93 0 1.68.75 1.68 1.68s-.75 1.68-1.68 1.68h-3.79c-.28 0-.51.23-.51.51v3.79c0 .93-.75 1.68-1.68 1.68s-1.68-.75-1.68-1.68v-3.79c0-.28-.23-.51-.51-.51h-3.79c-.93 0-1.68-.75-1.68-1.68s.75-1.68 1.68-1.68z"/><path d="m33.66 42.66s.04.01.06.02c.2.05.41.07.63.07h.01 19.92c.22 0 .43-.03.63-.07h.01c.21-.05.4-.12.59-.2h.01s0 0 .01-.01c1.01-.48 1.71-1.5 1.71-2.69v-10.49c0-1.64-1.34-2.98-2.98-2.98h-19.92c-1.64 0-2.98 1.34-2.98 2.98v10.49c0 1.4.97 2.56 2.27 2.88zm.71-.92c-.08 0-.16-.01-.24-.02l4.95-7.16c.11-.11.26-.17.42-.17.16.02.3.06.35.11l2.81 4.06c.1.14.26.23.44.22.17 0 .33-.11.42-.26l3.34-5.92c.11-.09.24-.14.37-.14.17 0 .3.06.36.12l6.87 9.14c-.06 0-.12.02-.18.02h-19.92zm-1.96-12.45c0-1.08.88-1.96 1.96-1.96h19.92c1.08 0 1.96.88 1.96 1.96v10.49c0 .64-.31 1.21-.79 1.56l-7.09-9.42c-.3-.31-.69-.48-1.12-.48h-.01c-.43 0-.83.17-1.14.47-.03.03-.06.07-.08.11l-2.98 5.28-2.41-3.46c-.3-.3-.69-.47-1.12-.48-.41.04-.84.16-1.2.54l-5.14 7.41c-.46-.36-.76-.91-.76-1.54v-10.49z"/></svg>