<svg enable-background="new 0 0 100 100" viewBox="0 0 100 100" xmlns="http://www.w3.org/2000/svg"><g id="Layer_1"/><g id="Layer_2"/><g id="Layer_3"/><g id="Layer_4"/><g id="Layer_5"/><g id="Layer_6"/><g id="Layer_7"/><g id="Layer_8"/><g id="Layer_9"/><g id="Layer_10"/><g id="Layer_11"/><g id="Layer_12"/><g id="Layer_13"/><g id="Layer_14"/><g id="Layer_15"/><g id="Layer_16"/><g id="Layer_17"/><g id="Layer_18"/><g id="Layer_19"/><g id="Layer_20"/><g id="Layer_21"/><g id="Layer_22"/><g id="Layer_23"/><g id="Layer_24"/><g id="Layer_25"/><g id="Layer_26"/><g id="Layer_27"/><g id="Layer_28"/><g id="Layer_29" display="none"/><g id="Layer_30"/><g id="Layer_31"/><g id="Layer_32"/><g id="Layer_35"><g id="Layer_34"/><g id="Layer_33"/><g><g><path d="m47.9 21.4h6.4c.8 0 1.5-.7 1.5-1.5s-.7-1.5-1.5-1.5h-6.4c-.8 0-1.5.7-1.5 1.5s.6 1.5 1.5 1.5z"/><path d="m62.5 21.4h6.4c.8 0 1.5-.7 1.5-1.5s-.7-1.5-1.5-1.5h-6.4c-.8 0-1.5.7-1.5 1.5s.7 1.5 1.5 1.5z"/><path d="m18.6 21.4h6.4c.8 0 1.5-.7 1.5-1.5s-.7-1.5-1.5-1.5h-6.4c-.8 0-1.5.7-1.5 1.5s.6 1.5 1.5 1.5z"/><path d="m33.2 21.4h6.4c.8 0 1.5-.7 1.5-1.5s-.7-1.5-1.5-1.5h-6.4c-.8 0-1.5.7-1.5 1.5s.7 1.5 1.5 1.5z"/><path d="m54.3 69.1h-6.4c-.8 0-1.5.7-1.5 1.5s.7 1.5 1.5 1.5h6.4c.8 0 1.5-.7 1.5-1.5s-.7-1.5-1.5-1.5z"/><path d="m24.9 69.1h-6.4c-.8 0-1.5.7-1.5 1.5s.7 1.5 1.5 1.5h6.4c.8 0 1.5-.7 1.5-1.5s-.6-1.5-1.5-1.5z"/><path d="m39.6 69.1h-6.4c-.8 0-1.5.7-1.5 1.5s.7 1.5 1.5 1.5h6.4c.8 0 1.5-.7 1.5-1.5s-.7-1.5-1.5-1.5z"/><path d="m43.7 25.9c-10.7 0-19.3 8.7-19.3 19.3s8.7 19.3 19.3 19.3 19.3-8.7 19.3-19.3-8.6-19.3-19.3-19.3zm0 35.7c-9 0-16.3-7.3-16.3-16.3s7.3-16.3 16.3-16.3 16.3 7.3 16.3 16.3-7.3 16.3-16.3 16.3z"/><path d="m53.6 44-14.5-9c-.5-.3-1-.3-1.5 0s-.8.8-.8 1.3v18.1c0 .5.3 1 .8 1.3.2.1.5.2.7.2.3 0 .6-.1.8-.2l14.5-9c.4-.3.7-.8.7-1.3 0-.6-.3-1.1-.7-1.4zm-13.8 7.6v-12.7l10.1 6.3z"/><path d="m92.8 52.2c-2.8-2.8-7.3-2.9-10.3-.4v-26.2c0-9.5-7.7-17.2-17.2-17.2h-43.1c-9.5 0-17.2 7.7-17.2 17.2v39.4c0 9.5 7.7 17.2 17.2 17.2h32.6c-1 2.7-1.6 5.7-1.3 8.1.1.7.6 1.2 1.3 1.3.4 0 .8.1 1.3.1 4.6 0 10.7-2.6 13.3-5.2l23.4-23.5c1.4-1.4 2.2-3.3 2.2-5.4 0-2-.8-3.9-2.2-5.4zm-24.5 31-6.5-6.5 17.4-17.4 6.5 6.5zm-46.1-4.1c-7.8 0-14.2-6.3-14.2-14.1v-39.4c0-7.8 6.4-14.2 14.2-14.2h43.1c7.8 0 14.2 6.4 14.2 14.2v29.2l-20.9 20.9c-.8.8-1.7 2-2.4 3.4zm37.6-.1 6.3 6.3c-2.3 1.6-6.4 3.3-9.6 3.4 0-3.3 1.7-7.4 3.3-9.7zm30.9-18.2-2.8 2.8-6.5-6.5 2.8-2.8c.9-.9 2.1-1.3 3.2-1.3 1.2 0 2.4.4 3.2 1.3.9.9 1.3 2 1.3 3.2.1 1.3-.4 2.5-1.2 3.3z"/></g></g></g></svg>