<svg height="512" viewBox="0 0 128 128" width="512" xmlns="http://www.w3.org/2000/svg"><g><path d="m111.82 6.6h-57.27a4.8 4.8 0 0 0 -4.75 4.75v26.37h-32.891a4.756 4.756 0 0 0 -4.75 4.75v74.181a4.755 4.755 0 0 0 4.75 4.75h57.273a4.755 4.755 0 0 0 4.75-4.75v-26.371h32.888a4.756 4.756 0 0 0 4.75-4.75v-74.18a4.755 4.755 0 0 0 -4.75-4.75zm1.25 4.75v55.813l-7.089-6.855a4.748 4.748 0 0 0 -6.934.354l-7.685 9.121a1.248 1.248 0 0 1 -1.633.245l-10.8-6.966v-23.592a1.866 1.866 0 0 0 -.4-1.113l-23.27-28.257h56.561a1.25 1.25 0 0 1 1.25 1.25zm-59.77 1.877 20.172 24.493h-20.172zm20.882 104.673h-57.273a1.251 1.251 0 0 1 -1.25-1.25v-74.18a1.251 1.251 0 0 1 1.25-1.25h58.523v75.431a1.251 1.251 0 0 1 -1.25 1.249zm4.75-31.121v-19.551l8.9 5.742a4.759 4.759 0 0 0 6.207-.932l7.685-9.121a1.235 1.235 0 0 1 .892-.443 1.258 1.258 0 0 1 .932.349l9.52 9.207v13.5a1.25 1.25 0 0 1 -1.25 1.25z"/><path d="m99.182 45.064a8.478 8.478 0 1 0 -8.482-8.478 8.487 8.487 0 0 0 8.482 8.478zm0-13.456a4.978 4.978 0 1 1 -4.982 4.978 4.984 4.984 0 0 1 4.982-4.978z"/><path d="m80.091 19.038h6.181a1.75 1.75 0 0 0 0-3.5h-6.181a1.75 1.75 0 0 0 0 3.5z"/><path d="m75.363 25.659h15.637a1.75 1.75 0 0 0 0-3.5h-15.637a1.75 1.75 0 0 0 0 3.5z"/><path d="m58.773 85.72h-25.909a1.75 1.75 0 1 0 0 3.5h25.909a1.75 1.75 0 0 0 0-3.5z"/><path d="m58.773 95.947h-25.909a1.75 1.75 0 1 0 0 3.5h25.909a1.75 1.75 0 0 0 0-3.5z"/><path d="m58.773 106.174h-25.909a1.75 1.75 0 1 0 0 3.5h25.909a1.75 1.75 0 0 0 0-3.5z"/><path d="m41.837 77.446a7.068 7.068 0 0 0 7.416 0c5.565-3.46 9.734-12.172 9.1-19.022a11.715 11.715 0 0 0 -7.683-10.3 14.249 14.249 0 0 0 -10.256 0 11.717 11.717 0 0 0 -7.682 10.3c-.632 6.85 3.54 15.561 9.105 19.022zm-5.617-18.7a8.165 8.165 0 0 1 5.472-7.359 10.7 10.7 0 0 1 7.707 0 8.165 8.165 0 0 1 5.472 7.359c.514 5.586-2.975 12.936-7.466 15.729a3.543 3.543 0 0 1 -3.719 0c-4.492-2.794-7.98-10.144-7.466-15.73z"/><path d="m45.545 64.447a1.749 1.749 0 0 0 1.755-1.747v-3.458a1.75 1.75 0 0 0 -3.5 0v3.458a1.75 1.75 0 0 0 1.745 1.747z"/><path d="m25.182 45.22h-4.546a1.75 1.75 0 1 0 0 3.5h4.546a1.75 1.75 0 1 0 0-3.5z"/><path d="m70.454 45.22h-4.545a1.75 1.75 0 0 0 0 3.5h4.545a1.75 1.75 0 0 0 0-3.5z"/></g></svg>