<svg id="Layer_1" enable-background="new 0 0 100 100" viewBox="0 0 100 100" xmlns="http://www.w3.org/2000/svg"><path d="m80.8960342 69.5593185c-.8954849 0-1.6659546-.6737213-1.7656708-1.5845871-.1066666-.9758606.5978165-1.853981 1.5736771-1.9611435 7.5478897-.8270264 13.2398071-7.1872139 13.2398071-14.793644 0-8.2077179-6.6772079-14.8854218-14.8849258-14.8854218-1.0924454 0-2.1903458.1284943-3.3557205.3929214-.5978165.1379204-1.2293701-.0476265-1.6614838-.4876785-.4321213-.439064-.6057587-1.0711136-.4589081-1.669426.3572006-1.4570885.5382843-2.9727192.5382843-4.5047207 0-10.6838303-8.691925-19.3757591-19.376255-19.3757591-8.1298294 0-15.4529762 5.1387558-18.22229 12.7873545-.1860428.5134792-.5978165.9133472-1.1162567 1.0840111s-1.0869865.0932693-1.5419235-.209856c-1.4521294-.9679203-3.138422-1.479414-4.8763123-1.479414-4.8515053 0-8.7985935 3.9470882-8.7985935 8.7990894 0 .8424015.1255169 1.689764.3730793 2.5197659.1493301.5010757.0704479 1.0423355-.2153149 1.479908-.2857609.4380722-.7496281.7278023-1.2685642.7922974-7.4238596.9272395-13.0225134 7.2710581-13.0225134 14.7569285 0 7.5994873 5.6820011 13.9547157 13.21947 14.7916603.9009457.0873184 1.609396.8463745 1.609396 1.7696381.0004959 1.0463104-.9287262 1.8862305-1.9770164 1.767662-9.3537455-1.0254745-16.407999-8.905262-16.407999-18.3289604 0-8.6254463 6.0000105-16.0279732 14.2394829-17.9469452-.0704498-.5328255-.1061687-1.0676384-.1061687-1.6019535 0-6.8126469 5.5420971-12.3552399 12.3547421-12.3552399 1.7264786 0 3.4157486.3586903 4.9780159 1.0492821 3.7392159-7.9914141 11.8477135-13.2313766 20.7787666-13.2313766 12.6449699 0 22.9324074 10.2874336 22.9324074 22.9319077 0 .9341831-.0570526 1.8639011-.170166 2.7827053.5233994-.0466347 1.0413437-.0699501 1.5518417-.0699501 10.1683653-.0000001 18.441078 8.2727088 18.441078 18.4415702 0 9.4236984-7.0542526 17.3034859-16.4079971 18.3289604-.0659867.0069428-.1314698.0104141-.1959687.0104141z"/><path d="m46.9533615 92.8662872c-.09972 0-.2004318-.0084305-.3021355-.025795-.9679184-.1657028-1.6183243-1.0850067-1.4526253-2.0529251l6.0972519-35.610611c.1652031-.9679184 1.0840111-1.6217995 2.0529213-1.4526253.9679184.1657028 1.6183243 1.0850029 1.4526253 2.0529251l-6.0972519 35.6106148c-.1483383.866211-.9004478 1.4784165-1.7507858 1.4784165z"/><path d="m38.8031883 87.7786331c-.4326134 0-.8662148-.1567688-1.2085342-.4742813l-13.719059-12.718399c-.3626595-.3363647-.5690441-.80867-.5690441-1.3037872 0-.4951248.2063847-.9674225.5690441-1.3037872l13.719059-12.7179031c.720356-.6677704 1.8455467-.625103 2.5128212.0947571.6677704.7203598.625103 1.8455467-.0947609 2.5128212l-12.3125706 11.4141119 12.3125706 11.4146042c.7198639.6672745.7625313 1.7924652.0947609 2.5128174-.3502579.3775482-.8265267.569046-1.304287.569046z"/><path d="m61.1968117 87.7786331c-.4777603 0-.9540291-.1914978-1.304287-.569046-.6677704-.7203522-.625103-1.8455429.0947609-2.5128174l12.3125725-11.4146042-12.3125725-11.4141121c-.7198639-.6672745-.7625313-1.7924614-.0947609-2.5128212.6677704-.7198601 1.7924652-.7625275 2.5128212-.0947571l13.719059 12.7179031c.3626633.3363647.569046.8086624.569046 1.3037872 0 .4951172-.2063828.9674225-.569046 1.3037872l-13.719059 12.718399c-.3423195.3175127-.7759209.4742815-1.2085342.4742815z"/></svg>