<svg id="Layer_1" enable-background="new 0 0 500 500" viewBox="0 0 500 500" xmlns="http://www.w3.org/2000/svg"><g fill="#141515"><path d="m227.124 344.434h-186.836c-4.139 0-7.508-3.349-7.508-7.467v-204.421h392.546v46.358c0 2.149 1.74 3.889 3.889 3.889s3.89-1.74 3.89-3.889v-50.247-43.254c0-8.405-6.787-15.245-15.134-15.245h-377.683c-8.57.001-15.288 6.697-15.288 15.245v43.253 208.311c0 8.406 6.856 15.246 15.288 15.246h186.836c2.15 0 3.89-1.74 3.89-3.889 0-2.15-1.74-3.89-3.89-3.89zm-194.344-259.031c0-4.187 3.3-7.466 7.508-7.466h377.684c4.123 0 7.355 3.279 7.355 7.466v39.363h-392.547z"/><path d="m460.173 267.426h-10.798c-2.027-6.537-4.643-12.831-7.807-18.774l7.663-7.742c5.779-5.837 5.779-15.341 0-21.183l-24.033-24.272c-5.651-5.694-15.441-5.684-21.082 0l-7.62 7.704c-5.975-3.242-12.189-5.836-18.535-7.747v-10.904c0-8.32-6.65-15.092-14.827-15.092h-34.195c-8.177 0-14.827 6.772-14.827 15.092v10.904c-6.346 1.911-12.56 4.506-18.535 7.747l-7.62-7.704c-5.635-5.689-15.446-5.684-21.072-.006l-24.24 24.331c-5.551 5.811-5.551 15.272.048 21.135l7.689 7.764c-3.131 6.07-5.705 12.353-7.679 18.747h-10.803c-8.177 0-14.827 6.772-14.827 15.092v34.381c0 8.235 6.65 14.932 14.827 14.932h10.798c2.027 6.591 4.596 12.879 7.668 18.758l-7.721 7.806c-5.652 5.917-5.63 15.399.048 21.136l24.182 24.426c5.646 5.698 15.442 5.698 21.088 0l7.647-7.732c5.985 3.147 12.188 5.736 18.503 7.726v10.958c0 8.235 6.65 14.932 14.827 14.932h34.195c8.177 0 14.827-6.697 14.827-14.932v-10.958c6.315-1.99 12.517-4.579 18.504-7.726l7.652 7.726c5.629 5.704 15.436 5.721 21.088-.006l23.979-24.367c2.803-2.739 4.368-6.447 4.405-10.449.036-4.075-1.513-7.907-4.358-10.788l-7.646-7.721c3.11-5.774 5.721-12.073 7.79-18.791h10.798c8.177 0 14.827-6.696 14.827-14.932v-34.381c-.001-8.319-6.651-15.09-14.828-15.09zm7.047 49.473c0 3.942-3.162 7.153-7.047 7.153h-13.707c-1.746 0-3.274 1.163-3.746 2.839-2.298 8.198-5.434 15.75-9.323 22.436-.881 1.518-.637 3.438.6 4.692l9.705 9.795c1.375 1.396 2.123 3.258 2.107 5.248-.016 1.91-.748 3.672-2.112 5.004l-24.028 24.42c-2.702 2.723-7.334 2.717-10.024-.006l-9.705-9.801c-1.237-1.236-3.137-1.506-4.659-.658-7.142 3.99-14.636 7.116-22.277 9.297-1.671.478-2.823 2.007-2.823 3.741v13.85c0 3.942-3.163 7.153-7.047 7.153h-34.195c-3.884 0-7.047-3.21-7.047-7.153v-13.85c0-1.734-1.151-3.263-2.823-3.741-7.641-2.18-15.134-5.307-22.277-9.297-.594-.329-1.247-.493-1.895-.493-1.013 0-2.016.398-2.764 1.151l-9.699 9.801c-2.697 2.728-7.334 2.728-10.03 0l-24.182-24.426c-2.696-2.721-2.675-7.434 0-10.235l9.701-9.801c1.22-1.237 1.475-3.126.631-4.639-3.857-6.898-6.951-14.465-9.196-22.488-.473-1.676-2.001-2.839-3.747-2.839h-13.711c-3.884 0-7.047-3.21-7.047-7.153v-34.381c0-4.032 3.163-7.312 7.047-7.312h13.712c1.746 0 3.274-1.162 3.747-2.839 2.159-7.721 5.259-15.298 9.212-22.521.828-1.507.562-3.38-.647-4.606l-9.653-9.748c-2.723-2.849-2.723-7.492-.058-10.284l24.187-24.277c2.706-2.727 7.338-2.722 10.035-.006l9.699 9.806c1.242 1.258 3.189 1.512 4.718.632 7.073-4.107 14.524-7.222 22.155-9.255 1.703-.451 2.887-1.996 2.887-3.757v-13.844c0-4.033 3.163-7.312 7.047-7.312h34.195c3.884 0 7.047 3.279 7.047 7.312v13.844c0 1.761 1.184 3.306 2.887 3.757 7.631 2.032 15.082 5.147 22.155 9.255 1.534.875 3.47.62 4.717-.627l9.705-9.806c2.69-2.722 7.323-2.733 10.024 0l24.033 24.267c2.791 2.827 2.791 7.418 0 10.242l-9.705 9.801c-1.226 1.242-1.481 3.146-.616 4.658 3.98 6.994 7.121 14.551 9.34 22.468.472 1.677 2 2.839 3.746 2.839h13.707c3.884 0 7.047 3.28 7.047 7.312v34.382z"/><path d="m346.036 239.891c-32.634 0-59.183 26.798-59.183 59.741 0 32.937 26.549 59.735 59.183 59.735s59.188-26.798 59.188-59.735c.001-32.943-26.553-59.741-59.188-59.741zm0 111.696c-28.342 0-51.403-23.306-51.403-51.955 0-28.65 23.062-51.961 51.403-51.961 28.347 0 51.409 23.311 51.409 51.961.001 28.648-23.061 51.955-51.409 51.955z"/><path d="m107.293 99.562h-58.382c-2.149 0-3.89 1.74-3.89 3.889s1.741 3.89 3.89 3.89h58.382c2.149 0 3.89-1.741 3.89-3.89s-1.741-3.889-3.89-3.889z"/><path d="m366.833 99.562h-234.897c-2.15 0-3.89 1.74-3.89 3.889s1.74 3.89 3.89 3.89h234.897c2.149 0 3.889-1.741 3.889-3.89s-1.74-3.889-3.889-3.889z"/><path d="m237.641 170.817c0-2.15-1.741-3.89-3.89-3.89h-170.974c-2.149 0-3.889 1.74-3.889 3.89 0 2.149 1.74 3.889 3.889 3.889h170.975c2.148 0 3.889-1.74 3.889-3.889z"/><path d="m184.189 216.866c0-2.149-1.741-3.889-3.89-3.889h-117.522c-2.149 0-3.889 1.74-3.889 3.889s1.74 3.89 3.889 3.89h117.523c2.148 0 3.889-1.741 3.889-3.89z"/><path d="m62.777 315.344h108.592c2.149 0 3.89-1.741 3.89-3.89s-1.741-3.89-3.89-3.89h-108.592c-2.149 0-3.889 1.741-3.889 3.89s1.74 3.89 3.889 3.89z"/><path d="m62.777 266.96h89.027 6.935c2.149 0 3.889-1.741 3.889-3.89 0-2.15-1.74-3.89-3.889-3.89h-6.935-89.027c-2.149 0-3.889 1.74-3.889 3.89 0 2.149 1.74 3.89 3.889 3.89z"/></g></svg>