<svg clip-rule="evenodd" fill-rule="evenodd" height="173.397mm" image-rendering="optimizeQuality" shape-rendering="geometricPrecision" text-rendering="geometricPrecision" viewBox="0 0 173.397 173.397" width="173.397mm" xmlns="http://www.w3.org/2000/svg"><g id="Layer_x0020_1"><g id="_520522184"><path id="_520523360" d="m80.1326 46.0934h-53.0899c-.7411 0-1.3436-.6012-1.3436-1.3425.0014-.7413.6015-1.3428 1.3428-1.3428l53.0907-.0001c.7412 0 1.3419.6016 1.3419 1.3429.0004.7413-.6013 1.3427-1.3419 1.3425z"/><path id="_520523456" d="m95.7276 41.6701c-1.6993 0-3.0814 1.3814-3.0814 3.0808.0004 1.6993 1.3815 3.0806 3.081 3.0806 1.6999-.0001 3.0804-1.3813 3.0804-3.0806.001-1.6994-1.3811-3.0806-3.08-3.0808zm0 8.8467c-3.1817 0-5.7667-2.5875-5.7667-5.7659.0016-3.1786 2.5842-5.766 5.7663-5.766 3.1789-.0001 5.7659 2.5874 5.7659 5.766 0 3.1784-2.5876 5.766-5.7655 5.7659z"/><path id="_520523240" d="m112.759 41.6701c-1.6979 0-3.0806 1.3814-3.0806 3.0808.0012 1.6993 1.3813 3.0806 3.0806 3.0806 1.6992-.0001 3.0806-1.3813 3.0806-3.0806.0004-1.6994-1.3814-3.0806-3.0806-3.0808zm0 8.8467c-3.177 0-5.7661-2.5875-5.7661-5.7659.0007-3.1786 2.5877-5.766 5.7661-5.766 3.1785-.0001 5.7659 2.5874 5.7659 5.766.0008 3.1784-2.5874 5.766-5.7659 5.7659z"/><path id="_520522904" d="m132.722 55.9087h-121.22c-.7411 0-1.3428-.6013-1.3428-1.3426.0006-.7415.6013-1.3428 1.3426-1.3428l121.22-.0001c.7412 0 1.3422.6015 1.3422 1.3429.0016.7412-.6014 1.3426-1.3422 1.3426z"/><path id="_520523144" d="m129.195 74.7941h.0031zm2.2486 49.8592h2.5584l.9238-6.0039c.0912-.5769.5414-1.0314 1.1182-1.1223 3.2182-.5106 6.3222-1.7972 8.9689-3.7204.4725-.3428 1.1121-.3392 1.5843.007l4.899 3.5909 1.8111-1.8078-3.5939-4.8989c-.3461-.4719-.3469-1.1118-.0043-1.5838 1.9209-2.6469 3.2065-5.752 3.7205-8.9725.0916-.577.542-1.0279 1.1188-1.1153l6.005-.9233v-2.5595l-6.0046-.9233c-.5759-.0873-1.0284-.5383-1.1192-1.1152-.514-3.2206-1.8008-6.3255-3.7205-8.9725-.3418-.4722-.3426-1.1119.0035-1.584l3.5947-4.8988-1.8111-1.8113-4.8982 3.5945c-.4691.3461-1.1094.3462-1.5851.0036-2.6461-1.9198-5.7519-3.2065-8.9689-3.717-.5754-.091-1.0278-.5455-1.1186-1.1224l-.9234-6.0039h-2.5584l-.9238 6.0039c-.0865.5769-.5388 1.0315-1.1157 1.1224-3.2194.5105-6.3222 1.7973-8.9726 3.717-.4714.3425-1.1121.3426-1.5805-.0035l-4.9018-3.5946-1.8079 1.8113 3.5908 4.8987c.3461.4721.3495 1.1121.0068 1.5841-1.9217 2.6468-3.2063 5.752-3.7205 8.9725-.0894.5769-.5454 1.028-1.1223 1.1154l-6.0039.9231v2.5595l6.0045.9231c.5775.0875 1.0309.5386 1.1217 1.1155.5148 3.2205 1.7974 6.3221 3.7205 8.9725.3441.4719.3391 1.112-.0036 1.5805l-3.594 4.9022 1.8079 1.8078 4.8984-3.591c.472-.3461 1.1117-.3496 1.5839-.0035 2.6504 1.9197 5.7521 3.2065 8.9726 3.717.5777.0909 1.0279.5455 1.1153 1.1224zm3.7102 2.6854h-4.8604c-.6657 0-1.2287-.4824-1.3266-1.1399l-.9535-6.1961c-2.966-.6014-5.8195-1.7833-8.3478-3.4582l-5.0586 3.7099c-.5316.3883-1.2736.3323-1.7425-.1363l-3.4358-3.4373c-.469-.4685-.5291-1.2097-.134-1.7412l3.7074-5.0597c-1.6759-2.5282-2.8578-5.3814-3.4592-8.3465l-6.1957-.9514c-.6562-.1013-1.1403-.6641-1.1403-1.3286l.001-4.8603c0-.6644.4815-1.2273 1.1389-1.3287l6.1969-.9512c.601-2.9687 1.7825-5.8184 3.4574-8.3465l-3.706-5.0597c-.3951-.5349-.3362-1.2728.1324-1.7413l3.4378-3.4408c.4689-.4685 1.2093-.5244 1.7409-.1328l5.0598 3.71c2.5285-1.675 5.3814-2.8568 8.3464-3.4583l.9545-6.1997c.0991-.6538.6609-1.1363 1.3254-1.1363h4.8616c.664 0 1.2258.4826 1.3273 1.1365l.9559 6.1993c2.9645.6016 5.8139 1.7836 8.3454 3.4585l5.0562-3.7102c.5365-.3915 1.2763-.3354 1.7449.1331l3.4382 3.4406c.4689.4686.5234 1.2065.1318 1.7414l-3.7099 5.0596c1.6756 2.528 2.8601 5.3781 3.4618 8.3466l6.1962.9511c.6546.1015 1.1361.6645 1.1361 1.3289v4.8602c0 .6644-.4825 1.2274-1.1365 1.3288l-6.1945.9511c-.6026 2.965-1.7884 5.8185-3.4631 8.3466l3.7101 5.0596c.3918.5315.3355 1.2728-.1332 1.7414l-3.437 3.4371c-.4674.4686-1.2098.5281-1.7449.1365l-5.059-3.7101c-2.5287 1.6748-5.3787 2.8569-8.3437 3.4584l-.954 6.1958c-.1007.6576-.665 1.1402-1.3281 1.1401z"/><path id="_520523072" d="m132.722 87.6303c-5.0667 0-9.1932 4.1229-9.1932 9.193.0008 5.0666 4.1261 9.1928 9.1926 9.1928 5.0705-.0001 9.1926-4.1261 9.1926-9.1928.0004-5.0701-4.1225-9.1928-9.192-9.193zm0 21.071c-6.549 0-11.8786-5.3287-11.8786-11.878s5.3288-11.8782 11.878-11.8782c6.5493-.0001 11.8783 5.3289 11.8783 11.8782.0006 6.5492-5.329 11.8782-11.8777 11.878z"/><path id="_520523048" d="m63.7509 81.5008h-39.5374c-.7411 0-1.3432-.5978-1.3432-1.3427.001-.7414.6015-1.3427 1.3428-1.3427h39.5378c.7411 0 1.3418.6015 1.3418 1.3427.0004.7448-.6015 1.3428-1.3418 1.3427zm13.5526 0h-6.0595c-.7412 0-1.3435-.5978-1.3435-1.3427.0012-.7414.6015-1.3427 1.3429-1.3427h6.0601c.7411 0 1.3422.6015 1.3422 1.3427 0 .7448-.6013 1.3428-1.3422 1.3427z"/><path id="_520522760" d="m29.7491 97.8548h-5.5356c-.7411 0-1.3432-.6014-1.3432-1.3427.001-.7414.6015-1.3427 1.3428-1.3427l5.536-.0002c.7443 0 1.3418.6016 1.3418 1.3429.0004.7412-.5979 1.3427-1.3418 1.3427zm47.5544 0h-40.0583c-.7442 0-1.3427-.6014-1.3427-1.3427.0005-.7414.5979-1.3427 1.3425-1.3427l40.0585-.0002c.7411 0 1.3422.6016 1.3422 1.3429 0 .7412-.6013 1.3427-1.3422 1.3427z"/><path id="_520523024" d="m47.012 114.209h-22.7985c-.7411 0-1.3432-.6013-1.3432-1.3426.001-.7414.6015-1.3427 1.3428-1.3427l22.7989-.0001c.7411 0 1.3422.6015 1.3422 1.3428s-.6017 1.3427-1.3422 1.3426zm30.2915 0h-22.7985c-.7411 0-1.343-.6013-1.343-1.3426.0008-.7414.6013-1.3427 1.3426-1.3427l22.7989-.0001c.7411 0 1.3422.6015 1.3422 1.3428s-.6013 1.3427-1.3422 1.3426z"/><path id="_520523096" d="m31.0913 101.327h4.8117v-9.6263h-4.8117zm6.1539 2.6856h-7.4961c-.7411 0-1.3436-.6015-1.3436-1.3428l.0014-12.3118c0-.7413.6001-1.3427 1.3414-1.3427h7.4969c.7427 0 1.3427.6015 1.3427 1.3428l.0012 12.3117c0 .7413-.6026 1.3428-1.3439 1.3428z"/><path id="_520522400" d="m65.0931 84.9729h4.8086v-9.6263h-4.8086zm6.1509 2.6856h-7.4931c-.7411 0-1.3437-.6014-1.3437-1.3427v-12.3118c0-.7413.6014-1.3427 1.3427-1.3427l7.4941-.0001c.7411 0 1.3419.6015 1.3419 1.3428l.0002 12.3117c0 .7413-.6014 1.3429-1.3421 1.3428z"/><path id="_520522256" d="m48.3542 117.677h4.8086v-9.6227h-4.8086zm6.1508 2.6855h-7.493c-.7412 0-1.3434-.5978-1.3434-1.3426l.0012-12.3084c0-.7448.6002-1.3427 1.3416-1.3427l7.4936-.0001c.7411 0 1.3424.5981 1.3424 1.3429l.0014 12.3083c0 .7448-.6029 1.3428-1.3438 1.3426z"/><path id="_520522112" d="m132.722 139.804h-121.22c-.7411 0-1.3428-.6014-1.3428-1.3427l.0006-103.526c0-.7411.6007-1.3425 1.342-1.3425l121.22-.0001c.7412 0 1.3422.6015 1.3422 1.3428l.0016 32.7148c0 .7413-.603 1.3428-1.3444 1.3428-.7406-.0001-1.3427-.6014-1.3427-1.3427l.001-31.3723h-118.534v100.84h118.534v-11.1229c0-.7412.6007-1.3425 1.3417-1.3425.7418-.0001 1.3428.6013 1.3428 1.3426l.0016 12.4656c0 .7413-.603 1.3428-1.3438 1.3428z"/></g></g><path d="m0 0h173.397v173.397h-173.397z" fill="none"/></svg>