<?xml version="1.0" encoding="UTF-8"?>
<svg version="1.1" xmlns="http://www.w3.org/2000/svg" width="100" height="100">
<path d="M0 0 C1.49164673 -0.00945648 1.49164673 -0.00945648 3.01342773 -0.019104 C4.09052002 -0.01505554 5.1676123 -0.01100708 6.27734375 -0.00683594 C7.37957275 -0.00874939 8.48180176 -0.01066284 9.61743164 -0.01263428 C11.95101143 -0.01399706 14.28459878 -0.01029416 16.61816406 -0.00195312 C20.20004222 0.00874485 23.78141878 -0.00184552 27.36328125 -0.01464844 C29.6263032 -0.01332686 31.88932483 -0.0107645 34.15234375 -0.00683594 C35.76798218 -0.01290863 35.76798218 -0.01290863 37.41625977 -0.019104 C38.41069092 -0.01279968 39.40512207 -0.00649536 40.4296875 0 C41.3074585 0.00159119 42.18522949 0.00318237 43.08959961 0.00482178 C45.21484375 0.25878906 45.21484375 0.25878906 47.21484375 2.25878906 C47.41315891 4.80767031 47.48762637 7.24789127 47.47363281 9.79785156 C47.47713745 10.57521667 47.48064209 11.35258179 47.48425293 12.15350342 C47.49307581 14.73035539 47.4872192 17.30693416 47.48046875 19.88378906 C47.48181524 21.66975965 47.48375564 23.45572989 47.48626709 25.24169922 C47.4892191 28.98766565 47.48491824 32.73353681 47.47558594 36.47949219 C47.46419134 41.28841739 47.47075041 46.09711937 47.48273087 50.90603638 C47.48994739 54.59482515 47.4876625 58.28356073 47.48247528 61.97235107 C47.48113821 63.74582953 47.48278851 65.51931277 47.48743439 67.29278564 C47.49249624 69.76856332 47.48479438 72.24397616 47.47363281 74.71972656 C47.47768127 75.457453 47.48172974 76.19517944 47.48590088 76.95526123 C47.44337253 82.03026028 47.44337253 82.03026028 45.21484375 84.25878906 C43.08959961 84.51275635 43.08959961 84.51275635 40.4296875 84.51757812 C39.43525635 84.52388245 38.4408252 84.53018677 37.41625977 84.53668213 C36.33916748 84.53263367 35.2620752 84.52858521 34.15234375 84.52441406 C33.05011475 84.52632751 31.94788574 84.52824097 30.81225586 84.5302124 C28.47867607 84.53157519 26.14508872 84.52787229 23.81152344 84.51953125 C20.22964528 84.50883327 16.64826872 84.51942364 13.06640625 84.53222656 C10.8033843 84.53090498 8.54036267 84.52834263 6.27734375 84.52441406 C5.20025146 84.52846252 4.12315918 84.53251099 3.01342773 84.53668213 C2.01899658 84.53037781 1.02456543 84.52407349 0 84.51757812 C-0.877771 84.51598694 -1.75554199 84.51439575 -2.65991211 84.51275635 C-4.78515625 84.25878906 -4.78515625 84.25878906 -6.78515625 82.25878906 C-6.98347141 79.70990782 -7.05793887 77.26968686 -7.04394531 74.71972656 C-7.04744995 73.94236145 -7.05095459 73.16499634 -7.05456543 72.36407471 C-7.06338831 69.78722274 -7.0575317 67.21064396 -7.05078125 64.63378906 C-7.05212774 62.84781847 -7.05406814 61.06184824 -7.05657959 59.27587891 C-7.0595316 55.52991247 -7.05523074 51.78404131 -7.04589844 48.03808594 C-7.03450384 43.22916073 -7.04106291 38.42045876 -7.05304337 33.61154175 C-7.06025989 29.92275298 -7.057975 26.2340174 -7.05278778 22.54522705 C-7.05145071 20.77174859 -7.05310101 18.99826536 -7.05774689 17.22479248 C-7.06280874 14.74901481 -7.05510688 12.27360196 -7.04394531 9.79785156 C-7.04799377 9.06012512 -7.05204224 8.32239868 -7.05621338 7.56231689 C-7.0063015 1.60622498 -5.95993266 0.01080392 0 0 Z M-3.78515625 4.25878906 C-3.78515625 6.56878906 -3.78515625 8.87878906 -3.78515625 11.25878906 C12.05484375 11.25878906 27.89484375 11.25878906 44.21484375 11.25878906 C44.21484375 8.94878906 44.21484375 6.63878906 44.21484375 4.25878906 C42.64184047 2.68578578 41.0780033 3.13153402 38.89453125 3.12939453 C37.97687988 3.12624237 37.05922852 3.12309021 36.11376953 3.11984253 C34.61692627 3.12287888 34.61692627 3.12287888 33.08984375 3.12597656 C31.56399658 3.12454147 31.56399658 3.12454147 30.00732422 3.12307739 C27.85188739 3.12239545 25.69644853 3.12425071 23.54101562 3.12841797 C20.22912004 3.13376601 16.91736008 3.12847343 13.60546875 3.12207031 C11.51692678 3.12273109 9.4283849 3.12401225 7.33984375 3.12597656 C6.34194824 3.12395233 5.34405273 3.1219281 4.31591797 3.11984253 C3.3982666 3.12299469 2.48061523 3.12614685 1.53515625 3.12939453 C0.72320801 3.13019012 -0.08874023 3.13098572 -0.92529297 3.13180542 C-2.80061378 3.05514717 -2.80061378 3.05514717 -3.78515625 4.25878906 Z M-3.78515625 15.25878906 C-3.78515625 33.07878906 -3.78515625 50.89878906 -3.78515625 69.25878906 C12.05484375 69.25878906 27.89484375 69.25878906 44.21484375 69.25878906 C44.21484375 51.43878906 44.21484375 33.61878906 44.21484375 15.25878906 C28.37484375 15.25878906 12.53484375 15.25878906 -3.78515625 15.25878906 Z M-3.78515625 73.25878906 C-3.78515625 75.56878906 -3.78515625 77.87878906 -3.78515625 80.25878906 C-2.21215297 81.83179234 -0.6483158 81.3860441 1.53515625 81.38818359 C2.45280762 81.39133575 3.37045898 81.39448792 4.31591797 81.3977356 C5.31381348 81.39571136 6.31170898 81.39368713 7.33984375 81.39160156 C8.86569092 81.39303665 8.86569092 81.39303665 10.42236328 81.39450073 C12.57780011 81.39518268 14.73323897 81.39332741 16.88867188 81.38916016 C20.20056746 81.38381212 23.51232742 81.38910469 26.82421875 81.39550781 C28.91276072 81.39484703 31.0013026 81.39356588 33.08984375 81.39160156 C34.58668701 81.39463791 34.58668701 81.39463791 36.11376953 81.3977356 C37.0314209 81.39458344 37.94907227 81.39143127 38.89453125 81.38818359 C39.70647949 81.387388 40.51842773 81.38659241 41.35498047 81.38577271 C43.23030128 81.46243096 43.23030128 81.46243096 44.21484375 80.25878906 C44.21484375 77.94878906 44.21484375 75.63878906 44.21484375 73.25878906 C28.37484375 73.25878906 12.53484375 73.25878906 -3.78515625 73.25878906 Z " fill="#000000" transform="translate(29.78515625,7.7412109375)"/>
<path d="M0 0 C1.20269531 -0.02578125 2.40539062 -0.0515625 3.64453125 -0.078125 C8.44260883 0.36623941 11.77839516 1.84089516 15.1875 5.25 C15.43606583 7.78348838 15.56382182 10.204072 15.59375 12.7421875 C15.60515015 13.48453644 15.61655029 14.22688538 15.6282959 14.99172974 C15.64719757 16.56360165 15.6602646 18.13555285 15.66796875 19.70751953 C15.68737727 22.10980953 15.74939384 24.50867086 15.8125 26.91015625 C15.82556141 28.43747967 15.83606184 29.96482758 15.84375 31.4921875 C15.8684436 32.20897675 15.89313721 32.92576599 15.9185791 33.66427612 C15.90039062 35.70654297 15.90039062 35.70654297 15.1875 39.25 C9.87943722 43.70048654 5.33681141 44.54308091 -1.359375 44.4765625 C-6.27821251 44.02227496 -11.27433736 42.78816264 -14.8125 39.25 C-15.04884823 36.71627161 -15.16471709 34.29515412 -15.18359375 31.7578125 C-15.19262222 31.01546356 -15.2016507 30.27311462 -15.21095276 29.50827026 C-15.22546964 27.93638144 -15.23434558 26.36443199 -15.23803711 24.79248047 C-15.249923 22.39056085 -15.29907744 19.99121985 -15.34960938 17.58984375 C-15.35907494 16.06251254 -15.36630934 14.53516555 -15.37109375 13.0078125 C-15.39062607 12.29102325 -15.41015839 11.57423401 -15.43028259 10.83572388 C-15.39645139 7.08424414 -15.11642962 5.56363387 -12.46508789 2.82763672 C-8.19914073 0.29044845 -4.89843067 0.06259975 0 0 Z M-8.8125 5.25 C-10.75571211 7.22343865 -10.75571211 7.22343865 -11.8125 9.25 C-9.11355147 12.20599125 -7.13995395 13.15167008 -3.0703125 13.453125 C-2.03648438 13.46859375 -1.00265625 13.4840625 0.0625 13.5 C1.09117188 13.52578125 2.11984375 13.5515625 3.1796875 13.578125 C6.61354242 13.20352264 8.48515438 12.38395558 11.1875 10.25 C11.51878694 7.26290339 11.51878694 7.26290339 9.75 5.625 C3.81460422 2.44015348 -2.66695559 2.66887135 -8.8125 5.25 Z M-11.8125 14.25 C-11.8125 16.56 -11.8125 18.87 -11.8125 21.25 C-3.89294789 24.17643157 2.2014549 24.97985238 10.25 22.1875 C10.889375 21.878125 11.52875 21.56875 12.1875 21.25 C12.1875 18.94 12.1875 16.63 12.1875 14.25 C11.445 14.58 10.7025 14.91 9.9375 15.25 C2.82274413 17.14726823 -4.99401154 17.28043931 -11.8125 14.25 Z M-11.8125 25.25 C-11.8125 26.9 -11.8125 28.55 -11.8125 30.25 C-3.89294789 33.17643157 2.2014549 33.97985238 10.25 31.1875 C10.889375 30.878125 11.52875 30.56875 12.1875 30.25 C12.1875 28.6 12.1875 26.95 12.1875 25.25 C11.445 25.415 10.7025 25.58 9.9375 25.75 C2.75844774 26.70720697 -4.71419402 26.82740133 -11.8125 25.25 Z M-11.8125 34.25 C-11.8125 35.24 -11.8125 36.23 -11.8125 37.25 C-5.84283628 40.43382065 -0.54006688 41.03791324 6.1875 40.25 C9.7438993 38.93796267 9.7438993 38.93796267 12.1875 37.25 C12.1875 36.26 12.1875 35.27 12.1875 34.25 C11.506875 34.41242187 10.82625 34.57484375 10.125 34.7421875 C6.76473003 35.32308523 3.59699785 35.38234806 0.1875 35.375 C-1.00875 35.37757812 -2.205 35.38015625 -3.4375 35.3828125 C-6.36577693 35.26757938 -8.97036976 34.92823563 -11.8125 34.25 Z " fill="#000000" transform="translate(49.8125,26.75)"/>
</svg>
