<?xml version="1.0" encoding="UTF-8"?>
<svg version="1.1" xmlns="http://www.w3.org/2000/svg" width="100" height="100">
<path d="M0 0 C0.89589844 -0.01417969 1.79179688 -0.02835937 2.71484375 -0.04296875 C5.0625 0.1875 5.0625 0.1875 7.0625 2.1875 C7.0625 3.5075 7.0625 4.8275 7.0625 6.1875 C9.83127729 6.26660792 11.87007648 6.25657511 14.5 5.3125 C17.0625 5.1875 17.0625 5.1875 18.7109375 6.28125 C21.38106685 8.73827044 22.92000076 10.29179046 23.5 13.9375 C23.0625 16.1875 23.0625 16.1875 22.0625 18.1875 C23.99504772 20.2120738 25.69408688 21.60855792 28.0625 23.1875 C28.35546875 25.7890625 28.35546875 25.7890625 28.25 28.8125 C28.20939453 30.31683594 28.20939453 30.31683594 28.16796875 31.8515625 C28.13316406 32.62242188 28.09835938 33.39328125 28.0625 34.1875 C26.0825 34.8475 24.1025 35.5075 22.0625 36.1875 C22.21589844 36.83976562 22.36929688 37.49203125 22.52734375 38.1640625 C23.74761787 45.00163153 23.74761787 45.00163153 21.88671875 48.22265625 C19.26102019 50.77592175 17.30340806 52.11888739 13.58984375 52.32421875 C11.35531902 52.08695543 9.24131988 51.73096981 7.0625 51.1875 C6.876875 52.3940625 6.876875 52.3940625 6.6875 53.625 C6.48125 54.470625 6.275 55.31625 6.0625 56.1875 C2.88387696 57.77681152 -0.47661302 57.59091627 -3.9375 57.1875 C-5.9375 55.875 -5.9375 55.875 -6.9375 54.1875 C-6.9375 53.1975 -6.9375 52.2075 -6.9375 51.1875 C-7.50597656 51.32929687 -8.07445313 51.47109375 -8.66015625 51.6171875 C-12.13394522 52.27830927 -14.80965957 52.65994653 -18.12890625 51.26953125 C-20.29291799 49.70881975 -21.59878171 48.50468348 -22.9375 46.1875 C-23.21207057 42.70097186 -22.73542422 39.58035426 -21.9375 36.1875 C-23.9175 35.5275 -25.8975 34.8675 -27.9375 34.1875 C-28.22074731 30.48010742 -28.39754271 26.88427177 -27.9375 23.1875 C-25.5 21.1875 -25.5 21.1875 -22.9375 20.1875 C-22.6075 19.1975 -22.2775 18.2075 -21.9375 17.1875 C-22.2675 16.8575 -22.5975 16.5275 -22.9375 16.1875 C-23.4696761 13.52661952 -23.32250697 11.84946851 -21.94921875 9.48828125 C-20.3722811 7.58262984 -19.11582606 6.37877206 -16.9375 5.1875 C-13.4790898 4.98164225 -10.31355514 5.45357497 -6.9375 6.1875 C-6.793125 5.383125 -6.64875 4.57875 -6.5 3.75 C-5.55549947 -0.55272464 -4.11232018 0.02950014 0 0 Z M-2.9375 3.1875 C-3.123125 3.97125 -3.30875 4.755 -3.5 5.5625 C-4.9375 8.1875 -4.9375 8.1875 -8.3125 9.5625 C-11.46174263 10.10547287 -13.04136106 10.34595557 -15.9375 9.1875 C-18.12661155 11.31784253 -18.12661155 11.31784253 -19.9375 14.1875 C-19.69087759 17.25064844 -19.69087759 17.25064844 -18.9375 20.1875 C-19.375 22.5625 -19.375 22.5625 -19.9375 24.1875 C-21.5875 24.5175 -23.2375 24.8475 -24.9375 25.1875 C-24.9375 27.4975 -24.9375 29.8075 -24.9375 32.1875 C-23.2875 32.5175 -21.6375 32.8475 -19.9375 33.1875 C-18.8125 40.8125 -18.8125 40.8125 -19.9375 44.1875 C-18.33545381 46.37462805 -18.33545381 46.37462805 -15.9375 48.1875 C-12.96684491 47.84522428 -12.96684491 47.84522428 -9.9375 47.1875 C-7.1875 47.8125 -7.1875 47.8125 -4.9375 49.1875 C-3.625 51.8125 -3.625 51.8125 -2.9375 54.1875 C-0.9575 54.1875 1.0225 54.1875 3.0625 54.1875 C3.248125 53.40375 3.43375 52.62 3.625 51.8125 C5.0625 49.1875 5.0625 49.1875 8.4375 47.8125 C11.58674263 47.26952713 13.16636106 47.02904443 16.0625 48.1875 C18.25161155 46.05715747 18.25161155 46.05715747 20.0625 43.1875 C19.81587759 40.12435156 19.81587759 40.12435156 19.0625 37.1875 C19.5 34.8125 19.5 34.8125 20.0625 33.1875 C21.7125 32.8575 23.3625 32.5275 25.0625 32.1875 C25.0625 29.8775 25.0625 27.5675 25.0625 25.1875 C23.4125 24.8575 21.7625 24.5275 20.0625 24.1875 C18.9375 16.5625 18.9375 16.5625 20.0625 13.1875 C18.46045381 11.00037195 18.46045381 11.00037195 16.0625 9.1875 C13.09184491 9.52977572 13.09184491 9.52977572 10.0625 10.1875 C7.3125 9.5625 7.3125 9.5625 5.0625 8.1875 C3.75 5.5625 3.75 5.5625 3.0625 3.1875 C1.0825 3.1875 -0.8975 3.1875 -2.9375 3.1875 Z " fill="#000000" transform="translate(49.9375,5.8125)"/>
<path d="M0 0 C4.31586588 2.25134995 6.77837016 5.01377157 8.9296875 9.31640625 C10.41422212 14.67601286 10.08185236 19.13164545 7.9296875 24.31640625 C3.76271844 29.40936843 -0.38498343 32.01322394 -6.9453125 32.75390625 C-11.59289222 32.54912783 -15.29821883 31.0012002 -19.0703125 28.31640625 C-23.15528315 23.81246426 -24.31278553 19.27720168 -24.0703125 13.31640625 C-22.91219815 7.10267736 -20.20261646 3.84486522 -15.0703125 0.31640625 C-10.21665609 -1.30147922 -4.91398121 -1.62254097 0 0 Z M-17.0703125 6.31640625 C-20.23158581 10.00455844 -20.59806024 13.39569348 -20.41796875 18.1015625 C-19.86006654 21.65583839 -18.45926139 23.67598905 -16.0703125 26.31640625 C-11.62579597 29.52059258 -8.24627475 29.51983058 -3.0234375 28.93359375 C-0.6866826 28.4193901 -0.6866826 28.4193901 0.9296875 25.31640625 C0.29160156 24.82914063 -0.34648438 24.341875 -1.00390625 23.83984375 C-5.04482706 20.372595 -7.71596787 17.92108123 -8.890625 12.6015625 C-9.10786799 9.15020211 -9.19318355 5.77154008 -9.0703125 2.31640625 C-12.45477675 2.31640625 -14.43943357 4.3298242 -17.0703125 6.31640625 Z M-5.0703125 2.31640625 C-5.0703125 6.27640625 -5.0703125 10.23640625 -5.0703125 14.31640625 C-1.4403125 14.31640625 2.1896875 14.31640625 5.9296875 14.31640625 C4.93397367 9.33783712 4.39361541 7.78033416 0.9296875 4.31640625 C-2.19164994 2.96867722 -2.19164994 2.96867722 -5.0703125 2.31640625 Z M-2.0703125 17.31640625 C-0.4203125 19.29640625 1.2296875 21.27640625 2.9296875 23.31640625 C4.49218559 22.00439452 4.49218559 22.00439452 5.9296875 20.31640625 C5.9296875 19.32640625 5.9296875 18.33640625 5.9296875 17.31640625 C3.2896875 17.31640625 0.6496875 17.31640625 -2.0703125 17.31640625 Z " fill="#000000" transform="translate(57.0703125,18.68359375)"/>
<path d="M0 0 C2.16015625 0.47265625 2.16015625 0.47265625 5.22265625 2.41015625 C7.85382494 6.56910031 7.56238803 9.69950579 7.16015625 14.47265625 C7.16015625 15.46265625 7.16015625 16.45265625 7.16015625 17.47265625 C9.13336678 18.84532445 11.13558777 20.17693242 13.16015625 21.47265625 C15.16015625 24.47265625 15.16015625 24.47265625 15.16015625 38.47265625 C3.61015625 38.47265625 -7.93984375 38.47265625 -19.83984375 38.47265625 C-19.83984375 25.47265625 -19.83984375 25.47265625 -16.83984375 20.47265625 C-13.65234375 18.66015625 -13.65234375 18.66015625 -10.83984375 17.47265625 C-11.00484375 16.97765625 -11.16984375 16.48265625 -11.33984375 15.97265625 C-12.40541071 10.64482145 -12.85826563 7.04956755 -9.90234375 2.47265625 C-6.33177529 0.14085644 -4.19482315 -0.2731187 0 0 Z M-7.21484375 5.03515625 C-9.15475306 7.46992239 -9.15475306 7.46992239 -8.90234375 10.97265625 C-7.67192112 15.02581316 -6.34861132 16.22344627 -2.83984375 18.47265625 C0.42476598 16.66852982 2.0494542 15.63870932 4.16015625 12.47265625 C4.66015625 9.47265625 4.66015625 9.47265625 4.16015625 6.47265625 C2.07656418 4.15755395 0.71580397 3.5698946 -2.33984375 3.03515625 C-4.95318579 3.32184558 -4.95318579 3.32184558 -7.21484375 5.03515625 Z M-14.83984375 23.47265625 C-17.86531748 27.36255104 -16.83984375 30.02676111 -16.83984375 35.47265625 C-7.26984375 35.47265625 2.30015625 35.47265625 12.16015625 35.47265625 C13.00994948 27.10195389 13.00994948 27.10195389 10.09765625 23.47265625 C6.53549946 21.04735801 4.45798314 20.68402479 0.16015625 20.47265625 C-0.66355469 20.42238281 -1.48726562 20.37210938 -2.3359375 20.3203125 C-7.28382689 20.13651275 -10.93365992 20.0547454 -14.83984375 23.47265625 Z " fill="#000000" transform="translate(25.83984375,55.52734375)"/>
<path d="M0 0 C2.50160818 1.87620613 3.61945652 3.23891303 5 6 C5.1421988 9.83936768 5.17754676 13.32016639 4 17 C5.670625 17.86625 5.670625 17.86625 7.375 18.75 C10.85283042 20.55331947 11.06863537 21.13727075 13 25 C13 29.29 13 33.58 13 38 C1.45 38 -10.1 38 -22 38 C-22 24 -22 24 -18 19 C-15.25 17.1875 -15.25 17.1875 -13 16 C-13.33 15.34 -13.66 14.68 -14 14 C-14.6469176 9.2959849 -14.63833677 6.00898393 -12.0625 1.9375 C-7.98166529 -0.64425257 -4.7134042 -0.97792124 0 0 Z M-11 6 C-11.67349945 9.87262186 -11.32576965 11.49449536 -9.1875 14.8125 C-7.11646187 17.20963137 -7.11646187 17.20963137 -4 18 C-0.32525829 15.90014759 0.82284689 14.58356317 2.0625 10.5 C2.31490931 6.99726614 2.31490931 6.99726614 0.375 4.5625 C-3.89093284 1.75596523 -7.55144932 2.16827703 -11 6 Z M-18 24 C-19.67082039 26.96896279 -19.67082039 26.96896279 -19 35 C-9.43 35 0.14 35 10 35 C10.39047234 27.46835961 10.39047234 27.46835961 7 22 C3.37865483 19.56288619 -0.09558143 19.66770877 -4.375 19.625 C-6.30472656 19.58246094 -6.30472656 19.58246094 -8.2734375 19.5390625 C-12.55500878 20.06864888 -14.67946214 21.301436 -18 24 Z " fill="#000000" transform="translate(81,56)"/>
<path d="M0 0 C1.98 0.66 3.96 1.32 6 2 C5.67 3.32 5.34 4.64 5 6 C3.35 6.33 1.7 6.66 0 7 C0 6.34 0 5.68 0 5 C-5.28 5 -10.56 5 -16 5 C-16 4.01 -16 3.02 -16 2 C-10.72 2 -5.44 2 0 2 C0 1.34 0 0.68 0 0 Z " fill="#000000" transform="translate(55,72)"/>
<path d="M0 0 C0 0.66 0 1.32 0 2 C5.28 2 10.56 2 16 2 C16 2.99 16 3.98 16 5 C10.72 5 5.44 5 0 5 C0 5.66 0 6.32 0 7 C-1.98 6.34 -3.96 5.68 -6 5 C-6 4.01 -6 3.02 -6 2 C-3 0 -3 0 0 0 Z " fill="#000000" transform="translate(45,64)"/>
</svg>
