<?xml version="1.0" encoding="UTF-8"?>
<svg version="1.1" xmlns="http://www.w3.org/2000/svg" width="100" height="100">
<path d="M0 0 C25.74 0 51.48 0 78 0 C78.33 6.6 78.66 13.2 79 20 C80.46790436 23.99120503 80.46790436 23.99120503 82.8125 24.8125 C85.38764878 25.03322704 87.50222685 24.62444329 90 24 C91.65173755 27.49779716 92.22700539 29.31898383 91 33 C91 33.99 91 34.98 91 36 C92.65 36 94.3 36 96 36 C96 37.98 96 39.96 96 42 C94.35 42.33 92.7 42.66 91 43 C91 43.9075 91 44.815 91 45.75 C91 48.16666667 91 50.58333333 91 53 C90.01 53.66 89.02 54.32 88 55 C87.13375 54.4740625 87.13375 54.4740625 86.25 53.9375 C83.75979645 52.63716826 83.75979645 52.63716826 80 54 C79.34 57.96 78.68 61.92 78 66 C52.26 66 26.52 66 0 66 C0 44.22 0 22.44 0 0 Z M3 2 C3 5.3 3 8.6 3 12 C26.76 12 50.52 12 75 12 C75 8.7 75 5.4 75 2 C51.24 2 27.48 2 3 2 Z M3 15 C3 31.17 3 47.34 3 64 C26.76 64 50.52 64 75 64 C75.03887869 58.64032696 75.03887869 58.64032696 73 54 C70.69464365 52.42776606 70.69464365 52.42776606 68 52 C65.7142289 52.76603959 65.7142289 52.76603959 64 54 C61.88903567 50.52311757 61.88903567 50.52311757 62.4375 47.9375 C62.7159375 46.9784375 62.7159375 46.9784375 63 46 C62.505 44.515 62.505 44.515 62 43 C60.35 42.67 58.7 42.34 57 42 C57 40.02 57 38.04 57 36 C58.65 36 60.3 36 62 36 C62.74926071 32.33694766 63.2380014 29.57644848 62 26 C65.01031744 25.06576355 65.86650268 24.95550089 69 26 C71.54489195 25.15170268 72.72104193 24.4044892 74.25 22.1875 C75.27027027 19.59712838 75.27027027 19.59712838 75 15 C51.24 15 27.48 15 3 15 Z M76 23 C76 24.32 76 25.64 76 27 C72.66666667 27.66666667 69.33333333 28.33333333 66 29 C65.7834375 30.0828125 65.7834375 30.0828125 65.5625 31.1875 C65.04166667 33.79166667 64.52083333 36.39583333 64 39 C62.68 39.33 61.36 39.66 60 40 C61.32 40 62.64 40 64 40 C64.48828125 42.01822917 64.9765625 44.03645833 65.46484375 46.0546875 C65.94846992 48.0585657 65.94846992 48.0585657 67 50 C68.65391846 50.39171753 70.32345271 50.72057545 72 51 C75 52 75 52 76.1875 54.0625 C76.455625 54.701875 76.72375 55.34125 77 56 C77.08507812 55.36578125 77.17015625 54.7315625 77.2578125 54.078125 C77.50273438 53.39234375 77.74765625 52.7065625 78 52 C79.7421875 51.234375 79.7421875 51.234375 81.875 50.75 C85.10485759 49.73989945 85.10485759 49.73989945 87.0546875 47.10546875 C87.51148108 45.68119663 87.9433824 44.2486542 88.34765625 42.80859375 C89 41 89 41 91.1875 39.5 C92.0846875 39.2525 92.0846875 39.2525 93 39 C91.68 39 90.36 39 89 39 C88.34 35.7 87.68 32.4 87 29 C84.525 28.505 84.525 28.505 82 28 C80.33333333 27.66666667 78.66666667 27.33333333 77 27 C76.67 25.68 76.34 24.36 76 23 Z " fill="#000000" transform="translate(2,17)"/>
<path d="M0 0 C2.64 0 5.28 0 8 0 C8 1.32 8 2.64 8 4 C16.25 4 24.5 4 33 4 C32.67 4.99 32.34 5.98 32 7 C24.08 7 16.16 7 8 7 C8 7.99 8 8.98 8 10 C5.36 10 2.72 10 0 10 C0 9.01 0 8.02 0 7 C-0.99 6.67 -1.98 6.34 -3 6 C-3 5.34 -3 4.68 -3 4 C-2.01 4 -1.02 4 0 4 C0 2.68 0 1.36 0 0 Z M3 3 C3 4.32 3 5.64 3 7 C3.66 7 4.32 7 5 7 C5 5.68 5 4.36 5 3 C4.34 3 3.68 3 3 3 Z " fill="#000000" transform="translate(13,51)"/>
<path d="M0 0 C2.31 0 4.62 0 7 0 C7.33 1.32 7.66 2.64 8 4 C12.62 4 17.24 4 22 4 C21.67 4.99 21.34 5.98 21 7 C16.71 7 12.42 7 8 7 C8 7.99 8 8.98 8 10 C5.36 10 2.72 10 0 10 C0 9.01 0 8.02 0 7 C-4.62 7 -9.24 7 -14 7 C-14 6.01 -14 5.02 -14 4 C-9.38 4 -4.76 4 0 4 C0 2.68 0 1.36 0 0 Z M3 3 C3 4.65 3 6.3 3 8 C3.66 8 4.32 8 5 8 C5 6.35 5 4.7 5 3 C4.34 3 3.68 3 3 3 Z " fill="#000000" transform="translate(24,61)"/>
<path d="M0 0 C3.5 0.8125 3.5 0.8125 5.4375 1.875 C7.19366901 5.07742585 7.12026592 8.30940726 6.5 11.8125 C4.9375 14.3125 4.9375 14.3125 2.5 15.8125 C-1.15973254 16.26996657 -3.52604821 16.27384558 -6.875 14.6875 C-9.14943318 12.06315402 -9.43096951 10.26402438 -9.5 6.8125 C-7.36999687 2.12649312 -5.40760772 -0.28969327 0 0 Z M-5.5 4.8125 C-6.50478037 6.6647367 -6.50478037 6.6647367 -6.5 8.8125 C-5.49033641 11.15876504 -5.49033641 11.15876504 -3.5 12.8125 C-0.95741537 13.31264953 -0.95741537 13.31264953 1.5 12.8125 C3.72966747 10.99046419 3.72966747 10.99046419 3.8125 8.375 C3.7071948 5.79074934 3.7071948 5.79074934 2.1875 4 C-0.9740135 1.77523124 -2.44422787 2.77531858 -5.5 4.8125 Z " fill="#000000" transform="translate(79.5,48.1875)"/>
<path d="M0 0 C2.64 0 5.28 0 8 0 C8 1.32 8 2.64 8 4 C9.32 4 10.64 4 12 4 C12 4.66 12 5.32 12 6 C10.68 6 9.36 6 8 6 C8 7.32 8 8.64 8 10 C5.36 10 2.72 10 0 10 C0 8.68 0 7.36 0 6 C-7.92 6 -15.84 6 -24 6 C-24 5.34 -24 4.68 -24 4 C-16.08 4 -8.16 4 0 4 C0 2.68 0 1.36 0 0 Z M3 3 C3 4.32 3 5.64 3 7 C3.66 7 4.32 7 5 7 C5 5.68 5 4.36 5 3 C4.34 3 3.68 3 3 3 Z " fill="#000000" transform="translate(34,41)"/>
<path d="M0 0 C11.55 0 23.1 0 35 0 C35 0.99 35 1.98 35 3 C23.45 3 11.9 3 0 3 C0 2.01 0 1.02 0 0 Z " fill="#000000" transform="translate(12,23)"/>
<path d="M0 0 C2.5 -0.3125 2.5 -0.3125 5 0 C5.66 0.66 6.32 1.32 7 2 C6.44444444 6.55555556 6.44444444 6.55555556 5 8 C3.33382885 8.04063832 1.66611905 8.042721 0 8 C-1.125 5.6875 -1.125 5.6875 -2 3 C-1.34 2.01 -0.68 1.02 0 0 Z M2 3 C2 3.66 2 4.32 2 5 C2.66 4.67 3.32 4.34 4 4 C3.34 3.67 2.68 3.34 2 3 Z " fill="#000000" transform="translate(53,20)"/>
<path d="M0 0 C2.4375 0.1875 2.4375 0.1875 3.4375 1.1875 C3.5625 4.1875 3.5625 4.1875 3.4375 7.1875 C2.4375 8.1875 2.4375 8.1875 -0.5625 8.3125 C-3.5625 8.1875 -3.5625 8.1875 -4.5625 7.1875 C-4.75 4.75 -4.75 4.75 -4.5625 2.1875 C-2.5625 0.1875 -2.5625 0.1875 0 0 Z M-1.5625 3.1875 C-1.5625 3.8475 -1.5625 4.5075 -1.5625 5.1875 C-0.9025 5.1875 -0.2425 5.1875 0.4375 5.1875 C0.4375 4.5275 0.4375 3.8675 0.4375 3.1875 C-0.2225 3.1875 -0.8825 3.1875 -1.5625 3.1875 Z " fill="#000000" transform="translate(66.5625,19.8125)"/>
</svg>
