<svg id="Layer_2" height="512" viewBox="0 0 60 60" width="512" xmlns="http://www.w3.org/2000/svg"><path d="m36.36 15.63c.2.2.45.29.71.29s.51-.1.71-.29c.39-.39.39-1.02 0-1.41-4.29-4.29-11.27-4.29-15.56 0-.39.39-.39 1.02 0 1.41s1.02.39 1.41 0c3.52-3.51 9.22-3.51 12.73 0z"/><path d="m26.46 18.46c.95-.94 2.2-1.46 3.54-1.46s2.59.52 3.54 1.46c.2.2.45.29.71.29s.51-.1.71-.29c.39-.39.39-1.02 0-1.41-1.33-1.33-3.09-2.05-4.96-2.05s-3.63.73-4.95 2.05c-.39.39-.39 1.02 0 1.41s1.02.39 1.41 0z"/><path d="m29.29 21.29c.38-.38 1.04-.38 1.41 0 .2.2.45.29.71.29s.51-.1.71-.29c.39-.39.39-1.02 0-1.41-1.17-1.17-3.07-1.17-4.24 0-.39.39-.39 1.02 0 1.41s1.02.39 1.41 0z"/><path d="m6.27 48.68c.19.2.45.32.73.32h20c.28 0 .54-.12.73-.32s.28-.48.26-.76l-.18-2.33c-.2-2.56-1.42-4.94-3.45-6.69-.88-.76-1.88-1.37-2.97-1.82-.02-.01-.04 0-.06-.01-.07-.02-.13-.03-.2-.04-.06-.01-.12-.02-.18-.01-.07 0-.13.02-.19.04s-.12.03-.17.05c-.06.03-.1.07-.15.1-.06.04-.11.08-.16.13-.01.01-.03.02-.04.04-.75.94-1.96 1.5-3.23 1.5s-2.49-.56-3.23-1.5c-.01-.02-.03-.02-.04-.04-.05-.05-.11-.1-.16-.14-.05-.03-.09-.07-.14-.1-.06-.03-.13-.04-.19-.06-.06-.01-.11-.03-.17-.04-.06 0-.13.01-.19.02-.07.01-.13.02-.19.04-.02.01-.04 0-.06.01-3.67 1.51-6.13 4.77-6.42 8.51l-.22 2.34c-.02.28.08.55.27.76zm1.91-2.94c.21-2.77 1.96-5.21 4.58-6.52 1.11 1.04 2.64 1.65 4.24 1.65 1.59 0 3.12-.61 4.23-1.65.65.33 1.27.7 1.82 1.18 1.63 1.4 2.61 3.3 2.77 5.34l.1 1.26h-17.84z"/><path d="m17 35.86c3.31 0 6-2.69 6-6s-2.69-6-6-6-6 2.69-6 6 2.69 6 6 6zm0-10c2.21 0 4 1.79 4 4s-1.79 4-4 4-4-1.79-4-4 1.79-4 4-4z"/><path d="m53.73 48.68c.19-.2.28-.48.26-.76l-.18-2.33c-.2-2.56-1.42-4.94-3.45-6.69-.88-.76-1.88-1.37-2.97-1.82-.02-.01-.04 0-.06-.01-.07-.02-.14-.03-.21-.04-.06-.01-.12-.02-.18-.01-.07 0-.13.02-.19.04s-.12.03-.17.05c-.06.03-.1.07-.15.1-.06.04-.11.08-.16.13-.01.01-.03.02-.04.04-.75.94-1.96 1.5-3.23 1.5s-2.49-.56-3.23-1.5c-.01-.02-.03-.02-.04-.04-.05-.05-.11-.1-.16-.14-.05-.03-.09-.07-.14-.1-.06-.03-.13-.04-.19-.06-.06-.01-.11-.03-.17-.04-.06 0-.13.01-.19.02-.07.01-.13.02-.2.04-.02.01-.04 0-.06.01-3.67 1.51-6.13 4.77-6.42 8.51l-.2 2.34c-.02.28.07.55.26.76.2.2.46.32.74.32h20c.28 0 .54-.12.73-.32zm-19.65-1.68.1-1.26c.21-2.77 1.96-5.21 4.58-6.52 1.11 1.04 2.64 1.65 4.24 1.65 1.59 0 3.12-.61 4.23-1.65.65.33 1.27.7 1.82 1.18 1.63 1.4 2.61 3.3 2.77 5.34l.1 1.26z"/><path d="m37 29.86c0 3.31 2.69 6 6 6s6-2.69 6-6-2.69-6-6-6-6 2.69-6 6zm10 0c0 2.21-1.79 4-4 4s-4-1.79-4-4 1.79-4 4-4 4 1.79 4 4z"/></svg>