<?xml version="1.0" encoding="utf-8"?>
<!-- Generator: Adobe Illustrator 27.5.0, SVG Export Plug-In . SVG Version: 6.00 Build 0)  -->
<svg version="1.1" xmlns="http://www.w3.org/2000/svg" xmlns:xlink="http://www.w3.org/1999/xlink" x="0px" y="0px"
	 viewBox="0 0 750 500" style="enable-background:new 0 0 750 500;" xml:space="preserve">
<g id="BACKGROUND">
	<rect style="fill:#FFFFFF;" width="750" height="500"/>
</g>
<g id="OBJECTS">
	<g>
		<g>
			<path style="fill:#DBDFFF;" d="M342.271,410.084c-3.994,18.284-9.848,29.997-9.848,29.997h117.095c0,0-5.853-11.713-9.848-29.997
				H342.271z"/>
			<path style="fill:#B7C2FB;" d="M442.763,422.463c-1.067-3.817-2.134-7.988-3.093-12.379h-97.4
				c-0.959,4.391-2.026,8.561-3.093,12.379H442.763z"/>
			<path style="fill:#6252D7;" d="M462.865,440.081H319.076c-5.256,0-9.517,4.501-9.517,10.053l0,0h162.824l0,0
				C472.383,444.582,468.121,440.081,462.865,440.081z"/>
			<path style="fill:#DBDFFF;" d="M571.964,410.084H209.978c-5.595,0-10.131-4.536-10.131-10.131v-261.29
				c0-5.595,4.536-10.131,10.131-10.131h361.986c5.595,0,10.131,4.536,10.131,10.131v261.29
				C582.094,405.548,577.559,410.084,571.964,410.084z"/>
			<path style="fill:#BFC3CE;" d="M571.964,410.084H209.978c-5.595,0-10.131-4.536-10.131-10.131v-42.724h382.247v42.724
				C582.094,405.548,577.559,410.084,571.964,410.084z"/>
			<path style="fill:#6252D7;" d="M571.964,410.084H209.978c-5.595,0-10.131-4.536-10.131-10.131v-42.724h382.247v42.724
				C582.094,405.548,577.559,410.084,571.964,410.084z"/>
			<path style="fill:#0F1E36;" d="M534.203,357.229v52.855h37.761c5.595,0,10.131-4.536,10.131-10.131v-42.724H534.203z"/>
			
				<rect x="289.399" y="65.556" transform="matrix(-1.836970e-16 1 -1 -1.836970e-16 634.3642 -147.5789)" style="fill:#FFFFFF;" width="203.145" height="355.673"/>
		</g>
	</g>
	<g>
		<path style="fill:#6252D7;" d="M531.36,114.472c1.039,0,1.972-0.634,2.359-1.598c1.198-2.992,1.857-6.258,1.857-9.678
			c0-13.721-10.61-24.961-24.074-25.971c-1.061-0.08-1.953-0.821-2.229-1.849c-2.979-11.105-13.11-19.282-25.155-19.282
			c-10.526,0-19.587,6.246-23.695,15.231c-0.549,1.201-1.898,1.828-3.139,1.378c-2.314-0.838-4.804-1.304-7.407-1.304
			c-12.121,0-21.947,9.826-21.947,21.947c0,0.234,0.005,0.467,0.013,0.699c0.038,1.045-0.607,1.979-1.57,2.386
			c-6.078,2.567-10.345,8.578-10.345,15.59l0,0c0.001,1.354,1.099,2.451,2.453,2.451H531.36z"/>
		<path style="fill:none;stroke:#94A0FF;stroke-width:1.4173;stroke-miterlimit:10;stroke-dasharray:2,3;" d="M409.048,91.013
			H274.502c-4.439,0-8.038,3.599-8.038,8.038v18.693"/>
		<path style="fill:#FFFFFF;" d="M514.571,101.948l-8.786-11.517c-1.01-1.324-3.004-1.324-4.014,0l-8.786,11.517
			c-1.017,1.334-0.066,3.255,1.611,3.255h2.163c0.756,0,1.368,0.612,1.368,1.368v10.224c0,1.394,1.13,2.524,2.524,2.524h6.253
			c1.394,0,2.524-1.13,2.524-2.524v-10.224c0-0.756,0.612-1.368,1.368-1.368h2.163C514.638,105.203,515.589,103.281,514.571,101.948
			z"/>
	</g>
	<path style="fill:#6252D7;" d="M177.505,374.307v-19.95c0-2.261-1.833-4.094-4.094-4.094h-4.531c-1.781,0-3.343-1.156-3.894-2.849
		c-0.883-2.716-1.977-5.357-3.273-7.902c-0.808-1.587-0.52-3.509,0.739-4.769l3.204-3.203c1.599-1.599,1.599-4.191,0-5.79
		l-14.108-14.108c-1.599-1.599-4.191-1.599-5.79,0l-3.203,3.203c-1.259,1.259-3.181,1.547-4.769,0.739
		c-2.546-1.296-5.187-2.39-7.904-3.274c-1.694-0.551-2.849-2.113-2.849-3.894v-4.53c0-2.261-1.833-4.094-4.094-4.094h-19.95
		c-2.261,0-4.094,1.833-4.094,4.094v4.53c0,1.781-1.156,3.344-2.849,3.894c-2.716,0.883-5.356,1.977-7.9,3.273
		c-1.587,0.808-3.509,0.521-4.769-0.739l-3.203-3.203c-1.599-1.599-4.191-1.599-5.79,0L60.275,325.75
		c-1.599,1.599-1.599,4.191,0,5.79l3.203,3.202c1.259,1.259,1.547,3.182,0.739,4.769c-1.296,2.545-2.39,5.186-3.273,7.903
		c-0.551,1.694-2.113,2.849-3.894,2.849H52.52c-2.261,0-4.094,1.833-4.094,4.094v19.95c0,2.261,1.833,4.094,4.094,4.094h4.529
		c1.781,0,3.344,1.156,3.894,2.849c0.883,2.716,1.977,5.357,3.273,7.902c0.808,1.587,0.521,3.509-0.739,4.769l-3.203,3.203
		c-1.599,1.599-1.599,4.191,0,5.79l14.107,14.107c1.599,1.599,4.191,1.599,5.79,0l3.203-3.203c1.259-1.259,3.181-1.547,4.769-0.739
		c2.545,1.296,5.185,2.39,7.901,3.273c1.694,0.551,2.849,2.113,2.849,3.894v4.53c0,2.261,1.833,4.094,4.094,4.094h19.95
		c2.261,0,4.094-1.833,4.094-4.094v-4.53c0-1.781,1.156-3.344,2.849-3.894c2.717-0.883,5.358-1.977,7.904-3.274
		c1.587-0.808,3.509-0.52,4.769,0.739l3.203,3.203c1.599,1.599,4.191,1.599,5.79,0l14.108-14.107c1.599-1.599,1.599-4.191,0-5.79
		l-3.204-3.204c-1.259-1.259-1.547-3.181-0.739-4.768c1.296-2.545,2.39-5.186,3.273-7.902c0.551-1.694,2.113-2.849,3.894-2.849
		h4.531C175.672,378.402,177.505,376.569,177.505,374.307z M138.724,390.367L138.724,390.367
		c-6.832,6.832-16.097,10.67-25.759,10.67l0,0c-9.662,0-18.927-3.839-25.759-10.67l0,0c-6.832-6.831-10.67-16.098-10.67-25.759l0,0
		c0-9.661,3.839-18.927,10.67-25.759v0c6.832-6.832,16.097-10.67,25.759-10.67l0,0c9.661,0,18.927,3.838,25.759,10.67v0
		c6.831,6.832,10.67,16.098,10.67,25.759l0,0C149.394,374.27,145.555,383.536,138.724,390.367z"/>
	<g>
		<g>
			<g>
				<path style="fill:#FEC1B2;" d="M175.244,424.585c1.216,0.121,7.278-0.073,9.37,0.098c0,0-0.453,8.538,0.225,10.62
					c1.363,4.188,7.044,9.804,7.044,9.804s-0.704,2.578-9.284,1.18c-5.59-0.911-7.915-0.173-7.915-0.173
					C176.015,442.401,175.781,433.207,175.244,424.585z"/>
				<path style="fill:#0F1E36;" d="M174.567,443.379c-0.627,2.808-1.182,5.937-0.688,6.47h21.563
					c0.621-0.354-1.852-3.557-4.296-6.47H174.567z"/>
			</g>
		</g>
		<path style="fill:#0F1E36;" d="M161.409,324.195c0,0,5.065,45.856,5.512,53.34c0.447,7.484,7.977,59.794,7.977,59.794
			s11.164,0.255,11.164,0c0-0.255,2.425-59.132,3.789-77.574c0.849-11.476,1.53-33.186,0-47.528
			c-0.929-8.705-1.298-24.08-1.298-24.08l-16.945,4.495L161.409,324.195z"/>
		<g>
			<g>
				<path style="fill:#FEC1B2;" d="M152.182,438.623c-0.499-1.533-1.356-6.244-1.284-10.582h-8.253
					c-0.093,7.713-1.371,15.913-1.577,16.553c0,0,1.706,0.782,7.296,1.694c8.58,1.399,9.505,0.416,9.505,0.416
					S153.546,442.811,152.182,438.623z"/>
				<path style="fill:#0F1E36;" d="M140.502,443.379c-0.658,2.725-1.285,5.914-0.769,6.47h20.882
					c0.647-0.369-1.851-3.636-4.201-6.47H140.502z"/>
			</g>
		</g>
		<path style="fill:#0F1E36;" d="M138.507,296.37c0,0-1.511,23.979-1.617,48.927c-0.106,24.947,4.431,92.07,4.431,92.07h11.915
			c0,0,5.99-64.628,10.456-80.665c4.466-16.038,14.379-64.044,14.379-64.044L138.507,296.37z"/>
		<path style="fill:#FEB8A6;" d="M169.924,201.041c-0.734-2.054-0.642-5.953-0.557-7.683c-0.516-0.026-1.033-0.051-1.551-0.072
			c-3.177-0.125-6.346-0.188-9.513-0.336c-0.492,2.342-1.049,4.936-1.565,7.208c-0.738,3.175-1.379,5.709-1.66,5.981
			c-0.786,0.777-10.651,3.087-10.651,3.087s8.525,8.796,14.641,8.855c6.107,0.068,18.835-6.942,18.835-6.942
			s-3.456-3.641-5.835-6.748C171.04,203.061,170.215,201.837,169.924,201.041z"/>
		<path style="fill:#EA7D77;" d="M169.367,193.358c-0.516-0.026-1.033-0.051-1.551-0.072c-3.177-0.125-6.346-0.188-9.513-0.336
			c-0.492,2.342-1.049,4.936-1.565,7.208c0.952,0.573,2.117,1.049,3.447,1.583c2.719,1.078,7.087,2.078,11.884,2.651
			c-1.029-1.33-1.854-2.553-2.146-3.35C169.19,198.987,169.282,195.089,169.367,193.358z"/>
		<path style="fill:#FEB8A6;" d="M169.972,167.428c1.675,1.166,6.091,5.288,6.976,8.668c0.885,3.379,0.884,11.239,0.653,14.581
			c-0.32,4.628-1.41,8.705-4.33,10.81c-2.92,2.105-8.964-0.397-11.993-2.875c-3.029-2.478-3.769-6.657-4.918-10.456
			c-1.149-3.799-0.784-8.096-0.784-8.096s-2.17-6.236,0.786-9.16C167.692,159.691,171.99,165.227,169.972,167.428z"/>
		<path style="fill:#0F1E36;" d="M174.144,173.444c-8.504,1.973-11.323,1.085-14.722,0.577c0,0,1.248,3.234,1.33,5.808
			c0.082,2.574-2.546,7.289-4.772,6.794c0,0,2.291,4.541,2.38,5.996c0.141,2.331-1.416,6.629-1.416,6.629s-4.992-7.861-7.121-10.827
			c-2.128-2.966-6.598-14.848,1.898-18.206c0,0,1.04-8.241,14.634-7.304c8.38,0.577,12.554,6.788,12.554,6.788
			S177.123,172.753,174.144,173.444z"/>
		<path style="fill:#FEB8A6;" d="M159.667,186.478c-0.283-1.429-1.975-5.801-5.102-4.937c-3.136,0.866-1.33,5.977,0.243,7.899
			c1.427,1.743,3.542,1.646,3.542,1.646S160.092,188.621,159.667,186.478z"/>
		<g>
			<path style="fill:#FFBDA6;" d="M271.674,225.242c-1.017,0.087-4.433,0.633-4.433,0.633s3.182-0.831,3.674-1.389
				c0.492-0.558-0.186-1.419-0.968-1.346c-0.782,0.072-2.542,0.44-4.866,0.871c-2.324,0.432-9.73,1.593-9.73,1.593
				s3.44-1.598,3.991-2.19c0.551-0.592,0.832-1.792-0.196-1.775c-1.028,0.017-6.018,2.275-7.7,2.985
				c-1.682,0.71-4.247,3.764-5.494,3.789c-0.442,0.009-3.487,0.162-7.325,0.357c0.461,2.541,0.968,5.075,1.503,7.603
				c3.137-0.552,5.485-0.957,5.604-0.955c0.373,0.008,3.065,0.405,5.621,0.332c2.557-0.073,9.683-1.352,11.119-1.448
				c1.437-0.096,4.494-0.21,4.675-0.799c0.182-0.59-0.003-1.339-1.158-1.275c-1.155,0.064-4.403-0.42-4.403-0.42
				s6.147-0.984,7.717-1.279c1.57-0.296,1.914-1.021,1.441-1.587c-0.473-0.565-0.797-0.294-2.623-0.244
				c-1.827,0.051-6.484,0.559-6.484,0.559s4.147-0.823,5.936-1.127c1.789-0.304,5.112-0.816,5.421-1.453
				C273.306,226.04,272.692,225.155,271.674,225.242z"/>
			<path style="fill:#0F1E36;" d="M176.604,215.082l-1.979-6.106c0,0,5.599,1.407,8.444,3.13
				c2.845,1.723,14.935,10.372,27.158,17.082l33.012-0.652c0,0-1.571,6.598-1.29,9.916c0,0-16.481,2.636-27.53,3.41
				c-4.393,0.308-8.746-0.464-9.615-0.615c-12.331-2.143-31.615-12.898-31.615-12.898L176.604,215.082z"/>
		</g>
		<g>
			<g>
				<path style="fill:#DBDFFF;" d="M552.084,318.451H229.623c-2.829,0-5.123-2.294-5.123-5.123V170.652
					c0-2.829,2.294-5.123,5.123-5.123h322.461c2.83,0,5.123,2.294,5.123,5.123v142.676
					C557.208,316.157,554.914,318.451,552.084,318.451z"/>
				<path style="fill:#6252D7;" d="M557.208,176.804H224.5v-6.153c0-2.829,2.294-5.123,5.123-5.123h322.461
					c2.83,0,5.123,2.294,5.123,5.123V176.804z"/>
				<g>
					<path style="fill:#FFFFFF;" d="M529.372,171.337c0,1.787-1.511,3.235-3.374,3.235c-1.863,0-3.374-1.449-3.374-3.235
						c0-1.787,1.511-3.235,3.374-3.235C527.861,168.102,529.372,169.551,529.372,171.337z"/>
					<path style="fill:#F1F0FF;" d="M540.951,171.337c0,1.787-1.511,3.235-3.374,3.235c-1.863,0-3.374-1.449-3.374-3.235
						c0-1.787,1.511-3.235,3.374-3.235C539.44,168.102,540.951,169.551,540.951,171.337z"/>
					<path style="fill:#B7C2FB;" d="M552.53,171.337c0,1.787-1.511,3.235-3.374,3.235c-1.863,0-3.374-1.449-3.374-3.235
						c0-1.787,1.511-3.235,3.374-3.235C551.02,168.102,552.53,169.551,552.53,171.337z"/>
				</g>
			</g>
		</g>
		
			<text transform="matrix(1 0 0 1 273.0771 264.5576)" style="fill:#FFFFFF; font-family:'FredokaOne-Regular'; font-size:76.344px;">WWW</text>
		<path style="fill:#FF423E;" d="M152.636,206.138c0,0-15.829,4.689-18.1,9.015c-3.566,6.794-0.87,26.268-0.965,34.589
			c-0.072,6.251,4.3,54.284,4.3,54.284c22.397,4.495,49.992-0.241,51.98-4.233c1.692-3.398-1.512-51.491-1.701-57.126
			c-0.273-8.14-4.027-30.282-4.027-30.282l-8.434-4.438l-3.739,3.075L152.636,206.138z"/>
		<polygon style="fill:#0F1E36;" points="155.212,204.21 171.95,211.021 166.527,216.653 152.636,206.138 		"/>
		<polygon style="fill:#0F1E36;" points="171.95,211.021 176.467,215.573 176.604,208.2 173.363,206.391 		"/>
		<g>
			<path style="fill:#FEB8A6;" d="M176.338,251.839l10.192-1.945c0,0,23.034,5.12,26.416,3.968c3.889-1.324,7.219-2.68,9.196-4.266
				c0.663-0.532,1.271-0.999,1.823-1.399l-0.16,4.639c0,0,2.727,1.039,6.674,1.581c3.461,0.475,5.184,0.608,6.562,0.654
				c1.652,0.055,3.468,0.181,2.927,1.474c-0.5,1.197-1.474,1.197-1.474,1.197s1.814,1.115-0.103,2.197
				c-1.917,1.082-1.699,0.299-1.699,0.299s1.332,2.327-0.688,2.598c-2.02,0.271-0.885,1.524-3.579,1.716
				c-1.658,0.118-17.766-1.389-22.778-1.788c-3.129-0.249-8.755-0.491-11.949-0.456c-8.442,0.092-13.105,0.52-13.105,0.52
				L176.338,251.839z"/>
			<path style="fill:#FF423E;" d="M136.773,212.579c-4.103,2.742-4.533,10.041,0.301,18.921
				c5.232,9.611,13.933,18.151,21.739,24.933c2.73,2.372,6.03,3.599,9.401,4.784c2.491,0.875,31.83,2.491,39.053,2.775
				c0,0-2.813-5.403,0.325-10.431c0,0-29.275-6.182-33.833-7.664c0,0-13.377-12.377-18.419-19.624
				C149.642,218.083,142.163,208.977,136.773,212.579z"/>
			<path style="fill:#0F1E36;" d="M136.773,212.579c-4.103,2.742-4.533,10.041,0.301,18.921
				c5.232,9.611,13.933,18.151,21.739,24.933c2.73,2.372,6.03,3.599,9.401,4.784c2.491,0.875,31.83,2.491,39.053,2.775
				c0,0-2.813-5.403,0.325-10.431c0,0-29.275-6.182-33.833-7.664c0,0-13.377-12.377-18.419-19.624
				C149.642,218.083,142.163,208.977,136.773,212.579z"/>
		</g>
		<g>
			<path style="fill:#CA6772;" d="M177.392,185.463c0,0-0.512,0.635-1.216,0.365C176.176,185.828,176.906,187.874,177.392,185.463z"
				/>
			<path style="fill:#CA6772;" d="M166.508,187.126c0,0,1.032,0.486,2.28,0.025C168.787,187.151,167.758,189.376,166.508,187.126z"
				/>
			<path style="fill:none;stroke:#EA7D77;stroke-width:0.7087;stroke-miterlimit:10;" d="M170.964,193.734
				c1.8,1.158,4.519,1.122,5.829-0.689"/>
			<path style="fill:#0F1E36;" d="M169.68,180.819c0.42,0.032,1.425-0.171,1.189-1.079c0,0-1.336-0.713-3.244-0.028
				c-0.76,0.273-1.683,0.813-2.37,1.663C165.255,181.375,167.221,180.634,169.68,180.819z"/>
			<path style="fill:#0F1E36;" d="M175.678,179.942c-0.217,0.107-0.775,0.091-0.775-0.839c0,0,0.608-0.939,1.708-0.615
				c0.438,0.129,1,0.49,1.479,1.196C178.09,179.684,176.95,179.316,175.678,179.942z"/>
			<path style="fill:none;stroke:#EA7D77;stroke-width:0.7087;stroke-miterlimit:10;" d="M173.255,185.296
				c0,0,1.001,2.518,1.812,3.839l-1.361,0.911"/>
			<path style="fill:#0F1E36;" d="M169.673,183.639c0.093,0.723-0.388,1.361-1.074,1.424c-0.686,0.063-1.317-0.473-1.41-1.196
				c-0.093-0.723,0.388-1.361,1.074-1.423C168.949,182.38,169.58,182.916,169.673,183.639z"/>
			<path style="fill:#0F1E36;" d="M177.296,182.488c0.05,0.723-0.21,1.361-0.58,1.424c-0.371,0.063-0.712-0.473-0.762-1.196
				c-0.05-0.723,0.21-1.361,0.58-1.424C176.905,181.229,177.246,181.764,177.296,182.488z"/>
		</g>
		<g>
			<path style="fill:#FFFFFF;" d="M473.128,297.971H295.3c-5.426,0-9.824-4.398-9.824-9.824l0,0c0-5.426,4.398-9.824,9.824-9.824
				h177.828c5.426,0,9.824,4.398,9.824,9.824l0,0C482.952,293.573,478.553,297.971,473.128,297.971z"/>
			<g>
				<path style="fill:#DBDFFF;" d="M465.099,283.804c-1.891,1.891-1.891,4.958,0,6.849c1.892,1.892,4.958,1.891,6.85,0
					c1.891-1.891,1.891-4.958,0-6.849C470.058,281.913,466.991,281.913,465.099,283.804z M470.751,289.456
					c-1.23,1.23-3.224,1.23-4.454,0c-1.23-1.23-1.23-3.224,0-4.454c1.23-1.23,3.224-1.23,4.454,0
					C471.982,286.232,471.982,288.226,470.751,289.456z"/>
				<path style="fill:#DBDFFF;" d="M474.73,293.435L474.73,293.435c-0.404,0.404-1.06,0.404-1.464,0l-2.476-2.476l1.464-1.464
					l2.476,2.476C475.135,292.375,475.135,293.031,474.73,293.435z"/>
			</g>
		</g>
	</g>
	<g>
		
			<ellipse transform="matrix(0.2298 -0.9732 0.9732 0.2298 -111.4741 224.0227)" style="fill:#FF6238;" cx="85.795" cy="182.438" rx="24.311" ry="24.311"/>
		<path style="fill:#FFFFFF;" d="M95.008,180.237h-7.47v-7.471c0-1.127-0.914-2.041-2.041-2.041c-1.127,0-2.041,0.914-2.041,2.041
			v7.471h-7.47c-1.127,0-2.041,0.914-2.041,2.041c0,1.127,0.914,2.041,2.041,2.041h7.47v7.47c0,1.127,0.914,2.041,2.041,2.041
			c1.127,0,2.041-0.914,2.041-2.041v-7.47h7.47c1.127,0,2.041-0.914,2.041-2.041C97.049,181.151,96.135,180.237,95.008,180.237z"/>
	</g>
	<g>
		<path style="fill:#DBDFFF;" d="M109.874,227.086H61.717c-4.388,0-7.945,3.557-7.945,7.945v25.193c0,4.388,3.557,7.945,7.945,7.945
			H97.22c1.236,3.039,6.645,7.637,12.886,9.322c0,0-3.036-4.959-2.988-9.322h2.756c4.388,0,7.945-3.557,7.945-7.945v-25.193
			C117.819,230.643,114.262,227.086,109.874,227.086z"/>
		<path style="fill:#FFFFFF;" d="M74.882,247.984c0,1.71-1.386,3.097-3.097,3.097c-1.71,0-3.097-1.387-3.097-3.097
			c0-1.71,1.386-3.097,3.097-3.097C73.495,244.888,74.882,246.274,74.882,247.984z"/>
		<path style="fill:#FFFFFF;" d="M87.9,247.984c0,1.71-1.386,3.097-3.097,3.097c-1.71,0-3.097-1.387-3.097-3.097
			c0-1.71,1.387-3.097,3.097-3.097C86.514,244.888,87.9,246.274,87.9,247.984z"/>
		<path style="fill:#FFFFFF;" d="M100.919,247.984c0,1.71-1.386,3.097-3.097,3.097c-1.71,0-3.097-1.387-3.097-3.097
			c0-1.71,1.387-3.097,3.097-3.097C99.532,244.888,100.919,246.274,100.919,247.984z"/>
	</g>
	<g>
		<g>
			<g>
				<path style="fill:#6252D7;" d="M542.327,443.861V198.873c0-3.467,2.811-6.278,6.279-6.278h127.844
					c3.468,0,6.278,2.811,6.278,6.278v244.987c0,3.467-2.811,6.278-6.278,6.278H548.605
					C545.138,450.139,542.327,447.328,542.327,443.861z"/>
			</g>
			<path style="fill:#FFFFFF;" d="M672.746,200.289h-31.292c-2.625,0-4.988,1.589-5.979,4.02l0,0
				c-1.344,3.298-4.552,5.454-8.113,5.454h-29.867c-3.562,0-6.769-2.156-8.113-5.454l0,0c-0.991-2.431-3.354-4.02-5.979-4.02
				h-31.094c-2.535,0-4.59,2.055-4.59,4.59v214.422c0,2.535,2.055,4.59,4.59,4.59h120.437c2.535,0,4.59-2.055,4.59-4.59V204.88
				C677.336,202.344,675.281,200.289,672.746,200.289z"/>
		</g>
		<g>
			<circle style="fill:#DBDFFF;" cx="611.743" cy="301.983" r="32.647"/>
			<g>
				<path style="fill:none;stroke:#FFFFFF;stroke-width:4.252;stroke-miterlimit:10;" d="M612.134,318.925
					c-9.357,0-16.941-7.585-16.941-16.941c0-9.357,7.585-16.941,16.941-16.941s16.941,7.585,16.941,16.941
					c0,2.339-0.474,4.568-1.331,6.594"/>
				<polygon style="fill:#FFFFFF;" points="634.526,309.97 624.376,316.71 621.895,304.695 				"/>
			</g>
		</g>
		<path style="fill:#6252D7;" d="M649.454,371.124h-70.759c-2.282,0-4.131-1.85-4.131-4.131l0,0c0-2.282,1.85-4.131,4.131-4.131
			h70.759c2.282,0,4.131,1.85,4.131,4.131l0,0C653.585,369.274,651.735,371.124,649.454,371.124z"/>
		<path style="fill:#DBDFFF;" d="M622.932,371.124h-44.237c-2.282,0-4.131-1.85-4.131-4.131l0,0c0-2.282,1.85-4.131,4.131-4.131
			h44.237c2.282,0,4.131,1.85,4.131,4.131l0,0C627.064,369.274,625.214,371.124,622.932,371.124z"/>
	</g>
	<rect x="653.585" y="248.235" style="fill:#FFFFFF;" width="45.201" height="63.251"/>
	<g>
		<path style="fill:#FF6238;" d="M697.816,275.228h-30.265c-2.958,0-5.356-2.398-5.356-5.356v-30.265
			c0-2.958,2.398-5.356,5.356-5.356h30.265c2.958,0,5.356,2.398,5.356,5.356v30.265C703.172,272.83,700.774,275.228,697.816,275.228
			z"/>
		<path style="fill:#FFFFFF;" d="M694.181,266.329c-1.339-5.106-5.971-8.879-11.498-8.879c-5.526,0-10.159,3.772-11.498,8.879
			H694.181z"/>
		<path style="fill:#FFFFFF;" d="M688.272,250.112c0,3.087-2.502,5.589-5.589,5.589c-3.087,0-5.589-2.502-5.589-5.589
			c0-3.087,2.502-5.589,5.589-5.589C685.77,244.523,688.272,247.025,688.272,250.112z"/>
	</g>
	<g>
		<path style="fill:#6252D7;" d="M697.816,327.1h-30.265c-2.958,0-5.356-2.398-5.356-5.356v-30.265c0-2.958,2.398-5.356,5.356-5.356
			h30.265c2.958,0,5.356,2.398,5.356,5.356v30.265C703.172,324.702,700.774,327.1,697.816,327.1z"/>
		<path style="fill:#FFFFFF;" d="M694.181,318.201c-1.339-5.106-5.971-8.879-11.498-8.879c-5.526,0-10.159,3.772-11.498,8.879
			H694.181z"/>
		<path style="fill:#FFFFFF;" d="M688.272,301.983c0,3.087-2.502,5.589-5.589,5.589c-3.087,0-5.589-2.502-5.589-5.589
			c0-3.087,2.502-5.589,5.589-5.589C685.77,296.395,688.272,298.897,688.272,301.983z"/>
	</g>
	<g>
		<path style="fill:#4DB4A7;" d="M242.673,148.586H141.235c-3.671,0-6.648-2.976-6.648-6.648V70.663
			c0-3.671,2.976-6.648,6.648-6.648h101.438c3.671,0,6.648,2.976,6.648,6.648v71.276
			C249.321,145.61,246.344,148.586,242.673,148.586z"/>
		<path style="fill:#FFFFFF;" d="M147.28,116.149l21.624-26.573c0.982-1.207,2.792-1.301,3.894-0.202l29.68,29.595
			c0.997,0.994,2.601,1.026,3.636,0.072l13.685-12.604c1.093-1.007,2.802-0.908,3.772,0.218l13.238,15.371
			c0.411,0.477,0.637,1.086,0.637,1.715v10.396c0,1.452-1.177,2.628-2.628,2.628h-85.5c-1.452,0-2.628-1.177-2.628-2.628v-16.33
			C146.69,117.203,146.899,116.618,147.28,116.149z"/>
		
			<ellipse transform="matrix(0.7071 -0.7071 0.7071 0.7071 -6.4023 171.0685)" style="fill:#FFFFFF;" cx="203.297" cy="93.263" rx="7.796" ry="7.796"/>
	</g>
	<g>
		<path style="fill:#FFB600;" d="M657.319,74.495l16.92,16.551v80.087c0,3.923-3.18,7.103-7.103,7.103h-61.524
			c-3.923,0-7.103-3.18-7.103-7.103V81.598c0-3.923,3.18-7.103,7.103-7.103H657.319z"/>
		<polygon style="fill:#DBDFFF;" points="674.239,91.046 657.319,91.046 657.319,74.495 		"/>
		<g>
			
				<line style="fill:none;stroke:#FFFFFF;stroke-width:2;stroke-linecap:round;stroke-linejoin:round;stroke-miterlimit:10;" x1="658.294" y1="110.846" x2="615.286" y2="110.846"/>
			
				<line style="fill:none;stroke:#FFFFFF;stroke-width:2;stroke-linecap:round;stroke-linejoin:round;stroke-miterlimit:10;" x1="658.294" y1="125.805" x2="615.286" y2="125.805"/>
			
				<line style="fill:none;stroke:#FFFFFF;stroke-width:2;stroke-linecap:round;stroke-linejoin:round;stroke-miterlimit:10;" x1="658.294" y1="140.765" x2="615.286" y2="140.765"/>
			
				<line style="fill:none;stroke:#FFFFFF;stroke-width:2;stroke-linecap:round;stroke-linejoin:round;stroke-miterlimit:10;" x1="658.294" y1="155.724" x2="628.376" y2="155.724"/>
		</g>
	</g>
	<line style="fill:none;stroke:#0F1E36;stroke-miterlimit:10;" x1="81.707" y1="450.134" x2="703.977" y2="450.134"/>
</g>
</svg>
