<svg height="512" viewBox="0 0 48 60" width="512" xmlns="http://www.w3.org/2000/svg"><g id="001---Task-List"><path id="Shape" d="m4 59.9999982h40c2.209139.0000018 4-1.7908592 4-4v-47.1709982c-.0009703-.41334408-.0878051-.82197865-.255-1.2-.008-.021-.021-.038-.031-.059-.1456489-.31985023-.3463675-.61161991-.593-.862l-5.828-5.829c-.2513126-.24961524-.5448451-.45275189-.867-.6-.018-.008-.033-.02-.052-.027-.3787967-.16663081-.7881733-.25245686-1.202-.252l-35.172-.00000181c-2.209139.00000181-4 1.79086281-4 4v52.00000001c0 2.2091408 1.790861 4.0000018 4 4zm40.586-52.9999982h-1.586c-1.1045695 0-2-.8954305-2-2v-1.586zm-42.586-3c0-1.1045695.8954305-2 2-2h35v3c0 2.209139 1.790861 4 4 4h3v47c0 1.1045695-.8954305 2-2 2h-40c-1.1045695 0-2-.8954305-2-2z"/><path id="Shape" d="m9 23h6c1.6568542 0 3-1.3431458 3-3v-5.586l2.707-2.707c.3789722-.3923789.3735524-1.0160848-.0121814-1.4018186-.3857338-.38573377-1.0094397-.39115361-1.4018186-.0121814l-1.908 1.907c-.5618408-.753058-1.4454491-1.1976408-2.385-1.2h-6c-1.65685425 0-3 1.3431458-3 3v6c0 1.6568542 1.34314575 3 3 3zm-1-9c0-.5522847.44771525-1 1-1h6c.4168941.0020017.7882424.263942.93.656l-2.93 2.93-1.293-1.293c-.3923789-.3789722-1.0160848-.3735524-1.4018186.0121814-.38573377.3857338-.39115361 1.0094397-.0121814 1.4018186l2 2c.3904999.3903819 1.0235001.3903819 1.414 0l2.293-2.293v3.586c0 .5522847-.4477153 1-1 1h-6c-.55228475 0-1-.4477153-1-1z"/><path id="Shape" d="m9 37h6c1.6568542 0 3-1.3431458 3-3v-6c0-1.6568542-1.3431458-3-3-3h-6c-1.65685425 0-3 1.3431458-3 3v6c0 1.6568542 1.34314575 3 3 3zm-1-9c0-.5522847.44771525-1 1-1h6c.5522847 0 1 .4477153 1 1v6c0 .5522847-.4477153 1-1 1h-6c-.55228475 0-1-.4477153-1-1z"/><path id="Shape" d="m9 51h6c1.6568542 0 3-1.3431458 3-3v-6c0-1.6568542-1.3431458-3-3-3h-6c-1.65685425 0-3 1.3431458-3 3v6c0 1.6568542 1.34314575 3 3 3zm-1-9c0-.5522847.44771525-1 1-1h6c.5522847 0 1 .4477153 1 1v6c0 .5522847-.4477153 1-1 1h-6c-.55228475 0-1-.4477153-1-1z"/><path id="Path" d="m24 15h17c.5522847 0 1-.4477153 1-1s-.4477153-1-1-1h-17c-.5522847 0-1 .4477153-1 1s.4477153 1 1 1z"/><path id="Path" d="m24 20h10c.5522847 0 1-.4477153 1-1s-.4477153-1-1-1h-10c-.5522847 0-1 .4477153-1 1s.4477153 1 1 1z"/><path id="Path" d="m24 29h17c.5522847 0 1-.4477153 1-1s-.4477153-1-1-1h-17c-.5522847 0-1 .4477153-1 1s.4477153 1 1 1z"/><path id="Path" d="m24 34h10c.5522847 0 1-.4477153 1-1s-.4477153-1-1-1h-10c-.5522847 0-1 .4477153-1 1s.4477153 1 1 1z"/><path id="Path" d="m24 43h17c.5522847 0 1-.4477153 1-1s-.4477153-1-1-1h-17c-.5522847 0-1 .4477153-1 1s.4477153 1 1 1z"/><path id="Path" d="m24 48h10c.5522847 0 1-.4477153 1-1s-.4477153-1-1-1h-10c-.5522847 0-1 .4477153-1 1s.4477153 1 1 1z"/></g></svg>