<svg clip-rule="evenodd" fill-rule="evenodd" height="512" image-rendering="optimizeQuality" shape-rendering="geometricPrecision" text-rendering="geometricPrecision" viewBox="0 0 173.397 173.397" width="512" xmlns="http://www.w3.org/2000/svg"><g id="Layer_x0020_1"><g id="_400456912"><path id="_400425616" d="m159.73 135.788h-146.062c-2.6389 0-4.7861-2.147-4.7861-4.7865l.0001-84.7694c0-2.6395 2.147-4.7866 4.786-4.7866l33.3446-.0004c.9836 0 1.7818.7982 1.7818 1.7824.0002.9838-.7982 1.782-1.782 1.782l-33.3444-.0004c-.6742 0-1.2221.5491-1.2221 1.2236l.0001 84.7683c0 .6634.5599 1.2237 1.222 1.2237l146.062-.0007c.662 0 1.2217-.5596 1.2217-1.2225l.0003-84.7694c0-.6627-.5602-1.2226-1.2222-1.2226l-33.3413-.0004c-.987 0-1.7821-.7976-1.7821-1.7816.0001-.9847.7951-1.782 1.782-1.782l33.3416-.0004c2.6389 0 4.7857 2.148 4.7857 4.7876l.0003 84.7683c0 2.6396-2.1473 4.7877-4.786 4.787z"/><path id="_400425304" d="m79.3818 149.121h14.6337v-13.333h-14.6337zm16.4157 3.564h-18.1977c-.9836 0-1.782-.7974-1.782-1.7814v-16.8976c0-.9843.7982-1.7813 1.782-1.7813l18.1977-.0007c.9836 0 1.7817.7983 1.7817 1.7824l.0003 16.8966c0 .9842-.7985 1.7822-1.782 1.782z"/><path id="_400425256" d="m86.6985 164.281c-8.4336 0-16.3845-.9368-22.3895-2.6384-6.8802-1.9503-10.3702-4.6156-10.3702-7.9224.0001-7.5405 17.9932-9.6903 23.5063-10.1702.981-.0857 1.8439.6408 1.9305 1.6212.0835.98-.6404 1.8445-1.6211 1.9295-14.3115 1.2446-20.2517 4.9252-20.2517 6.6195.0001 2.3747 10.3053 6.9974 29.1957 6.9974 18.8906-.0006 29.1957-4.6227 29.1957-6.9974.0002-1.6947-5.94-5.3748-20.2517-6.6195-.9807-.0857-1.7046-.949-1.6211-1.9295.0867-.9809.9498-1.7046 1.9305-1.6212 5.5163.4795 23.5063 2.6303 23.5063 10.1702.0002 3.3067-3.4898 5.9725-10.3703 7.9224-6.0048 1.7014-13.9559 2.639-22.3894 2.6384z"/><path id="_400425568" d="m47.0121 114.144c-.4733 0-.9284-.187-1.2624-.5215-.3341-.3347-.5198-.7873-.5198-1.26l.0002-101.465c0-.9835.7949-1.7815 1.7818-1.7815l79.3764-.0005c.984 0 1.7819.7986 1.7819 1.7826l.0001 42.3526c0 .9835-.7983 1.782-1.7821 1.782-.9869 0-1.782-.798-1.782-1.782l.0001-40.5712h-75.8122v97.9l78.4049-.0202s-.0002.0005-.0002.0005c.984-.0005 1.782.7974 1.782 1.7814.0002.9837-.7982 1.7824-1.782 1.7824l-80.1867.0199z"/><path id="_400425928" d="m83.9392 27.1749h-21.3997c-.9839 0-1.7821-.7971-1.7821-1.7813.0001-.9843.7982-1.7819 1.782-1.7819l21.3998-.0001c.9835 0 1.7816.7979 1.7816 1.782.0004.9836-.7981 1.7819-1.7816 1.7813z"/><path id="_400425952" d="m110.858 45.2935h-48.3183c-.9839 0-1.7821-.7973-1.7821-1.7814.0001-.9841.7982-1.782 1.782-1.782l48.3184-.0006c.9836 0 1.7817.7986 1.7817 1.7826.0003.9837-.7981 1.782-1.7817 1.7814z"/><path id="_400457584" d="m84.3875 63.4121h-21.848c-.9839 0-1.7821-.7973-1.7821-1.7815.0001-.984.7982-1.782 1.782-1.782l21.8481-.0005c.9839 0 1.782.7985 1.782 1.7825.0003.9838-.7982 1.782-1.782 1.7815z"/><path id="_400457536" d="m86.3769 81.5308h-23.8374c-.9839 0-1.7821-.7975-1.7821-1.7816.0001-.9847.7982-1.782 1.782-1.782l23.8375-.0004c.984 0 1.7818.7983 1.7818 1.7824.0002.9838-.7981 1.782-1.7818 1.7816z"/><path id="_400457752" d="m110.858 99.6494h-48.3183c-.9839 0-1.7821-.7975-1.7821-1.7816.0001-.9847.7982-1.782 1.782-1.782l48.3184-.0004c.9836 0 1.7817.7982 1.7817 1.7824.0003.9838-.7981 1.782-1.7817 1.7816z"/><path id="_400457656" d="m137.634 121.796c-.6157 0-1.216-.319-1.547-.8908l-2.4994-4.3341c-.4922-.8519-.2015-1.9412.6494-2.4334.8541-.4929 1.9428-.2002 2.4347.6521l2.503 4.3332c.4919.8521.201 1.9425-.6529 2.4348-.2784.1617-.5879.2388-.8878.2382z"/><path id="_400457200" d="m96.3913 48.9411c-10.6517 6.1493-14.3118 19.8172-8.1644 30.4678 4.127 7.1462 11.6417 11.1471 19.3544 11.1477 3.7809-.0003 7.6106-.9606 11.1127-2.984 10.6521-6.1491 14.3148-19.817 8.1644-30.4674-6.1471-10.6513-19.8154-14.313-30.4672-8.1641zm11.1962 45.1785c-8.9468 0-17.6591-4.639-22.4452-12.9287-7.1339-12.3528-2.8865-28.2044 9.4669-35.3362l.0001-.0001c12.3535-7.1322 28.2056-2.8842 35.3367 9.4686 7.1312 12.3518 2.8834 28.2041-9.47 35.3361-4.062 2.3458-8.5047 3.4607-12.8885 3.4603z"/><path id="_400456936" d="m125.002 98.1409c-1.6306.9419-2.1937 3.0366-1.2501 4.6685l12.1523 21.0466c.4518.7852 1.191 1.349 2.0759 1.5861.885.237 1.8067.1181 2.5925-.3355.7858-.4535 1.349-1.191 1.5841-2.0764.2382-.8859.1206-1.8062-.3342-2.5917l-12.1521-21.0474c-.4518-.7852-1.1912-1.3482-2.076-1.5856s-1.8068-.1181-2.5926.3354zm13.8815 30.9859c-.6063 0-1.2221-.08-1.8254-.242-1.8064-.484-3.3134-1.6366-4.2415-3.2467l-12.152-21.0472c-1.9243-3.3336-.7768-7.6116 2.5552-9.5367 1.612-.9297 3.4928-1.1746 5.2965-.6914 1.807.4835 3.3103 1.6369 4.2415 3.2473l12.1525 21.0461c1.9244 3.3336.7763 7.6125-2.5557 9.5371-1.0703.6175-2.2615.9337-3.4711.9335z"/><path id="_400457080" d="m123.96 98.4709c-.6156 0-1.2127-.3191-1.5438-.8908l-4.3711-7.5737c-.4922-.8521-.2014-1.9415.6493-2.4338.8542-.4926 1.9429-.2001 2.4349.6523l4.3747 7.573c.4918.852.1978 1.9421-.6531 2.4343-.2814.1614-.5877.2392-.8909.2387z"/></g></g></svg>