<svg id="Layer_1" viewBox="0 0 512 512" xmlns="http://www.w3.org/2000/svg" data-name="Layer 1"><path d="m305.871 53.751-9.112-19.395-8.919 18.981a5.489 5.489 0 0 1 -4.488 3.548l-21.226 2.669 15.46 14.5a5.485 5.485 0 0 1 1.793 5.175l-4.026 21.034 18.714-10.3a5.48 5.48 0 0 1 5.332-.028l18.765 10.331-4.026-21.034a5.481 5.481 0 0 1 1.629-5.023l15.621-14.651-21.226-2.669v-.018a5.472 5.472 0 0 1 -4.3-3.116zm-4.153-34.589 12.776 27.194 29.836 3.751a5.491 5.491 0 0 1 2.838 9.684l-21.685 20.339 5.654 29.54a5.494 5.494 0 0 1 -8.03 5.84l-26.348-14.51-26.349 14.51a5.493 5.493 0 0 1 -8.029-5.84l5.653-29.54-21.934-20.577a5.489 5.489 0 0 1 3.092-9.435v-.011l29.836-3.751 12.772-27.194a5.481 5.481 0 0 1 9.919 0zm65.6 61.539h91.682a10.006 10.006 0 0 1 9.99 9.991v91.68a10.006 10.006 0 0 1 -9.99 9.99h-91.68a10.006 10.006 0 0 1 -9.991-9.99v-91.68a10.006 10.006 0 0 1 9.991-9.991zm40.572 10.993v25.333l10.536.078v-25.411zm21.528 0v30.926a5.481 5.481 0 0 1 -6.023 5.472l-21.023-.156a5.473 5.473 0 0 1 -5.452-5.474h-.02v-30.768h-28.581v89.676h89.681v-89.676zm-48.661 81.633h18.082a5.5 5.5 0 1 0 0-10.993h-18.083a5.5 5.5 0 0 0 0 10.993zm102.608 294.773h-454.73v16.9h454.73zm-109.193-11h77.97v-232.537h-77.97zm-157.157 0h77.97v-194.025h-77.97zm-157.157 0h77.97v-137.007h-77.97zm-36.72 0h25.728v-142.5a5.5 5.5 0 0 1 5.5-5.5h88.962a5.5 5.5 0 0 1 5.5 5.5v142.5h57.2v-199.521a5.5 5.5 0 0 1 5.5-5.5h88.962a5.5 5.5 0 0 1 5.5 5.5v199.521h57.2v-238.033a5.5 5.5 0 0 1 5.5-5.5h88.962a5.5 5.5 0 0 1 5.5 5.5v238.033h25.728a5.5 5.5 0 0 1 5.5 5.5v27.891a5.5 5.5 0 0 1 -5.5 5.5h-465.742a5.5 5.5 0 0 1 -5.5-5.5v-27.891a5.5 5.5 0 0 1 5.5-5.5zm248.94-296.94-215.329 117.592a5.476 5.476 0 0 1 -5.238-9.619l216.754-118.37-19.417-6.571a6.4 6.4 0 0 1 4.108-12.123l32.055 10.849a6.4 6.4 0 0 1 4.008 8.115l-12.3 36.353a6.4 6.4 0 1 1 -12.123-4.108z" fill-rule="evenodd"/></svg>