<svg id="Layer_1" enable-background="new 0 0 66 66" height="512" viewBox="0 0 66 66" width="512" xmlns="http://www.w3.org/2000/svg"><g><path d="m9.37 34.72c2.84 0 5.14-2.31 5.14-5.14 0-1.09-.35-2.1-.93-2.94l8.65-8.68c.82.56 1.82.89 2.89.89 1.34 0 2.55-.53 3.47-1.37l7.67 5.69c-.33.68-.53 1.43-.53 2.23 0 2.84 2.31 5.14 5.14 5.14 2.84 0 5.14-2.31 5.14-5.14 0-1.16-.4-2.21-1.04-3.07l10.26-11.29-.53 3.82c-.07.53.29 1.02.82 1.09.05.01.09.01.14.01.47 0 .89-.35.96-.83l.97-6.92c0-.02-.01-.04-.01-.07.01-.1 0-.19-.03-.28-.01-.04-.02-.09-.03-.13-.03-.09-.09-.17-.15-.25-.02-.03-.03-.07-.06-.09-.01-.01-.02-.01-.03-.02 0 0 0-.01-.01-.01s-.01-.01-.02-.01c-.19-.16-.43-.25-.67-.24h-.01c-.03 0-.06 0-.08 0l-6.92.97c-.53.07-.9.56-.82 1.09.07.53.56.9 1.09.82l4.28-.6-10.57 11.64c-.78-.48-1.69-.77-2.67-.77-1.34 0-2.55.53-3.46 1.37l-7.67-5.69c.33-.67.52-1.42.52-2.22 0-2.84-2.31-5.14-5.14-5.14s-5.14 2.31-5.14 5.14c0 1.07.33 2.06.89 2.89l-8.67 8.69c-.81-.54-1.79-.86-2.83-.86-2.84 0-5.14 2.31-5.14 5.14-.01 2.84 2.29 5.14 5.13 5.14zm31.51-12.53c1.77 0 3.21 1.44 3.21 3.21s-1.44 3.21-3.21 3.21-3.21-1.44-3.21-3.21 1.44-3.21 3.21-3.21zm-15.76-11.69c1.77 0 3.21 1.44 3.21 3.21s-1.44 3.21-3.21 3.21-3.21-1.44-3.21-3.21 1.44-3.21 3.21-3.21zm-15.75 15.87c1.77 0 3.21 1.44 3.21 3.21s-1.44 3.21-3.21 3.21-3.21-1.44-3.21-3.21 1.44-3.21 3.21-3.21z"/><path d="m63.95 56.96h-1.82v-32.3c0-1.6-1.3-2.9-2.9-2.9h-5.18c-1.6 0-2.9 1.3-2.9 2.9v32.3h-4.77v-17.8c0-1.6-1.3-2.9-2.9-2.9h-5.18c-1.6 0-2.9 1.3-2.9 2.9v17.79h-4.77v-25.52c0-1.6-1.3-2.9-2.9-2.9h-5.18c-1.6 0-2.9 1.3-2.9 2.9v25.53h-4.77v-9.09c0-1.6-1.3-2.9-2.9-2.9h-5.2c-1.6 0-2.9 1.3-2.9 2.9v9.09h-1.83c-.53 0-.97.43-.97.97s.43.97.97.97h61.89c.53 0 .97-.43.97-.97s-.43-.97-.96-.97zm-58.14 0v-9.09c0-.53.43-.97.97-.97h5.18c.53 0 .97.43.97.97v9.09zm15.75 0v-25.53c0-.53.43-.97.97-.97h5.18c.53 0 .97.43.97.97v25.53zm15.76 0v-17.8c0-.53.43-.97.97-.97h5.18c.53 0 .97.43.97.97v17.79h-7.12zm15.75 0v-32.3c0-.53.43-.97.97-.97h5.18c.53 0 .97.43.97.97v32.3z"/></g></svg>